<svg id="Grupo_69712" data-name="Grupo 69712" xmlns="http://www.w3.org/2000/svg" width="190" height="190" viewBox="0 0 190 190">
  <rect id="Rectángulo_5406" data-name="Rectángulo 5406" width="190" height="190" transform="translate(0 0)" fill="none"/>
  <g id="Grupo_69625" data-name="Grupo 69625" transform="translate(28.165 16.17)">
    <g id="tree" transform="translate(16.791)">
      <g id="tree-2" data-name="tree">
        <path id="Trazado_101116" data-name="Trazado 101116" d="M878.379,167.876c-2.754-.388-4.313,1.121-5-2.027-.587-2.686-.021-3.592-3.142-4.594-5.5-1.766-8.788.612-12.721,4.1-3.241,2.876-5.56,5.37-10.069,5.894-1.841.214-4.46.705-5.675,2.274-3.038,3.93,1.93,5.392,5.02,5.315,3.848-.1,7.569-1.882,11.089-3,2.21-.693,6.357-1.979,6.191,1.771-.06,1.41-1.745,2.356-1.7,3.711.091,3.165,4.654,1.554,6.187,1.062a42.628,42.628,0,0,0,8.677-3.522C881.974,176.065,886.426,169.008,878.379,167.876Z" transform="translate(-769.675 -148.767)" fill="#5daf91"/>
        <g id="Grupo_69622" data-name="Grupo 69622" transform="translate(0 12.051)">
          <path id="Trazado_101117" data-name="Trazado 101117" d="M868.7,211.388c-1.463-.349-1.978-2.465-3.954-3.126-3.233-1.083-7.037-.206-10.219.806-7.642,2.429-15.036,6.424-22.342,9.636-5.865,2.58-11.156,4.132-17.6,2.38-6.521-1.774-12.016-4.575-19.09-3.309a14.238,14.238,0,0,0-8.347,4.864,30.841,30.841,0,0,0-4.133,5.061,62.9,62.9,0,0,0,7.6,1.527,102.984,102.984,0,0,0,12.791.5c4.648-.219,9.166-1.3,13.807-1.445,4.658-.144,8.866,1.844,13.409,2.09,8.073.432,14.752-2.547,22.283-4.879a129.86,129.86,0,0,0,16.955-6.679c1.839-.862,8.423-2.587,8.822-4.928C879.5,209.058,870.517,211.822,868.7,211.388Z" transform="translate(-769.378 -161.061)" fill="#5daf91"/>
          <path id="Trazado_101118" data-name="Trazado 101118" d="M824.15,183.68c-2.035-1.269-5.034-.778-7.264-.58-3.4.3-6.674.916-10.038,1.4-4.213.6-6.76-.733-10.308-2.558-4.8-2.464-11.734.94-15.5,4.061a59.341,59.341,0,0,0-7.1,6.985c-.745.87-2.481,2.539-2.461,3.808.035,2.374,3.868,1.778,5.423,1.586,3.412-.424,6.458-2.631,9.965-2.389,4.255.3,7.286,1.421,11.322-.358,4.28-1.885,7.516-5.478,11.908-6.992,4.761-1.64,10.776-1.017,15.149-3.922A2.445,2.445,0,0,0,824.15,183.68Z" transform="translate(-769.318 -160.923)" fill="#5daf91"/>
          <g id="Grupo_69620" data-name="Grupo 69620" transform="translate(15.205 7.957)">
            <path id="Trazado_101119" data-name="Trazado 101119" d="M795.316,185.212v0Z" transform="translate(-784.646 -168.9)" fill="#ba7575"/>
            <path id="Trazado_101120" data-name="Trazado 101120" d="M858.835,179.093c-.211-3.491.764-6.388,1.775-9.649-2.279,5.071-3.241,10.565-4.985,15.686-1.77,5.2-2.837,11.366-4.567,16.715-1.827,5.657-4.615,9.728-7.505,14.877-3.438,6.125-7.14,11.9-12.383,16.7-2.093,1.917-4.784,3.117-7.121,4.645-1.992,1.3-4.712,4.24-7.118,3.425-4.192-1.413-8.3-10.188-9.99-13.953-2.395-5.332-5.209-10.779-6.959-16.407a31.959,31.959,0,0,1-1.206-6.636,7.2,7.2,0,0,1,1.129-2.456,64.6,64.6,0,0,1,4.641-5.612c2.581-2.979,2.956-6.867,4.939-10.185-2.32-.54-2.437,2.429-3.192,4.149a16.076,16.076,0,0,1-3.13,5.26c-1.277,1.277-3.383,2.008-4.734,3.188-.076-1.483-.16-2.965-.305-4.425a61.693,61.693,0,0,0-1.694-11.1,2.02,2.02,0,0,0-1.168,1.816c0,2.74.026,5.55.113,8.366a24.8,24.8,0,0,1-3.752-1.32,20.8,20.8,0,0,1-6.308-5.789,6.126,6.126,0,0,0-.723.316,15.951,15.951,0,0,0,7.736,6.985,19.275,19.275,0,0,1,3.118,1.721,104.855,104.855,0,0,0,.987,11.086c1.023,6.836,4.232,13.723,6.952,20.05,2.227,5.18,3.471,9.63,7.277,13.992,3.862,4.426,7.859,7.455,6.877,13.615-.567,3.557-1.94,7.009-2.784,10.547-1.078,4.512-1.119,9.038-1.611,13.692a63.073,63.073,0,0,1-2.6,11.425c-.576,1.922-1.177,3.836-1.716,5.767-.487,1.744-1.865,4.208.65,4.7a9.86,9.86,0,0,0,4.571.012c1.826-.548,1.784-1.637,2.077-3.353.713-4.161,1.709-8.269,2.366-12.44.92-5.872.688-12.136,2.071-17.961,1.506-6.325,4.119-12.28,5.579-18.564,1.149-4.944,4.384-9.446,8.12-13.006,9.1-8.661,17.686-21.623,19.434-34.291.535-3.88,2.168-7.3,2.545-11.221a13.1,13.1,0,0,1,1.664-5.952c2.861-4.8,6.926-9.607,9.517-14.686C864.445,172.22,861.79,175.148,858.835,179.093Z" transform="translate(-784.591 -168.817)" fill="#b57878"/>
          </g>
          <path id="Trazado_101121" data-name="Trazado 101121" d="M880.857,196.263c-7.492-3.981-16.122.5-23.942-1.474-3.72-.94-7.328-2.47-11.034-3.513-5.054-1.426-10.188-.119-14.948,1.712-4.965,1.911-8.966,5.467-13.259,8.509-2.5,1.763-5.341,3.306-8.479,3.365-2.73.052-5.45-.676-8.154-1.017a29.882,29.882,0,0,0-11.694.548c-6.164,1.76-14.442,5.512-17.272,11.751-2.039,4.5.516,8.763,4.937,10.164a29.373,29.373,0,0,0,5.9,1.392c.049-.023.094-.044.141-.063-.033-.007-.064-.017-.1-.026a30.835,30.835,0,0,1,4.133-5.061,14.238,14.238,0,0,1,8.347-4.864c7.074-1.266,12.569,1.535,19.09,3.309,6.444,1.752,11.735.2,17.6-2.38,7.306-3.212,14.7-7.207,22.342-9.636,3.183-1.012,6.986-1.889,10.219-.806,1.976.661,2.49,2.777,3.953,3.126,1.816.434,10.8-2.33,9.977,2.5a1.672,1.672,0,0,1-.116.365,1.411,1.411,0,0,1,.113-.135c.563-.61,1.247-1.151,1.857-1.742a22.353,22.353,0,0,0,5.107-6.53C887.512,201.554,884.613,198.261,880.857,196.263Z" transform="translate(-769.318 -160.973)" fill="#81c9b1"/>
          <g id="Grupo_69621" data-name="Grupo 69621" transform="translate(20.343 58.942)">
            <path id="Trazado_101122" data-name="Trazado 101122" d="M804.109,226.569a11.267,11.267,0,0,0-2.477-.739,22.724,22.724,0,0,1-4.918-1.782c-1.65-.973-2.746-2.247-4.526-3.016a16.288,16.288,0,0,1-2.051-.966c-.127.089-.255.18-.382.273a7.867,7.867,0,0,0,1.852,1.154,22.647,22.647,0,0,1,4.178,2.44,33.3,33.3,0,0,0,5.5,2.791,26.341,26.341,0,0,1,3.633,1.358A1.363,1.363,0,0,0,804.109,226.569Z" transform="translate(-789.755 -220.066)" fill="#b57878"/>
            <path id="Trazado_101123" data-name="Trazado 101123" d="M805,228.123c-.006.147-.019.307-.035.5l.308-.154C805.263,228.353,805.162,228.236,805,228.123Z" transform="translate(-789.833 -220.107)" fill="#ba7575"/>
          </g>
          <path id="Trazado_101124" data-name="Trazado 101124" d="M772.582,197.731c-2.5.081-3.618-3.456-3.182-5.421a13.052,13.052,0,0,1,2.844-4.925c1.191-1.4,3.264-2.6,4.051-4.268.7-1.486.679-3.424,1.4-5.036a21.59,21.59,0,0,1,6.99-8.71c7.91-5.77,18.336-11.336,28.259-7.014,2.726,1.188,5.43,2.883,6.584,5.685.625,1.52.752,2.734,2.122,3.64,1.656,1.094,2.818,1.4,3.744,3.276a8.1,8.1,0,0,1,.89,4.177c-.045,2.067.16,5.542-2.335,5.779-2.047.195-4.229-.794-6.314-.686a34.425,34.425,0,0,0-10.147,2.356c-5.005,1.868-10.158,3.58-15.528,4.013-3.376.274-7.181-1.027-10.276.689-3.21,1.782-5.835,5.94-9.342,6.893-.207-.019.15-.066.2-.141Z" transform="translate(-769.307 -160.819)" fill="#81c9b1"/>
        </g>
        <path id="Trazado_101125" data-name="Trazado 101125" d="M842.168,177.569c-1.769-.657-2.723-4.614-2.294-6.354.8-3.226,4.167-3.489,6.713-4.643a14.739,14.739,0,0,0,4.919-4.053,47.148,47.148,0,0,1,8.407-7.385c5.548-3.785,15.605-9.967,21.725-3.839,2.99,3-.387,6.73-.615,10.115-.207,3.047,3.52,4.708,3.573,8.023.088,5.405-6.236,8.876-10.511,10.265-3.347,1.085-4.523.232-5.1-3.21-.27-1.594-.233-4.04-1.514-5.218s-3.585-1.21-5.207-1.036c-4.843.513-8.554,3.53-12.953,5.3-2.187.88-5.666,1.079-7.452,2.086Z" transform="translate(-769.67 -148.705)" fill="#81c9b1"/>
      </g>
    </g>
    <g id="Grupo_69624" data-name="Grupo 69624" transform="translate(0 80.79)">
      <path id="Trazado_101126" data-name="Trazado 101126" d="M805.734,237.2c-16.684-11.663-35.942-5.832-35.942-5.832l-.163.128a32.309,32.309,0,0,0-17.2,11.266l2.893,64.018H799.81l1.808-65.038Z" transform="translate(-752.429 -229.914)" fill="#4d3c4b"/>
      <path id="Trazado_101127" data-name="Trazado 101127" d="M765.5,306.787l-2.894-64.018s18.447-25.68,48.276-2a10.084,10.084,0,0,1,.914.916l-3.977,65.1Z" transform="translate(-752.481 -229.918)" fill="#897a88"/>
      <g id="Grupo_69623" data-name="Grupo 69623" transform="translate(26.403 18.846)">
        <rect id="Rectángulo_5407" data-name="Rectángulo 5407" width="4.729" height="25.628" transform="translate(6.47)" fill="#5b4f5a"/>
        <rect id="Rectángulo_5408" data-name="Rectángulo 5408" width="17.543" height="4.733" transform="translate(0 7.834)" fill="#5b4f5a"/>
      </g>
    </g>
  </g>
</svg>
