<svg xmlns="http://www.w3.org/2000/svg" xmlns:xlink="http://www.w3.org/1999/xlink" width="190.76" height="150.799" viewBox="0 0 190.76 150.799">
  <defs>
    <clipPath id="clip-path">
      <path id="Rectángulo_5469" data-name="Rectángulo 5469" d="M5.5,0H40.217a5.5,5.5,0,0,1,5.5,5.5V70.488a5.5,5.5,0,0,1-5.5,5.5H5.5A5.5,5.5,0,0,1,0,70.49V5.5A5.5,5.5,0,0,1,5.5,0Z" transform="translate(452.937 1153.528) rotate(90)" fill="#c4b9b0"/>
    </clipPath>
  </defs>
  <g id="Grupo_69797" data-name="Grupo 69797" transform="translate(-322.486 -1099.689)">
    <rect id="Rectángulo_5434" data-name="Rectángulo 5434" width="190.76" height="150.799" transform="translate(322.486 1099.689)" fill="none"/>
    <g id="Grupo_69796" data-name="Grupo 69796">
      <path id="Trazado_101537" data-name="Trazado 101537" d="M350.353,1220.746a2.938,2.938,0,0,1-.282-.1c-1.259-.483-2.421-1.855-3.411-2.731-2.669-2.36-5.209-5.519-4.773-9.31.451-3.917,3.919-6.766,5.373-10.432,3.415-8.613-5.045-18.238-2.61-27.177,1.806-6.627,9.106-10.345,15.95-10.937s13.671,1.1,20.537,1.283a47.382,47.382,0,0,0,31.18-10.765c6.112-5.063,10.927-11.221,17.574-15.68,6.222-4.173,13.393-7.213,20.957-7.506a31.253,31.253,0,0,1,20,6.282,17.41,17.41,0,0,1,6.05,7.538c1.431,3.893.781,8.193.331,12.316s-.6,8.587,1.619,12.088c1.529,2.409,3.872,3.838,6.076,5.527a24.621,24.621,0,0,1,6.059,6.352c3.389,5.433,3.554,12.4,1.855,18.574-2.135,7.759-6.813,14.434-11.087,21.1a4.563,4.563,0,0,0-.683,3.823H356.229C354.436,1220.834,352.105,1221.279,350.353,1220.746Z" fill="#f9e4cf"/>
      <g id="Grupo_69906" data-name="Grupo 69906">
        <g id="Grupo_69798" data-name="Grupo 69798">
          <path id="Trazado_101683" data-name="Trazado 101683" d="M430.869,1215.243h-3.944a2.727,2.727,0,0,1-2.726-2.726v-12.023l-16.455-.231v12.254a2.727,2.727,0,0,1-2.726,2.726h-3.573a6.553,6.553,0,0,0-6.553,6.552h42.53A6.553,6.553,0,0,0,430.869,1215.243Z" fill="#4d3c4b"/>
        </g>
        <g id="Grupo_69799" data-name="Grupo 69799">
          <rect id="Rectángulo_5464" data-name="Rectángulo 5464" width="41.404" height="83.866" transform="translate(438.995 1137.723)" fill="#c4b9b0"/>
        </g>
        <g id="Grupo_69803" data-name="Grupo 69803">
          <g id="Grupo_69800" data-name="Grupo 69800">
            <rect id="Rectángulo_5465" data-name="Rectángulo 5465" width="6.145" height="8.842" rx="0.3" transform="translate(428.521 1127.837) rotate(-62.396)" fill="#fcc13f"/>
          </g>
          <g id="Grupo_69801" data-name="Grupo 69801">
            <rect id="Rectángulo_5466" data-name="Rectángulo 5466" width="1.443" height="3.109" rx="0.3" transform="translate(431.742 1123.404) rotate(-62.397)" fill="#fcc13f"/>
          </g>
          <g id="Grupo_69802" data-name="Grupo 69802">
            <path id="Trazado_101684" data-name="Trazado 101684" d="M436.505,1131.7a.3.3,0,0,1-.391.1l-7.352-3.844a.3.3,0,0,1-.139-.379l1.841-4.546a.3.3,0,0,1,.417-.153l8.168,4.27a.306.306,0,0,1,.151.19.3.3,0,0,1-.038.239Z" fill="#fee2bf"/>
          </g>
        </g>
        <g id="Grupo_69804" data-name="Grupo 69804">
          <path id="Rectángulo_5467" data-name="Rectángulo 5467" d="M8.091,0H71.972a8.092,8.092,0,0,1,8.092,8.092V41.7a8.091,8.091,0,0,1-8.091,8.091H8.092A8.092,8.092,0,0,1,0,41.7V8.091A8.091,8.091,0,0,1,8.091,0Z" transform="translate(374.911 1151.49)" fill="#4d3c4b"/>
        </g>
        <g id="Grupo_69807" data-name="Grupo 69807">
          <g id="Grupo_69806" data-name="Grupo 69806">
            <path id="Rectángulo_5468" data-name="Rectángulo 5468" d="M5.5,0H40.217a5.5,5.5,0,0,1,5.5,5.5V70.488a5.5,5.5,0,0,1-5.5,5.5H5.5A5.5,5.5,0,0,1,0,70.49V5.5A5.5,5.5,0,0,1,5.5,0Z" transform="translate(452.937 1153.528) rotate(90)" fill="#c4b9b0"/>
            <g id="Grupo_69805" data-name="Grupo 69805" clip-path="url(#clip-path)">
              <path id="Trazado_101685" data-name="Trazado 101685" d="M389.5,1153.528l-12.554.12v-.12Z" fill="#c4b9b0"/>
              <path id="Trazado_101686" data-name="Trazado 101686" d="M432.61,1153.528l-55.662.531v-.412l12.554-.12Z" fill="#c4b9b0"/>
              <path id="Trazado_101687" data-name="Trazado 101687" d="M452.937,1153.745l-75.988.725v-.411l55.662-.531h20.326Z" fill="#c4b9b0"/>
              <path id="Trazado_101688" data-name="Trazado 101688" d="M452.937,1154.157l-75.988.725v-.412l75.988-.725Z" fill="#c4b9b0"/>
              <path id="Trazado_101689" data-name="Trazado 101689" d="M452.937,1154.568l-75.988.725v-.411l75.988-.725Z" fill="#c4b9b0"/>
              <path id="Trazado_101690" data-name="Trazado 101690" d="M452.937,1154.98l-75.988.725v-.412l75.988-.725Z" fill="#c4b9b0"/>
              <path id="Trazado_101691" data-name="Trazado 101691" d="M452.937,1155.391l-75.988.725v-.411l75.988-.725Z" fill="#c4b9b0"/>
              <path id="Trazado_101692" data-name="Trazado 101692" d="M452.937,1155.8l-75.988.725v-.412l75.988-.725Z" fill="#c4b9b0"/>
              <path id="Trazado_101693" data-name="Trazado 101693" d="M452.937,1156.214l-75.988.725v-.411l75.988-.725Z" fill="#c4b9b0"/>
              <path id="Trazado_101694" data-name="Trazado 101694" d="M452.937,1156.626l-75.988.725v-.412l75.988-.725Z" fill="#c4b9b0"/>
              <path id="Trazado_101695" data-name="Trazado 101695" d="M452.937,1157.038l-75.988.725v-.411l75.988-.725Z" fill="#c4b9b0"/>
              <path id="Trazado_101696" data-name="Trazado 101696" d="M452.937,1157.449l-75.988.725v-.412l75.988-.725Z" fill="#c4b9b0"/>
              <path id="Trazado_101697" data-name="Trazado 101697" d="M452.937,1157.861l-75.988.725v-.411l75.988-.725Z" fill="#c4b9b0"/>
              <path id="Trazado_101698" data-name="Trazado 101698" d="M452.937,1158.272l-75.988.725v-.412l75.988-.725Z" fill="#c4b9b0"/>
              <path id="Trazado_101699" data-name="Trazado 101699" d="M452.937,1158.684l-75.988.725V1159l75.988-.725Z" fill="#c4b9b0"/>
              <path id="Trazado_101700" data-name="Trazado 101700" d="M452.937,1159.1l-75.988.725v-.412l75.988-.725Z" fill="#c4b9b0"/>
              <path id="Trazado_101701" data-name="Trazado 101701" d="M452.937,1159.507l-75.988.725v-.411l75.988-.725Z" fill="#c4b9b0"/>
              <path id="Trazado_101702" data-name="Trazado 101702" d="M452.937,1159.919l-75.988.725v-.412l75.988-.725Z" fill="#c4b9b0"/>
              <path id="Trazado_101703" data-name="Trazado 101703" d="M452.937,1160.33l-75.988.725v-.411l75.988-.725Z" fill="#c4b9b0"/>
              <path id="Trazado_101704" data-name="Trazado 101704" d="M452.937,1160.742l-75.988.725v-.412l75.988-.725Z" fill="#c4b9b0"/>
              <path id="Trazado_101705" data-name="Trazado 101705" d="M452.937,1161.153l-75.988.725v-.411l75.988-.725Z" fill="#c4b9b0"/>
              <path id="Trazado_101706" data-name="Trazado 101706" d="M452.937,1161.565l-75.988.725v-.412l75.988-.725Z" fill="#c4b9b0"/>
              <path id="Trazado_101707" data-name="Trazado 101707" d="M452.937,1161.976l-75.988.725v-.411l75.988-.725Z" fill="#c4b9b0"/>
              <path id="Trazado_101708" data-name="Trazado 101708" d="M452.937,1162.388l-75.988.725v-.412l75.988-.725Z" fill="#c4b9b0"/>
              <path id="Trazado_101709" data-name="Trazado 101709" d="M452.937,1162.8l-75.988.725v-.411l75.988-.725Z" fill="#c4b9b0"/>
              <path id="Trazado_101710" data-name="Trazado 101710" d="M452.937,1163.211l-75.988.725v-.412l75.988-.725Z" fill="#c4b9b0"/>
              <path id="Trazado_101711" data-name="Trazado 101711" d="M452.937,1163.623l-75.988.725v-.411l75.988-.725Z" fill="#c4b9b0"/>
              <path id="Trazado_101712" data-name="Trazado 101712" d="M452.937,1164.034l-75.988.725v-.412l75.988-.725Z" fill="#c4b9b0"/>
              <path id="Trazado_101713" data-name="Trazado 101713" d="M452.937,1164.446l-75.988.725v-.411l75.988-.725Z" fill="#c4b9b0"/>
              <path id="Trazado_101714" data-name="Trazado 101714" d="M452.937,1164.857l-75.988.725v-.412l75.988-.725Z" fill="#c4b9b0"/>
              <path id="Trazado_101715" data-name="Trazado 101715" d="M452.937,1165.269l-75.988.725v-.411l75.988-.725Z" fill="#c4b9b0"/>
              <path id="Trazado_101716" data-name="Trazado 101716" d="M452.937,1165.68l-75.988.725v-.412l75.988-.725Z" fill="#c4b9b0"/>
              <path id="Trazado_101717" data-name="Trazado 101717" d="M452.937,1166.092l-75.988.725v-.411l75.988-.725Z" fill="#c4b9b0"/>
              <path id="Trazado_101718" data-name="Trazado 101718" d="M452.937,1166.5l-75.988.725v-.412l75.988-.725Z" fill="#c4b9b0"/>
              <path id="Trazado_101719" data-name="Trazado 101719" d="M452.937,1166.915l-75.988.725v-.411l75.988-.725Z" fill="#c4b9b0"/>
              <path id="Trazado_101720" data-name="Trazado 101720" d="M452.937,1167.327l-75.988.725v-.412l75.988-.725Z" fill="#c4b9b0"/>
              <path id="Trazado_101721" data-name="Trazado 101721" d="M452.937,1167.738l-75.988.725v-.411l75.988-.725Z" fill="#c4b9b0"/>
              <path id="Trazado_101722" data-name="Trazado 101722" d="M452.937,1168.15l-75.988.725v-.412l75.988-.725Z" fill="#c4b9b0"/>
              <path id="Trazado_101723" data-name="Trazado 101723" d="M452.937,1168.561l-75.988.725v-.411l75.988-.725Z" fill="#c4b9b0"/>
              <path id="Trazado_101724" data-name="Trazado 101724" d="M452.937,1168.973l-75.988.725v-.412l75.988-.725Z" fill="#c4b9b0"/>
              <path id="Trazado_101725" data-name="Trazado 101725" d="M452.937,1169.384l-75.988.725v-.411l75.988-.725Z" fill="#c4b9b0"/>
              <path id="Trazado_101726" data-name="Trazado 101726" d="M452.937,1169.8l-75.988.725v-.412l75.988-.725Z" fill="#c4b9b0"/>
              <path id="Trazado_101727" data-name="Trazado 101727" d="M452.937,1170.208l-75.988.725v-.411l75.988-.725Z" fill="#c4b9b0"/>
              <path id="Trazado_101728" data-name="Trazado 101728" d="M452.937,1170.619l-75.988.725v-.412l75.988-.725Z" fill="#c4b9b0"/>
              <path id="Trazado_101729" data-name="Trazado 101729" d="M452.937,1171.031l-75.988.725v-.411l75.988-.725Z" fill="#c4b9b0"/>
              <path id="Trazado_101730" data-name="Trazado 101730" d="M452.937,1171.442l-75.988.725v-.412l75.988-.725Z" fill="#c4b9b0"/>
              <path id="Trazado_101731" data-name="Trazado 101731" d="M452.937,1171.854l-75.988.725v-.411l75.988-.725Z" fill="#c4b9b0"/>
              <path id="Trazado_101732" data-name="Trazado 101732" d="M452.937,1172.265l-75.988.725v-.412l75.988-.725Z" fill="#c4b9b0"/>
              <path id="Trazado_101733" data-name="Trazado 101733" d="M452.937,1172.677l-75.988.726v-.412l75.988-.725Z" fill="#c4b9b0"/>
              <path id="Trazado_101734" data-name="Trazado 101734" d="M452.937,1173.089l-75.988.725v-.411l75.988-.726Z" fill="#c4b9b0"/>
              <path id="Trazado_101735" data-name="Trazado 101735" d="M452.937,1173.5l-75.988.726v-.412l75.988-.725Z" fill="#c4b9b0"/>
              <path id="Trazado_101736" data-name="Trazado 101736" d="M452.937,1173.912l-75.988.725v-.411l75.988-.726Z" fill="#c4b9b0"/>
              <path id="Trazado_101737" data-name="Trazado 101737" d="M452.937,1174.323l-75.988.726v-.412l75.988-.725Z" fill="#c4b9b0"/>
              <path id="Trazado_101738" data-name="Trazado 101738" d="M452.937,1174.735l-75.988.725v-.411l75.988-.726Z" fill="#c4b9b0"/>
              <path id="Trazado_101739" data-name="Trazado 101739" d="M452.937,1175.146l-75.988.726v-.412l75.988-.725Z" fill="#c4b9b0"/>
              <path id="Trazado_101740" data-name="Trazado 101740" d="M452.937,1175.558l-75.988.725v-.411l75.988-.726Z" fill="#c4b9b0"/>
              <path id="Trazado_101741" data-name="Trazado 101741" d="M452.937,1175.969l-75.988.726v-.412l75.988-.725Z" fill="#c4b9b0"/>
              <path id="Trazado_101742" data-name="Trazado 101742" d="M452.937,1176.381l-75.988.725v-.411l75.988-.726Z" fill="#c4b9b0"/>
              <path id="Trazado_101743" data-name="Trazado 101743" d="M452.937,1176.792l-75.988.726v-.412l75.988-.725Z" fill="#c4b9b0"/>
              <path id="Trazado_101744" data-name="Trazado 101744" d="M452.937,1177.2l-75.988.725v-.411l75.988-.726Z" fill="#c4b9b0"/>
              <path id="Trazado_101745" data-name="Trazado 101745" d="M452.937,1177.616l-75.988.726v-.412l75.988-.725Z" fill="#c4b9b0"/>
              <path id="Trazado_101746" data-name="Trazado 101746" d="M452.937,1178.027l-75.988.725v-.411l75.988-.726Z" fill="#c4b9b0"/>
              <path id="Trazado_101747" data-name="Trazado 101747" d="M452.937,1178.439l-75.988.726v-.412l75.988-.725Z" fill="#c4b9b0"/>
              <path id="Trazado_101748" data-name="Trazado 101748" d="M452.937,1178.85l-75.988.725v-.411l75.988-.726Z" fill="#c4b9b0"/>
              <path id="Trazado_101749" data-name="Trazado 101749" d="M452.937,1179.262l-75.988.726v-.412l75.988-.725Z" fill="#c4b9b0"/>
              <path id="Trazado_101750" data-name="Trazado 101750" d="M452.937,1179.673l-75.988.725v-.411l75.988-.726Z" fill="#c4b9b0"/>
              <path id="Trazado_101751" data-name="Trazado 101751" d="M452.937,1180.085l-75.988.726v-.412l75.988-.725Z" fill="#c4b9b0"/>
              <path id="Trazado_101752" data-name="Trazado 101752" d="M452.937,1180.5l-75.988.725v-.411l75.988-.726Z" fill="#c4b9b0"/>
              <path id="Trazado_101753" data-name="Trazado 101753" d="M452.937,1180.908l-75.988.726v-.412l75.988-.725Z" fill="#c4b9b0"/>
              <path id="Trazado_101754" data-name="Trazado 101754" d="M452.937,1181.32l-75.988.725v-.411l75.988-.726Z" fill="#c4b9b0"/>
              <path id="Trazado_101755" data-name="Trazado 101755" d="M452.937,1181.731l-75.988.725v-.412l75.988-.725Z" fill="#c4b9b0"/>
              <path id="Trazado_101756" data-name="Trazado 101756" d="M452.937,1182.143l-75.988.725v-.411l75.988-.725Z" fill="#c4b9b0"/>
              <path id="Trazado_101757" data-name="Trazado 101757" d="M452.937,1182.554l-75.988.725v-.412l75.988-.725Z" fill="#c4b9b0"/>
              <path id="Trazado_101758" data-name="Trazado 101758" d="M452.937,1182.966l-75.988.725v-.411l75.988-.725Z" fill="#c4b9b0"/>
              <path id="Trazado_101759" data-name="Trazado 101759" d="M452.937,1183.378l-75.988.725v-.412l75.988-.725Z" fill="#c4b9b0"/>
              <path id="Trazado_101760" data-name="Trazado 101760" d="M452.937,1183.789l-75.988.725v-.411l75.988-.725Z" fill="#c4b9b0"/>
              <path id="Trazado_101761" data-name="Trazado 101761" d="M452.937,1184.2l-75.988.725v-.412l75.988-.725Z" fill="#c4b9b0"/>
              <path id="Trazado_101762" data-name="Trazado 101762" d="M452.937,1184.612l-75.988.725v-.411l75.988-.725Z" fill="#c4b9b0"/>
              <path id="Trazado_101763" data-name="Trazado 101763" d="M452.937,1185.024l-75.988.725v-.412l75.988-.725Z" fill="#c4b9b0"/>
              <path id="Trazado_101764" data-name="Trazado 101764" d="M452.937,1185.435l-75.988.725v-.411l75.988-.725Z" fill="#c4b9b0"/>
              <path id="Trazado_101765" data-name="Trazado 101765" d="M452.937,1185.847l-75.988.725v-.412l75.988-.725Z" fill="#c4b9b0"/>
              <path id="Trazado_101766" data-name="Trazado 101766" d="M452.937,1186.258l-75.988.725v-.411l75.988-.725Z" fill="#c4b9b0"/>
              <path id="Trazado_101767" data-name="Trazado 101767" d="M452.937,1186.67l-75.988.725v-.412l75.988-.725Z" fill="#c4b9b0"/>
              <path id="Trazado_101768" data-name="Trazado 101768" d="M452.937,1187.082l-75.988.725v-.411l75.988-.725Z" fill="#c4b9b0"/>
              <path id="Trazado_101769" data-name="Trazado 101769" d="M452.937,1187.493l-75.988.725v-.412l75.988-.725Z" fill="#c4b9b0"/>
              <path id="Trazado_101770" data-name="Trazado 101770" d="M452.937,1187.9l-75.988.725v-.411l75.988-.725Z" fill="#c4b9b0"/>
              <path id="Trazado_101771" data-name="Trazado 101771" d="M452.937,1188.316l-75.988.725v-.412l75.988-.725Z" fill="#c4b9b0"/>
              <path id="Trazado_101772" data-name="Trazado 101772" d="M452.937,1188.728l-75.988.725v-.411l75.988-.725Z" fill="#c4b9b0"/>
              <path id="Trazado_101773" data-name="Trazado 101773" d="M452.937,1189.139l-75.988.725v-.412l75.988-.725Z" fill="#c4b9b0"/>
              <path id="Trazado_101774" data-name="Trazado 101774" d="M452.937,1189.551l-75.988.725v-.411l75.988-.725Z" fill="#c4b9b0"/>
              <path id="Trazado_101775" data-name="Trazado 101775" d="M452.937,1189.963l-75.988.725v-.412l75.988-.725Z" fill="#c4b9b0"/>
              <path id="Trazado_101776" data-name="Trazado 101776" d="M452.937,1190.374l-75.988.725v-.411l75.988-.725Z" fill="#c4b9b0"/>
              <path id="Trazado_101777" data-name="Trazado 101777" d="M452.937,1190.786l-75.988.725v-.412l75.988-.725Z" fill="#c4b9b0"/>
              <path id="Trazado_101778" data-name="Trazado 101778" d="M452.937,1191.2l-75.988.725v-.411l75.988-.725Z" fill="#c4b9b0"/>
              <path id="Trazado_101779" data-name="Trazado 101779" d="M452.937,1191.609l-75.988.725v-.412l75.988-.725Z" fill="#c4b9b0"/>
              <path id="Trazado_101780" data-name="Trazado 101780" d="M452.937,1192.02l-75.988.725v-.411l75.988-.725Z" fill="#c4b9b0"/>
              <path id="Trazado_101781" data-name="Trazado 101781" d="M452.937,1192.432l-75.988.725v-.412l75.988-.725Z" fill="#c4b9b0"/>
              <path id="Trazado_101782" data-name="Trazado 101782" d="M452.937,1192.843l-75.988.725v-.411l75.988-.725Z" fill="#c4b9b0"/>
              <path id="Trazado_101783" data-name="Trazado 101783" d="M452.937,1193.255l-75.988.725v-.412l75.988-.725Z" fill="#c4b9b0"/>
              <path id="Trazado_101784" data-name="Trazado 101784" d="M452.937,1193.667l-75.988.725v-.411l75.988-.725Z" fill="#c4b9b0"/>
              <path id="Trazado_101785" data-name="Trazado 101785" d="M452.937,1194.078l-75.988.725v-.412l75.988-.725Z" fill="#c4b9b0"/>
              <path id="Trazado_101786" data-name="Trazado 101786" d="M452.937,1194.49l-75.988.725v-.411l75.988-.725Z" fill="#c4b9b0"/>
              <path id="Trazado_101787" data-name="Trazado 101787" d="M452.937,1194.9l-75.988.725v-.412l75.988-.725Z" fill="#c4b9b0"/>
              <path id="Trazado_101788" data-name="Trazado 101788" d="M452.937,1195.313l-75.988.725v-.411l75.988-.725Z" fill="#c4b9b0"/>
              <path id="Trazado_101789" data-name="Trazado 101789" d="M452.937,1195.724l-75.988.725v-.412l75.988-.725Z" fill="#c4b9b0"/>
              <path id="Trazado_101790" data-name="Trazado 101790" d="M452.937,1196.136l-75.988.725v-.411l75.988-.725Z" fill="#c4b9b0"/>
              <path id="Trazado_101791" data-name="Trazado 101791" d="M452.937,1196.547l-75.988.725v-.412l75.988-.725Z" fill="#c4b9b0"/>
              <path id="Trazado_101792" data-name="Trazado 101792" d="M452.937,1196.959l-75.988.725v-.411l75.988-.725Z" fill="#c4b9b0"/>
              <path id="Trazado_101793" data-name="Trazado 101793" d="M376.948,1197.684l75.988-.725v2.285H376.948Z" fill="#c4b9b0"/>
            </g>
          </g>
        </g>
        <g id="Grupo_69808" data-name="Grupo 69808">
          <rect id="Rectángulo_5470" data-name="Rectángulo 5470" width="67.673" height="39.374" transform="translate(380.782 1156.908)" fill="#fffaf6"/>
        </g>
        <g id="Grupo_69809" data-name="Grupo 69809">
          <path id="Trazado_101794" data-name="Trazado 101794" d="M387.342,1215.915H369.276a2.3,2.3,0,0,0-2.252,2.337h0a2.3,2.3,0,0,0,2.252,2.336h18.067A4.636,4.636,0,0,1,387.342,1215.915Z" fill="#fae0b2"/>
        </g>
        <g id="Grupo_69811" data-name="Grupo 69811">
          <g id="Grupo_69810" data-name="Grupo 69810">
            <path id="Trazado_101795" data-name="Trazado 101795" d="M352.014,1221.939h0a.347.347,0,0,0,.347.348h131.01v-.695H352.361A.346.346,0,0,0,352.014,1221.939Z" fill="#e4cbb7"/>
          </g>
        </g>
        <g id="Grupo_69812" data-name="Grupo 69812">
          <rect id="Rectángulo_5471" data-name="Rectángulo 5471" width="36.445" height="6.374" rx="3.187" transform="translate(441.763 1140.722)" fill="#4d3c4b"/>
        </g>
        <g id="Grupo_69813" data-name="Grupo 69813">
          <circle id="Elipse_4637" data-name="Elipse 4637" cx="0.854" cy="0.854" r="0.854" transform="translate(470.542 1148.775)" fill="#4d3c4b"/>
        </g>
        <g id="Grupo_69814" data-name="Grupo 69814">
          <path id="Trazado_101796" data-name="Trazado 101796" d="M474.87,1149.629a.854.854,0,1,1-.854-.854A.854.854,0,0,1,474.87,1149.629Z" fill="#4d3c4b"/>
        </g>
        <g id="Grupo_69815" data-name="Grupo 69815">
          <path id="Trazado_101797" data-name="Trazado 101797" d="M477.4,1149.629a.854.854,0,1,1-.854-.854A.854.854,0,0,1,477.4,1149.629Z" fill="#4d3c4b"/>
        </g>
        <g id="Grupo_69816" data-name="Grupo 69816">
          <path id="Trazado_101798" data-name="Trazado 101798" d="M476.264,1143.909a2.62,2.62,0,1,1-2.62-2.62A2.62,2.62,0,0,1,476.264,1143.909Z" fill="#fff1e9"/>
        </g>
        <g id="Grupo_69817" data-name="Grupo 69817">
          <rect id="Rectángulo_5472" data-name="Rectángulo 5472" width="18.761" height="2.038" transform="translate(405.71 1199.244)" fill="#2d2861"/>
        </g>
        <g id="Grupo_69834" data-name="Grupo 69834">
          <g id="Grupo_69818" data-name="Grupo 69818">
            <path id="Trazado_101799" data-name="Trazado 101799" d="M470.437,1172.549a1.55,1.55,0,0,1,1.221,2.586,1.03,1.03,0,0,0-.261.669l-.02.85a.451.451,0,0,1-.424.439l-.518.029a.45.45,0,0,1-.471-.388c-.116-.847-.1-1.168-.451-1.478A1.55,1.55,0,0,1,470.437,1172.549Z" fill="#fcc13f"/>
          </g>
          <g id="Grupo_69820" data-name="Grupo 69820">
            <g id="Grupo_69819" data-name="Grupo 69819">
              <path id="Trazado_101800" data-name="Trazado 101800" d="M471.014,1176.106c-.069-.686-.118-1.445-.127-1.73a2.076,2.076,0,0,1-.757-.044c.085.566.156,1.14.211,1.708l-.074.007c-.056-.577-.128-1.16-.214-1.736a.684.684,0,0,1-.4-.231.271.271,0,0,1-.031-.21c.05-.185.276-.187.388-.034a.955.955,0,0,1,.113.417,1.988,1.988,0,0,0,.768.049.67.67,0,0,1,.1-.394c.277-.4.742.331-.024.458.007.222.054,1,.127,1.733Zm.031-2.156a.6.6,0,0,0-.085.341.436.436,0,0,0,.322-.173C471.368,1173.971,471.194,1173.733,471.045,1173.95Zm-1.3-.139a.167.167,0,0,0-.037.23.581.581,0,0,0,.33.19.8.8,0,0,0-.1-.351C469.9,1173.82,469.755,1173.807,469.747,1173.811Z" fill="#fff"/>
            </g>
          </g>
          <g id="Grupo_69821" data-name="Grupo 69821">
            <path id="Trazado_101801" data-name="Trazado 101801" d="M471.4,1175.783v.021l-.02.85a.451.451,0,0,1-.424.439l-.518.029a.45.45,0,0,1-.471-.388c-.052-.377-.077-.649-.12-.863Z" fill="#adeff7"/>
          </g>
          <g id="Grupo_69823" data-name="Grupo 69823">
            <g id="Grupo_69822" data-name="Grupo 69822">
              <path id="Trazado_101802" data-name="Trazado 101802" d="M471.28,1171.729l.234-.808a.147.147,0,0,0-.283-.082l-.234.808a.149.149,0,0,0,.1.183A.147.147,0,0,0,471.28,1171.729Z" fill="#fcc13f"/>
            </g>
          </g>
          <g id="Grupo_69825" data-name="Grupo 69825">
            <g id="Grupo_69824" data-name="Grupo 69824">
              <path id="Trazado_101803" data-name="Trazado 101803" d="M472.531,1173.279l.843-.267a.147.147,0,0,0-.089-.281l-.843.267a.147.147,0,0,0,.089.281Z" fill="#fcc13f"/>
            </g>
          </g>
          <g id="Grupo_69827" data-name="Grupo 69827">
            <g id="Grupo_69826" data-name="Grupo 69826">
              <path id="Trazado_101804" data-name="Trazado 101804" d="M473.972,1175.725a.147.147,0,0,0-.047-.2,4.792,4.792,0,0,0-.816-.41.148.148,0,0,0-.191.085.146.146,0,0,0,.084.19,4.514,4.514,0,0,1,.767.385A.148.148,0,0,0,473.972,1175.725Z" fill="#fcc13f"/>
            </g>
          </g>
          <g id="Grupo_69829" data-name="Grupo 69829">
            <g id="Grupo_69828" data-name="Grupo 69828">
              <path id="Trazado_101805" data-name="Trazado 101805" d="M469.147,1172.164a.148.148,0,0,0,.063-.2,5.579,5.579,0,0,1-.427-1.077.147.147,0,1,0-.284.079,5.937,5.937,0,0,0,.449,1.135A.147.147,0,0,0,469.147,1172.164Z" fill="#fcc13f"/>
            </g>
          </g>
          <g id="Grupo_69831" data-name="Grupo 69831">
            <g id="Grupo_69830" data-name="Grupo 69830">
              <path id="Trazado_101806" data-name="Trazado 101806" d="M468.508,1173.467a.148.148,0,0,0-.136-.158l-.954-.07a.147.147,0,1,0-.022.294l.954.07A.147.147,0,0,0,468.508,1173.467Z" fill="#fcc13f"/>
            </g>
          </g>
          <g id="Grupo_69833" data-name="Grupo 69833">
            <g id="Grupo_69832" data-name="Grupo 69832">
              <path id="Trazado_101807" data-name="Trazado 101807" d="M467.57,1176.173a.133.133,0,0,0,.038-.014,4.667,4.667,0,0,0,.815-.558.148.148,0,1,0-.192-.224,4.276,4.276,0,0,1-.763.523.147.147,0,0,0,.1.273Z" fill="#fcc13f"/>
            </g>
          </g>
        </g>
        <g id="Grupo_69851" data-name="Grupo 69851">
          <g id="Grupo_69835" data-name="Grupo 69835">
            <path id="Trazado_101808" data-name="Trazado 101808" d="M381.992,1181.9a1.55,1.55,0,0,1,1.222,2.586,1.034,1.034,0,0,0-.262.67l-.02.85a.449.449,0,0,1-.424.438l-.518.029a.45.45,0,0,1-.471-.388c-.116-.847-.1-1.168-.45-1.478A1.549,1.549,0,0,1,381.992,1181.9Z" fill="#fcc13f"/>
          </g>
          <g id="Grupo_69837" data-name="Grupo 69837">
            <g id="Grupo_69836" data-name="Grupo 69836">
              <path id="Trazado_101809" data-name="Trazado 101809" d="M382.569,1185.452c-.068-.686-.118-1.445-.127-1.729a2.069,2.069,0,0,1-.756-.045c.084.567.155,1.14.21,1.708l-.073.007c-.056-.577-.128-1.16-.215-1.735a.7.7,0,0,1-.4-.231.274.274,0,0,1-.031-.211c.051-.185.276-.187.388-.033a.946.946,0,0,1,.114.416,1.981,1.981,0,0,0,.767.049.672.672,0,0,1,.1-.394c.277-.4.742.331-.023.458.006.222.053,1,.126,1.733Zm.031-2.156a.6.6,0,0,0-.085.341.433.433,0,0,0,.322-.173C382.923,1183.317,382.749,1183.079,382.6,1183.3Zm-1.3-.139a.166.166,0,0,0-.037.23.574.574,0,0,0,.33.19.832.832,0,0,0-.1-.351A.3.3,0,0,0,381.3,1183.157Z" fill="#fff"/>
            </g>
          </g>
          <g id="Grupo_69838" data-name="Grupo 69838">
            <path id="Trazado_101810" data-name="Trazado 101810" d="M382.953,1185.129v.022l-.02.85a.449.449,0,0,1-.424.438l-.518.029a.45.45,0,0,1-.471-.388c-.051-.377-.076-.649-.119-.863Z" fill="#adeff7"/>
          </g>
          <g id="Grupo_69840" data-name="Grupo 69840">
            <g id="Grupo_69839" data-name="Grupo 69839">
              <path id="Trazado_101811" data-name="Trazado 101811" d="M382.836,1181.075l.234-.808a.148.148,0,0,0-.284-.082l-.234.808a.148.148,0,1,0,.284.082Z" fill="#fcc13f"/>
            </g>
          </g>
          <g id="Grupo_69842" data-name="Grupo 69842">
            <g id="Grupo_69841" data-name="Grupo 69841">
              <path id="Trazado_101812" data-name="Trazado 101812" d="M384.087,1182.625l.843-.267a.147.147,0,1,0-.089-.281l-.844.267a.148.148,0,1,0,.09.281Z" fill="#fcc13f"/>
            </g>
          </g>
          <g id="Grupo_69844" data-name="Grupo 69844">
            <g id="Grupo_69843" data-name="Grupo 69843">
              <path id="Trazado_101813" data-name="Trazado 101813" d="M385.527,1185.071a.147.147,0,0,0-.046-.2,4.8,4.8,0,0,0-.817-.41.149.149,0,0,0-.191.085.147.147,0,0,0,.084.19,4.54,4.54,0,0,1,.767.385A.147.147,0,0,0,385.527,1185.071Z" fill="#fcc13f"/>
            </g>
          </g>
          <g id="Grupo_69846" data-name="Grupo 69846">
            <g id="Grupo_69845" data-name="Grupo 69845">
              <path id="Trazado_101814" data-name="Trazado 101814" d="M380.7,1181.51a.146.146,0,0,0,.063-.2,5.619,5.619,0,0,1-.427-1.077.147.147,0,0,0-.181-.1.149.149,0,0,0-.1.182,5.873,5.873,0,0,0,.45,1.135A.146.146,0,0,0,380.7,1181.51Z" fill="#fcc13f"/>
            </g>
          </g>
          <g id="Grupo_69848" data-name="Grupo 69848">
            <g id="Grupo_69847" data-name="Grupo 69847">
              <path id="Trazado_101815" data-name="Trazado 101815" d="M380.063,1182.813a.148.148,0,0,0-.136-.158l-.954-.07a.147.147,0,0,0-.022.294l.955.07A.146.146,0,0,0,380.063,1182.813Z" fill="#fcc13f"/>
            </g>
          </g>
          <g id="Grupo_69850" data-name="Grupo 69850">
            <g id="Grupo_69849" data-name="Grupo 69849">
              <path id="Trazado_101816" data-name="Trazado 101816" d="M379.125,1185.52a.14.14,0,0,0,.038-.015,4.629,4.629,0,0,0,.815-.558.147.147,0,0,0-.191-.224,4.326,4.326,0,0,1-.764.523.148.148,0,0,0,.1.274Z" fill="#fcc13f"/>
            </g>
          </g>
        </g>
        <g id="Grupo_69852" data-name="Grupo 69852">
          <path id="Trazado_101817" data-name="Trazado 101817" d="M481.26,1216.6c.08-.111-.041-.24-.225-.24H452.1c-2.269,0-4.107,1.233-4.107,2.753h0c0,1.521,1.838,2.754,4.107,2.754h28.946c.184,0,.306-.13.225-.241h0A4.119,4.119,0,0,1,481.26,1216.6Z" fill="#b57878"/>
        </g>
        <g id="Grupo_69853" data-name="Grupo 69853">
          <path id="Trazado_101818" data-name="Trazado 101818" d="M481.029,1216.954H461.613a2.39,2.39,0,0,0-2.6,2.109v.159a2.391,2.391,0,0,0,2.6,2.109h19.458A4.06,4.06,0,0,1,481.029,1216.954Z" fill="#f7e4d3"/>
        </g>
        <g id="Grupo_69854" data-name="Grupo 69854">
          <path id="Trazado_101819" data-name="Trazado 101819" d="M452.656,1216.116h15.171a2.537,2.537,0,0,0,2.437-2.626h0a2.537,2.537,0,0,0-2.437-2.627H452.656a4.271,4.271,0,0,1,.108,5.1Z" fill="#f7e4d3"/>
        </g>
        <g id="Grupo_69855" data-name="Grupo 69855">
          <path id="Trazado_101820" data-name="Trazado 101820" d="M470.064,1213.49h0a2.55,2.55,0,0,0-2.464-2.627H452.38a.132.132,0,0,1-.127-.138h0a.131.131,0,0,1,.127-.134h24.144a2.813,2.813,0,0,1,2.719,2.9h0a2.814,2.814,0,0,1-2.719,2.9H452.38a.132.132,0,0,1-.127-.135h0a.132.132,0,0,1,.127-.138H467.6A2.55,2.55,0,0,0,470.064,1213.49Z" fill="#f5a084"/>
        </g>
        <g id="Grupo_69856" data-name="Grupo 69856">
          <path id="Trazado_101821" data-name="Trazado 101821" d="M456.647,1210.318h15.171a2.536,2.536,0,0,0,2.436-2.627h0a2.537,2.537,0,0,0-2.436-2.627H456.647a4.273,4.273,0,0,1,.108,5.1Z" fill="#f7e4d3"/>
        </g>
        <g id="Grupo_69857" data-name="Grupo 69857">
          <path id="Trazado_101822" data-name="Trazado 101822" d="M474.054,1207.691h0a2.55,2.55,0,0,0-2.464-2.627H456.371a.132.132,0,0,1-.128-.137h0a.132.132,0,0,1,.128-.135h24.143a2.814,2.814,0,0,1,2.72,2.9h0a2.814,2.814,0,0,1-2.72,2.9H456.371a.133.133,0,0,1-.128-.135h0a.133.133,0,0,1,.128-.138H471.59A2.549,2.549,0,0,0,474.054,1207.691Z" fill="#8e5e5e"/>
        </g>
        <g id="Grupo_69860" data-name="Grupo 69860">
          <g id="Grupo_69858" data-name="Grupo 69858">
            <path id="Trazado_101823" data-name="Trazado 101823" d="M471.139,1219.16h-1.624c-.349,0-.632.108-.632.242v.021h2.256Z" fill="#cf7653"/>
          </g>
          <g id="Grupo_69859" data-name="Grupo 69859">
            <path id="Trazado_101824" data-name="Trazado 101824" d="M472.524,1219.766c0-.335-.424-.606-.947-.606h-2.084c.4,0,.719.206.719.46l-.01,6.5,1.151-.836,1.173.836Z" fill="#f5a084"/>
          </g>
        </g>
        <g id="Grupo_69861" data-name="Grupo 69861">
          <path id="Trazado_101825" data-name="Trazado 101825" d="M394.1,1212.973a.275.275,0,0,0-.257-.392H360.852a4.6,4.6,0,0,0-4.682,4.505h0a4.6,4.6,0,0,0,4.682,4.506h33a.275.275,0,0,0,.257-.394h0A9.161,9.161,0,0,1,394.1,1212.973Z" fill="#b57878"/>
        </g>
        <g id="Grupo_69862" data-name="Grupo 69862">
          <path id="Trazado_101826" data-name="Trazado 101826" d="M393.895,1213.419h-19.32c-1.372,0-2.484,1.688-2.484,3.771h0c0,2.083,1.112,3.771,2.484,3.771H394A9.151,9.151,0,0,1,393.895,1213.419Z" fill="#fee2bf"/>
        </g>
        <g id="Grupo_69865" data-name="Grupo 69865">
          <g id="Grupo_69863" data-name="Grupo 69863">
            <path id="Trazado_101827" data-name="Trazado 101827" d="M382.983,1216.279h-2.129c-.458,0-.829.108-.829.242v.021h2.958Z" fill="#b57878"/>
          </g>
          <g id="Grupo_69864" data-name="Grupo 69864">
            <path id="Trazado_101828" data-name="Trazado 101828" d="M384.8,1216.885c0-.335-.556-.606-1.242-.606h-2.733c.52,0,.942.206.942.459l-.013,6.495,1.51-.835,1.539.835Z" fill="#b57878"/>
          </g>
        </g>
        <g id="Grupo_69866" data-name="Grupo 69866">
          <rect id="Rectángulo_5473" data-name="Rectángulo 5473" width="49.468" height="5.364" rx="2.682" transform="translate(377.693 1128.667)" fill="#c4b9b0"/>
        </g>
        <g id="Grupo_69868" data-name="Grupo 69868">
          <g id="Grupo_69867" data-name="Grupo 69867">
            <path id="Trazado_101829" data-name="Trazado 101829" d="M415.554,1133.32h-34.7a1.154,1.154,0,0,1-1.153-1.153v-1.655a1.154,1.154,0,0,1,1.153-1.153h34.7a1.154,1.154,0,0,1,1.153,1.153v1.655A1.154,1.154,0,0,1,415.554,1133.32Zm-34.7-3.642a.835.835,0,0,0-.834.834v1.655a.835.835,0,0,0,.834.834h34.7a.835.835,0,0,0,.834-.834v-1.655a.835.835,0,0,0-.834-.834Z" fill="#4d3c4b"/>
          </g>
        </g>
        <g id="Grupo_69870" data-name="Grupo 69870">
          <g id="Grupo_69869" data-name="Grupo 69869">
            <path id="Trazado_101830" data-name="Trazado 101830" d="M421.627,1131.876a1.389,1.389,0,1,1,1.389-1.389A1.39,1.39,0,0,1,421.627,1131.876Zm0-2.458a1.07,1.07,0,1,0,1.07,1.069A1.07,1.07,0,0,0,421.627,1129.418Z" fill="#4d3c4b"/>
          </g>
        </g>
        <g id="Grupo_69872" data-name="Grupo 69872">
          <g id="Grupo_69871" data-name="Grupo 69871">
            <path id="Trazado_101831" data-name="Trazado 101831" d="M423.447,1133.256l-1.243-1.667a.159.159,0,0,1,.246-.2l.01.011,1.4,1.552a.257.257,0,0,1-.382.344l-.015-.019Z" fill="#4d3c4b"/>
          </g>
        </g>
        <g id="Grupo_69896" data-name="Grupo 69896">
          <g id="Grupo_69873" data-name="Grupo 69873">
            <rect id="Rectángulo_5474" data-name="Rectángulo 5474" width="20.836" height="15.238" rx="1.174" transform="translate(428.547 1220.824) rotate(-74.381)" fill="#f6e8db"/>
          </g>
          <g id="Grupo_69874" data-name="Grupo 69874">
            <path id="Trazado_101832" data-name="Trazado 101832" d="M446.416,1207.531l-11.155-3.118a.338.338,0,0,1-.234-.416h0a.336.336,0,0,1,.415-.233l11.156,3.118a.336.336,0,0,1,.233.415h0A.336.336,0,0,1,446.416,1207.531Z" fill="#c4b9b0"/>
          </g>
          <g id="Grupo_69875" data-name="Grupo 69875">
            <path id="Trazado_101833" data-name="Trazado 101833" d="M444.05,1208.3l-9.159-2.561a.337.337,0,0,1-.234-.415h0a.338.338,0,0,1,.416-.234l9.158,2.561a.336.336,0,0,1,.234.415h0A.337.337,0,0,1,444.05,1208.3Z" fill="#c4b9b0"/>
          </g>
          <g id="Grupo_69876" data-name="Grupo 69876">
            <path id="Trazado_101834" data-name="Trazado 101834" d="M445.677,1210.176l-11.156-3.118a.337.337,0,0,1-.233-.415h0a.337.337,0,0,1,.415-.234l11.155,3.119a.337.337,0,0,1,.234.415h0A.336.336,0,0,1,445.677,1210.176Z" fill="#c4b9b0"/>
          </g>
          <g id="Grupo_69877" data-name="Grupo 69877">
            <path id="Trazado_101835" data-name="Trazado 101835" d="M442.761,1210.787l-8.609-2.406a.336.336,0,0,1-.234-.415h0a.336.336,0,0,1,.415-.234l8.61,2.407a.337.337,0,0,1,.234.415h0A.336.336,0,0,1,442.761,1210.787Z" fill="#c4b9b0"/>
          </g>
          <g id="Grupo_69890" data-name="Grupo 69890">
            <g id="Grupo_69878" data-name="Grupo 69878">
              <path id="Trazado_101836" data-name="Trazado 101836" d="M436.881,1200.4l-.225-.063a.151.151,0,0,0-.189.1l-.472,1.69a.151.151,0,0,0,.11.183l.224.062a.151.151,0,0,0,.19-.1l.472-1.689A.151.151,0,0,0,436.881,1200.4Z" fill="#c4b9b0"/>
            </g>
            <g id="Grupo_69879" data-name="Grupo 69879">
              <path id="Trazado_101837" data-name="Trazado 101837" d="M437.842,1200.668l-.225-.063a.15.15,0,0,0-.189.1l-.473,1.69a.152.152,0,0,0,.111.182l.224.063a.15.15,0,0,0,.189-.1l.473-1.69A.15.15,0,0,0,437.842,1200.668Z" fill="#c4b9b0"/>
            </g>
            <g id="Grupo_69880" data-name="Grupo 69880">
              <path id="Rectángulo_5475" data-name="Rectángulo 5475" d="M.155,0H1.892a.155.155,0,0,1,.155.155V.389a.156.156,0,0,1-.156.156H.155A.155.155,0,0,1,0,.389V.155A.155.155,0,0,1,.155,0Z" transform="translate(437.877 1202.803) rotate(-74.365)" fill="#c4b9b0"/>
            </g>
            <g id="Grupo_69881" data-name="Grupo 69881">
              <path id="Trazado_101838" data-name="Trazado 101838" d="M439.763,1201.2l-.225-.063a.151.151,0,0,0-.189.1l-.472,1.69a.15.15,0,0,0,.11.182l.225.063a.151.151,0,0,0,.189-.1l.473-1.69A.151.151,0,0,0,439.763,1201.2Z" fill="#c4b9b0"/>
            </g>
            <g id="Grupo_69882" data-name="Grupo 69882">
              <path id="Trazado_101839" data-name="Trazado 101839" d="M440.724,1201.473l-.225-.063a.152.152,0,0,0-.189.1l-.472,1.69a.15.15,0,0,0,.11.183l.225.063a.151.151,0,0,0,.189-.1l.472-1.69A.151.151,0,0,0,440.724,1201.473Z" fill="#c4b9b0"/>
            </g>
            <g id="Grupo_69883" data-name="Grupo 69883">
              <path id="Trazado_101840" data-name="Trazado 101840" d="M441.685,1201.742l-.225-.063a.151.151,0,0,0-.189.1l-.472,1.69a.15.15,0,0,0,.11.183l.225.062a.15.15,0,0,0,.189-.1l.472-1.689A.152.152,0,0,0,441.685,1201.742Z" fill="#c4b9b0"/>
            </g>
            <g id="Grupo_69884" data-name="Grupo 69884">
              <path id="Trazado_101841" data-name="Trazado 101841" d="M442.646,1202.011l-.225-.063a.151.151,0,0,0-.189.1l-.473,1.69a.151.151,0,0,0,.111.182l.224.063a.15.15,0,0,0,.189-.1l.473-1.69A.15.15,0,0,0,442.646,1202.011Z" fill="#c4b9b0"/>
            </g>
            <g id="Grupo_69885" data-name="Grupo 69885">
              <path id="Rectángulo_5476" data-name="Rectángulo 5476" d="M.156,0H1.892a.155.155,0,0,1,.155.155V.389a.155.155,0,0,1-.155.155H.156A.156.156,0,0,1,0,.389V.156A.156.156,0,0,1,.156,0Z" transform="translate(442.681 1204.146) rotate(-74.379)" fill="#c4b9b0"/>
            </g>
            <g id="Grupo_69886" data-name="Grupo 69886">
              <path id="Trazado_101842" data-name="Trazado 101842" d="M444.567,1202.548l-.224-.063a.152.152,0,0,0-.19.1l-.472,1.69a.15.15,0,0,0,.11.182l.225.063a.151.151,0,0,0,.189-.1l.473-1.69A.151.151,0,0,0,444.567,1202.548Z" fill="#c4b9b0"/>
            </g>
            <g id="Grupo_69887" data-name="Grupo 69887">
              <path id="Trazado_101843" data-name="Trazado 101843" d="M445.528,1202.816l-.225-.062a.151.151,0,0,0-.189.1l-.472,1.69a.151.151,0,0,0,.11.183l.225.063a.151.151,0,0,0,.189-.1l.472-1.69A.151.151,0,0,0,445.528,1202.816Z" fill="#c4b9b0"/>
            </g>
            <g id="Grupo_69888" data-name="Grupo 69888">
              <path id="Trazado_101844" data-name="Trazado 101844" d="M446.489,1203.085l-.225-.063a.151.151,0,0,0-.189.1l-.472,1.69a.151.151,0,0,0,.11.183l.225.062a.151.151,0,0,0,.189-.1l.472-1.69A.151.151,0,0,0,446.489,1203.085Z" fill="#c4b9b0"/>
            </g>
            <g id="Grupo_69889" data-name="Grupo 69889">
              <rect id="Rectángulo_5477" data-name="Rectángulo 5477" width="2.047" height="0.544" rx="0.155" transform="translate(446.524 1205.22) rotate(-74.381)" fill="#c4b9b0"/>
            </g>
          </g>
          <g id="Grupo_69893" data-name="Grupo 69893">
            <g id="Grupo_69891" data-name="Grupo 69891">
              <path id="Trazado_101845" data-name="Trazado 101845" d="M416.506,1218.759l11.858-.246a.253.253,0,0,0,.078-.013l2.13-.7a.267.267,0,0,0-.006-.51l-2.188-.657a.256.256,0,0,0-.082-.011l-11.888.245a.268.268,0,0,0-.261.285l.087,1.358A.267.267,0,0,0,416.506,1218.759Z" fill="#bab7c4"/>
            </g>
            <g id="Grupo_69892" data-name="Grupo 69892">
              <path id="Trazado_101846" data-name="Trazado 101846" d="M428.308,1216.62h.03l2.111.634.025.577-2.02.665A8.292,8.292,0,0,1,428.308,1216.62Z" fill="#feae72"/>
            </g>
          </g>
          <g id="Grupo_69895" data-name="Grupo 69895">
            <g id="Grupo_69894" data-name="Grupo 69894">
              <path id="Trazado_101847" data-name="Trazado 101847" d="M435.338,1221.4a.821.821,0,0,1-.6-.237c-.588-.59-.363-2.1-.279-3.217a2.981,2.981,0,0,0-.157-1.574c-.279-.526-1.391-.466-2.216-.084-.554.256-1.072.713-.867,1.226a.109.109,0,1,1-.2.081c-.219-.548.156-1.125.978-1.505.929-.43,2.149-.484,2.5.18a3.142,3.142,0,0,1,.181,1.692c-.08,1.062-.3,2.534.216,3.047a.633.633,0,0,0,.536.169c1.034-.092.864-2.222,1.038-2.985.254-1.124.666-2.522,1.8-2.356a2.256,2.256,0,0,1,1.795,1.733,5.222,5.222,0,0,1,.24,1.478.109.109,0,0,1-.109.108h0a.109.109,0,0,1-.108-.11,5.06,5.06,0,0,0-.231-1.414,2.028,2.028,0,0,0-1.617-1.58c-.988-.144-1.337,1.216-1.558,2.19C436.49,1219.059,436.717,1221.4,435.338,1221.4Z" fill="#c4b9b0"/>
            </g>
          </g>
        </g>
        <g id="Grupo_69771" data-name="Grupo 69771">
          <g id="Grupo_69769" data-name="Grupo 69769">
            <path id="Trazado_101546" data-name="Trazado 101546" d="M416.141,1185.264a8.811,8.811,0,1,1,8.816-8.816A8.811,8.811,0,0,1,416.141,1185.264Zm0-17.083a8.272,8.272,0,1,0,8.271,8.272h0a8.282,8.282,0,0,0-8.271-8.277Z" fill="#ceb8a7"/>
          </g>
          <g id="Grupo_69770" data-name="Grupo 69770">
            <path id="Trazado_101547" data-name="Trazado 101547" d="M413.163,1180.98v-9.06l7.256,4.527Z" fill="#ceb8a7"/>
          </g>
        </g>
        <g id="Grupo_69905" data-name="Grupo 69905">
          <g id="Grupo_69897" data-name="Grupo 69897">
            <path id="Trazado_101848" data-name="Trazado 101848" d="M384.5,1143.3l1.824,1.74a48.479,48.479,0,0,1,10.38,14.383l.28.592s4.776.422,5.443-3.9h0a72.231,72.231,0,0,1-10.488-15.4l-.863-2.02Z" fill="#fef6ef"/>
          </g>
          <g id="Grupo_69898" data-name="Grupo 69898">
            <path id="Trazado_101849" data-name="Trazado 101849" d="M391.072,1138.688c.234.336-1.047,1.635-2.862,2.9s-3.485,2.035-3.719,1.7,1.055-1.65,2.87-2.916S390.837,1138.351,391.072,1138.688Z" fill="#fae6d6"/>
          </g>
          <g id="Grupo_69899" data-name="Grupo 69899">
            <path id="Trazado_101850" data-name="Trazado 101850" d="M391.079,1138.7l-.006-.007s-3.636,3.078-5.135,3.392l.463.63a19.122,19.122,0,0,0,1.809-1.127C390,1140.337,391.276,1139.054,391.079,1138.7Z" fill="#4d3c4b"/>
          </g>
          <g id="Grupo_69904" data-name="Grupo 69904">
            <g id="Grupo_69900" data-name="Grupo 69900">
              <path id="Trazado_101851" data-name="Trazado 101851" d="M395.937,1147.636c.007.531-.2,2.821-4.006,3.777.25.341.5.685.738,1.033a6.118,6.118,0,0,0,3.984-2.894c.077-.149.171-.349.233-.5Q396.4,1148.348,395.937,1147.636Z" fill="#b57878"/>
            </g>
            <g id="Grupo_69901" data-name="Grupo 69901">
              <path id="Trazado_101852" data-name="Trazado 101852" d="M392.272,1150.736l-5.607-.2,1.329,1.128-.794,1.441,5.307-1.353Z" fill="#b57878"/>
            </g>
            <g id="Grupo_69902" data-name="Grupo 69902">
              <path id="Trazado_101853" data-name="Trazado 101853" d="M392.784,1152.04l-1.992,3.471,1.4-.534.54,1.1.936-3.65Z" fill="#b57878"/>
            </g>
            <g id="Grupo_69903" data-name="Grupo 69903">
              <path id="Trazado_101854" data-name="Trazado 101854" d="M393.544,1152.98a1.842,1.842,0,1,1,1.654-1.963A1.815,1.815,0,0,1,393.544,1152.98Z" fill="#b57878"/>
            </g>
          </g>
        </g>
      </g>
    </g>
  </g>
</svg>
