<svg xmlns="http://www.w3.org/2000/svg" width="190.76" height="150.799" viewBox="0 0 190.76 150.799">
  <g id="Grupo_69797" data-name="Grupo 69797" transform="translate(-750.133 -1099.689)">
    <rect id="Rectángulo_5434" data-name="Rectángulo 5434" width="190.76" height="150.799" transform="translate(750.133 1099.689)" fill="none"/>
    <g id="Grupo_69796" data-name="Grupo 69796">
      <path id="Trazado_101537" data-name="Trazado 101537" d="M778,1220.746a2.941,2.941,0,0,1-.282-.1c-1.259-.483-2.421-1.855-3.411-2.731-2.669-2.36-5.209-5.519-4.773-9.31.451-3.917,3.919-6.766,5.373-10.432,3.415-8.613-5.045-18.238-2.61-27.177,1.806-6.627,9.106-10.345,15.95-10.937s13.671,1.1,20.537,1.283a47.382,47.382,0,0,0,31.18-10.765c6.112-5.063,10.927-11.221,17.574-15.68,6.222-4.173,13.393-7.213,20.957-7.506a31.253,31.253,0,0,1,20,6.282,17.409,17.409,0,0,1,6.05,7.538c1.431,3.893.781,8.193.331,12.316s-.6,8.587,1.619,12.088c1.529,2.409,3.872,3.838,6.076,5.527a24.62,24.62,0,0,1,6.059,6.352c3.389,5.433,3.554,12.4,1.855,18.574-2.135,7.759-6.813,14.434-11.087,21.1a5.794,5.794,0,0,0-.443.777,5.92,5.92,0,0,0-.24,3.046H783.876C782.083,1220.834,779.752,1221.279,778,1220.746Z" fill="#f9e4cf"/>
      <g id="Grupo_69937" data-name="Grupo 69937">
        <g id="Grupo_69928" data-name="Grupo 69928">
          <path id="Trazado_101886" data-name="Trazado 101886" d="M907.52,1220.777H783.507a1.593,1.593,0,1,1,0-3.186H907.52a1.593,1.593,0,0,1,0,3.186Z" fill="#c4b9b0"/>
          <rect id="Rectángulo_5491" data-name="Rectángulo 5491" width="102.198" height="70.636" rx="3.485" transform="translate(794.27 1144.003)" fill="#96a2c3"/>
          <rect id="Rectángulo_5492" data-name="Rectángulo 5492" width="100.59" height="69.525" rx="3.485" transform="translate(795.074 1144.559)" fill="#4d3c4b"/>
          <rect id="Rectángulo_5493" data-name="Rectángulo 5493" width="98.855" height="67.147" rx="3.485" transform="translate(795.941 1145.748)" fill="#897a88"/>
          <rect id="Rectángulo_5494" data-name="Rectángulo 5494" width="122.256" height="4.544" rx="1.964" transform="translate(784.241 1214.64)" fill="#897a88"/>
          <path id="Trazado_101887" data-name="Trazado 101887" d="M904.533,1217.277H786.205a1.958,1.958,0,0,1-1.847-1.318,1.941,1.941,0,0,0-.117.645v.616a1.964,1.964,0,0,0,1.964,1.964H904.533a1.964,1.964,0,0,0,1.964-1.964v-.616a1.917,1.917,0,0,0-.118-.645A1.957,1.957,0,0,1,904.533,1217.277Z" fill="#4d3c4b"/>
          <rect id="Rectángulo_5495" data-name="Rectángulo 5495" width="97.3" height="65.726" rx="3.485" transform="translate(796.719 1146.323)" fill="#ceb8a7"/>
          <rect id="Rectángulo_5496" data-name="Rectángulo 5496" width="94.84" height="64.065" rx="3.485" transform="translate(797.949 1147.153)" fill="#f6e8db"/>
          <rect id="Rectángulo_5497" data-name="Rectángulo 5497" width="84.754" height="46.746" rx="2.17" transform="translate(802.992 1159.697)" fill="#fff"/>
        </g>
        <g id="Grupo_69929" data-name="Grupo 69929">
          <rect id="Rectángulo_5498" data-name="Rectángulo 5498" width="68.217" height="8.237" rx="2.17" transform="translate(811.363 1149.498)" fill="#ceb8a7"/>
        </g>
        <g id="Grupo_69930" data-name="Grupo 69930">
          <rect id="Rectángulo_5499" data-name="Rectángulo 5499" width="28.022" height="1.334" rx="0.591" transform="translate(812.312 1164.285)" fill="#d8d5d6"/>
          <rect id="Rectángulo_5500" data-name="Rectángulo 5500" width="28.022" height="1.334" rx="0.591" transform="translate(812.312 1168.14)" fill="#d8d5d6"/>
          <rect id="Rectángulo_5501" data-name="Rectángulo 5501" width="28.022" height="1.334" rx="0.591" transform="translate(812.312 1171.995)" fill="#d8d5d6"/>
          <path id="Trazado_101888" data-name="Trazado 101888" d="M810.505,1164.953a1.362,1.362,0,1,1-1.363-1.363A1.362,1.362,0,0,1,810.505,1164.953Z" fill="#4d3c4b"/>
        </g>
        <g id="Grupo_69931" data-name="Grupo 69931">
          <rect id="Rectángulo_5502" data-name="Rectángulo 5502" width="28.022" height="1.334" rx="0.591" transform="translate(812.312 1177.907)" fill="#d8d5d6"/>
          <rect id="Rectángulo_5503" data-name="Rectángulo 5503" width="28.022" height="1.334" rx="0.591" transform="translate(812.312 1181.762)" fill="#d8d5d6"/>
          <rect id="Rectángulo_5504" data-name="Rectángulo 5504" width="28.022" height="1.334" rx="0.591" transform="translate(812.312 1185.617)" fill="#d8d5d6"/>
          <path id="Trazado_101889" data-name="Trazado 101889" d="M810.505,1178.574a1.362,1.362,0,1,1-1.363-1.362A1.363,1.363,0,0,1,810.505,1178.574Z" fill="#897a88"/>
        </g>
        <g id="Grupo_69932" data-name="Grupo 69932">
          <rect id="Rectángulo_5505" data-name="Rectángulo 5505" width="28.022" height="1.334" rx="0.591" transform="translate(812.312 1191.529)" fill="#d8d5d6"/>
          <rect id="Rectángulo_5506" data-name="Rectángulo 5506" width="28.022" height="1.334" rx="0.591" transform="translate(812.312 1195.384)" fill="#d8d5d6"/>
          <rect id="Rectángulo_5507" data-name="Rectángulo 5507" width="28.022" height="1.334" rx="0.591" transform="translate(812.312 1199.239)" fill="#d8d5d6"/>
          <path id="Trazado_101890" data-name="Trazado 101890" d="M810.505,1192.2a1.362,1.362,0,1,1-1.363-1.362A1.362,1.362,0,0,1,810.505,1192.2Z" fill="#4d3c4b"/>
        </g>
        <g id="Grupo_69933" data-name="Grupo 69933">
          <rect id="Rectángulo_5508" data-name="Rectángulo 5508" width="28.022" height="1.334" rx="0.591" transform="translate(854.935 1164.285)" fill="#d8d5d6"/>
          <rect id="Rectángulo_5509" data-name="Rectángulo 5509" width="28.022" height="1.334" rx="0.591" transform="translate(854.935 1168.14)" fill="#d8d5d6"/>
          <rect id="Rectángulo_5510" data-name="Rectángulo 5510" width="28.022" height="1.334" rx="0.591" transform="translate(854.935 1171.995)" fill="#d8d5d6"/>
          <path id="Trazado_101891" data-name="Trazado 101891" d="M853.129,1164.953a1.363,1.363,0,1,1-1.363-1.363A1.363,1.363,0,0,1,853.129,1164.953Z" fill="#897a88"/>
        </g>
        <g id="Grupo_69934" data-name="Grupo 69934">
          <rect id="Rectángulo_5511" data-name="Rectángulo 5511" width="28.022" height="1.334" rx="0.591" transform="translate(854.935 1177.907)" fill="#d8d5d6"/>
          <rect id="Rectángulo_5512" data-name="Rectángulo 5512" width="28.022" height="1.334" rx="0.591" transform="translate(854.935 1181.762)" fill="#d8d5d6"/>
          <rect id="Rectángulo_5513" data-name="Rectángulo 5513" width="28.022" height="1.334" rx="0.591" transform="translate(854.935 1185.617)" fill="#d8d5d6"/>
          <path id="Trazado_101892" data-name="Trazado 101892" d="M853.129,1178.574a1.363,1.363,0,1,1-1.363-1.362A1.363,1.363,0,0,1,853.129,1178.574Z" fill="#4d3c4b"/>
        </g>
        <g id="Grupo_69935" data-name="Grupo 69935">
          <rect id="Rectángulo_5514" data-name="Rectángulo 5514" width="28.022" height="1.334" rx="0.591" transform="translate(854.935 1191.529)" fill="#d8d5d6"/>
          <rect id="Rectángulo_5515" data-name="Rectángulo 5515" width="28.022" height="1.334" rx="0.591" transform="translate(854.935 1195.384)" fill="#d8d5d6"/>
          <rect id="Rectángulo_5516" data-name="Rectángulo 5516" width="28.022" height="1.334" rx="0.591" transform="translate(854.935 1199.239)" fill="#d8d5d6"/>
          <path id="Trazado_101893" data-name="Trazado 101893" d="M853.129,1192.2a1.363,1.363,0,1,1-1.363-1.362A1.363,1.363,0,0,1,853.129,1192.2Z" fill="#897a88"/>
        </g>
        <g id="Grupo_69936" data-name="Grupo 69936">
          <text id="Actividades_didacticas" data-name="Actividades didacticas" transform="translate(813.776 1155.527)" fill="#fff" font-size="6.256" font-family="Roboto-Bold, Roboto" font-weight="700"><tspan x="0" y="0">Actividades didacticas</tspan></text>
        </g>
      </g>
    </g>
  </g>
</svg>
