<svg xmlns="http://www.w3.org/2000/svg" width="172.141" height="198.623" viewBox="0 0 172.141 198.623">
  <g id="Grupo_70354" data-name="Grupo 70354" transform="translate(-304.586 -2294.448)">
    <g id="Grupo_70339" data-name="Grupo 70339">
      <path id="Trazado_102773" data-name="Trazado 102773" d="M427.468,2364.5a9.235,9.235,0,0,0-3.708,7.415,15.258,15.258,0,0,1-15.228,15.228h-2.217a23.75,23.75,0,0,0,4.2-13.507v-6.356h3.31a9.931,9.931,0,1,0,0-19.862h-3.31v-8.706a17.788,17.788,0,0,0-27.642-14.8l-5.462,3.642-5.462-3.642a17.816,17.816,0,0,0-27.642,14.8v8.706H341a9.931,9.931,0,0,0,0,19.862h3.311v6.356a23.75,23.75,0,0,0,4.2,13.507H346.3a15.231,15.231,0,0,1-15.228-15.228,9.234,9.234,0,0,0-3.707-7.415,24.182,24.182,0,0,1-7.018-8.409,23.836,23.836,0,0,1,2.251-24.96,76.807,76.807,0,0,0,8.673-14.765l1.125-2.549a32.57,32.57,0,0,1,40.122-17.677l4.9,1.622,4.9-1.622a32.3,32.3,0,0,1,10.329-1.688,32.558,32.558,0,0,1,29.793,19.365l1.126,2.549a76.7,76.7,0,0,0,8.673,14.765,23.835,23.835,0,0,1,2.251,24.96,24.193,24.193,0,0,1-7.018,8.409Z" fill="#b27946"/>
    </g>
    <g id="Grupo_70340" data-name="Grupo 70340">
      <path id="Trazado_102774" data-name="Trazado 102774" d="M413.829,2347.414h-3.31v-8.706a17.788,17.788,0,0,0-27.642-14.8l-5.462,3.642-5.462-3.642a17.816,17.816,0,0,0-27.642,14.8v8.706H341a9.931,9.931,0,0,0,0,19.862h3.311v6.356a23.737,23.737,0,0,0,19.862,23.438V2407l13.242,16.552L390.656,2407v-9.931a23.787,23.787,0,0,0,14.235-8.077c.5-.6.96-1.192,1.424-1.854a23.75,23.75,0,0,0,4.2-13.507v-6.356h3.31a9.931,9.931,0,1,0,0-19.862Z" fill="#f0d0b4"/>
    </g>
    <g id="Grupo_70341" data-name="Grupo 70341">
      <circle id="Elipse_4647" data-name="Elipse 4647" cx="13.242" cy="13.242" r="13.242" transform="translate(384.036 2340.793)" fill="#69d6f4"/>
    </g>
    <g id="Grupo_70342" data-name="Grupo 70342">
      <circle id="Elipse_4648" data-name="Elipse 4648" cx="13.242" cy="13.242" r="13.242" transform="translate(344.311 2340.793)" fill="#69d6f4"/>
    </g>
    <g id="Grupo_70343" data-name="Grupo 70343">
      <path id="Trazado_102775" data-name="Trazado 102775" d="M390.656,2407l-6.786,28.9-6.455,27.377-6.456-27.377-6.786-28.9,13.242,16.552Z" fill="#ff826e"/>
    </g>
    <g id="Grupo_70344" data-name="Grupo 70344">
      <path id="Trazado_102776" data-name="Trazado 102776" d="M403.9,2430.174v56.277a6.64,6.64,0,0,0,6.621,6.62H304.586l8.773-55.184a63.737,63.737,0,0,1,21.153-21.584,62.174,62.174,0,0,1,16.42-7.117v20.988l13.109,3.741-6.489,19.432,19.863,9.931,19.862-9.931-6.488-19.432Z" fill="#e6e9ed"/>
    </g>
    <g id="Grupo_70345" data-name="Grupo 70345">
      <path id="Trazado_102777" data-name="Trazado 102777" d="M403.9,2409.153v21.021l-13.109,3.741-6.919,1.986,6.786-28.9A64.284,64.284,0,0,1,403.9,2409.153Z" fill="#ccd1d9"/>
    </g>
    <g id="Grupo_70346" data-name="Grupo 70346">
      <path id="Trazado_102778" data-name="Trazado 102778" d="M390.789,2433.915l6.488,19.432-19.862,9.931,6.455-27.377Z" fill="#ccd1d9"/>
    </g>
    <g id="Grupo_70347" data-name="Grupo 70347">
      <path id="Trazado_102779" data-name="Trazado 102779" d="M370.959,2435.9l6.456,27.377-19.863-9.931,6.489-19.432Z" fill="#ccd1d9"/>
    </g>
    <g id="Grupo_70348" data-name="Grupo 70348">
      <path id="Trazado_102780" data-name="Trazado 102780" d="M364.173,2407l6.786,28.9-6.918-1.986-13.109-3.741v-21.021A64.285,64.285,0,0,1,364.173,2407Z" fill="#ccd1d9"/>
    </g>
    <g id="Grupo_70349" data-name="Grupo 70349">
      <path id="Trazado_102781" data-name="Trazado 102781" d="M470.106,2407v26.483h-6.621a6.641,6.641,0,0,0-6.621,6.621v-26.483h-6.621V2400.38h13.242A6.641,6.641,0,0,1,470.106,2407Z" fill="#ceb8a7"/>
    </g>
    <g id="Grupo_70350" data-name="Grupo 70350">
      <path id="Trazado_102782" data-name="Trazado 102782" d="M463.485,2473.209h6.621v13.242a6.64,6.64,0,0,1-6.621,6.62H410.519a6.64,6.64,0,0,1-6.621-6.62V2407a6.641,6.641,0,0,1,6.621-6.621H423.76v13.242h-6.62v66.208h39.724v-13.242A6.641,6.641,0,0,0,463.485,2473.209Z" fill="#ceb8a7"/>
    </g>
    <g id="Grupo_70351" data-name="Grupo 70351">
      <path id="Trazado_102783" data-name="Trazado 102783" d="M476.727,2440.1v26.483a6.641,6.641,0,0,1-6.621,6.621h-6.621a6.641,6.641,0,0,1-6.621-6.621V2440.1a6.641,6.641,0,0,1,6.621-6.621h6.621A6.641,6.641,0,0,1,476.727,2440.1Z" fill="#f0d0b4"/>
    </g>
    <g id="Grupo_70352" data-name="Grupo 70352">
      <path id="Trazado_102784" data-name="Trazado 102784" d="M417.14,2479.83v-66.208h39.724v66.208Z" fill="#e6e9ed"/>
    </g>
    <g id="Grupo_70353" data-name="Grupo 70353">
      <path id="Trazado_102785" data-name="Trazado 102785" d="M423.76,2400.38h26.483v13.242H423.76Z" fill="#a59386"/>
    </g>
    <path id="Trazado_102786" data-name="Trazado 102786" d="M377.415,2383.828a13.943,13.943,0,0,0,12.543-7.753l.347-.7-5.922-2.963-.347.7a7.4,7.4,0,0,1-13.242,0l-.348-.7-5.922,2.963.348.7A13.945,13.945,0,0,0,377.415,2383.828Z" fill="#b27946"/>
    <path id="Trazado_102787" data-name="Trazado 102787" d="M440.312,2423.553h-6.62v6.621h-6.621v6.621h6.621v6.62h6.62v-6.62h6.621v-6.621h-6.621Z" fill="#ceb8a7"/>
    <path id="Trazado_102788" data-name="Trazado 102788" d="M427.071,2450.036h19.862v6.621H427.071Z" fill="#ceb8a7"/>
    <path id="Trazado_102789" data-name="Trazado 102789" d="M427.071,2463.278h19.862v6.621H427.071Z" fill="#ceb8a7"/>
  </g>
</svg>
