<svg xmlns="http://www.w3.org/2000/svg" width="142.778" height="142.779" viewBox="0 0 142.778 142.779">
  <g id="Grupo_70356" data-name="Grupo 70356" transform="translate(-454.411 -2701.176)">
    <path id="Trazado_102790" data-name="Trazado 102790" d="M597.189,2772.565a71.389,71.389,0,1,1-71.389-71.389A71.388,71.388,0,0,1,597.189,2772.565Z" fill="#4bbaed"/>
    <path id="Trazado_102791" data-name="Trazado 102791" d="M561.541,2775.43a4.276,4.276,0,0,1,4.276-4.276H583.2a4.276,4.276,0,0,0,0-8.552H487.534a4.275,4.275,0,0,0-4.276,4.276,4.276,4.276,0,0,1-4.276,4.276H468.014a4.276,4.276,0,1,0,0,8.552h75.029a4.276,4.276,0,0,1,4.276,4.276,4.275,4.275,0,0,0,4.276,4.276H572.6a4.276,4.276,0,1,0,0-8.552h-6.785A4.276,4.276,0,0,1,561.541,2775.43Z" transform="translate(0.193 1.274)" fill="#76c6e2"/>
    <path id="Trazado_102792" data-name="Trazado 102792" d="M579.627,2815.622a13.338,13.338,0,0,0-9.3-3.766,13.619,13.619,0,0,0-1.667.106,19.8,19.8,0,1,0-16.14,24.188A71.6,71.6,0,0,0,579.627,2815.622Z" transform="translate(1.559 1.982)" fill="#00935c"/>
    <path id="Trazado_102793" data-name="Trazado 102793" d="M500.308,2796.8a19.8,19.8,0,0,0-19.249,15.165,13.6,13.6,0,0,0-1.666-.106,13.336,13.336,0,0,0-9.3,3.766,71.6,71.6,0,0,0,27.111,20.527,19.8,19.8,0,1,0,3.108-39.353Z" transform="translate(0.325 1.982)" fill="#00935c"/>
    <path id="Trazado_102794" data-name="Trazado 102794" d="M527.08,2717.426v-6.219a.557.557,0,0,1,.557-.558h3.01a.557.557,0,0,0,.557-.557v-3.835a.557.557,0,0,0-.557-.557h-3.01a.557.557,0,0,1-.557-.557v-3.407a.558.558,0,0,0-.558-.558h-3.834a.558.558,0,0,0-.558.558v3.407a.557.557,0,0,1-.557.557h-3.01a.557.557,0,0,0-.557.557v3.835a.557.557,0,0,0,.557.557h3.01a.558.558,0,0,1,.557.558v6.218a.561.561,0,0,1-.438.545,12.549,12.549,0,1,0,5.826,0A.56.56,0,0,1,527.08,2717.426Z" transform="translate(1.195)" fill="#dfdee0"/>
    <path id="Trazado_102795" data-name="Trazado 102795" d="M550.014,2738.8h-50.2a2.788,2.788,0,0,1-2.789-2.789v-8.367a2.789,2.789,0,0,1,2.789-2.789h50.2a2.789,2.789,0,0,1,2.789,2.789v8.367A2.788,2.788,0,0,1,550.014,2738.8Z" transform="translate(0.884 0.491)" fill="#e7e7e8"/>
    <path id="Trazado_102796" data-name="Trazado 102796" d="M508.185,2736.009v-8.367a2.789,2.789,0,0,1,2.789-2.789H499.819a2.789,2.789,0,0,0-2.789,2.789v8.367a2.788,2.788,0,0,0,2.789,2.789h11.155A2.788,2.788,0,0,1,508.185,2736.009Z" transform="translate(0.884 0.491)" fill="#dfdee0"/>
    <path id="Trazado_102797" data-name="Trazado 102797" d="M557.128,2731.684H492.989a2.788,2.788,0,0,0-2.789,2.789v99.769a71.446,71.446,0,0,0,69.716,0v-99.769A2.788,2.788,0,0,0,557.128,2731.684Z" transform="translate(0.742 0.633)" fill="#dfdee0"/>
    <path id="Trazado_102798" data-name="Trazado 102798" d="M490.2,2734.473v99.769a70.881,70.881,0,0,0,11.155,5.046V2734.473a2.788,2.788,0,0,1,2.789-2.789H492.989A2.788,2.788,0,0,0,490.2,2734.473Z" transform="translate(0.742 0.633)" fill="#cdcdd0"/>
    <path id="Trazado_102799" data-name="Trazado 102799" d="M550.014,2738.514h-50.2a2.789,2.789,0,0,0-2.789,2.789v96.225a71.611,71.611,0,0,0,55.773,0V2741.3A2.789,2.789,0,0,0,550.014,2738.514Z" transform="translate(0.884 0.774)" fill="#cdcdd0"/>
    <path id="Trazado_102800" data-name="Trazado 102800" d="M497.03,2741.3v96.225a70.885,70.885,0,0,0,11.155,3.676v-99.9a2.789,2.789,0,0,1,2.789-2.789H499.819A2.789,2.789,0,0,0,497.03,2741.3Z" transform="translate(0.884 0.774)" fill="#bdbdc1"/>
    <path id="Trazado_102801" data-name="Trazado 102801" d="M563.473,2821.987a2.788,2.788,0,0,0-2.789-2.789H489.574a2.788,2.788,0,0,0-2.789,2.789v8.358a71.436,71.436,0,0,0,76.688,0Z" transform="translate(0.671 2.447)" fill="#e7e7e8"/>
    <path id="Trazado_102802" data-name="Trazado 102802" d="M486.785,2821.987v8.358a71.07,71.07,0,0,0,11.155,5.8v-14.155a2.788,2.788,0,0,1,2.789-2.789H489.574A2.788,2.788,0,0,0,486.785,2821.987Z" transform="translate(0.671 2.447)" fill="#dfdee0"/>
    <path id="Trazado_102803" data-name="Trazado 102803" d="M486.8,2830.126a71.434,71.434,0,0,0,76.661,0Z" transform="translate(0.672 2.674)" fill="#efeff0"/>
    <g id="Grupo_70355" data-name="Grupo 70355" transform="translate(504.885 2746.739)">
      <path id="Trazado_102804" data-name="Trazado 102804" d="M545.69,2766.728a20.915,20.915,0,1,1-20.915-20.915A20.915,20.915,0,0,1,545.69,2766.728Z" transform="translate(-503.86 -2745.813)" fill="#bdbdc1"/>
      <path id="Trazado_102805" data-name="Trazado 102805" d="M543.6,2798.93H505.952a2.091,2.091,0,1,1,0-4.183H543.6a2.091,2.091,0,1,1,0,4.183Z" transform="translate(-503.86 -2744.799)" fill="#bdbdc1"/>
      <path id="Trazado_102806" data-name="Trazado 102806" d="M543.6,2809.872H505.952a2.092,2.092,0,0,1,0-4.183H543.6a2.092,2.092,0,0,1,0,4.183Z" transform="translate(-503.86 -2744.572)" fill="#bdbdc1"/>
    </g>
  </g>
</svg>
