<svg xmlns="http://www.w3.org/2000/svg" xmlns:xlink="http://www.w3.org/1999/xlink" width="48.931" height="48.931" viewBox="0 0 48.931 48.931">
  <defs>
    <clipPath id="clip-path">
      <rect id="Rectángulo_5525" data-name="Rectángulo 5525" width="48.931" height="48.931" transform="translate(159.462 1429.007)" fill="none"/>
    </clipPath>
  </defs>
  <g id="Grupo_69979" data-name="Grupo 69979" transform="translate(-159.462 -1429.007)">
    <g id="Grupo_69981" data-name="Grupo 69981" clip-path="url(#clip-path)">
      <g id="Grupo_69980" data-name="Grupo 69980">
        <g id="Grupo_69979-2" data-name="Grupo 69979">
          <path id="Trazado_102013" data-name="Trazado 102013" d="M177.508,1457.318a1.922,1.922,0,1,0,1.923,1.923A1.925,1.925,0,0,0,177.508,1457.318Zm0,2.564a.641.641,0,1,1,.641-.641A.642.642,0,0,1,177.508,1459.882Z" fill="#e4cbb7"/>
          <path id="Trazado_102014" data-name="Trazado 102014" d="M176.058,1455.62l2.26.282a1.917,1.917,0,0,1,1.263.707l1.913,2.391,1-.8-1.913-2.391a3.187,3.187,0,0,0-2.1-1.177l-2.26-.283a1.921,1.921,0,0,1-1.647-1.531l-.278-1.393-1.257.252.279,1.393A3.2,3.2,0,0,0,176.058,1455.62Z" fill="#e4cbb7"/>
          <path id="Trazado_102015" data-name="Trazado 102015" d="M203.854,1473.34l-.072-.707c-.007-.067-.705-6.869-.829-10.248l-.422-11.4a4.076,4.076,0,0,0-4.073-3.924h-.649a3.84,3.84,0,0,0-2.9,1.324,5.31,5.31,0,0,0-3.508-1.324H188.4v-.978a5.772,5.772,0,0,0,3.846-5.431v-5.768h1.282V1433.6H173.022v1.282h1.349l.369,3.322a9.21,9.21,0,0,0,4.05,6.653v1.5a2.57,2.57,0,0,1-2.061,2.514l-4.068.814a9.411,9.411,0,0,0-7.541,8.534L164,1473.34h21.2a1.925,1.925,0,0,0,1.923-1.922v-2.564a1.968,1.968,0,0,0-.03-.3l1.612,2.687a4.324,4.324,0,0,0,8.031-2.224v-4.494a7.162,7.162,0,0,0-1.57-4.488,5.317,5.317,0,0,0,1.209-5.7,5.181,5.181,0,0,0,.236-.8,3.038,3.038,0,0,0,.806.4c.212,2.485,1.242,14.782,1.242,18.757v.64ZM191.4,1448.345a4.057,4.057,0,0,1,.887,8.016l-3.881.81v-1.228c0-.016,0-.032,0-.048l3.6-.784a2.775,2.775,0,0,0-.6-5.484h-3.051a2.536,2.536,0,0,0,.057-.51,2.5,2.5,0,0,0-.125-.772Zm-17.35,15.206c.1.063.2.123.3.179l.555,8.329h-2.98Zm1.616.681a5.168,5.168,0,0,0,1.16.136h2.149a8.228,8.228,0,0,0-.823,3.592v4.1h-1.964Zm7.613,1.418h-3.448a6.954,6.954,0,0,1,.6-1.282h2.847Zm0,3.845h-3.845v-1.535a7.042,7.042,0,0,1,.076-1.029h3.769Zm-3.845,1.282h3.845v1.282h-3.845Zm5.127-6.409h.641a.642.642,0,0,1,.641.641v1.282a.641.641,0,0,1-.641.64h-.641Zm1.856-1.964-1.366.682h-.49v-8.972h.49l1.366.682a1.275,1.275,0,0,1,.708,1.147v5.313A1.277,1.277,0,0,1,186.414,1462.4Zm-1.856-21.108h1.282v1.281h-1.282Zm2.564,0h1.164a1.921,1.921,0,0,1-1.164,1.163Zm1.281-1.282h-1.281v-1.282H188.4Zm-2.563,0h-1.282v-1.282h1.282Zm-2.564,0h-2.3l.11-.11a3.973,3.973,0,0,1,2.188-1.117Zm0,1.282v1.258a4.027,4.027,0,0,1-2.532-1.258Zm3.71,12.354-.362-.181a1.908,1.908,0,0,0,.5-1.278v-.888a2.549,2.549,0,0,0,.528-.394H191.4a1.492,1.492,0,0,1,.326,2.949l-3.666.8a2.546,2.546,0,0,0-1.071-1.008Zm-2.428-2.1h1.282v.641a.642.642,0,0,1-.641.641h-.641Zm2.525-2.669a1.25,1.25,0,0,1,.039.236,1.215,1.215,0,0,1-.675,1.093l-.117.058h-1.772v-1.282h1.923a1.913,1.913,0,0,0,.6-.1Zm.039-1.817a.642.642,0,0,1-.641.641h-1.923v-1.282h1.923a5.66,5.66,0,0,0,.641-.038Zm3.845-6.409a4.491,4.491,0,0,1-4.486,4.486h-1.923v-1.282h1.923a3.207,3.207,0,0,0,3.2-3.2v-4.487H188.4v1.282h-3.845v-2.563h6.409Zm-14.953-2.588-.353-3.18h7.615v2.606a5.245,5.245,0,0,0-3.094,1.5l-1.6,1.6.863,1.152a5.3,5.3,0,0,0,3.828,2.089v1.276A7.939,7.939,0,0,1,176.014,1438.067Zm-9.616,20.249a8.132,8.132,0,0,1,6.515-7.372l4.068-.814a3.855,3.855,0,0,0,3.091-3.771v-.781a9.2,9.2,0,0,0,3.2.815v16.693h-6.453a3.832,3.832,0,0,1-3.793-3.213l-.657-3.942-1.265.21.657,3.942a5.129,5.129,0,0,0,1.2,2.531l-2.361,9.445h-5.218Zm19.442,13.1a.642.642,0,0,1-.641.641h-.641v-3.846h.641a.642.642,0,0,1,.641.641Zm6.571.641a3.054,3.054,0,0,1-2.608-1.478l-2.681-4.468v-1.1a1.91,1.91,0,0,0-.5-1.278l.362-.181a2.426,2.426,0,0,0,.282-.167l.6.484a8.116,8.116,0,0,0,7.58,1.387v1.5a2.852,2.852,0,0,1-2.484,1.461H192.4a5.458,5.458,0,0,1-2.428-.573l-.573,1.146a6.739,6.739,0,0,0,3,.709h.569a4.047,4.047,0,0,0,2.484-.845v.367a3.045,3.045,0,0,1-3.042,3.042Zm3.01-8.142-.3.1a6.946,6.946,0,0,1-6.45-1.15l-.554-.444c.01-.02.022-.04.031-.06l4.4-.9a5.382,5.382,0,0,0,1.6-.637,5.872,5.872,0,0,1,1.269,3.1Zm.032-7.67a4.029,4.029,0,0,1-3.167,3.958l-3.883.8v-2.523l4.151-.866a5.33,5.33,0,0,0,2.881-1.713c.01.115.018.23.018.347Zm1.257-4.347a5.306,5.306,0,0,0-.935-2.544,2.558,2.558,0,0,1,2.034-1.011h.65a2.793,2.793,0,0,1,2.791,2.69l.422,11.4c.1,2.77.582,7.781.764,9.627h-2.5c-.087-4.451-.975-15.128-1.217-17.977a2.8,2.8,0,0,0,1.678-.8l-.907-.906a1.723,1.723,0,0,1-2.376-.078Z" fill="#e4cbb7"/>
        </g>
      </g>
    </g>
  </g>
</svg>
