<svg xmlns="http://www.w3.org/2000/svg" xmlns:xlink="http://www.w3.org/1999/xlink" width="48.931" height="48.931" viewBox="0 0 48.931 48.931">
  <defs>
    <clipPath id="clip-path">
      <rect id="Rectángulo_5528" data-name="Rectángulo 5528" width="48.931" height="48.931" transform="translate(336.643 1429.007)" fill="none"/>
    </clipPath>
  </defs>
  <g id="Grupo_69991" data-name="Grupo 69991" transform="translate(-336.643 -1429.007)" opacity="0.5">
    <g id="Grupo_69993" data-name="Grupo 69993" clip-path="url(#clip-path)">
      <g id="Grupo_69992" data-name="Grupo 69992">
        <g id="Grupo_69991-2" data-name="Grupo 69991">
          <path id="Trazado_102058" data-name="Trazado 102058" d="M379.261,1464.706h-.9v-.36a6.061,6.061,0,0,0-1.223-3.666l-1.149.863a4.633,4.633,0,0,1,.934,2.8v.6a3.421,3.421,0,0,0-2.157,3.175v5.212H373.33v-2.157a.719.719,0,0,0-.719-.719h-.719v-1.438a.719.719,0,0,0-.719-.719h-.6l1.278-8.627h.405a4.637,4.637,0,0,1,2.8.934l.863-1.15a6.063,6.063,0,0,0-3.667-1.222h-.192l1.262-8.522a.719.719,0,0,0-.33-.715l-9.727-6.079v-4.095h2.157a.719.719,0,0,0,.719-.719v-2.876a.719.719,0,0,0-.719-.719h-2.157v-2.157a.718.718,0,0,0-.719-.718H359.67a.718.718,0,0,0-.719.718v2.157h-2.157a.718.718,0,0,0-.718.719v2.876a.718.718,0,0,0,.718.719h2.157v4.095l-4.694,2.934.762,1.219,6.089-3.806,10.723,6.7-2.716,18.332H367.7l2.742-17.141a.718.718,0,0,0-.347-.734l-8.628-5.033a.721.721,0,0,0-.724,0l-8.627,5.033a.718.718,0,0,0-.348.734l2.742,17.141H353.1l-2.716-18.332,3.2-2-.762-1.219-3.6,2.246a.72.72,0,0,0-.33.715l1.262,8.522h-.191a6.117,6.117,0,0,0-6.111,6.111v.36h-.9a3.419,3.419,0,0,0-3.415,3.415v5.931a.719.719,0,0,0,.719.719h41.7a.719.719,0,0,0,.719-.719v-5.931a3.419,3.419,0,0,0-3.415-3.415Zm-18.534-22.9-.338.211V1438.1a.719.719,0,0,0-.719-.719h-2.157v-1.438h2.157a.719.719,0,0,0,.719-.719v-2.157h1.438v2.157a.719.719,0,0,0,.719.719H364.7v1.438h-2.157a.719.719,0,0,0-.719.719v3.915l-.338-.211A.718.718,0,0,0,360.727,1441.809Zm-7.458,9.61,7.839-4.573,7.84,4.573-2.7,16.881H355.97Zm17.185,18.319v.719H351.762v-.719Zm-29.476,3.595v-5.212a1.979,1.979,0,0,1,1.977-1.977h1.078a1.978,1.978,0,0,1,1.977,1.977v5.212Zm7.908-2.157v2.157h-1.438v-5.212a3.42,3.42,0,0,0-2.157-3.175v-.6a4.679,4.679,0,0,1,4.674-4.673h.4l1.278,8.627h-.6a.719.719,0,0,0-.719.719v1.438h-.719A.719.719,0,0,0,348.886,1471.176Zm23.006,2.157H350.324V1471.9h21.568Zm9.346,0h-5.032v-5.212a1.979,1.979,0,0,1,1.977-1.977h1.078a1.978,1.978,0,0,1,1.977,1.977Z" fill="#e4cbb7"/>
          <path id="Trazado_102059" data-name="Trazado 102059" d="M356.794,1463.987h8.628v1.438h-8.628Z" fill="#e4cbb7"/>
          <path id="Trazado_102060" data-name="Trazado 102060" d="M356.794,1461.111h3.6v1.438h-3.6Z" fill="#e4cbb7"/>
          <path id="Trazado_102061" data-name="Trazado 102061" d="M361.827,1461.111h3.6v1.438h-3.6Z" fill="#e4cbb7"/>
          <path id="Trazado_102062" data-name="Trazado 102062" d="M361.108,1458.954c1.982,0,3.6-1.935,3.6-4.313s-1.613-4.314-3.6-4.314-3.6,1.935-3.6,4.314S359.126,1458.954,361.108,1458.954Zm0-7.189c1.189,0,2.157,1.29,2.157,2.876s-.968,2.875-2.157,2.875-2.157-1.29-2.157-2.875S359.919,1451.765,361.108,1451.765Z" fill="#e4cbb7"/>
        </g>
      </g>
    </g>
  </g>
</svg>
