<svg xmlns="http://www.w3.org/2000/svg" width="257.409" height="222.693" viewBox="0 0 257.409 222.693">
  <g id="Grupo_70039" data-name="Grupo 70039" transform="translate(-273.597 -59.322)">
    <g id="Grupo_70021" data-name="Grupo 70021" transform="translate(273.597 65.852)">
      <path id="Trazado_102075" data-name="Trazado 102075" d="M408.8,128.962c2.836-.393,5.45-2.855,5.213-5.625a4.371,4.371,0,0,0-4.852-3.6,4.529,4.529,0,0,0,.608-6.482c-2.132-2.173-6.254-1.676-8.129.711,1.526-2.669-1-6.374-4.14-6.528a6.137,6.137,0,0,0-3.856,1.073c.025-2.38-1.744-4.848-4.2-4.7,2.867.006,5.817-2.069,5.99-4.842a4.321,4.321,0,0,0-4.271-4.235,4.547,4.547,0,0,0,1.562-6.332c-1.789-2.447-5.942-2.527-8.152-.427,1.9-2.428-.046-6.446-3.133-7.035s-6.248,1.81-6.972,4.78a5.53,5.53,0,1,0-11.057-.171,5.359,5.359,0,0,0-1.674-2.411,5.366,5.366,0,0,0,.378-1.417c.4-3.5-3.651-6.934-6.98-5.528a4.42,4.42,0,0,0,2.158-5.836,6.392,6.392,0,0,0-5.8-3.353A10.622,10.622,0,0,0,345,69.538c.133-2.232-1.991-3.743-3.91-4.981-4.373-2.819-8.123,2.618-7.818,4.24a5.93,5.93,0,0,0-7.872-1.123,5.514,5.514,0,0,0-1.033,7.65,4.7,4.7,0,0,0-5.77,1.461c-.171-.053-.344-.1-.515-.15a10.836,10.836,0,0,0-4.4-.591,3.566,3.566,0,0,0-3.154,2.66,11.4,11.4,0,0,0-10.464-1.6,6.674,6.674,0,0,0-4.048,3.378,3.681,3.681,0,0,0,1.436,4.654,4.325,4.325,0,0,0-5.732,3.157,4.253,4.253,0,0,0,4.751,4.43c-2.382.83-2.954,4.242-1.383,6.168a5.1,5.1,0,0,0,1.79,1.36,5.616,5.616,0,0,0-3.756,6.026,6.143,6.143,0,0,0-7.812-2.614,5.786,5.786,0,0,0-2.637,7.6c-2.1-.028-4.324-.025-6.115,1.037s-2.823,3.591-1.533,5.2c1.1,1.362,3.171,1.406,4.951,1.326a5.486,5.486,0,0,0-2.909,7.365,5.82,5.82,0,0,0,7.842,2.088c-2.58,1.85-1.431,6.33,1.5,7.589a6.209,6.209,0,0,0,2.532.484,2.551,2.551,0,0,0,.5,1.013c1.1,1.364,3.169,1.408,4.951,1.328a5.484,5.484,0,0,0-2.91,7.363,5.816,5.816,0,0,0,7.842,2.088c-2.58,1.852-1.43,6.332,1.507,7.591s6.48-.057,8.75-2.259c-1.03,2.713,2.164,5.547,5.135,5.325s5.369-2.42,7.189-4.709c1.852,2.242,4.842,3.893,7.728,3.243a3.905,3.905,0,0,0,.378-.112,6.859,6.859,0,0,0,3.9,6.554,8.419,8.419,0,0,0,3.936.629l-3.56,108.154h19.839L346.931,165.69a7.256,7.256,0,0,0,5.519,2.179c3.967-.3,7.168-3.231,9.6-6.288,2.472,2.994,6.465,5.2,10.316,4.331s6.493-5.8,4.071-8.83c4.25.475,9.071-1.394,10.612-5.264a8.306,8.306,0,0,0,.42-4.662h.049c2.971-.224,5.369-2.42,7.191-4.709,1.85,2.242,4.841,3.894,7.726,3.243s4.862-4.343,3.049-6.613c3.182.355,6.793-1.045,7.947-3.942S411.937,128.329,408.8,128.962ZM342.256,93.269a4.606,4.606,0,0,0-.2-.992,4.384,4.384,0,0,0,.289.382A6,6,0,0,0,342.256,93.269Zm-38.1,11.144c-.029.165-.055.332-.07.5a4.42,4.42,0,0,0-.082-.551C304.06,104.377,304.109,104.4,304.161,104.413Zm-2.439-3.366q-.2-.14-.41-.262c.239-.042.481-.084.714-.146A1.334,1.334,0,0,0,301.721,101.047Zm89.719,11.281,0,0,0,.01Z" transform="translate(-272.833 -61.86)" fill="gray" opacity="0.5" style="mix-blend-mode: multiply;isolation: isolate"/>
      <g id="Grupo_70020" data-name="Grupo 70020">
        <path id="Trazado_102076" data-name="Trazado 102076" d="M315,87.436a5.528,5.528,0,0,0-3.967,6.885,5.781,5.781,0,0,0,7.453,3.157c-2.829,1.474-2.352,6.066.367,7.721s6.423.845,9-1.018c-1.419,2.542,1.322,5.79,4.3,5.98s5.671-1.649,7.812-3.661c1.5,2.475,4.217,4.525,7.168,4.284s5.452-3.623,3.993-6.123c3.1.794,6.879-.089,8.45-2.8s-.471-6.942-3.67-6.752c2.867.006,5.817-2.069,5.99-4.842s-3.342-5.279-5.766-3.8c3.087-.167,4.844-4.32,3.057-6.767s-5.942-2.527-8.152-.427c1.9-2.428-.046-6.446-3.133-7.035s-6.248,1.81-6.972,4.78a5.53,5.53,0,1,0-11.057-.171,6.1,6.1,0,0,0-7.346-3.672,5.83,5.83,0,0,0-3.731,7.151c-2.073-.319-4.276-.623-6.206.179s-3.325,3.161-2.283,4.928C311.177,86.939,313.223,87.269,315,87.436Z" transform="translate(-240.899 -55.062)" fill="#738e23"/>
        <path id="Trazado_102077" data-name="Trazado 102077" d="M279.125,101.033a5.486,5.486,0,0,0-2.908,7.365,5.819,5.819,0,0,0,7.842,2.088c-2.58,1.85-1.43,6.33,1.5,7.589s6.482-.057,8.752-2.257c-1.03,2.713,2.164,5.547,5.135,5.323s5.369-2.42,7.189-4.709c1.85,2.242,4.842,3.893,7.726,3.243s4.863-4.343,3.049-6.613c3.184.355,6.8-1.045,7.949-3.942s-1.491-6.8-4.628-6.172c2.836-.393,5.448-2.855,5.211-5.625s-4.086-4.761-6.267-2.96c3.03-.593,4.157-4.949,2.025-7.12s-6.254-1.676-8.129.71c1.524-2.669-1-6.374-4.14-6.528s-5.918,2.66-6.2,5.7a5.721,5.721,0,0,0-6.224-4.892,5.613,5.613,0,0,0-4.746,6.26,6.143,6.143,0,0,0-7.812-2.614,5.786,5.786,0,0,0-2.637,7.6c-2.1-.029-4.324-.025-6.115,1.037s-2.823,3.591-1.533,5.2C275.272,101.069,277.345,101.113,279.125,101.033Z" transform="translate(-273.597 -45.97)" fill="#738e23"/>
        <path id="Trazado_102078" data-name="Trazado 102078" d="M299.216,94.9a5.484,5.484,0,0,0-2.909,7.365,5.817,5.817,0,0,0,7.84,2.088c-2.58,1.852-1.43,6.33,1.5,7.589s6.482-.055,8.752-2.257c-1.03,2.713,2.164,5.547,5.135,5.323s5.369-2.42,7.189-4.709c1.852,2.242,4.842,3.894,7.728,3.245s4.861-4.343,3.049-6.615c3.182.357,6.794-1.043,7.949-3.942s-1.493-6.8-4.63-6.172c2.836-.391,5.45-2.855,5.213-5.625s-4.088-4.761-6.269-2.958c3.032-.595,4.157-4.949,2.025-7.122s-6.254-1.674-8.129.711c1.526-2.669-1-6.374-4.139-6.528s-5.918,2.66-6.2,5.7a5.72,5.72,0,0,0-6.224-4.892,5.617,5.617,0,0,0-4.746,6.26,6.139,6.139,0,0,0-7.812-2.612,5.784,5.784,0,0,0-2.637,7.6c-2.1-.027-4.324-.023-6.115,1.037s-2.821,3.591-1.531,5.2C295.362,94.942,297.434,94.984,299.216,94.9Z" transform="translate(-255.521 -51.484)" fill="#93ae43"/>
        <path id="Trazado_102079" data-name="Trazado 102079" d="M286.716,111.491a5.484,5.484,0,0,0-2.91,7.363,5.816,5.816,0,0,0,7.842,2.088c-2.58,1.852-1.43,6.332,1.5,7.591s6.482-.057,8.752-2.259c-1.03,2.713,2.164,5.547,5.135,5.325s5.369-2.42,7.189-4.709c1.852,2.242,4.842,3.893,7.728,3.243s4.861-4.343,3.049-6.613c3.182.355,6.793-1.045,7.947-3.944s-1.491-6.8-4.628-6.17c2.836-.393,5.45-2.857,5.213-5.625s-4.088-4.761-6.269-2.96c3.032-.595,4.157-4.949,2.025-7.12s-6.254-1.676-8.129.709c1.524-2.667-1-6.372-4.14-6.526s-5.918,2.658-6.2,5.7a5.72,5.72,0,0,0-6.224-4.892,5.614,5.614,0,0,0-4.746,6.26,6.14,6.14,0,0,0-7.812-2.614,5.784,5.784,0,0,0-2.637,7.6c-2.1-.027-4.324-.023-6.115,1.037s-2.823,3.592-1.531,5.2C282.861,111.527,284.934,111.571,286.716,111.491Z" transform="translate(-266.769 -36.56)" fill="#93ae43"/>
        <path id="Trazado_102080" data-name="Trazado 102080" d="M303.868,115.831a7.319,7.319,0,0,0-3.883,9.831,7.767,7.767,0,0,0,10.469,2.789c-3.444,2.472-1.909,8.452,2.01,10.133s8.651-.074,11.683-3.013c-1.375,3.621,2.888,7.405,6.856,7.107s7.168-3.231,9.6-6.288c2.472,2.994,6.465,5.2,10.316,4.331s6.493-5.8,4.071-8.83c4.25.475,9.071-1.394,10.612-5.264s0-9.033-4.191-8.19c3.786-.524,5.287-3.862,4.97-7.559s-5.456-6.358-8.368-3.951c4.046-.794,5.549-6.607,2.7-9.508s-8.349-2.236-10.853.948c2.036-3.562-1.332-8.509-5.526-8.714s-7.9,3.551-8.27,7.607a7.637,7.637,0,0,0-8.31-6.529,7.491,7.491,0,0,0-6.336,8.355A8.2,8.2,0,0,0,310.988,95.6a7.725,7.725,0,0,0-3.52,10.141c-2.8-.036-5.771-.03-8.163,1.385s-3.769,4.795-2.046,6.938C298.724,115.881,301.49,115.938,303.868,115.831Z" transform="translate(-253.001 -38.569)" fill="#738e23"/>
        <path id="Trazado_102081" data-name="Trazado 102081" d="M325.035,105.363a5.483,5.483,0,0,0-2.909,7.365,5.817,5.817,0,0,0,7.84,2.088c-2.58,1.852-1.429,6.33,1.507,7.589s6.48-.057,8.75-2.257c-1.03,2.713,2.164,5.547,5.135,5.323s5.369-2.42,7.191-4.709c1.85,2.242,4.841,3.894,7.726,3.243s4.861-4.343,3.049-6.613c3.182.355,6.794-1.045,7.949-3.942s-1.493-6.8-4.63-6.172c2.836-.393,5.45-2.855,5.213-5.625s-4.088-4.761-6.269-2.96c3.032-.593,4.157-4.947,2.025-7.12s-6.254-1.676-8.129.711c1.526-2.669-1-6.374-4.139-6.528a5.524,5.524,0,0,0-6.058,4.9c-.241-2.886-3.4-4.459-6.36-4.09a5.616,5.616,0,0,0-4.746,6.26,6.139,6.139,0,0,0-7.812-2.612,5.784,5.784,0,0,0-2.637,7.6c-2.1-.029-4.324-.023-6.115,1.037s-2.823,3.591-1.531,5.2C321.181,105.4,323.254,105.443,325.035,105.363Z" transform="translate(-232.291 -42.076)" fill="#93ae43"/>
        <path id="Trazado_102082" data-name="Trazado 102082" d="M332.735,86.393c3.617.319,7.5-2.173,7.909-5.673s-3.651-6.934-6.98-5.528a4.42,4.42,0,0,0,2.158-5.836,6.392,6.392,0,0,0-5.8-3.353,10.622,10.622,0,0,0-6.491,2.534c.133-2.232-1.991-3.742-3.91-4.981-4.373-2.819-8.123,2.618-7.818,4.24a5.93,5.93,0,0,0-7.872-1.123,5.514,5.514,0,0,0-1.033,7.65c-2.263-1.182-5.526.04-6.246,2.434a4.069,4.069,0,0,0,4.092,4.958c-3.152.448-4.238,5-2.092,7.284s6.07,2.244,8.79.636q.02,1.676.038,3.353a14.635,14.635,0,0,0,7.181,2.084c2.527-.089,5.15-1.541,5.849-3.9,1.493,2.5,4.949,3.1,7.93,2.95,2.352-.116,4.937-.667,6.307-2.529S335.093,86.392,332.735,86.393Z" transform="translate(-252.977 -62.759)" fill="#738e23"/>
        <path id="Trazado_102083" data-name="Trazado 102083" d="M301.509,71.914a11.4,11.4,0,0,0-10.464-1.6A6.674,6.674,0,0,0,287,73.694a3.681,3.681,0,0,0,1.436,4.654,4.325,4.325,0,0,0-5.732,3.157,4.253,4.253,0,0,0,4.751,4.43c-2.382.832-2.954,4.242-1.383,6.168s4.5,2.4,6.938,1.744a1.948,1.948,0,0,0,.165,2.73,5.653,5.653,0,0,0,2.812,1.265c4.709,1.1,10.591,1.185,13.372-2.66a13.543,13.543,0,0,0,6.4-.828,5.49,5.49,0,0,0,3.408-2.958c.5-1.448-.46-3.376-2.033-3.406a11.525,11.525,0,0,0,4.8-1.468,4.176,4.176,0,0,0,2.042-4.193c-.585-2.521-3.826-3.306-6.471-3.6a5.706,5.706,0,0,0,2.677-5.543,12.352,12.352,0,0,0-8.686.032,1.612,1.612,0,0,0-.12-2.266,4.983,4.983,0,0,0-2.316-1.1,10.837,10.837,0,0,0-4.4-.591A3.566,3.566,0,0,0,301.509,71.914Z" transform="translate(-265.43 -56.969)" fill="#93ae43"/>
        <path id="Trazado_102084" data-name="Trazado 102084" d="M311.611,68.491,305.1,266.4h19.839Z" transform="translate(-245.257 -57.603)" fill="#442c16"/>
        <path id="Trazado_102085" data-name="Trazado 102085" d="M309.416,126.179l3.425,9.689c1.159-.483,16.41-6.812,31.572-13.108,1.594-3.488,2.1-4.85,3-6.976.826-1.98,1.636-3.927,2.422-5.809,1.567-3.769,3.03-7.284,4.284-10.295,2.5-6.026,4.172-10.038,4.172-10.038l-5.713,9.3-5.855,9.541c-1.071,1.746-2.177,3.551-3.3,5.386-1.049,1.687-2.523,4.2-2.91,4.588l-.733.123-.376.065-.722.18-2.874.718-5.608,1.4c-3.647.914-7.075,1.772-10.055,2.521Z" transform="translate(-241.37 -38.573)" fill="#442c16"/>
        <path id="Trazado_102086" data-name="Trazado 102086" d="M332.825,125.337l1.081-10.188-12.514-.323-11.305-.245c-2.006-.038-4.047-.08-6.083-.12-1-.015-2-.032-3-.049l-1.653.084L284.7,87.621s1.231,3.446,3.186,8.921c.984,2.736,2.151,5.977,3.435,9.55.646,1.784,1.32,3.651,2.018,5.578q.524,1.448,1.064,2.933l1.653,4.259C312.31,121.723,331.475,125.1,332.825,125.337Z" transform="translate(-263.607 -40.39)" fill="#442c16"/>
        <path id="Trazado_102087" data-name="Trazado 102087" d="M308.671,104.612l3.283,9.734,8.325-3.568,7.6-3.3c1.356-.593,2.741-1.2,4.132-1.8l1.043-.458c.376-.161.6-.275,1.22-.513q1.547-.618,3.079-1.231.5-1.741.982-3.456c.2-.8.4-1.586.6-2.365l1.1-4.436c.7-2.853,1.347-5.466,1.892-7.683l1.778-7.28-3.25,6.786c-.984,2.069-2.147,4.508-3.414,7.17-.631,1.332-1.29,2.72-1.966,4.145q-.5,1.046-1.005,2.116l-.652,1.115-1.218.131a9.065,9.065,0,0,0-.94.173l-1.119.228-4.434.91-8.138,1.693Z" transform="translate(-242.04 -48.817)" fill="#442c16"/>
        <path id="Trazado_102088" data-name="Trazado 102088" d="M324.542,103.675l1.7-7.128L316.7,95.086,308.094,93.8l-4.624-.68-2.312-.336c-.621-.08-.87-.074-1.373-.125-5.278-11.579-9.727-21.344-9.727-21.344s.775,2.667,2.006,6.915c.623,2.124,1.358,4.643,2.171,7.42.408,1.391.838,2.844,1.279,4.347q.333,1.126.676,2.285l1.009,3.2Z" transform="translate(-258.787 -55.061)" fill="#442c16"/>
      </g>
    </g>
    <g id="Grupo_70024" data-name="Grupo 70024" transform="translate(352.36 59.322)">
      <path id="Trazado_102089" data-name="Trazado 102089" d="M432.208,166.778V150.311h1.33v-6.336h-2.109c.017-.526.04-1.052.04-1.582A47.636,47.636,0,0,0,389.8,94.908v-11.8h10.538V70.928H389.8V60.352H378.586V70.928H368.048V83.105h10.538V94.91a47.743,47.743,0,0,0-41.671,47.482c0,.53.023,1.056.04,1.582h-2.111v6.336h1.332v16.467H315.932V274.892H452.449V166.778Z" transform="translate(-314.269 -58.395)" fill="gray" fill-rule="evenodd" opacity="0.5" style="mix-blend-mode: multiply;isolation: isolate"/>
      <g id="Grupo_70023" data-name="Grupo 70023">
        <g id="Grupo_70022" data-name="Grupo 70022" transform="translate(52.114)">
          <path id="Trazado_102090" data-name="Trazado 102090" d="M353.029,59.322H364.24V69.9h10.538V82.075H364.24v22.435H353.029V82.075h-10.54V69.9h10.54Z" transform="translate(-342.489 -59.322)" fill="#fffef2" fill-rule="evenodd"/>
          <path id="Trazado_102091" data-name="Trazado 102091" d="M350.988,59.322h5.606V69.9h10.538V82.075H356.593v22.435h-5.606Z" transform="translate(-334.842 -59.322)" fill="#deddd0" fill-rule="evenodd"/>
        </g>
        <path id="Trazado_102092" data-name="Trazado 102092" d="M373.38,172.989c26.04,0,47.275-21.486,47.275-47.83s-21.235-47.83-47.275-47.83S326.1,98.815,326.1,125.159,347.34,172.989,373.38,172.989Z" transform="translate(-305.12 -43.12)" fill="#ff5244" fill-rule="evenodd"/>
        <path id="Trazado_102093" data-name="Trazado 102093" d="M350.988,77.33c26.108,0,47.275,21.414,47.275,47.828s-21.167,47.83-47.275,47.832Z" transform="translate(-282.728 -43.12)" fill="#c4291c" fill-rule="evenodd"/>
        <rect id="Rectángulo_5534" data-name="Rectángulo 5534" width="96.033" height="85.523" transform="translate(20.242 83.622)" fill="#d0cfc3"/>
        <rect id="Rectángulo_5535" data-name="Rectángulo 5535" width="48.016" height="85.523" transform="translate(68.26 83.622)" fill="#6b6b6b" opacity="0.45" style="mix-blend-mode: color-burn;isolation: isolate"/>
        <rect id="Rectángulo_5536" data-name="Rectángulo 5536" width="98.694" height="6.336" transform="translate(18.911 83.622)" fill="#fffef2"/>
        <rect id="Rectángulo_5537" data-name="Rectángulo 5537" width="49.346" height="6.336" transform="translate(68.26 83.622)" fill="#deddd0"/>
        <rect id="Rectángulo_5538" data-name="Rectángulo 5538" width="136.517" height="108.115" transform="translate(0 106.425)" fill="#fffef2"/>
        <rect id="Rectángulo_5539" data-name="Rectángulo 5539" width="68.257" height="108.115" transform="translate(68.26 106.425)" fill="#deddd0"/>
        <path id="Trazado_102094" data-name="Trazado 102094" d="M364.664,125.065a29.027,29.027,0,0,1,28.848,28.065l.025,1.146V214.71H335.788V154.275l.027-1.146A29.025,29.025,0,0,1,364.664,125.065Z" transform="translate(-296.404 -0.17)" fill="#4f4f4f" fill-rule="evenodd"/>
        <path id="Trazado_102095" data-name="Trazado 102095" d="M350.988,125.065a29.027,29.027,0,0,1,28.848,28.065l.025,1.146V214.71H350.988Z" transform="translate(-282.728 -0.17)" fill="#272724" fill-rule="evenodd"/>
      </g>
    </g>
    <g id="Grupo_70026" data-name="Grupo 70026" transform="translate(471.498 140.946)">
      <path id="Trazado_102096" data-name="Trazado 102096" d="M431.882,194.787c2.586.678,5.112-2.234,4.554-4.776s-3.307-4.212-5.984-4.341c2.646-.2,4.221-3.486,3.169-5.847a6.338,6.338,0,0,0-5.26-3.363,4.024,4.024,0,0,0,2.813-5c-.729-2-2.876-3.157-5.086-3.351a4.182,4.182,0,0,0,3.078-4.293c-.289-2.428-2.772-4.255-5.291-4.373a4.447,4.447,0,0,0,4.637-5.088c-.53-2.589-3.6-4.3-6.244-3.693a4.007,4.007,0,0,0,3-4.877,4.173,4.173,0,0,0-5.27-2.475,4.452,4.452,0,0,0,3.108-5.222,4.609,4.609,0,0,0-4.913-3.155,3.224,3.224,0,0,0,2.025-4.343c-.817-1.8-3.009-2.7-5.034-2.635a4.117,4.117,0,0,0,4.322-4.5,4.225,4.225,0,0,0-4.6-3.157,3.162,3.162,0,0,0,1.755-3.461,3.753,3.753,0,0,0-3.427-2.627,3.3,3.3,0,0,0,2.109-4.725c-1.2-1.949-4.2-2.314-6.206-1.151,1.368-1.3.7-3.822-1.009-4.664a4.711,4.711,0,0,0-5.22,1.144,2.985,2.985,0,0,0,.73,2.939c-2.829-1.208-6.822-.4-7.88,2.422a4.292,4.292,0,0,0,2.238,5.122,4.215,4.215,0,0,0-4.709,2.308c-.792,2.128,1.317,4.808,3.6,4.356-1.955,1.058-4.941.536-6.034,2.432a3.029,3.029,0,0,0,.714,3.5,9.428,9.428,0,0,0,3.364,1.923,11.428,11.428,0,0,0-4.738.737,3.666,3.666,0,0,0-2.3,3.746c.352,1.719,2.246,2.641,3.917,3.311a4.713,4.713,0,0,0-5.458,3.45,3.954,3.954,0,0,0,4.278,4.388c-2.76.118-5.6,1.759-6.313,4.349s1.573,5.733,4.311,5.365a6.3,6.3,0,0,0-5.606,4.643,5.013,5.013,0,0,0,3.82,5.8,4.386,4.386,0,0,0-5.468,2.891,4.253,4.253,0,0,0,3.078,4.877A4.619,4.619,0,0,0,379.338,177a4.22,4.22,0,0,0,4.609,4.47c-2.261.767-4.542,2.2-5.145,4.453a3.693,3.693,0,0,0,2.89,4.43,4.206,4.206,0,0,0-2.878,5.2c.853,2.4,4.016,3.611,6.463,2.707-2.405.777-2.665,4.478-.663,5.986s5.124.88,6.875-.9c-1.619,1.938-.086,5.232,2.409,5.84s5.16-1,6.315-3.233a4.4,4.4,0,0,0,3.18,5.184l-.7,25.065h10.283l-1.5-25.966a4.863,4.863,0,0,0,2.618.7c2.625-.091,4.869-3.051,3.718-5.34a16.543,16.543,0,0,0,4.624,2.586,5.789,5.789,0,0,0,5.114-.619,3.3,3.3,0,0,0,.766-4.6,4.927,4.927,0,0,0,6.8-2.029A4.682,4.682,0,0,0,431.882,194.787Z" transform="translate(-377.005 -101.388)" fill="gray" opacity="0.5" style="mix-blend-mode: multiply;isolation: isolate"/>
      <g id="Grupo_70025" data-name="Grupo 70025">
        <path id="Trazado_102097" data-name="Trazado 102097" d="M396.031,120.957c-2.284.452-4.392-2.228-3.6-4.354s3.771-3.013,5.83-1.955a4.3,4.3,0,0,1-3.359-5.477c1.058-2.817,5.051-3.63,7.88-2.422a2.985,2.985,0,0,1-.73-2.939,4.711,4.711,0,0,1,5.221-1.144c1.706.842,2.377,3.368,1.009,4.664,2.008-1.163,5.006-.8,6.206,1.151s-.486,5.042-2.806,4.746a3.806,3.806,0,0,1,4.124,2.606,3.124,3.124,0,0,1-2.751,3.727,4.21,4.21,0,0,1,5.6,2.891,4.117,4.117,0,0,1-4.322,4.5c2.025-.066,4.217.838,5.034,2.635s-.418,4.337-2.441,4.394a4.618,4.618,0,0,1,5.329,3.1,4.452,4.452,0,0,1-3.108,5.222,4.173,4.173,0,0,1,5.27,2.475,4.007,4.007,0,0,1-3,4.877c2.648-.6,5.714,1.1,6.244,3.693a4.447,4.447,0,0,1-4.637,5.088c2.519.118,5,1.945,5.291,4.373s-2.209,4.926-4.649,4.309c2.681-.353,5.754.864,6.657,3.336s-1.543,5.686-4.141,4.958c2.646-.179,5.536,1.039,6.588,3.4s-.522,5.652-3.169,5.847c2.677.129,5.426,1.8,5.984,4.341s-1.968,5.454-4.554,4.776a4.682,4.682,0,0,1,3.233,6.146,4.927,4.927,0,0,1-6.8,2.029,3.3,3.3,0,0,1-.766,4.6,5.794,5.794,0,0,1-5.114.617,16.543,16.543,0,0,1-4.624-2.586c1.151,2.289-1.092,5.249-3.718,5.34a5.792,5.792,0,0,1-5.492-4.6,4.282,4.282,0,1,1-8.389-.378c-1.155,2.228-3.82,3.841-6.315,3.233s-4.027-3.9-2.409-5.84c-1.752,1.776-4.873,2.405-6.875.9s-1.742-5.209.663-5.986c-2.447.9-5.61-.306-6.463-2.707a4.132,4.132,0,0,1,3.828-5.3c-2.28.714-4.442-2.084-3.839-4.331s2.884-3.686,5.145-4.453a4.22,4.22,0,0,1-4.609-4.47,4.618,4.618,0,0,1,5.574-3.543,4.246,4.246,0,0,1-3.543-4.968,4.386,4.386,0,0,1,5.467-2.891,5.013,5.013,0,0,1-3.82-5.8,6.3,6.3,0,0,1,5.606-4.643c-2.738.369-5.021-2.776-4.311-5.365s3.552-4.231,6.313-4.349a3.954,3.954,0,0,1-4.278-4.388,4.713,4.713,0,0,1,5.458-3.45c-1.672-.671-3.566-1.592-3.917-3.311a3.666,3.666,0,0,1,2.3-3.746,11.429,11.429,0,0,1,4.738-.737,9.428,9.428,0,0,1-3.364-1.923,3.029,3.029,0,0,1-.714-3.5C391.089,121.493,394.076,122.015,396.031,120.957Z" transform="translate(-377.77 -102.288)" fill="#738e23"/>
        <path id="Trazado_102098" data-name="Trazado 102098" d="M393.816,109.121l-3.377,119.934h10.284Z" transform="translate(-366.37 -96.139)" fill="#442c16"/>
        <path id="Trazado_102099" data-name="Trazado 102099" d="M402.994,160.157l.682-5.139-5.374-.272-5.065-.243c-.921-.046-1.871-.091-2.84-.137-.437-.017-1.073-.059-1.356-.057l-.712.027-.38-.678-.663-1.469-1.292-2.865-2.3-5.1-2.261-5s.57,2.124,1.421,5.285c.426,1.582.921,3.423,1.449,5.388.264.984.538,2,.815,3.024q.208.772.418,1.55l.7,2.358,2.206.389,1.535.306,2.781.568,4.962,1.009Z" transform="translate(-374.476 -69.057)" fill="#442c16"/>
        <path id="Trazado_102100" data-name="Trazado 102100" d="M392.044,159.486l1.734,4.9c.505-.215,7.113-3.038,13.815-5.9l.445-1.014.215-.494.133-.334.534-1.33c.355-.883.7-1.753,1.041-2.6.676-1.687,1.309-3.264,1.85-4.62,1.085-2.711,1.812-4.527,1.812-4.527s-1.047,1.664-2.607,4.147c-.779,1.242-1.687,2.688-2.656,4.234l-1.493,2.378-.766,1.222-.192.306-.112.15-.209.27-.325.047a2.447,2.447,0,0,0-.408.076l-1.267.3-2.468.591-4.4,1.056Z" transform="translate(-364.926 -65.145)" fill="#442c16"/>
        <path id="Trazado_102101" data-name="Trazado 102101" d="M401.577,143.725l.682-5.139-3.756-.042-3.484-.025-1.923-.01-.98,0-.524.053a4.37,4.37,0,0,1-.526-.346l-.84-.652c-.557-.431-1.1-.855-1.624-1.261-1.049-.811-2.019-1.565-2.85-2.206-1.658-1.282-2.747-2.122-2.747-2.122l2.154,2.69,2.24,2.791c.414.513.844,1.045,1.28,1.588l.663.823,1,1.149,1.406.294.948.237,1.864.464,3.376.834Z" transform="translate(-373.059 -75.579)" fill="#442c16"/>
        <path id="Trazado_102102" data-name="Trazado 102102" d="M391.791,148.772l2.569,4.542,11.471-7.624c.482-1.343.669-1.983.918-2.774.243-.771.481-1.526.707-2.251l1.221-3.915c.7-2.264,1.157-3.731,1.157-3.731l-6.045,10.9-.3.089a2.505,2.505,0,0,0-.376.131l-1.079.437c-.718.291-1.431.581-2.128.864l-3.889,1.586Z" transform="translate(-365.154 -74.638)" fill="#442c16"/>
        <path id="Trazado_102103" data-name="Trazado 102103" d="M398.342,134.331l1.47-2.762L392,128.333a2,2,0,0,1-.146-.165l-.3-.412-.6-.836-1.212-1.693c-.8-1.123-1.584-2.217-2.268-3.176-1.368-1.923-2.352-3.3-2.352-3.3s3.064,6.184,5.466,11.026Z" transform="translate(-371.156 -87.479)" fill="#442c16"/>
        <path id="Trazado_102104" data-name="Trazado 102104" d="M391.995,138.341l1.8,2.576c.141-.106,1.009-.754,2.375-1.774l2.4-1.788,1.431-1.062c.543-.4.855-.648,1.9-1.377.861-6.11,2.019-14.334,2.019-14.334s-.56,1.945-1.328,4.616c-.386,1.332-.823,2.846-1.269,4.387l-.672,2.308q-.168.573-.331,1.132l-.156.517-.084.192Z" transform="translate(-364.97 -85.828)" fill="#442c16"/>
      </g>
    </g>
    <g id="Grupo_70038" data-name="Grupo 70038" transform="translate(283.869 203.006)">
      <path id="Trazado_102105" data-name="Trazado 102105" d="M352.232,203.272l-.452.484a4.81,4.81,0,0,0-.562.661c-.112.158-.241.336-.365.509a6.682,6.682,0,0,0-3.08-2.694c.015-.095.032-.19.051-.277a5.063,5.063,0,0,1,.165-.709c.116-.391.182-.617.182-.617l-.329.555a5.019,5.019,0,0,0-.344.663c-.036.074-.074.16-.112.239a6.67,6.67,0,0,0-2.247-.4h-.228V165.418a14.839,14.839,0,0,0-14.839-14.839H318.459v-5.431h3.889V139.9h-3.889v-3.946h-5.247V139.9h-3.889v5.247h3.889v5.431H301.595a14.838,14.838,0,0,0-14.837,14.839v36.274h-.226a6.62,6.62,0,0,0-2.95.693,2,2,0,0,0-.167-.222.911.911,0,0,0-.37-.27c-.1-.019-.156-.027-.156-.027s.048.023.139.063a.849.849,0,0,1,.256.323,1.894,1.894,0,0,1,.091.232,6.674,6.674,0,0,0-3.52,5.884v4.7h71.962v-4.7a6.667,6.667,0,0,0-.494-2.513c.023-.074.04-.152.068-.22.116-.329.228-.638.331-.925a4.541,4.541,0,0,1,.342-.762l.3-.579c.167-.327.262-.509.262-.509Z" transform="translate(-278.239 -134.056)" fill="gray" opacity="0.5" style="mix-blend-mode: multiply;isolation: isolate"/>
      <g id="Grupo_70037" data-name="Grupo 70037">
        <g id="Grupo_70027" data-name="Grupo 70027" transform="translate(29.469)">
          <path id="Trazado_102106" data-name="Trazado 102106" d="M303.652,138.9v-3.946H298.4V138.9h-3.888v5.247H298.4v9.882h5.247v-9.882h3.888V138.9Z" transform="translate(-294.516 -134.955)" fill="#fffef2"/>
        </g>
        <g id="Grupo_70028" data-name="Grupo 70028" transform="translate(6.904 14.624)">
          <path id="Trazado_102107" data-name="Trazado 102107" d="M340.793,193.766V157.492a14.839,14.839,0,0,0-14.839-14.839H297.475a14.838,14.838,0,0,0-14.837,14.839v36.274Z" transform="translate(-282.638 -142.653)" fill="#4f4f4f"/>
          <path id="Trazado_102108" data-name="Trazado 102108" d="M283.587,193.087V156.638A13.05,13.05,0,0,1,296.621,143.6H325.1a13.05,13.05,0,0,1,13.036,13.036v36.448Z" transform="translate(-281.784 -141.799)" fill="#fffef2"/>
          <path id="Trazado_102109" data-name="Trazado 102109" d="M297.944,143.6h14.24a13.05,13.05,0,0,1,13.034,13.036v36.448H297.944Z" transform="translate(-268.867 -141.799)" fill="#d9d8cb"/>
        </g>
        <g id="Grupo_70029" data-name="Grupo 70029" transform="translate(19.085 31.178)">
          <path id="Trazado_102110" data-name="Trazado 102110" d="M295.479,151.367c4.588,0,5.477,1.82,5.477,4.073a3.018,3.018,0,0,1-2.867,2.869,3,3,0,0,1,2.591,2.808c0,.853.118,1.347.473,1.347.3,0,.454-.237.454-.635v-.652h1.326v1.089c0,1.639-.692,3.165-2.888,3.165-2.591,0-3.837-1.368-3.837-3.68,0-1.8-.217-2.236-1.976-2.236v3.066h1.206v2.61H289.05v-2.61h1.109v-8.623H289.05v-2.591Zm-1.246,5.933h.889c1.147,0,1.9-.555,1.9-1.6a1.6,1.6,0,0,0-1.8-1.759h-.988Z" transform="translate(-289.05 -151.367)" fill="#5a5b54"/>
          <path id="Trazado_102111" data-name="Trazado 102111" d="M303.287,151.367v2.612h-1.225v8.581h1.225v2.631h-6.565V162.56h1.246v-8.581h-1.246v-2.612Z" transform="translate(-282.148 -151.367)" fill="#5a5b54"/>
          <path id="Trazado_102112" data-name="Trazado 102112" d="M307.1,151.367c4.588,0,5.458,1.978,5.458,4.233,0,2.61-2.373,3.915-5.2,3.915h-1.5v3.066h1.206v2.61H300.7v-2.61H301.8v-8.623H300.7v-2.591Zm-1.246,6.013h.891c1.146,0,1.936-.595,1.936-1.641a1.654,1.654,0,0,0-1.837-1.8h-.99Z" transform="translate(-278.571 -151.367)" fill="#5a5b54"/>
        </g>
        <g id="Grupo_70030" data-name="Grupo 70030" transform="translate(0 65.736)">
          <path id="Trazado_102113" data-name="Trazado 102113" d="M350.966,176.234a6.675,6.675,0,0,0-6.676-6.676H285.682A6.674,6.674,0,0,0,279,176.234v4.7h71.962Z" transform="translate(-279.004 -169.558)" fill="#20201d"/>
        </g>
        <g id="Grupo_70036" data-name="Grupo 70036" transform="translate(0.173 64.674)">
          <g id="Grupo_70031" data-name="Grupo 70031" transform="translate(9.958 1.731)">
            <path id="Trazado_102114" data-name="Trazado 102114" d="M285.37,171.012a7.43,7.43,0,0,1,.154.8c.019.3.053.617.049.961s-.006.7-.046,1.079c-.049.743-.175,1.543-.31,2.337-.281,1.584-.648,3.163-.881,4.426h5.11c.011-.063.023-.12.036-.184.068-.4.059-.777.091-1.184a9.122,9.122,0,0,0,.021-1.227c-.015-.412-.032-.83-.049-1.246-.091-.821-.16-1.634-.293-2.38-.112-.752-.243-1.44-.355-2.029l-.386-1.957s-.078.79-.194,1.981c-.063.595-.131,1.284-.239,2.014-.084.735-.247,1.5-.384,2.255-.1.367-.19.735-.283,1.1a5.525,5.525,0,0,1-.158.547c-.051-.663-.108-1.358-.182-2.057-.1-.843-.2-1.687-.372-2.475-.072-.393-.179-.773-.275-1.127s-.232-.684-.342-.982a8.14,8.14,0,0,0-.4-.786,5.584,5.584,0,0,0-.384-.549l-.4-.416s.1.182.262.5A5.381,5.381,0,0,1,285.37,171.012Z" transform="translate(-284.337 -169.91)" fill="#a6c44d"/>
          </g>
          <g id="Grupo_70032" data-name="Grupo 70032" transform="translate(6.621 1.98)">
            <path id="Trazado_102115" data-name="Trazado 102115" d="M285.737,180.5c.089-1.144.205-2.551.293-3.98a40.66,40.66,0,0,0,.086-4.55,5.439,5.439,0,0,0-.249-1.5.84.84,0,0,0-.234-.363.73.73,0,0,0-.137-.063.723.723,0,0,1,.108.091.775.775,0,0,1,.108.374,5.15,5.15,0,0,1-.175,1.417,39.82,39.82,0,0,1-1.324,4.219c-.549,1.524-1.136,3.036-1.573,4.189-.023.061-.04.108-.061.165Z" transform="translate(-282.58 -170.041)" fill="#a6c44d"/>
          </g>
          <g id="Grupo_70033" data-name="Grupo 70033" transform="translate(0 7.667)">
            <path id="Trazado_102116" data-name="Trazado 102116" d="M281.728,177.8a12.271,12.271,0,0,1-.245-1.4,7.68,7.68,0,0,1-.038-1.28,4.178,4.178,0,0,1,.2-1.1,2.457,2.457,0,0,1,.177-.424,2.024,2.024,0,0,1,.184-.31l.2-.256-.3.137a1.78,1.78,0,0,0-.336.2,2.668,2.668,0,0,0-.4.329,4.9,4.9,0,0,0-.826,1.037,9.011,9.011,0,0,0-.684,1.368,15.151,15.151,0,0,0-.557,1.695Z" transform="translate(-279.095 -173.035)" fill="#a6c44d"/>
          </g>
          <g id="Grupo_70034" data-name="Grupo 70034" transform="translate(2.861 1.237)">
            <path id="Trazado_102117" data-name="Trazado 102117" d="M281,170.036a4.579,4.579,0,0,1,.323,1.476,33.576,33.576,0,0,1-.049,4.69c-.108,1.679-.264,3.357-.378,4.647h3.131l-.011-.063c-.234-1.275-.536-3-.891-4.719a34.672,34.672,0,0,0-1.239-4.689,4.926,4.926,0,0,0-.754-1.432.911.911,0,0,0-.37-.27c-.1-.019-.156-.027-.156-.027s.047.023.139.063A.85.85,0,0,1,281,170.036Z" transform="translate(-280.601 -169.65)" fill="#a6c44d"/>
          </g>
          <g id="Grupo_70035" data-name="Grupo 70035" transform="translate(57.397)">
            <path id="Trazado_102118" data-name="Trazado 102118" d="M324.116,171.642l-.452.484a4.819,4.819,0,0,0-.562.661l-.6.84a8.412,8.412,0,0,0-.6,1,10.908,10.908,0,0,0-.576,1.109c-.173.389-.348.786-.523,1.184-.112.3-.226.6-.338.9-.158-.541-.313-1.09-.45-1.647a20.551,20.551,0,0,1-.448-2.6c-.025-.416-.067-.828-.053-1.216a8.6,8.6,0,0,1,.057-1.092,6.332,6.332,0,0,1,.137-.927,5.07,5.07,0,0,1,.165-.709c.116-.391.182-.617.182-.617l-.329.555a5.018,5.018,0,0,0-.344.663,6.73,6.73,0,0,0-.378.9,9.689,9.689,0,0,0-.344,1.115c-.11.382-.175.788-.255,1.212-.08-.27-.171-.517-.262-.741-.118-.289-.224-.557-.319-.792a3.945,3.945,0,0,1-.218-.625c-.1-.351-.163-.557-.163-.557s0,.211.006.579a3.744,3.744,0,0,0,.04.665c.027.258.059.549.091.868a5.483,5.483,0,0,1,.051.976,2.913,2.913,0,0,1-.023.481q-.048.282-.1.576a5.36,5.36,0,0,1-.11.583c-.055.177-.112.355-.167.536a9.845,9.845,0,0,1-.4,1.09c-.139.367-.317.731-.49,1.089-.139.3-.3.591-.454.878-.008-.483-.025-.969-.055-1.449-.1-1.624-.281-3.207-.374-4.392s-.1-1.983-.1-1.983-.226.766-.475,1.943-.543,2.755-.9,4.28q-.18.744-.378,1.442c-.087-.536-.175-1.089-.264-1.643-.162-.794-.325-1.586-.477-2.333-.084-.369-.131-.724-.237-1.06s-.194-.65-.279-.942c-.346-1.147-.574-1.911-.574-1.911v1.989c0,.3,0,.614,0,.95s-.051.7-.076,1.064c-.046.515-.1,1.054-.144,1.6-.179-.578-.353-1.146-.557-1.666-.255-.714-.517-1.364-.741-1.921-.454-1.109-.758-1.847-.758-1.847s.078.792.194,1.983c.055.593.118,1.286.154,2.023.063.733.047,1.516.061,2.283-.021.38-.044.76-.066,1.132a7.8,7.8,0,0,1-.123,1.068,9.267,9.267,0,0,1-.169.954c-.076.264-.15.517-.218.747l-.021.072h8.568c.1-.42.213-.862.315-1.351.029-.133.053-.279.082-.414.038.646.078,1.235.106,1.765h3.946c.032-.517.068-1.073.106-1.674.036-.783.106-1.579.171-2.392.055-.4.11-.794.163-1.184a10.386,10.386,0,0,1,.228-1.132,7.76,7.76,0,0,1,.281-1.051c.116-.329.228-.638.331-.925a4.547,4.547,0,0,1,.342-.762l.3-.579c.167-.327.262-.509.262-.509Z" transform="translate(-309.308 -168.999)" fill="#a6c44d"/>
          </g>
        </g>
      </g>
    </g>
  </g>
</svg>
