<svg xmlns="http://www.w3.org/2000/svg" width="147.192" height="147.193" viewBox="0 0 147.192 147.193">
  <g id="Grupo_70040" data-name="Grupo 70040" transform="translate(-210.861 -1506.202)">
    <path id="Trazado_102119" data-name="Trazado 102119" d="M327.593,1635.876v-56.424a49.064,49.064,0,0,0-98.128,0v56.424" transform="translate(5.928 7.706)" fill="#857970"/>
    <path id="Trazado_102120" data-name="Trazado 102120" d="M262.953,1621.895l29.438-24.532L339,1621.895" transform="translate(16.598 29.047)" fill="#976947"/>
    <path id="Trazado_102121" data-name="Trazado 102121" d="M214.582,1621.895l53.97-24.532,53.97,24.532" transform="translate(1.186 29.047)" fill="#c18e59"/>
    <path id="Trazado_102122" data-name="Trazado 102122" d="M297.134,1561.176H277.507V1541.55H267.7v19.626H248.069v9.812H267.7v39.252h9.812v-39.252h19.626Z" transform="translate(11.856 11.263)" fill="#e8eff4"/>
    <path id="Trazado_102123" data-name="Trazado 102123" d="M284.949,1520.922a14.719,14.719,0,1,1-14.72-14.72A14.72,14.72,0,0,1,284.949,1520.922Z" transform="translate(14.227 0)" fill="#e39854"/>
    <path id="Trazado_102124" data-name="Trazado 102124" d="M250.111,1538.094a9.813,9.813,0,0,0,0-19.626,9.714,9.714,0,0,0-2.49.359c.005-.123.037-.236.037-.359a12.266,12.266,0,0,0-24.532,0c0,.123.032.236.037.359a9.715,9.715,0,0,0-2.491-.359,9.813,9.813,0,0,0,0,19.626Z" transform="translate(0 0)" fill="#8bd2f5"/>
    <path id="Trazado_102125" data-name="Trazado 102125" d="M324.528,1538.094a9.813,9.813,0,0,0,0-19.626,9.714,9.714,0,0,0-2.49.359c.005-.123.037-.236.037-.359a12.266,12.266,0,0,0-24.532,0c0,.123.032.236.037.359a9.8,9.8,0,1,0-2.491,19.268Z" transform="translate(23.711 0)" fill="#8bd2f5"/>
    <path id="Trazado_102126" data-name="Trazado 102126" d="M210.861,1614.107H358.053v4.907H210.861Z" transform="translate(0 34.382)" fill="#857970"/>
  </g>
</svg>
