<svg xmlns="http://www.w3.org/2000/svg" width="376.47" height="252.045" viewBox="0 0 376.47 252.045">
  <g id="Grupo_70049" data-name="Grupo 70049" transform="translate(-861.456 -927.132)">
    <g id="Grupo_70046" data-name="Grupo 70046" transform="translate(861.456 1039.758)">
      <g id="Grupo_70043" data-name="Grupo 70043" transform="translate(118.06 16.818)">
        <g id="Grupo_70041" data-name="Grupo 70041" transform="translate(40.024)">
          <path id="Trazado_102127" data-name="Trazado 102127" d="M908.75,1025.335h10.707c1.774-3.169,4.172-6.164,6.012-8.863,5.753-8.452,11.225-16.982,16.982-25.443,2.278-3.327,10.984-20.43,9.542-26.825a3.941,3.941,0,0,0-.291-.864c-.887-1.9-3.193-2.269-7.7.055-10.541,5.43-20.06,21.747-24.6,32.162A286.21,286.21,0,0,0,908.75,1025.335Z" transform="translate(-848.289 -931.111)" fill="#9adbc4"/>
          <path id="Trazado_102128" data-name="Trazado 102128" d="M907.022,1049h6.529c1-5,3.559-10.148,5.111-14.6,3.586-10.328,7.431-20.666,12.5-30.365,6.252-11.955,12.324-23.419,13.507-37.2.4-4.575.291-9.681-2.153-11.215a2.671,2.671,0,0,0-.652-.319c-1.317-.425-3.184-.009-5.767,1.664-7.888,5.115-11.21,19.2-13.914,27.43-2.694,8.294-4.9,16.635-6.89,25.115-2.842,12.14-4.708,24.588-7.606,36.243C907.4,1046.887,907.212,1047.964,907.022,1049Z" transform="translate(-854.547 -955.144)" fill="#9adbc4"/>
          <path id="Trazado_102129" data-name="Trazado 102129" d="M896.031,978.656c1.932,8.706,11.017,13.507,15.711,20.651h10.434c-1.1-9.819-5.143-20.235-12.1-26.977-2.953-2.861-6.659-4.025-9.57-3.406-.268.056-.522.134-.786.212C896.733,970.158,894.829,973.295,896.031,978.656Z" transform="translate(-895.666 -905.836)" fill="#9adbc4"/>
          <path id="Trazado_102130" data-name="Trazado 102130" d="M902.052,1004.359v15.711h9.8c2.588-10.688,3.554-22.657,4.94-33.183.739-5.666,4.921-27.038-7.306-23.585a7.229,7.229,0,0,0-.869.314,6.552,6.552,0,0,0-.758.388C898.877,969.456,902.052,996.276,902.052,1004.359Z" transform="translate(-874.516 -926.968)" fill="#9adbc4"/>
          <path id="Trazado_102131" data-name="Trazado 102131" d="M904.646,1032H913.7c1.183-4.334,1.779-9.459,2.823-13.6,2.246-8.96,5.079-17.846,7.311-26.839a97.5,97.5,0,0,0,3.374-24.172c.014-4.348-1.423-7.379-3.808-7.629a3.568,3.568,0,0,0-.855.014c-1.4.222-3.045,1.28-4.894,3.406-9.1,10.531-9.584,29.935-10.8,43.1C906.074,1014.6,904.905,1023.551,904.646,1032Z" transform="translate(-863.15 -938.527)" fill="#9adbc4"/>
          <path id="Trazado_102132" data-name="Trazado 102132" d="M902.787,1019.53h.823c3.294-18.7,4.9-38.127.369-56.455a6.552,6.552,0,0,0-.758.388C907.662,981.67,906.059,1000.963,902.787,1019.53Z" transform="translate(-869.882 -926.428)" fill="#fff"/>
          <path id="Trazado_102133" data-name="Trazado 102133" d="M896.543,969.01c2.135,2.223,4.136,4.561,6.021,6.945,5.383,6.83,10.434,14.676,12.634,23.225h.869c-2.158-8.664-7.25-16.687-12.745-23.516-1.89-2.352-3.891-4.658-5.994-6.867C897.061,968.853,896.806,968.931,896.543,969.01Z" transform="translate(-892.49 -905.709)" fill="#fff"/>
          <path id="Trazado_102134" data-name="Trazado 102134" d="M905.516,1032h.851c3.613-24.279,7.541-48.5,13.886-72.245a3.568,3.568,0,0,0-.855.014C913.062,983.5,909.125,1007.719,905.516,1032Z" transform="translate(-859.999 -938.527)" fill="#fff"/>
          <path id="Trazado_102135" data-name="Trazado 102135" d="M907.727,1048.878h.832a350.085,350.085,0,0,1,7.19-36.667c5.129-19.949,12.421-39.713,24.209-56.713a2.671,2.671,0,0,0-.652-.319c-11.723,16.816-19.1,36.422-24.182,56.163A359.953,359.953,0,0,0,907.727,1048.878Z" transform="translate(-851.994 -955.023)" fill="#fff"/>
          <path id="Trazado_102136" data-name="Trazado 102136" d="M909.539,1024.114h.887c12.662-41.889,29.339-56.228,38.71-61.13a3.941,3.941,0,0,0-.291-.864,43.759,43.759,0,0,0-9.778,7.01C930.708,976.874,919.021,992.631,909.539,1024.114Z" transform="translate(-845.432 -929.89)" fill="#fff"/>
        </g>
        <g id="Grupo_70042" data-name="Grupo 70042" transform="translate(103.955 13.865)">
          <path id="Trazado_102137" data-name="Trazado 102137" d="M922.584,1028.334h10.7c1.774-3.17,4.178-6.165,6.017-8.863,5.749-8.452,11.22-16.982,16.987-25.443,2.269-3.327,10.979-20.429,9.542-26.825a4.291,4.291,0,0,0-.3-.864c-.883-1.895-3.188-2.269-7.7.056-10.536,5.43-20.055,21.746-24.6,32.162A283.933,283.933,0,0,0,922.584,1028.334Z" transform="translate(-862.128 -934.112)" fill="#9adbc4"/>
          <path id="Trazado_102138" data-name="Trazado 102138" d="M920.856,1052h6.529c1-5,3.558-10.148,5.111-14.6,3.586-10.328,7.43-20.665,12.49-30.365,6.252-11.954,12.329-23.414,13.512-37.2.407-4.575.291-9.681-2.154-11.215a2.377,2.377,0,0,0-.656-.314c-1.312-.43-3.179-.014-5.762,1.659-7.888,5.116-11.21,19.2-13.914,27.435-2.694,8.29-4.908,16.631-6.89,25.111-2.842,12.139-4.709,24.588-7.606,36.242C921.24,1049.886,921.045,1050.962,920.856,1052Z" transform="translate(-868.385 -958.145)" fill="#9adbc4"/>
          <path id="Trazado_102139" data-name="Trazado 102139" d="M909.866,981.656c1.927,8.706,11.012,13.507,15.707,20.651h10.434c-1.1-9.82-5.143-20.236-12.1-26.978-2.953-2.855-6.659-4.025-9.57-3.406-.268.056-.527.134-.786.213C910.564,973.162,908.665,976.3,909.866,981.656Z" transform="translate(-909.501 -908.838)" fill="#9adbc4"/>
          <path id="Trazado_102140" data-name="Trazado 102140" d="M915.886,1007.358v15.711h9.787c2.6-10.684,3.563-22.652,4.949-33.183.739-5.665,4.921-27.037-7.306-23.585a7.406,7.406,0,0,0-.869.314,6.149,6.149,0,0,0-.758.388C912.711,972.456,915.886,999.281,915.886,1007.358Z" transform="translate(-888.354 -929.97)" fill="#9adbc4"/>
          <path id="Trazado_102141" data-name="Trazado 102141" d="M918.48,1035h9.057c1.183-4.334,1.779-9.459,2.819-13.6,2.246-8.956,5.078-17.851,7.315-26.838a97.471,97.471,0,0,0,3.373-24.168c.014-4.353-1.428-7.384-3.812-7.629a3.252,3.252,0,0,0-.851.009c-1.4.222-3.05,1.28-4.894,3.4-9.112,10.531-9.584,29.939-10.809,43.109C919.908,1017.6,918.739,1026.551,918.48,1035Z" transform="translate(-876.988 -941.529)" fill="#9adbc4"/>
          <path id="Trazado_102142" data-name="Trazado 102142" d="M916.621,1022.53h.823c3.295-18.7,4.9-38.127.37-56.454a6.149,6.149,0,0,0-.758.388C921.487,984.67,919.893,1003.968,916.621,1022.53Z" transform="translate(-883.719 -929.431)" fill="#fff"/>
          <path id="Trazado_102143" data-name="Trazado 102143" d="M910.377,972.01c2.13,2.227,4.136,4.561,6.026,6.945,5.383,6.834,10.429,14.676,12.629,23.225h.869c-2.167-8.665-7.25-16.682-12.749-23.516-1.881-2.348-3.886-4.654-5.989-6.867C910.895,971.853,910.636,971.931,910.377,972.01Z" transform="translate(-906.329 -908.711)" fill="#fff"/>
          <path id="Trazado_102144" data-name="Trazado 102144" d="M919.35,1035h.846c3.614-24.279,7.546-48.5,13.886-72.24a3.252,3.252,0,0,0-.851.009C926.892,986.5,922.959,1010.719,919.35,1035Z" transform="translate(-873.838 -941.529)" fill="#fff"/>
          <path id="Trazado_102145" data-name="Trazado 102145" d="M921.561,1051.874h.832a348.83,348.83,0,0,1,7.19-36.667c5.129-19.949,12.421-39.712,24.209-56.713a2.377,2.377,0,0,0-.656-.314c-11.719,16.811-19.094,36.418-24.181,56.163A360.768,360.768,0,0,0,921.561,1051.874Z" transform="translate(-865.832 -958.022)" fill="#fff"/>
          <path id="Trazado_102146" data-name="Trazado 102146" d="M923.372,1027.114h.892c12.662-41.889,29.338-56.228,38.714-61.131a4.291,4.291,0,0,0-.3-.864,43.6,43.6,0,0,0-9.778,7.015C944.541,979.874,932.864,995.631,923.372,1027.114Z" transform="translate(-859.274 -932.892)" fill="#fff"/>
        </g>
        <path id="Trazado_102147" data-name="Trazado 102147" d="M1046.768,1004.752c-3.7-10.328-19.907-.822-26.289,1.719,5.582-3.336,20.092-16.317,13.627-24.154-6.127-7.472-19.944,2.444-28.124,9.787,6.862-7.579,14.986-19.686,6.04-21.326-8.577-1.581-23.068,9.653-29.575,19.315,4.538-10.619,9.833-26.958-3.946-17.994-3.447,2.246-8.5,8.355-12.8,15.568,1.908-6.687,1.571-12.555-5.434-13.23-10.878-1.049-22.62,18.867-25.8,31.973-.245-2.093-1.137-3.152-2.458-3-3.97.314-5.61,5.43-5.948,9.182-1.335-3.405-1.9-13.507-9.094-11.007-6.326,2.2-4.6,11.6-4.529,16.668-3.706-4.191-21.339-16.7-25.161-6.594-1.959,5.217,7,10.3,13.262,14.071h17l.176-.037,48.344-.116c.287.056.578.1.869.153h63.6C1036.546,1022.095,1049.6,1012.6,1046.768,1004.752Z" transform="translate(-887.005 -903.13)" fill="#81c9b1"/>
        <path id="Trazado_102148" data-name="Trazado 102148" d="M1035.366,1006.714H930.234c-2.606-6.552-15.693-11.317-13.253-17.7,3.128-8.226,15.776-1.026,18.3,3.563-.18-4.053-.375-14.312,4.524-16.317,6.83-2.8,5.314,10.476,5.494,14.871,1.673-5.878,7.01-16.34,14.122-16.474,1.839,5.263,1.127,11.839.148,17.195.661-4.261,10.656-15.61,15.957-13.53,3.623,1.428,3.294,10.018,1.562,14.223,5.143-7.532,24.515-17.744,31.908-12.477,7.246,5.162-5.046,13.766-9.117,17.07,4.787-3.258,15.346-11.053,21.446-6.622,5.7,4.14,1.243,8.211-3.808,9.962,4.607-.355,17.55-4.949,20.138.707C1038.587,1003.229,1037.279,1005.143,1035.366,1006.714Z" transform="translate(-779.552 -884.487)" fill="#81c9b1"/>
      </g>
      <g id="Grupo_70045" data-name="Grupo 70045">
        <g id="Grupo_70044" data-name="Grupo 70044" transform="translate(69.65)">
          <path id="Trazado_102149" data-name="Trazado 102149" d="M921.229,1007.073c-6.155-14.307-19.1-36.732-33.511-44.246-6.164-3.216-9.325-2.722-10.554-.125a6.332,6.332,0,0,0-.407,1.183c-2.01,8.757,9.82,32.259,12.9,36.833,7.851,11.636,15.3,23.364,23.128,34.981,2.491,3.71,5.767,7.842,8.184,12.195l14.667.069C931.59,1034.619,926.987,1020.427,921.229,1007.073Z" transform="translate(-876.529 -918.637)" fill="#9adbc4"/>
          <path id="Trazado_102150" data-name="Trazado 102150" d="M930.992,1075.92c-3.9-15.993-6.372-33.073-10.2-49.726-2.652-11.641-5.628-23.087-9.265-34.478-3.655-11.3-8.114-30.628-18.9-37.688-3.53-2.311-6.085-2.893-7.888-2.315a3.5,3.5,0,0,0-.9.425c-3.364,2.1-3.553,9.089-3.036,15.36,1.53,18.909,9.787,34.662,18.281,51.089,6.881,13.327,12.079,27.522,16.927,41.7,2.1,6.114,5.573,13.188,6.908,20.046l8.956.042C931.625,1078.956,931.371,1077.473,930.992,1075.92Z" transform="translate(-861.819 -951.505)" fill="#9adbc4"/>
          <path id="Trazado_102151" data-name="Trazado 102151" d="M930.365,970.814c-.356-.111-.707-.222-1.077-.3-3.993-.864-9.08.712-13.133,4.607-9.593,9.2-15.208,23.447-16.76,36.908l14.292.064c6.483-9.764,18.96-16.284,21.664-28.207C937.038,976.544,934.459,972.233,930.365,970.814Z" transform="translate(-793.73 -883.51)" fill="#9adbc4"/>
          <path id="Trazado_102152" data-name="Trazado 102152" d="M908.481,963.748a10.132,10.132,0,0,0-2.232-.979c-16.742-4.806-11.146,24.519-10.166,32.287,1.83,14.44,3.073,30.85,6.562,45.517l13.415.065.106-21.534C916.212,1008.026,920.745,971.28,908.481,963.748Z" transform="translate(-811.813 -912.636)" fill="#9adbc4"/>
          <path id="Trazado_102153" data-name="Trazado 102153" d="M916.006,1021.739c-1.594-18.059-2.112-44.666-14.538-59.158-2.509-2.925-4.764-4.385-6.677-4.7a4.706,4.706,0,0,0-1.169-.023c-3.268.323-5.259,4.473-5.277,10.434-.019,11.6,1.714,21.9,4.468,33.155,3,12.343,6.83,24.542,9.852,36.834,1.409,5.688,2.19,12.717,3.775,18.673l12.421.055C918.556,1045.427,917.018,1033.158,916.006,1021.739Z" transform="translate(-833.746 -928.594)" fill="#9adbc4"/>
          <path id="Trazado_102154" data-name="Trazado 102154" d="M901.615,1039.841l-1.128,0c-4.39-25.655-6.464-52.3-.138-77.387a8.978,8.978,0,0,1,1.049.541C895.187,987.916,897.253,1014.375,901.615,1039.841Z" transform="translate(-804.729 -911.878)" fill="#fff"/>
          <path id="Trazado_102155" data-name="Trazado 102155" d="M927.219,970.633c-2.943,3.036-5.7,6.225-8.3,9.478-7.417,9.334-14.39,20.051-17.458,31.76l-1.192,0c3.013-11.866,10.046-22.828,17.625-32.162,2.606-3.2,5.36-6.349,8.253-9.372C926.511,970.412,926.863,970.522,927.219,970.633Z" transform="translate(-790.584 -883.33)" fill="#fff"/>
          <path id="Trazado_102156" data-name="Trazado 102156" d="M909.208,1056.988l-1.155-.009c-4.806-33.308-10.042-66.533-18.567-99.12a4.706,4.706,0,0,1,1.169.023C899.186,990.455,904.426,1023.676,909.208,1056.988Z" transform="translate(-829.61 -928.594)" fill="#fff"/>
          <path id="Trazado_102157" data-name="Trazado 102157" d="M924.867,1080.194l-1.142,0a481.266,481.266,0,0,0-9.621-50.313c-6.895-27.375-16.76-54.518-32.809-77.9a3.5,3.5,0,0,1,.9-.425c15.956,23.124,25.933,50.05,32.776,77.143A494.268,494.268,0,0,1,924.867,1080.194Z" transform="translate(-859.27 -951.342)" fill="#fff"/>
          <path id="Trazado_102158" data-name="Trazado 102158" d="M930.468,1046.28l-1.22,0c-17.084-57.508-39.856-77.272-52.67-84.051a6.332,6.332,0,0,1,.407-1.183,59.959,59.959,0,0,1,13.359,9.676C901.753,981.383,917.668,1003.06,930.468,1046.28Z" transform="translate(-876.35 -916.976)" fill="#fff"/>
        </g>
        <path id="Trazado_102159" data-name="Trazado 102159" d="M1047.076,1036.089c3.41-4.852,9.76-12.606,2.121-17.578-6.34-4.117-15.684,1.534-20.438,5.157,3.733-7.606,25.027-20.6,13.2-30.808-5.786-5-24.256-1.207-31.247.037-6.132,1.1-13.59,2.966-17.786,7.846a6.39,6.39,0,0,0-4.011-8.193c-4.9-1.7-10.8,4.464-13.979,7.356,1.664-14.339-11.95-16.9-15.314-2.916-2.1-4.066-.545-17.254-6.543-18.229-6.788-1.114-11.917,12.55-11.465,17.92-5.337-8.036-12.246-31.122-24.2-31.021-13.549.106-11.012,23.253-7.708,31.256-2.028-3.05-9.76-13.96-15.928-10.083-6.53,4.122.656,18.327,3.757,23.313-2.851-3.785-5.185-9.274-9.344-11.922-2.5-1.58-11.451-4.93-14.122-1.433-3.415,4.464,7.269,16.982,13.627,26.677-6.843-3.124-15.152-7.916-23.035,2.125-3.854,4.88-3.909,9.334-1.9,13.151l194.77.924C1058.647,1033.353,1056.688,1030.96,1047.076,1036.089Z" transform="translate(-861.456 -900.251)" fill="#81c9b1"/>
      </g>
    </g>
    <g id="Grupo_70048" data-name="Grupo 70048" transform="translate(970.52 927.132)">
      <path id="Trazado_102160" data-name="Trazado 102160" d="M1050.434,949.746c-51.764-36.183-111.509-18.091-111.509-18.091l-.508.4C904.263,940.268,885.058,967,885.058,967l8.974,198.614h138.019l5.61-201.78Z" transform="translate(-885.058 -927.132)" fill="#4d3c4b"/>
      <path id="Trazado_102161" data-name="Trazado 102161" d="M900.836,1163.621l-8.979-198.614s57.231-79.67,149.771-6.211a31.215,31.215,0,0,1,2.842,2.847l-12.343,201.979Z" transform="translate(-860.439 -925.138)" fill="#897a88"/>
      <g id="Grupo_70047" data-name="Grupo 70047" transform="translate(81.912 58.466)">
        <rect id="Rect치ngulo_5540" data-name="Rect치ngulo 5540" width="14.671" height="79.509" transform="translate(20.073)" fill="#5b4f5a"/>
        <rect id="Rect치ngulo_5541" data-name="Rect치ngulo 5541" width="54.427" height="14.684" transform="translate(0 24.305)" fill="#5b4f5a"/>
      </g>
    </g>
    <path id="Trazado_102162" data-name="Trazado 102162" d="M883.3,1016.611c4.025-22.195,29.172-32.832,47.67-26.09,9.122,3.327,15.383,6.7,25.073,4.769,14.237-2.851,24.99-13.932,38.132-19.357,14.663-6.035,27.421-4.981,41.464,2.528,11.534,6.173,21.576,17.953,34.167,20.2,17.463,3.105,33.937-4.089,43.525,17.953Z" transform="translate(79.111 162.567)" fill="#b57878"/>
  </g>
</svg>
