<svg xmlns="http://www.w3.org/2000/svg" width="299.102" height="244.468" viewBox="0 0 299.102 244.468">
  <g id="Grupo_70182" data-name="Grupo 70182" transform="translate(-117.127 -1752.793)">
    <g id="Grupo_70051" data-name="Grupo 70051">
      <path id="Trazado_102163" data-name="Trazado 102163" d="M358.124,1881.618l-81.949-47.313c-5.224-3.015-13.772-3.015-18.993,0l-81.949,47.313-58.1.245V1911h.006c.036,1.957,1.333,3.911,3.909,5.4L257.182,1995c5.221,3.014,13.772,3.014,18.993,0l136.136-78.6c2.574-1.487,3.874-3.438,3.91-5.4l.006-29.386Z" fill="#603913"/>
      <path id="Trazado_102164" data-name="Trazado 102164" d="M416.227,1881.863l-1.924,11.691-1.671-2.386v2.386l-2.623-1.433-1.669,5.963-2.384-3.577-2.146,5.008-3.339-2.492-1.668,8.691-3.34-2.82-1.19,4.6-2.862-2.26-.955,7.238-4.769-6.284-1.191,7.165-3.1-3.3-1.191,3.3-2.626-.881-1.906,5.23-2.146-4.349-2.862,6.943-2.384-3.646-4.054,8.376-2.384-3.421-1.431,5.091-2.623-2.623v6.2l-4.769-3.816v5.485l-4.532-3.1v6.438l-5.809-3.339-1.007,5.961-2.48-2.623-1.644,5.245-2.293-2.146-2.071,3.576-3.231-3.338-1.636,7.393-3.417-3.577-2.392,6.915-2.873-3.814-2.085,6.438-3.161-3.815-3.577,7.869-2.386-5.247-1.669,8.346-3.814-3.814-2.624,7.868-4.292-4.769v4.769h-6.915v4.054l-3.815-2.384v6.915l-3.577-3.594-2.384,5.741-3.816-4.054-2.861,4.054-2.861-1.908-2.146,5.007-2.626-6.2-5.005,5.008-2.862-6.2-2.623,2.623-3.579-6.438-4.769,3.339-1.906-7.391-1.43,3.337-3.579-7.153-3.1,4.53-3.339-6.438-2.146,2.384-1.909-7.154-3.576,4.292-1.431-5.962-3.814,4.055-1.669-6.44-2.623,3.1-2.146-6.678-3.1,3.816v-6.438l-4.532,4.292-1.908-6.438-3.576,4.532-1.669-7.154-2.623,2.384-3.815-6.439-2.384,4.532v-7.276l-4.53,3.937-1.671-6.915-2.861,4.292-2.146-6.2-3.577,3.577-1.431-6.522-3.1,4.136-1.669-5.444-2.386,3.3-1.906-8.355-3.1,5.056v-6l-5.007,2.354v-4.178l-4.054.881-4.292-5.86-1.908,4.978-3.576-7.953-3.34,4.054-1.908-7.391L134.114,1905l-1.669-7.976-2.146,4.162-2.861-6.439-2.146,5.247-1.908-7.631-3.34,3.462-2.829-13.11,299.012-.85Z" fill="#a59386"/>
      <path id="Trazado_102165" data-name="Trazado 102165" d="M276.175,1965.91c-5.221,3.015-13.772,3.015-18.993,0l-136.136-78.6c-5.225-3.015-5.225-7.95,0-10.965l136.136-78.6c5.221-3.015,13.769-3.015,18.993,0l136.136,78.6c5.225,3.016,5.225,7.95,0,10.966Z" fill="#e4cbb7"/>
    </g>
    <g id="Grupo_70109" data-name="Grupo 70109">
      <g id="Grupo_70052" data-name="Grupo 70052">
        <path id="Trazado_102166" data-name="Trazado 102166" d="M159.875,1848.368l-34.166,19.7.825,1.43,34.167-19.7a.417.417,0,0,0,.171-.38,1.3,1.3,0,0,0-.581-1.01A.413.413,0,0,0,159.875,1848.368Z" fill="#121214"/>
        <path id="Trazado_102167" data-name="Trazado 102167" d="M126.121,1868.109a1.286,1.286,0,0,1,.583,1.01c0,.372-.261.522-.582.334a1.285,1.285,0,0,1-.581-1.008C125.539,1868.073,125.8,1867.923,126.121,1868.109Z" fill="#303033"/>
      </g>
      <g id="Grupo_70053" data-name="Grupo 70053">
        <path id="Trazado_102168" data-name="Trazado 102168" d="M130.269,1866.116l.013-11.629h-.9l-.012,11.629a.226.226,0,0,0,.132.186.7.7,0,0,0,.638,0A.224.224,0,0,0,130.269,1866.116Z" fill="#121214"/>
        <path id="Trazado_102169" data-name="Trazado 102169" d="M130.148,1854.67a.7.7,0,0,1-.637,0,.193.193,0,0,1,0-.366.7.7,0,0,1,.637,0A.193.193,0,0,1,130.148,1854.67Z" fill="#303033"/>
      </g>
      <g id="Grupo_70054" data-name="Grupo 70054">
        <path id="Trazado_102170" data-name="Trazado 102170" d="M136.975,1862.245l.012-11.631h-.9l-.014,11.631a.225.225,0,0,0,.135.186.7.7,0,0,0,.637,0A.227.227,0,0,0,136.975,1862.245Z" fill="#121214"/>
        <path id="Trazado_102171" data-name="Trazado 102171" d="M136.855,1850.8a.707.707,0,0,1-.638,0,.193.193,0,0,1,0-.367.709.709,0,0,1,.638,0A.194.194,0,0,1,136.855,1850.8Z" fill="#303033"/>
      </g>
      <g id="Grupo_70055" data-name="Grupo 70055">
        <path id="Trazado_102172" data-name="Trazado 102172" d="M143.68,1858.374l.012-11.629h-.9l-.014,11.629a.226.226,0,0,0,.134.186.7.7,0,0,0,.638,0A.227.227,0,0,0,143.68,1858.374Z" fill="#121214"/>
        <path id="Trazado_102173" data-name="Trazado 102173" d="M143.56,1846.928a.7.7,0,0,1-.638,0,.193.193,0,0,1,0-.366.7.7,0,0,1,.638,0C143.737,1846.661,143.735,1846.826,143.56,1846.928Z" fill="#303033"/>
      </g>
      <g id="Grupo_70056" data-name="Grupo 70056">
        <path id="Trazado_102174" data-name="Trazado 102174" d="M150.385,1854.5l.015-11.631h-.9l-.012,11.631a.222.222,0,0,0,.132.185.71.71,0,0,0,.638,0A.226.226,0,0,0,150.385,1854.5Z" fill="#121214"/>
        <path id="Trazado_102175" data-name="Trazado 102175" d="M150.265,1843.055a.7.7,0,0,1-.637,0,.193.193,0,0,1,0-.365.7.7,0,0,1,.637,0A.192.192,0,0,1,150.265,1843.055Z" fill="#303033"/>
      </g>
      <g id="Grupo_70057" data-name="Grupo 70057">
        <path id="Trazado_102176" data-name="Trazado 102176" d="M157.093,1850.632,157.1,1839h-.9l-.014,11.63a.227.227,0,0,0,.134.185.714.714,0,0,0,.637,0A.226.226,0,0,0,157.093,1850.632Z" fill="#121214"/>
        <path id="Trazado_102177" data-name="Trazado 102177" d="M156.971,1839.186a.7.7,0,0,1-.637,0c-.177-.1-.177-.267,0-.367a.7.7,0,0,1,.637,0A.2.2,0,0,1,156.971,1839.186Z" fill="#303033"/>
      </g>
      <g id="Grupo_70058" data-name="Grupo 70058">
        <path id="Trazado_102178" data-name="Trazado 102178" d="M159.875,1835.726l-34.166,19.7.825,1.43,34.167-19.7a.411.411,0,0,0,.171-.378,1.294,1.294,0,0,0-.581-1.01A.413.413,0,0,0,159.875,1835.726Z" fill="#121214"/>
        <path id="Trazado_102179" data-name="Trazado 102179" d="M126.121,1855.467a1.286,1.286,0,0,1,.583,1.01c0,.372-.261.521-.582.334a1.287,1.287,0,0,1-.581-1.008C125.539,1855.431,125.8,1855.281,126.121,1855.467Z" fill="#303033"/>
      </g>
      <g id="Grupo_70064" data-name="Grupo 70064">
        <g id="Grupo_70059" data-name="Grupo 70059">
          <path id="Trazado_102180" data-name="Trazado 102180" d="M126.991,1877.55v-.837h-2.9v.837a.721.721,0,0,0,.426.594,2.265,2.265,0,0,0,2.05,0A.714.714,0,0,0,126.991,1877.55Z" fill="#121214"/>
          <path id="Trazado_102181" data-name="Trazado 102181" d="M126.569,1877.3a2.24,2.24,0,0,1-2.05,0,.622.622,0,0,1,0-1.181,2.271,2.271,0,0,1,2.05,0A.624.624,0,0,1,126.569,1877.3Z" fill="#535359"/>
        </g>
        <g id="Grupo_70060" data-name="Grupo 70060">
          <path id="Trazado_102182" data-name="Trazado 102182" d="M126.734,1876.678v-23.469h-2.382v23.469a.6.6,0,0,0,.35.489,1.845,1.845,0,0,0,1.681,0A.6.6,0,0,0,126.734,1876.678Z" fill="#121214"/>
          <path id="Trazado_102183" data-name="Trazado 102183" d="M126.383,1853.693a1.851,1.851,0,0,1-1.681,0,.511.511,0,0,1,0-.969,1.851,1.851,0,0,1,1.681,0A.511.511,0,0,1,126.383,1853.693Z" fill="#24d2c1"/>
        </g>
        <g id="Grupo_70061" data-name="Grupo 70061">
          <path id="Trazado_102184" data-name="Trazado 102184" d="M127.228,1853.483v-.98h-3.372v.98a.845.845,0,0,0,.493.689,2.631,2.631,0,0,0,2.385,0A.845.845,0,0,0,127.228,1853.483Z" fill="#303033"/>
          <path id="Trazado_102185" data-name="Trazado 102185" d="M126.734,1853.2a2.649,2.649,0,0,1-2.385,0,.728.728,0,0,1,0-1.379,2.637,2.637,0,0,1,2.385,0A.728.728,0,0,1,126.734,1853.2Z" fill="#535359"/>
        </g>
        <g id="Grupo_70062" data-name="Grupo 70062">
          <path id="Trazado_102186" data-name="Trazado 102186" d="M126.75,1852.506v-2.833h-2.42v2.833a.609.609,0,0,0,.354.5,1.9,1.9,0,0,0,1.714,0A.6.6,0,0,0,126.75,1852.506Z" fill="#303033"/>
          <path id="Trazado_102187" data-name="Trazado 102187" d="M126.4,1850.171a1.908,1.908,0,0,1-1.714,0,.521.521,0,0,1,0-.986,1.865,1.865,0,0,1,1.714,0A.521.521,0,0,1,126.4,1850.171Z" fill="#24d2c1"/>
        </g>
        <g id="Grupo_70063" data-name="Grupo 70063">
          <path id="Trazado_102188" data-name="Trazado 102188" d="M127.576,1849.056a4.364,4.364,0,0,0-1.974-3.417,1.417,1.417,0,0,0-1.326-.171l0,0-.034.021-.061.033-.61.348.155.264a2.1,2.1,0,0,0-.094.647,4.356,4.356,0,0,0,1.972,3.417,1.945,1.945,0,0,0,.685.252l.129.217s.617-.354.671-.393l.014-.01h0A1.457,1.457,0,0,0,127.576,1849.056Z" fill="#121214"/>
          <path id="Trazado_102189" data-name="Trazado 102189" d="M126.945,1849.418c0,1.259-.881,1.769-1.974,1.141a4.369,4.369,0,0,1-1.972-3.418c0-1.259.884-1.769,1.972-1.139A4.351,4.351,0,0,1,126.945,1849.418Z" fill="#303033"/>
        </g>
        <path id="Trazado_102190" data-name="Trazado 102190" d="M125.261,1835.307c-.7-.407-.715,10.064-.715,10.064l2.107,1.218S125.963,1835.712,125.261,1835.307Z" fill="#121214"/>
        <path id="Trazado_102191" data-name="Trazado 102191" d="M125.261,1835.307c-.7-.407-1.342,10.425-1.342,10.425l2.109,1.217S125.963,1835.712,125.261,1835.307Z" fill="#303033"/>
      </g>
      <g id="Grupo_70065" data-name="Grupo 70065">
        <path id="Trazado_102192" data-name="Trazado 102192" d="M165.44,1845.819l.013-11.631h-.9l-.014,11.631a.224.224,0,0,0,.134.184.7.7,0,0,0,.638,0A.227.227,0,0,0,165.44,1845.819Z" fill="#121214"/>
        <path id="Trazado_102193" data-name="Trazado 102193" d="M165.32,1834.372a.7.7,0,0,1-.638,0c-.177-.1-.177-.266,0-.365a.694.694,0,0,1,.638,0A.194.194,0,0,1,165.32,1834.372Z" fill="#303033"/>
      </g>
      <g id="Grupo_70066" data-name="Grupo 70066">
        <path id="Trazado_102194" data-name="Trazado 102194" d="M172.146,1841.946l.014-11.629h-.9l-.012,11.629a.228.228,0,0,0,.131.186.705.705,0,0,0,.639,0A.226.226,0,0,0,172.146,1841.946Z" fill="#121214"/>
        <path id="Trazado_102195" data-name="Trazado 102195" d="M172.025,1830.5a.7.7,0,0,1-.637,0c-.177-.1-.176-.264,0-.366a.7.7,0,0,1,.637,0A.192.192,0,0,1,172.025,1830.5Z" fill="#303033"/>
      </g>
      <g id="Grupo_70067" data-name="Grupo 70067">
        <path id="Trazado_102196" data-name="Trazado 102196" d="M178.852,1838.075l.013-11.63h-.906l-.012,11.63a.225.225,0,0,0,.134.185.7.7,0,0,0,.638,0A.225.225,0,0,0,178.852,1838.075Z" fill="#121214"/>
        <path id="Trazado_102197" data-name="Trazado 102197" d="M178.733,1826.629a.708.708,0,0,1-.64,0,.194.194,0,0,1,0-.367.714.714,0,0,1,.64,0A.194.194,0,0,1,178.733,1826.629Z" fill="#303033"/>
      </g>
      <g id="Grupo_70068" data-name="Grupo 70068">
        <path id="Trazado_102198" data-name="Trazado 102198" d="M185.557,1834.2l.012-11.63h-.9l-.015,11.63a.224.224,0,0,0,.135.184.7.7,0,0,0,.637,0A.224.224,0,0,0,185.557,1834.2Z" fill="#121214"/>
        <path id="Trazado_102199" data-name="Trazado 102199" d="M185.437,1822.758a.7.7,0,0,1-.638,0,.193.193,0,0,1,0-.367.709.709,0,0,1,.638,0A.194.194,0,0,1,185.437,1822.758Z" fill="#303033"/>
      </g>
      <g id="Grupo_70069" data-name="Grupo 70069">
        <path id="Trazado_102200" data-name="Trazado 102200" d="M192.262,1830.332l.015-11.629h-.9l-.012,11.629a.222.222,0,0,0,.132.186.7.7,0,0,0,.638,0A.226.226,0,0,0,192.262,1830.332Z" fill="#121214"/>
        <path id="Trazado_102201" data-name="Trazado 102201" d="M192.142,1818.886a.7.7,0,0,1-.638,0,.193.193,0,0,1,0-.366.706.706,0,0,1,.638,0A.193.193,0,0,1,192.142,1818.886Z" fill="#303033"/>
      </g>
      <g id="Grupo_70070" data-name="Grupo 70070">
        <path id="Trazado_102202" data-name="Trazado 102202" d="M195.046,1828.069l-34.165,19.7.824,1.429,34.167-19.7a.41.41,0,0,0,.173-.379,1.292,1.292,0,0,0-.585-1.009A.413.413,0,0,0,195.046,1828.069Z" fill="#121214"/>
        <path id="Trazado_102203" data-name="Trazado 102203" d="M161.292,1847.81a1.284,1.284,0,0,1,.583,1.011c0,.371-.26.523-.58.334a1.276,1.276,0,0,1-.583-1.009C160.71,1847.776,160.971,1847.623,161.292,1847.81Z" fill="#303033"/>
      </g>
      <g id="Grupo_70071" data-name="Grupo 70071">
        <path id="Trazado_102204" data-name="Trazado 102204" d="M195.046,1815.427l-34.165,19.7.824,1.428,34.167-19.7a.416.416,0,0,0,.173-.381,1.29,1.29,0,0,0-.585-1.007A.408.408,0,0,0,195.046,1815.427Z" fill="#121214"/>
        <path id="Trazado_102205" data-name="Trazado 102205" d="M161.292,1835.168a1.279,1.279,0,0,1,.583,1.009c0,.371-.26.524-.58.335a1.276,1.276,0,0,1-.583-1.01C160.71,1835.132,160.971,1834.981,161.292,1835.168Z" fill="#303033"/>
      </g>
      <g id="Grupo_70077" data-name="Grupo 70077">
        <g id="Grupo_70072" data-name="Grupo 70072">
          <path id="Trazado_102206" data-name="Trazado 102206" d="M162.164,1857.252v-.838h-2.9v.838a.718.718,0,0,0,.426.593,2.26,2.26,0,0,0,2.048,0A.718.718,0,0,0,162.164,1857.252Z" fill="#121214"/>
          <path id="Trazado_102207" data-name="Trazado 102207" d="M161.738,1857a2.26,2.26,0,0,1-2.048,0,.622.622,0,0,1,0-1.18,2.254,2.254,0,0,1,2.048,0A.622.622,0,0,1,161.738,1857Z" fill="#535359"/>
        </g>
        <g id="Grupo_70073" data-name="Grupo 70073">
          <path id="Trazado_102208" data-name="Trazado 102208" d="M161.9,1856.381V1832.91h-2.38v23.471a.591.591,0,0,0,.35.487,1.862,1.862,0,0,0,1.683,0A.593.593,0,0,0,161.9,1856.381Z" fill="#121214"/>
          <ellipse id="Elipse_4643" data-name="Elipse 4643" cx="1.188" cy="0.685" rx="1.188" ry="0.685" transform="translate(159.526 1832.226)" fill="#24d2c1"/>
        </g>
        <g id="Grupo_70074" data-name="Grupo 70074">
          <path id="Trazado_102209" data-name="Trazado 102209" d="M162.4,1833.183v-.978h-3.374v.978a.84.84,0,0,0,.493.69,2.618,2.618,0,0,0,2.386,0A.84.84,0,0,0,162.4,1833.183Z" fill="#303033"/>
          <path id="Trazado_102210" data-name="Trazado 102210" d="M161.906,1832.9a2.639,2.639,0,0,1-2.386,0,.729.729,0,0,1,0-1.379,2.633,2.633,0,0,1,2.386,0A.728.728,0,0,1,161.906,1832.9Z" fill="#535359"/>
        </g>
        <g id="Grupo_70075" data-name="Grupo 70075">
          <path id="Trazado_102211" data-name="Trazado 102211" d="M161.921,1832.208v-2.832H159.5v2.832a.6.6,0,0,0,.353.495,1.865,1.865,0,0,0,1.714,0A.6.6,0,0,0,161.921,1832.208Z" fill="#303033"/>
          <path id="Trazado_102212" data-name="Trazado 102212" d="M161.569,1829.871a1.9,1.9,0,0,1-1.714,0,.521.521,0,0,1,0-.986,1.883,1.883,0,0,1,1.714,0A.52.52,0,0,1,161.569,1829.871Z" fill="#24d2c1"/>
        </g>
        <g id="Grupo_70076" data-name="Grupo 70076">
          <path id="Trazado_102213" data-name="Trazado 102213" d="M162.747,1828.756a4.362,4.362,0,0,0-1.974-3.414,1.428,1.428,0,0,0-1.326-.174l0,0-.033.02c-.021.012-.042.022-.062.034l-.61.35.157.263a2.034,2.034,0,0,0-.1.646,4.366,4.366,0,0,0,1.972,3.418,2.072,2.072,0,0,0,.687.252l.128.216s.618-.354.67-.392l.014-.012h0A1.454,1.454,0,0,0,162.747,1828.756Z" fill="#121214"/>
          <path id="Trazado_102214" data-name="Trazado 102214" d="M162.116,1829.121c0,1.258-.881,1.767-1.972,1.139a4.362,4.362,0,0,1-1.972-3.418c0-1.259.882-1.768,1.972-1.138A4.353,4.353,0,0,1,162.116,1829.121Z" fill="#303033"/>
        </g>
        <path id="Trazado_102215" data-name="Trazado 102215" d="M160.431,1815.009c-.7-.406-.714,10.063-.714,10.063l2.107,1.217S161.134,1815.415,160.431,1815.009Z" fill="#121214"/>
        <path id="Trazado_102216" data-name="Trazado 102216" d="M160.431,1815.009c-.7-.406-1.339,10.426-1.339,10.426l2.107,1.217S161.134,1815.415,160.431,1815.009Z" fill="#303033"/>
      </g>
      <g id="Grupo_70078" data-name="Grupo 70078">
        <path id="Trazado_102217" data-name="Trazado 102217" d="M230.219,1807.771l-34.167,19.7.826,1.429,34.165-19.7a.411.411,0,0,0,.171-.379,1.293,1.293,0,0,0-.582-1.01A.408.408,0,0,0,230.219,1807.771Z" fill="#121214"/>
        <path id="Trazado_102218" data-name="Trazado 102218" d="M196.464,1827.512a1.28,1.28,0,0,1,.582,1.01c0,.371-.26.521-.58.334a1.281,1.281,0,0,1-.583-1.009C195.883,1827.476,196.143,1827.326,196.464,1827.512Z" fill="#303033"/>
      </g>
      <g id="Grupo_70079" data-name="Grupo 70079">
        <path id="Trazado_102219" data-name="Trazado 102219" d="M200.611,1825.519l.013-11.63h-.9l-.014,11.63a.224.224,0,0,0,.134.185.7.7,0,0,0,.636,0A.222.222,0,0,0,200.611,1825.519Z" fill="#121214"/>
        <path id="Trazado_102220" data-name="Trazado 102220" d="M200.491,1814.072a.689.689,0,0,1-.637,0,.192.192,0,0,1,0-.365.7.7,0,0,1,.637,0A.192.192,0,0,1,200.491,1814.072Z" fill="#303033"/>
      </g>
      <g id="Grupo_70080" data-name="Grupo 70080">
        <path id="Trazado_102221" data-name="Trazado 102221" d="M207.317,1821.648l.014-11.631h-.9l-.014,11.631a.225.225,0,0,0,.134.186.7.7,0,0,0,.638,0A.228.228,0,0,0,207.317,1821.648Z" fill="#121214"/>
        <path id="Trazado_102222" data-name="Trazado 102222" d="M207.2,1810.2a.709.709,0,0,1-.638,0,.193.193,0,0,1,0-.367.706.706,0,0,1,.638,0A.2.2,0,0,1,207.2,1810.2Z" fill="#303033"/>
      </g>
      <g id="Grupo_70081" data-name="Grupo 70081">
        <path id="Trazado_102223" data-name="Trazado 102223" d="M214.022,1817.777l.013-11.629h-.9l-.012,11.629a.228.228,0,0,0,.132.186.71.71,0,0,0,.638,0A.226.226,0,0,0,214.022,1817.777Z" fill="#121214"/>
        <path id="Trazado_102224" data-name="Trazado 102224" d="M213.9,1806.33a.7.7,0,0,1-.638,0,.192.192,0,0,1,0-.365.7.7,0,0,1,.638,0A.193.193,0,0,1,213.9,1806.33Z" fill="#303033"/>
      </g>
      <g id="Grupo_70082" data-name="Grupo 70082">
        <path id="Trazado_102225" data-name="Trazado 102225" d="M220.728,1813.906l.014-11.631h-.9l-.012,11.631a.225.225,0,0,0,.133.184.7.7,0,0,0,.637,0A.225.225,0,0,0,220.728,1813.906Z" fill="#121214"/>
        <path id="Trazado_102226" data-name="Trazado 102226" d="M220.608,1802.458a.7.7,0,0,1-.638,0,.193.193,0,0,1,0-.366.7.7,0,0,1,.638,0C220.785,1802.193,220.784,1802.356,220.608,1802.458Z" fill="#303033"/>
      </g>
      <g id="Grupo_70083" data-name="Grupo 70083">
        <path id="Trazado_102227" data-name="Trazado 102227" d="M227.434,1810.035l.013-11.631h-.9l-.015,11.631a.225.225,0,0,0,.135.184.708.708,0,0,0,.637,0A.226.226,0,0,0,227.434,1810.035Z" fill="#121214"/>
        <path id="Trazado_102228" data-name="Trazado 102228" d="M227.315,1798.589a.712.712,0,0,1-.639,0,.194.194,0,0,1,0-.368.7.7,0,0,1,.639,0A.2.2,0,0,1,227.315,1798.589Z" fill="#303033"/>
      </g>
      <g id="Grupo_70084" data-name="Grupo 70084">
        <path id="Trazado_102229" data-name="Trazado 102229" d="M230.219,1795.128l-34.167,19.7.826,1.43,34.165-19.7a.413.413,0,0,0,.171-.379,1.291,1.291,0,0,0-.582-1.01A.411.411,0,0,0,230.219,1795.128Z" fill="#121214"/>
        <path id="Trazado_102230" data-name="Trazado 102230" d="M196.464,1814.869a1.282,1.282,0,0,1,.582,1.011c0,.371-.26.521-.58.334a1.283,1.283,0,0,1-.583-1.009C195.883,1814.833,196.143,1814.684,196.464,1814.869Z" fill="#303033"/>
      </g>
      <g id="Grupo_70090" data-name="Grupo 70090">
        <g id="Grupo_70085" data-name="Grupo 70085">
          <path id="Trazado_102231" data-name="Trazado 102231" d="M197.335,1836.953v-.838h-2.9v.838a.719.719,0,0,0,.426.593,2.264,2.264,0,0,0,2.05,0A.718.718,0,0,0,197.335,1836.953Z" fill="#121214"/>
          <path id="Trazado_102232" data-name="Trazado 102232" d="M196.911,1836.706a2.241,2.241,0,0,1-2.05,0,.623.623,0,0,1,0-1.181,2.264,2.264,0,0,1,2.05,0A.624.624,0,0,1,196.911,1836.706Z" fill="#535359"/>
        </g>
        <g id="Grupo_70086" data-name="Grupo 70086">
          <path id="Trazado_102233" data-name="Trazado 102233" d="M197.076,1836.081v-23.47H194.7v23.47a.594.594,0,0,0,.347.488,1.85,1.85,0,0,0,1.683,0A.592.592,0,0,0,197.076,1836.081Z" fill="#121214"/>
          <path id="Trazado_102234" data-name="Trazado 102234" d="M196.726,1813.095a1.85,1.85,0,0,1-1.683,0,.511.511,0,0,1,0-.968,1.85,1.85,0,0,1,1.683,0A.511.511,0,0,1,196.726,1813.095Z" fill="#24d2c1"/>
        </g>
        <g id="Grupo_70087" data-name="Grupo 70087">
          <path id="Trazado_102235" data-name="Trazado 102235" d="M197.572,1812.885v-.98H194.2v.98a.845.845,0,0,0,.495.69,2.635,2.635,0,0,0,2.384,0A.845.845,0,0,0,197.572,1812.885Z" fill="#303033"/>
          <path id="Trazado_102236" data-name="Trazado 102236" d="M197.077,1812.6a2.653,2.653,0,0,1-2.384,0,.728.728,0,0,1,0-1.379,2.628,2.628,0,0,1,2.384,0A.728.728,0,0,1,197.077,1812.6Z" fill="#535359"/>
        </g>
        <g id="Grupo_70088" data-name="Grupo 70088">
          <path id="Trazado_102237" data-name="Trazado 102237" d="M197.094,1811.908v-2.832h-2.421v2.832a.608.608,0,0,0,.352.5,1.9,1.9,0,0,0,1.715,0A.6.6,0,0,0,197.094,1811.908Z" fill="#303033"/>
          <path id="Trazado_102238" data-name="Trazado 102238" d="M196.74,1809.573a1.907,1.907,0,0,1-1.715,0,.521.521,0,0,1,0-.986,1.874,1.874,0,0,1,1.715,0A.52.52,0,0,1,196.74,1809.573Z" fill="#24d2c1"/>
        </g>
        <g id="Grupo_70089" data-name="Grupo 70089">
          <path id="Trazado_102239" data-name="Trazado 102239" d="M197.918,1808.458a4.362,4.362,0,0,0-1.972-3.416,1.424,1.424,0,0,0-1.328-.171v0l-.036.021-.06.033-.612.347.156.264a2.108,2.108,0,0,0-.094.648,4.356,4.356,0,0,0,1.974,3.416,1.922,1.922,0,0,0,.683.252l.13.217s.618-.353.67-.392l.015-.011h0A1.449,1.449,0,0,0,197.918,1808.458Z" fill="#121214"/>
          <path id="Trazado_102240" data-name="Trazado 102240" d="M197.288,1808.821c0,1.259-.881,1.768-1.973,1.14a4.362,4.362,0,0,1-1.973-3.418c0-1.259.883-1.768,1.973-1.139A4.357,4.357,0,0,1,197.288,1808.821Z" fill="#303033"/>
        </g>
        <path id="Trazado_102241" data-name="Trazado 102241" d="M195.6,1794.71c-.7-.408-.716,10.063-.716,10.063l2.107,1.219S196.3,1795.115,195.6,1794.71Z" fill="#121214"/>
        <path id="Trazado_102242" data-name="Trazado 102242" d="M195.6,1794.71c-.7-.408-1.343,10.424-1.343,10.424l2.11,1.217S196.3,1795.115,195.6,1794.71Z" fill="#303033"/>
      </g>
      <g id="Grupo_70091" data-name="Grupo 70091">
        <path id="Trazado_102243" data-name="Trazado 102243" d="M265.388,1787.472l-34.165,19.7.826,1.426,34.165-19.7a.41.41,0,0,0,.172-.379,1.285,1.285,0,0,0-.583-1.008A.412.412,0,0,0,265.388,1787.472Z" fill="#121214"/>
        <path id="Trazado_102244" data-name="Trazado 102244" d="M231.635,1807.213a1.289,1.289,0,0,1,.583,1.01c0,.372-.261.523-.581.334a1.278,1.278,0,0,1-.582-1.008C231.052,1807.179,231.314,1807.027,231.635,1807.213Z" fill="#303033"/>
      </g>
      <g id="Grupo_70092" data-name="Grupo 70092">
        <path id="Trazado_102245" data-name="Trazado 102245" d="M235.782,1805.221l.015-11.63h-.9l-.012,11.63a.228.228,0,0,0,.131.186.711.711,0,0,0,.639,0A.231.231,0,0,0,235.782,1805.221Z" fill="#121214"/>
        <path id="Trazado_102246" data-name="Trazado 102246" d="M235.662,1793.775a.7.7,0,0,1-.638,0c-.177-.1-.177-.267,0-.366a.706.706,0,0,1,.638,0A.2.2,0,0,1,235.662,1793.775Z" fill="#303033"/>
      </g>
      <g id="Grupo_70093" data-name="Grupo 70093">
        <path id="Trazado_102247" data-name="Trazado 102247" d="M242.488,1801.349l.014-11.629h-.9l-.014,11.629a.227.227,0,0,0,.134.186.7.7,0,0,0,.637,0A.224.224,0,0,0,242.488,1801.349Z" fill="#121214"/>
        <path id="Trazado_102248" data-name="Trazado 102248" d="M242.368,1789.9a.707.707,0,0,1-.637,0c-.177-.1-.177-.264,0-.366a.7.7,0,0,1,.637,0A.193.193,0,0,1,242.368,1789.9Z" fill="#303033"/>
      </g>
      <g id="Grupo_70094" data-name="Grupo 70094">
        <path id="Trazado_102249" data-name="Trazado 102249" d="M249.194,1797.478l.012-11.631h-.9l-.012,11.631a.221.221,0,0,0,.133.184.7.7,0,0,0,.638,0A.226.226,0,0,0,249.194,1797.478Z" fill="#121214"/>
        <path id="Trazado_102250" data-name="Trazado 102250" d="M249.074,1786.032a.7.7,0,0,1-.638,0,.194.194,0,0,1,0-.368.713.713,0,0,1,.638,0A.194.194,0,0,1,249.074,1786.032Z" fill="#303033"/>
      </g>
      <g id="Grupo_70095" data-name="Grupo 70095">
        <path id="Trazado_102251" data-name="Trazado 102251" d="M255.9,1793.607l.014-11.629h-.9l-.014,11.629a.225.225,0,0,0,.134.184.7.7,0,0,0,.638,0A.223.223,0,0,0,255.9,1793.607Z" fill="#121214"/>
        <path id="Trazado_102252" data-name="Trazado 102252" d="M255.779,1782.161a.7.7,0,0,1-.638,0,.194.194,0,0,1,0-.367.706.706,0,0,1,.638,0A.2.2,0,0,1,255.779,1782.161Z" fill="#303033"/>
      </g>
      <g id="Grupo_70096" data-name="Grupo 70096">
        <path id="Trazado_102253" data-name="Trazado 102253" d="M262.605,1789.735l.014-11.63h-.9l-.012,11.63a.225.225,0,0,0,.133.186.7.7,0,0,0,.637,0A.225.225,0,0,0,262.605,1789.735Z" fill="#121214"/>
        <path id="Trazado_102254" data-name="Trazado 102254" d="M262.486,1778.288a.693.693,0,0,1-.639,0,.193.193,0,0,1,0-.365.706.706,0,0,1,.639,0A.192.192,0,0,1,262.486,1778.288Z" fill="#303033"/>
      </g>
      <g id="Grupo_70097" data-name="Grupo 70097">
        <path id="Trazado_102255" data-name="Trazado 102255" d="M265.388,1774.83l-34.165,19.7.826,1.428,34.165-19.7a.413.413,0,0,0,.172-.38,1.287,1.287,0,0,0-.583-1.008A.409.409,0,0,0,265.388,1774.83Z" fill="#121214"/>
        <path id="Trazado_102256" data-name="Trazado 102256" d="M231.635,1794.571a1.284,1.284,0,0,1,.583,1.008c0,.372-.261.525-.581.336a1.282,1.282,0,0,1-.582-1.01C231.052,1794.535,231.314,1794.383,231.635,1794.571Z" fill="#303033"/>
      </g>
      <g id="Grupo_70103" data-name="Grupo 70103">
        <g id="Grupo_70098" data-name="Grupo 70098">
          <path id="Trazado_102257" data-name="Trazado 102257" d="M232.506,1816.654v-.837h-2.9v.837a.716.716,0,0,0,.425.594,2.269,2.269,0,0,0,2.049,0A.717.717,0,0,0,232.506,1816.654Z" fill="#121214"/>
          <path id="Trazado_102258" data-name="Trazado 102258" d="M232.082,1816.407a2.262,2.262,0,0,1-2.049,0,.623.623,0,0,1,0-1.181,2.26,2.26,0,0,1,2.049,0A.624.624,0,0,1,232.082,1816.407Z" fill="#535359"/>
        </g>
        <g id="Grupo_70099" data-name="Grupo 70099">
          <path id="Trazado_102259" data-name="Trazado 102259" d="M232.247,1815.784v-23.472h-2.382v23.472a.6.6,0,0,0,.351.487,1.858,1.858,0,0,0,1.681,0A.593.593,0,0,0,232.247,1815.784Z" fill="#121214"/>
          <path id="Trazado_102260" data-name="Trazado 102260" d="M231.9,1792.8a1.852,1.852,0,0,1-1.681,0,.509.509,0,0,1,0-.966,1.846,1.846,0,0,1,1.681,0A.51.51,0,0,1,231.9,1792.8Z" fill="#24d2c1"/>
        </g>
        <g id="Grupo_70100" data-name="Grupo 70100">
          <path id="Trazado_102261" data-name="Trazado 102261" d="M232.743,1792.585v-.977h-3.372v.977a.841.841,0,0,0,.491.691,2.621,2.621,0,0,0,2.386,0A.843.843,0,0,0,232.743,1792.585Z" fill="#303033"/>
          <path id="Trazado_102262" data-name="Trazado 102262" d="M232.248,1792.3a2.633,2.633,0,0,1-2.386,0,.728.728,0,0,1,0-1.378,2.633,2.633,0,0,1,2.386,0A.727.727,0,0,1,232.248,1792.3Z" fill="#535359"/>
        </g>
        <g id="Grupo_70101" data-name="Grupo 70101">
          <path id="Trazado_102263" data-name="Trazado 102263" d="M232.264,1791.611v-2.832h-2.42v2.832a.6.6,0,0,0,.354.495,1.868,1.868,0,0,0,1.714,0A.6.6,0,0,0,232.264,1791.611Z" fill="#303033"/>
          <path id="Trazado_102264" data-name="Trazado 102264" d="M231.912,1789.273a1.893,1.893,0,0,1-1.714,0,.521.521,0,0,1,0-.986,1.889,1.889,0,0,1,1.714,0A.521.521,0,0,1,231.912,1789.273Z" fill="#24d2c1"/>
        </g>
        <g id="Grupo_70102" data-name="Grupo 70102">
          <path id="Trazado_102265" data-name="Trazado 102265" d="M233.09,1788.158a4.364,4.364,0,0,0-1.973-3.414,1.436,1.436,0,0,0-1.327-.174h0l-.035.019c-.021.014-.04.023-.061.035l-.61.349.156.264a2.092,2.092,0,0,0-.1.646,4.366,4.366,0,0,0,1.974,3.418,2.052,2.052,0,0,0,.684.252l.129.216s.618-.354.672-.393l.013-.012h0A1.453,1.453,0,0,0,233.09,1788.158Z" fill="#121214"/>
          <path id="Trazado_102266" data-name="Trazado 102266" d="M232.459,1788.524c0,1.257-.882,1.767-1.973,1.139a4.367,4.367,0,0,1-1.972-3.418c0-1.259.884-1.769,1.972-1.138A4.354,4.354,0,0,1,232.459,1788.524Z" fill="#303033"/>
        </g>
        <path id="Trazado_102267" data-name="Trazado 102267" d="M230.773,1774.411c-.7-.406-.713,10.064-.713,10.064l2.107,1.216S231.478,1774.818,230.773,1774.411Z" fill="#121214"/>
        <path id="Trazado_102268" data-name="Trazado 102268" d="M230.773,1774.411c-.7-.406-1.339,10.426-1.339,10.426l2.108,1.217S231.478,1774.818,230.773,1774.411Z" fill="#303033"/>
      </g>
      <g id="Grupo_70108" data-name="Grupo 70108">
        <g id="Grupo_70104" data-name="Grupo 70104">
          <path id="Trazado_102269" data-name="Trazado 102269" d="M267.678,1796.356v-.838h-2.9v.838a.719.719,0,0,0,.425.593,2.264,2.264,0,0,0,2.05,0A.721.721,0,0,0,267.678,1796.356Z" fill="#121214"/>
          <path id="Trazado_102270" data-name="Trazado 102270" d="M267.253,1796.108a2.262,2.262,0,0,1-2.05,0,.623.623,0,0,1,0-1.181,2.264,2.264,0,0,1,2.05,0A.624.624,0,0,1,267.253,1796.108Z" fill="#535359"/>
        </g>
        <g id="Grupo_70105" data-name="Grupo 70105">
          <path id="Trazado_102271" data-name="Trazado 102271" d="M267.417,1795.483v-23.469h-2.379v23.469a.6.6,0,0,0,.349.489,1.856,1.856,0,0,0,1.683,0A.593.593,0,0,0,267.417,1795.483Z" fill="#121214"/>
          <path id="Trazado_102272" data-name="Trazado 102272" d="M267.07,1772.5a1.868,1.868,0,0,1-1.683,0,.51.51,0,0,1,0-.967,1.862,1.862,0,0,1,1.683,0A.511.511,0,0,1,267.07,1772.5Z" fill="#24d2c1"/>
        </g>
        <g id="Grupo_70106" data-name="Grupo 70106">
          <path id="Trazado_102273" data-name="Trazado 102273" d="M267.915,1772.288v-.98h-3.373v.98a.839.839,0,0,0,.493.689,2.613,2.613,0,0,0,2.385,0A.841.841,0,0,0,267.915,1772.288Z" fill="#303033"/>
          <path id="Trazado_102274" data-name="Trazado 102274" d="M267.42,1772a2.65,2.65,0,0,1-2.385,0,.728.728,0,0,1,0-1.379,2.637,2.637,0,0,1,2.385,0A.729.729,0,0,1,267.42,1772Z" fill="#535359"/>
        </g>
        <g id="Grupo_70107" data-name="Grupo 70107">
          <path id="Trazado_102275" data-name="Trazado 102275" d="M267.435,1771.311v-2.833h-2.418v2.833a.6.6,0,0,0,.35.5,1.88,1.88,0,0,0,1.715,0A.6.6,0,0,0,267.435,1771.311Z" fill="#303033"/>
          <path id="Trazado_102276" data-name="Trazado 102276" d="M267.082,1768.976a1.907,1.907,0,0,1-1.715,0,.522.522,0,0,1,0-.986,1.88,1.88,0,0,1,1.715,0A.52.52,0,0,1,267.082,1768.976Z" fill="#535359"/>
        </g>
        <path id="Trazado_102277" data-name="Trazado 102277" d="M269.76,1765.648a3.533,3.533,0,1,1-3.533-3.533A3.533,3.533,0,0,1,269.76,1765.648Z" fill="#121214"/>
      </g>
    </g>
    <g id="Grupo_70161" data-name="Grupo 70161">
      <g id="Grupo_70110" data-name="Grupo 70110">
        <path id="Trazado_102278" data-name="Trazado 102278" d="M372.578,1848.368l34.165,19.7-.824,1.43-34.165-19.7a.413.413,0,0,1-.172-.38,1.3,1.3,0,0,1,.582-1.01A.41.41,0,0,1,372.578,1848.368Z" fill="#121214"/>
        <path id="Trazado_102279" data-name="Trazado 102279" d="M406.333,1868.109a1.274,1.274,0,0,0-.582,1.01c0,.372.258.522.579.334a1.278,1.278,0,0,0,.584-1.008C406.914,1868.073,406.654,1867.923,406.333,1868.109Z" fill="#303033"/>
      </g>
      <g id="Grupo_70111" data-name="Grupo 70111">
        <path id="Trazado_102280" data-name="Trazado 102280" d="M402.185,1866.116l-.012-11.629h.9l.014,11.629a.224.224,0,0,1-.135.186.7.7,0,0,1-.637,0A.225.225,0,0,1,402.185,1866.116Z" fill="#121214"/>
        <path id="Trazado_102281" data-name="Trazado 102281" d="M402.3,1854.67a.7.7,0,0,0,.638,0,.193.193,0,0,0,0-.366.7.7,0,0,0-.638,0A.193.193,0,0,0,402.3,1854.67Z" fill="#303033"/>
      </g>
      <g id="Grupo_70112" data-name="Grupo 70112">
        <path id="Trazado_102282" data-name="Trazado 102282" d="M395.48,1862.245l-.014-11.631h.9l.014,11.631a.226.226,0,0,1-.134.186.7.7,0,0,1-.638,0A.227.227,0,0,1,395.48,1862.245Z" fill="#121214"/>
        <path id="Trazado_102283" data-name="Trazado 102283" d="M395.6,1850.8a.707.707,0,0,0,.638,0c.177-.1.174-.265,0-.367a.709.709,0,0,0-.638,0A.194.194,0,0,0,395.6,1850.8Z" fill="#303033"/>
      </g>
      <g id="Grupo_70113" data-name="Grupo 70113">
        <path id="Trazado_102284" data-name="Trazado 102284" d="M388.774,1858.374l-.014-11.629h.9l.012,11.629a.227.227,0,0,1-.132.186.7.7,0,0,1-.638,0A.227.227,0,0,1,388.774,1858.374Z" fill="#121214"/>
        <path id="Trazado_102285" data-name="Trazado 102285" d="M388.893,1846.928a.705.705,0,0,0,.639,0,.193.193,0,0,0,0-.366.705.705,0,0,0-.639,0A.194.194,0,0,0,388.893,1846.928Z" fill="#303033"/>
      </g>
      <g id="Grupo_70114" data-name="Grupo 70114">
        <path id="Trazado_102286" data-name="Trazado 102286" d="M382.067,1854.5l-.012-11.631h.9l.013,11.631a.225.225,0,0,1-.133.185.708.708,0,0,1-.637,0A.224.224,0,0,1,382.067,1854.5Z" fill="#121214"/>
        <path id="Trazado_102287" data-name="Trazado 102287" d="M382.189,1843.055a.7.7,0,0,0,.637,0c.176-.1.176-.263,0-.365a.7.7,0,0,0-.637,0C382.012,1842.79,382.013,1842.954,382.189,1843.055Z" fill="#303033"/>
      </g>
      <g id="Grupo_70115" data-name="Grupo 70115">
        <path id="Trazado_102288" data-name="Trazado 102288" d="M375.362,1850.632l-.013-11.63h.9l.013,11.63a.224.224,0,0,1-.133.185.718.718,0,0,1-.639,0A.228.228,0,0,1,375.362,1850.632Z" fill="#121214"/>
        <path id="Trazado_102289" data-name="Trazado 102289" d="M375.482,1839.186a.706.706,0,0,0,.639,0c.177-.1.177-.267,0-.367a.7.7,0,0,0-.639,0A.2.2,0,0,0,375.482,1839.186Z" fill="#303033"/>
      </g>
      <g id="Grupo_70116" data-name="Grupo 70116">
        <path id="Trazado_102290" data-name="Trazado 102290" d="M372.578,1835.726l34.165,19.7-.824,1.43-34.165-19.7a.407.407,0,0,1-.172-.378,1.3,1.3,0,0,1,.582-1.01A.41.41,0,0,1,372.578,1835.726Z" fill="#121214"/>
        <path id="Trazado_102291" data-name="Trazado 102291" d="M406.333,1855.467a1.274,1.274,0,0,0-.582,1.01c0,.372.258.521.579.334a1.28,1.28,0,0,0,.584-1.008C406.914,1855.431,406.654,1855.281,406.333,1855.467Z" fill="#303033"/>
      </g>
      <g id="Grupo_70117" data-name="Grupo 70117">
        <path id="Trazado_102292" data-name="Trazado 102292" d="M367.015,1845.819,367,1834.188h.9l.012,11.631a.227.227,0,0,1-.132.184.7.7,0,0,1-.638,0A.225.225,0,0,1,367.015,1845.819Z" fill="#121214"/>
        <path id="Trazado_102293" data-name="Trazado 102293" d="M367.135,1834.372a.7.7,0,0,0,.637,0c.177-.1.177-.266,0-.365a.692.692,0,0,0-.637,0A.194.194,0,0,0,367.135,1834.372Z" fill="#303033"/>
      </g>
      <g id="Grupo_70118" data-name="Grupo 70118">
        <path id="Trazado_102294" data-name="Trazado 102294" d="M360.307,1841.946l-.011-11.629h.9l.014,11.629a.225.225,0,0,1-.135.186.7.7,0,0,1-.637,0A.225.225,0,0,1,360.307,1841.946Z" fill="#121214"/>
        <path id="Trazado_102295" data-name="Trazado 102295" d="M360.427,1830.5a.705.705,0,0,0,.639,0c.177-.1.177-.264,0-.366a.705.705,0,0,0-.639,0A.193.193,0,0,0,360.427,1830.5Z" fill="#303033"/>
      </g>
      <g id="Grupo_70119" data-name="Grupo 70119">
        <path id="Trazado_102296" data-name="Trazado 102296" d="M353.6,1838.075l-.012-11.63h.9l.013,11.63a.225.225,0,0,1-.133.185.7.7,0,0,1-.638,0A.226.226,0,0,1,353.6,1838.075Z" fill="#121214"/>
        <path id="Trazado_102297" data-name="Trazado 102297" d="M353.723,1826.629a.7.7,0,0,0,.638,0,.194.194,0,0,0,0-.367.71.71,0,0,0-.638,0A.193.193,0,0,0,353.723,1826.629Z" fill="#303033"/>
      </g>
      <g id="Grupo_70120" data-name="Grupo 70120">
        <path id="Trazado_102298" data-name="Trazado 102298" d="M346.9,1834.2l-.015-11.63h.9l.012,11.63a.222.222,0,0,1-.132.184.7.7,0,0,1-.638,0A.225.225,0,0,1,346.9,1834.2Z" fill="#121214"/>
        <path id="Trazado_102299" data-name="Trazado 102299" d="M347.018,1822.758a.7.7,0,0,0,.638,0,.194.194,0,0,0,0-.367.709.709,0,0,0-.638,0A.194.194,0,0,0,347.018,1822.758Z" fill="#303033"/>
      </g>
      <g id="Grupo_70121" data-name="Grupo 70121">
        <path id="Trazado_102300" data-name="Trazado 102300" d="M340.19,1830.332l-.012-11.629h.9l.013,11.629a.225.225,0,0,1-.133.186.7.7,0,0,1-.637,0A.224.224,0,0,1,340.19,1830.332Z" fill="#121214"/>
        <path id="Trazado_102301" data-name="Trazado 102301" d="M340.311,1818.886a.7.7,0,0,0,.637,0,.192.192,0,0,0,0-.366.7.7,0,0,0-.637,0A.194.194,0,0,0,340.311,1818.886Z" fill="#303033"/>
      </g>
      <g id="Grupo_70122" data-name="Grupo 70122">
        <path id="Trazado_102302" data-name="Trazado 102302" d="M337.407,1828.069l34.167,19.7-.826,1.429-34.167-19.7a.416.416,0,0,1-.17-.379,1.291,1.291,0,0,1,.581-1.009A.415.415,0,0,1,337.407,1828.069Z" fill="#121214"/>
        <path id="Trazado_102303" data-name="Trazado 102303" d="M371.162,1847.81a1.283,1.283,0,0,0-.583,1.011c0,.371.261.523.581.334a1.282,1.282,0,0,0,.582-1.009C371.743,1847.776,371.483,1847.623,371.162,1847.81Z" fill="#303033"/>
      </g>
      <g id="Grupo_70123" data-name="Grupo 70123">
        <path id="Trazado_102304" data-name="Trazado 102304" d="M337.407,1815.427l34.167,19.7-.826,1.428-34.167-19.7a.421.421,0,0,1-.17-.381,1.289,1.289,0,0,1,.581-1.007A.41.41,0,0,1,337.407,1815.427Z" fill="#121214"/>
        <path id="Trazado_102305" data-name="Trazado 102305" d="M371.162,1835.168a1.279,1.279,0,0,0-.583,1.009c0,.371.261.524.581.335a1.283,1.283,0,0,0,.582-1.01C371.743,1835.132,371.483,1834.981,371.162,1835.168Z" fill="#303033"/>
      </g>
      <g id="Grupo_70129" data-name="Grupo 70129">
        <g id="Grupo_70124" data-name="Grupo 70124">
          <path id="Trazado_102306" data-name="Trazado 102306" d="M370.291,1857.252v-.838h2.9v.838a.718.718,0,0,1-.426.593,2.264,2.264,0,0,1-2.05,0A.714.714,0,0,1,370.291,1857.252Z" fill="#121214"/>
          <path id="Trazado_102307" data-name="Trazado 102307" d="M370.714,1857a2.264,2.264,0,0,0,2.05,0,.622.622,0,0,0,0-1.18,2.258,2.258,0,0,0-2.05,0A.623.623,0,0,0,370.714,1857Z" fill="#535359"/>
        </g>
        <g id="Grupo_70125" data-name="Grupo 70125">
          <path id="Trazado_102308" data-name="Trazado 102308" d="M370.549,1856.381V1832.91h2.381v23.471a.591.591,0,0,1-.349.487,1.858,1.858,0,0,1-1.681,0A.592.592,0,0,1,370.549,1856.381Z" fill="#121214"/>
          <ellipse id="Elipse_4644" data-name="Elipse 4644" cx="1.188" cy="0.684" rx="1.188" ry="0.684" transform="translate(370.553 1832.226)" fill="#24d2c1"/>
        </g>
        <g id="Grupo_70126" data-name="Grupo 70126">
          <path id="Trazado_102309" data-name="Trazado 102309" d="M370.054,1833.183v-.978h3.372v.978a.842.842,0,0,1-.493.69,2.614,2.614,0,0,1-2.384,0A.838.838,0,0,1,370.054,1833.183Z" fill="#303033"/>
          <path id="Trazado_102310" data-name="Trazado 102310" d="M370.549,1832.9a2.635,2.635,0,0,0,2.384,0,.728.728,0,0,0,0-1.379,2.628,2.628,0,0,0-2.384,0A.728.728,0,0,0,370.549,1832.9Z" fill="#535359"/>
        </g>
        <g id="Grupo_70127" data-name="Grupo 70127">
          <path id="Trazado_102311" data-name="Trazado 102311" d="M370.533,1832.208v-2.832h2.42v2.832a.6.6,0,0,1-.354.495,1.865,1.865,0,0,1-1.714,0A.592.592,0,0,1,370.533,1832.208Z" fill="#303033"/>
          <path id="Trazado_102312" data-name="Trazado 102312" d="M370.885,1829.871a1.9,1.9,0,0,0,1.714,0,.521.521,0,0,0,0-.986,1.883,1.883,0,0,0-1.714,0A.521.521,0,0,0,370.885,1829.871Z" fill="#24d2c1"/>
        </g>
        <g id="Grupo_70128" data-name="Grupo 70128">
          <path id="Trazado_102313" data-name="Trazado 102313" d="M369.707,1828.756a4.361,4.361,0,0,1,1.973-3.414,1.43,1.43,0,0,1,1.327-.174v0l.035.02.061.034.61.35-.156.263a2.093,2.093,0,0,1,.1.646,4.364,4.364,0,0,1-1.973,3.418,2.058,2.058,0,0,1-.684.252l-.129.216s-.618-.354-.672-.392l-.013-.012h0A1.454,1.454,0,0,1,369.707,1828.756Z" fill="#121214"/>
          <path id="Trazado_102314" data-name="Trazado 102314" d="M370.338,1829.121c0,1.258.881,1.767,1.973,1.139a4.368,4.368,0,0,0,1.973-3.418c0-1.259-.885-1.768-1.973-1.138A4.351,4.351,0,0,0,370.338,1829.121Z" fill="#303033"/>
        </g>
        <path id="Trazado_102315" data-name="Trazado 102315" d="M372.022,1815.009c.7-.406.715,10.063.715,10.063l-2.107,1.217S371.319,1815.415,372.022,1815.009Z" fill="#121214"/>
        <path id="Trazado_102316" data-name="Trazado 102316" d="M372.022,1815.009c.7-.406,1.341,10.426,1.341,10.426l-2.108,1.217S371.319,1815.415,372.022,1815.009Z" fill="#303033"/>
      </g>
      <g id="Grupo_70130" data-name="Grupo 70130">
        <path id="Trazado_102317" data-name="Trazado 102317" d="M302.236,1807.771l34.166,19.7-.825,1.429-34.165-19.7a.409.409,0,0,1-.174-.379,1.291,1.291,0,0,1,.585-1.01A.408.408,0,0,1,302.236,1807.771Z" fill="#121214"/>
        <path id="Trazado_102318" data-name="Trazado 102318" d="M335.991,1827.512a1.278,1.278,0,0,0-.583,1.01c0,.371.259.521.58.334a1.281,1.281,0,0,0,.583-1.009C336.572,1827.476,336.312,1827.326,335.991,1827.512Z" fill="#303033"/>
      </g>
      <g id="Grupo_70131" data-name="Grupo 70131">
        <path id="Trazado_102319" data-name="Trazado 102319" d="M331.843,1825.519l-.014-11.63h.9l.013,11.63a.221.221,0,0,1-.133.185.7.7,0,0,1-.638,0A.226.226,0,0,1,331.843,1825.519Z" fill="#121214"/>
        <path id="Trazado_102320" data-name="Trazado 102320" d="M331.963,1814.072a.691.691,0,0,0,.638,0,.192.192,0,0,0,0-.365.7.7,0,0,0-.638,0A.192.192,0,0,0,331.963,1814.072Z" fill="#303033"/>
      </g>
      <g id="Grupo_70132" data-name="Grupo 70132">
        <path id="Trazado_102321" data-name="Trazado 102321" d="M325.138,1821.648l-.015-11.631h.905l.012,11.631a.228.228,0,0,1-.132.186.7.7,0,0,1-.638,0A.224.224,0,0,1,325.138,1821.648Z" fill="#121214"/>
        <path id="Trazado_102322" data-name="Trazado 102322" d="M325.258,1810.2a.707.707,0,0,0,.637,0,.194.194,0,0,0,0-.367.7.7,0,0,0-.637,0A.2.2,0,0,0,325.258,1810.2Z" fill="#303033"/>
      </g>
      <g id="Grupo_70133" data-name="Grupo 70133">
        <path id="Trazado_102323" data-name="Trazado 102323" d="M318.43,1817.777l-.012-11.629h.9l.012,11.629a.228.228,0,0,1-.133.186.71.71,0,0,1-.638,0A.227.227,0,0,1,318.43,1817.777Z" fill="#121214"/>
        <path id="Trazado_102324" data-name="Trazado 102324" d="M318.55,1806.33a.707.707,0,0,0,.64,0,.193.193,0,0,0,0-.365.708.708,0,0,0-.64,0A.194.194,0,0,0,318.55,1806.33Z" fill="#303033"/>
      </g>
      <g id="Grupo_70134" data-name="Grupo 70134">
        <path id="Trazado_102325" data-name="Trazado 102325" d="M311.725,1813.906l-.012-11.631h.9l.015,11.631a.224.224,0,0,1-.135.184.7.7,0,0,1-.637,0A.224.224,0,0,1,311.725,1813.906Z" fill="#121214"/>
        <path id="Trazado_102326" data-name="Trazado 102326" d="M311.845,1802.458a.705.705,0,0,0,.639,0c.177-.1.177-.264,0-.366a.705.705,0,0,0-.639,0A.193.193,0,0,0,311.845,1802.458Z" fill="#303033"/>
      </g>
      <g id="Grupo_70135" data-name="Grupo 70135">
        <path id="Trazado_102327" data-name="Trazado 102327" d="M305.021,1810.035l-.015-11.631h.9l.012,11.631a.225.225,0,0,1-.132.184.71.71,0,0,1-.638,0A.227.227,0,0,1,305.021,1810.035Z" fill="#121214"/>
        <path id="Trazado_102328" data-name="Trazado 102328" d="M305.141,1798.589a.71.71,0,0,0,.638,0,.2.2,0,0,0,0-.368.7.7,0,0,0-.638,0A.2.2,0,0,0,305.141,1798.589Z" fill="#303033"/>
      </g>
      <g id="Grupo_70136" data-name="Grupo 70136">
        <path id="Trazado_102329" data-name="Trazado 102329" d="M302.236,1795.128l34.166,19.7-.825,1.43-34.165-19.7a.41.41,0,0,1-.174-.379,1.288,1.288,0,0,1,.585-1.01A.411.411,0,0,1,302.236,1795.128Z" fill="#121214"/>
        <path id="Trazado_102330" data-name="Trazado 102330" d="M335.991,1814.869a1.28,1.28,0,0,0-.583,1.011c0,.371.259.521.58.334a1.283,1.283,0,0,0,.583-1.009C336.572,1814.833,336.312,1814.684,335.991,1814.869Z" fill="#303033"/>
      </g>
      <g id="Grupo_70142" data-name="Grupo 70142">
        <g id="Grupo_70137" data-name="Grupo 70137">
          <path id="Trazado_102331" data-name="Trazado 102331" d="M335.119,1836.953v-.838h2.9v.838a.719.719,0,0,1-.426.593,2.262,2.262,0,0,1-2.049,0A.719.719,0,0,1,335.119,1836.953Z" fill="#121214"/>
          <path id="Trazado_102332" data-name="Trazado 102332" d="M335.544,1836.706a2.238,2.238,0,0,0,2.049,0,.622.622,0,0,0,0-1.181,2.262,2.262,0,0,0-2.049,0A.623.623,0,0,0,335.544,1836.706Z" fill="#535359"/>
        </g>
        <g id="Grupo_70138" data-name="Grupo 70138">
          <path id="Trazado_102333" data-name="Trazado 102333" d="M335.379,1836.081v-23.47h2.38v23.47a.592.592,0,0,1-.349.488,1.85,1.85,0,0,1-1.683,0A.593.593,0,0,1,335.379,1836.081Z" fill="#121214"/>
          <path id="Trazado_102334" data-name="Trazado 102334" d="M335.727,1813.095a1.85,1.85,0,0,0,1.683,0,.51.51,0,0,0,0-.968,1.85,1.85,0,0,0-1.683,0A.511.511,0,0,0,335.727,1813.095Z" fill="#24d2c1"/>
        </g>
        <g id="Grupo_70139" data-name="Grupo 70139">
          <path id="Trazado_102335" data-name="Trazado 102335" d="M334.882,1812.885v-.98h3.373v.98a.846.846,0,0,1-.493.69,2.637,2.637,0,0,1-2.385,0A.845.845,0,0,1,334.882,1812.885Z" fill="#303033"/>
          <path id="Trazado_102336" data-name="Trazado 102336" d="M335.377,1812.6a2.656,2.656,0,0,0,2.385,0,.729.729,0,0,0,0-1.379,2.63,2.63,0,0,0-2.385,0A.728.728,0,0,0,335.377,1812.6Z" fill="#535359"/>
        </g>
        <g id="Grupo_70140" data-name="Grupo 70140">
          <path id="Trazado_102337" data-name="Trazado 102337" d="M335.362,1811.908v-2.832h2.418v2.832a.606.606,0,0,1-.352.5,1.9,1.9,0,0,1-1.714,0A.6.6,0,0,1,335.362,1811.908Z" fill="#303033"/>
          <path id="Trazado_102338" data-name="Trazado 102338" d="M335.714,1809.573a1.905,1.905,0,0,0,1.714,0,.521.521,0,0,0,0-.986,1.872,1.872,0,0,0-1.714,0A.52.52,0,0,0,335.714,1809.573Z" fill="#24d2c1"/>
        </g>
        <g id="Grupo_70141" data-name="Grupo 70141">
          <path id="Trazado_102339" data-name="Trazado 102339" d="M334.536,1808.458a4.364,4.364,0,0,1,1.974-3.416,1.42,1.42,0,0,1,1.326-.171v0l.033.021.063.033.61.347-.157.264a2.076,2.076,0,0,1,.1.648,4.357,4.357,0,0,1-1.972,3.416,1.947,1.947,0,0,1-.687.252l-.129.217s-.617-.353-.67-.392l-.013-.011h0A1.454,1.454,0,0,1,334.536,1808.458Z" fill="#121214"/>
          <path id="Trazado_102340" data-name="Trazado 102340" d="M335.167,1808.821c0,1.259.881,1.768,1.972,1.14a4.363,4.363,0,0,0,1.972-3.418c0-1.259-.883-1.768-1.972-1.139A4.359,4.359,0,0,0,335.167,1808.821Z" fill="#303033"/>
        </g>
        <path id="Trazado_102341" data-name="Trazado 102341" d="M336.851,1794.71c.7-.408.715,10.063.715,10.063l-2.107,1.219S336.147,1795.115,336.851,1794.71Z" fill="#121214"/>
        <path id="Trazado_102342" data-name="Trazado 102342" d="M336.851,1794.71c.7-.408,1.34,10.424,1.34,10.424l-2.107,1.217S336.147,1795.115,336.851,1794.71Z" fill="#303033"/>
      </g>
      <g id="Grupo_70143" data-name="Grupo 70143">
        <path id="Trazado_102343" data-name="Trazado 102343" d="M267.064,1787.472l34.167,19.7-.826,1.426-34.165-19.7a.407.407,0,0,1-.171-.379,1.289,1.289,0,0,1,.581-1.008A.411.411,0,0,1,267.064,1787.472Z" fill="#121214"/>
        <path id="Trazado_102344" data-name="Trazado 102344" d="M300.819,1807.213a1.277,1.277,0,0,0-.582,1.01c0,.372.259.523.58.334a1.279,1.279,0,0,0,.583-1.008C301.4,1807.179,301.139,1807.027,300.819,1807.213Z" fill="#303033"/>
      </g>
      <g id="Grupo_70144" data-name="Grupo 70144">
        <path id="Trazado_102345" data-name="Trazado 102345" d="M296.672,1805.221l-.014-11.63h.9l.014,11.63a.23.23,0,0,1-.134.186.707.707,0,0,1-.637,0A.226.226,0,0,1,296.672,1805.221Z" fill="#121214"/>
        <path id="Trazado_102346" data-name="Trazado 102346" d="M296.792,1793.775a.7.7,0,0,0,.637,0c.176-.1.176-.267,0-.366a.7.7,0,0,0-.637,0A.2.2,0,0,0,296.792,1793.775Z" fill="#303033"/>
      </g>
      <g id="Grupo_70145" data-name="Grupo 70145">
        <path id="Trazado_102347" data-name="Trazado 102347" d="M289.966,1801.349l-.014-11.629h.9l.013,11.629a.224.224,0,0,1-.133.186.706.706,0,0,1-.639,0A.229.229,0,0,1,289.966,1801.349Z" fill="#121214"/>
        <path id="Trazado_102348" data-name="Trazado 102348" d="M290.085,1789.9a.711.711,0,0,0,.639,0c.177-.1.175-.264,0-.366a.706.706,0,0,0-.639,0A.193.193,0,0,0,290.085,1789.9Z" fill="#303033"/>
      </g>
      <g id="Grupo_70146" data-name="Grupo 70146">
        <path id="Trazado_102349" data-name="Trazado 102349" d="M283.261,1797.478l-.014-11.631h.9l.012,11.631a.226.226,0,0,1-.132.184.7.7,0,0,1-.638,0A.222.222,0,0,1,283.261,1797.478Z" fill="#121214"/>
        <path id="Trazado_102350" data-name="Trazado 102350" d="M283.381,1786.032a.7.7,0,0,0,.638,0,.2.2,0,0,0,0-.368.713.713,0,0,0-.638,0A.194.194,0,0,0,283.381,1786.032Z" fill="#303033"/>
      </g>
      <g id="Grupo_70147" data-name="Grupo 70147">
        <path id="Trazado_102351" data-name="Trazado 102351" d="M276.554,1793.607l-.013-11.629h.905l.012,11.629a.225.225,0,0,1-.133.184.7.7,0,0,1-.637,0A.222.222,0,0,1,276.554,1793.607Z" fill="#121214"/>
        <path id="Trazado_102352" data-name="Trazado 102352" d="M276.674,1782.161a.706.706,0,0,0,.639,0,.194.194,0,0,0,0-.367.708.708,0,0,0-.639,0A.2.2,0,0,0,276.674,1782.161Z" fill="#303033"/>
      </g>
      <g id="Grupo_70148" data-name="Grupo 70148">
        <path id="Trazado_102353" data-name="Trazado 102353" d="M269.848,1789.735l-.012-11.63h.9l.015,11.63a.225.225,0,0,1-.134.186.7.7,0,0,1-.637,0A.225.225,0,0,1,269.848,1789.735Z" fill="#121214"/>
        <path id="Trazado_102354" data-name="Trazado 102354" d="M269.968,1778.288a.705.705,0,0,0,.639,0c.176-.1.176-.263,0-.365a.706.706,0,0,0-.639,0C269.791,1778.022,269.793,1778.186,269.968,1778.288Z" fill="#303033"/>
      </g>
      <g id="Grupo_70149" data-name="Grupo 70149">
        <path id="Trazado_102355" data-name="Trazado 102355" d="M267.064,1774.83l34.167,19.7-.826,1.428-34.165-19.7a.41.41,0,0,1-.171-.38,1.291,1.291,0,0,1,.581-1.008A.408.408,0,0,1,267.064,1774.83Z" fill="#121214"/>
        <path id="Trazado_102356" data-name="Trazado 102356" d="M300.819,1794.571a1.272,1.272,0,0,0-.582,1.008c0,.372.259.525.58.336a1.283,1.283,0,0,0,.583-1.01C301.4,1794.535,301.139,1794.383,300.819,1794.571Z" fill="#303033"/>
      </g>
      <g id="Grupo_70155" data-name="Grupo 70155">
        <g id="Grupo_70150" data-name="Grupo 70150">
          <path id="Trazado_102357" data-name="Trazado 102357" d="M299.948,1816.654v-.837h2.9v.837a.717.717,0,0,1-.426.594,2.271,2.271,0,0,1-2.05,0A.715.715,0,0,1,299.948,1816.654Z" fill="#121214"/>
          <path id="Trazado_102358" data-name="Trazado 102358" d="M300.372,1816.407a2.264,2.264,0,0,0,2.05,0,.623.623,0,0,0,0-1.181,2.262,2.262,0,0,0-2.05,0A.624.624,0,0,0,300.372,1816.407Z" fill="#535359"/>
        </g>
        <g id="Grupo_70151" data-name="Grupo 70151">
          <path id="Trazado_102359" data-name="Trazado 102359" d="M300.207,1815.784v-23.472h2.38v23.472a.6.6,0,0,1-.348.487,1.862,1.862,0,0,1-1.683,0A.594.594,0,0,1,300.207,1815.784Z" fill="#121214"/>
          <path id="Trazado_102360" data-name="Trazado 102360" d="M300.556,1792.8a1.856,1.856,0,0,0,1.683,0,.509.509,0,0,0,0-.966,1.85,1.85,0,0,0-1.683,0A.51.51,0,0,0,300.556,1792.8Z" fill="#24d2c1"/>
        </g>
        <g id="Grupo_70152" data-name="Grupo 70152">
          <path id="Trazado_102361" data-name="Trazado 102361" d="M299.711,1792.585v-.977h3.373v.977a.841.841,0,0,1-.494.691,2.617,2.617,0,0,1-2.384,0A.839.839,0,0,1,299.711,1792.585Z" fill="#303033"/>
          <path id="Trazado_102362" data-name="Trazado 102362" d="M300.206,1792.3a2.629,2.629,0,0,0,2.384,0,.727.727,0,0,0,0-1.378,2.629,2.629,0,0,0-2.384,0A.728.728,0,0,0,300.206,1792.3Z" fill="#535359"/>
        </g>
        <g id="Grupo_70153" data-name="Grupo 70153">
          <path id="Trazado_102363" data-name="Trazado 102363" d="M300.189,1791.611v-2.832h2.42v2.832a.6.6,0,0,1-.352.495,1.868,1.868,0,0,1-1.714,0A.6.6,0,0,1,300.189,1791.611Z" fill="#303033"/>
          <path id="Trazado_102364" data-name="Trazado 102364" d="M300.543,1789.273a1.893,1.893,0,0,0,1.714,0,.521.521,0,0,0,0-.986,1.889,1.889,0,0,0-1.714,0A.52.52,0,0,0,300.543,1789.273Z" fill="#24d2c1"/>
        </g>
        <g id="Grupo_70154" data-name="Grupo 70154">
          <path id="Trazado_102365" data-name="Trazado 102365" d="M299.365,1788.158a4.36,4.36,0,0,1,1.972-3.414,1.438,1.438,0,0,1,1.328-.174h0l.036.019a.6.6,0,0,0,.06.035l.611.349-.156.264a2.093,2.093,0,0,1,.1.646,4.363,4.363,0,0,1-1.974,3.418,2.064,2.064,0,0,1-.683.252l-.131.216s-.617-.354-.67-.393l-.015-.012h0A1.447,1.447,0,0,1,299.365,1788.158Z" fill="#121214"/>
          <path id="Trazado_102366" data-name="Trazado 102366" d="M299.994,1788.524c0,1.257.882,1.767,1.974,1.139a4.367,4.367,0,0,0,1.974-3.418c0-1.259-.885-1.769-1.974-1.138A4.352,4.352,0,0,0,299.994,1788.524Z" fill="#303033"/>
        </g>
        <path id="Trazado_102367" data-name="Trazado 102367" d="M301.679,1774.411c.7-.406.716,10.064.716,10.064l-2.107,1.216S300.977,1774.818,301.679,1774.411Z" fill="#121214"/>
        <path id="Trazado_102368" data-name="Trazado 102368" d="M301.679,1774.411c.7-.406,1.342,10.426,1.342,10.426l-2.11,1.217S300.977,1774.818,301.679,1774.411Z" fill="#303033"/>
      </g>
      <g id="Grupo_70160" data-name="Grupo 70160">
        <g id="Grupo_70156" data-name="Grupo 70156">
          <path id="Trazado_102369" data-name="Trazado 102369" d="M408.359,1877.55v-.837h-2.9v.837a.722.722,0,0,0,.425.594,2.265,2.265,0,0,0,2.05,0A.713.713,0,0,0,408.359,1877.55Z" fill="#121214"/>
          <path id="Trazado_102370" data-name="Trazado 102370" d="M407.936,1877.3a2.267,2.267,0,0,1-2.05,0,.623.623,0,0,1,0-1.181,2.265,2.265,0,0,1,2.05,0A.624.624,0,0,1,407.936,1877.3Z" fill="#535359"/>
        </g>
        <g id="Grupo_70157" data-name="Grupo 70157">
          <path id="Trazado_102371" data-name="Trazado 102371" d="M408.1,1876.678v-23.469H405.72v23.469a.6.6,0,0,0,.349.489,1.853,1.853,0,0,0,1.682,0A.6.6,0,0,0,408.1,1876.678Z" fill="#121214"/>
          <path id="Trazado_102372" data-name="Trazado 102372" d="M407.751,1853.693a1.866,1.866,0,0,1-1.682,0,.511.511,0,0,1,0-.969,1.866,1.866,0,0,1,1.682,0A.511.511,0,0,1,407.751,1853.693Z" fill="#24d2c1"/>
        </g>
        <g id="Grupo_70158" data-name="Grupo 70158">
          <path id="Trazado_102373" data-name="Trazado 102373" d="M408.6,1853.483v-.98h-3.372v.98a.844.844,0,0,0,.493.689,2.611,2.611,0,0,0,2.384,0A.841.841,0,0,0,408.6,1853.483Z" fill="#303033"/>
          <path id="Trazado_102374" data-name="Trazado 102374" d="M408.1,1853.2a2.647,2.647,0,0,1-2.384,0,.728.728,0,0,1,0-1.379,2.635,2.635,0,0,1,2.384,0A.728.728,0,0,1,408.1,1853.2Z" fill="#535359"/>
        </g>
        <g id="Grupo_70159" data-name="Grupo 70159">
          <path id="Trazado_102375" data-name="Trazado 102375" d="M408.118,1852.506v-2.833H405.7v2.833a.609.609,0,0,0,.354.5,1.88,1.88,0,0,0,1.715,0A.6.6,0,0,0,408.118,1852.506Z" fill="#303033"/>
          <path id="Trazado_102376" data-name="Trazado 102376" d="M407.766,1850.171a1.911,1.911,0,0,1-1.715,0,.521.521,0,0,1,0-.986,1.88,1.88,0,0,1,1.715,0A.521.521,0,0,1,407.766,1850.171Z" fill="#535359"/>
        </g>
        <path id="Trazado_102377" data-name="Trazado 102377" d="M410.442,1846.842a3.532,3.532,0,1,1-3.532-3.532A3.534,3.534,0,0,1,410.442,1846.842Z" fill="#121214"/>
      </g>
    </g>
    <g id="Grupo_70169" data-name="Grupo 70169">
      <path id="Trazado_102378" data-name="Trazado 102378" d="M244.273,1834.548a7.739,7.739,0,0,1-3.795-.916,2.767,2.767,0,0,1,0-5.164,8.534,8.534,0,0,1,7.584,0,2.77,2.77,0,0,1,0,5.163A7.715,7.715,0,0,1,244.273,1834.548Z" fill="#121214" opacity="0.3"/>
      <g id="Grupo_70162" data-name="Grupo 70162">
        <path id="Trazado_102379" data-name="Trazado 102379" d="M249.139,1831.041v-.89H239.39v.89a2.423,2.423,0,0,0,1.432,2,7.622,7.622,0,0,0,6.895,0A2.4,2.4,0,0,0,249.139,1831.041Z" fill="#121214"/>
        <path id="Trazado_102380" data-name="Trazado 102380" d="M247.717,1832.136a7.612,7.612,0,0,1-6.895,0c-1.9-1.092-1.9-2.866,0-3.971a7.609,7.609,0,0,1,6.895,0C249.612,1829.264,249.612,1831.044,247.717,1832.136Z" fill="#535359"/>
      </g>
      <g id="Grupo_70163" data-name="Grupo 70163">
        <path id="Trazado_102381" data-name="Trazado 102381" d="M248.273,1830.034v-2.7h-8.01v2.7a2.007,2.007,0,0,0,1.173,1.645,6.232,6.232,0,0,0,5.657,0A2.008,2.008,0,0,0,248.273,1830.034Z" fill="#121214"/>
        <path id="Trazado_102382" data-name="Trazado 102382" d="M247.093,1828.967a6.264,6.264,0,0,1-5.657,0c-1.562-.9-1.562-2.354,0-3.257a6.27,6.27,0,0,1,5.657,0C248.655,1826.613,248.655,1828.069,247.093,1828.967Z" fill="#535359"/>
      </g>
      <g id="Grupo_70164" data-name="Grupo 70164">
        <path id="Trazado_102383" data-name="Trazado 102383" d="M248.057,1827.131V1819.9h-7.594v7.231a1.893,1.893,0,0,0,1.114,1.557,5.907,5.907,0,0,0,5.362,0A1.9,1.9,0,0,0,248.057,1827.131Z" fill="#ff8400"/>
        <path id="Rectngulo_5542" data-name="Rectngulo 5542" d="M.613,0H.818A.611.611,0,0,1,1.43.611v3.28a.614.614,0,0,1-.614.614h-.2A.611.611,0,0,1,0,3.895V.613A.613.613,0,0,1,.613,0Z" transform="translate(243.545 1823.019)" fill="#e6dab0"/>
        <path id="Trazado_102384" data-name="Trazado 102384" d="M246.939,1821.445a5.937,5.937,0,0,1-5.362,0c-1.482-.855-1.482-2.233,0-3.088a5.937,5.937,0,0,1,5.362,0C248.419,1819.212,248.419,1820.6,246.939,1821.445Z" fill="#ff9d26"/>
      </g>
      <g id="Grupo_70165" data-name="Grupo 70165">
        <path id="Trazado_102385" data-name="Trazado 102385" d="M248.273,1820.032v-2.087h-8.01v2.087a2.006,2.006,0,0,0,1.173,1.643,6.233,6.233,0,0,0,5.657,0A2.007,2.007,0,0,0,248.273,1820.032Z" fill="#121214"/>
        <path id="Trazado_102386" data-name="Trazado 102386" d="M247.093,1819.574a6.267,6.267,0,0,1-5.657,0c-1.562-.9-1.562-2.355,0-3.257a6.27,6.27,0,0,1,5.657,0C248.655,1817.219,248.655,1818.677,247.093,1819.574Z" fill="#535359"/>
      </g>
      <g id="Grupo_70166" data-name="Grupo 70166">
        <path id="Trazado_102387" data-name="Trazado 102387" d="M249.139,1818.294v-.555H239.39v.555a2.424,2.424,0,0,0,1.432,2,7.629,7.629,0,0,0,6.895,0A2.4,2.4,0,0,0,249.139,1818.294Z" fill="#121214"/>
        <path id="Trazado_102388" data-name="Trazado 102388" d="M247.717,1819.725a7.631,7.631,0,0,1-6.895,0c-1.9-1.094-1.9-2.868,0-3.973a7.613,7.613,0,0,1,6.895,0C249.612,1816.852,249.612,1818.631,247.717,1819.725Z" fill="#535359"/>
      </g>
      <g id="Grupo_70167" data-name="Grupo 70167">
        <path id="Trazado_102389" data-name="Trazado 102389" d="M248.273,1817.579v-2.7h-8.01v2.7a2.007,2.007,0,0,0,1.173,1.644,6.236,6.236,0,0,0,5.657,0A2.01,2.01,0,0,0,248.273,1817.579Z" fill="#121214"/>
        <path id="Trazado_102390" data-name="Trazado 102390" d="M247.093,1816.51a6.261,6.261,0,0,1-5.657,0c-1.562-.9-1.562-2.352,0-3.256a6.273,6.273,0,0,1,5.657,0C248.655,1814.158,248.655,1815.613,247.093,1816.51Z" fill="#535359"/>
      </g>
      <path id="Trazado_102391" data-name="Trazado 102391" d="M241.851,1818.084a.363.363,0,0,1-.363-.364v-4.814a4.989,4.989,0,0,1,2.254-3.907l.693-.4a1.621,1.621,0,0,1,2.619,1.512v3.122l-.726-.325v-2.8a1.137,1.137,0,0,0-.429-1.025,1.116,1.116,0,0,0-1.1.143l-.692.4a4.251,4.251,0,0,0-1.892,3.277v4.814A.364.364,0,0,1,241.851,1818.084Z" fill="#303033"/>
      <g id="Grupo_70168" data-name="Grupo 70168">
        <path id="Trazado_102392" data-name="Trazado 102392" d="M241.372,1817.125l-.32.186.549.95.319-.186a.268.268,0,0,0,.114-.252.853.853,0,0,0-.387-.671A.277.277,0,0,0,241.372,1817.125Z" fill="#121214"/>
        <path id="Trazado_102393" data-name="Trazado 102393" d="M241.327,1817.339a.852.852,0,0,1,.386.67c0,.247-.172.346-.385.223a.854.854,0,0,1-.388-.669C240.94,1817.315,241.112,1817.215,241.327,1817.339Z" fill="#535359"/>
      </g>
    </g>
    <g id="Grupo_70170" data-name="Grupo 70170">
      <path id="Trazado_102394" data-name="Trazado 102394" d="M334.872,1841.755c-12.138-7.006-31.816-7.006-43.953,0s-12.13,18.364,0,25.379c12.137,7,31.815,7,43.953,0C347.006,1860.119,347.006,1848.765,334.872,1841.755Z" opacity="0.3"/>
      <path id="Trazado_102395" data-name="Trazado 102395" d="M322.82,1827.612c-2.1-2.407-5.84-3.874-9.855-3.874h-.132c-4.021,0-7.749,1.467-9.856,3.874l-15.247,17.4a15.721,15.721,0,0,0-1.069,1.229l-.422.466h.043c-4.41,6.063-2.351,13.312,6.195,18.25,11.279,6.518,29.56,6.518,40.84,0,9.365-5.408,10.93-13.594,4.744-19.937Z" fill="#603913"/>
      <path id="Trazado_102396" data-name="Trazado 102396" d="M322.82,1827.612c-2.1-2.407-5.84-3.874-9.855-3.874h-.132c11.6,2.9,5.025,49.143,20.484,41.224,9.365-5.408,10.93-13.594,4.744-19.937Z" fill="#3c2415"/>
      <path id="Trazado_102397" data-name="Trazado 102397" d="M302.719,1839.848c-.385-.289-1.063-.03-1.505.57s-.476,1.317-.088,1.606,1.058.018,1.489-.584S303.105,1840.127,302.719,1839.848Z" fill="#754c29"/>
      <path id="Trazado_102398" data-name="Trazado 102398" d="M294.2,1840.978c-.219.378-.185.8.066.932s.617-.061.827-.449.184-.8-.062-.935S294.406,1840.6,294.2,1840.978Z" fill="#7a4100"/>
      <path id="Trazado_102399" data-name="Trazado 102399" d="M310.4,1846.379c-.288.006-.508.373-.494.813s.247.777.529.771.5-.371.485-.807S310.681,1846.379,310.4,1846.379Z" fill="#7a4100"/>
      <path id="Trazado_102400" data-name="Trazado 102400" d="M293.525,1853.679c-.273-.073-.58.22-.687.646s.027.806.3.884.58-.216.689-.641S293.792,1853.745,293.525,1853.679Z" fill="#7a4100"/>
      <path id="Trazado_102401" data-name="Trazado 102401" d="M305.136,1855.85c-.271-.056-.562.255-.643.682s.081.825.361.876.558-.257.643-.687S305.422,1855.9,305.136,1855.85Z" fill="#7a4100"/>
      <path id="Trazado_102402" data-name="Trazado 102402" d="M317.6,1851.382c-.272.057-.43.452-.346.878s.373.734.643.677.439-.445.349-.878C318.177,1851.633,317.877,1851.334,317.6,1851.382Z" fill="#7a4100"/>
      <path id="Trazado_102403" data-name="Trazado 102403" d="M309.7,1838.369c-.274-.1-.6.158-.752.576s-.057.812.211.908.6-.156.747-.565S309.965,1838.461,309.7,1838.369Z" fill="#7a4100"/>
      <path id="Trazado_102404" data-name="Trazado 102404" d="M303.33,1833.293c-.274.348-.309.763-.1.937s.621.036.891-.3.322-.765.1-.93C304.005,1832.815,303.6,1832.95,303.33,1833.293Z" fill="#7a4100"/>
      <path id="Trazado_102405" data-name="Trazado 102405" d="M315.539,1829.713c-.272.071-.4.471-.286.892s.418.716.7.637.4-.466.285-.892S315.812,1829.643,315.539,1829.713Z" fill="#7a4100"/>
      <path id="Trazado_102406" data-name="Trazado 102406" d="M312.68,1825.429c-.436-.1-.83.058-.878.331-.068.271.222.566.661.671s.815-.061.878-.332S313.1,1825.526,312.68,1825.429Z" fill="#7a4100"/>
      <path id="Trazado_102407" data-name="Trazado 102407" d="M304.429,1847.851c-.465-.124-1,.361-1.183,1.079s.036,1.407.51,1.53c.457.121.984-.37,1.173-1.089S304.89,1847.963,304.429,1847.851Z" fill="#754c29"/>
      <path id="Trazado_102408" data-name="Trazado 102408" d="M313.36,1858.77c-.473.051-.8.689-.719,1.421.077.749.519,1.3,1,1.258s.8-.688.728-1.434S313.84,1858.725,313.36,1858.77Z" fill="#754c29"/>
      <path id="Trazado_102409" data-name="Trazado 102409" d="M291.2,1848.272c-.383-.28-1.055-.018-1.5.584s-.48,1.313-.1,1.6,1.061.027,1.5-.58S291.6,1848.557,291.2,1848.272Z" fill="#754c29"/>
      <path id="Trazado_102410" data-name="Trazado 102410" d="M312.837,1831.9c-.484.027-.837.633-.813,1.38s.448,1.336.923,1.31.848-.638.815-1.376S313.315,1831.874,312.837,1831.9Z" fill="#754c29"/>
      <path id="Trazado_102411" data-name="Trazado 102411" d="M317.7,1840.619c-.373.016-.673.521-.645,1.116s.36,1.081.747,1.058.671-.518.646-1.116S318.1,1840.6,317.7,1840.619Z" fill="#754c29"/>
      <path id="Trazado_102412" data-name="Trazado 102412" d="M324.011,1864.949c-.339.176-.4.752-.129,1.284s.775.832,1.117.659.409-.755.131-1.287S324.353,1864.772,324.011,1864.949Z" fill="#754c29"/>
      <path id="Trazado_102413" data-name="Trazado 102413" d="M305,1827.2c-.417.436-.525,1.012-.237,1.266.28.269.844.131,1.256-.307s.515-1.011.228-1.28S305.407,1826.764,305,1827.2Z" fill="#754c29"/>
      <path id="Trazado_102414" data-name="Trazado 102414" d="M298.223,1862.62c-.349-.155-.838.168-1.075.724-.245.541-.149,1.122.2,1.278s.839-.171,1.08-.716S298.581,1862.785,298.223,1862.62Z" fill="#754c29"/>
    </g>
    <g id="Grupo_70171" data-name="Grupo 70171">
      <path id="Trazado_102415" data-name="Trazado 102415" d="M369.761,1868.572c-9.684-5.588-25.381-5.588-35.063,0s-9.677,14.648,0,20.244,25.379,5.585,35.063,0S379.44,1874.162,369.761,1868.572Z" opacity="0.3"/>
      <path id="Trazado_102416" data-name="Trazado 102416" d="M360.146,1857.292a10.54,10.54,0,0,0-7.862-3.093h-.105a10.536,10.536,0,0,0-7.863,3.093l-12.161,13.88c-.311.327-.594.649-.853.982l-.336.373H331c-3.521,4.836-1.877,10.618,4.94,14.556,9,5.2,23.581,5.2,32.582,0,7.469-4.314,8.714-10.842,3.781-15.9Z" fill="#603913"/>
      <path id="Trazado_102417" data-name="Trazado 102417" d="M360.146,1857.292a10.54,10.54,0,0,0-7.862-3.093h-.105c9.254,2.312,4.009,39.2,16.344,32.884,7.469-4.314,8.714-10.842,3.781-15.9Z" fill="#3c2415"/>
      <path id="Trazado_102418" data-name="Trazado 102418" d="M344.112,1867.048c-.309-.229-.848-.021-1.2.457s-.382,1.051-.07,1.281.844.012,1.19-.466S344.419,1867.273,344.112,1867.048Z" fill="#754c29"/>
      <path id="Trazado_102419" data-name="Trazado 102419" d="M337.32,1867.952c-.175.3-.148.638.051.743s.492-.049.66-.358.148-.637-.05-.746S337.481,1867.648,337.32,1867.952Z" fill="#7a4100"/>
      <path id="Trazado_102420" data-name="Trazado 102420" d="M350.24,1872.26c-.226.005-.4.3-.391.649s.194.619.421.613.4-.3.389-.643S350.462,1872.26,350.24,1872.26Z" fill="#7a4100"/>
      <path id="Trazado_102421" data-name="Trazado 102421" d="M336.778,1878.084c-.219-.059-.463.175-.549.515s.023.645.238.7.464-.172.55-.511S336.99,1878.136,336.778,1878.084Z" fill="#7a4100"/>
      <path id="Trazado_102422" data-name="Trazado 102422" d="M346.041,1879.815c-.221-.045-.45.2-.513.544s.063.658.288.7.445-.2.511-.547S346.267,1879.858,346.041,1879.815Z" fill="#7a4100"/>
      <path id="Trazado_102423" data-name="Trazado 102423" d="M355.985,1876.251c-.218.045-.343.361-.275.7s.3.585.512.54.351-.354.279-.7S356.2,1876.212,355.985,1876.251Z" fill="#7a4100"/>
      <path id="Trazado_102424" data-name="Trazado 102424" d="M349.685,1865.87c-.219-.078-.481.125-.6.46s-.044.648.169.726.477-.128.6-.453S349.894,1865.944,349.685,1865.87Z" fill="#7a4100"/>
      <path id="Trazado_102425" data-name="Trazado 102425" d="M344.6,1861.821c-.219.277-.246.608-.077.748s.5.027.711-.241.258-.612.081-.744S344.816,1861.548,344.6,1861.821Z" fill="#7a4100"/>
      <path id="Trazado_102426" data-name="Trazado 102426" d="M354.34,1858.966c-.219.057-.318.373-.229.71s.332.571.554.509.318-.372.226-.711S354.556,1858.908,354.34,1858.966Z" fill="#7a4100"/>
      <path id="Trazado_102427" data-name="Trazado 102427" d="M352.056,1855.546c-.348-.075-.662.05-.7.267-.054.216.175.45.527.534s.648-.048.7-.266S352.393,1855.626,352.056,1855.546Z" fill="#7a4100"/>
      <path id="Trazado_102428" data-name="Trazado 102428" d="M345.474,1873.434c-.369-.1-.794.288-.944.861s.03,1.123.408,1.222.785-.295.936-.869S345.843,1873.522,345.474,1873.434Z" fill="#754c29"/>
      <path id="Trazado_102429" data-name="Trazado 102429" d="M352.6,1882.144c-.379.042-.637.55-.574,1.133s.415,1.04.8,1,.641-.547.581-1.142S352.984,1882.106,352.6,1882.144Z" fill="#754c29"/>
      <path id="Trazado_102430" data-name="Trazado 102430" d="M334.927,1873.771c-.306-.225-.842-.014-1.2.464s-.382,1.051-.074,1.276.846.021,1.194-.462S335.237,1874,334.927,1873.771Z" fill="#754c29"/>
      <path id="Trazado_102431" data-name="Trazado 102431" d="M352.183,1860.712c-.385.019-.669.505-.65,1.1s.358,1.064.739,1.043.676-.51.649-1.1S352.564,1860.69,352.183,1860.712Z" fill="#754c29"/>
      <path id="Trazado_102432" data-name="Trazado 102432" d="M356.066,1867.666c-.3.012-.536.416-.514.89s.285.86.6.845.533-.415.514-.892S356.38,1867.654,356.066,1867.666Z" fill="#754c29"/>
      <path id="Trazado_102433" data-name="Trazado 102433" d="M361.1,1887.073c-.273.142-.323.6-.1,1.026s.617.664.888.523.327-.6.107-1.026S361.368,1886.933,361.1,1887.073Z" fill="#754c29"/>
      <path id="Trazado_102434" data-name="Trazado 102434" d="M345.931,1856.961c-.332.348-.418.808-.189,1.01s.672.1,1-.247.41-.8.182-1.019S346.258,1856.612,345.931,1856.961Z" fill="#754c29"/>
      <path id="Trazado_102435" data-name="Trazado 102435" d="M340.526,1885.214c-.279-.121-.669.135-.857.579s-.12.9.161,1.02.669-.137.861-.574S340.811,1885.348,340.526,1885.214Z" fill="#754c29"/>
    </g>
    <g id="Grupo_70175" data-name="Grupo 70175">
      <path id="Trazado_102436" data-name="Trazado 102436" d="M279.433,1827.031c-5.7-3.682-14.277-5.617-19.144-4.328s-4.2,5.323,1.5,9,14.279,5.616,19.148,4.327S285.137,1830.707,279.433,1827.031Z" fill="#121214" opacity="0.3"/>
      <path id="Trazado_102437" data-name="Trazado 102437" d="M260.206,1801.553s-.255,1.6,0,1.806c15.873-1.2,20.5.571,20.738.3a5.647,5.647,0,0,0,.313-1.789v-1.507l-19.87-.34Z" fill="#7a4100"/>
      <path id="Trazado_102438" data-name="Trazado 102438" d="M262.707,1786.908c-.335,3.8-4.271,11.432-2.885,14.227.66,1.321,2.674.043,10.871,0,8.109-.041,10.543,1.416,10.723.514.983-4.92-.772-9.319-2.462-14.615C278.2,1785.614,262.568,1786.117,262.707,1786.908Z" fill="#ff8400"/>
      <path id="Trazado_102439" data-name="Trazado 102439" d="M282.4,1768.7c-.358-2.341-4.07-4.1-4.07-4.1l-1.238,4.314.728,8.462a29.254,29.254,0,0,0,1.413,5.745c.272.186,4.1-.725,3.951-1.269C282.129,1778.342,282.756,1771.037,282.4,1768.7Z" fill="#f0c6b4"/>
      <path id="Trazado_102440" data-name="Trazado 102440" d="M287.364,1792.9a1.829,1.829,0,0,1-.713-.493l-1.926.469-.37.9a6.833,6.833,0,0,0-.123,1.611c.117.186,4.6.853,4.542.465C288.447,1795.145,288.761,1793.7,287.364,1792.9Z" fill="#3c2415"/>
      <path id="Trazado_102441" data-name="Trazado 102441" d="M263.852,1764.979c-6.345.268-5.859,6.458-5.859,6.458a37.028,37.028,0,0,0-2.968,7.672c.144.545,2.227,1.77,2.227,1.77l1.462-.927a10.538,10.538,0,0,0,3.159-4.45.436.436,0,0,1,.257.126l.968.43,3.082-5.85-.6-4.562A4.723,4.723,0,0,0,263.852,1764.979Z" fill="#f0c6b4"/>
      <path id="Trazado_102442" data-name="Trazado 102442" d="M261.873,1775.5a2.02,2.02,0,0,1,.488.3c.147.405,1.178-1.092,1.178-1.092a7.012,7.012,0,0,1-.826-1.949A11.479,11.479,0,0,1,261.873,1775.5Z" fill="#c7a496"/>
      <path id="Trazado_102443" data-name="Trazado 102443" d="M271.161,1759.7l-2.452,1.4a5.059,5.059,0,0,1-.431,2.287c-.456.528-2.4.8-2.4.8l-.3,2.376,2.266,6.411,5.274.685,3.965-3.08.273-4.28v-1.241l-2.233-2.052Z" fill="#f0c6b4"/>
      <path id="Trazado_102444" data-name="Trazado 102444" d="M268.706,1761.406a1.646,1.646,0,0,0,1.228,1.565,1.746,1.746,0,0,0,.674,1.683c5.2,4.407,5.939,1.11,5.939,1.11l-3.217-4.232S268.678,1760.994,268.706,1761.406Z" fill="#c7a496"/>
      <path id="Trazado_102445" data-name="Trazado 102445" d="M260.327,1814.937a14.888,14.888,0,0,1,.459,5.294c-.138.736-2,3.254-2.194,3.87-.358,1.112-.517,2.6-.028,3.18s2.083,1.413,2.994,1.028a2.785,2.785,0,0,0,1.414-2.14c.21-.842.206-2.351.414-2.84a11.922,11.922,0,0,0,.655-2.123c.153-.787-.228-3.78.964-5.71C265,1814.9,260.327,1814.937,260.327,1814.937Z" fill="#121214"/>
      <path id="Trazado_102446" data-name="Trazado 102446" d="M282.663,1831.417c-.564-.3-3.3-2.892-3.688-4.007a23.421,23.421,0,0,1,.773-7.6s-5.01-.953-5.095-.31.686,5.034.386,6.886a6.743,6.743,0,0,0-.185,3.312c.395,1.112,2.573,1.828,2.573,1.828a16.891,16.891,0,0,0,2.321,2.736c.757.513,1.7,1.375,3.21.491C283.818,1834.246,283.76,1832.008,282.663,1831.417Z" fill="#121214"/>
      <path id="Trazado_102447" data-name="Trazado 102447" d="M278.034,1786.679c-.558-.493-7.341-1.747-7.341-1.747s-6.525,1.781-7.337,2.637c-3.468,9.587-2.954,21.012-2.954,21.012s-1.327,5.01.044,6.506a3.4,3.4,0,0,0,4.28.939c1.795-1.2,1.454-5.991,1.454-5.991s4.191-13.576,4.8-13.693,3.155,15.747,3.155,15.747-.94,5.823,0,7.275c.986,1.969,5.137,1.714,5.906,0,.508-1.124.214-8.085.058-9.212C280.731,1803.3,280.5,1789.552,278.034,1786.679Z" fill="#2a4e68"/>
      <path id="Trazado_102448" data-name="Trazado 102448" d="M270.548,1797.087l.436-.745-4.622-2.739Z" fill="#1d374e"/>
      <path id="Trazado_102449" data-name="Trazado 102449" d="M271.327,1797.087l4.553-4.508-4.9,3.763Z" fill="#1d374e"/>
      <path id="Trazado_102450" data-name="Trazado 102450" d="M263.842,1785.787l-.486,1.782s8.944,3.509,14.678-.89c-.128-.363-.613-1.747-.613-1.747Z" fill="#603913"/>
      <path id="Trazado_102451" data-name="Trazado 102451" d="M276.547,1763.932s.531,6.276-4.091,6.621-6.575-6.364-6.575-6.364l-2.039.714s1.052,8.073-1.712,10.725c.5,2.828,2.254,2.956,1.712,10.159.755.754,9.312,3.065,13.579-.855.231-5.792,1.752-7.693,2.281-11.057.686-6.248-1.373-9.278-1.373-9.278Z" fill="#535359"/>
      <path id="Trazado_102452" data-name="Trazado 102452" d="M278.817,1783.971a1.653,1.653,0,0,0-1.273-.827s-.068.745-.087,1.085c-.237,1.266-5.245,2.347-5.845,3.854a1.86,1.86,0,0,0,1.608,2.588c.962.042,6-2.544,6.012-3.517.008-.441-.307-1.038-.358-1.569C278.813,1784.942,278.991,1784.374,278.817,1783.971Z" fill="#ba6000"/>
      <path id="Trazado_102453" data-name="Trazado 102453" d="M263.9,1784.229c-.021-.34.037-1.085.037-1.085s-1.086.1-1.4.827c-.172.4.009.971-.054,1.614-.054.531-.364,1.128-.357,1.569.014.973,4.279,3.94,7.409,3.517a1.887,1.887,0,0,0,1.605-2.588C270.547,1786.577,264.14,1785.495,263.9,1784.229Z" fill="#ba6000"/>
      <path id="Trazado_102454" data-name="Trazado 102454" d="M268.847,1792.35c.06.9.761,1.624,2.236,1.369.069-1.347.644-3.278.018-3.811S268.787,1791.446,268.847,1792.35Z" fill="#ba6000"/>
      <path id="Trazado_102455" data-name="Trazado 102455" d="M271.8,1789.928c-.746.628-.062,2.912.018,4.5,1.74.306,2.575-.554,2.646-1.62S272.538,1789.3,271.8,1789.928Z" fill="#ba6000"/>
      <path id="Trazado_102456" data-name="Trazado 102456" d="M271.458,1787.73a1.915,1.915,0,1,0,1.9,1.913A1.907,1.907,0,0,0,271.458,1787.73Z" fill="#7a4100"/>
      <path id="Trazado_102457" data-name="Trazado 102457" d="M261.754,1807.744c-.632.5-.883,4.022-.539,4.6s2.851.874,3.34.541,1.112-4.166.6-4.717S262.387,1807.24,261.754,1807.744Z" fill="#0f2034"/>
      <path id="Trazado_102458" data-name="Trazado 102458" d="M275.916,1809.914c-.56.583-.33,4.1.09,4.633s2.939.481,3.379.089.54-4.28-.045-4.758S276.475,1809.331,275.916,1809.914Z" fill="#0f2034"/>
      <path id="Trazado_102459" data-name="Trazado 102459" d="M266.18,1779c.17.955,11.472-1.083,11.472-1.083S266.18,1778.483,266.18,1779Z" fill="#303033"/>
      <g id="Grupo_70174" data-name="Grupo 70174">
        <path id="Trazado_102460" data-name="Trazado 102460" d="M311.039,1799.005l-72.8-10.519a.687.687,0,0,0-.2,1.36l72.8,10.514c.035,0,.065,0,.1,0a.683.683,0,0,0,.1-1.359Z" fill="#7a4100"/>
        <g id="Grupo_70173" data-name="Grupo 70173">
          <path id="Trazado_102461" data-name="Trazado 102461" d="M311.9,1796.6l-.76,5.809a26.109,26.109,0,0,0,14.988,1.953l.756-5.812A26.444,26.444,0,0,1,311.9,1796.6Z" fill="#bcbec0"/>
          <path id="Trazado_102462" data-name="Trazado 102462" d="M311.9,1796.6c-.1,1.235,1.991,2.392,4.23,2.666a27.241,27.241,0,0,0,10.754-.716C315.941,1798.349,312.536,1795.928,311.9,1796.6Z" fill="#939598"/>
          <g id="Grupo_70172" data-name="Grupo 70172">
            <path id="Trazado_102463" data-name="Trazado 102463" d="M323.163,1799.085a9.654,9.654,0,0,0-8.739,0c-2.411,1.392-2.411,3.649,0,5.044a9.672,9.672,0,0,0,8.739,0C325.577,1802.734,325.577,1800.477,323.163,1799.085Z" opacity="0.3"/>
            <path id="Trazado_102464" data-name="Trazado 102464" d="M320.768,1796.272a2.635,2.635,0,0,0-1.962-.771h-.024a2.632,2.632,0,0,0-1.96.771l-3.031,3.46c-.077.081-.149.162-.213.243l-.083.094h.008c-.877,1.207-.466,2.645,1.232,3.628a8.97,8.97,0,0,0,8.119,0c1.863-1.074,2.173-2.7.943-3.962Z" fill="#603913"/>
            <path id="Trazado_102465" data-name="Trazado 102465" d="M320.768,1796.272a2.635,2.635,0,0,0-1.962-.771h-.024c2.307.577,1,9.771,4.072,8.2,1.863-1.074,2.173-2.7.943-3.962Z" fill="#3c2415"/>
            <path id="Trazado_102466" data-name="Trazado 102466" d="M316.771,1798.7c-.078-.057-.213-.006-.3.114s-.1.262-.02.319.212,0,.3-.115S316.848,1798.759,316.771,1798.7Z" fill="#754c29"/>
            <path id="Trazado_102467" data-name="Trazado 102467" d="M315.079,1798.929c-.045.076-.037.159.012.184s.123-.012.164-.088.039-.159-.012-.186S315.118,1798.852,315.079,1798.929Z" fill="#7a4100"/>
            <path id="Trazado_102468" data-name="Trazado 102468" d="M318.3,1800c-.059,0-.1.074-.1.161s.049.154.105.152.1-.072.1-.158S318.354,1800,318.3,1800Z" fill="#7a4100"/>
            <path id="Trazado_102469" data-name="Trazado 102469" d="M314.943,1801.454c-.054-.014-.117.045-.136.129s0,.16.058.175.117-.042.138-.126S315,1801.469,314.943,1801.454Z" fill="#7a4100"/>
            <path id="Trazado_102470" data-name="Trazado 102470" d="M317.252,1801.885c-.055-.01-.112.051-.129.137s.017.162.072.174.111-.051.128-.137S317.308,1801.9,317.252,1801.885Z" fill="#7a4100"/>
            <path id="Trazado_102471" data-name="Trazado 102471" d="M319.731,1801c-.054.013-.085.09-.069.175s.074.145.126.135.088-.09.07-.177S319.785,1800.988,319.731,1801Z" fill="#7a4100"/>
            <path id="Trazado_102472" data-name="Trazado 102472" d="M318.16,1798.41c-.053-.019-.121.032-.149.114s-.011.162.042.181.118-.031.148-.11S318.211,1798.428,318.16,1798.41Z" fill="#7a4100"/>
            <path id="Trazado_102473" data-name="Trazado 102473" d="M316.894,1797.4c-.055.071-.063.153-.021.188s.125.007.177-.06.066-.153.021-.186S316.948,1797.334,316.894,1797.4Z" fill="#7a4100"/>
            <path id="Trazado_102474" data-name="Trazado 102474" d="M319.32,1796.69c-.055.013-.079.093-.057.177s.083.142.137.127.081-.093.058-.178S319.374,1796.676,319.32,1796.69Z" fill="#7a4100"/>
            <path id="Trazado_102475" data-name="Trazado 102475" d="M318.749,1795.839c-.085-.02-.164.01-.172.064s.043.112.132.133.16-.012.174-.066S318.835,1795.857,318.749,1795.839Z" fill="#7a4100"/>
            <path id="Trazado_102476" data-name="Trazado 102476" d="M317.111,1800.3c-.094-.025-.2.072-.235.215s.006.28.1.3.2-.074.232-.217S317.2,1800.316,317.111,1800.3Z" fill="#754c29"/>
            <path id="Trazado_102477" data-name="Trazado 102477" d="M318.886,1802.465c-.1.011-.157.138-.143.284s.1.259.2.25.162-.136.147-.285S318.983,1802.456,318.886,1802.465Z" fill="#754c29"/>
            <path id="Trazado_102478" data-name="Trazado 102478" d="M314.481,1800.379c-.076-.055-.209,0-.3.116s-.094.261-.019.317.211.006.3-.113S314.559,1800.435,314.481,1800.379Z" fill="#754c29"/>
            <path id="Trazado_102479" data-name="Trazado 102479" d="M318.784,1797.124c-.1.005-.17.126-.164.275s.09.265.185.26.168-.129.163-.274S318.878,1797.118,318.784,1797.124Z" fill="#754c29"/>
            <path id="Trazado_102480" data-name="Trazado 102480" d="M319.752,1798.858c-.075,0-.135.1-.13.222s.073.214.148.21.133-.1.13-.222S319.828,1798.854,319.752,1798.858Z" fill="#754c29"/>
            <path id="Trazado_102481" data-name="Trazado 102481" d="M321.005,1803.694c-.068.035-.081.15-.027.255s.154.168.222.132.081-.15.027-.255S321.074,1803.661,321.005,1803.694Z" fill="#754c29"/>
            <path id="Trazado_102482" data-name="Trazado 102482" d="M317.224,1796.189c-.083.087-.1.2-.048.252s.169.027.252-.06.1-.2.045-.255S317.306,1796.1,317.224,1796.189Z" fill="#754c29"/>
            <path id="Trazado_102483" data-name="Trazado 102483" d="M315.877,1803.233c-.068-.032-.168.033-.213.144s-.03.221.04.253.168-.035.215-.142S315.947,1803.264,315.877,1803.233Z" fill="#754c29"/>
          </g>
          <path id="Trazado_102484" data-name="Trazado 102484" d="M311.141,1802.413c-.092,1.235,2,2.392,4.237,2.668a27.334,27.334,0,0,0,10.751-.715C315.186,1804.156,311.781,1801.74,311.141,1802.413Z" fill="#939598"/>
        </g>
        <path id="Trazado_102485" data-name="Trazado 102485" d="M311.484,1798.8l-5.515-.806a1.031,1.031,0,0,0-.293,2.041l5.513.808c.052,0,.1.008.15.008a1.031,1.031,0,0,0,.145-2.051Z" fill="#939598"/>
      </g>
      <path id="Trazado_102486" data-name="Trazado 102486" d="M258.714,1779.952c-1.093-1.371-3.4-1.321-3.689-.843-1.513,4.681,1.018,7.892,1.288,10.031l3.352-.408c-.3-.392-.554-.742-.629-.863C258.325,1786.522,259.783,1781.3,258.714,1779.952Z" fill="#f0c6b4"/>
      <path id="Trazado_102487" data-name="Trazado 102487" d="M261.159,1791.8a6.131,6.131,0,0,0-.4-1.616c-.132-.178-.654-.861-1.093-1.449a2.264,2.264,0,0,0-2.016-.406,2.694,2.694,0,0,0-1.341.739c.072.577-.523,2.972-.313,4.04.2,1.013,2.11,1.641,3.535,1.74a1.611,1.611,0,0,0,1.5-1.684s-.508-.056-.409-.969A.418.418,0,0,1,261.159,1791.8Z" fill="#3c2415"/>
      <path id="Trazado_102488" data-name="Trazado 102488" d="M279.232,1783.118c1.582,5.563,3.808,6.889,5.123,10.657a4,4,0,0,1,3.009-.877c-1.571-1.882-2.468-9.48-4.181-11.049C281.642,1781.194,279.388,1782.648,279.232,1783.118Z" fill="#f0c6b4"/>
      <path id="Trazado_102489" data-name="Trazado 102489" d="M288.689,1796.029a13.959,13.959,0,0,0-4.222,0c-.285.156-.336,1.169,0,1.683s4.046,1.531,4.459.832S289.246,1796.3,288.689,1796.029Z" fill="#3c2415"/>
      <path id="Trazado_102490" data-name="Trazado 102490" d="M287.364,1794.4v.784c-.644.008-1.152.216-1.169.507-.018.322.573.62,1.32.662s1.367-.18,1.387-.5a5.717,5.717,0,0,0-.553-1.826Z" fill="#3c2415"/>
      <path id="Trazado_102491" data-name="Trazado 102491" d="M276.135,1755.213l-1.83-1.049-3.531-.173-2,1.908-.4,2.793a6.443,6.443,0,0,0,0,1.679,2.772,2.772,0,0,0,1.8,2.258,1.66,1.66,0,0,0,.161,1.154c.812,1.319,3.983,2.675,4.443,2.683a2.2,2.2,0,0,0,1.8-.682c.221-.322.933-5.556.933-5.556a2.04,2.04,0,0,0,.3-.6C277.7,1756.392,276.135,1755.213,276.135,1755.213Z" fill="#f0c6b4"/>
      <path id="Trazado_102492" data-name="Trazado 102492" d="M273.225,1752.881a4.456,4.456,0,0,0-4.958,2.435,6.607,6.607,0,0,0,.115,5.055s.02-1.338.57-1.081c1.283.595,1.283,2.178,1.878,2.221s1.026-1.626,1.068-2.562-1.594-2.025-.7-2.879,2.493,1.936,4.675.571C277.416,1755.676,274.584,1753.121,273.225,1752.881Z" fill="#ff8400"/>
    </g>
    <g id="Grupo_70179" data-name="Grupo 70179">
      <path id="Trazado_102493" data-name="Trazado 102493" d="M236.153,1840.995,205.2,1858.938l-9.037-5.217,30.96-17.943Z" fill="#121214" opacity="0.3"/>
      <g id="Grupo_70176" data-name="Grupo 70176">
        <path id="Trazado_102494" data-name="Trazado 102494" d="M299.62,1919.061,203.391,1863.5l38.52-22.239,96.229,55.558Z" fill="#754c29"/>
        <path id="Trazado_102495" data-name="Trazado 102495" d="M274.725,1884.625,272,1891.9l1.079.779,1.648,7.529Z" opacity="0.2"/>
        <path id="Trazado_102496" data-name="Trazado 102496" d="M290.847,1894.752l2.013,8.049-2.013,6.62Z" opacity="0.2"/>
        <path id="Trazado_102497" data-name="Trazado 102497" d="M247.487,1860.486l-2.726,6.374,2.726,12.329Z" opacity="0.2"/>
        <path id="Trazado_102498" data-name="Trazado 102498" d="M241.911,1841.263l2.916,15.882,2.53-4.433,4.674,5.417-1.753,10.891,3.31-1.158.781,13.423-2.338-1.124.974,5.581,4.283,3.041,1.753-24.658-1.753-.062,1.753-6.918,9.506,10.122,3.735-3.2,3.714,3.2v12.894l2.585,1.872-1.235,10.068,3.505-7.208,2.029-7.953-1.057-4.144,4.868-.045v10.029l4.751-2.618,1.418-1.86,3.111-.892-.785,15.629-.532,4.893,2.474,5.647,3.171-4.869V1892.1l2.085-9.321,3.078,6v10.528l5.019-7.439-1.168-4.382h6.91l2.061,4.611v11.478l4.136-9.509,2.3,2.8,3.411-2.8,2.653,7,7.361-4.25Z" opacity="0.2"/>
        <path id="Trazado_102499" data-name="Trazado 102499" d="M241.911,1885.742l-38.52-22.24,38.52-22.239Z" fill="#3c2415"/>
      </g>
      <g id="Grupo_70178" data-name="Grupo 70178">
        <path id="Trazado_102500" data-name="Trazado 102500" d="M213.264,1800.173c3.935-2.274,7.485-2.4,9.986-.778h0l6.026,3.48-2.477,2.808a16.047,16.047,0,0,1,.172,2.405L205.652,1857.2l-6.1-3.524V1823.92C199.55,1815.174,205.69,1804.545,213.264,1800.173Z" fill="#939598"/>
        <path id="Trazado_102501" data-name="Trazado 102501" d="M219.363,1803.694c7.569-4.37,13.709-.827,13.709,7.916v29.761l-27.42,15.834v-29.762C205.652,1818.7,211.788,1808.067,219.363,1803.694Z" fill="#bcbec0"/>
        <g id="Grupo_70177" data-name="Grupo 70177">
          <path id="Trazado_102502" data-name="Trazado 102502" d="M215,1832.866l-.816-1.364-.483.279v1.838l-1.256.725v-5.479l1.8-1.037c1.021-.591,1.9-.692,1.9.674a3.157,3.157,0,0,1-.765,2.026l1.029,1.529Zm-1.3-2.233.453-.26a1.34,1.34,0,0,0,.758-1.163c0-.474-.262-.474-.758-.186l-.453.261Z" fill="#939598"/>
          <path id="Trazado_102503" data-name="Trazado 102503" d="M217.682,1829.665c.424-.242.731-.033.731.456a1.6,1.6,0,0,1-.731,1.3c-.423.245-.73.036-.73-.456A1.607,1.607,0,0,1,217.682,1829.665Z" fill="#939598"/>
          <path id="Trazado_102504" data-name="Trazado 102504" d="M219.373,1824.864l1.256-.726v5.479l-1.256.726Z" fill="#939598"/>
          <path id="Trazado_102505" data-name="Trazado 102505" d="M222.321,1826.989c.424-.246.73-.036.73.452a1.605,1.605,0,0,1-.73,1.3c-.422.243-.728.033-.728-.458A1.6,1.6,0,0,1,222.321,1826.989Z" fill="#939598"/>
          <path id="Trazado_102506" data-name="Trazado 102506" d="M224.015,1822.184l1.84-1.064c1.021-.59,1.9-.656,1.9.726a3.629,3.629,0,0,1-1.9,3.018l-.585.335v1.739l-1.255.725Zm1.78,1.568a1.341,1.341,0,0,0,.73-1.2c0-.489-.262-.522-.73-.252l-.525.3v1.45Z" fill="#939598"/>
        </g>
      </g>
    </g>
    <g id="Grupo_70181" data-name="Grupo 70181">
      <path id="Trazado_102507" data-name="Trazado 102507" d="M257.269,1942.371,189.828,1912V1898.82l67.44,30.374Z" fill="#603913"/>
      <g id="Grupo_70180" data-name="Grupo 70180">
        <path id="Trazado_102508" data-name="Trazado 102508" d="M223.868,1899.653l-49.059-18.069v13.177L189.828,1912V1898.82Z" fill="#3c2415"/>
        <path id="Trazado_102509" data-name="Trazado 102509" d="M241.375,1906.1l15.894,23.1v13.177l18.232-10.526v-13.177Z" fill="#3c2415"/>
      </g>
      <path id="Trazado_102510" data-name="Trazado 102510" d="M257.269,1931.321l-67.44-30.374-15.019-17.236v.934l15.019,17.234,67.44,30.374,18.232-10.526v-.932Z" fill="#121214"/>
      <path id="Trazado_102511" data-name="Trazado 102511" d="M193.041,1871.058l-18.232,10.526,15.019,17.235,67.44,30.374,18.232-10.526-52.61-38.938Z" fill="#754c29"/>
      <path id="Trazado_102512" data-name="Trazado 102512" d="M210.563,1884.084l-6.859,2.265-6.976-2.333v1.091l4.563,2.635-4.445,1.476v1.091l2.414,1.394,4.443-2.567,10.336,5.968,2.414-1.394v-1.09l-10.338-4.878,4.446-2.564Z" fill="#ba6000"/>
      <path id="Trazado_102513" data-name="Trazado 102513" d="M208.149,1882.692l-4.445,2.565-4.563-2.635-2.413,1.392,4.563,2.636-4.445,2.566,2.414,1.394,4.443-2.566,10.336,5.968,2.414-1.394-10.338-5.967,4.446-2.567Z" fill="#ff8400"/>
    </g>
  </g>
</svg>
