<svg xmlns="http://www.w3.org/2000/svg" width="343.048" height="175.939" viewBox="0 0 343.048 175.939">
  <g id="Grupo_70232" data-name="Grupo 70232" transform="translate(-999.039 -1070.412)">
    <g id="Grupo_70229" data-name="Grupo 70229" transform="translate(999.039 1070.412)">
      <g id="Grupo_70228" data-name="Grupo 70228">
        <rect id="Rectángulo_5571" data-name="Rectángulo 5571" width="337.395" height="7.555" transform="translate(2.943 82.866)" fill="#aa6868"/>
        <g id="Grupo_70227" data-name="Grupo 70227">
          <g id="cascet" transform="translate(0 86.589)">
            <rect id="Rectángulo_5572" data-name="Rectángulo 5572" width="330.343" height="65.169" transform="translate(6.556 19.674)" fill="#b57878"/>
            <rect id="Rectángulo_5573" data-name="Rectángulo 5573" width="329.935" height="20.903" transform="translate(6.556 0.821)" fill="#b57878"/>
            <rect id="Rectángulo_5574" data-name="Rectángulo 5574" width="330.343" height="3.559" transform="translate(6.556 19.674)" fill="#aa6868"/>
            <rect id="Rectángulo_5575" data-name="Rectángulo 5575" width="330.343" height="3.559" transform="translate(6.556)" fill="#aa6868"/>
            <path id="Rectángulo_5576" data-name="Rectángulo 5576" d="M1.965,0H50.9A1.965,1.965,0,0,1,52.87,1.965v8.777A1.966,1.966,0,0,1,50.9,12.708H1.965A1.965,1.965,0,0,1,0,10.743V1.965A1.965,1.965,0,0,1,1.965,0Z" transform="translate(0 9.017)" fill="#b57878"/>
            <path id="Rectángulo_5577" data-name="Rectángulo 5577" d="M1.965,0H50.906a1.966,1.966,0,0,1,1.966,1.966v8.776a1.966,1.966,0,0,1-1.966,1.966H1.965A1.965,1.965,0,0,1,0,10.743V1.965A1.965,1.965,0,0,1,1.965,0Z" transform="translate(290.176 9.017)" fill="#b57878"/>
            <rect id="Rectángulo_5578" data-name="Rectángulo 5578" width="324.195" height="5.739" transform="translate(11.476 79.104)" fill="#aa6868"/>
            <path id="Rectángulo_5579" data-name="Rectángulo 5579" d="M1.966,0H50.907a1.965,1.965,0,0,1,1.965,1.965v8.776a1.965,1.965,0,0,1-1.965,1.965H1.966A1.966,1.966,0,0,1,0,10.74V1.966A1.966,1.966,0,0,1,1.966,0Z" transform="translate(2.048 76.645)" fill="#b57878"/>
            <rect id="Rectángulo_5580" data-name="Rectángulo 5580" width="52.87" height="12.705" rx="1.965" transform="translate(286.764 76.645)" fill="#b57878"/>
          </g>
          <g id="Grupo_70220" data-name="Grupo 70220" transform="translate(167.685)">
            <path id="Trazado_102635" data-name="Trazado 102635" d="M1066.034,1153.775v-81.28a2.11,2.11,0,0,1,2.135-2.083H1230.4a2.11,2.11,0,0,1,2.133,2.083v81.28Z" transform="translate(-1066.034 -1070.412)" fill="#b57878"/>
            <rect id="Rectángulo_5581" data-name="Rectángulo 5581" width="149.428" height="68.307" transform="translate(8.537 8.541)" fill="#f7eadc"/>
            <rect id="Rectángulo_5582" data-name="Rectángulo 5582" width="139.709" height="58.592" transform="translate(13.396 13.398)" fill="#fff"/>
          </g>
          <path id="Trazado_102636" data-name="Trazado 102636" d="M1105.6,1122.919s8.432-23.077,29.487-22c0,0,10.8-13.5,26.454-10.26,0,0,7.018,18.357-4.318,31.852Z" transform="translate(-838.883 -1040.73)" fill="#fff"/>
          <g id="Grupo_70226" data-name="Grupo 70226" transform="translate(55.471 47.816)">
            <g id="Grupo_70221" data-name="Grupo 70221" transform="translate(0 5.401)">
              <path id="Trazado_102637" data-name="Trazado 102637" d="M1150.425,1115.61l-50.747-4.31s-65.4,8.515-77.8,4.47c0,0-3.995-5.837,7.443-22.269l64.989-.008,73.709-1.82Z" transform="translate(-1021.201 -1091.674)" fill="#5b4f5a"/>
            </g>
            <path id="Trazado_102638" data-name="Trazado 102638" d="M1160.031,1102.45s-4.348-15.643-39.316-11.731l-47.791,1.74-2.39,6.3,82.327,5.647Z" transform="translate(-947.059 -1088.654)" fill="#4d3c4b"/>
            <g id="haed" transform="translate(208.722)">
              <g id="Grupo_70225" data-name="Grupo 70225">
                <g id="Grupo_70222" data-name="Grupo 70222">
                  <path id="Trazado_102639" data-name="Trazado 102639" d="M1132.177,1117.39c4.085,1.019,9.083,1.134,12.642-1.469,5.6-4.1,6.723-14.645,1.812-19.568-3.251-3.264-7.106-4.167-11.653-4.045-2.586.078-5.119-.283-7-2.278-.227-.24-.54-.533-.846-.4-.285.125-.305.51-.378.811-.24.956-1.336,1.4-2.312,1.544a40.476,40.476,0,0,0-6.95,1.259,2.228,2.228,0,0,0-1.257.891,2.609,2.609,0,0,0-.16,1.58,54.266,54.266,0,0,0,.884,5.374,1.219,1.219,0,0,1-.193.313,2.649,2.649,0,0,1-1.307.546q-5.429,1.228-10.863,2.45a63.541,63.541,0,0,1,7.824,12.762,16.762,16.762,0,0,1,12.562-2.546A31.618,31.618,0,0,0,1132.177,1117.39Z" transform="translate(-1104.592 -1089.39)" fill="#ff8f67"/>
                  <path id="Trazado_102640" data-name="Trazado 102640" d="M1127.909,1097.693a7.163,7.163,0,0,1,1.755-1.794c.46-.306,1.379-.363,1.7-.768.406-.528-.083-1.5-.092-2.083a2.565,2.565,0,0,1,.218.2,1.913,1.913,0,0,1-.375-1.106c.19.216.358.451.538.679-.483-1.016-1.314-2.113-1.1-3.3,2.145,1.945,5.289.488,7.569,2.19,2,1.489,1.925,3.149,2.152,5.389.12,1.191.075,2.39.23,3.589.316,2.435.864,4.886.594,7.351a11.116,11.116,0,0,1-3.211,6.515,11.878,11.878,0,0,1-2.969,2.188c-.919.471-2.313.528-3.128,1.047-.856.545-1.252,1.567-2.248,2.077a6.727,6.727,0,0,1-2.833.628,13.6,13.6,0,0,1-5.837-1.3c-3.214-1.419-6.342-3.469-9.857-3.469.871-.63.438-2.538.981-3.664.145-.3,2.1-3.191,2.345-2.986-.108-.088-.22-.175-.333-.258.187-.28,2.075-2.2,2.47-1.852a1.177,1.177,0,0,0-.988-.253,6.828,6.828,0,0,1,2.59-2.458,1.945,1.945,0,0,1,.9-.28,2.409,2.409,0,0,1,1.041.35,7.021,7.021,0,0,0,3.6.9,2.083,2.083,0,0,0,1.174-.4,1.843,1.843,0,0,0-.278-2.691,5.336,5.336,0,0,0-2.918-.886A9.7,9.7,0,0,0,1127.909,1097.693Z" transform="translate(-1094.943 -1089.516)" fill="#a86060"/>
                  <path id="Trazado_102641" data-name="Trazado 102641" d="M1115.934,1100.064a.287.287,0,0,1-.075-.012c-3.009-.909-5.011-3.537-6.162-5.579a.262.262,0,0,1,.1-.355.259.259,0,0,1,.355.1c1.1,1.962,3.016,4.478,5.859,5.339a.259.259,0,0,1,.173.325A.263.263,0,0,1,1115.934,1100.064Z" transform="translate(-1096.97 -1082.654)" fill="#894c4c"/>
                  <path id="Trazado_102642" data-name="Trazado 102642" d="M1117.888,1096.821a.263.263,0,0,1-.258-.218c-.152-.859-1.867-1.482-2.516-1.65a.261.261,0,0,1,.13-.505c.273.07,2.663.724,2.9,2.065a.262.262,0,0,1-.213.3Z" transform="translate(-1089.072 -1082.114)" fill="#894c4c"/>
                  <path id="Trazado_102643" data-name="Trazado 102643" d="M1115.721,1096.512a.261.261,0,0,1-.263-.26v-1.346a.262.262,0,0,1,.523,0v1.346A.259.259,0,0,1,1115.721,1096.512Z" transform="translate(-1088.261 -1081.808)" fill="#894c4c"/>
                </g>
                <g id="Grupo_70224" data-name="Grupo 70224" transform="translate(27.906 3.224)">
                  <g id="Grupo_70223" data-name="Grupo 70223">
                    <path id="Trazado_102644" data-name="Trazado 102644" d="M1116.124,1091.36a.651.651,0,0,0-.01.318,3.064,3.064,0,0,1-.278,1.8.743.743,0,1,0,1.3.713,4.584,4.584,0,0,0,.436-2.781.744.744,0,0,0-1.452-.052Z" transform="translate(-1115.742 -1090.804)" fill="#a86060"/>
                  </g>
                </g>
              </g>
            </g>
            <path id="Trazado_102645" data-name="Trazado 102645" d="M1151.725,1115.641l-52.374-1.257s-64.483,3.374-76.885-.671c0,0-4.911-.7,6.527-17.125l64.989-.007,73.709-1.82Z" transform="translate(-1020.875 -1081.633)" fill="#5b4f5a"/>
            <path id="Trazado_102646" data-name="Trazado 102646" d="M1153.071,1110.571c.125,0-3.87-8.112-4.24-8.625a29.2,29.2,0,0,0-6.846-6.8,29.759,29.759,0,0,0-5.061-2.853,19.69,19.69,0,0,0-7.8-1.337q-4.952.1-9.894.19l-20.006.378-7.767.153c-3.864.075-5.091,2.14-7.033,5.351-1.267,2.115-2.543,4.22-3.81,6.33q-2.44,4.047-4.878,8.087Z" transform="translate(-939.233 -1087.364)" fill="#7a8ecb"/>
            <path id="Trazado_102647" data-name="Trazado 102647" d="M1148.3,1093.857a18.858,18.858,0,0,1,8.467,4.007c4.082,3.286,10.252,11.841,6.29,17.285-2.47,3.4-9.223,3.387-12.93,3.489-9.456.258-18.734-1.469-28.138-1.9-10.157-.47-20.321.14-30.386.741a217.529,217.529,0,0,1-22.414.15c-2.2-13.07,13.216-20.867,23.675-23.562q5.3-.1,10.608-.22l20.632-.428c2.608-.055,5.233-.193,7.839-.148,2.778.048,5.567.068,8.35.045A39.55,39.55,0,0,1,1148.3,1093.857Z" transform="translate(-949.403 -1083.89)" fill="#4d3c4b"/>
            <path id="Trazado_102648" data-name="Trazado 102648" d="M1113,1109.685s-4.38-9.922-8.182-13.181l6.515-2.17,4.057,15.351Z" transform="translate(-895.537 -1082.275)" fill="#f7eadc"/>
            <path id="Trazado_102649" data-name="Trazado 102649" d="M1107.587,1094.5a27.44,27.44,0,0,1,5.236,3.053,22.118,22.118,0,0,1,7.439,9.854c.13.315,1.714,5.5,1.682,5.5-.749.008-1.5.02-2.255.03a8.706,8.706,0,0,0-2.976.088c-.773.32-1.344,1.229-2.113,1.662-2.252,1.262-3.221-2.228-3.9-3.607q-1.682-3.458-3.369-6.918-1.374-2.824-2.741-5.659c-.508-1.049-1.091-2.062-1.635-3.094a2.957,2.957,0,0,0-2.15-1.412c-.478-.12-1.3-.135-1.612-.523A18.845,18.845,0,0,1,1107.587,1094.5Z" transform="translate(-903.979 -1083.681)" fill="#4d3c4b"/>
            <path id="Trazado_102650" data-name="Trazado 102650" d="M1115.662,1093.473a.224.224,0,0,1-.152-.063,2.158,2.158,0,0,1-.2-2.34.206.206,0,0,1,.288-.095.211.211,0,0,1,.1.285c-.005.013-.561,1.161.123,1.847a.214.214,0,0,1,0,.3A.2.2,0,0,1,1115.662,1093.473Z" transform="translate(-880.167 -1087.363)" fill="#894c4c"/>
            <path id="Trazado_102651" data-name="Trazado 102651" d="M1112.281,1093.547a.217.217,0,0,1-.2-.133,3.07,3.07,0,0,1-.13-2.62.215.215,0,1,1,.373.213h0a2.751,2.751,0,0,0,.155,2.245.215.215,0,0,1-.117.281A.231.231,0,0,1,1112.281,1093.547Z" transform="translate(-885.133 -1087.76)" fill="#894c4c"/>
          </g>
          <path id="Trazado_102652" data-name="Trazado 102652" d="M1055.728,1088.871a8.831,8.831,0,0,1,4.107-1.3l111.318.385-.406,39.812H1001.509Z" transform="translate(-995.326 -1044.629)" fill="#b57878"/>
        </g>
      </g>
      <rect id="Rectángulo_5583" data-name="Rectángulo 5583" width="159.112" height="6.072" transform="translate(173.773 76.56)" fill="#b57878"/>
    </g>
  </g>
</svg>
