<svg xmlns="http://www.w3.org/2000/svg" width="156.674" height="156.174" viewBox="0 0 156.674 156.174">
  <g id="Grupo_70362" data-name="Grupo 70362" transform="translate(-772.856 -2689.642)">
    <path id="Trazado_102817" data-name="Trazado 102817" d="M922.582,2767.727a71.373,71.373,0,0,0-69.242-71.333.554.554,0,0,0-.23-.052h-1.83l-.087,0h0l-.087,0h-1.83a.549.549,0,0,0-.229.052,71.363,71.363,0,0,0-53.232,116.374l0,0c.029.036.06.07.089.106.213.26.431.514.647.771q.686.816,1.4,1.61c.2.221.391.445.591.663q.928,1.016,1.9,1.989c.218.221.439.438.659.655q.918.906,1.864,1.778.252.231.506.459.949.854,1.929,1.671c.238.2.477.4.718.6q1.062.865,2.154,1.692c.24.181.484.356.726.533q.873.641,1.763,1.254c.26.179.517.361.778.536.437.293.88.576,1.323.859v.013c.127.081.257.155.384.234.176.111.353.219.529.328q.432.266.868.526c.186.111.37.225.556.334l.118.069c.3.174.6.339.9.508l.13.073v.011h0c.13.073.262.139.393.211.324.179.65.354.977.528l.025.013c.324.172.648.344.974.512.06.03.118.062.177.093l.372.186c.077.039.155.075.232.113l.249.123c.3.145.593.291.891.433.12.057.239.117.359.174.176.082.354.159.531.24.22.1.441.2.661.3.249.111.5.228.746.336l.026,0c.119.051.235.109.354.16v.005l.081.031c.115.049.234.091.35.14.091.038.18.081.272.119v-.012l.066.026c.413.17.828.334,1.244.5.316.123.631.251.95.369.289.108.58.212.871.316.119.043.235.092.354.134v-.014c.089.031.178.06.267.09.508.177,1.017.353,1.529.518s1.052.329,1.582.486c.107.032.213.066.32.1.385.112.772.217,1.159.323.571.156,1.143.308,1.72.45.132.033.263.072.395.1v-.012l.146.033c.446.107.892.212,1.34.31.118.025.236.056.354.081.385.082.772.158,1.159.233.283.056.567.107.851.159q.478.087.959.168c.241.041.48.087.72.125.3.047.6.088.893.131.254.037.508.071.762.106.489.066.978.124,1.468.18.2.023.4.053.608.074l.327.034c.056.006.112.009.168.014.454.045.909.079,1.363.115.275.022.549.047.823.065s.557.033.836.049c.115.006.228.017.344.023.136.006.272.006.408.012l.18.009c.2.008.41.022.615.029q2.406.081,4.815,0c.205-.007.409-.021.614-.029l.19-.009c.129-.006.257-.006.385-.012s.239-.017.359-.023c.278-.016.557-.03.835-.049.178-.012.355-.026.533-.04.1-.007.194-.017.291-.025.46-.036.92-.071,1.38-.117l.126-.01.349-.035c.206-.022.411-.052.617-.076.485-.055.97-.113,1.454-.178.258-.035.516-.07.773-.108.3-.043.593-.083.888-.129.236-.038.471-.084.707-.124q.492-.082.984-.172c.28-.051.561-.1.841-.157q.574-.111,1.147-.23c.126-.027.251-.059.377-.087.445-.1.889-.2,1.333-.308q1.3-.309,2.576-.665c.253-.07.506-.137.759-.21.134-.039.267-.08.4-.12q.85-.252,1.693-.523c.069-.023.139-.043.208-.066.251-.082.5-.174.751-.259q1.448-.492,2.865-1.042c.3-.114.592-.226.886-.345l.374-.151c.255-.1.514-.2.768-.308l.01,0h0c.124-.052.244-.113.368-.166l.029,0c.324-.141.644-.29.966-.435l.08-.037c.428-.193.855-.387,1.278-.589.279-.132.555-.269.831-.405l.261-.127q.469-.234.936-.473c.2-.1.392-.206.588-.309.118-.063.238-.124.355-.187.272-.145.544-.29.814-.439l.11-.062c.12-.066.241-.127.36-.194v-.009c.385-.216.772-.43,1.152-.653.2-.113.386-.233.58-.348q.406-.243.808-.49c.189-.116.378-.231.566-.349.122-.077.247-.149.369-.226h0l.013-.008v-.012c.455-.29.909-.581,1.357-.881.228-.153.452-.312.679-.468q.956-.657,1.89-1.344c.213-.157.429-.311.64-.47q1.125-.847,2.213-1.739c.217-.177.43-.356.645-.535.7-.583,1.384-1.175,2.058-1.783.105-.1.211-.19.315-.286.681-.622,1.348-1.262,2.005-1.911.2-.2.4-.389.59-.587q.993-1,1.951-2.047c.172-.188.339-.38.509-.571q.764-.852,1.5-1.731c.192-.229.386-.455.576-.687.038-.046.077-.09.114-.136l0,0a71.08,71.08,0,0,0,16.007-45.035Z" fill="#d4dae9"/>
    <rect id="Rectángulo_5626" data-name="Rectángulo 5626" width="156.674" height="156.174" transform="translate(772.856 2689.642)" fill="none"/>
    <g id="Grupo_70363" data-name="Grupo 70363">
      <path id="Trazado_102818" data-name="Trazado 102818" d="M829.377,2748.226v52.659a3.508,3.508,0,0,0,4.164,4.98h38.7a10.042,10.042,0,0,0,10.041-10.042v-47.6Z" fill="#36d28f"/>
      <path id="Trazado_102819" data-name="Trazado 102819" d="M827.854,2734.728h59.651v8.437H827.854Z" fill="#b2f0bf"/>
      <path id="Trazado_102820" data-name="Trazado 102820" d="M868.412,2777.152a15.522,15.522,0,1,1-15.522-15.522A15.522,15.522,0,0,1,868.412,2777.152Z" fill="#fff"/>
      <path id="Trazado_102821" data-name="Trazado 102821" d="M858,2774.732a11.38,11.38,0,0,1,18.051,9.219,7.842,7.842,0,1,0-5.69,9.857,11.381,11.381,0,0,1-17.01-11.023h-.916a11.381,11.381,0,0,1-17.009,11.023,7.841,7.841,0,1,0-5.692-9.857,11.381,11.381,0,0,1,18.051-9.219l.459-.793A11.381,11.381,0,0,1,847.2,2753.7a7.842,7.842,0,1,0,11.382,0,11.38,11.38,0,0,1-1.041,20.242Z" fill="#6e7589"/>
      <path id="Trazado_102822" data-name="Trazado 102822" d="M858.269,2777.152a5.379,5.379,0,1,1-5.379-5.38A5.379,5.379,0,0,1,858.269,2777.152Z" fill="#6e7589"/>
      <path id="Trazado_102823" data-name="Trazado 102823" d="M835.636,2744.8a1.635,1.635,0,1,0-1.154-.479A1.645,1.645,0,0,0,835.636,2744.8Z" fill="#96a2c3"/>
      <path id="Trazado_102824" data-name="Trazado 102824" d="M887.505,2732.715H864.51V2728.8a4.9,4.9,0,0,0-4.9-4.9H846.168a4.9,4.9,0,0,0-4.9,4.9v3.919H818.274a1.633,1.633,0,0,0-1.633,1.633v8.817a1.633,1.633,0,0,0,1.633,1.633h3.592v51.025a11.689,11.689,0,0,0,11.675,11.675h38.7a11.688,11.688,0,0,0,11.674-11.675V2744.8h3.592a1.633,1.633,0,0,0,1.633-1.633v-8.817A1.633,1.633,0,0,0,887.505,2732.715Zm-42.97-3.919a1.635,1.635,0,0,1,1.633-1.633h13.444a1.635,1.635,0,0,1,1.633,1.633v3.919h-16.71Zm41.338,12.736H842.167a1.633,1.633,0,0,0,0,3.266h29.99v8.531a1.633,1.633,0,0,0,3.266,0V2744.8h5.225v51.025a8.418,8.418,0,0,1-8.409,8.409h-38.7a8.418,8.418,0,0,1-8.409-8.409V2744.8h3.96a1.633,1.633,0,0,0,0-3.266h-9.185v-5.552h65.966Z" fill="#8791ae"/>
      <path id="Trazado_102825" data-name="Trazado 102825" d="M840.068,2765.756a17.246,17.246,0,0,0-3.462,5.991,12.994,12.994,0,0,0-8.507,12.2,1.633,1.633,0,0,0,3.2.467,6.193,6.193,0,0,1,4.693-4.313,17.135,17.135,0,0,0,5.9,10.211,6.219,6.219,0,0,1-6.083,1.906,1.633,1.633,0,0,0-1.2,3,12.988,12.988,0,0,0,14.821-1.267,17.257,17.257,0,0,0,6.924,0,12.934,12.934,0,0,0,8.313,3,13.041,13.041,0,0,0,6.507-1.734,1.633,1.633,0,0,0-1.194-3,6.216,6.216,0,0,1-6.084-1.906,17.137,17.137,0,0,0,5.9-10.211,6.194,6.194,0,0,1,4.692,4.313,1.633,1.633,0,0,0,3.2-.467,13.064,13.064,0,0,0-6.505-11.265,12.878,12.878,0,0,0-2-.936,17.256,17.256,0,0,0-3.463-5.992,12.988,12.988,0,0,0-6.313-13.473,1.633,1.633,0,0,0-2,2.537,6.2,6.2,0,0,1,1.39,6.217,17.222,17.222,0,0,0-11.791,0,6.2,6.2,0,0,1,1.389-6.218,1.633,1.633,0,0,0-2-2.537,13,13,0,0,0-6.314,13.473Zm1.244,3.725a13.186,13.186,0,0,0,.908,1.51,13.291,13.291,0,0,0-1.764-.03A14.149,14.149,0,0,1,841.312,2769.481Zm15.324,7.671a3.746,3.746,0,1,1-3.746-3.747A3.75,3.75,0,0,1,856.636,2777.152Zm-17.265,3.2a6.2,6.2,0,0,1,3.992,6.906A13.866,13.866,0,0,1,839.371,2780.352Zm3.978,13.084a9.478,9.478,0,0,0-9.334-16.161,9.73,9.73,0,0,1,12.048-1.717,7.005,7.005,0,0,0,4.793,8.3,9.728,9.728,0,0,1-7.507,9.573Zm8.686-2.422a12.941,12.941,0,0,0,.855-1.542,12.989,12.989,0,0,0,.854,1.541A14.255,14.255,0,0,1,852.035,2791.014Zm10.382-3.756a6.2,6.2,0,0,1,3.991-6.907A13.868,13.868,0,0,1,862.417,2787.258Zm9.348-9.983a9.479,9.479,0,0,0-9.335,16.161,9.735,9.735,0,0,1-7.507-9.574,7,7,0,0,0,4.794-8.3,9.732,9.732,0,0,1,12.048,1.717Zm-6.44-6.314a13.306,13.306,0,0,0-1.765.03,13.124,13.124,0,0,0,.908-1.511A14.272,14.272,0,0,1,865.325,2770.961Zm-8.445-7.118a6.192,6.192,0,0,1-7.98,0,13.99,13.99,0,0,1,7.98,0Zm-13.321-3.1a9.476,9.476,0,0,0,18.661,0,9.66,9.66,0,0,1,.416,2.805,9.765,9.765,0,0,1-4.956,8.489,6.994,6.994,0,0,0-9.581,0,9.732,9.732,0,0,1-4.54-11.294Z" fill="#8791ae"/>
      <path id="Trazado_102826" data-name="Trazado 102826" d="M873.79,2761.493a1.632,1.632,0,1,0-1.155-.478A1.645,1.645,0,0,0,873.79,2761.493Z" fill="#96a2c3"/>
    </g>
  </g>
</svg>
