<svg xmlns="http://www.w3.org/2000/svg" width="156.674" height="156.174" viewBox="0 0 156.674 156.174">
  <g id="Grupo_70364" data-name="Grupo 70364" transform="translate(-944.432 -2689.642)">
    <path id="Trazado_102827" data-name="Trazado 102827" d="M1094.158,2767.727a71.373,71.373,0,0,0-69.242-71.333.554.554,0,0,0-.23-.052h-1.83l-.087,0h0l-.087,0h-1.83a.549.549,0,0,0-.229.052,71.363,71.363,0,0,0-53.232,116.374l0,0c.029.036.06.07.089.106.213.26.431.514.647.771q.686.816,1.4,1.61c.2.221.391.445.591.663q.929,1.016,1.9,1.989c.218.221.438.438.659.655q.918.906,1.864,1.778.252.231.506.459.949.854,1.929,1.671c.238.2.477.4.718.6q1.062.865,2.154,1.692c.24.181.484.356.726.533q.872.641,1.763,1.254c.26.179.516.361.778.536.437.293.88.576,1.323.859v.013c.127.081.257.155.384.234.175.111.352.219.529.328q.432.266.868.526c.186.111.37.225.556.334l.118.069c.3.174.6.339.9.508l.13.073v.011h0c.13.073.262.139.393.211.324.179.65.354.977.528l.025.013c.323.172.647.344.974.512.06.03.118.062.177.093l.372.186c.077.039.155.075.232.113l.249.123c.3.145.592.291.891.433.12.057.239.117.359.174.176.082.354.159.531.24.22.1.441.2.661.3.249.111.5.228.746.336l.026,0c.119.051.235.109.354.16v.005l.081.031c.115.049.234.091.349.14.092.038.181.081.272.119v-.012l.067.026c.413.17.828.334,1.243.5.317.123.632.251.951.369.289.108.58.212.871.316.119.043.235.092.354.134v-.014c.089.031.178.06.267.09.508.177,1.016.353,1.529.518s1.052.329,1.582.486c.107.032.213.066.32.1.385.112.772.217,1.159.323.571.156,1.143.308,1.72.45.132.033.263.072.4.1v-.012l.146.033c.446.107.892.212,1.34.31.118.025.236.056.354.081.385.082.772.158,1.159.233.283.056.567.107.851.159q.478.087.959.168c.24.041.48.087.72.125.3.047.595.088.893.131.254.037.508.071.762.106.489.066.978.124,1.468.18.2.023.4.053.608.074l.327.034c.056.006.112.009.168.014.454.045.909.079,1.363.115.275.022.548.047.823.065s.557.033.836.049c.115.006.228.017.344.023.136.006.272.006.408.012l.18.009c.205.008.41.022.615.029q2.406.081,4.815,0c.2-.007.409-.021.614-.029l.19-.009c.128-.006.257-.006.385-.012s.239-.017.358-.023c.279-.016.558-.03.836-.049.178-.012.355-.026.533-.04.1-.007.194-.017.291-.025.46-.036.92-.071,1.38-.117l.126-.01.349-.035c.206-.022.411-.052.617-.076.485-.055.97-.113,1.454-.178.258-.035.516-.07.773-.108.3-.043.593-.083.888-.129.236-.038.471-.084.707-.124q.492-.082.983-.172c.281-.051.562-.1.842-.157q.574-.111,1.147-.23c.126-.027.251-.059.377-.087.445-.1.889-.2,1.333-.308q1.3-.309,2.576-.665c.253-.07.506-.137.758-.21.134-.039.268-.08.4-.12q.851-.252,1.692-.523c.07-.023.14-.043.209-.066.251-.082.5-.174.751-.259q1.446-.492,2.865-1.042c.3-.114.592-.226.886-.345l.374-.151c.255-.1.514-.2.767-.308l.011,0h0c.124-.052.244-.113.368-.166l.029,0c.324-.141.644-.29.966-.435l.08-.037c.428-.193.855-.387,1.278-.589.278-.132.555-.269.831-.405l.261-.127q.469-.234.936-.473c.2-.1.392-.206.588-.309.118-.063.237-.124.355-.187.272-.145.544-.29.814-.439l.11-.062c.12-.066.241-.127.36-.194v-.009c.385-.216.772-.43,1.152-.653.194-.113.386-.233.58-.348q.405-.243.808-.49c.189-.116.378-.231.566-.349.122-.077.247-.149.369-.226h0l.013-.008v-.012c.455-.29.909-.581,1.357-.881.228-.153.452-.312.679-.468q.955-.657,1.89-1.344c.213-.157.429-.311.64-.47q1.125-.847,2.213-1.739c.216-.177.43-.356.644-.535.7-.583,1.385-1.175,2.059-1.783.1-.1.211-.19.315-.286.681-.622,1.347-1.262,2.005-1.911.2-.2.394-.389.59-.587q.993-1,1.951-2.047c.172-.188.339-.38.509-.571q.764-.852,1.5-1.731c.192-.229.386-.455.576-.687.037-.046.077-.09.114-.136l0,0a71.08,71.08,0,0,0,16.007-45.035Z" fill="#d4dae9"/>
    <rect id="Rectángulo_5628" data-name="Rectángulo 5628" width="156.674" height="156.174" transform="translate(944.432 2689.642)" fill="none"/>
    <g id="Grupo_70375" data-name="Grupo 70375">
      <g id="Grupo_70374" data-name="Grupo 70374">
        <g id="Grupo_70365" data-name="Grupo 70365">
          <path id="Trazado_102828" data-name="Trazado 102828" d="M1058.71,2746.25v14.77h-8.056v-14.77a4.028,4.028,0,0,1,8.056,0Z" fill="#969faa"/>
        </g>
        <g id="Grupo_70366" data-name="Grupo 70366">
          <path id="Trazado_102829" data-name="Trazado 102829" d="M1025.973,2728.793a18.188,18.188,0,0,0-12.877,5.331l-2.726,2.726a2.622,2.622,0,0,1-.792,1.893l-.121.121a2.654,2.654,0,0,1-1.772.672H991.571a2.626,2.626,0,0,1-1.893-.793l-.725.725a9.4,9.4,0,0,0-2.753,6.647v52.5a8.063,8.063,0,0,0,8.057,8.057h48.34v-61.258a16.619,16.619,0,0,0-16.624-16.624Zm11.253,20.142-16.449-2.739a16.982,16.982,0,0,1-7.412-3.183l1.638-2.86a11.949,11.949,0,0,1,10.326-5.988,11.893,11.893,0,0,1,11.9,11.9Z" fill="#dfb28b"/>
        </g>
        <g id="Grupo_70367" data-name="Grupo 70367">
          <path id="Trazado_102830" data-name="Trazado 102830" d="M1010.37,2728.793v2.686a2.693,2.693,0,0,1-2.685,2.686H991.571a2.693,2.693,0,0,1-2.685-2.686v-2.686a2.693,2.693,0,0,1,2.685-2.685h16.114A2.693,2.693,0,0,1,1010.37,2728.793Z" fill="#48cfad"/>
        </g>
        <g id="Grupo_70368" data-name="Grupo 70368">
          <path id="Trazado_102831" data-name="Trazado 102831" d="M1007.685,2734.165a2.693,2.693,0,0,1,2.685,2.685,2.622,2.622,0,0,1-.792,1.893l-.121.121a2.654,2.654,0,0,1-1.772.672H991.571a2.685,2.685,0,0,1,0-5.371Z" fill="#ccd1d9"/>
        </g>
        <g id="Grupo_70369" data-name="Grupo 70369">
          <path id="Trazado_102832" data-name="Trazado 102832" d="M1023.8,2774.448a10.742,10.742,0,1,0-21.484,0,13.358,13.358,0,0,0,2.229,7.385l.456.672v2.685a2.706,2.706,0,0,0,2.686,2.686,2.686,2.686,0,1,1,5.371,0,1.928,1.928,0,1,1,3.478-.793,2.625,2.625,0,0,0,1.893.793,2.694,2.694,0,0,0,2.686-2.686V2782.5l.456-.672A13.367,13.367,0,0,0,1023.8,2774.448Zm2.686,5.707v18.463H995.6a1.346,1.346,0,0,1-1.343-1.343v-40.283a1.346,1.346,0,0,1,1.343-1.343h34.912a1.347,1.347,0,0,1,1.343,1.343v4.028h-6.714a1.347,1.347,0,0,0-1.343,1.343v6.714A24.022,24.022,0,0,0,1026.484,2780.155Z" fill="#ffeaa7"/>
        </g>
        <g id="Grupo_70370" data-name="Grupo 70370">
          <path id="Trazado_102833" data-name="Trazado 102833" d="M1015.741,2785.19a2.706,2.706,0,0,1-2.685,2.686,2.686,2.686,0,1,0-5.371,0,2.706,2.706,0,0,1-2.686-2.686V2782.5l-.456-.672a13.358,13.358,0,0,1-2.229-7.385,10.742,10.742,0,1,1,21.484,0,13.367,13.367,0,0,1-2.229,7.385l-.456.672v2.685a2.694,2.694,0,0,1-2.686,2.686,2.708,2.708,0,0,1-2.686-2.686Z" fill="#aab2bd"/>
        </g>
        <g id="Grupo_70371" data-name="Grupo 70371">
          <path id="Trazado_102834" data-name="Trazado 102834" d="M1065.424,2761.02h-40.283a1.347,1.347,0,0,0-1.343,1.343v6.714a24.022,24.022,0,0,0,2.686,11.078v18.463a8.063,8.063,0,0,0,8.056,8.057h24.17a8.063,8.063,0,0,0,8.057-8.057v-36.255A1.347,1.347,0,0,0,1065.424,2761.02Z" fill="#8791ae"/>
        </g>
        <g id="Grupo_70372" data-name="Grupo 70372">
          <path id="Trazado_102835" data-name="Trazado 102835" d="M1058.71,2793.247v1.343a1.346,1.346,0,0,1-1.342,1.342h-8.057a1.346,1.346,0,0,1-1.343-1.342V2791.9a1.347,1.347,0,0,1,1.343-1.343h8.057a1.346,1.346,0,0,1,1.342,1.343Z" fill="#5cd6b3"/>
        </g>
        <g id="Grupo_70373" data-name="Grupo 70373">
          <path id="Trazado_102836" data-name="Trazado 102836" d="M1031.855,2761.02h18.8V2782.5a2.706,2.706,0,0,1-2.686,2.685,2.693,2.693,0,0,1-2.685-2.685v-13.428a2.706,2.706,0,0,0-2.686-2.686,2.694,2.694,0,0,0-2.686,2.686v5.371a2.7,2.7,0,0,1-2.685,2.685,2.693,2.693,0,0,1-2.686-2.685v-10.742A2.693,2.693,0,0,0,1031.855,2761.02Z" fill="#ff826e"/>
        </g>
      </g>
      <circle id="Elipse_4650" data-name="Elipse 4650" cx="1.343" cy="1.343" r="1.343" transform="translate(1014.399 2773.105)" fill="#6e7589"/>
      <circle id="Elipse_4651" data-name="Elipse 4651" cx="1.343" cy="1.343" r="1.343" transform="translate(1009.028 2773.105)" fill="#6e7589"/>
    </g>
  </g>
</svg>
