<svg xmlns="http://www.w3.org/2000/svg" width="156.674" height="156.174" viewBox="0 0 156.674 156.174">
  <g id="Grupo_70395" data-name="Grupo 70395" transform="translate(-604.424 -2876.792)">
    <path id="Trazado_102902" data-name="Trazado 102902" d="M754.15,2954.877a71.375,71.375,0,0,0-69.243-71.333.549.549,0,0,0-.229-.052h-1.83l-.087,0h0l-.087,0h-1.83a.554.554,0,0,0-.23.052,71.364,71.364,0,0,0-53.232,116.374l0,0c.029.036.06.07.089.106.212.26.43.514.646.771q.687.816,1.4,1.611c.2.221.391.444.591.663q.928,1.014,1.9,1.988c.218.221.438.438.659.656q.917.9,1.864,1.777c.168.154.336.307.506.459.632.57,1.276,1.125,1.928,1.671.239.2.477.4.718.6q1.062.865,2.154,1.693c.24.18.484.355.726.533q.873.641,1.764,1.254c.259.178.516.36.778.536.436.292.88.575,1.323.858v.013c.127.081.257.155.384.235.175.11.352.218.528.327q.432.266.869.526c.185.111.369.225.556.334l.117.069c.3.174.6.339.9.508l.131.074v.01h0c.13.073.262.139.392.211.324.179.65.354.978.528l.024.013c.324.173.648.345.975.512.059.03.118.063.177.093.123.063.248.124.372.186.076.039.154.075.231.113l.25.123c.3.146.592.291.891.433.12.057.238.118.359.174.176.082.354.159.531.24.219.1.44.2.661.3.249.111.495.228.746.336l.025,0c.119.051.235.11.355.16v0c.026.011.054.02.08.032.116.049.234.091.35.139.091.038.18.081.272.119v-.012c.022.009.045.017.067.027.412.169.827.333,1.243.5.317.123.632.251.95.369.29.108.58.212.871.317.119.042.236.091.355.133v-.014c.088.032.178.06.266.091.509.176,1.017.352,1.529.517s1.052.329,1.582.486c.107.032.214.066.321.1.385.113.772.218,1.158.323.572.156,1.144.309,1.72.451.133.032.263.071.4.1v-.012l.146.034c.446.106.892.211,1.339.309.118.026.236.056.355.081.385.082.771.158,1.159.234.283.055.567.106.85.158q.48.087.96.168c.24.041.479.087.72.126.3.046.595.087.893.13q.379.055.761.106.734.1,1.468.18c.2.023.406.053.609.075l.326.033c.057.006.113.009.169.015.454.044.908.079,1.363.114.274.022.548.047.822.065s.558.033.836.049c.115.006.229.017.344.023.136.007.273.006.409.012.06,0,.12.007.18.009.2.009.41.022.614.029q2.407.081,4.815,0c.2-.007.41-.02.615-.029l.19-.009c.128-.006.256,0,.385-.012s.238-.017.358-.023c.279-.016.557-.03.835-.049.178-.012.356-.026.534-.039l.29-.026c.461-.036.921-.071,1.381-.117l.126-.01.348-.035c.206-.022.412-.052.618-.076.485-.055.97-.113,1.454-.178.258-.035.515-.07.772-.108.3-.042.593-.083.888-.129.236-.038.472-.084.708-.124q.492-.082.983-.172c.281-.051.561-.1.841-.156.383-.075.766-.15,1.147-.231.126-.027.251-.059.377-.087.446-.1.889-.2,1.333-.308q1.3-.309,2.576-.665c.253-.07.507-.136.759-.21l.4-.119c.566-.169,1.131-.342,1.692-.524l.209-.066c.251-.082.5-.173.75-.258q1.447-.492,2.866-1.043c.3-.114.591-.226.885-.345l.374-.151c.255-.1.515-.2.768-.308l.011,0h0c.124-.052.244-.113.368-.166l.029,0c.324-.14.643-.29.965-.435l.081-.037c.427-.193.854-.387,1.277-.589.279-.132.555-.269.832-.405l.261-.127q.469-.234.935-.473c.2-.1.392-.206.588-.309l.356-.187c.272-.145.544-.29.814-.439l.109-.062c.12-.066.241-.127.361-.194v-.009c.385-.216.771-.43,1.152-.652.194-.114.386-.233.579-.349q.406-.243.809-.49c.189-.116.378-.231.565-.349.123-.077.248-.148.37-.226h0l.013-.008v-.012c.455-.29.908-.581,1.356-.881.229-.153.453-.312.679-.468q.957-.657,1.89-1.344c.214-.157.429-.311.641-.47.749-.564,1.486-1.146,2.212-1.739.217-.177.431-.356.645-.535.7-.582,1.385-1.175,2.059-1.783l.315-.286c.681-.622,1.347-1.262,2-1.911.2-.2.4-.389.59-.586q.995-1.005,1.951-2.047c.173-.188.339-.381.509-.571q.764-.853,1.5-1.732c.193-.229.387-.455.576-.686l.115-.137,0,0a71.086,71.086,0,0,0,16.007-45.035Z" fill="#d4dae9"/>
    <rect id="Rectángulo_5641" data-name="Rectángulo 5641" width="156.674" height="156.174" transform="translate(604.424 2876.792)" fill="none"/>
    <g id="Grupo_70397" data-name="Grupo 70397">
      <g id="Grupo_70396" data-name="Grupo 70396">
        <path id="Trazado_102903" data-name="Trazado 102903" d="M668.189,2906.557a29.651,29.651,0,0,0-29.562,31.935l.613,7.922a2,2,0,0,1-.295,1.2l-1.631,2.624a22.588,22.588,0,0,0-3.4,11.922,1.1,1.1,0,0,0,1.1,1.1h5.013l2.275,13.22a4.717,4.717,0,0,0,4.632,3.919l13.366.053a3.862,3.862,0,0,1,3.847,3.863v8.1a3.051,3.051,0,0,0,3.069,3.051l9.346-.035,1.884-1.291H691.5l.627,1.234h.052l-.014-27.733,6.176-20.533a31.489,31.489,0,0,0-30.155-40.561Z" fill="#e4cbb7"/>
        <path id="Trazado_102904" data-name="Trazado 102904" d="M672.341,2992.934v-9.376a8.708,8.708,0,0,0-8.673-8.707l-8.54-.033a4.72,4.72,0,0,1-4.633-3.919l-1.742-10.124a3.727,3.727,0,0,0-3.674-3.1h-1.871a1.1,1.1,0,0,1-1.1-1.1,22.582,22.582,0,0,1,3.4-11.923l1.631-2.624a1.988,1.988,0,0,0,.294-1.205l-.612-7.922a29.56,29.56,0,0,1,9.015-23.661,29.662,29.662,0,0,0-17.21,29.25l.613,7.922a2,2,0,0,1-.295,1.2l-1.631,2.624a22.588,22.588,0,0,0-3.4,11.922,1.1,1.1,0,0,0,1.1,1.1h5.013l2.275,13.22a4.717,4.717,0,0,0,4.632,3.919l13.366.053a3.862,3.862,0,0,1,3.847,3.862v8.1a3.05,3.05,0,0,0,3.069,3.05l6.435-.038a3.046,3.046,0,0,1-1.309-2.5Z" fill="#a59386"/>
        <path id="Trazado_102905" data-name="Trazado 102905" d="M731.407,2950.207l-1.631-2.624a1.988,1.988,0,0,1-.294-1.205l.612-7.922a29.65,29.65,0,0,0-29.562-31.935,31.49,31.49,0,0,0-30.155,40.561l6.177,20.533.007,27.8h.022l2.133-2.162h12.3l1.138,2.175,9.351.008a3.051,3.051,0,0,0,3.069-3.051v-8.1a3.862,3.862,0,0,1,3.848-3.863l13.366-.052a4.72,4.72,0,0,0,4.632-3.919l2.274-13.22h5.014a1.1,1.1,0,0,0,1.1-1.1,22.582,22.582,0,0,0-3.4-11.923Z" fill="#8791ae"/>
        <path id="Trazado_102906" data-name="Trazado 102906" d="M692.154,2967.747l6.177-20.532a31.681,31.681,0,0,0-14-36.232,31.654,31.654,0,0,0-13.948,36.232l6.177,20.532v27.694l7.8.028,7.8-.037v-27.685Z" fill="#fef6ef"/>
        <path id="Trazado_102907" data-name="Trazado 102907" d="M655.453,2960.6l9.424-7.9a1,1,0,0,1,1.649.769v4.092h14.226a1.032,1.032,0,0,1,1.033,1.033v5.545a1.033,1.033,0,0,1-1.033,1.034H666.526v4.091a1,1,0,0,1-1.649.77l-9.424-7.9a1,1,0,0,1,0-1.539Z" fill="#fae6d6"/>
        <path id="Trazado_102908" data-name="Trazado 102908" d="M718.4,2932.047l-9.424-7.9a1,1,0,0,0-1.649.77v4.092H693.1a1.033,1.033,0,0,0-1.034,1.033v5.545a1.033,1.033,0,0,0,1.034,1.033h14.226v4.092a1,1,0,0,0,1.649.77l9.424-7.9A1,1,0,0,0,718.4,2932.047Z" fill="#96a2c3"/>
      </g>
    </g>
  </g>
</svg>
