<svg xmlns="http://www.w3.org/2000/svg" width="156.674" height="156.174" viewBox="0 0 156.674 156.174">
  <g id="Grupo_70398" data-name="Grupo 70398" transform="translate(-778.032 -2876.792)">
    <path id="Trazado_102909" data-name="Trazado 102909" d="M927.758,2954.877a71.373,71.373,0,0,0-69.242-71.333.554.554,0,0,0-.23-.052h-1.83l-.087,0h0l-.087,0h-1.83a.549.549,0,0,0-.229.052,71.363,71.363,0,0,0-53.232,116.374l0,0c.029.036.06.07.089.106.213.26.431.514.647.771q.685.816,1.395,1.611c.2.221.391.444.591.663q.929,1.014,1.9,1.988c.218.221.439.438.659.656q.918.9,1.864,1.777.252.231.506.459c.633.57,1.277,1.125,1.929,1.671.238.2.477.4.718.6q1.062.865,2.154,1.693c.24.18.484.355.726.533q.873.641,1.763,1.254c.26.178.517.36.778.536.437.292.88.575,1.323.858v.013c.127.081.257.155.384.235.176.11.353.218.529.327q.432.266.868.526c.186.111.37.225.556.334l.118.069c.3.174.6.339.9.508l.13.074v.01h0c.13.073.262.139.393.211.324.179.65.354.977.528l.025.013c.324.173.648.345.974.512.06.03.118.063.177.093l.372.186c.077.039.155.075.232.113l.249.123c.3.146.593.291.891.433.12.057.239.118.359.174.176.082.354.159.531.24.22.1.441.2.661.3.249.111.5.228.746.336l.026,0c.119.051.235.11.354.16v0c.027.011.054.02.081.032.115.049.234.091.35.139.091.038.18.081.271.119v-.012c.022.009.045.017.067.027.413.169.828.333,1.244.5.316.123.631.251.95.369.289.108.58.212.871.317.119.042.235.091.354.133v-.014c.089.032.178.06.267.091.508.176,1.017.352,1.529.517s1.052.329,1.582.486c.107.032.213.066.32.1.385.113.772.218,1.159.323.571.156,1.143.309,1.72.451.132.032.263.071.4.1v-.012l.146.034c.446.106.892.211,1.34.309.118.026.236.056.354.081.385.082.772.158,1.159.234.283.055.567.106.851.158q.479.087.959.168c.241.041.48.087.72.126.3.046.6.087.893.13q.381.055.762.106.733.1,1.468.18c.2.023.405.053.608.075l.327.033c.056.006.112.009.168.015.454.044.909.079,1.363.114.275.022.549.047.823.065s.557.033.836.049c.115.006.228.017.344.023.136.007.272.006.408.012.06,0,.12.007.18.009.205.009.41.022.615.029q2.406.081,4.815,0c.205-.007.409-.02.614-.029l.19-.009c.129-.006.257,0,.385-.012s.239-.017.359-.023c.278-.016.557-.03.835-.049.178-.012.355-.026.533-.039l.291-.026c.46-.036.92-.071,1.38-.117l.126-.01.349-.035c.206-.022.411-.052.617-.076.485-.055.97-.113,1.454-.178.258-.035.516-.07.773-.108.3-.042.593-.083.888-.129.236-.038.471-.084.707-.124q.492-.082.984-.172c.28-.051.561-.1.841-.156.383-.075.766-.15,1.147-.231.126-.027.251-.059.377-.087.445-.1.889-.2,1.333-.308q1.3-.309,2.576-.665c.253-.07.506-.136.759-.21l.4-.119c.567-.169,1.131-.342,1.693-.524.069-.022.139-.043.208-.066.251-.082.5-.173.751-.258q1.447-.492,2.865-1.043c.3-.114.592-.226.886-.345l.374-.151c.255-.1.514-.2.768-.308l.01,0h0c.124-.052.244-.113.368-.166l.029,0c.324-.14.644-.29.966-.435l.08-.037c.428-.193.855-.387,1.278-.589.279-.132.555-.269.831-.405l.261-.127q.469-.234.936-.473c.2-.1.392-.206.588-.309.118-.062.238-.124.355-.187.272-.145.544-.29.814-.439l.11-.062c.12-.066.241-.127.36-.194v-.009c.385-.216.772-.43,1.152-.652.195-.114.386-.233.58-.349q.406-.243.808-.49c.189-.116.378-.231.566-.349.122-.077.247-.148.369-.226h0l.013-.008v-.012c.455-.29.909-.581,1.357-.881.228-.153.452-.312.679-.468q.955-.657,1.89-1.344c.213-.157.429-.311.64-.47.75-.564,1.486-1.146,2.213-1.739.217-.177.43-.356.645-.535q1.044-.873,2.058-1.783c.1-.095.211-.19.315-.286.681-.622,1.347-1.262,2.005-1.911.2-.2.394-.389.59-.586q.993-1.005,1.951-2.047c.172-.188.339-.381.509-.571q.763-.853,1.5-1.732c.192-.229.386-.455.576-.686.038-.046.077-.091.114-.137l0,0a71.08,71.08,0,0,0,16.007-45.035Z" fill="#d4dae9"/>
    <rect id="Rectángulo_5643" data-name="Rectángulo 5643" width="156.674" height="156.174" transform="translate(778.032 2876.792)" fill="none"/>
    <g id="Grupo_70404" data-name="Grupo 70404">
      <rect id="Rectángulo_5644" data-name="Rectángulo 5644" width="5.715" height="24.272" transform="translate(833.835 2958.395) rotate(-45)" fill="#7397da"/>
      <g id="Grupo_70399" data-name="Grupo 70399">
        <rect id="Rectángulo_5645" data-name="Rectángulo 5645" width="5.715" height="2.73" transform="translate(833.834 2958.394) rotate(-45)" fill="#003a63" opacity="0.15" style="isolation: isolate"/>
        <rect id="Rectángulo_5646" data-name="Rectángulo 5646" width="5.715" height="2.73" transform="translate(849.065 2973.628) rotate(-45)" fill="#003a63" opacity="0.15" style="isolation: isolate"/>
      </g>
      <rect id="Rectángulo_5647" data-name="Rectángulo 5647" width="5.715" height="24.272" transform="translate(849.137 2943.092) rotate(-45)" fill="#7397da"/>
      <g id="Grupo_70400" data-name="Grupo 70400">
        <rect id="Rectángulo_5648" data-name="Rectángulo 5648" width="5.715" height="2.73" transform="translate(849.136 2943.092) rotate(-45)" fill="#003a63" opacity="0.15" style="isolation: isolate"/>
        <rect id="Rectángulo_5649" data-name="Rectángulo 5649" width="5.715" height="2.73" transform="translate(864.37 2958.324) rotate(-45)" fill="#003a63" opacity="0.15" style="isolation: isolate"/>
      </g>
      <rect id="Rectángulo_5650" data-name="Rectángulo 5650" width="5.715" height="24.272" transform="translate(864.439 2927.789) rotate(-45)" fill="#7397da"/>
      <path id="Trazado_102910" data-name="Trazado 102910" d="M825.928,2966.3l-4.9-4.9,49.137-49.136a1.871,1.871,0,0,1,2.645,0l2.253,2.253a1.871,1.871,0,0,1,0,2.645Z" fill="#f5d7b7"/>
      <path id="Trazado_102911" data-name="Trazado 102911" d="M823.648,2971.968l-8.286-8.286a1.013,1.013,0,0,1,.081-1.507l1.629-1.31a2.711,2.711,0,0,1,3.616.2l5.581,5.581a2.71,2.71,0,0,1,.2,3.616l-1.309,1.628A1.014,1.014,0,0,1,823.648,2971.968Z" fill="#495059"/>
      <path id="Trazado_102912" data-name="Trazado 102912" d="M825.155,2971.886l.588-.731a17.81,17.81,0,0,1-7.231-10.873,2.689,2.689,0,0,0-1.44.583l-1.629,1.31a1.014,1.014,0,0,0-.081,1.507l8.286,8.286A1.014,1.014,0,0,0,825.155,2971.886Z" opacity="0.15" style="isolation: isolate"/>
      <path id="Trazado_102913" data-name="Trazado 102913" d="M843.091,2983.464l4.9,4.9,49.136-49.137a1.871,1.871,0,0,0,0-2.645l-2.253-2.253a1.869,1.869,0,0,0-2.645,0Z" fill="#f5d7b7"/>
      <path id="Trazado_102914" data-name="Trazado 102914" d="M837.424,2985.744l8.286,8.286a1.014,1.014,0,0,0,1.507-.082l1.309-1.628a2.711,2.711,0,0,0-.2-3.616l-5.581-5.581a2.711,2.711,0,0,0-3.616-.2l-1.629,1.31A1.013,1.013,0,0,0,837.424,2985.744Z" fill="#495059"/>
      <path id="Trazado_102915" data-name="Trazado 102915" d="M847.217,2993.948l.588-.731a17.806,17.806,0,0,1-7.231-10.873,2.689,2.689,0,0,0-1.44.583l-1.629,1.31a1.013,1.013,0,0,0-.081,1.507l8.286,8.286A1.014,1.014,0,0,0,847.217,2993.948Z" opacity="0.15" style="isolation: isolate"/>
      <g id="Grupo_70401" data-name="Grupo 70401">
        <circle id="Elipse_4654" data-name="Elipse 4654" cx="1.194" cy="1.194" r="1.194" transform="translate(862.817 2922.125)" fill="#e68392"/>
        <circle id="Elipse_4655" data-name="Elipse 4655" cx="1.194" cy="1.194" r="1.194" transform="translate(847.513 2937.429)" fill="#e68392"/>
        <circle id="Elipse_4656" data-name="Elipse 4656" cx="1.194" cy="1.194" r="1.194" transform="translate(832.211 2952.731)" fill="#e68392"/>
        <circle id="Elipse_4657" data-name="Elipse 4657" cx="1.194" cy="1.194" r="1.194" transform="translate(884.879 2944.188)" fill="#e68392"/>
        <circle id="Elipse_4658" data-name="Elipse 4658" cx="1.194" cy="1.194" r="1.194" transform="translate(869.576 2959.491)" fill="#e68392"/>
        <circle id="Elipse_4659" data-name="Elipse 4659" cx="1.194" cy="1.194" r="1.194" transform="translate(854.274 2974.793)" fill="#e68392"/>
      </g>
      <g id="Grupo_70402" data-name="Grupo 70402">
        <rect id="Rectángulo_5651" data-name="Rectángulo 5651" width="5.715" height="2.73" transform="translate(864.44 2927.788) rotate(-45)" fill="#003a63" opacity="0.15" style="isolation: isolate"/>
        <rect id="Rectángulo_5652" data-name="Rectángulo 5652" width="5.715" height="2.73" transform="translate(879.673 2943.022) rotate(-45)" fill="#003a63" opacity="0.15" style="isolation: isolate"/>
      </g>
      <g id="Grupo_70403" data-name="Grupo 70403">
        <path id="Trazado_102916" data-name="Trazado 102916" d="M821.029,2961.4l4.9,4.9,24.917-24.918c-3.145-.83-2.983-4.53-1.32-8.476Z" fill="#8d4330" opacity="0.15" style="isolation: isolate"/>
        <path id="Trazado_102917" data-name="Trazado 102917" d="M843.091,2983.464l4.9,4.9,24.918-24.917c-3.145-.83-2.984-4.53-1.32-8.476Z" fill="#8d4330" opacity="0.15" style="isolation: isolate"/>
      </g>
    </g>
  </g>
</svg>
