<svg xmlns="http://www.w3.org/2000/svg" width="188.348" height="279.804" viewBox="0 0 188.348 279.804">
  <g id="Grupo_70680" data-name="Grupo 70680" transform="translate(-833.584 -3723.685)">
    <g id="Grupo_70679" data-name="Grupo 70679" transform="translate(0 -7.196)">
      <g id="Grupo_70678" data-name="Grupo 70678">
        <g id="Grupo_70677" data-name="Grupo 70677">
          <g id="Grupo_70671" data-name="Grupo 70671">
            <g id="g4329">
              <path id="path4295" d="M901.515,3749.185s3.158.275,4.712,2.368,1.443,5-1.574,6.3-4.948,2.821-8.186,6.593-6.5,4.548-11.256,4.051-3.6-3.917-3.6-3.917l-1.155-.115s-.833,4.826,5.009,5.662,10.452-1.47,12.528-4.175a28.294,28.294,0,0,1,8.9-7.9c3.83-2.008,2.607-6.994-.39-8.772s-4.924-1.152-4.924-1.152Z" fill="#8fbbfd"/>
              <path id="path4297" d="M900.327,3743.222c.684-.633,1.963-.6,2.245,1.973s-.467,9.181-8.8,14.646c-7.693,5.049-10.741,5.014-15.693,5.116s-4.265-1.63-3.838-2.43S900.327,3743.222,900.327,3743.222Z" fill="#0078b1"/>
              <path id="path4299" d="M901.311,3745.732s-.225,6.749-8.283,12.726-16.482,6.1-18.317,4.417-5.254-13.063.165-19.544,15.871-5.916,21.217-3.454S901.279,3744.145,901.311,3745.732Z" fill="#56d3ff"/>
              <path id="path4301" d="M895.169,3739.76a1.141,1.141,0,0,0-1.023.442.627.627,0,0,0-.12-.013.6.6,0,0,0-.6.594v0a.594.594,0,0,0,.457.578,4.86,4.86,0,0,0,.09.76,8.831,8.831,0,0,1-.207,4.057,1.218,1.218,0,0,0-.261-.028,1.288,1.288,0,0,0-.588,2.434,28.246,28.246,0,0,1-1.548,3.07,1.811,1.811,0,0,0-3.374.913h0a1.812,1.812,0,0,0,1.663,1.806c-.152.222-.308.432-.464.643a.706.706,0,0,0-.267-.055.692.692,0,0,0-.692.693.7.7,0,0,0,.132.408,19.906,19.906,0,0,1-9.759,6.416s-2.254.468-1.326.708,3.765-.074,7.392-1.112a27.036,27.036,0,0,0,11.139-7.052c3.216-3.344,4.927-7.471,4.271-10.409a7.1,7.1,0,0,0-4.486-4.807A2.51,2.51,0,0,0,895.169,3739.76Z" fill="#002172" opacity="0.364" style="isolation: isolate"/>
              <path id="path4303" d="M873.53,3753.24s1.622-.438,5.5,1.111a13.374,13.374,0,0,1,5.988,5.325s-4.15-3.945-7.624-4.756a25.284,25.284,0,0,0-4.508-.811Z" fill="#1572b0"/>
              <path id="path4305" d="M885.285,3754.379a1.628,1.628,0,0,0-1.8-.094l-4.461,2.625-1.025.006.023,1.411v.005a1.63,1.63,0,0,0,.224.931l1.506,2.559a1.629,1.629,0,0,0,2.234.58l4.663-2.744a1.621,1.621,0,0,0,.8-1.416h.007l-.025-1.377-.528,0-1.181-2a1.632,1.632,0,0,0-.433-.484Z" fill="#004364"/>
              <path id="rect4307" d="M885.694,3753.492l1.506,2.56a1.629,1.629,0,0,1-.579,2.236l-4.661,2.744a1.63,1.63,0,0,1-2.236-.579l-1.507-2.559a1.629,1.629,0,0,1,.58-2.236l4.661-2.744A1.63,1.63,0,0,1,885.694,3753.492Z" fill="#0078b1"/>
              <path id="circle4309" d="M884.338,3758.1a2.015,2.015,0,1,1-.278-2.836A2.016,2.016,0,0,1,884.338,3758.1Z" fill="#005984"/>
              <path id="path4311" d="M874.572,3745.968s2.823-.883,7.925.338,10.813,5.824,10.813,5.824-4.343-5.586-10.69-7.229S874.572,3745.968,874.572,3745.968Z" fill="#1572b0"/>
              <path id="path4313" d="M882.207,3740.128s3.558-1.045,8.912,1.635,7.046,5.128,7.046,5.128a17.084,17.084,0,0,0-7.648-6.471C885.356,3738.266,882.207,3740.128,882.207,3740.128Z" fill="#1572b0"/>
              <path id="path4315" d="M886.994,3738.166c-4.429.1-9.069,1.519-12.117,5.165-4.874,5.828-2.6,15.6-.758,18.734l.187.137s-2.753-4.822-1.782-9.873a25.537,25.537,0,0,1,1.046-3.907,1.316,1.316,0,1,0,1.008-2.255,13.785,13.785,0,0,1,3.037-3.707.829.829,0,1,0,1.269-1.006c.335-.244.682-.487,1.055-.726,4.755-3.065,12.4-2.041,12.66-2.005A23.246,23.246,0,0,0,886.994,3738.166Z" fill="#e2f5ff" opacity="0.56" style="isolation: isolate"/>
              <path id="circle4317" d="M892.737,3744.791a.869.869,0,0,1-.869.869h0a.869.869,0,0,1-.869-.869h0a.868.868,0,0,1,.868-.868h0a.869.869,0,0,1,.869.868Z" fill="#0078b1" opacity="0.56" style="isolation: isolate"/>
              <path id="circle4319" d="M891.311,3747.362a.515.515,0,0,1-.516.515h0a.515.515,0,0,1-.516-.515h0a.516.516,0,0,1,.516-.517h0a.516.516,0,0,1,.516.517Z" fill="#0078b1" opacity="0.56" style="isolation: isolate"/>
              <path id="circle4321" d="M882.931,3741.162a.642.642,0,0,1-.643.643h0a.642.642,0,0,1-.642-.643h0a.643.643,0,0,1,.642-.642h0a.643.643,0,0,1,.643.642Z" fill="#e2f5ff" opacity="0.56" style="isolation: isolate"/>
              <path id="circle4323" d="M882.7,3742.4a.4.4,0,0,1-.4.4h0a.4.4,0,0,1-.4-.4h0a.4.4,0,0,1,.4-.4h0a.4.4,0,0,1,.4.4Z" fill="#e2f5ff" opacity="0.56" style="isolation: isolate"/>
              <path id="path4325" d="M902.351,3748.028a3.04,3.04,0,0,0-.767.1l-.069,1.053a8.858,8.858,0,0,1,2.947.917,4.156,4.156,0,0,1,2.324.732s3.127,2.2,1.111,5-4.339,2.389-8.074,6.78-6.662,7.421-13.143,6.586-5.735-3.5-5.624-3.975c.029-.126.216-.17.465-.175a4.218,4.218,0,0,1,.094-.472l-1.157-.116s-.831,4.826,5.01,5.663,10.452-1.471,12.528-4.175a28.28,28.28,0,0,1,8.9-7.9c3.83-2.009,2.606-6.995-.391-8.773A7.714,7.714,0,0,0,902.351,3748.028Z" fill="#0078b1" opacity="0.56" style="isolation: isolate"/>
              <path id="path4327" d="M901.263,3742.889a1.026,1.026,0,0,0-.57.1c-.053.449-.077.815-.077.815.767-.3,1.374.408,1.2,3.179s-2.019,5.823-4.647,8.743a25.825,25.825,0,0,1-13.723,8.081c-6.545,1.39-7.767.477-8.616.007-.654-.363-.464-1.166-.341-1.521a2.149,2.149,0,0,0-.246.236c-.427.8-1.116,2.53,3.837,2.429s8-.066,15.693-5.115c8.327-5.465,9.077-12.069,8.8-14.647-.176-1.61-.743-2.226-1.309-2.306Z" fill="#004364" opacity="0.546" style="isolation: isolate"/>
            </g>
            <g id="g3817">
              <path id="path31" d="M939.406,3785.66s-3.158.275-4.711,2.367-1.444,5,1.573,6.3,4.948,2.821,8.187,6.593,6.5,4.548,11.256,4.052,3.6-3.918,3.6-3.918l1.154-.116s.833,4.827-5.008,5.663-10.452-1.47-12.528-4.174a28.267,28.267,0,0,0-8.9-7.9c-3.83-2.01-2.607-7,.39-8.773s4.924-1.151,4.924-1.151Z" fill="#8fbbfd"/>
              <path id="path29" d="M940.595,3779.7c-.684-.634-1.964-.6-2.246,1.973s.468,9.18,8.795,14.645c7.694,5.049,10.741,5.015,15.693,5.116s4.265-1.63,3.838-2.43S940.595,3779.7,940.595,3779.7Z" fill="#0078b1"/>
              <path id="path27" d="M939.61,3782.206s.225,6.748,8.284,12.726,16.482,6.1,18.317,4.417,5.253-13.063-.165-19.544-15.871-5.916-21.218-3.454S939.643,3780.62,939.61,3782.206Z" fill="#56d3ff"/>
              <path id="path2359" d="M945.752,3776.233a1.145,1.145,0,0,1,1.024.443.681.681,0,0,1,.12-.013.6.6,0,0,1,.6.595v0a.6.6,0,0,1-.457.579,5.006,5.006,0,0,1-.091.76,8.858,8.858,0,0,0,.207,4.057,1.288,1.288,0,0,1,.85,2.406,28.245,28.245,0,0,0,1.547,3.07,1.811,1.811,0,0,1,3.374.914h0a1.811,1.811,0,0,1-1.663,1.8c.152.222.308.433.465.643a.692.692,0,0,1,.826,1.046,19.918,19.918,0,0,0,9.76,6.417s2.254.468,1.325.708-3.764-.075-7.391-1.112a27.043,27.043,0,0,1-11.14-7.053c-3.215-3.344-4.926-7.471-4.27-10.409a7.1,7.1,0,0,1,4.486-4.807A2.631,2.631,0,0,1,945.752,3776.233Z" fill="#002172" opacity="0.364" style="isolation: isolate"/>
              <path id="path53" d="M967.392,3789.714s-1.622-.438-5.5,1.111a13.381,13.381,0,0,0-5.988,5.325s4.15-3.945,7.624-4.756a25.31,25.31,0,0,1,4.509-.81Z" fill="#1572b0"/>
              <path id="rect39" d="M955.636,3790.853a1.631,1.631,0,0,1,1.8-.095l4.461,2.626,1.024.006-.022,1.412v0a1.619,1.619,0,0,1-.223.93l-1.506,2.559a1.629,1.629,0,0,1-2.235.58l-4.663-2.744a1.619,1.619,0,0,1-.8-1.416h-.007l.024-1.377.529,0,1.181-2.005a1.617,1.617,0,0,1,.432-.484Z" fill="#004364"/>
              <path id="rect35" d="M955.228,3789.967l-1.507,2.56a1.628,1.628,0,0,0,.579,2.235l4.662,2.744a1.629,1.629,0,0,0,2.236-.579l1.506-2.56a1.628,1.628,0,0,0-.579-2.235l-4.662-2.744A1.629,1.629,0,0,0,955.228,3789.967Z" fill="#0078b1"/>
              <path id="path41" d="M956.583,3794.577a2.015,2.015,0,1,0,.278-2.836A2.015,2.015,0,0,0,956.583,3794.577Z" fill="#005984"/>
              <path id="path49" d="M966.349,3782.442s-2.823-.882-7.925.338-10.813,5.825-10.813,5.825,4.344-5.587,10.691-7.229S966.349,3782.442,966.349,3782.442Z" fill="#1572b0"/>
              <path id="path51" d="M958.715,3776.6s-3.559-1.045-8.913,1.635-7.045,5.128-7.045,5.128a17.085,17.085,0,0,1,7.647-6.471C955.566,3774.739,958.715,3776.6,958.715,3776.6Z" fill="#1572b0"/>
              <path id="path2370" d="M953.928,3774.641c4.429.1,9.068,1.519,12.117,5.164,4.873,5.829,2.6,15.6.757,18.734l-.186.136s2.752-4.821,1.782-9.872a25.786,25.786,0,0,0-1.046-3.907,1.317,1.317,0,1,1-1.009-2.255,13.73,13.73,0,0,0-3.037-3.706.829.829,0,1,1-1.268-1.007c-.335-.244-.682-.487-1.055-.726-4.755-3.064-12.4-2.041-12.66-2A23.119,23.119,0,0,1,953.928,3774.641Z" fill="#e2f5ff" opacity="0.56" style="isolation: isolate"/>
              <path id="path2415" d="M948.185,3781.266a.869.869,0,0,0,.869.868h0a.868.868,0,0,0,.868-.868h0a.868.868,0,0,0-.868-.869h0a.869.869,0,0,0-.869.869Z" fill="#0078b1" opacity="0.56" style="isolation: isolate"/>
              <path id="path2417" d="M949.611,3783.835a.516.516,0,0,0,.516.517h0a.515.515,0,0,0,.515-.517h0a.516.516,0,0,0-.515-.516h0a.517.517,0,0,0-.516.516Z" fill="#0078b1" opacity="0.56" style="isolation: isolate"/>
              <path id="circle2444" d="M957.99,3777.637a.642.642,0,0,0,.643.642h0a.642.642,0,0,0,.643-.642h0a.643.643,0,0,0-.643-.643h0a.643.643,0,0,0-.643.643Z" fill="#e2f5ff" opacity="0.56" style="isolation: isolate"/>
              <path id="path2433" d="M958.22,3778.878a.4.4,0,0,0,.4.4h0a.4.4,0,0,0,.4-.4h0a.4.4,0,0,0-.4-.4h0a.4.4,0,0,0-.4.4Z" fill="#e2f5ff" opacity="0.56" style="isolation: isolate"/>
              <path id="path2449" d="M938.57,3784.5a3.044,3.044,0,0,1,.768.106l.068,1.053a8.84,8.84,0,0,0-2.946.916,4.165,4.165,0,0,0-2.324.732s-3.128,2.2-1.112,5,4.34,2.388,8.075,6.78,6.662,7.421,13.143,6.587,5.734-3.5,5.624-3.976c-.03-.126-.216-.17-.465-.175a4.583,4.583,0,0,0-.094-.472l1.156-.116s.832,4.826-5.01,5.663-10.452-1.47-12.528-4.175a28.261,28.261,0,0,0-8.9-7.9c-3.83-2.009-2.606-7,.391-8.773A7.722,7.722,0,0,1,938.57,3784.5Z" fill="#0078b1" opacity="0.56" style="isolation: isolate"/>
              <path id="path2481" d="M939.658,3779.363a1.024,1.024,0,0,1,.57.1c.053.449.078.815.078.815-.768-.3-1.375.408-1.205,3.179s2.02,5.823,4.648,8.744a25.826,25.826,0,0,0,13.723,8.08c6.544,1.39,7.767.477,8.615.007.655-.362.464-1.166.341-1.521a2.31,2.31,0,0,1,.247.236c.427.8,1.116,2.53-3.837,2.428s-8-.065-15.694-5.115c-8.326-5.464-9.076-12.068-8.795-14.645.176-1.612.743-2.227,1.309-2.307Z" fill="#004364" opacity="0.546" style="isolation: isolate"/>
            </g>
            <g id="layer7">
              <g id="g3798">
                <path id="rect59" d="M846.619,3747.218l3.1-2.559a1.474,1.474,0,0,1,2.079.2l7.4,8.951a1.473,1.473,0,0,1-.2,2.079l-3.1,2.559a1.473,1.473,0,0,1-2.079-.2l-7.4-8.95A1.474,1.474,0,0,1,846.619,3747.218Z" fill="#00b3f0"/>
                <path id="rect59-9" d="M849.432,3744.893l.283-.234a1.474,1.474,0,0,1,2.079.2l7.4,8.951a1.473,1.473,0,0,1-.2,2.079l-.283.234a1.473,1.473,0,0,1-2.079-.2l-7.4-8.951A1.473,1.473,0,0,1,849.432,3744.893Z" fill="#2f94cb"/>
                <path id="rect57" d="M849.343,3756.988l9.456-7.816a4.953,4.953,0,0,1,6.989.663l5.2,6.293a4.952,4.952,0,0,1-.663,6.989l-9.455,7.817a4.954,4.954,0,0,1-6.989-.663l-5.2-6.294A4.954,4.954,0,0,1,849.343,3756.988Z" fill="#56d3ff"/>
                <g id="g82">
                  <path id="rect69" d="M848.97,3760.03a.473.473,0,0,1,.667.063l6,7.256a.473.473,0,0,1-.73.6l-6-7.256A.473.473,0,0,1,848.97,3760.03Z" fill="#0085a8"/>
                  <path id="rect71" d="M852.258,3757.312a.472.472,0,0,1,.666.064l6,7.255a.473.473,0,1,1-.729.6l-6-7.256A.472.472,0,0,1,852.258,3757.312Z" fill="#0085a8"/>
                  <path id="rect73" d="M855.546,3754.594a.472.472,0,0,1,.666.063l6,7.256a.473.473,0,0,1-.729.6l-6-7.256A.472.472,0,0,1,855.546,3754.594Z" fill="#0085a8"/>
                  <path id="rect75" d="M858.833,3751.876a.472.472,0,0,1,.666.064l6,7.255a.473.473,0,1,1-.728.6l-6-7.255A.475.475,0,0,1,858.833,3751.876Z" fill="#0085a8"/>
                  <path id="rect67" d="M862.121,3749.159a.472.472,0,0,1,.666.063l6,7.256a.473.473,0,0,1-.729.6l-6-7.256A.471.471,0,0,1,862.121,3749.159Z" fill="#0085a8"/>
                </g>
                <path id="path2649" d="M849.343,3756.988a4.954,4.954,0,0,0-.662,6.99l2.285,2.764a17.128,17.128,0,0,0,1.911-1.7l-3.261-3.945c-.917-1.109-1.168-2.954.446-4.7Z" fill="#e2f5ff" opacity="0.56" style="isolation: isolate"/>
                <path id="path2682" d="M855.971,3751.508c3.627-1.109,7.314,3.923,7.314,3.923l4.677-2.967-2.174-2.629a4.956,4.956,0,0,0-6.991-.663Z" fill="#002172" opacity="0.364" style="isolation: isolate"/>
                <path id="rect55" d="M851.52,3764.622l14.366-11.877a9.712,9.712,0,0,1,13.7,1.3l24.394,29.507a9.713,9.713,0,0,1-1.3,13.7l-14.366,11.876a9.711,9.711,0,0,1-13.7-1.3l-24.394-29.508A9.711,9.711,0,0,1,851.52,3764.622Z" fill="#b2e9ff"/>
                <path id="path63" d="M839.212,3749.884a.876.876,0,0,0-.119,1.237l.043.051a.866.866,0,0,0,.98.254,7.126,7.126,0,0,0,.321,3.682l2.568-2.123s-.431-1.448.116-1.9l1.752-1.448c.347-.287.964-.078,1.387.114a.864.864,0,0,0,.043,1.039.875.875,0,0,0,1.235.117l5.63-4.653a.876.876,0,0,0,.117-1.236.864.864,0,0,0-.471-.281l.124-3.837.215-.177a.876.876,0,0,0,.117-1.236l-.042-.051a.876.876,0,0,0-1.236-.117Z" fill="#56d3ff"/>
                <path id="rect55-4" d="M853.392,3765.816l13.315-11.008a9,9,0,0,1,12.7,1.2l22.609,27.349a9,9,0,0,1-1.205,12.7L887.5,3807.07a9,9,0,0,1-12.7-1.205l-22.609-27.349a9,9,0,0,1,1.205-12.7Z" fill="#d6f2ff"/>
                <path id="rect84" d="M851.683,3780.095l22.931,27.738c.131.158.271.3.409.449l29.324-24.242c-.118-.164-.233-.328-.363-.487l-22.931-27.738Z" fill="#00b2e5"/>
                <path id="path2529" d="M889.576,3773.016a14.662,14.662,0,1,1-20.643-1.958A14.662,14.662,0,0,1,889.576,3773.016Z" fill="#00567c"/>
                <path id="rect2533" d="M868.664,3775.646l5.2,6.294-6.294,5.2,3.991,4.828,6.294-5.2,5.2,6.293,4.827-3.99-5.2-6.293,6.295-5.2-3.991-4.828-6.294,5.2-5.2-6.295Z" fill="#fff"/>
                <path id="path2553" d="M850.783,3765.3a9.71,9.71,0,0,0-.563,13.028l24.394,29.507a9.7,9.7,0,0,0,12.583,2.088,10.132,10.132,0,0,1-8.089-3.487l-1.1-1.333c.085-.058.166-.119.245-.184a3.1,3.1,0,0,0-3.948-4.777h0c-.079.066-.154.136-.226.208l-4.341-5.251c.053-.035.1-.072.154-.112a1.882,1.882,0,0,0,.252-2.649v0a1.881,1.881,0,0,0-2.649-.25c-.049.04-.1.083-.141.128l-8.966-10.846a2.721,2.721,0,0,0-3.464-4.19l-2.583-3.124a8.6,8.6,0,0,1-1.555-8.754Z" fill="#e2f5ff" opacity="0.56" style="isolation: isolate"/>
                <path id="path2592" d="M857.523,3764.955a2.694,2.694,0,1,1-3.792-.359A2.7,2.7,0,0,1,857.523,3764.955Z" fill="#e2f5ff" opacity="0.56" style="isolation: isolate"/>
                <path id="path2594" d="M860.835,3762.358a1.808,1.808,0,0,1-.241,2.545h0a1.809,1.809,0,0,1-2.546-.241h0a1.808,1.808,0,0,1,.242-2.545h0a1.808,1.808,0,0,1,2.545.241Z" fill="#e2f5ff" opacity="0.56" style="isolation: isolate"/>
                <path id="path2602" d="M862.167,3755.82a15.352,15.352,0,0,1,5.843-.508,2.013,2.013,0,1,0,3.77.848,17.167,17.167,0,0,1,7.086,4.864l-.1.076a3.254,3.254,0,0,0-.434,4.583h0a3.256,3.256,0,0,0,4.583.435c.037-.031.073-.063.109-.1l16.019,19.377a22.063,22.063,0,0,1,1.619,2.21,1.8,1.8,0,0,0,1.434,3.133c.709,2.791-.437,5.039-3.061,7.207l-14.35,11.863a2.226,2.226,0,0,0-.859,1.4,9.711,9.711,0,0,0,4.488-2.08l14.366-11.877a9.711,9.711,0,0,0,1.3-13.7l-24.393-29.508a9.711,9.711,0,0,0-13.7-1.3Z" fill="#002172" opacity="0.364" style="isolation: isolate"/>
                <path id="circle2639" d="M873.214,3758.71a1.085,1.085,0,0,1-.145,1.528h0a1.085,1.085,0,0,1-1.527-.145h0a1.084,1.084,0,0,1,.145-1.527h0a1.085,1.085,0,0,1,1.527.144Z" fill="#002172" opacity="0.364" style="isolation: isolate"/>
                <path id="circle2641" d="M869.688,3759.405a.7.7,0,0,1-.092.978h0a.7.7,0,0,1-.978-.093h0a.694.694,0,0,1,.093-.977h0a.693.693,0,0,1,.977.092Z" fill="#002172" opacity="0.364" style="isolation: isolate"/>
                <path id="path2730" d="M848.966,3741.82a.946.946,0,0,1,.832,1.09c-.129.543-4.928,4.347-4.928,4.347s4.221-3.366,4.745-3.174a2.824,2.824,0,0,1,1.29,1.575c.029.384-3.964,3.609-3.964,3.609s3.672-2.974,4.281-2.9c.557.063.653.869.111,1.407l1.835-1.516a.876.876,0,0,0,.117-1.236.857.857,0,0,0-.471-.28l.124-3.838.215-.177a.876.876,0,0,0,.117-1.236l-.042-.051a.876.876,0,0,0-1.236-.117Z" fill="#2f94cb" opacity="0.364" style="isolation: isolate"/>
                <path id="path2757" d="M839.212,3749.884a.876.876,0,0,0-.119,1.237l.043.051a.866.866,0,0,0,.98.254,7.126,7.126,0,0,0,.321,3.682l1.162-.961a2.642,2.642,0,0,1-.736-.943,4.109,4.109,0,0,1-.247-2.437,1.74,1.74,0,0,1,.054-2.088Z" fill="#e2f5ff" opacity="0.56" style="isolation: isolate"/>
              </g>
            </g>
            <g id="layer8">
              <g id="g3844">
                <path id="path193" d="M949.541,3800.564a9.227,9.227,0,0,1,6.5,1.793c2.812,2.308.909,4.746-.52,4.785s-4.569-2.281-4.569-2.281l-.358-1.329s2.063,2.15,4.138,2.257,1.7-2.439-.093-3.325a12.456,12.456,0,0,0-4.838-.772Z" fill="#061964"/>
                <path id="path195" d="M909.391,3784.348s-5.814-2.894-6.636-2.247a11.384,11.384,0,0,0-2.864,4.028c-.206,1.03,5.515,4.867,5.515,4.867l.662-.872s-3.55-1.941-4.18-3.284a2.229,2.229,0,0,1,1.035-2.939c.87-.524,5,1.744,5,1.744Z" fill="#061964"/>
                <path id="path163" d="M910.564,3783.157a3.207,3.207,0,0,0-4.053,1.351c-2.561,4.987-6.866,16.043,2.657,20.2,7.393,3.225,12.27-.668,14.195-2.737a2.118,2.118,0,0,1,2.268-.547l.536.234.534.233a2.118,2.118,0,0,1,1.142,2.034c-.207,2.819.258,9.042,7.65,12.266,9.525,4.155,14.7-6.521,16.612-11.792a3.205,3.205,0,0,0-1.766-3.889l-19.888-8.676Z" fill="#0078b1"/>
                <path id="path187-9" d="M910.941,3785.043a2.709,2.709,0,0,0-3.423,1.142c-2.163,4.212-5.8,13.55,2.246,17.059,6.244,2.723,10.864-1.714,12.489-3.461a1.787,1.787,0,0,1,1.915-.462l.453.2,3.886,1.695.453.2a1.789,1.789,0,0,1,.964,1.718c-.175,2.38-.285,8.785,5.959,11.508,8.044,3.509,12.416-5.507,14.031-9.958a2.707,2.707,0,0,0-1.492-3.285l-16.8-7.328-3.887-1.695Z" fill="#00496b"/>
                <path id="path187" d="M911.6,3785.737a2.591,2.591,0,0,0-3.275,1.092c-2.07,4.03-5.547,12.964,2.148,16.321,5.974,2.606,10.394-1.639,11.949-3.311a1.71,1.71,0,0,1,1.832-.442l.433.189,3.718,1.622.433.188a1.712,1.712,0,0,1,.923,1.644c-.168,2.278-.272,8.405,5.7,11.011,7.7,3.357,11.878-5.269,13.424-9.527a2.593,2.593,0,0,0-1.428-3.144l-16.071-7.01-3.718-1.622Z" fill="#56d3ff"/>
                <path id="path187-5" d="M932.752,3812.024a9.034,9.034,0,0,0,2.354,1.519c7.394,3.224,11.412-5.063,12.9-9.155a2.489,2.489,0,0,0-1.371-3.02l-1.439-.628a7.866,7.866,0,0,1-.178,1.335,18.11,18.11,0,0,1-2,4.392,16.119,16.119,0,0,1-3.014,3.761,8.038,8.038,0,0,1-2.836,1.677,7.307,7.307,0,0,1-2.558.34A14.774,14.774,0,0,1,932.752,3812.024Z" fill="#0b91c4"/>
                <path id="path2182" d="M913.774,3787.035l-1.6-.7a2.49,2.49,0,0,0-3.147,1.049c-1.989,3.872-5.328,12.456,2.066,15.681.086.037.163.044.249.078a7,7,0,0,1-1.8-2.229,7.085,7.085,0,0,1-.593-1.908,8.823,8.823,0,0,1-.054-2.363,15.684,15.684,0,0,1,1.155-4.522,15.034,15.034,0,0,1,1.84-3.176A8.023,8.023,0,0,1,913.774,3787.035Z" fill="#0b91c4"/>
                <path id="circle2187" d="M913.263,3790.669a1.871,1.871,0,1,1-.967-2.463h0a1.871,1.871,0,0,1,.967,2.463Z" fill="#56d3ff"/>
                <path id="path2185" d="M938.485,3812.15a1.871,1.871,0,1,1-.967-2.463h0a1.87,1.87,0,0,1,.967,2.463Z" fill="#56d3ff"/>
                <path id="path2189" d="M919.57,3790.976c1.135.508,3.265,1.109,3.986,1.739s-.216,4.824-2.8,7.29-5.555,2.242-5.181,1.871a9.246,9.246,0,0,0,4.3-3.613c1.885-2.856,1.324-4.47.386-5.479C918.742,3791.15,919.57,3790.976,919.57,3790.976Z" fill="#e2f5ff"/>
                <path id="path2191" d="M939.135,3799.072a4.6,4.6,0,0,0-5.533,2.275c-1.33,2.717-.97,7.349-1.057,8.228s-1.294.87-1.874-3.286-.1-7.343,1.158-9.268,5.517.489,6.654.825S939.135,3799.072,939.135,3799.072Z" fill="#e2f5ff"/>
                <path id="path2193" d="M911.13,3799.428a1.1,1.1,0,0,1-1.451.569h0a1.1,1.1,0,0,1-.569-1.45h0a1.1,1.1,0,1,1,2.02.881Z" fill="#0b91c4"/>
                <path id="path2195" d="M912.229,3800.744a.674.674,0,1,1-.348-.887A.673.673,0,0,1,912.229,3800.744Z" fill="#0b91c4"/>
                <path id="path2199" d="M912.782,3799.229a.608.608,0,1,1-.314-.8A.607.607,0,0,1,912.782,3799.229Z" fill="#0b91c4"/>
                <path id="path2201" d="M943.952,3802.028a1.431,1.431,0,1,1-.739-1.884A1.431,1.431,0,0,1,943.952,3802.028Z" fill="#0b91c4"/>
                <path id="path2203" d="M943.651,3804.848a.837.837,0,1,1-.433-1.1A.837.837,0,0,1,943.651,3804.848Z" fill="#0b91c4"/>
                <path id="path2205" d="M941.407,3803.434c-.2.447-.577.712-.854.591h0c-.276-.12-.342-.58-.147-1.027h0c.2-.448.578-.712.854-.592h0c.276.121.342.581.147,1.028Z" fill="#0b91c4"/>
                <path id="path2209" d="M910.888,3795.151a1.9,1.9,0,0,1-2.505.983h0a1.9,1.9,0,0,1-.983-2.505h0a1.9,1.9,0,0,1,2.505-.983h0a1.9,1.9,0,0,1,.983,2.5Z" fill="#0b91c4"/>
                <path id="path2211" d="M926.587,3795.06a.83.83,0,1,1-.429-1.092A.829.829,0,0,1,926.587,3795.06Z" fill="#e2f5ff"/>
                <path id="path2227" d="M926.051,3797.227a.77.77,0,0,1-1.014.4h0a.77.77,0,0,1-.4-1.014h0a.77.77,0,0,1,1.014-.4h0a.769.769,0,0,1,.4,1.013Z" fill="#e2f5ff"/>
                <path id="path2229" d="M927.995,3796.656a.956.956,0,0,1-1.258.494h0a.955.955,0,0,1-.493-1.258h0a.955.955,0,0,1,1.257-.493h0a.955.955,0,0,1,.494,1.257Z" fill="#e2f5ff"/>
                <g id="g2324">
                  <path id="path2296" d="M916.345,3787.806l-10.541,6.786a9.127,9.127,0,0,0,.691,4.928l14.579-9.65Zm12.041,5.253-14.49,10.9c4.221.176,7.29-2.784,8.531-4.118a1.71,1.71,0,0,1,1.832-.442l.433.189,3.425,1.494,5.7-5.656-2.42-1.055Zm13.884,6.057-11.2,11.028a8.975,8.975,0,0,0,4.4,3.908c.109.048.215.083.323.127l12.258-12.427a2.5,2.5,0,0,0-.584-.371Z" fill="#e2f5ff" opacity="0.36" style="isolation: isolate"/>
                </g>
                <path id="path2246" d="M936.822,3794.61l-.066.014s13.854,6.029,14.544,8.495-3.055,9.347-6.1,11.57a19.522,19.522,0,0,1-3.8,2.25c5.824-1.243,9.228-8.489,10.7-12.542a3.207,3.207,0,0,0-1.765-3.89Z" fill="#e2f5ff" opacity="0.36" style="isolation: isolate"/>
                <path id="path2278" d="M910.565,3783.157a3.207,3.207,0,0,0-4.054,1.351c-2.562,4.987-6.868,16.043,2.656,20.2a13.623,13.623,0,0,0,5.481,1.22c-.718-.192-1.544-.409-2.538-.731-3.035-.984-7.444-2.791-8.163-7.113s1.549-11.97,3.565-13.731c1.095-.958,2.954-.868,4.434-.592Z" fill="#00496b" opacity="0.36" style="isolation: isolate"/>
              </g>
            </g>
            <g id="layer9">
              <g id="g3893">
                <path id="path200" d="M949.136,3770.748a37.822,37.822,0,0,0-9.573-1.107c-4.55.2-9.107.886-9.908-.515s-.221-2.56,1.311-3.534a7.588,7.588,0,0,1,4.568-.73c1.093.061,2.429-.78,2.127-1.457s-4.365-3.045-5.194-3.623-13.731-5.967-14.387-6.889-.166-3.417,1.317-3.235,14.081,4.987,14.081,4.987-13.566-7.7-14.1-8.974,1.3-3.7,2.877-3.059,13.565,8.243,13.565,8.243-11.067-9.747-11.751-10.724,1.389-3.575,3.353-2.578,11.814,9.315,11.814,9.315-9.147-9.523-9.327-10.754,1.7-2.827,3.491-1.746,8.776,8.878,9.843,9.867,15.242,10.178,16.306,11.211-10.418,15.3-10.418,15.3Z" fill="#56d3ff"/>
                <path id="path2792" d="M919.623,3743.986a2.031,2.031,0,0,0-.262,1.695,4.523,4.523,0,0,0,1.127,1.015,1.852,1.852,0,0,1,2.59-1.529c1.732.859,9.239,5.731,10.643,6.444a1.491,1.491,0,0,0,2.074-.751c-.015-.009-11.978-7.6-13.556-8.239-.987-.4-2.071.4-2.616,1.365Zm4.672-5.352a1.408,1.408,0,0,0-.243,1.506,16.194,16.194,0,0,0,1.255,1.266c.479-.934,1.664-1.733,2.628-.987,1.479,1.143,7.538,6.218,9.275,7.228a1.455,1.455,0,0,0,2.317-.675l-1.7-1.56c.821.871,1.391,1.467,1.391,1.467s-9.85-8.32-11.814-9.316a2.492,2.492,0,0,0-3.109,1.071Zm-6.161,11.734a2.675,2.675,0,0,0-.075,2.536,2.808,2.808,0,0,0,.681.482,2.556,2.556,0,0,1,.335-1.412c.466-1.062,7,1.711,10.023,2.908,2.952,1.169,4.143-.219,4.2-.286-.3-.115-12.457-4.748-13.922-4.928A1.24,1.24,0,0,0,918.134,3750.368Zm11.975-15.188a1.47,1.47,0,0,0-.217.944,5.494,5.494,0,0,0,.911,1.4,1.492,1.492,0,0,1,2.1-.563c1.36.813,6.225,6,7.972,7.71s2.215,1.726,2.289,2.4,9.325,6.283,10.971,8.4-2.466,4.243-1.648,6.164.233,3.232-1.042,5.452a19.672,19.672,0,0,0-1.138,2.169c2.638-3.332,10.116-12.939,9.23-13.8-1.065-1.034-15.241-10.222-16.307-11.211s-8.048-8.786-9.844-9.868a2.364,2.364,0,0,0-3.273.8Zm5.224,15.269.463.41.03-.051-.493-.359Zm-2.028,4.119.014.009v0Zm-3.66,12.211a2.077,2.077,0,0,0-.012,2.358,2.128,2.128,0,0,0,1.592.743,1.8,1.8,0,0,1,.3-2.823c.979-.759,3.238-.346,4.663-.368a4.459,4.459,0,0,0,3.046-1.884c.546-.644-.877-.773-1.766-1.778a4.95,4.95,0,0,0-1.085-.676,4.934,4.934,0,0,1,1.251,1.065c.3.677-1.032,1.518-2.126,1.456a7.605,7.605,0,0,0-4.568.731,4.366,4.366,0,0,0-1.3,1.176Z" fill="#002172" opacity="0.181" style="isolation: isolate"/>
                <path id="path2824" d="M919.48,3744.351a1.787,1.787,0,0,0-.1,1.32c.52,1.25,13.518,8.646,13.953,8.893l.074.029s.356-.144.089-.919-10.42-6.88-11.456-7.6a27.668,27.668,0,0,1-2.563-1.719Zm-1.574,8.167a1.441,1.441,0,0,0,.174.375c.656.922,13.559,6.312,14.388,6.889.721.5,3.883,2.361,4.894,3.28-.023-1.836-1.713-2.7-4.347-4.381a80.616,80.616,0,0,0-12.409-5.55c-1.368-.414-2.132-.381-2.7-.613Zm12.54,17.18c1.672.594,5.4.107,9.117-.056a37.833,37.833,0,0,1,9.572,1.106s.588-.744.92-1.162a.871.871,0,0,0-.318-.617c-.772-.672-8.661-1.306-12.2-1.092s-4.726.569-6.377,1.544a2.254,2.254,0,0,1-.712.277Z" fill="#b5f6ff" opacity="0.416" style="isolation: isolate"/>
                <path id="rect2856" d="M948.98,3769.8l9.64-14.483a2.726,2.726,0,1,1,4.539,3.021l-9.64,14.484a2.726,2.726,0,1,1-4.539-3.022Z" fill="#56d3ff"/>
                <path id="rect2858" d="M958.974,3754.892a2.729,2.729,0,0,1,2.295,4.239l-9.639,14.482a2.775,2.775,0,0,1-.356.431,2.72,2.72,0,0,0,2.246-1.217l9.639-14.483a2.726,2.726,0,0,0-4.185-3.451Z" fill="#002172" opacity="0.181" style="isolation: isolate"/>
              </g>
            </g>
            <g id="layer10">
              <g id="g3856">
                <path id="path236" d="M894.649,3763.994s-.636-.3-1.543-2.631-.787-5.171-4.743-7.044-8.591.967-9.323,5.12,3.573,7.349,5.852,8.823a8.779,8.779,0,0,1,3.157,3.592l-1.162.2a12.539,12.539,0,0,0-4-3.879c-2.829-1.807-3.69-1.714-4.73-6.369s1.775-7.261,4.7-8.8,6.841-.12,8.759,2.474a17.991,17.991,0,0,1,2.653,6.23,6.684,6.684,0,0,1,.374,2.287Z" fill="#fff"/>
                <path id="path238" d="M914.109,3779.24c.237,3.243,3.793,3.982,5.518,7.489s1.634,8.436-3.893,12.066-9.6.8-10.65-.569a8.062,8.062,0,0,1-1.355-2.442l-1.187.337s.387,3.367,4.821,4.931,9.219-.2,12.34-3.89,2.28-8.971.831-11.428-2.653-2.833-3.879-4.485a5.808,5.808,0,0,1-1.294-2.469Z" fill="#fff"/>
                <path id="path203" d="M895.719,3757.249c-2.017,1.169-1.557,2.782-2.357,6.219a9.392,9.392,0,0,1-5.5,6.3,32.753,32.753,0,0,0-4.553,2.849s3.448,1.474,6.759,6.927,9.745,18.986,9.745,18.986,10.1-2.844,13.032-6.687-.288-7.461.929-9.9,4.653-4.563,4.653-4.563-11.116-3.251-15.58-9.357a128.328,128.328,0,0,1-7.128-10.771Z" fill="#00aee8"/>
                <path id="path205" d="M895.718,3757.248c-2.016,1.17-1.556,2.783-2.356,6.22a9.4,9.4,0,0,1-5.5,6.3,32.855,32.855,0,0,0-4.553,2.849,10.283,10.283,0,0,1,1.936,1.265,17.222,17.222,0,0,0,6.492-4.039c3.066-3.193,3.2-5.016,3.968-7.509a8.495,8.495,0,0,1,1.468-2.694C896.289,3758.217,895.718,3757.248,895.718,3757.248Z" fill="#9ce4ff"/>
                <path id="path232" d="M890.64,3774.107s3.431,4.659,6.979,9.009,6.265,7.934,6.265,7.934-3.69-5.693-7.474-11.177S890.64,3774.107,890.64,3774.107Z" fill="#0b6b98"/>
                <path id="path234" d="M911.59,3783.449a45.086,45.086,0,0,1-8.3-6.459c-3.857-3.885-4.906-4.663-5.655-4.764s5.16,7.02,6.743,9.195a28.25,28.25,0,0,0,4.36,4.528,7.873,7.873,0,0,0,2.318,1.378s.416.07.717-1.386A4.27,4.27,0,0,0,911.59,3783.449Z" fill="#0b6b98"/>
                <path id="path207" d="M914.819,3776.082c-1.394,1.077-3.881,3.4-3.5,6.066.524,3.669-.1,5.555-3.445,9.3-2.278,2.554-6.609,4.068-9.164,4.785.675,1.4,1.1,2.292,1.1,2.292s10.1-2.843,13.034-6.686-.289-7.462.927-9.9,4.655-4.564,4.655-4.564S916.923,3776.933,914.819,3776.082Z" fill="#9ce4ff"/>
                <path id="path2877" d="M912.477,3777.262s-8.526-2.749-12.043-6.607a40.459,40.459,0,0,1-4.984-6.447,16.267,16.267,0,0,0,4.031,7.38c3.446,3.848,7.054,6.517,10.211,6.884s2.785-1.21,2.785-1.21Z" fill="#e2f5ff" opacity="0.422" style="isolation: isolate"/>
                <path id="path2879" d="M910.051,3788.23s-5.959-4.776-7.6-7.761a22.979,22.979,0,0,0-4.55-5.623c-.553-.51,1.126,3.2,2.106,4.845s-.252.647-.9.148.857,1.827,3.216,4.326,3.438,3.384,2.858,2.411-1.654-1.946-1.544-2.261.348.321,2.715,2a10.536,10.536,0,0,0,3.7,1.913Z" fill="#e2f5ff" opacity="0.422" style="isolation: isolate"/>
                <path id="path2881" d="M899.415,3787.224s-4.073-5.687-5.218-7.089a21.815,21.815,0,0,0-2.253-2.626c-.364-.236,1.206,2.718,2.169,4.2s2.985,4.485,3.674,5.645S899.852,3787.993,899.415,3787.224Z" fill="#e2f5ff" opacity="0.422" style="isolation: isolate"/>
              </g>
            </g>
            <g id="layer11">
              <g id="g3875">
                <path id="path282" d="M946.253,3779.2c2.649.364,2.95-1.177,6.743,1.052s2.838,3.971,5.177,7.415,7.886,4.265,13.021,3.522,6.622.983,10.835,3.166a24.48,24.48,0,0,0,12.221,2.685c2.924-.293,2.881-6.447,2.881-6.447s-5.177,2.826-10.285,1.247-6.966-5.387-12.333-6.147-7.4,1.82-11.593.775-2.546-5.248-7.267-8.971-8.11-1.61-8.11-1.61Z" fill="#0099c2"/>
                <path id="path284" d="M983.233,3782.268c2.28,3.669,4.791,4.961,8.369,7.639s4,4.877,3.07,6.247a2.544,2.544,0,0,1-2.563,1s3.431.735,5.306-1.091,2.245-3.87,1.427-5.341-3.774-4.086-7.55-7.283a44.575,44.575,0,0,1-6.287-6.571Z" fill="#00567c"/>
                <path id="path241" d="M986.874,3772.449c-1.694,4.56-12.8,4.644-24.8.186h0c-12-4.457-20.356-11.767-18.663-16.328s12.8-4.645,24.8-.188,20.357,11.769,18.663,16.33Z" fill="#c2edff" opacity="0.589" style="isolation: isolate"/>
                <path id="path243" d="M943.43,3756.262c-6.26,15.036-12.642,29.727-16.452,51.739,1.527-2.173,7.672-4.6,16.141-1.458,8.937,3.32,15.414,8.077,14.469,10.625l.046.016,2.271-6.112c3.165-8.52,13.3-1.253,17.114-11.675l9.785-26.783Z" fill="#c2edff" opacity="0.959" style="isolation: isolate"/>
                <path id="path256" d="M933.318,3805.251c-.268.033-.62-.019-.874.026a11.951,11.951,0,0,0-3.49,1.138,5.568,5.568,0,0,0-1.977,1.585c-1.979,5,4.391,6.17,4.391,6.17s1.177-5.408,1.95-8.919Z" fill="#416e89"/>
                <path id="path275" d="M943.43,3756.262c-1.565,3.759-3.138,7.5-4.676,11.331s-3.042,7.771-4.469,11.923-2.777,8.52-4.009,13.228-2.346,9.753-3.3,15.256a5.568,5.568,0,0,1,1.977-1.585,11.951,11.951,0,0,1,3.49-1.138c.254-.044.606.006.874-.026,1.141-5.178,2.513-11.027,3.363-12.645,1.428-2.717,4.516-1.634,5.54-2.3s7.8-23.9,7.8-23.9-8.919-3.427-6.594-10.148Z" fill="#80c0f4" opacity="0.589" style="isolation: isolate"/>
                <path id="path280" d="M938.278,3766.739c-.748,3.158-1.418,5.372,1.686,8.63a13.82,13.82,0,0,0,7.319,3.847l1.316-3.56s-4.928-2.028-7.156-4.3-.6-6.625-.258-7.84-2.907,3.219-2.907,3.219Z" fill="#006ba2" opacity="0.589" style="isolation: isolate"/>
                <path id="path278" d="M938.038,3767.224s7.663-7.361,23.667-1.671a42.449,42.449,0,0,1,22.49,18.1l2.735-6.207s-11.972-16.448-28.587-18.483-18.121,2.81-18.121,2.81Z" fill="#41b2da" opacity="0.978" style="isolation: isolate"/>
                <g id="g2986">
                  <path id="path2962" d="M962.166,3754.23l-21.692,9.157c-1.209,2.933-2.405,5.905-3.571,8.96,12.278-4.852,27.505-10.9,35.825-14.339-1.461-.683-2.976-1.316-4.517-1.889A59.356,59.356,0,0,0,962.166,3754.23Zm21.485,10.913L932.308,3785.6c-.956,3.116-1.858,6.381-2.7,9.818l57.089-22.5.1-.269c.029-.064.057-.13.081-.2.731-1.97-.411-4.56-3.223-7.306Zm-.267,16.831L927.142,3807.1c-.055.3-.112.593-.165.9,1.527-2.173,7.673-4.6,16.142-1.457,1.644.611,3.2,1.272,4.652,1.957l31.447-15.125Z" fill="#e2f5ff" opacity="0.56" style="isolation: isolate"/>
                </g>
                <path id="path2897" d="M978.392,3763.389c-.172.012-.277.031-.277.031a1.406,1.406,0,0,1,.224.352,2.618,2.618,0,1,0-.5,5c-.541,1.842-1.343,3.995-2.257,6.284l-.108,0a3.752,3.752,0,0,0-3.751,3.75c0,.092,0,.185.011.277a3.915,3.915,0,0,0-.791,7.63c-1.407,3.982-2.392,7.411-3.655,9.851a2.515,2.515,0,0,0-3.875,2.114h0a2.514,2.514,0,0,0,.486,1.484c-3.276,1.522-5.592-.658-7.576,2.189-.052.074-.081.13-.131.2a2.2,2.2,0,1,0-2.436,3.646,1.6,1.6,0,0,1-1.912.643c-1.777-.642-4.83-3.23-12.325-4.429s-12.568,4.6-12.568,4.6,8.09-6.114,17.608-1.39,11.7,7.873,12.546,7.642,1.369-4.264,3.169-5.842,4.852-2.252,9.236-2.936,3.94-.42,6.454-4.976,9.413-23.477,10.5-27.013-4.513-7.271-5.6-8.324a3.267,3.267,0,0,0-2.472-.778Z" fill="#002172" opacity="0.195" style="isolation: isolate"/>
                <path id="circle2925" d="M966.545,3792.014a1.207,1.207,0,1,1-1.207-1.207A1.207,1.207,0,0,1,966.545,3792.014Z" fill="#002172" opacity="0.364" style="isolation: isolate"/>
                <path id="circle2927" d="M967.791,3789.284a1.208,1.208,0,1,1-1.207-1.207A1.208,1.208,0,0,1,967.791,3789.284Z" fill="#002172" opacity="0.364" style="isolation: isolate"/>
                <path id="path2919" d="M964.84,3789.838a.689.689,0,0,1-.689.689h0a.689.689,0,0,1-.689-.689h0a.689.689,0,0,1,.689-.689h0a.689.689,0,0,1,.689.689Z" fill="#002172" opacity="0.364" style="isolation: isolate"/>
                <path id="path2935" d="M949.855,3752.82c-5.256.057-5.856,4.52-7.723,7.009-1.534,2.044-11.6,34.9-14.054,44.727a21.144,21.144,0,0,0,5.6-5.856c.983-1.739,2.774-7.468,4.754-13.5a2.018,2.018,0,0,0,2.681-1.907h0a2.021,2.021,0,0,0-1.4-1.923,91.987,91.987,0,0,1,4.007-10.34c1.281-2.56,2.288-4.624,3.223-6.316a2.361,2.361,0,0,0,3.507-2.064v0a2.364,2.364,0,0,0-.853-1.817,9.839,9.839,0,0,1,2.537-2.033,27.491,27.491,0,0,1,7.827-2.6s-4.847-3.436-10.1-3.378Z" fill="#e2f5ff" opacity="0.56" style="isolation: isolate"/>
                <path id="path2955" d="M952.084,3771.135a1.457,1.457,0,1,1-1.458-1.457A1.458,1.458,0,0,1,952.084,3771.135Z" fill="#e2f5ff" opacity="0.56" style="isolation: isolate"/>
                <path id="path2957" d="M947.053,3783.463a1.858,1.858,0,0,1-1.858,1.857h0a1.857,1.857,0,0,1-1.857-1.857h0a1.857,1.857,0,0,1,1.857-1.858h0a1.858,1.858,0,0,1,1.858,1.858Z" fill="#e2f5ff" opacity="0.56" style="isolation: isolate"/>
              </g>
            </g>
            <g id="layer12">
              <g id="g3886">
                <path id="path294" d="M910.448,3752.5c-.474-1.453,1.156-2.723,2.914-3.965s4.129-3.122,3.209-5.415-3.9-2.034-6.118.046-5.407,4.694-7.908,5.5-5.746,2.462-4.606,5.229,4.336.76,5.857.436,2.626,1.4,2.626,1.4-.052,1.16-1.092.448-1.84-.79-3.917.04-3.333-.261-4.2-2.131-.1-3.15,2.006-4.552,5.065-2.342,6.43-3.608,5.146-5.55,8.023-5.534,4.408,1.742,4.11,4.153-3.013,4.249-4.248,4.679-2.429,1.779-2.3,2.941S910.448,3752.5,910.448,3752.5Z" fill="#0085c1"/>
                <path id="path292" d="M932.026,3775.957s4.1-2.047,7.919-1.068,4.937,5.641,1.932,9.585-7.927,5.247-10.516,3.747-2.311-3.646-2.6-4.982a4.006,4.006,0,0,0-1.622-2.188l.677-.467s1.735,1,1.872,2.38.122,3.071,1.922,4.192a5.3,5.3,0,0,0,4.641.591,12.911,12.911,0,0,0,5.934-4.867c1.092-2.04,1.706-5.2-.926-6.592a6.867,6.867,0,0,0-6.28-.369c-1.72.667-2.589,1.249-3.151.974S932.026,3775.957,932.026,3775.957Z" fill="#0085c1"/>
                <path id="path289" d="M927.766,3758.842c-5.052-6.239-7.92-3.219-10.473-4.483s-3.767-3.97-5.647-4.218-6.121,3.087-7.038,5.114-1.689,10.81,4.62,18.6,15.061,8.863,17.235,8.386,6.317-3.931,6.465-5.821-2.248-3.643-2.954-6.4S932.819,3765.081,927.766,3758.842Z" fill="#56d3ff"/>
                <path id="path2988" d="M928.215,3760.308c-.21-.25-.352-.389-.352-.389a5.932,5.932,0,0,1,.427,2.453,7.042,7.042,0,0,1-1.123,3.022,1.3,1.3,0,0,0-1.646,1.959h0a1.307,1.307,0,0,0,.747.455c-.259,2,1.549,3.649,1.944,4.694a1.094,1.094,0,0,1,.054.213,1.3,1.3,0,0,0-1.482,2.038h0a1.308,1.308,0,0,0,.575.405,10.124,10.124,0,0,1-1.52,1.706l-.042-.056a2,2,0,0,0-3.49,1.78,11.164,11.164,0,0,1-5.635-1.134,4.469,4.469,0,0,0-3.057-.072,14.718,14.718,0,0,0,4.8,2.886c3.357,1.377,7.669,2.083,8.6,1.287s4.619-4,4.835-5.719-.982-2.8-2.082-4.848.249-3.49.3-6.171a7.276,7.276,0,0,0-1.853-4.509Z" fill="#002172" opacity="0.181" style="isolation: isolate"/>
                <path id="path3004" d="M926.566,3757.5c-4.317-4.408-6.931-1.982-9.273-3.142-2.553-1.264-3.767-3.97-5.647-4.218s-6.121,3.087-7.038,5.114c-.775,1.71-1.426,8.231,2.173,14.906-.183-.555-.343-1.025-.556-1.706-1.545-4.922-2-10.32-.5-12.144s4.21-3.718,6.447-3.085,2.538,2.518,7.2,2.979C922.976,3756.561,924.493,3756.017,926.566,3757.5Z" fill="#ddf4ff" opacity="0.456" style="isolation: isolate"/>
                <path id="circle3060" d="M921.523,3777.592a.633.633,0,0,1-.891-.093h0a.635.635,0,0,1,.093-.892h0a.635.635,0,0,1,.892.094h0a.633.633,0,0,1-.094.891Z" fill="#002172" opacity="0.181" style="isolation: isolate"/>
                <path id="path3056" d="M921.7,3775.689a.635.635,0,0,1-.892-.094h0a.635.635,0,0,1,.094-.892h0a.633.633,0,0,1,.891.094h0a.635.635,0,0,1-.093.892Z" fill="#002172" opacity="0.181" style="isolation: isolate"/>
                <path id="path3066" d="M910.589,3752.755s4.228,1.524,11.8,10.678,7.424,12.64,7.424,12.64a123.338,123.338,0,0,0-9.644-13.16C915.409,3757.511,910.92,3752.672,910.589,3752.755Z" fill="#002172" opacity="0.181" style="isolation: isolate"/>
                <path id="path3068" d="M907.107,3754.027s.108,6.786,7.923,15.749,10.925,9.4,10.925,9.4-6.639-1.49-12.743-8.839A28.117,28.117,0,0,1,907.107,3754.027Z" fill="#002172" opacity="0.181" style="isolation: isolate"/>
              </g>
            </g>
            <g id="Grupo_70670" data-name="Grupo 70670">
              <path id="path343" d="M972.162,3730.881c1.365.059,2.114.7,3.347,2.081,1.121,1.258,15.863,8.887,20.138,11.465l.007-.011.073.059c.391.237.722.446.9.582a.9.9,0,0,1,.287.393c1.7,1.4,6.641,5.472,9.355,7.363,3.208,2.234,4.383,5.545,5.608,7.665s3.118,2.884,2.881,4.354-1.238,2.109-2.846,2.426c-1.1.216-2.58-.741-3.959-2.091a14.807,14.807,0,0,0,1.2,2.205c1.885,2.868,1.065,4.207-1.635,5.07-2.109.675-3.061-.907-3.623-2.2a2.364,2.364,0,0,1-1.825,2.33,3.788,3.788,0,0,1-3.775-.764c-.044,1.6-1.8,3.194-4.082,2.945-2.9-.317-5.239-4.135-7.723-5.245-2.086-.931-5.2-2.442-6.11-3.447-2.321-1.329-10.018-7.637-13.026-9.642-3.323-2.214-8.973-5.285-9.793-6.217s1.771-3.9,3.089-5.281,1.8-4.585,4.183-5.177,3.611-.917,3.695-2.932.334-2.413,1.167-2.952,1.8-2.5,2.46-2.98Z" fill="#56d3ff"/>
              <path id="path3444" d="M965.3,3739.627c-1.06,2.266-1.935,3.649-3.132,6.209-1.319,2.82,3.245,6.716,8.645,10.092s8.657,5.592,11,5.174c1.665-.3,3.364-1.825,4.216-2.69-.98,1.079-2.875,3.346-2.691,4.555.248,1.623,5.6,3.691,9.15,6.64a9.846,9.846,0,0,0,5.818,2.207c-.048,1.6-1.8,3.189-4.082,2.94-2.9-.317-5.239-4.135-7.723-5.245-2.086-.931-5.2-2.442-6.11-3.447-2.321-1.329-10.017-7.637-13.026-9.642-3.323-2.214-8.973-5.285-9.793-6.217s1.771-3.9,3.089-5.281,1.8-4.585,4.184-5.177Zm20.725,18.785c.335-.369.565-.6.565-.6S986.37,3758.062,986.025,3758.412Zm14.292,13.328a7.071,7.071,0,0,1,.8,1.037,3.972,3.972,0,0,1-2.812-.962A10.012,10.012,0,0,0,1000.317,3771.74Z" fill="#002172" opacity="0.195" style="isolation: isolate"/>
              <path id="path3446" d="M987.755,3756.863s-1.619,1.281,2.019,4.378,7.122,8.7,11.275,10.434a12.138,12.138,0,0,0,1.7.577,3.636,3.636,0,0,1-.668.321,3.757,3.757,0,0,1-3.685-.7,11.084,11.084,0,0,0-3.6-4.734c-2.834-2.439-9.688-5.5-10.131-6.779S987.755,3756.863,987.755,3756.863Z" fill="#002172" opacity="0.195" style="isolation: isolate"/>
              <path id="path3448" d="M989.023,3753.72a2.947,2.947,0,0,0,2.421,1.994c2.082.455,6.441,3.274,10.4,7.17s3.988,5.916,6.42,7.02a1.959,1.959,0,0,0,1.919.089c-.008,1.177-.961,1.907-2.656,2.449a2.983,2.983,0,0,1-1.1.155,5.986,5.986,0,0,1-.87-.467,7.535,7.535,0,0,1-1.167-.946,7.367,7.367,0,0,1-.483-.941,2.359,2.359,0,0,1-.024.4c-1.63-1.879-2.5-4.332-4.366-6.39-2.411-2.661-5.379-6.2-10.727-7.781Z" fill="#002172" opacity="0.195" style="isolation: isolate"/>
              <path id="path3450" d="M993.846,3748.081s1.782,1.373,6.956,6.028,8.078,8.505,10.449,9.961a4.379,4.379,0,0,0,3.523.418,1.481,1.481,0,0,1-.013.344c-.236,1.47-1.238,2.109-2.846,2.426a4.069,4.069,0,0,1-2.955-1.2c-.162-.2-.3-.386-.492-.6-2.865-3.209-4.652-5.634-8.573-8.5a82.413,82.413,0,0,0-8.688-5.151Z" fill="#002172" opacity="0.195" style="isolation: isolate"/>
              <path id="path3470" d="M972.162,3730.881c1.365.059,2.114.7,3.347,2.081,1.121,1.258,15.863,8.887,20.138,11.465l.007-.011.073.059c.391.237.722.446.9.582a.9.9,0,0,1,.287.393c1.7,1.4,6.641,5.472,9.355,7.363,3.208,2.234,4.383,5.545,5.608,7.665s3.118,2.884,2.881,4.354a2.791,2.791,0,0,1-.075.307c-1.609-.193-3.363-2.736-4.96-5.51-2.206-3.831-8.585-7.763-12.367-10.833s-2.39-2.43-5.368-4.377-11.191-6.308-15.365-9.451c-2.629-1.981-4.248-2.949-5.607-2.651a7.15,7.15,0,0,1,1.143-1.436Z" fill="#e2f5ff" opacity="0.56" style="isolation: isolate"/>
              <path id="path3474" d="M1009.077,3769.84c-2.484-4.248-3.164-6.288-6.06-8.653a34.637,34.637,0,0,1-4.246-3.97,7.516,7.516,0,0,1,3.669,1.948c1.206,1.437,5.173,5.834,6.184,7.957S1009.077,3769.84,1009.077,3769.84Z" fill="#e2f5ff" opacity="0.56" style="isolation: isolate"/>
              <path id="path3476" d="M1001.322,3770.962c-2.226-3.024-3.04-6.093-5.977-8.384s-7.626-5.194-7.626-5.194,6.008,1.632,9.234,4.851,4.884,5.62,5.564,7.753S1001.322,3770.962,1001.322,3770.962Z" fill="#e2f5ff" opacity="0.56" style="isolation: isolate"/>
              <path id="path3478" d="M995.912,3771.226c-1.242-1.327-6.306-5.78-8.267-6.768s-3.392-2.607-1.988-2.348,7.751,4.073,9.667,6.251S995.912,3771.226,995.912,3771.226Z" fill="#e2f5ff" opacity="0.56" style="isolation: isolate"/>
              <path id="path353" d="M986.628,3738.959c1.011.84,5.064,1.813,7.594,1.6s4,.617,6.429.714,4.114-.514,4.722,2-2.576,4.41-5.542,4.3-3.6.182-7.214,1.2-4.273,2.106-7.149,3.933-4.578,2.226-6.505,1.058-3.092-6.092-.578-10.05,6.38-5.753,8.243-4.752Z" fill="#56d3ff"/>
              <path id="path3452" d="M977.008,3749.778c1.7,2.756,3.554,2.452,9.64-.9,6.624-3.643,10.712-1.966,14.569-3.988a5.686,5.686,0,0,0,2.809-3.434,2.226,2.226,0,0,1,1.347,1.806c.608,2.511-2.576,4.41-5.542,4.3s-3.6.183-7.214,1.2-4.273,2.106-7.149,3.933-4.578,2.225-6.505,1.057a5.442,5.442,0,0,1-1.955-3.982Z" fill="#002172" opacity="0.195" style="isolation: isolate"/>
              <path id="path3472" d="M980.472,3741.158c2.236-2.127,4.759-2.95,6.156-2.2,1.012.84,5.064,1.812,7.594,1.6s4,.618,6.429.714c1.638.066,2.936-.187,3.8.41a9.06,9.06,0,0,0-1.161.991c-1.781,1.884-8.05,1.02-13.082.857s-8.295-2.6-11.5.067c0,0,.007-.262.006-.367a13.6,13.6,0,0,1,1.76-2.069Z" fill="#e2f5ff" opacity="0.56" style="isolation: isolate"/>
              <path id="path3653" d="M970.938,3735.2c-1.494,2.245.614,2.833-1.592,4.262s-1.994-.135-3.421,2.374-1.865,5.138-.686,3.738,2.587-1.739,4.756-4.35S970.938,3735.2,970.938,3735.2Z" fill="#002172" opacity="0.195" style="isolation: isolate"/>
            </g>
          </g>
          <g id="Grupo_70676" data-name="Grupo 70676">
            <rect id="Rectángulo_5675" data-name="Rectángulo 5675" width="114.347" height="8.679" transform="translate(869.316 3974.635)" fill="#1d1d1b"/>
            <g id="Grupo_70672" data-name="Grupo 70672">
              <path id="Trazado_104537" data-name="Trazado 104537" d="M874.648,3993.838a4.436,4.436,0,0,1-4.44,4.444h0a4.437,4.437,0,0,1-4.437-4.444v-33.623a4.432,4.432,0,0,1,4.437-4.439h0a4.431,4.431,0,0,1,4.44,4.439Z" fill="#4f514f"/>
            </g>
            <g id="Grupo_70673" data-name="Grupo 70673">
              <path id="Trazado_104538" data-name="Trazado 104538" d="M870.208,3955.776c-.032,0-.063.006-.09.006v42.487c.027,0,.058.013.09.013a4.436,4.436,0,0,0,4.44-4.444v-33.623A4.431,4.431,0,0,0,870.208,3955.776Z" fill="#2a2b2a"/>
            </g>
            <g id="Grupo_70674" data-name="Grupo 70674">
              <path id="Trazado_104539" data-name="Trazado 104539" d="M986.6,3993.838a4.433,4.433,0,0,1-4.437,4.444h0a4.436,4.436,0,0,1-4.44-4.444v-33.623a4.431,4.431,0,0,1,4.44-4.439h0a4.429,4.429,0,0,1,4.437,4.439Z" fill="#4f514f"/>
            </g>
            <g id="Grupo_70675" data-name="Grupo 70675">
              <path id="Trazado_104540" data-name="Trazado 104540" d="M981.6,3955.834a4.422,4.422,0,0,0-3.883,4.381v33.623a4.429,4.429,0,0,0,3.883,4.387Z" fill="#2a2b2a"/>
            </g>
          </g>
          <path id="Trazado_104541" data-name="Trazado 104541" d="M852.369,3807.384c2.508,17.423,21.417,148.735,24.8,166.058,3.641,18.572,21.128,17.805,21.128,17.805h55.772s17.493.767,21.117-17.805c3.392-17.323,22.308-148.635,24.814-166.058Z" fill="#e40811"/>
          <path id="Trazado_104542" data-name="Trazado 104542" d="M999.508,3810.808c.215-1.4.349-2.557.489-3.424H852.369c.122.867.294,2.028.492,3.424Z" fill="#96a2c3"/>
          <rect id="Rectángulo_5676" data-name="Rectángulo 5676" width="155.369" height="13.47" transform="translate(848.5 3796.382)" fill="#f98790"/>
          <rect id="Rectángulo_5677" data-name="Rectángulo 5677" width="155.369" height="3.138" transform="translate(848.5 3796.382)" fill="#a51a21"/>
          <rect id="Rectángulo_5678" data-name="Rectángulo 5678" width="155.369" height="5.988" transform="translate(848.5 3803.864)" fill="#d1cfda" style="mix-blend-mode: multiply;isolation: isolate"/>
          <path id="Trazado_104543" data-name="Trazado 104543" d="M901.173,3972.39c-2.707-13.023-17.968-159.624-17.968-159.624l-25.473.677c.449,1.352,21.327,147.493,21.327,147.493s3.674,17.569,6.066,21.332c5.722,8.979,34.006,6.728,43.871,6.965C929,3989.233,903.856,3985.406,901.173,3972.39Z" fill="#a51a21"/>
        </g>
      </g>
      <rect id="Rectángulo_5679" data-name="Rectángulo 5679" width="188.348" height="278.609" transform="translate(833.584 3732.076)" fill="none"/>
    </g>
    <g id="g4111">
      <path id="path4105" d="M931.512,3887.869a4.005,4.005,0,0,0-2.358-5.15,4.094,4.094,0,0,0-.729-.2v-2.073a14.017,14.017,0,0,0,2-27.761v-.744a20.022,20.022,0,0,1,17.175,22.513q-.042.3-.091.609a20.025,20.025,0,0,1,11.709,25.783c-.073.193-.148.385-.226.574l-.645-.373a14.015,14.015,0,0,0-25.041-12.145Zm4.559-11.843a13.352,13.352,0,0,0-16.625,0,12.653,12.653,0,0,1-2.9-3.659,18.017,18.017,0,0,1,22.431,0A13.353,13.353,0,0,1,936.071,3876.026Z" fill="#fff"/>
      <path id="path4107" d="M924.673,3889.024a4.007,4.007,0,0,0,6.172,0l1.8,1.037a14.016,14.016,0,0,0,23.039,15.616l.646.371a20.024,20.024,0,0,1-28.086,3.618c-.163-.127-.322-.255-.482-.385a20.025,20.025,0,0,1-28.184-2.75c-.13-.158-.258-.32-.383-.483l.644-.371a14.017,14.017,0,0,0,23.041-15.616Zm7.976,9.87a13.353,13.353,0,0,0,8.312-14.4,12.662,12.662,0,0,1,4.621-.686,18.018,18.018,0,0,1-11.216,19.426A13.32,13.32,0,0,1,932.649,3898.894Z" fill="#fff"/>
      <path id="path4109" d="M927.09,3882.523a4.008,4.008,0,0,0-3.085,5.346l-1.8,1.037a14.015,14.015,0,0,0-25.041,12.145l-.647.373a20.025,20.025,0,0,1,10.911-26.131c.191-.078.381-.153.574-.226a20.025,20.025,0,0,1,16.475-23.033c.2-.033.4-.063.609-.089v.744a14.017,14.017,0,0,0,2,27.761Zm-12.534,1.974a13.349,13.349,0,0,0,8.312,14.4,12.655,12.655,0,0,1-1.718,4.343,18.018,18.018,0,0,1-11.215-19.426A13.335,13.335,0,0,1,914.556,3884.5Z" fill="#fff"/>
    </g>
  </g>
</svg>
