<svg xmlns="http://www.w3.org/2000/svg" width="243.485" height="253.456" viewBox="0 0 243.485 253.456">
  <g id="Grupo_69971" data-name="Grupo 69971" transform="translate(-1096.766 -697.833)">
    <g id="Grupo_69964" data-name="Grupo 69964" transform="translate(1096.766 777.784)">
      <g id="Grupo_69959" data-name="Grupo 69959" transform="translate(64.562 105.041)">
        <g id="Grupo_69957" data-name="Grupo 69957" transform="translate(21.888)">
          <path id="Trazado_101949" data-name="Trazado 101949" d="M1144.06,812.43h5.855c.968-1.734,2.282-3.374,3.285-4.849,3.149-4.619,6.141-9.284,9.289-13.911,1.243-1.82,6.006-11.172,5.218-14.669a2.163,2.163,0,0,0-.159-.472c-.485-1.039-1.747-1.241-4.21.03-5.764,2.969-10.97,11.892-13.451,17.585A156.549,156.549,0,0,0,1144.06,812.43Z" transform="translate(-1110.997 -760.903)" fill="#9adbc4"/>
          <path id="Trazado_101950" data-name="Trazado 101950" d="M1142.332,822.364h3.571c.546-2.734,1.946-5.549,2.795-7.983a122.445,122.445,0,0,1,6.833-16.6c3.419-6.537,6.739-12.807,7.386-20.347.219-2.5.159-5.292-1.18-6.131a1.283,1.283,0,0,0-.354-.174c-.72-.233-1.741-.008-3.154.909-4.314,2.8-6.131,10.5-7.609,15-1.473,4.536-2.684,9.095-3.768,13.734-1.554,6.638-2.575,13.446-4.16,19.819C1142.539,821.209,1142.436,821.8,1142.332,822.364Z" transform="translate(-1113.635 -771.038)" fill="#9adbc4"/>
          <path id="Trazado_101951" data-name="Trazado 101951" d="M1131.176,790.064c1.056,4.763,6.024,7.389,8.592,11.3h5.706c-.6-5.37-2.813-11.066-6.621-14.753a6.049,6.049,0,0,0-5.231-1.862c-.146.03-.285.073-.43.114C1131.56,785.419,1130.519,787.135,1131.176,790.064Z" transform="translate(-1130.976 -750.244)" fill="#9adbc4"/>
          <path id="Trazado_101952" data-name="Trazado 101952" d="M1137.115,801.477v8.592h5.354c1.418-5.845,1.946-12.39,2.7-18.146.4-3.1,2.691-14.786-4-12.9a4.432,4.432,0,0,0-.475.169,4.006,4.006,0,0,0-.415.215C1135.379,782.391,1137.115,797.057,1137.115,801.477Z" transform="translate(-1122.057 -759.156)" fill="#9adbc4"/>
          <path id="Trazado_101953" data-name="Trazado 101953" d="M1139.956,815.146h4.953c.647-2.37.97-5.175,1.544-7.439,1.226-4.9,2.777-9.759,4-14.677a53.438,53.438,0,0,0,1.845-13.219c.008-2.378-.778-4.036-2.082-4.172a2.068,2.068,0,0,0-.468.005,4.965,4.965,0,0,0-2.676,1.865c-4.981,5.757-5.241,16.37-5.908,23.572C1140.737,805.634,1140.095,810.527,1139.956,815.146Z" transform="translate(-1117.263 -764.03)" fill="#9adbc4"/>
          <path id="Trazado_101954" data-name="Trazado 101954" d="M1138.1,809.843h.45c1.8-10.227,2.681-20.85.2-30.875a4.017,4.017,0,0,0-.414.215C1140.763,789.139,1139.883,799.689,1138.1,809.843Z" transform="translate(-1120.102 -758.929)" fill="#fff"/>
          <path id="Trazado_101955" data-name="Trazado 101955" d="M1131.853,784.8c1.167,1.218,2.262,2.5,3.293,3.8,2.944,3.737,5.706,8.028,6.909,12.7h.475c-1.18-4.738-3.965-9.125-6.97-12.86-1.033-1.286-2.127-2.547-3.277-3.755C1132.136,784.721,1132,784.764,1131.853,784.8Z" transform="translate(-1129.637 -750.191)" fill="#fff"/>
          <path id="Trazado_101956" data-name="Trazado 101956" d="M1140.826,815.146h.462c1.979-13.279,4.126-26.521,7.6-39.507a2.068,2.068,0,0,0-.468.005C1144.952,788.625,1142.8,801.866,1140.826,815.146Z" transform="translate(-1115.935 -764.03)" fill="#fff"/>
          <path id="Trazado_101957" data-name="Trazado 101957" d="M1143.037,822.312h.455a191.392,191.392,0,0,1,3.932-20.052c2.805-10.909,6.793-21.717,13.237-31.014a1.287,1.287,0,0,0-.354-.174c-6.411,9.2-10.444,19.918-13.227,30.713A197.371,197.371,0,0,0,1143.037,822.312Z" transform="translate(-1112.559 -770.987)" fill="#fff"/>
          <path id="Trazado_101958" data-name="Trazado 101958" d="M1144.849,811.915h.485c6.924-22.91,16.044-30.751,21.168-33.43a2.152,2.152,0,0,0-.159-.472,23.941,23.941,0,0,0-5.347,3.833C1156.423,786.082,1150.034,794.7,1144.849,811.915Z" transform="translate(-1109.792 -760.388)" fill="#fff"/>
        </g>
        <g id="Grupo_69958" data-name="Grupo 69958" transform="translate(56.848 7.581)">
          <path id="Trazado_101959" data-name="Trazado 101959" d="M1157.894,815.43h5.852c.968-1.734,2.284-3.374,3.288-4.847,3.146-4.622,6.138-9.287,9.292-13.914,1.238-1.819,6-11.172,5.219-14.669a2.318,2.318,0,0,0-.162-.473c-.483-1.036-1.744-1.241-4.21.03-5.761,2.969-10.967,11.892-13.451,17.588A155.276,155.276,0,0,0,1157.894,815.43Z" transform="translate(-1124.833 -763.902)" fill="#9adbc4"/>
          <path id="Trazado_101960" data-name="Trazado 101960" d="M1156.166,825.363h3.571c.546-2.734,1.946-5.549,2.8-7.983a122.809,122.809,0,0,1,6.83-16.6c3.419-6.54,6.742-12.807,7.389-20.347.223-2.5.159-5.292-1.18-6.131a1.3,1.3,0,0,0-.356-.174c-.717-.233-1.739-.005-3.151.91-4.314,2.8-6.13,10.5-7.609,15-1.473,4.534-2.684,9.092-3.768,13.732-1.554,6.638-2.575,13.446-4.159,19.819C1156.376,824.209,1156.27,824.8,1156.166,825.363Z" transform="translate(-1127.471 -774.038)" fill="#9adbc4"/>
          <path id="Trazado_101961" data-name="Trazado 101961" d="M1145.011,793.064c1.054,4.763,6.021,7.389,8.589,11.3h5.707c-.6-5.37-2.813-11.068-6.621-14.753a6.057,6.057,0,0,0-5.231-1.862c-.147.03-.288.073-.43.116C1145.392,788.421,1144.354,790.132,1145.011,793.064Z" transform="translate(-1144.811 -753.244)" fill="#9adbc4"/>
          <path id="Trazado_101962" data-name="Trazado 101962" d="M1150.949,804.479v8.592h5.349c1.423-5.842,1.951-12.387,2.709-18.146.4-3.1,2.691-14.786-4-12.9a4.6,4.6,0,0,0-.475.172,3.735,3.735,0,0,0-.414.215C1149.213,785.392,1150.949,800.061,1150.949,804.479Z" transform="translate(-1135.893 -762.157)" fill="#9adbc4"/>
          <path id="Trazado_101963" data-name="Trazado 101963" d="M1153.79,818.146h4.953c.647-2.37.97-5.173,1.542-7.442,1.228-4.9,2.777-9.759,4-14.674a53.442,53.442,0,0,0,1.845-13.216c.005-2.381-.781-4.038-2.085-4.175a1.925,1.925,0,0,0-.465.008,4.933,4.933,0,0,0-2.676,1.86c-4.983,5.759-5.241,16.373-5.911,23.575C1154.571,808.634,1153.929,813.526,1153.79,818.146Z" transform="translate(-1131.1 -767.03)" fill="#9adbc4"/>
          <path id="Trazado_101964" data-name="Trazado 101964" d="M1151.931,812.843h.45c1.8-10.227,2.681-20.85.2-30.875a3.735,3.735,0,0,0-.414.215C1154.592,792.139,1153.72,802.692,1151.931,812.843Z" transform="translate(-1133.938 -761.93)" fill="#fff"/>
          <path id="Trazado_101965" data-name="Trazado 101965" d="M1145.687,787.807c1.165,1.216,2.262,2.494,3.295,3.8,2.944,3.735,5.7,8.026,6.906,12.7h.475c-1.185-4.738-3.967-9.125-6.972-12.862-1.028-1.281-2.125-2.542-3.275-3.753C1145.97,787.721,1145.828,787.764,1145.687,787.807Z" transform="translate(-1143.473 -753.191)" fill="#fff"/>
          <path id="Trazado_101966" data-name="Trazado 101966" d="M1154.66,818.146h.46c1.979-13.279,4.129-26.521,7.6-39.507a1.923,1.923,0,0,0-.465.008C1158.784,791.625,1156.634,804.866,1154.66,818.146Z" transform="translate(-1129.771 -767.03)" fill="#fff"/>
          <path id="Trazado_101967" data-name="Trazado 101967" d="M1156.871,825.312h.453a191.149,191.149,0,0,1,3.934-20.052c2.805-10.909,6.792-21.717,13.236-31.014a1.3,1.3,0,0,0-.356-.174c-6.409,9.2-10.441,19.918-13.226,30.716A197.845,197.845,0,0,0,1156.871,825.312Z" transform="translate(-1126.395 -773.987)" fill="#fff"/>
          <path id="Trazado_101968" data-name="Trazado 101968" d="M1158.682,814.915h.488c6.924-22.907,16.044-30.751,21.171-33.43a2.308,2.308,0,0,0-.162-.473,23.906,23.906,0,0,0-5.347,3.834C1170.258,789.082,1163.872,797.7,1158.682,814.915Z" transform="translate(-1123.63 -763.388)" fill="#fff"/>
        </g>
        <path id="Trazado_101969" data-name="Trazado 101969" d="M1209.682,804.673c-2.024-5.645-10.886-.447-14.376.943,3.053-1.825,10.988-8.923,7.452-13.211-3.351-4.084-10.906,1.339-15.379,5.355,3.753-4.147,8.192-10.765,3.3-11.662-4.69-.864-12.615,5.279-16.175,10.563,2.484-5.807,5.38-14.742-2.156-9.84-1.885,1.228-4.65,4.569-7,8.514,1.044-3.657.859-6.868-2.972-7.235-5.949-.574-12.37,10.318-14.111,17.484-.135-1.145-.622-1.724-1.347-1.643-2.168.174-3.065,2.972-3.25,5.024-.73-1.865-1.041-7.386-4.973-6.022-3.462,1.2-2.519,6.345-2.476,9.117-2.027-2.292-11.67-9.135-13.759-3.609-1.072,2.853,3.826,5.633,7.253,7.7h9.294l.1-.02,26.438-.063c.157.03.316.053.475.083H1200.8C1204.09,814.16,1211.228,808.969,1209.682,804.673Z" transform="translate(-1122.315 -749.103)" fill="#81c9b1"/>
        <path id="Trazado_101970" data-name="Trazado 101970" d="M1216.894,808.081H1159.4c-1.425-3.583-8.582-6.186-7.247-9.676,1.711-4.5,8.625-.561,10.007,1.948-.1-2.219-.2-7.826,2.474-8.923,3.735-1.531,2.906,5.729,3,8.132.915-3.215,3.833-8.936,7.723-9.011,1,2.881.617,6.474.081,9.405.361-2.33,5.827-8.536,8.726-7.4,1.981.779,1.8,5.479.854,7.778,2.813-4.119,13.406-9.7,17.449-6.823,3.962,2.82-2.76,7.528-4.986,9.335,2.618-1.782,8.392-6.045,11.725-3.621,3.121,2.262.682,4.488-2.08,5.448,2.519-.195,9.6-2.706,11.012.387C1218.655,806.175,1217.94,807.224,1216.894,808.081Z" transform="translate(-1077 -741.242)" fill="#81c9b1"/>
      </g>
      <g id="Grupo_69961" data-name="Grupo 69961" transform="translate(0 95.412)">
        <g id="Grupo_69960" data-name="Grupo 69960" transform="translate(38.088)">
          <path id="Trazado_101971" data-name="Trazado 101971" d="M1136.281,801.729c-3.366-7.824-10.441-20.087-18.326-24.2-3.371-1.759-5.1-1.489-5.769-.068a3.4,3.4,0,0,0-.222.647c-1.1,4.789,5.367,17.641,7.056,20.143,4.293,6.363,8.364,12.774,12.648,19.129,1.362,2.029,3.154,4.286,4.475,6.669l8.021.038A212.417,212.417,0,0,0,1136.281,801.729Z" transform="translate(-1111.839 -753.367)" fill="#9adbc4"/>
          <path id="Trazado_101972" data-name="Trazado 101972" d="M1143.463,835.265c-2.13-8.746-3.487-18.086-5.577-27.193-1.451-6.366-3.077-12.625-5.069-18.854-2-6.184-4.435-16.749-10.333-20.61-1.931-1.263-3.328-1.582-4.314-1.266a1.826,1.826,0,0,0-.49.232c-1.84,1.147-1.943,4.971-1.66,8.4.837,10.34,5.352,18.955,10,27.939a167.685,167.685,0,0,1,9.256,22.8c1.147,3.343,3.047,7.212,3.778,10.962l4.9.023C1143.809,836.925,1143.67,836.114,1143.463,835.265Z" transform="translate(-1105.635 -767.228)" fill="#9adbc4"/>
          <path id="Trazado_101973" data-name="Trazado 101973" d="M1151.641,786.3c-.195-.061-.387-.121-.589-.164a8.3,8.3,0,0,0-7.182,2.519c-5.246,5.029-8.316,12.822-9.166,20.183l7.816.036c3.546-5.34,10.368-8.905,11.847-15.425C1155.29,789.43,1153.88,787.072,1151.641,786.3Z" transform="translate(-1076.921 -738.554)" fill="#9adbc4"/>
          <path id="Trazado_101974" data-name="Trazado 101974" d="M1137.411,778.787a5.379,5.379,0,0,0-.574-.3,5.268,5.268,0,0,0-.647-.237c-9.156-2.628-6.1,13.406-5.56,17.656,1,7.9,1.681,16.87,3.588,24.891l7.336.035.058-11.776C1141.638,803,1144.117,782.906,1137.411,778.787Z" transform="translate(-1084.547 -750.836)" fill="#9adbc4"/>
          <path id="Trazado_101975" data-name="Trazado 101975" d="M1138.781,808.5c-.872-9.876-1.155-24.426-7.95-32.351a6.752,6.752,0,0,0-3.652-2.57,2.588,2.588,0,0,0-.639-.013c-1.787.177-2.876,2.446-2.886,5.706a73.33,73.33,0,0,0,2.443,18.131c1.643,6.75,3.735,13.421,5.388,20.143.77,3.111,1.2,6.954,2.064,10.209l6.793.033C1140.175,821.457,1139.334,814.747,1138.781,808.5Z" transform="translate(-1093.796 -757.566)" fill="#9adbc4"/>
          <path id="Trazado_101976" data-name="Trazado 101976" d="M1134.542,820.5l-.617,0c-2.4-14.03-3.535-28.6-.076-42.322a5.344,5.344,0,0,1,.574.3C1131.027,792.1,1132.156,806.569,1134.542,820.5Z" transform="translate(-1081.56 -750.518)" fill="#fff"/>
          <path id="Trazado_101977" data-name="Trazado 101977" d="M1150.314,786.22c-1.61,1.658-3.116,3.4-4.541,5.183-4.056,5.1-7.869,10.965-9.547,17.368l-.652,0c1.648-6.489,5.494-12.483,9.635-17.588,1.428-1.751,2.934-3.472,4.516-5.125C1149.927,786.1,1150.119,786.159,1150.314,786.22Z" transform="translate(-1075.594 -738.477)" fill="#fff"/>
          <path id="Trazado_101978" data-name="Trazado 101978" d="M1135.581,827.779l-.632-.005c-2.628-18.215-5.491-36.384-10.153-54.2a2.589,2.589,0,0,1,.639.013C1130.1,791.4,1132.966,809.562,1135.581,827.779Z" transform="translate(-1092.052 -757.566)" fill="#fff"/>
          <path id="Trazado_101979" data-name="Trazado 101979" d="M1140.432,837.62l-.624,0a263.235,263.235,0,0,0-5.261-27.511c-3.77-14.97-9.165-29.814-17.942-42.6a1.821,1.821,0,0,1,.49-.232c8.726,12.643,14.182,27.37,17.924,42.186A270.4,270.4,0,0,1,1140.432,837.62Z" transform="translate(-1104.56 -767.159)" fill="#fff"/>
          <path id="Trazado_101980" data-name="Trazado 101980" d="M1141.358,823.377l-.667,0c-9.343-31.449-21.8-42.259-28.8-45.964a3.433,3.433,0,0,1,.223-.647,32.793,32.793,0,0,1,7.306,5.292C1125.655,787.888,1134.358,799.742,1141.358,823.377Z" transform="translate(-1111.763 -752.667)" fill="#fff"/>
        </g>
        <path id="Trazado_101981" data-name="Trazado 101981" d="M1198.273,819.9c1.865-2.654,5.337-6.894,1.16-9.613-3.467-2.252-8.577.839-11.18,2.82,2.044-4.159,13.686-11.265,7.222-16.848-3.164-2.732-13.264-.662-17.088.018-3.353.6-7.432,1.625-9.727,4.293a3.494,3.494,0,0,0-2.193-4.48c-2.679-.927-5.911,2.441-7.644,4.023.91-7.841-6.535-9.244-8.377-1.595-1.15-2.224-.3-9.436-3.578-9.969-3.71-.609-6.515,6.863-6.267,9.8-2.919-4.394-6.7-17.022-13.232-16.964-7.409.058-6.022,12.716-4.215,17.093-1.109-1.67-5.337-7.634-8.713-5.514-3.568,2.254.362,10.022,2.057,12.749-1.559-2.07-2.835-5.072-5.112-6.52-1.365-.867-6.26-2.7-7.72-.783-1.867,2.441,3.975,9.287,7.453,14.588-3.743-1.708-8.286-4.329-12.6,1.163-2.108,2.668-2.138,5.1-1.042,7.192l106.511.505C1204.6,818.4,1203.53,817.092,1198.273,819.9Z" transform="translate(-1096.766 -745.613)" fill="#81c9b1"/>
      </g>
      <g id="Grupo_69963" data-name="Grupo 69963" transform="translate(42.459)">
        <path id="Trazado_101982" data-name="Trazado 101982" d="M1202.86,762.324l-29.483-.278V729.471h-29.063v32.3l-30.746-.29v28.641l30.746.289V889.1h29.063V790.686l29.483.278Z" transform="translate(-1113.568 -729.471)" fill="#4d3c4b"/>
        <path id="Trazado_101983" data-name="Trazado 101983" d="M1207.064,762.324l-29.485-.278V729.471h-29.061v32.3l-30.744-.29v28.641l30.744.289V889.1h29.061V790.686l29.485.278Z" transform="translate(-1107.144 -729.471)" fill="#897a88"/>
        <g id="Grupo_69962" data-name="Grupo 69962" transform="translate(42.986 40.342)">
          <rect id="Rectángulo_5522" data-name="Rectángulo 5522" width="20.219" height="1.447" transform="translate(3.652)" fill="#4d3c4b"/>
          <rect id="Rectángulo_5523" data-name="Rectángulo 5523" width="20.219" height="1.447" transform="translate(3.652 10.213)" fill="#4d3c4b"/>
          <rect id="Rectángulo_5524" data-name="Rectángulo 5524" width="27.375" height="1.448" transform="translate(0 5.053)" fill="#4d3c4b"/>
        </g>
      </g>
      <path id="Trazado_101984" data-name="Trazado 101984" d="M1112.707,809.451c-.038-3.568,3.647-8.162,6.146-11.023,3.576-4.091,8.42-7.664,14.1-7.8,6.757-.167,11.061,6.393,17.854,5.34,3.662-.566,6.479-2.967,9.823-4.427a24.023,24.023,0,0,1,11.829-1.607c6.944.72,11.713,7.187,18.518,8.5,7.29,1.413,14.727-.43,21.993,1.9,3.654,1.168,10.3,5.539,10.146,9.582Z" transform="translate(-1072.424 -637.368)" fill="#b57878"/>
    </g>
    <g id="Grupo_69970" data-name="Grupo 69970" transform="translate(1265.028 697.833)">
      <path id="Trazado_101985" data-name="Trazado 101985" d="M1167.446,766.321c-2.828-1.519-2.818-6.742-2.868-9.433a42.252,42.252,0,0,1,.536-7.846c.081-.478.028-2.484.308-2.823.5-.594,1.643.083,2.292.033.786-.061,1.592-.546,2.383-.356,1,.245,1.019,1.852,1.1,2.643a8.09,8.09,0,0,0,.973,3.591c.238.43,3.661,6.366,2.967,6.5a2.608,2.608,0,0,1-2.985-1.329c-.195,3.28,0,6.373-.826,9.375-1.324-.409-1.809-1.963-2.075-3.374a34.427,34.427,0,0,1-.045,3.725c-1.162-.488-1.443-1.989-1.719-3.391A15.872,15.872,0,0,1,1167.446,766.321Z" transform="translate(-1161.492 -624.507)" fill="#ff8f67"/>
      <path id="Trazado_101986" data-name="Trazado 101986" d="M1182.795,714.928s-21.947,22.076-17.712,79.25l7.589-.177,12.529-54.879Z" transform="translate(-1161.536 -671.728)" fill="#5b4f5a"/>
      <path id="Trazado_101987" data-name="Trazado 101987" d="M1194.622,766.878c2.828-1.516,2.818-6.74,2.868-9.431a42.252,42.252,0,0,0-.536-7.847c-.081-.477-.028-2.486-.308-2.823-.5-.6-1.643.083-2.29.033-.788-.063-1.594-.548-2.385-.356-1,.248-1.016,1.85-1.1,2.641a8.071,8.071,0,0,1-.978,3.593c-.235.427-3.659,6.368-2.962,6.5a2.605,2.605,0,0,0,2.982-1.332c.195,3.282.005,6.376.829,9.38,1.322-.412,1.8-1.966,2.075-3.379a33.92,33.92,0,0,0,.043,3.73c1.162-.493,1.443-1.991,1.721-3.394A15.878,15.878,0,0,0,1194.622,766.878Z" transform="translate(-1127.489 -623.654)" fill="#ff8f67"/>
      <path id="Trazado_101988" data-name="Trazado 101988" d="M1194.581,758.386a14.744,14.744,0,0,1,1.011,5.413l-1.307,33.647h7.3l5.453-35.325a15.165,15.165,0,0,0-.362-5.5L1194.526,715.1l-10.59,18.586Z" transform="translate(-1131.92 -671.468)" fill="#5b4f5a"/>
      <g id="Grupo_69969" data-name="Grupo 69969">
        <path id="Trazado_101989" data-name="Trazado 101989" d="M1172.422,707.839c-.73,1.311.4,3.4.761,4.837.45,1.8.055,2.853-.8,4.488-.8,1.514-1.637,2.661-1.392,4.475.212,1.552,1.443,2.532,1.435,4.124-.007,2-1.918,3.379-2.474,5.241a5.31,5.31,0,0,0-.187,2.828c.4.869,1.39.882,1.587,1.968.232,1.284-1.4,2.78.038,3.9,1.281,1,2.8-.392,3.942-.811,2.448-.9,2.681,1.173,4.839,1.9,2.853.958,4.111-1.319,5.875-2.484,1.011-.662.9.425,1.435-.925.465-1.165-.189-3.065-.351-4.228-.175-1.241.323-3.864-.364-4.887-.8-1.193-3.525-1-4.837-1.256-1.832-.366-3.406-.412-4.488-2.138-1.19-1.9-1.983-6.456-1.789-8.789.147-1.8,1.286-3.576,1.264-5.378-.015-1.041-.447-1.847-.549-2.916a16.827,16.827,0,0,0-.182-3.356c-1.875-6.3-6.679,3.063-3.76,5.377Z" transform="translate(-1153.774 -691.031)" fill="#9f6464"/>
        <path id="Trazado_101990" data-name="Trazado 101990" d="M1168.326,752.858l21.318,6.426c-1.208,9.726-3,21.785-4.205,31.514-.687,5.6.718,11.114.741,16.63.043,10.808-1.845,21.9-2.666,32.773-.018.195-.141,11.847.725,14.745,0,0-6.717,10.222-16.5,3.363,1.62-2.59,4.342-4.508,5.5-7.394,1.175-2.921.49-6.686.346-9.749-.22-4.791-.746-8.2-.973-12.994q-.682-14.582-1.359-29.162Z" transform="translate(-1156.658 -613.808)" fill="#ff8f67"/>
        <path id="Trazado_101991" data-name="Trazado 101991" d="M1176.828,752.049l19.865,3.894q-1.069,8.813-2.125,17.618c-.75,6.166-2.557,12.2-2.7,18.4-.129,5.734,1.443,11.255,1.529,16.954a128.6,128.6,0,0,1-1.084,19.422c-.789,5.837-2.982,12.281-2.143,18.23.3,2.077,1.443,4.17,1.941,6.257.387,1.658.784,3.31,1.178,4.963l-6.525,5.451-6.186-5.451,1.974-9.757c1.117-5.532.157-10.785-1.172-16.173-2.878-11.685-.748-23.544-2.621-35.408C1176.456,781.888,1176.969,766.839,1176.828,752.049Z" transform="translate(-1142.773 -615.044)" fill="#ff8f67"/>
        <path id="Trazado_101992" data-name="Trazado 101992" d="M1200.093,713.9l16.385,7.306s-5.464,13.729-4.68,20.446c0,0-7.022,15.776-4.943,26.582l-30.943-.586c-1.8-7.2-3.773-13.557-5.658-20.734-1.44-5.506-1.607-9.1-.073-14.851.465-1.751,4.541-15.609,5.651-15.571a74.234,74.234,0,0,1,11.91-1.837C1192.813,714.37,1197.692,715.389,1200.093,713.9Z" transform="translate(-1154.573 -673.293)" fill="#5b4f5a"/>
        <g id="Grupo_69968" data-name="Grupo 69968" transform="translate(19.54 5.081)">
          <path id="Trazado_101993" data-name="Trazado 101993" d="M1177.459,713.234c-1.281.455-2.378,1.193-1.877,2.8.5,1.582,1.493,3.427,1.284,5.1-.215,1.754-1.215,3.242-.89,5.1.95,5.39,8.531,3.535,11.47,1.435,2.527-1.8,4.579-5.587,2.418-8.314a11.261,11.261,0,0,1-2.2-4.607c-.1-.455-.882-4.615-.465-4.764-2.636.943-5.3,2-7.993,2.739C1178.675,712.88,1178.046,713.026,1177.459,713.234Z" transform="translate(-1164.405 -684.344)" fill="#ff8f67"/>
          <g id="Grupo_69967" data-name="Grupo 69967">
            <path id="Trazado_101994" data-name="Trazado 101994" d="M1171.635,722.05a15.9,15.9,0,0,0,.493-3.887c-.126-2.868-1.572-5.408-.836-8.521,1.029-4.351,3.225-6.654,7.124-8.612,4.053-2.037,9.239-1.319,12.936,1.147,6.729,4.485,7.852,13.257,3.98,20.246-1.375,2.482-2.373,4.746-4.582,6.654a19.228,19.228,0,0,1-6.615,3.662c-3.912,1.271-7.417,1.415-9.656-2.625-.756-1.367-1.769-2.494-2.436-3.985A6.318,6.318,0,0,1,1171.635,722.05Z" transform="translate(-1171.084 -699.844)" fill="#ff8f67"/>
            <path id="Trazado_101995" data-name="Trazado 101995" d="M1176.751,716.935a.315.315,0,0,1-.311-.265.319.319,0,0,1,.263-.356c.048-.005,4.66-.768,6.894-6.262a.311.311,0,0,1,.407-.172.316.316,0,0,1,.169.407c-2.37,5.835-7.174,6.613-7.377,6.644Z" transform="translate(-1162.908 -684.553)" fill="#9f6464"/>
            <g id="Grupo_69965" data-name="Grupo 69965" transform="translate(9.441 15.479)">
              <path id="Trazado_101996" data-name="Trazado 101996" d="M1175.368,707.475a.666.666,0,0,0,.316.005,3.084,3.084,0,0,1,1.792.283.74.74,0,1,0,.718-1.294,4.538,4.538,0,0,0-2.77-.437.73.73,0,0,0-.591.854A.742.742,0,0,0,1175.368,707.475Z" transform="translate(-1174.82 -705.969)" fill="#a86060"/>
              <path id="Trazado_101997" data-name="Trazado 101997" d="M1175.1,708.469c-.022.854.281,1.569.685,1.579s.763-.675.791-1.529-.283-1.569-.687-1.579S1175.123,707.61,1175.1,708.469Z" transform="translate(-1174.401 -704.487)" fill="#9f6464"/>
            </g>
            <g id="Grupo_69966" data-name="Grupo 69966" transform="translate(0.966 15.684)">
              <path id="Trazado_101998" data-name="Trazado 101998" d="M1172.181,707.789a.618.618,0,0,0,.3-.066,2.956,2.956,0,0,1,1.781-.139.732.732,0,1,0,.392-1.41,4.471,4.471,0,0,0-2.754.217.73.73,0,0,0,.278,1.4Z" transform="translate(-1171.466 -706.05)" fill="#a86060"/>
              <path id="Trazado_101999" data-name="Trazado 101999" d="M1172.208,708.68c.169.844.634,1.458,1.036,1.375s.584-.829.407-1.668-.632-1.455-1.033-1.375S1172.034,707.839,1172.208,708.68Z" transform="translate(-1170.432 -704.591)" fill="#9f6464"/>
            </g>
            <path id="Trazado_102000" data-name="Trazado 102000" d="M1174.837,713.281a1.847,1.847,0,0,1-1.258-.432c-.74-.66-.371-1.663-.078-2.469a4.953,4.953,0,0,0,.242-.776l.028-.146a3.482,3.482,0,0,0,.033-1.7.329.329,0,0,1,.134-.445.325.325,0,0,1,.445.134,3.645,3.645,0,0,1,.03,2.12l-.023.144a5.62,5.62,0,0,1-.272.889c-.3.814-.478,1.415-.1,1.754.541.472,1.506.215,2.186-.023a.328.328,0,1,1,.215.619A4.971,4.971,0,0,1,1174.837,713.281Z" transform="translate(-1167.936 -688.492)" fill="#9f6464"/>
          </g>
        </g>
        <path id="Trazado_102001" data-name="Trazado 102001" d="M1190.615,792.968s5.648,12.66-5.062,13.047c0,0-10.323.392-6.62-12.852C1178.932,793.162,1185.553,800.754,1190.615,792.968Z" transform="translate(-1140.783 -552.56)" fill="#935151"/>
        <path id="Trazado_102002" data-name="Trazado 102002" d="M1163.681,804.213c1.205,1.953,8.3.69,10.166.69,2.289,0,3.841-.291,6.133-.291l6.133-2.924.589,2.924,3.5-.293a36.391,36.391,0,0,0,.91-11.134c-2.83,2.476-8.895,6.323-15.89,1.941l-5.471,3.937C1168.682,799.831,1161.778,801.143,1163.681,804.213Z" transform="translate(-1163.351 -552.229)" fill="#935151"/>
        <path id="Trazado_102003" data-name="Trazado 102003" d="M1178,711.441a.286.286,0,0,1-.1-.018,6.764,6.764,0,0,0-4.155-.243.309.309,0,0,1-.4-.185.315.315,0,0,1,.187-.4,7.193,7.193,0,0,1,4.574.238.312.312,0,0,1-.1.606Z" transform="translate(-1148.119 -678.728)" fill="#9f6464"/>
        <path id="Trazado_102004" data-name="Trazado 102004" d="M1230.143,836.348c-2.929-13.494-7.265-26.953-8.518-40.538-1.357-14.641-1.064-29.983-4.127-44.382-.442-2.1-3.222-17.153-6.128-17.737l-1.946-.392-26.483-.088c-9.388,16.241-16.736,91.677-17.765,103.261A211.4,211.4,0,0,0,1230.143,836.348Z" transform="translate(-1160.566 -643.809)" fill="#5b4f5a"/>
        <path id="Trazado_102005" data-name="Trazado 102005" d="M1191.173,712.265a16.22,16.22,0,0,0-.475,5.039c-1.779.323-3.548.546-5.276.685a21.847,21.847,0,0,1-.25-4.918,26.735,26.735,0,0,0-.478,4.976c-1.109.1-2.2.152-3.242.187-.475-1.132-.311-2.956-.275-4.627a9.02,9.02,0,0,0-.119,4.629c-1.772.04-3.442.02-4.965-.033-.738-2.2.316-6.1.662-9.087a11.511,11.511,0,0,0-2.084,4.46c-.223.816-.061,3.341-.225,4.544-2.338-.131-4.258-.354-5.514-.516a35.116,35.116,0,0,1,1.865-8.089c2.1-5.458,6.429-8.885,11.746-10.811a16.513,16.513,0,0,1,11.472.341c5.893,2.224,6.381,7.306,6.014,12.835-.028.591.01,1.653-.005,2.7a41.921,41.921,0,0,1-8.655,2.6A12.018,12.018,0,0,1,1191.173,712.265Z" transform="translate(-1154.833 -697.833)" fill="#9f6464"/>
        <path id="Trazado_102006" data-name="Trazado 102006" d="M1206.971,726.313a7.336,7.336,0,0,0-.147-1.519c-.614-2.9-2.721-5.223-3.4-8.1a13.305,13.305,0,0,0-1.569-4.41c-.943-1.445-2.656-2.262-3.411-3.828a10.015,10.015,0,0,0-4.248-4.705c-1.36-.8-2.264-2.53-3.79-2.967a12.362,12.362,0,0,1-4.053-1.549,4.454,4.454,0,0,0-3.007-1.135c-2.408-.013-5.451.91-6.775,3.075-1.556,2.542.15,3.273,1.789,4.761,1.072.973,1.4,2.338,2.191,3.492.829,1.215,2.059,2.047,2.476,3.54.382,1.385-.129,3.07.3,4.483.278.92,1.056,1.589,1.332,2.482.374,1.231-.172,2-.308,3.179-.235,2.007.743,4.033,1.175,5.949.5,2.188-.71,4.364-.233,6.527.258,1.173,1.185,1.451,1.615,2.383.485,1.051.177,1.711.048,2.823-.192,1.617,2.108,4.256,3.656,4.672,1.026.275,2.151-.445,3.225-.364,1.407.1,2.611,1.109,4.081.9,1.883-.265,2.068-.9,4.008-.44,3.037.725,5.744-.632,6.055-3.9.212-2.224,1.168-4.42,1.21-6.651.028-1.65-1.38-2.724-1.923-4.19C1206.715,729.341,1206.981,727.825,1206.971,726.313Z" transform="translate(-1144.11 -697.421)" fill="#9f6464"/>
      </g>
      <path id="Trazado_102007" data-name="Trazado 102007" d="M1188.764,733.005a.349.349,0,0,1-.318-.207l-4.945-10.942a.352.352,0,0,1,.177-.468.356.356,0,0,1,.464.177l4.943,10.942a.351.351,0,0,1-.175.467A.36.36,0,0,1,1188.764,733.005Z" transform="translate(-1132.633 -661.907)" fill="#fff"/>
      <path id="Trazado_102008" data-name="Trazado 102008" d="M1173.537,755.122a.354.354,0,0,1-.346-.275c-.321-1.435-.68-3.363-1.026-5.231-.349-1.883-.713-3.831-1.036-5.269l-.458-2c-.321-1.4-.644-2.793-.94-4.195a20.905,20.905,0,0,1-.543-7.72c.364-1.938.889-3.816,1.352-5.4.25-.862.493-1.842.746-2.846.409-1.64.831-3.336,1.329-4.72a.348.348,0,0,1,.455-.212.358.358,0,0,1,.213.452c-.488,1.352-.9,3.027-1.309,4.65-.255,1.016-.5,2-.756,2.873-.46,1.567-.975,3.424-1.334,5.332a20.173,20.173,0,0,0,.538,7.442c.3,1.4.617,2.792.937,4.185l.457,2c.329,1.453.69,3.406,1.044,5.3.344,1.86.7,3.783,1.021,5.2a.355.355,0,0,1-.268.422A.277.277,0,0,1,1173.537,755.122Z" transform="translate(-1154.697 -668.2)" fill="#fff"/>
      <path id="Trazado_102009" data-name="Trazado 102009" d="M1164.8,759.655h-.008a.351.351,0,0,1-.346-.359c.235-11.2,5.365-34.423,5.418-34.655a.344.344,0,0,1,.422-.268.351.351,0,0,1,.268.419c-.051.235-5.168,23.387-5.4,34.519A.353.353,0,0,1,1164.8,759.655Z" transform="translate(-1161.685 -657.323)" fill="#fff"/>
    </g>
  </g>
</svg>
