<svg xmlns="http://www.w3.org/2000/svg" width="344.838" height="256.613" viewBox="0 0 344.838 256.613">
  <g id="Grupo_70260" data-name="Grupo 70260" transform="translate(-563.626 -925.221)">
    <g id="Grupo_70249" data-name="Grupo 70249" transform="translate(582.543 925.221)">
      <g id="Grupo_70244" data-name="Grupo 70244" transform="translate(0 22.494)">
        <g id="Grupo_70243" data-name="Grupo 70243">
          <g id="Grupo_70242" data-name="Grupo 70242">
            <rect id="Rectángulo_5586" data-name="Rectángulo 5586" width="320.547" height="7.178" transform="translate(2.575 78.73)" fill="#aa6868"/>
            <g id="Grupo_70241" data-name="Grupo 70241">
              <g id="cascet" transform="translate(0 82.266)">
                <rect id="Rectángulo_5587" data-name="Rectángulo 5587" width="313.847" height="61.913" transform="translate(5.843 18.692)" fill="#b57878"/>
                <rect id="Rectángulo_5588" data-name="Rectángulo 5588" width="313.46" height="19.857" transform="translate(6.231 0.78)" fill="#b57878"/>
                <rect id="Rectángulo_5589" data-name="Rectángulo 5589" width="313.847" height="3.381" transform="translate(5.843 18.692)" fill="#aa6868"/>
                <rect id="Rectángulo_5590" data-name="Rectángulo 5590" width="313.847" height="3.381" transform="translate(5.843)" fill="#aa6868"/>
                <path id="Rectángulo_5591" data-name="Rectángulo 5591" d="M1.966,0h46.3a1.965,1.965,0,0,1,1.965,1.965v8.141a1.965,1.965,0,0,1-1.965,1.965H1.966A1.966,1.966,0,0,1,0,10.105V1.966A1.966,1.966,0,0,1,1.966,0Z" transform="translate(275.688 8.567)" fill="#b57878"/>
                <path id="Rectángulo_5592" data-name="Rectángulo 5592" d="M1.965,0h46.3a1.965,1.965,0,0,1,1.965,1.965v8.14a1.966,1.966,0,0,1-1.966,1.966H1.966A1.966,1.966,0,0,1,0,10.105V1.965A1.965,1.965,0,0,1,1.965,0Z" transform="translate(0 8.567)" fill="#b57878"/>
                <rect id="Rectángulo_5593" data-name="Rectángulo 5593" width="308.009" height="5.452" transform="translate(7.008 75.152)" fill="#aa6868"/>
                <path id="Rectángulo_5594" data-name="Rectángulo 5594" d="M1.965,0h46.3a1.966,1.966,0,0,1,1.966,1.966v8.142a1.966,1.966,0,0,1-1.966,1.966H1.965A1.965,1.965,0,0,1,0,10.108V1.965A1.965,1.965,0,0,1,1.965,0Z" transform="translate(273.742 72.816)" fill="#b57878"/>
                <path id="Rectángulo_5595" data-name="Rectángulo 5595" d="M1.966,0h46.3A1.964,1.964,0,0,1,50.23,1.964v8.144a1.966,1.966,0,0,1-1.966,1.966H1.965A1.965,1.965,0,0,1,0,10.108V1.966A1.966,1.966,0,0,1,1.966,0Z" transform="translate(3.244 72.816)" fill="#b57878"/>
              </g>
              <g id="Grupo_70240" data-name="Grupo 70240" transform="translate(8.418)">
                <path id="Trazado_102653" data-name="Trazado 102653" d="M733.31,1013.881v-77.22a2.005,2.005,0,0,0-2.028-1.981H577.152a2.006,2.006,0,0,0-2.031,1.981v77.22Z" transform="translate(-575.121 -934.68)" fill="#b57878"/>
                <rect id="Rectángulo_5596" data-name="Rectángulo 5596" width="141.963" height="64.899" transform="translate(8.114 8.113)" fill="#eddac8"/>
                <rect id="Rectángulo_5597" data-name="Rectángulo 5597" width="113.056" height="47.413" transform="translate(22.568 16.856)" fill="#fff"/>
              </g>
              <path id="Trazado_102654" data-name="Trazado 102654" d="M748.054,953.073a8.4,8.4,0,0,0-3.907-1.237l-105.755.361.383,37.824H799.563Z" transform="translate(-479.518 -911.04)" fill="#b57878"/>
            </g>
          </g>
          <rect id="Rectángulo_5598" data-name="Rectángulo 5598" width="151.173" height="5.768" transform="translate(9.654 72.738)" fill="#b57878"/>
        </g>
        <path id="Trazado_102655" data-name="Trazado 102655" d="M582.142,965.76c-7.971-1.106-3.26,12.586-2.383,15.771,2.012,7.31-.984,14.672-.692,22.32.4,10.506,8.026,2.547,14.615,3.831,3.467.673,5.645,3.553,8.848,4.718,7.55,2.742,14.586-3.664,21.927-3.94,4.642-.176,8.123,2.433,11.923,4.711,8.2,4.918,13.1.314,21.135-2.706,8.78-3.291,14.223,3.8,22.331,2.994,3.45-.342,6.009-3.852,9.624-4.249,4.242-.461,7.324,2.87,11.253,3.959,4.872,1.353,7.424.269,11.733-1.736,3.919-1.831,4.732-.459,8.549.1,10.675,1.569,14.213-9.973,13.076-18.358-.666-4.934-2.04-9.75-2.8-14.722-.573-3.748-.651-8.67-2.471-12.009-3.878-7.115-10.456-1.52-15.887-.7-7.752,1.163-15.324-1.5-23.081-1.52-9.488-.024-17.961,2.285-27.6.288-9.181-1.9-18.5-.754-27.8.086-7.743.7-14.147-1.612-21.83-1.527-6.613.074-12.14,3.317-18.936,2.692-4.111-.381-12-4.766-14.277,1.569.169.668.414.1.813.354Z" transform="translate(-563.316 -895.821)" fill="#eddac8"/>
      </g>
      <g id="Grupo_70245" data-name="Grupo 70245" transform="translate(181.524 101.926)">
        <path id="Trazado_102656" data-name="Trazado 102656" d="M663.275,1024.285l-.353,10.647-8.9-.5.2-12.387Z" transform="translate(-639.503 -893.727)" fill="#ff8f67"/>
        <path id="Trazado_102657" data-name="Trazado 102657" d="M671.82,1027.3l1.481,6.561-.616,5.448H647.917v-2.223l14.368-10.4S665.5,1028.911,671.82,1027.3Z" transform="translate(-647.917 -887.339)" fill="#5b4f5a"/>
        <path id="Trazado_102658" data-name="Trazado 102658" d="M668.716,1024.285l.355,10.647,8.9-.5-.2-12.387Z" transform="translate(-619.257 -893.727)" fill="#ff8f67"/>
        <path id="Trazado_102659" data-name="Trazado 102659" d="M669.525,1027.3l-1.486,6.561.618,5.448h24.769v-2.223l-14.37-10.4S675.839,1028.911,669.525,1027.3Z" transform="translate(-620.19 -887.339)" fill="#5b4f5a"/>
        <path id="Trazado_102660" data-name="Trazado 102660" d="M702.769,1040.371c-.024-.621-.045-1.232-.071-1.85-.392-9.909-.6-19.827-.887-29.739-.247-8.427.837-18.572-1.339-26.778-2.059-7.759-9.355-12.881-17.247-13.3-6.323-.34-17.844-2.226-22.679,2.929-5.9,6.285-5.581,16.1-6.611,24.027-1.455,11.245-1.168,22.612-.894,33.919.464,19.073-1.139,38.159,1.151,57.171.594,4.965-.273,12.14-.292,17.174l14.667.373,9.212-108.854,9.215,108.854,14.665-.373c-.014-5.034-.887-12.208-.292-17.174C703.157,1071.843,703.325,1055.452,702.769,1040.371Z" transform="translate(-641.163 -968.083)" fill="#4d3c4b"/>
      </g>
      <path id="Trazado_102661" data-name="Trazado 102661" d="M677.374,979.068c-.4,1.783.071,3.774-.33,5.557-.343,1.527-1.624,2.811-1.96,4.371,1.648.478,2.335-.9,3.27-1.841.338,2.88.138,9.2,2.433,11.088.778-1.1.628-2.444.58-3.774.345,1.272.468,2.827,1.881,2.951.583-1.572.216-3.289.711-4.868.266,1.1.283,2.414,1.013,3.3,1.229-.956.808-2.894.949-4.39.107.64.552,1.624.68,2.133,1.584-4.426-.112-9.957-1.113-14.168-.623-2.616-.252-4.373-3.02-3.572-1.929.554-2.98,2.718-5.091,2.932Z" transform="translate(-428.957 -855.717)" fill="#ff8f67"/>
      <path id="Trazado_102662" data-name="Trazado 102662" d="M677.331,967.618A49.157,49.157,0,0,1,682.456,964c1.37-.885,2.834-1.643,4.24-2.475,1.482-.88,3.99-1.672,4.853-3.305,2.264-4.3-4.963-5.617-7.391-6.226-1.857-2.3-4.216-7.01-3.217-15.659l-15.24,4.811-.623,10.387c-2.818.647-8.021.851-9.735,3.588-2.114,3.377,5.232,8.318,7.305,10.278,1.876,1.772,3.885,4.176,6.111,5.507,2.834,1.691,6.119-1.141,8.142-2.925C677.044,967.86,677.186,967.739,677.331,967.618Z" transform="translate(-456.682 -909.901)" fill="#ff8f67"/>
      <g id="Grupo_70248" data-name="Grupo 70248" transform="translate(200.907)">
        <path id="Trazado_102663" data-name="Trazado 102663" d="M657.046,946.789a13.914,13.914,0,0,0,1.172,6.245c1.655,3.139,5.5,4.737,9.031,4.368a14.993,14.993,0,0,0,9.131-5.029,22.156,22.156,0,0,0,4.963-8.725c.889-3,1.094-6.354-.285-9.165-2.064-4.216-6.991-6.078-11.507-7.381C657.338,923.578,656.917,939.1,657.046,946.789Z" transform="translate(-654.741 -923.334)" fill="#ff8f67"/>
        <path id="Trazado_102664" data-name="Trazado 102664" d="M662.559,941.674a10.089,10.089,0,0,1-2.837-.4.248.248,0,0,1-.169-.309.244.244,0,0,1,.309-.169c1.914.563,5.783.994,10.173-2.469a.248.248,0,0,1,.307.39A12.446,12.446,0,0,1,662.559,941.674Z" transform="translate(-651.28 -907.233)" fill="#9f6464"/>
        <g id="Grupo_70246" data-name="Grupo 70246" transform="translate(11.198 16.454)">
          <path id="Trazado_102665" data-name="Trazado 102665" d="M661.255,933.652a.779.779,0,0,0,.335.062,3.239,3.239,0,0,1,1.838.568.778.778,0,0,0,1.1-.152.786.786,0,0,0-.143-1.1,4.863,4.863,0,0,0-2.844-.887.787.787,0,0,0-.283,1.51Z" transform="translate(-660.777 -932.14)" fill="#9f6464"/>
          <path id="Trazado_102666" data-name="Trazado 102666" d="M661.042,934.119c-.109.633.041,1.2.335,1.258s.647-.423.761-1.056-.04-1.21-.338-1.263S661.158,933.477,661.042,934.119Z" transform="translate(-660.461 -930.881)" fill="#9f6464"/>
        </g>
        <g id="Grupo_70247" data-name="Grupo 70247" transform="translate(2.46 15.337)">
          <path id="Trazado_102667" data-name="Trazado 102667" d="M660.426,933.425a.774.774,0,0,1-.34-.043,3.232,3.232,0,0,0-1.921.012.788.788,0,0,1-.554-1.474,4.87,4.87,0,0,1,2.984-.024.789.789,0,0,1-.169,1.529Z" transform="translate(-657.102 -931.67)" fill="#9f6464"/>
          <path id="Trazado_102668" data-name="Trazado 102668" d="M658.9,933.805c-.074.64-.385,1.139-.69,1.106s-.49-.592-.416-1.234.39-1.141.692-1.106S658.97,933.161,658.9,933.805Z" transform="translate(-656.177 -930.431)" fill="#9f6464"/>
        </g>
        <path id="Trazado_102669" data-name="Trazado 102669" d="M660.387,939.4h-.01a4.594,4.594,0,0,1-2.09-.335.238.238,0,0,1-.1-.157c-.328-1.693,1.726-5.762,1.812-5.933a.249.249,0,1,1,.445.226c-.021.038-1.955,3.876-1.788,5.486a6.689,6.689,0,0,0,1.743.216.249.249,0,0,1-.009.5Z" transform="translate(-653.2 -914.73)" fill="#9f6464"/>
        <path id="Trazado_102670" data-name="Trazado 102670" d="M665.053,935.937a.248.248,0,0,1-.121-.031.252.252,0,0,1-.1-.34c.186-.333,1.156-2,1.957-2.026l.007,0a.25.25,0,0,1,.009.5c-.345.012-1.068.93-1.536,1.771A.25.25,0,0,1,665.053,935.937Z" transform="translate(-644.031 -913.761)" fill="#9f6464"/>
        <path id="Trazado_102671" data-name="Trazado 102671" d="M665.406,934.606a.249.249,0,0,1-.043-.495l.752-.126a.25.25,0,0,1,.083.492l-.751.126Z" transform="translate(-643.545 -913.148)" fill="#9f6464"/>
        <path id="Trazado_102672" data-name="Trazado 102672" d="M661.162,937.673a6.005,6.005,0,0,1-2.742-.721.248.248,0,1,1,.245-.43,4.933,4.933,0,0,0,4.071.314.249.249,0,0,1,.333.116.252.252,0,0,1-.119.333A4.171,4.171,0,0,1,661.162,937.673Z" transform="translate(-653 -909.693)" fill="#9f6464"/>
        <path id="Trazado_102673" data-name="Trazado 102673" d="M675.171,934.389c.174,1.962-6.775,1.417-8.461,1.336-3.4-.174-8.114.19-10.1,3.572a6.907,6.907,0,0,1,1.07-3.558,19.1,19.1,0,0,1-.915,2.556c.14-.792.247-1.588.369-2.383a9.817,9.817,0,0,1-1.034,2.076c-.621-10.125,8.078-14.5,17.188-12.144,2.19.568,7.481,3.177,6.906,6.185-.575,2.991-6.062,4.064-8.392,4.185Z" transform="translate(-656.068 -925.221)" fill="#9f6464"/>
        <path id="Trazado_102674" data-name="Trazado 102674" d="M664.806,930.861c-1.591,1.627-.635,3.691-.478,5.546a19.731,19.731,0,0,1-.58,5.472,4.273,4.273,0,0,1,.711-1.127,9.341,9.341,0,0,1-.314.982c1.424-1.448,5.465-4.435,5.505-.469.026,2.621-2.982,4.8-2.247,7.248a13.125,13.125,0,0,0,.609-1.429q-.182,1.22-.361,2.442c-.045.112.233-.514.3-.709-.219,1.5-.73,3.044.138,4.349.1-.72.2-1.441.3-2.162a4.885,4.885,0,0,1-.071,1.819c2.124-6.414,7.46-12.484,6.095-19.761a6.8,6.8,0,0,0-6.038-5.353c-4.366-.485-4.083,3.053-4.4,6.126Z" transform="translate(-645.485 -921.852)" fill="#9f6464"/>
      </g>
      <path id="Trazado_102675" data-name="Trazado 102675" d="M627.931,948.294a4.33,4.33,0,0,1,1.869.913c-1.84.825-4.822-.264-6.739-.549-.813-.121-2.763-.961-2.532.231.043.214,1.5,1.443,1.286,1.591-.452.3-2.15-.528-2.411.083-.181.442.934,1.324,1.275,1.467a19.143,19.143,0,0,0,2.837.811c-.837-.01-4.908-.378-3.075,1.3a6.255,6.255,0,0,0,3.072.713c-.685,0-2.932-.5-2.7.585.1.483,1.208.951,1.607,1.141a21.474,21.474,0,0,0,3.534,1.313,28.874,28.874,0,0,0,7.683.975c3.1,0,3.481.288,3.767-2.765.162-1.722.825-3.363-.159-4.97a7.627,7.627,0,0,0-3.515-2.625c-2.29-1.006-4.59-1.7-6.837-2.775-.673-.326.064,1.926.395,2.209A2.4,2.4,0,0,0,627.931,948.294Z" transform="translate(-505.711 -897.007)" fill="#ff8f67"/>
      <path id="Trazado_102676" data-name="Trazado 102676" d="M688.925,946.653l-24.455,10.87a13.8,13.8,0,0,1-6.349.908l-29.753-4-3.056,8.8,31.594,8.4a16.554,16.554,0,0,0,6.487.169c3.641-.766,7.236-1.791,10.858-2.642,3.117-.732,9.212-3.22,12.406-2.278,2.944.873,1.734,8.17,1.84,11.141.167,4.632.131,9.576,1.265,14.1,1.4,5.6.34,11.357.045,17.014-.3,5.8.858,9.372,3.286,14.472,2.338,4.9,12.449,3.536,16.7,3.322,5.013-.247,11.024.911,15.894.01,2.445-.421,5.262-.6,7.6-1.405,8.644-3.008,8.2-12.965,7.5-20.455-.347-3.683-1.01-7.384-1.424-10.977-.566-4.892,1.232-9.486,1.472-14.311.209-4.278-.514-8.667-.523-13.038-.012-4.392,3.446-9.614,1.306-13.894-1.52-3.039-2.623-4.9-5.75-6.487-1.065-.54-8.323-3.346-8.974-2.587-.043.055-13.24,9.957-13.24,9.957L704.2,942.763Z" transform="translate(-497.542 -901.048)" fill="#5b4f5a"/>
      <path id="Trazado_102677" data-name="Trazado 102677" d="M676,944.994s11.761-2.223,17.78,43.338c0,0,1.852,18.515-1.484,32.592l-9.257.742L682.3,991.3,670.82,964.253S668.6,947.957,676,944.994Z" transform="translate(-435.264 -897.997)" fill="#5b4f5a"/>
      <path id="Trazado_102678" data-name="Trazado 102678" d="M676.9,970.938a.413.413,0,0,1-.38-.25c-.207-.466-5.034-11.526-5.591-18.187a.414.414,0,0,1,.38-.449.426.426,0,0,1,.449.38c.547,6.521,5.474,17.809,5.521,17.923a.415.415,0,0,1-.212.549A.421.421,0,0,1,676.9,970.938Z" transform="translate(-434.681 -888.248)" fill="#fff"/>
    </g>
    <g id="Grupo_70259" data-name="Grupo 70259" transform="translate(563.626 952.611)">
      <g id="Grupo_70258" data-name="Grupo 70258">
        <path id="Trazado_102679" data-name="Trazado 102679" d="M586.579,989.111l-17.856,3.5q.963,7.918,1.914,15.837c.673,5.541,2.3,10.969,2.423,16.543.114,5.153-1.294,10.116-1.375,15.24a115.046,115.046,0,0,0,.975,17.454c.706,5.25,2.677,11.048,1.924,16.389-.261,1.867-1.294,3.75-1.738,5.626-.354,1.491-.706,2.975-1.061,4.463l5.867,4.9,5.557-4.9-1.774-8.772c-1-4.97-.14-9.7,1.054-14.539,2.587-10.5.678-21.164,2.361-31.829C586.914,1015.935,586.455,1002.411,586.579,989.111Z" transform="translate(-556.602 -864.572)" fill="#ff8f67"/>
        <path id="Trazado_102680" data-name="Trazado 102680" d="M571.043,1028.2s-5.072,11.376,4.551,11.726c0,0,9.279.354,5.952-11.552C581.546,1028.376,575.594,1035.2,571.043,1028.2Z" transform="translate(-555.246 -810.706)" fill="#4d3c4b"/>
        <path id="Trazado_102681" data-name="Trazado 102681" d="M575.758,989.111l17.859,3.5q-.959,7.918-1.914,15.837c-.673,5.541-2.3,10.969-2.423,16.543-.114,5.153,1.3,10.116,1.375,15.24a115.663,115.663,0,0,1-.973,17.454c-.708,5.25-2.682,11.048-1.926,16.389.266,1.867,1.291,3.75,1.738,5.626.354,1.491.708,2.975,1.058,4.463l-5.864,4.9-5.56-4.9,1.776-8.772c1-4.97.14-9.7-1.053-14.539-2.59-10.5-.673-21.164-2.357-31.829C575.427,1015.935,575.882,1002.411,575.758,989.111Z" transform="translate(-546.908 -864.572)" fill="#ff8f67"/>
        <path id="Trazado_102682" data-name="Trazado 102682" d="M588.226,1028.2s5.075,11.376-4.551,11.726c0,0-9.279.354-5.952-11.552C577.722,1028.376,583.674,1035.2,588.226,1028.2Z" transform="translate(-545.194 -810.706)" fill="#4d3c4b"/>
        <path id="Trazado_102683" data-name="Trazado 102683" d="M599.482,970.767h-24.85s-10.522,18.137-7.243,49.243c.06.571,6.547,42.892,6.618,43.474,0,0,10.879,5.75,30.488-1.253C604.495,1062.231,614.518,1000.632,599.482,970.767Z" transform="translate(-559.313 -889.85)" fill="#4d3c4b"/>
        <g id="Grupo_70257" data-name="Grupo 70257">
          <path id="Trazado_102684" data-name="Trazado 102684" d="M588.495,1005.9s-.164.112-.464.288a25.486,25.486,0,0,1-17.078,3.006l-4.861-32.423,2.357-19.635s2.366-2.192,8.294-3.546h.024a5.33,5.33,0,0,0,2.052-.4q.846-.153,1.767-.266s1,6.366,7.445,6.606a.775.775,0,0,0,.147.009v.2Z" transform="translate(-560.227 -914.437)" fill="#4d3c4b"/>
          <path id="Trazado_102685" data-name="Trazado 102685" d="M595.164,957.027s-3.914-2.925-12.686-4.021a7.181,7.181,0,0,1-7.048,6.42l-.312,46.361a25.419,25.419,0,0,0,17.54,3.289l4.853-32.419Z" transform="translate(-547.79 -914.324)" fill="#4d3c4b"/>
          <path id="Trazado_102686" data-name="Trazado 102686" d="M578.083,937.4c-2.49,1.522-3.8,4.178-5.517,6.423-2.147,2.811-3.672,5.243-4.2,8.884-.535,3.686-.442,7.022,1.26,10.387,1.194,2.357,4.057,6.183,6.844,6.549-.257-.221-.495-.528-.723-.737,1.736,1.27,3.4,1.148,5.443,1.051.923-2.97-.2-6-1.108-8.872-1.272-4.011-1.179-8.577-.742-12.727.283-2.663,1.1-5.331,1.127-7.978.009-.927.135-1.5-.625-2.228-.6-.573-1.472-1.049-1.914.19Z" transform="translate(-557.492 -935.834)" fill="#a86060"/>
          <path id="Trazado_102687" data-name="Trazado 102687" d="M580.081,948.778a32.031,32.031,0,0,0-1.294-6.8,49.906,49.906,0,0,0-2.616-4.623c5.3-1.482,8.059,3.458,10.682,6.884,2.147,2.811,3.676,5.243,4.2,8.884.54,3.686.445,7.022-1.256,10.387-1.2,2.357-4.057,6.183-6.846,6.549.257-.221.495-.528.72-.737-1.736,1.27-3.4,1.148-5.441,1.051-.925-2.97.2-6,1.11-8.872C580.609,957.493,580.521,952.927,580.081,948.778Z" transform="translate(-546.337 -936.258)" fill="#a86060"/>
          <g id="Grupo_70251" data-name="Grupo 70251" transform="translate(23.189 42.704)">
            <path id="Trazado_102688" data-name="Trazado 102688" d="M587.827,977.536a3.585,3.585,0,0,0-.716,1.253,6.652,6.652,0,0,1-4.951,1.653,5.048,5.048,0,0,0-3.136.863,25.631,25.631,0,0,1-3.13,1.643c-.632.335-1.072.421-.2,1.073a3.054,3.054,0,0,0,1.76.3,16.011,16.011,0,0,1-2.906,2.908c-.276.266-1.253.866-1.16,1.353.138.751,1.76.725,2.273.542a1.276,1.276,0,0,0-.685,1.424,5.621,5.621,0,0,0,1.539.14c.078,1.436.243,2.095,1.667,1.034-.076,2.58,6.4-1.619,7.217-2.328a25.935,25.935,0,0,0,3.736-3.964c.763-1.008,1.691-1.864,2.509-2.794.409-.464,1.179-1.132,1.156-1.762A44.5,44.5,0,0,1,587.827,977.536Z" transform="translate(-573.378 -923.226)" fill="#ff8f67"/>
            <g id="Grupo_70250" data-name="Grupo 70250" transform="translate(10.664)">
              <path id="Trazado_102689" data-name="Trazado 102689" d="M591.358,954.7s11.067,3.132,7.517,38.632c0,0-2.716,10.232-13.992,21.09,0,0-5.217-3.341-6.889-5.638l11.065-17.751S587.6,963.046,591.358,954.7Z" transform="translate(-577.68 -954.697)" fill="#4d3c4b"/>
              <path id="Trazado_102690" data-name="Trazado 102690" d="M578.176,1006.436a.315.315,0,0,1-.266-.478L588.918,988.3c-1.163-10.04,1.037-31.175,1.061-31.387a.3.3,0,0,1,.343-.281.314.314,0,0,1,.278.345c-.021.214-2.228,21.435-1.046,31.356a.287.287,0,0,1-.048.2l-11.065,17.752A.309.309,0,0,1,578.176,1006.436Z" transform="translate(-577.862 -952.038)" fill="#fff"/>
            </g>
          </g>
          <g id="Grupo_70252" data-name="Grupo 70252" transform="translate(16.516 4.14)">
            <path id="Trazado_102691" data-name="Trazado 102691" d="M591.718,961.5h.1l-.01.01a16.473,16.473,0,0,1-5.85,4.615c-.012.012-.026.012-.038.024-.126.062-.25.112-.376.174-.663.316-1.344.637-2.045.918-.01,0-.024.012-.036.012a.468.468,0,0,1-.05.01c-.012,0-.012.014-.021,0a6.587,6.587,0,0,1-1.384.39,1.382,1.382,0,0,1-.311.036,4.012,4.012,0,0,1-1.3-.024,16.229,16.229,0,0,1-5.916-2.618c-.623-.4-3.244-3.469-3.9-3.546h.024a5.33,5.33,0,0,0,2.052-.4c4.651-2.017,3.1-10.779,3.1-10.779l4.8-2.478v-.652l.628.326.625-.326.012.652,4.8,2.478s-1.617,9.048,3.31,10.865c.012,0,.012,0,.024.012Z" transform="translate(-570.571 -926.482)" fill="#ff8f67"/>
            <path id="Trazado_102692" data-name="Trazado 102692" d="M571.249,947.806c0,5.731.426,14.522,6.264,17.6,7.286,3.847,11.048-4.29,12.159-9.873a31.315,31.315,0,0,0,.361-10.237c-.618-4.2-1.928-6.028-6.3-6.67-8.48-1.241-14.774,5.388-12.068,13.982Z" transform="translate(-569.939 -938.48)" fill="#ff8f67"/>
            <path id="Trazado_102693" data-name="Trazado 102693" d="M578.432,952.1a7.853,7.853,0,0,1-5.438-2.221.314.314,0,0,1,.459-.428,7.406,7.406,0,0,0,5.317,2.017,5.7,5.7,0,0,0,4.3-2.219.312.312,0,1,1,.511.359,6.23,6.23,0,0,1-4.8,2.487C578.665,952.1,578.549,952.1,578.432,952.1Z" transform="translate(-567.346 -923.818)" fill="#9f6464"/>
          </g>
          <path id="Trazado_102694" data-name="Trazado 102694" d="M586.205,940.339c-1.929-2.718-4.392-3.6-7.64-3.6-2.844,0-6.623.811-4.1,4.219.48.652,1.087,1.222,1.6,1.89l-.3-.682c1.318,2.383,3.486,4.1,5.624,5.852,2.934,2.4,3.517,5.289,3.791,8.913a3.887,3.887,0,0,0,.908-2.216c0,1.2.2,2.4.15,3.588a4.956,4.956,0,0,1,.64-1.783c-.024,1.431.01,2.861-.014,4.29C589.955,954.614,590.333,946.167,586.205,940.339Z" transform="translate(-549.833 -936.739)" fill="#a86060"/>
          <path id="Trazado_102695" data-name="Trazado 102695" d="M580.668,939.291c1.1,3.008-2.977,6.458-4.661,8.451a14.963,14.963,0,0,0-3.631,9.512,9.09,9.09,0,0,1-.314-3.667,15.317,15.317,0,0,0-.357,2.421c-.055-.223-.214-.469-.285-.683-.069.117,0,.3-.19.385-1.812-1.574-1.042-6.3-.742-8.435a20.855,20.855,0,0,1,2.5-6.894c1.165-2.1,2.789-3.645,5.327-3.284,2.292.326,3.065,2.547,2.033,4.54Z" transform="translate(-554.75 -936.316)" fill="#a86060"/>
          <g id="Grupo_70253" data-name="Grupo 70253" transform="translate(20.837 14.804)">
            <path id="Trazado_102696" data-name="Trazado 102696" d="M575.936,944.656a.734.734,0,0,1-.347.038,3.31,3.31,0,0,0-1.931.476.826.826,0,0,1-1.132-.226.816.816,0,0,1,.221-1.127,5.017,5.017,0,0,1,2.994-.737.815.815,0,0,1,.2,1.577Z" transform="translate(-572.388 -942.833)" fill="#a86060"/>
            <path id="Trazado_102697" data-name="Trazado 102697" d="M579.316,945.02a.715.715,0,0,1-.331-.1,3.28,3.28,0,0,0-1.933-.319.8.8,0,1,1-.3-1.579,4.9,4.9,0,0,1,2.994.495.8.8,0,0,1,.321,1.084A.809.809,0,0,1,579.316,945.02Z" transform="translate(-567.279 -942.965)" fill="#a86060"/>
            <path id="Trazado_102698" data-name="Trazado 102698" d="M576.018,951.095a6.629,6.629,0,0,1-1.172-.119.361.361,0,0,1-.295-.416.368.368,0,0,1,.419-.292c1.222.216,2,.1,2.376-.366.347-.428.045-1.049-.421-1.876a5.768,5.768,0,0,1-.454-.923l-.055-.162a4,4,0,0,1-.335-2.3.369.369,0,0,1,.459-.221.362.362,0,0,1,.224.459,3.805,3.805,0,0,0,.333,1.824l.057.167a5.536,5.536,0,0,0,.4.8c.464.821,1.037,1.843.352,2.687A2.322,2.322,0,0,1,576.018,951.095Z" transform="translate(-569.415 -940.978)" fill="#9f6464"/>
            <path id="Trazado_102699" data-name="Trazado 102699" d="M574.464,945.816a4.106,4.106,0,0,1-1.681-.39.38.38,0,0,1-.171-.511.39.39,0,0,1,.511-.174c.017.007,1.574.759,2.575-.133a.388.388,0,0,1,.542.031.381.381,0,0,1-.031.54A2.545,2.545,0,0,1,574.464,945.816Z" transform="translate(-572.137 -940.833)" fill="#9f6464"/>
            <path id="Trazado_102700" data-name="Trazado 102700" d="M577.931,945.76a2.536,2.536,0,0,1-1.743-.635.383.383,0,0,1-.031-.542.388.388,0,0,1,.542-.029,2.535,2.535,0,0,0,2.571.133.384.384,0,1,1,.343.687A4.182,4.182,0,0,1,577.931,945.76Z" transform="translate(-567.329 -940.908)" fill="#9f6464"/>
            <path id="Trazado_102701" data-name="Trazado 102701" d="M578.456,948.789a.339.339,0,0,1-.107-.017,9.513,9.513,0,0,0-3.484.012.361.361,0,1,1-.131-.711,10.042,10.042,0,0,1,3.826.012.36.36,0,0,1-.1.7Z" transform="translate(-569.563 -936.191)" fill="#9f6464"/>
          </g>
          <g id="Grupo_70256" data-name="Grupo 70256" transform="translate(0 42.704)">
            <g id="Grupo_70254" data-name="Grupo 70254" transform="translate(13.244 53.146)">
              <path id="Trazado_102702" data-name="Trazado 102702" d="M590.918,990.236c-.138-.713-1.769-1.8-2.323-2.35-2.181-2.192-3.346-4.392-6.273-5.524a20.868,20.868,0,0,1-7.065-5.055c.359.39.749.768,1.132,1.146-1.446-1.291-1.662-2.095-3.438-.594-1.253,1.056-2.2,2.235-3.755,2.83,3.534,1.493,5,5.6,6.682,8.727.8,1.493,6.568,7.973,8.019,4.918.768.44,2.937.017,2.216-1.046.913.081,3.274.2,2.663-1.341C589.836,992.081,591.151,991.453,590.918,990.236Z" transform="translate(-569.195 -977.046)" fill="#ff8f67"/>
              <path id="Trazado_102703" data-name="Trazado 102703" d="M580.946,985.308a.135.135,0,0,1-.088-.029,46.529,46.529,0,0,1-4.782-4.879.157.157,0,0,1,.017-.219.152.152,0,0,1,.221.016,48.411,48.411,0,0,0,4.72,4.827.152.152,0,0,1,.04.217A.158.158,0,0,1,580.946,985.308Z" transform="translate(-559.763 -972.782)" fill="#9f6464"/>
              <path id="Trazado_102704" data-name="Trazado 102704" d="M579.319,984.871a.161.161,0,0,1-.085-.024,24.41,24.41,0,0,1-3.1-2.416.162.162,0,0,1,0-.224.165.165,0,0,1,.224,0,23.873,23.873,0,0,0,3.056,2.38.156.156,0,0,1-.086.288Z" transform="translate(-559.703 -969.998)" fill="#9f6464"/>
              <path id="Trazado_102705" data-name="Trazado 102705" d="M578.246,985.512a.157.157,0,0,1-.086-.024,24.548,24.548,0,0,1-3.106-2.418.163.163,0,0,1,0-.224.158.158,0,0,1,.224,0,24,24,0,0,0,3.058,2.383.159.159,0,0,1,.045.219A.155.155,0,0,1,578.246,985.512Z" transform="translate(-561.186 -969.122)" fill="#9f6464"/>
              <path id="Trazado_102706" data-name="Trazado 102706" d="M577.17,985.951a.19.19,0,0,1-.088-.021,25.173,25.173,0,0,1-3.1-2.423.158.158,0,0,1,0-.224.162.162,0,0,1,.224,0,23.956,23.956,0,0,0,3.056,2.385.16.16,0,0,1,.045.219A.15.15,0,0,1,577.17,985.951Z" transform="translate(-562.667 -968.517)" fill="#9f6464"/>
            </g>
            <g id="Grupo_70255" data-name="Grupo 70255">
              <path id="Trazado_102707" data-name="Trazado 102707" d="M571.847,954.7s-11.069,3.132-7.519,38.632c0,0,2.713,10.232,13.992,21.09,0,0,5.22-3.341,6.891-5.638L574.142,991.03S575.6,963.046,571.847,954.7Z" transform="translate(-563.626 -954.697)" fill="#4d3c4b"/>
              <path id="Trazado_102708" data-name="Trazado 102708" d="M579.9,1006.436a.316.316,0,0,1-.266-.15l-11.067-17.752a.3.3,0,0,1-.045-.2c1.182-9.923-1.023-31.142-1.046-31.356a.314.314,0,0,1,.278-.345.308.308,0,0,1,.345.281c.024.212,2.219,21.347,1.056,31.387l11.01,17.659a.306.306,0,0,1-.1.428A.3.3,0,0,1,579.9,1006.436Z" transform="translate(-558.318 -952.038)" fill="#fff"/>
            </g>
          </g>
          <path id="Trazado_102709" data-name="Trazado 102709" d="M575.519,990.679a.315.315,0,0,1-.314-.314V957.426a.313.313,0,1,1,.625,0v32.939A.315.315,0,0,1,575.519,990.679Z" transform="translate(-547.67 -908.666)" fill="#fff"/>
          <path id="Trazado_102710" data-name="Trazado 102710" d="M573.69,957.878a.678.678,0,1,1,1.355,0,.678.678,0,1,1-1.355,0Z" transform="translate(-549.758 -908.547)" fill="#fff"/>
          <path id="Trazado_102711" data-name="Trazado 102711" d="M573.69,960.226a.678.678,0,1,1,.68.682A.68.68,0,0,1,573.69,960.226Z" transform="translate(-549.758 -905.309)" fill="#fff"/>
          <path id="Trazado_102712" data-name="Trazado 102712" d="M573.69,962.576a.678.678,0,1,1,.68.678A.68.68,0,0,1,573.69,962.576Z" transform="translate(-549.758 -902.071)" fill="#fff"/>
          <path id="Trazado_102713" data-name="Trazado 102713" d="M573.69,964.928a.678.678,0,1,1,.68.678A.677.677,0,0,1,573.69,964.928Z" transform="translate(-549.758 -898.833)" fill="#fff"/>
          <path id="Trazado_102714" data-name="Trazado 102714" d="M573.69,967.275a.678.678,0,1,1,.68.678A.678.678,0,0,1,573.69,967.275Z" transform="translate(-549.758 -895.596)" fill="#fff"/>
          <path id="Trazado_102715" data-name="Trazado 102715" d="M573.69,969.622a.678.678,0,1,1,.68.68A.677.677,0,0,1,573.69,969.622Z" transform="translate(-549.758 -892.358)" fill="#fff"/>
        </g>
      </g>
      <path id="Trazado_102716" data-name="Trazado 102716" d="M570.384,976.486a.314.314,0,0,1-.014-.628,16.21,16.21,0,0,0,10.741-4.461.311.311,0,0,1,.44-.021.308.308,0,0,1,.024.44,16.55,16.55,0,0,1-11.177,4.671Z" transform="translate(-554.746 -889.122)" fill="#fff"/>
      <path id="Trazado_102717" data-name="Trazado 102717" d="M587.148,976.865l-.024,0a19.284,19.284,0,0,1-11.631-5.036.31.31,0,0,1,0-.442.315.315,0,0,1,.442,0,19.029,19.029,0,0,0,11.234,4.851.313.313,0,0,1-.026.625Z" transform="translate(-547.397 -889.122)" fill="#fff"/>
    </g>
  </g>
</svg>
