<svg xmlns="http://www.w3.org/2000/svg" width="326.249" height="208.445" viewBox="0 0 326.249 208.445">
  <g id="Grupo_70219" data-name="Grupo 70219" transform="translate(-356.669 -735.239)">
    <g id="Grupo_70194" data-name="Grupo 70194" transform="translate(398.612 735.239)">
      <g id="Grupo_70192" data-name="Grupo 70192" transform="translate(0 4.365)">
        <path id="Trazado_102527" data-name="Trazado 102527" d="M401.16,752.792s12.049,3.347,9.035,30.284l-1.337,36.812L404,821.729l-4.351-63.418Z" transform="translate(-353.752 -721.286)" fill="#4d3c4b"/>
        <path id="Trazado_102528" data-name="Trazado 102528" d="M390.354,784.33c1.03.574.905,2.3,1.273,3.337a7.029,7.029,0,0,0,1.921,3.012c-.879.934-2.712.139-3.64-.456-.372,1.962-.656,4.778-1.817,6.5-2.1,3.12-2.215-.681-2.029-2.5.047,1.171-.67,3.779-1.592,4.422-1.03-.791-.478-3.5-.151-4.58-.033.764-.9,3.809-1.913,3.617-1.245-.239-.621-3.517-.307-4.253a3.58,3.58,0,0,1-.644,2.51c-.76-.719-.394-4.007-.327-5.136a22.349,22.349,0,0,1,1.238-6.174c.813-2.16,2.062-1.287,4.014-1.1,1.412.137,3.282-.141,4.288.95Z" transform="translate(-373.239 -689.549)" fill="#ff8f67"/>
        <g id="haed" transform="translate(35.95)">
          <g id="Grupo_70191" data-name="Grupo 70191">
            <g id="Grupo_70188" data-name="Grupo 70188">
              <path id="Trazado_102529" data-name="Trazado 102529" d="M395.3,750.908c-.787-3.147-.879-7,1.128-9.738,3.157-4.316,11.281-5.18,15.074-1.4,2.514,2.5,3.213,5.473,3.114,8.978-.059,1.991.217,3.944,1.753,5.391.188.178.411.419.3.656-.1.219-.392.231-.623.29-.738.186-1.077,1.03-1.189,1.78a30.636,30.636,0,0,1-.971,5.354,1.7,1.7,0,0,1-.687.969,2.026,2.026,0,0,1-1.216.125q-2.084-.239-4.138-.681a.857.857,0,0,0-.241.147,2.03,2.03,0,0,0-.419,1.005q-.95,4.181-1.888,8.369a49.086,49.086,0,0,0-9.83-6.029,12.9,12.9,0,0,0,1.96-9.674A24.171,24.171,0,0,1,395.3,750.908Z" transform="translate(-394.784 -737.375)" fill="#ff8f67"/>
              <path id="Trazado_102530" data-name="Trazado 102530" d="M405.088,752.959a.261.261,0,0,1-.067-.01c-.2-.071-4.839-1.747-5.982-5.544a.2.2,0,0,1,.386-.116c1.083,3.6,5.683,5.264,5.728,5.281a.2.2,0,0,1-.065.39Z" transform="translate(-390.352 -727.179)" fill="#894c4c"/>
            </g>
            <g id="Grupo_70190" data-name="Grupo 70190" transform="translate(16.692 11.823)">
              <g id="Grupo_70189" data-name="Grupo 70189">
                <path id="Trazado_102531" data-name="Trazado 102531" d="M405.435,744.329a.561.561,0,0,1-.247.008,2.317,2.317,0,0,0-1.384.213.574.574,0,0,1-.554-1.006,3.561,3.561,0,0,1,2.144-.335.574.574,0,0,1,.462.666A.581.581,0,0,1,405.435,744.329Z" transform="translate(-402.952 -743.161)" fill="#a86060"/>
                <path id="Trazado_102532" data-name="Trazado 102532" d="M404.454,744.767c.014.472-.155.863-.378.871s-.417-.372-.431-.846.155-.862.38-.87S404.439,744.3,404.454,744.767Z" transform="translate(-402.231 -742.367)" fill="#a86060"/>
              </g>
            </g>
          </g>
          <path id="Trazado_102533" data-name="Trazado 102533" d="M403.682,747.765a.155.155,0,0,1-.1-.037.161.161,0,0,1-.018-.227,1.726,1.726,0,0,1,1.778-.456.162.162,0,0,1,.117.2.158.158,0,0,1-.2.115,1.47,1.47,0,0,0-1.451.352A.16.16,0,0,1,403.682,747.765Z" transform="translate(-385.666 -727.358)" fill="#894c4c"/>
        </g>
        <path id="Trazado_102534" data-name="Trazado 102534" d="M381.478,781.043V786.4l8.534.668.5-6.191Z" transform="translate(-372.721 -691.978)" fill="#7a8ecb"/>
        <path id="Trazado_102535" data-name="Trazado 102535" d="M413.588,842.547l20.281-5.737c1.424-.4,2.24-1.514,1.825-2.485s-1.95-1.657-3.427-1.674c-2.975-.033-7.786-.48-11.048-2.761l-11.544,4.852a21.9,21.9,0,0,0,.38,6.047A2.834,2.834,0,0,0,413.588,842.547Z" transform="translate(-343.36 -640.824)" fill="#4d3c4b"/>
        <path id="Trazado_102536" data-name="Trazado 102536" d="M379.684,838.649l20.422,5.205c1.435.366,2.7-.188,2.826-1.236s-.856-2.41-2.127-3.166c-2.557-1.521-6.495-4.318-8.172-7.927l-12.423-1.592a21.955,21.955,0,0,0-2.7,5.422A2.836,2.836,0,0,0,379.684,838.649Z" transform="translate(-376.96 -640.78)" fill="#4d3c4b"/>
        <path id="Trazado_102537" data-name="Trazado 102537" d="M409.543,788.818,401.51,819.6s-23.869,44.843-24.317,54.881c0,0,3.123,4.463,18.072.67l17.624-46.85,13.831-32.8Z" transform="translate(-377.193 -683.688)" fill="#5b4f5a"/>
        <path id="Trazado_102538" data-name="Trazado 102538" d="M391.386,796.284,411.8,844.473l15.728,45.844s10.709-.335,15.395-6.358l-17.068-50.532-12.38-39.487,1-15.057Z" transform="translate(-362.381 -694.057)" fill="#5b4f5a"/>
        <path id="Trazado_102539" data-name="Trazado 102539" d="M397.184,752.465c0-.094,6.254,2.982,6.646,3.27a22.354,22.354,0,0,1,5.238,5.272,22.706,22.706,0,0,1,2.2,3.9,15.217,15.217,0,0,1,1.028,6.008q-.074,3.81-.145,7.619-.147,7.706-.294,15.411c-.039,2-.076,3.987-.116,5.984-.055,2.977-1.645,3.922-4.122,5.415q-2.437,1.468-4.874,2.939-3.114,1.879-6.229,3.754S397.184,752.52,397.184,752.465Z" transform="translate(-357.027 -721.629)" fill="#7a8ecb"/>
        <path id="Trazado_102540" data-name="Trazado 102540" d="M415.26,764.265a14.518,14.518,0,0,0-3.086-6.525c-2.722-3.38-7.071-6.151-11.577-5.436,0,0-13.61,2.9-11.379,25.878,0,0,4.106,30.785.486,46.68,2.33.452,19.978,3.129,25.392-17.9q.086-4.083.17-8.166.169-7.946.333-15.893c.041-2.009.149-4.032.112-6.039q-.052-3.209-.033-6.433A30.653,30.653,0,0,0,415.26,764.265Z" transform="translate(-364.901 -721.914)" fill="#4d3c4b"/>
        <path id="Trazado_102541" data-name="Trazado 102541" d="M404.829,754.43q-4.7,6.091-9.4,12.186c-3.419,4.437-7.557,8.4-10.257,13.353-2.109,3.871-2.213,7.739-2.567,12.019-.106,1.281-1.588,18.656-1.537,18.662l10.038,1,3.012-24.429L414.2,768.486S417.544,755.769,404.829,754.43Z" transform="translate(-373.149 -719.576)" fill="#4d3c4b"/>
        <path id="Trazado_102542" data-name="Trazado 102542" d="M390.355,775.186a.341.341,0,0,1-.239-.1.337.337,0,0,1,0-.474l12.94-12.717a.335.335,0,0,1,.47.478L390.59,775.09A.336.336,0,0,1,390.355,775.186Z" transform="translate(-363.806 -711.887)" fill="#fff"/>
        <path id="Trazado_102543" data-name="Trazado 102543" d="M395.261,752.042s7.641,3.372,10.149,6.3l1.674-5.019L395.261,750.2Z" transform="translate(-358.337 -723.992)" fill="#7a8ecb"/>
        <path id="Trazado_102544" data-name="Trazado 102544" d="M409.561,761.967a21.141,21.141,0,0,0-2.35-4.03,17.072,17.072,0,0,0-7.592-5.73c-.243-.1-4.232-1.324-4.232-1.3-.006.58-.016,1.159-.025,1.739a6.714,6.714,0,0,1-.067,2.291c-.245.6-.946,1.036-1.279,1.631-.975,1.735,1.715,2.483,2.775,3q2.667,1.3,5.33,2.593c1.449.709,2.906,1.41,4.359,2.111.809.394,1.59.844,2.383,1.263a2.263,2.263,0,0,1,1.089,1.655c.09.368.1,1,.4,1.242A14.511,14.511,0,0,0,409.561,761.967Z" transform="translate(-359.856 -723.251)" fill="#4d3c4b"/>
        <path id="Trazado_102545" data-name="Trazado 102545" d="M404.811,819.587a.335.335,0,0,1-.309-.2L392.12,790.1a.335.335,0,0,1,.617-.259l12.382,29.283a.332.332,0,0,1-.178.435A.338.338,0,0,1,404.811,819.587Z" transform="translate(-361.642 -682.834)" fill="#fff"/>
      </g>
      <path id="Trazado_102546" data-name="Trazado 102546" d="M408.308,755.2c.243.182.519.184.822-.137.54-.576-.286-1.937-.309-2.577-.049-1.384-.276-3.625,1.022-4.574,1.451-1.059,4.012-.186,5.677-.495,5.452-1.005,6.3-9.047,2.029-12.174-.039.635-.01,1.31-.065,1.95-.055-.1-.529-.977-.466-.821,0,.266-.016-.241-.031-.327-1.794,1.954-7.063,1.2-9.513.983-4.016-.356-4.8,1.461-6.9,4.4-.766,1.077-.284.5-1.461.965a7.732,7.732,0,0,0-1.88.627,4.015,4.015,0,0,0-1.668,2.886c-.552,2.79,1.512,5.636-.1,8.238-.873,1.418-2.238,2.223-2.712,3.977-.486,1.788.441,4.2,2.691,3.413-.885,1.651.842.961,1.668,1.236.883.292,1.055,1.146,2.305.4.059.258.29.486.349.668.245-.3.879-.548,1.138-.84a.892.892,0,0,0,.206.3c.452.437,4.549-5.828,4.588-6.677.027-.617-.629-1.465-.875-2.007a6.545,6.545,0,0,1-.758-2.573,1.154,1.154,0,0,1,1.8-1.059,3.057,3.057,0,0,1,1.194,1.639C407.241,752.99,407.668,754.719,408.308,755.2Z" transform="translate(-361.078 -735.239)" fill="#a86060"/>
      <g id="Grupo_70193" data-name="Grupo 70193" transform="translate(43.996 17.311)">
        <path id="Trazado_102547" data-name="Trazado 102547" d="M400.354,746.2a.2.2,0,0,1-.194-.151c-.131-.5-.611-1.819-1.273-1.94a.2.2,0,1,1,.072-.394c1.032.186,1.537,2.023,1.59,2.234a.2.2,0,0,1-.143.243A.148.148,0,0,1,400.354,746.2Z" transform="translate(-398.721 -743.71)" fill="#894c4c"/>
        <path id="Trazado_102548" data-name="Trazado 102548" d="M399.958,744.622h-1.036a.2.2,0,0,1,0-.4h1.036a.2.2,0,0,1,0,.4Z" transform="translate(-398.721 -743.178)" fill="#894c4c"/>
      </g>
    </g>
    <g id="Grupo_70201" data-name="Grupo 70201" transform="translate(553.929 737.052)">
      <g id="Grupo_70199" data-name="Grupo 70199" transform="translate(0 2.552)">
        <path id="Trazado_102549" data-name="Trazado 102549" d="M477.163,752.792s12.047,3.347,9.035,30.284l-1.339,36.812-4.854,1.841-4.349-63.418Z" transform="translate(-429.751 -721.286)" fill="#4d3c4b"/>
        <path id="Trazado_102550" data-name="Trazado 102550" d="M466.356,784.33c1.03.574.907,2.3,1.275,3.337a6.992,6.992,0,0,0,1.921,3.012c-.881.934-2.714.139-3.642-.456-.374,1.962-.656,4.778-1.817,6.5-2.1,3.12-2.215-.681-2.029-2.5.047,1.171-.67,3.779-1.59,4.422-1.032-.791-.48-3.5-.149-4.58-.037.764-.907,3.809-1.917,3.617-1.245-.239-.625-3.517-.3-4.253a3.613,3.613,0,0,1-.646,2.51c-.76-.719-.394-4.007-.327-5.136a22.417,22.417,0,0,1,1.236-6.174c.819-2.16,2.064-1.287,4.014-1.1,1.414.137,3.284-.141,4.29.95Z" transform="translate(-449.239 -689.549)" fill="#ff8f67"/>
        <g id="haed-2" data-name="haed" transform="translate(35.952)">
          <g id="Grupo_70198" data-name="Grupo 70198">
            <g id="Grupo_70195" data-name="Grupo 70195">
              <path id="Trazado_102551" data-name="Trazado 102551" d="M471.307,750.908c-.787-3.147-.877-7,1.128-9.738,3.157-4.316,11.281-5.18,15.072-1.4,2.514,2.5,3.215,5.473,3.117,8.978-.059,1.991.219,3.944,1.755,5.391.186.178.411.419.3.656-.1.219-.392.231-.621.29-.742.186-1.079,1.03-1.19,1.78a30.84,30.84,0,0,1-.973,5.354,1.7,1.7,0,0,1-.687.969,2.028,2.028,0,0,1-1.216.125c-1.392-.159-2.767-.388-4.14-.681a.874.874,0,0,0-.239.147,2.049,2.049,0,0,0-.419,1.005q-.947,4.181-1.888,8.369a49.042,49.042,0,0,0-9.832-6.029,12.885,12.885,0,0,0,1.96-9.674A24.35,24.35,0,0,1,471.307,750.908Z" transform="translate(-470.786 -737.375)" fill="#ff8f67"/>
              <path id="Trazado_102552" data-name="Trazado 102552" d="M481.093,752.959a.26.26,0,0,1-.067-.01c-.2-.071-4.841-1.747-5.986-5.544a.2.2,0,0,1,.386-.116c1.083,3.6,5.687,5.264,5.732,5.281a.2.2,0,0,1-.066.39Z" transform="translate(-466.356 -727.179)" fill="#894c4c"/>
            </g>
            <g id="Grupo_70197" data-name="Grupo 70197" transform="translate(16.692 11.823)">
              <g id="Grupo_70196" data-name="Grupo 70196">
                <path id="Trazado_102553" data-name="Trazado 102553" d="M481.437,744.329a.561.561,0,0,1-.247.008,2.317,2.317,0,0,0-1.384.213.573.573,0,1,1-.552-1.006,3.547,3.547,0,0,1,2.144-.335.574.574,0,0,1,.039,1.12Z" transform="translate(-478.954 -743.161)" fill="#a86060"/>
                <path id="Trazado_102554" data-name="Trazado 102554" d="M480.455,744.767c.018.472-.151.863-.378.871s-.413-.372-.431-.846.157-.862.38-.87S480.443,744.3,480.455,744.767Z" transform="translate(-478.234 -742.367)" fill="#a86060"/>
              </g>
            </g>
          </g>
          <path id="Trazado_102555" data-name="Trazado 102555" d="M479.685,747.766a.155.155,0,0,1-.1-.037.164.164,0,0,1-.02-.227,1.715,1.715,0,0,1,1.78-.456.163.163,0,0,1,.117.2.155.155,0,0,1-.2.115,1.45,1.45,0,0,0-1.451.352A.163.163,0,0,1,479.685,747.766Z" transform="translate(-461.668 -727.359)" fill="#894c4c"/>
        </g>
        <path id="Trazado_102556" data-name="Trazado 102556" d="M457.48,781.043V786.4l8.534.668.5-6.191Z" transform="translate(-448.721 -691.978)" fill="#7a8ecb"/>
        <path id="Trazado_102557" data-name="Trazado 102557" d="M489.592,842.547l20.279-5.737c1.424-.4,2.242-1.514,1.825-2.485s-1.95-1.657-3.427-1.674c-2.976-.033-7.786-.48-11.046-2.761l-11.544,4.852a21.857,21.857,0,0,0,.378,6.047A2.837,2.837,0,0,0,489.592,842.547Z" transform="translate(-419.359 -640.824)" fill="#4d3c4b"/>
        <path id="Trazado_102558" data-name="Trazado 102558" d="M455.684,838.649l20.424,5.205c1.433.366,2.7-.188,2.824-1.236s-.852-2.41-2.125-3.166c-2.554-1.521-6.495-4.318-8.172-7.927l-12.423-1.592a21.953,21.953,0,0,0-2.7,5.422A2.838,2.838,0,0,0,455.684,838.649Z" transform="translate(-452.96 -640.78)" fill="#4d3c4b"/>
        <path id="Trazado_102559" data-name="Trazado 102559" d="M485.547,788.818,477.513,819.6s-23.869,44.843-24.319,54.881c0,0,3.127,4.463,18.072.67l17.628-46.85,13.827-32.8Z" transform="translate(-453.194 -683.688)" fill="#5b4f5a"/>
        <path id="Trazado_102560" data-name="Trazado 102560" d="M467.388,796.284,487.8,844.473l15.73,45.844s10.708-.335,15.393-6.358l-17.068-50.532-12.38-39.487,1-15.057Z" transform="translate(-438.381 -694.057)" fill="#5b4f5a"/>
        <path id="Trazado_102561" data-name="Trazado 102561" d="M473.188,752.465c0-.094,6.249,2.982,6.646,3.27a22.287,22.287,0,0,1,7.435,9.168,15.184,15.184,0,0,1,1.03,6.008q-.073,3.81-.147,7.619-.141,7.706-.292,15.411c-.041,2-.078,3.987-.112,5.984-.059,2.977-1.649,3.922-4.126,5.415q-2.434,1.468-4.874,2.939-3.115,1.879-6.229,3.754S473.188,752.52,473.188,752.465Z" transform="translate(-433.027 -721.629)" fill="#7a8ecb"/>
        <path id="Trazado_102562" data-name="Trazado 102562" d="M491.262,764.265a14.558,14.558,0,0,0-3.084-6.525c-2.722-3.38-7.073-6.151-11.577-5.436,0,0-13.613,2.9-11.381,25.878,0,0,4.106,30.785.486,46.68,2.33.452,19.978,3.129,25.392-17.9q.086-4.083.172-8.166.169-7.946.331-15.893c.041-2.009.149-4.032.112-6.039-.035-2.14-.051-4.288-.035-6.433A30.52,30.52,0,0,0,491.262,764.265Z" transform="translate(-440.901 -721.914)" fill="#4d3c4b"/>
        <path id="Trazado_102563" data-name="Trazado 102563" d="M480.831,754.43q-4.7,6.091-9.4,12.186c-3.421,4.437-7.557,8.4-10.257,13.353-2.109,3.871-2.215,7.739-2.565,12.019-.108,1.281-1.59,18.656-1.539,18.662l10.04,1,3.01-24.429L490.2,768.486S493.546,755.769,480.831,754.43Z" transform="translate(-449.149 -719.576)" fill="#4d3c4b"/>
        <path id="Trazado_102564" data-name="Trazado 102564" d="M466.357,775.186a.342.342,0,0,1-.239-.1.338.338,0,0,1,0-.474l12.94-12.717a.335.335,0,0,1,.47.478l-12.94,12.717A.336.336,0,0,1,466.357,775.186Z" transform="translate(-439.806 -711.887)" fill="#fff"/>
        <path id="Trazado_102565" data-name="Trazado 102565" d="M471.263,752.042s7.639,3.372,10.151,6.3l1.672-5.019L471.263,750.2Z" transform="translate(-434.337 -723.992)" fill="#7a8ecb"/>
        <path id="Trazado_102566" data-name="Trazado 102566" d="M485.563,761.967a21.249,21.249,0,0,0-2.35-4.03,17.072,17.072,0,0,0-7.592-5.73c-.243-.1-4.232-1.324-4.232-1.3-.008.58-.016,1.159-.022,1.739a6.766,6.766,0,0,1-.069,2.291c-.245.6-.948,1.036-1.279,1.631-.975,1.735,1.717,2.483,2.775,3q2.664,1.3,5.328,2.593c1.451.709,2.908,1.41,4.359,2.111.813.394,1.592.844,2.385,1.263a2.263,2.263,0,0,1,1.089,1.655c.088.368.1,1,.4,1.242A14.6,14.6,0,0,0,485.563,761.967Z" transform="translate(-435.856 -723.251)" fill="#4d3c4b"/>
        <path id="Trazado_102567" data-name="Trazado 102567" d="M480.812,819.587a.335.335,0,0,1-.309-.2L468.121,790.1a.335.335,0,0,1,.617-.259l12.382,29.283a.332.332,0,0,1-.178.435A.337.337,0,0,1,480.812,819.587Z" transform="translate(-437.643 -682.834)" fill="#fff"/>
      </g>
      <path id="Trazado_102568" data-name="Trazado 102568" d="M484.311,754.269c.243.182.519.184.819-.137.542-.576-.282-1.937-.3-2.577-.051-1.384-.278-3.625,1.022-4.574,2.614-1.911,6.656.315,8.706,1.95a12,12,0,0,0-.355-4.071,15.873,15.873,0,0,0,1.189,2.409c-.022-.586-.112-1.183-.147-1.735a5,5,0,0,0,.777.423,9.052,9.052,0,0,0-.981-5.5c-1.89-3.176-5.984-3.656-9.378-4.146-4.711-.682-6.452.5-9.078,4.187-.764,1.077-.284.5-1.461.965a7.831,7.831,0,0,0-1.882.627,4.012,4.012,0,0,0-1.666,2.886c-.552,2.79,1.512,5.636-.1,8.238-.873,1.418-2.238,2.224-2.714,3.977-.486,1.788.443,4.2,2.693,3.413-.885,1.651.842.96,1.666,1.236.885.292,1.057,1.146,2.305.4a6.348,6.348,0,0,0,.351.668c.245-.3.877-.548,1.138-.84a.915.915,0,0,0,.2.3c.456.437,4.551-5.828,4.59-6.677.027-.617-.627-1.465-.875-2.007a6.544,6.544,0,0,1-.758-2.573,1.154,1.154,0,0,1,1.8-1.059,3.081,3.081,0,0,1,1.2,1.639C483.242,752.064,483.673,753.793,484.311,754.269Z" transform="translate(-437.079 -736.126)" fill="#a86060"/>
      <g id="Grupo_70200" data-name="Grupo 70200" transform="translate(43.998 15.498)">
        <path id="Trazado_102569" data-name="Trazado 102569" d="M476.358,746.2a.2.2,0,0,1-.194-.151c-.131-.5-.615-1.819-1.275-1.94a.2.2,0,0,1-.161-.233.2.2,0,0,1,.233-.161c1.03.186,1.537,2.023,1.592,2.234a.2.2,0,0,1-.143.243A.148.148,0,0,1,476.358,746.2Z" transform="translate(-474.723 -743.71)" fill="#894c4c"/>
        <path id="Trazado_102570" data-name="Trazado 102570" d="M475.961,744.622h-1.036a.2.2,0,0,1,0-.4h1.036a.2.2,0,0,1,0,.4Z" transform="translate(-474.723 -743.178)" fill="#894c4c"/>
      </g>
    </g>
    <g id="cascet" transform="translate(374.296 789.101)">
      <path id="Trazado_102571" data-name="Trazado 102571" d="M392.594,766.068c0-2.651,2.393-4.645,5.342-4.461l92.606,5.8c2.953.186,5.344,1.933,5.344,3.905v3.57l-103.293-4.018Z" transform="translate(-336.804 -761.595)" fill="#aa6868"/>
      <path id="Trazado_102572" data-name="Trazado 102572" d="M376.928,770.562a6.383,6.383,0,0,1,6.689-6.427l221.877,8.836a7.023,7.023,0,0,1,6.687,6.961v7.7l-235.253-3.68Z" transform="translate(-353.153 -758.951)" fill="#b57878"/>
      <rect id="Rectángulo_5562" data-name="Rectángulo 5562" width="269.723" height="53.21" transform="translate(5.352 34.102)" fill="#b57878"/>
      <rect id="Rectángulo_5563" data-name="Rectángulo 5563" width="269.388" height="17.067" transform="translate(5.352 18.707)" fill="#b57878"/>
      <rect id="Rectángulo_5564" data-name="Rectángulo 5564" width="269.723" height="2.906" transform="translate(5.352 34.102)" fill="#aa6868"/>
      <rect id="Rectángulo_5565" data-name="Rectángulo 5565" width="269.723" height="2.902" transform="translate(5.352 18.041)" fill="#aa6868"/>
      <rect id="Rectángulo_5566" data-name="Rectángulo 5566" width="43.167" height="10.374" rx="1.965" transform="translate(0 25.401)" fill="#b57878"/>
      <rect id="Rectángulo_5567" data-name="Rectángulo 5567" width="43.167" height="10.374" rx="1.965" transform="translate(236.928 25.401)" fill="#b57878"/>
      <rect id="Rectángulo_5568" data-name="Rectángulo 5568" width="264.704" height="4.686" transform="translate(9.368 82.626)" fill="#aa6868"/>
      <rect id="Rectángulo_5569" data-name="Rectángulo 5569" width="43.17" height="10.374" rx="1.965" transform="translate(1.672 80.618)" fill="#b57878"/>
      <rect id="Rectángulo_5570" data-name="Rectángulo 5570" width="43.169" height="10.374" rx="1.965" transform="translate(234.14 80.618)" fill="#b57878"/>
    </g>
    <g id="Grupo_70207" data-name="Grupo 70207" transform="translate(356.669 739.007)">
      <path id="Trazado_102573" data-name="Trazado 102573" d="M403.164,785.031a4.9,4.9,0,0,1,.421,3.793c-.176.891-.016,3.413-.862,3.685-1.447.46-2.078-1.872-2.318-2.794-.36-1.369-.39-2.839-2.029-3.253.875-1.194,4.471-3.229,4.9-.76Z" transform="translate(-313.143 -687.561)" fill="#ff8f67"/>
      <g id="Grupo_70202" data-name="Grupo 70202" transform="translate(71.839 99.479)">
        <path id="Trazado_102574" data-name="Trazado 102574" d="M410.615,789.162c0,1.872-1.807,3.4-4.016,3.4h-8.142c-2.209,0-4.016-1.531-4.016-3.4s1.807-3.4,4.016-3.4H406.6C408.809,785.761,410.615,787.29,410.615,789.162Z" transform="translate(-389.087 -785.761)" fill="#8e5757"/>
        <path id="Trazado_102575" data-name="Trazado 102575" d="M394.934,794.489h-2.675v-3.456a4.021,4.021,0,0,1,4.016-4.018h17.289a4.019,4.019,0,0,1,4.014,4.018v3.233H414.9v-3.233a1.341,1.341,0,0,0-1.339-1.341H396.275a1.343,1.343,0,0,0-1.341,1.341Z" transform="translate(-391.365 -784.451)" fill="#8e5757"/>
        <circle id="Elipse_4645" data-name="Elipse 4645" cx="2.343" cy="2.343" r="2.343" transform="translate(0 8.587)" fill="#8e5757"/>
        <path id="Trazado_102576" data-name="Trazado 102576" d="M402.848,792.307a2.342,2.342,0,1,1,2.342,2.342A2.343,2.343,0,0,1,402.848,792.307Z" transform="translate(-380.315 -781.376)" fill="#8e5757"/>
      </g>
      <path id="Trazado_102577" data-name="Trazado 102577" d="M380.639,753.229s12.045,3.346,9.033,30.284l-1.339,36.81-4.854,1.841-4.349-63.413Z" transform="translate(-333.227 -720.233)" fill="#4d3c4b"/>
      <path id="Trazado_102578" data-name="Trazado 102578" d="M394.524,785.089c1.3,2.291.535,4.96,2.381,6.989.4.443,2.219,2.984,2.463,3.057,2.136.642.9-2.424.883-3.057-.108-3.484,4.259-1.2,6.321-2.134,2.373-1.077-1.382-4.9-2.8-6.07-1.559-1.285-3.278-3.076-5.1-2.009-1.277.752-3.065,3.676-4.145,3.726Z" transform="translate(-317.163 -690.686)" fill="#ff8f67"/>
      <path id="Trazado_102579" data-name="Trazado 102579" d="M369.829,784.767c1.03.574.909,2.3,1.273,3.335a7.05,7.05,0,0,0,1.925,3.014c-.883.932-2.714.135-3.642-.456-.372,1.96-.656,4.774-1.815,6.5-2.1,3.119-2.217-.681-2.031-2.493.045,1.171-.67,3.777-1.592,4.418-1.03-.789-.48-3.5-.151-4.578-.033.764-.9,3.811-1.913,3.617-1.247-.237-.623-3.517-.309-4.251a3.574,3.574,0,0,1-.642,2.508c-.76-.717-.395-4.005-.327-5.134a22.435,22.435,0,0,1,1.236-6.172c.817-2.164,2.064-1.289,4.016-1.1,1.41.139,3.282-.139,4.288.954Z" transform="translate(-352.714 -688.497)" fill="#ff8f67"/>
      <g id="haed-3" data-name="haed" transform="translate(34.175)">
        <g id="Grupo_70206" data-name="Grupo 70206">
          <g id="Grupo_70203" data-name="Grupo 70203">
            <path id="Trazado_102580" data-name="Trazado 102580" d="M374.781,751.343c-.787-3.145-.879-7,1.13-9.738,3.16-4.314,11.279-5.179,15.076-1.4,2.51,2.5,3.208,5.473,3.112,8.978-.059,1.99.219,3.944,1.755,5.393.184.176.409.417.3.65s-.392.233-.623.294c-.738.184-1.077,1.03-1.189,1.78a30.866,30.866,0,0,1-.971,5.354,1.706,1.706,0,0,1-.687.967,2,2,0,0,1-1.218.123c-1.39-.155-2.765-.386-4.136-.678a.814.814,0,0,0-.239.147,2.043,2.043,0,0,0-.423,1.008q-.944,4.181-1.886,8.367a49.075,49.075,0,0,0-9.832-6.029,12.89,12.89,0,0,0,1.96-9.674A24.392,24.392,0,0,1,374.781,751.343Z" transform="translate(-372.486 -736.322)" fill="#ff8f67"/>
            <path id="Trazado_102581" data-name="Trazado 102581" d="M394.46,744.6a4.344,4.344,0,0,0,3.217-3,6.638,6.638,0,0,0-.347-4.514,5.6,5.6,0,0,1-4.944,1.952,1.2,1.2,0,0,0,1.426-.907,4.881,4.881,0,0,1-1.692.572c.192-.151.38-.307.57-.456-3.18.687-6.472-.8-9.7-.439a8.544,8.544,0,0,0-5.015,2.471,9.22,9.22,0,0,0-1.686,2.287c-.364.709-.407,1.782-.805,2.411-.421.66-1.206.963-1.6,1.733a5.2,5.2,0,0,0-.482,2.181,10.512,10.512,0,0,0,1,4.5c1.093,2.475,2.673,4.886,2.673,7.594.484-.672,1.954-.339,2.82-.76.235-.11,2.461-1.618,2.3-1.8a3.073,3.073,0,0,1,.2.255c.215-.147,1.692-1.6,1.43-1.9a.912.912,0,0,1,.192.762,5.249,5.249,0,0,0,1.892-1.995,1.489,1.489,0,0,0,.217-.693,1.872,1.872,0,0,0-.268-.805,5.4,5.4,0,0,1-.693-2.769,1.592,1.592,0,0,1,.309-.9,1.414,1.414,0,0,1,2.072.217,4.1,4.1,0,0,1,.682,2.242,7.448,7.448,0,0,1,2.73-4.862c1.424-1.055,2.27-2.164,1.659-4.038a1.735,1.735,0,0,0,2.209.905A3.552,3.552,0,0,0,396.667,743Z" transform="translate(-373.392 -737.083)" fill="#a86060"/>
            <path id="Trazado_102582" data-name="Trazado 102582" d="M384.566,753.4a.2.2,0,0,1-.067-.012c-.2-.069-4.839-1.745-5.982-5.542a.2.2,0,0,1,.135-.249.2.2,0,0,1,.249.133c1.085,3.6,5.685,5.264,5.732,5.281a.2.2,0,0,1-.068.39Z" transform="translate(-368.053 -726.125)" fill="#894c4c"/>
            <path id="Trazado_102583" data-name="Trazado 102583" d="M381.159,746.357a.2.2,0,0,1-.2-.151c-.129-.5-.609-1.821-1.271-1.935a.2.2,0,0,1,.072-.4c1.03.18,1.537,2.021,1.59,2.232a.2.2,0,0,1-.143.243A.155.155,0,0,1,381.159,746.357Z" transform="translate(-366.99 -729.998)" fill="#894c4c"/>
            <path id="Trazado_102584" data-name="Trazado 102584" d="M380.762,744.784h-1.034a.2.2,0,1,1,0-.4h1.034a.2.2,0,0,1,0,.4Z" transform="translate(-366.991 -729.467)" fill="#894c4c"/>
          </g>
          <g id="Grupo_70205" data-name="Grupo 70205" transform="translate(18.467 13.311)">
            <g id="Grupo_70204" data-name="Grupo 70204">
              <path id="Trazado_102585" data-name="Trazado 102585" d="M384.912,744.762a.479.479,0,0,1-.247.01,2.355,2.355,0,0,0-1.386.215.574.574,0,0,1-.552-1.008,3.59,3.59,0,0,1,2.144-.335.574.574,0,0,1,.46.666A.561.561,0,0,1,384.912,744.762Z" transform="translate(-382.429 -743.597)" fill="#a86060"/>
              <path id="Trazado_102586" data-name="Trazado 102586" d="M383.931,745.2c.016.472-.155.864-.378.868s-.419-.366-.431-.842.155-.864.378-.868S383.914,744.729,383.931,745.2Z" transform="translate(-381.707 -742.801)" fill="#a86060"/>
            </g>
          </g>
        </g>
        <path id="Trazado_102587" data-name="Trazado 102587" d="M383.16,748.2a.169.169,0,0,1-.1-.039.162.162,0,0,1-.02-.227,1.742,1.742,0,0,1,1.778-.456.16.16,0,0,1,.117.2.159.159,0,0,1-.2.117,1.434,1.434,0,0,0-1.451.351A.165.165,0,0,1,383.16,748.2Z" transform="translate(-363.367 -726.304)" fill="#894c4c"/>
      </g>
      <path id="Trazado_102588" data-name="Trazado 102588" d="M392.886,784.874l3.011,4.017,7.027-5.354-3.177-4.518Z" transform="translate(-318.872 -693.318)" fill="#7a8ecb"/>
      <path id="Trazado_102589" data-name="Trazado 102589" d="M360.955,781.479v5.352l8.534.67.5-6.191Z" transform="translate(-352.197 -690.925)" fill="#7a8ecb"/>
      <path id="Trazado_102590" data-name="Trazado 102590" d="M385.1,759.778l14.724,24.763,12.381,16.567-8.813,6.636-20.524-31.009Z" transform="translate(-329.325 -713.398)" fill="#4d3c4b"/>
      <path id="Trazado_102591" data-name="Trazado 102591" d="M393.068,842.985l20.279-5.737c1.424-.4,2.24-1.516,1.823-2.487s-1.948-1.655-3.427-1.672c-2.976-.033-7.784-.48-11.046-2.763l-11.544,4.854a21.915,21.915,0,0,0,.378,6.043A2.838,2.838,0,0,0,393.068,842.985Z" transform="translate(-322.835 -639.772)" fill="#4d3c4b"/>
      <path id="Trazado_102592" data-name="Trazado 102592" d="M359.161,839.087l20.422,5.205c1.435.366,2.7-.19,2.824-1.238s-.856-2.407-2.127-3.164c-2.557-1.521-6.493-4.322-8.172-7.929l-12.423-1.592a21.974,21.974,0,0,0-2.7,5.424A2.837,2.837,0,0,0,359.161,839.087Z" transform="translate(-356.435 -639.728)" fill="#4d3c4b"/>
      <path id="Trazado_102593" data-name="Trazado 102593" d="M389.021,789.253l-8.031,30.789s-23.874,44.841-24.321,54.881c0,0,3.125,4.461,18.072.668l17.624-46.85,13.835-32.8Z" transform="translate(-356.669 -682.638)" fill="#5b4f5a"/>
      <path id="Trazado_102594" data-name="Trazado 102594" d="M370.863,796.723l20.412,48.186L407,890.755s10.711-.333,15.4-6.358l-17.068-50.531-12.382-39.489,1.005-15.059Z" transform="translate(-341.856 -693.005)" fill="#5b4f5a"/>
      <path id="Trazado_102595" data-name="Trazado 102595" d="M376.662,752.9c0-.1,6.249,2.982,6.644,3.264a22.408,22.408,0,0,1,5.238,5.276,22.7,22.7,0,0,1,2.2,3.9,15.1,15.1,0,0,1,1.028,6.008q-.07,3.807-.143,7.619l-.294,15.409q-.055,2.992-.117,5.982c-.055,2.978-1.645,3.924-4.124,5.42q-2.437,1.465-4.872,2.937-3.114,1.876-6.227,3.756S376.662,752.956,376.662,752.9Z" transform="translate(-336.501 -720.575)" fill="#7a8ecb"/>
      <path id="Trazado_102596" data-name="Trazado 102596" d="M394.736,764.7a14.545,14.545,0,0,0-3.086-6.523c-2.722-3.38-7.073-6.155-11.579-5.436,0,0-13.608,2.9-11.375,25.88,0,0,4.1,30.781.482,46.68,2.332.449,19.98,3.127,25.394-17.9q.083-4.083.172-8.168.169-7.949.331-15.893c.041-2.011.147-4.03.112-6.043-.037-2.135-.051-4.283-.035-6.429A30.4,30.4,0,0,0,394.736,764.7Z" transform="translate(-344.375 -720.861)" fill="#4d3c4b"/>
      <path id="Trazado_102597" data-name="Trazado 102597" d="M384.3,754.866q-4.7,6.094-9.394,12.186c-3.421,4.435-7.559,8.4-10.261,13.353-2.107,3.873-2.213,7.741-2.565,12.019-.106,1.283-1.588,18.658-1.539,18.662l10.04,1,3.01-24.429,20.081-18.74S397.022,756.2,384.3,754.866Z" transform="translate(-352.625 -718.524)" fill="#4d3c4b"/>
      <path id="Trazado_102598" data-name="Trazado 102598" d="M369.834,775.621a.33.33,0,0,1-.239-.1.334.334,0,0,1,0-.474l12.94-12.717a.335.335,0,0,1,.468.48l-12.94,12.715A.322.322,0,0,1,369.834,775.621Z" transform="translate(-343.281 -710.834)" fill="#fff"/>
      <path id="Trazado_102599" data-name="Trazado 102599" d="M374.738,752.475s7.639,3.376,10.151,6.3l1.672-5.019-11.822-3.123Z" transform="translate(-337.812 -722.939)" fill="#7a8ecb"/>
      <path id="Trazado_102600" data-name="Trazado 102600" d="M389.038,762.405a21.063,21.063,0,0,0-2.352-4.032,17.031,17.031,0,0,0-7.592-5.728c-.243-.1-4.232-1.324-4.232-1.3-.006.58-.016,1.161-.025,1.739a6.678,6.678,0,0,1-.065,2.293c-.247.595-.946,1.036-1.281,1.627-.973,1.737,1.717,2.483,2.779,3q2.664,1.3,5.326,2.6,2.176,1.057,4.361,2.111c.807.391,1.588.838,2.383,1.261a2.26,2.26,0,0,1,1.087,1.655c.092.368.1,1,.4,1.242A14.487,14.487,0,0,0,389.038,762.405Z" transform="translate(-339.331 -722.199)" fill="#4d3c4b"/>
      <path id="Trazado_102601" data-name="Trazado 102601" d="M384.288,820.024a.331.331,0,0,1-.307-.206L371.6,790.536a.335.335,0,0,1,.617-.26L384.6,819.558a.334.334,0,0,1-.178.437A.327.327,0,0,1,384.288,820.024Z" transform="translate(-341.117 -681.783)" fill="#fff"/>
      <path id="Trazado_102602" data-name="Trazado 102602" d="M391.862,841.6a.338.338,0,0,1-.315-.221L382.4,816.614a.332.332,0,0,1,.2-.429.337.337,0,0,1,.429.2l9.149,24.762a.339.339,0,0,1-.315.452Z" transform="translate(-329.838 -654.553)" fill="#fff"/>
      <path id="Trazado_102603" data-name="Trazado 102603" d="M395.37,828.939a.336.336,0,0,1-.317-.231l-7.471-22.419a.334.334,0,0,1,.633-.213l7.474,22.421a.335.335,0,0,1-.213.423A.323.323,0,0,1,395.37,828.939Z" transform="translate(-324.426 -665.321)" fill="#fff"/>
    </g>
    <g id="Grupo_70218" data-name="Grupo 70218" transform="translate(580.214 737.454)">
      <path id="Trazado_102604" data-name="Trazado 102604" d="M512.127,780.083c.738,1.046,2.894,1.128,4.052,1.8,1.615.936,2.612,2,4.621,1.909.1,2.07-2.806,1.6-4.128,1.672-.043,1.206,1.976,3.28,2.779,4.2,1.02,1.173,2.442,2.091,3.2,3.433-1.49.856-3.817-1.1-4.98-1.937,1,1.044,2.593,2.158,2.969,3.625-1.289.278-3.589-1.453-4.6-2.172,1.02.807,2.712,1.864,2.763,3.346-1.355.3-3.274-1.388-4.067-2.264.795.49,1.825,1.159,1.886,2.1-2.5.143-5.354-3.521-6.625-5.365-1.508-2.193-2.311-4.858-3.537-7.157,1.559-.979,4.036-2.761,5.785-3.125Z" transform="translate(-423.894 -690.654)" fill="#ff8f67"/>
      <path id="Trazado_102605" data-name="Trazado 102605" d="M505.3,786.317l2.341,1.84,7.027-5.688-5.185-4.351Z" transform="translate(-425.099 -692.704)" fill="#7a8ecb"/>
      <g id="Grupo_70216" data-name="Grupo 70216">
        <path id="Trazado_102606" data-name="Trazado 102606" d="M479.126,783.748a4.891,4.891,0,0,0-.227,2.793c.231.713.885,1.11,1.263,1.749.464.783.435,1.651,1.079,2.379.464.529,2.228,1.271.785,1.668-.84.231-1.326-.623-2-.893a6.95,6.95,0,0,0-2.8-.227c-1.606.078-3.867.538-5.459.227a5.966,5.966,0,0,0-.764-.019c-.721-1.6-.235-3.143.233-4.663a30.469,30.469,0,0,0,1.33-6.233c1.134-.057,2.561,1.253,3.556,1.77a32.726,32.726,0,0,1,3.219,1.369c-.043.106-.129.092-.213.19Z" transform="translate(-461.279 -690.19)" fill="#ff8f67"/>
        <path id="Trazado_102607" data-name="Trazado 102607" d="M473.09,778.938l-2.178,4.181,8.368,3.516,2.674-5.692Z" transform="translate(-460.988 -691.849)" fill="#7a8ecb"/>
        <g id="Grupo_70208" data-name="Grupo 70208" transform="translate(0 101.033)">
          <path id="Trazado_102608" data-name="Trazado 102608" d="M484.848,789.162c0,1.872-1.8,3.4-4.014,3.4h-8.144c-2.207,0-4.016-1.531-4.016-3.4s1.809-3.4,4.016-3.4h8.144C483.044,785.761,484.848,787.29,484.848,789.162Z" transform="translate(-463.323 -785.761)" fill="#8e5757"/>
          <path id="Trazado_102609" data-name="Trazado 102609" d="M469.169,794.489h-2.677v-3.456a4.021,4.021,0,0,1,4.016-4.018H487.8a4.021,4.021,0,0,1,4.016,4.018v3.233h-2.677v-3.233a1.341,1.341,0,0,0-1.339-1.341H470.508a1.341,1.341,0,0,0-1.339,1.341Z" transform="translate(-465.601 -784.451)" fill="#8e5757"/>
          <path id="Trazado_102610" data-name="Trazado 102610" d="M466.056,792.307a2.342,2.342,0,1,1,2.344,2.342A2.343,2.343,0,0,1,466.056,792.307Z" transform="translate(-466.056 -781.376)" fill="#8e5757"/>
          <circle id="Elipse_4646" data-name="Elipse 4646" cx="2.343" cy="2.343" r="2.343" transform="translate(22.532 8.587)" fill="#8e5757"/>
        </g>
        <path id="Trazado_102611" data-name="Trazado 102611" d="M500.44,755.112s-17.068,22.756-20.078,28.948l-9.2,21.082,9.7,4.516,13.388-25.1L507.3,765.485Z" transform="translate(-460.731 -716.714)" fill="#4d3c4b"/>
        <g id="Grupo_70215" data-name="Grupo 70215" transform="translate(10.263)">
          <g id="Grupo_70214" data-name="Grupo 70214" transform="translate(0 3.044)">
            <path id="Trazado_102612" data-name="Trazado 102612" d="M495.045,753.229s12.045,3.346,9.035,30.284l-1.341,36.81-4.852,1.841-4.349-63.413Z" transform="translate(-447.637 -721.723)" fill="#4d3c4b"/>
            <g id="haed-4" data-name="haed" transform="translate(35.948)">
              <g id="Grupo_70212" data-name="Grupo 70212">
                <g id="Grupo_70209" data-name="Grupo 70209">
                  <path id="Trazado_102613" data-name="Trazado 102613" d="M489.184,751.343c-.781-3.145-.873-7,1.134-9.738,3.157-4.314,11.279-5.179,15.072-1.4,2.512,2.5,3.211,5.473,3.115,8.978-.059,1.99.219,3.944,1.755,5.393.186.176.411.417.3.65s-.39.233-.621.294c-.74.184-1.079,1.03-1.189,1.78a31.058,31.058,0,0,1-.973,5.354,1.684,1.684,0,0,1-.685.967,2,2,0,0,1-1.218.123c-1.392-.155-2.769-.386-4.138-.678a.789.789,0,0,0-.239.147,2.062,2.062,0,0,0-.423,1.008q-.947,4.181-1.888,8.367a49,49,0,0,0-9.83-6.029,12.9,12.9,0,0,0,1.96-9.674A24.706,24.706,0,0,1,489.184,751.343Z" transform="translate(-488.669 -737.812)" fill="#ff8f67"/>
                  <path id="Trazado_102614" data-name="Trazado 102614" d="M498.971,753.4a.183.183,0,0,1-.065-.012c-.2-.069-4.839-1.745-5.982-5.542a.2.2,0,0,1,.384-.116c1.085,3.6,5.685,5.264,5.73,5.281a.2.2,0,0,1-.068.39Z" transform="translate(-484.237 -727.615)" fill="#894c4c"/>
                </g>
                <g id="Grupo_70211" data-name="Grupo 70211" transform="translate(16.691 11.821)">
                  <g id="Grupo_70210" data-name="Grupo 70210">
                    <path id="Trazado_102615" data-name="Trazado 102615" d="M499.321,744.762a.488.488,0,0,1-.249.01,2.36,2.36,0,0,0-1.386.215.574.574,0,0,1-.55-1.008,3.581,3.581,0,0,1,2.144-.335.569.569,0,0,1,.456.666A.554.554,0,0,1,499.321,744.762Z" transform="translate(-496.836 -743.597)" fill="#a86060"/>
                    <path id="Trazado_102616" data-name="Trazado 102616" d="M498.336,745.2c.018.472-.153.864-.376.868s-.415-.366-.431-.842.155-.864.376-.868S498.321,744.729,498.336,745.2Z" transform="translate(-496.114 -742.801)" fill="#a86060"/>
                  </g>
                </g>
              </g>
              <path id="Trazado_102617" data-name="Trazado 102617" d="M497.566,748.2a.169.169,0,0,1-.1-.039.164.164,0,0,1-.02-.227,1.731,1.731,0,0,1,1.78-.456.161.161,0,1,1-.08.313,1.427,1.427,0,0,0-1.453.351A.165.165,0,0,1,497.566,748.2Z" transform="translate(-479.551 -727.795)" fill="#894c4c"/>
              <g id="Grupo_70213" data-name="Grupo 70213" transform="translate(8.153 13.566)">
                <path id="Trazado_102618" data-name="Trazado 102618" d="M493.855,745.625a.254.254,0,0,1-.055-.008l-1-.284a.2.2,0,0,1-.137-.249.2.2,0,0,1,.247-.137l1,.282a.2.2,0,0,1-.055.4Z" transform="translate(-492.658 -743.938)" fill="#894c4c"/>
                <path id="Trazado_102619" data-name="Trazado 102619" d="M493.8,747.25h-.006a.2.2,0,0,1-.2-.2c.012-.517-.086-1.921-.687-2.215a.2.2,0,0,1-.092-.268.2.2,0,0,1,.268-.092c.938.458.92,2.366.913,2.585A.2.2,0,0,1,493.8,747.25Z" transform="translate(-492.512 -744.45)" fill="#894c4c"/>
              </g>
            </g>
            <path id="Trazado_102620" data-name="Trazado 102620" d="M507.474,842.985l20.279-5.737c1.424-.4,2.24-1.516,1.825-2.487s-1.952-1.655-3.427-1.672c-2.975-.033-7.786-.48-11.046-2.763l-11.544,4.854a21.823,21.823,0,0,0,.378,6.043A2.836,2.836,0,0,0,507.474,842.985Z" transform="translate(-437.245 -641.262)" fill="#4d3c4b"/>
            <path id="Trazado_102621" data-name="Trazado 102621" d="M473.568,839.087l20.424,5.205c1.433.366,2.7-.19,2.822-1.238s-.854-2.407-2.123-3.164c-2.557-1.521-6.5-4.322-8.174-7.929l-12.423-1.592a21.942,21.942,0,0,0-2.7,5.424A2.837,2.837,0,0,0,473.568,839.087Z" transform="translate(-470.846 -641.218)" fill="#4d3c4b"/>
            <path id="Trazado_102622" data-name="Trazado 102622" d="M503.428,789.253,495.4,820.042s-23.874,44.841-24.319,54.881c0,0,3.121,4.461,18.068.668l17.626-46.85,13.831-32.8Z" transform="translate(-471.078 -684.128)" fill="#5b4f5a"/>
            <path id="Trazado_102623" data-name="Trazado 102623" d="M485.269,796.723l20.412,48.186,15.732,45.847s10.709-.333,15.393-6.358l-17.068-50.531-12.378-39.489,1-15.059Z" transform="translate(-456.268 -694.495)" fill="#5b4f5a"/>
            <path id="Trazado_102624" data-name="Trazado 102624" d="M491.07,752.9c0-.1,6.251,2.982,6.646,3.264a22.327,22.327,0,0,1,7.435,9.172,15.178,15.178,0,0,1,1.032,6.008q-.073,3.807-.147,7.619-.147,7.706-.292,15.409-.061,2.992-.114,5.982c-.059,2.978-1.651,3.924-4.126,5.42l-4.874,2.937q-3.118,1.876-6.229,3.756S491.07,752.956,491.07,752.9Z" transform="translate(-450.913 -722.065)" fill="#7a8ecb"/>
            <path id="Trazado_102625" data-name="Trazado 102625" d="M509.14,764.7a14.5,14.5,0,0,0-3.086-6.523c-2.72-3.38-7.069-6.155-11.575-5.436,0,0-13.611,2.9-11.375,25.88,0,0,4.1,30.781.48,46.68,2.334.449,19.98,3.127,25.4-17.9q.083-4.083.17-8.168.169-7.949.329-15.893c.045-2.011.151-4.03.112-6.043-.035-2.135-.047-4.283-.033-6.429A30.382,30.382,0,0,0,509.14,764.7Z" transform="translate(-458.786 -722.351)" fill="#4d3c4b"/>
            <path id="Trazado_102626" data-name="Trazado 102626" d="M489.144,752.475s7.643,3.376,10.153,6.3l1.674-5.019-11.826-3.123Z" transform="translate(-452.224 -724.429)" fill="#7a8ecb"/>
            <path id="Trazado_102627" data-name="Trazado 102627" d="M503.447,762.405a21.4,21.4,0,0,0-2.354-4.032,17.047,17.047,0,0,0-7.59-5.728c-.241-.1-4.234-1.324-4.234-1.3l-.023,1.739a6.678,6.678,0,0,1-.069,2.293c-.243.595-.944,1.036-1.279,1.627-.973,1.737,1.717,2.483,2.777,3l5.33,2.6q2.176,1.057,4.359,2.111c.809.391,1.588.838,2.385,1.261a2.263,2.263,0,0,1,1.085,1.655c.092.368.1,1,.4,1.242A14.631,14.631,0,0,0,503.447,762.405Z" transform="translate(-453.743 -723.689)" fill="#4d3c4b"/>
            <path id="Trazado_102628" data-name="Trazado 102628" d="M498.7,820.024a.334.334,0,0,1-.309-.206L486,790.536a.335.335,0,0,1,.617-.26L499,819.558a.339.339,0,0,1-.309.466Z" transform="translate(-455.528 -683.273)" fill="#fff"/>
          </g>
          <path id="Trazado_102629" data-name="Trazado 102629" d="M484.863,789.676a.337.337,0,0,1-.335-.337,73.942,73.942,0,0,0-.95-9.948c-1.136-8.134-2.309-16.545,2.352-23.316a.334.334,0,1,1,.55.38c-4.512,6.556-3.358,14.834-2.24,22.842a74.394,74.394,0,0,1,.958,10.042A.337.337,0,0,1,484.863,789.676Z" transform="translate(-459.099 -715.86)" fill="#fff"/>
          <path id="Trazado_102630" data-name="Trazado 102630" d="M510.116,741.3a11.66,11.66,0,0,0-5.418-4.222c-4.768-1.813-10.063-.182-13.833,3.168a12.616,12.616,0,0,0-3.513,12.673c.93,2.929,2.976,5.181,3.063,8.326a13.77,13.77,0,0,0,.047,1.42,5.753,5.753,0,0,0,1.124-3.266c.45,1.216.127,3.215.217,4.662a6.851,6.851,0,0,0,3.108-1.527,13.453,13.453,0,0,0,1.935-2.767,10.859,10.859,0,0,0,1.359-5.058c.067-.826,1.3-3.368,2.129-1.782.425.815-.4,3.159,1.373,2.879-.29-1.5-.407-2.029.409-3.307.419-.656,2.013-2.242,1.915-3.041.045.354.072,2.663-.425,2.757,3.3-.615,7.956-4.7,7.463-8.426A6.075,6.075,0,0,0,510.116,741.3Z" transform="translate(-454.62 -736.323)" fill="#a86060"/>
        </g>
      </g>
      <g id="Grupo_70217" data-name="Grupo 70217" transform="translate(42.405 38.102)">
        <path id="Trazado_102631" data-name="Trazado 102631" d="M501.305,792.153a50.907,50.907,0,0,0,8.172,7.9q7.5,6.247,15.014,12.486l8.031-9.145-22.312-19.633q-3.253-7.342-6.513-14.681c-1.8-4.065-2.8-8.9-5.986-12.194-3.253-3.364-9.517-2.228-10.6,2.755a14.878,14.878,0,0,0,.926,8.916c3.488,7.5,7.664,15.842,12.576,22.666C500.839,791.542,501.072,791.85,501.305,792.153Z" transform="translate(-486.806 -754.967)" fill="#4d3c4b"/>
        <path id="Trazado_102632" data-name="Trazado 102632" d="M510.68,792.634a.345.345,0,0,1-.2-.063c-14.632-10.645-21.575-27.2-21.642-27.362a.334.334,0,1,1,.617-.255c.069.164,6.944,16.547,21.417,27.074a.336.336,0,0,1-.2.607Z" transform="translate(-484.708 -744.762)" fill="#fff"/>
      </g>
      <path id="Trazado_102633" data-name="Trazado 102633" d="M482.463,838.435a.315.315,0,0,1-.115-.023.332.332,0,0,1-.2-.429l9.2-24.93a.334.334,0,1,1,.627.231l-9.2,24.93A.337.337,0,0,1,482.463,838.435Z" transform="translate(-449.282 -656.475)" fill="#fff"/>
      <path id="Trazado_102634" data-name="Trazado 102634" d="M478.536,822.625a.319.319,0,0,1-.149-.035.334.334,0,0,1-.151-.447l8.364-16.9a.334.334,0,1,1,.6.294l-8.362,16.9A.339.339,0,0,1,478.536,822.625Z" transform="translate(-453.381 -664.592)" fill="#fff"/>
    </g>
  </g>
</svg>
