<svg xmlns="http://www.w3.org/2000/svg" width="156.674" height="156.174" viewBox="0 0 156.674 156.174">
  <g id="Grupo_70358" data-name="Grupo 70358" transform="translate(-602.824 -2689.642)">
    <path id="Trazado_102807" data-name="Trazado 102807" d="M752.55,2767.727a71.374,71.374,0,0,0-69.243-71.333.549.549,0,0,0-.229-.052h-1.83l-.087,0h0l-.087,0h-1.83a.554.554,0,0,0-.23.052,71.364,71.364,0,0,0-53.232,116.374l0,0c.029.036.06.07.089.106.212.26.43.514.646.771q.687.816,1.4,1.61c.2.221.391.445.591.663q.929,1.016,1.9,1.989c.218.221.438.438.659.655q.916.906,1.864,1.778c.168.154.336.307.506.459q.948.854,1.928,1.671c.239.2.477.4.718.6q1.062.865,2.154,1.692c.24.181.484.356.726.533q.873.641,1.764,1.254c.259.179.516.361.778.536.436.293.88.576,1.323.859v.013c.127.081.257.155.384.234.175.111.352.219.528.328q.432.266.869.526c.185.111.369.225.556.334l.117.069c.3.174.6.339.9.508l.131.073v.011h0c.13.073.262.139.392.211.324.179.65.354.978.528l.024.013c.324.172.648.344.975.512l.177.093c.123.063.248.124.372.186.076.039.154.075.231.113l.25.123c.3.145.592.291.891.433.12.057.238.117.359.174.176.082.354.159.531.24.219.1.44.2.661.3.249.111.495.228.746.336l.025,0c.119.051.235.109.355.16v.005l.08.031c.116.049.234.091.35.14.091.038.18.081.272.119v-.012l.067.026c.412.17.827.334,1.243.5.317.123.632.251.95.369.29.108.58.212.871.316.119.043.236.092.355.134v-.014c.088.031.178.06.266.09.509.177,1.017.353,1.529.518s1.052.329,1.582.486c.107.032.214.066.321.1.385.112.772.217,1.158.323.572.156,1.144.308,1.72.45.133.033.263.072.4.1v-.012l.146.033c.446.107.892.212,1.339.31.118.025.236.056.355.081.385.082.771.158,1.159.233.283.056.567.107.85.159q.48.087.96.168c.24.041.479.087.72.125.3.047.6.088.893.131.253.037.507.071.761.106.489.066.978.124,1.468.18.2.023.406.053.609.074l.326.034c.057.006.113.009.169.014.454.045.908.079,1.363.115.274.022.548.047.822.065s.558.033.836.049c.115.006.229.017.344.023.136.006.273.006.409.012l.18.009c.205.008.41.022.614.029q2.407.081,4.815,0c.205-.007.41-.021.615-.029l.19-.009c.128-.006.256-.006.385-.012s.238-.017.358-.023c.279-.016.557-.03.835-.049.178-.012.356-.026.534-.04.1-.007.193-.017.29-.025.461-.036.921-.071,1.381-.117l.126-.01.348-.035c.206-.022.412-.052.618-.076.485-.055.97-.113,1.454-.178.258-.035.515-.07.772-.108.3-.043.593-.083.888-.129.236-.038.472-.084.708-.124q.492-.082.983-.172c.281-.051.561-.1.841-.157q.574-.111,1.147-.23c.126-.027.251-.059.377-.087.446-.1.889-.2,1.333-.308q1.3-.309,2.576-.665c.253-.07.507-.137.759-.21.134-.039.268-.08.4-.12q.849-.252,1.692-.523c.069-.023.139-.043.209-.066.251-.082.5-.174.75-.259q1.448-.492,2.866-1.042c.295-.114.591-.226.885-.345.125-.051.25-.1.374-.151.255-.1.515-.2.768-.308l.011,0h0c.124-.052.244-.113.368-.166l.029,0c.324-.141.643-.29.965-.435l.081-.037c.427-.193.854-.387,1.277-.589.279-.132.555-.269.832-.405l.261-.127q.469-.234.935-.473c.2-.1.392-.206.588-.309.119-.063.238-.124.356-.187.272-.145.544-.29.814-.439l.109-.062c.12-.066.241-.127.361-.194v-.009c.385-.216.771-.43,1.152-.653.194-.113.386-.233.579-.348q.406-.243.809-.49c.189-.116.378-.231.565-.349.123-.077.248-.149.37-.226h0l.013-.008v-.012c.455-.29.908-.581,1.356-.881.229-.153.453-.312.679-.468q.957-.657,1.89-1.344c.214-.157.429-.311.641-.47q1.124-.847,2.212-1.739c.217-.177.431-.356.645-.535.7-.583,1.385-1.175,2.059-1.783l.315-.286c.681-.622,1.347-1.262,2-1.911.2-.2.395-.389.59-.587q.995-1,1.951-2.047c.173-.188.339-.38.509-.571q.763-.852,1.5-1.731c.193-.229.387-.455.576-.687.038-.046.077-.09.115-.136l0,0a71.086,71.086,0,0,0,16.007-45.035Z" fill="#d4dae9"/>
    <g id="Grupo_70361" data-name="Grupo 70361">
      <g id="Grupo_70359" data-name="Grupo 70359">
        <path id="Trazado_102808" data-name="Trazado 102808" d="M727.561,2807.5h-92.8a1.6,1.6,0,1,1,0-3.2h92.8a1.6,1.6,0,1,1,0,3.2Z" fill="#6d6c6b"/>
        <path id="Trazado_102809" data-name="Trazado 102809" d="M690.761,2801.1h-16a1.6,1.6,0,1,1,0-3.2h16a1.6,1.6,0,1,1,0,3.2Z" fill="#6d6c6b"/>
        <path id="Trazado_102810" data-name="Trazado 102810" d="M668.361,2801.1h-3.2a1.6,1.6,0,1,1,0-3.2h3.2a1.6,1.6,0,1,1,0,3.2Z" fill="#6d6c6b"/>
        <path id="Trazado_102811" data-name="Trazado 102811" d="M685.961,2778.7h-19.2a1.6,1.6,0,1,1,0-3.2h19.2a1.6,1.6,0,1,1,0,3.2Z" fill="#6d6c6b"/>
        <path id="Trazado_102812" data-name="Trazado 102812" d="M660.361,2778.7h-3.2a1.6,1.6,0,1,1,0-3.2h3.2a1.6,1.6,0,1,1,0,3.2Z" fill="#6d6c6b"/>
      </g>
      <path id="Trazado_102813" data-name="Trazado 102813" d="M652.135,2783.109l2.4,4.869,5.372.78-3.887,3.789.917,5.351-4.8-2.527-4.8,2.527.919-5.351-3.888-3.789,5.373-.78Z" fill="#ffde55"/>
      <g id="Grupo_70360" data-name="Grupo 70360">
        <path id="Trazado_102814" data-name="Trazado 102814" d="M652.361,2746.067a15.84,15.84,0,0,0,0,22.4l.606.6a3.394,3.394,0,0,0,4.8-4.8l-.606-.6a9.05,9.05,0,0,1,0-12.8l28.8,28.8V2794.7a4.8,4.8,0,1,0,9.6,0v-19.831l-8-8,8-8,9.875,9.874a4.525,4.525,0,0,0,6.4-6.4l-16.275-16.274-12.8,12.8-12.8-12.8v-1.6a12.8,12.8,0,0,0,12.8-12.8v-.275a3.2,3.2,0,0,0-6.4,0,6.675,6.675,0,0,1-6.675,6.675,22.513,22.513,0,0,0-15.919,6.594Z" fill="#8791ae"/>
        <circle id="Elipse_4649" data-name="Elipse 4649" cx="8" cy="8" r="8" transform="translate(644.361 2726.867)" fill="#8791ae"/>
      </g>
      <path id="Trazado_102815" data-name="Trazado 102815" d="M717.087,2721.522l-.726-.424-.727.424a15.647,15.647,0,0,1-10.854,1.827v16.112a10.713,10.713,0,0,0,1.6,5.627,11.132,11.132,0,0,0,5.214,4.424l4.767,1.986,4.763-1.986a11.132,11.132,0,0,0,5.214-4.424,10.7,10.7,0,0,0,1.6-5.627v-16.112A15.645,15.645,0,0,1,717.087,2721.522Z" fill="#4091db"/>
      <path id="Trazado_102816" data-name="Trazado 102816" d="M717.087,2721.522l-.726-.424v30.4l4.763-1.986a11.132,11.132,0,0,0,5.214-4.424,10.7,10.7,0,0,0,1.6-5.627v-16.112a15.645,15.645,0,0,1-10.851-1.827Z" fill="#2273af"/>
    </g>
    <rect id="Rectángulo_5624" data-name="Rectángulo 5624" width="156.674" height="156.174" transform="translate(602.824 2689.642)" fill="none"/>
  </g>
</svg>
