<svg xmlns="http://www.w3.org/2000/svg" width="190.983" height="190.983" viewBox="0 0 190.983 190.983">
  <g id="Grupo_69626" data-name="Grupo 69626" transform="translate(-854.95 -132.452)">
    <rect id="Rectángulo_5409" data-name="Rectángulo 5409" width="190.983" height="190.983" transform="translate(854.95 132.452)" fill="none"/>
    <g id="Grupo_69711" data-name="Grupo 69711">
      <g id="Grupo_69635" data-name="Grupo 69635">
        <g id="Grupo_69634" data-name="Grupo 69634">
          <rect id="Rectángulo_5410" data-name="Rectángulo 5410" width="157.61" height="3.529" transform="translate(871.691 224.384)" fill="#aa6868"/>
          <g id="Grupo_69633" data-name="Grupo 69633">
            <g id="cascet">
              <rect id="Rectángulo_5411" data-name="Rectángulo 5411" width="154.316" height="30.443" transform="translate(873.379 235.314)" fill="#b57878"/>
              <rect id="Rectángulo_5412" data-name="Rectángulo 5412" width="154.125" height="9.765" transform="translate(873.379 226.507)" fill="#b57878"/>
              <rect id="Rectángulo_5413" data-name="Rectángulo 5413" width="154.316" height="1.662" transform="translate(873.379 235.314)" fill="#aa6868"/>
              <rect id="Rectángulo_5414" data-name="Rectángulo 5414" width="154.316" height="1.663" transform="translate(873.379 226.123)" fill="#aa6868"/>
              <path id="Rectángulo_5415" data-name="Rectángulo 5415" d="M2.3,0H22.4a2.3,2.3,0,0,1,2.3,2.3v1.34a2.3,2.3,0,0,1-2.3,2.3H2.3A2.3,2.3,0,0,1,0,3.639V2.3A2.3,2.3,0,0,1,2.3,0Z" transform="translate(870.316 230.335)" fill="#b57878"/>
              <path id="Rectángulo_5416" data-name="Rectángulo 5416" d="M2.3,0H22.4a2.3,2.3,0,0,1,2.3,2.3V3.638a2.3,2.3,0,0,1-2.3,2.3H2.3A2.3,2.3,0,0,1,0,3.639V2.3A2.3,2.3,0,0,1,2.3,0Z" transform="translate(1005.869 230.335)" fill="#b57878"/>
              <rect id="Rectángulo_5417" data-name="Rectángulo 5417" width="151.444" height="2.681" transform="translate(875.677 263.076)" fill="#aa6868"/>
              <path id="Rectángulo_5418" data-name="Rectángulo 5418" d="M2.3,0H22.4a2.3,2.3,0,0,1,2.3,2.3V3.638a2.3,2.3,0,0,1-2.3,2.3H2.3A2.3,2.3,0,0,1,0,3.637V2.3A2.3,2.3,0,0,1,2.3,0Z" transform="translate(871.273 261.927)" fill="#b57878"/>
              <path id="Rectángulo_5419" data-name="Rectángulo 5419" d="M2.3,0H22.4a2.3,2.3,0,0,1,2.3,2.3V3.639a2.3,2.3,0,0,1-2.3,2.3H2.3A2.3,2.3,0,0,1,0,3.638V2.3A2.3,2.3,0,0,1,2.3,0Z" transform="translate(1004.275 261.927)" fill="#b57878"/>
            </g>
            <g id="Grupo_69626-2" data-name="Grupo 69626">
              <path id="Trazado_101128" data-name="Trazado 101128" d="M948.648,224.616V186.647a.986.986,0,0,1,1-.972h75.786a.986.986,0,0,1,1,.972v37.969Z" fill="#b57878"/>
              <rect id="Rectángulo_5420" data-name="Rectángulo 5420" width="69.804" height="31.909" transform="translate(952.637 189.664)" fill="#f7eadc"/>
              <rect id="Rectángulo_5421" data-name="Rectángulo 5421" width="65.264" height="27.37" transform="translate(954.907 191.933)" fill="#fff"/>
            </g>
            <path id="Trazado_101129" data-name="Trazado 101129" d="M994.911,224.068s3.939-10.78,13.775-10.275c0,0,5.044-6.3,12.357-4.792,0,0,3.279,8.575-2.017,14.879Z" fill="#fff"/>
            <g id="Grupo_69632" data-name="Grupo 69632">
              <g id="Grupo_69627" data-name="Grupo 69627">
                <path id="Trazado_101130" data-name="Trazado 101130" d="M956.594,221.716,932.889,219.7s-30.55,3.978-36.344,2.088c0,0-1.867-2.727,3.477-10.4l30.358,0,34.433-.851Z" fill="#5b4f5a"/>
              </g>
              <path id="Trazado_101131" data-name="Trazado 101131" d="M995.716,214.456s-2.03-7.307-18.366-5.481l-22.325.813-1.116,2.944,38.458,2.638Z" fill="#4d3c4b"/>
              <g id="haed">
                <g id="Grupo_69631" data-name="Grupo 69631">
                  <g id="Grupo_69628" data-name="Grupo 69628">
                    <path id="Trazado_101132" data-name="Trazado 101132" d="M1006.617,221.091c1.908.475,4.243.53,5.9-.686,2.617-1.917,3.142-6.842.848-9.141a6.856,6.856,0,0,0-5.444-1.89,4.046,4.046,0,0,1-3.272-1.064c-.106-.112-.252-.249-.4-.184s-.143.239-.177.378c-.112.448-.624.653-1.08.722a18.843,18.843,0,0,0-3.247.588,1.044,1.044,0,0,0-.587.416,1.209,1.209,0,0,0-.074.738,25.346,25.346,0,0,0,.412,2.51.57.57,0,0,1-.09.146,1.232,1.232,0,0,1-.61.256q-2.537.573-5.074,1.144a29.8,29.8,0,0,1,3.655,5.962,7.832,7.832,0,0,1,5.867-1.19A14.772,14.772,0,0,0,1006.617,221.091Z" fill="#ff8f67"/>
                    <path id="Trazado_101133" data-name="Trazado 101133" d="M1009.131,211.831a3.354,3.354,0,0,1,.82-.839c.215-.142.644-.169.792-.359.19-.246-.038-.7-.043-.972a1.2,1.2,0,0,1,.1.093.884.884,0,0,1-.175-.517c.088.1.167.211.251.317-.226-.475-.614-.986-.514-1.543,1,.908,2.471.228,3.537,1.023.932.7.9,1.47,1,2.517.056.556.036,1.117.109,1.677a14.475,14.475,0,0,1,.276,3.434,5.188,5.188,0,0,1-1.5,3.043,5.507,5.507,0,0,1-1.386,1.022c-.43.22-1.081.247-1.462.489-.4.256-.584.732-1.05.97a3.142,3.142,0,0,1-1.324.294,6.347,6.347,0,0,1-2.726-.608c-1.5-.663-2.963-1.62-4.6-1.62.406-.3.2-1.186.458-1.713.068-.141.982-1.49,1.1-1.394-.05-.041-.1-.082-.155-.121.086-.13.968-1.025,1.153-.865a.548.548,0,0,0-.461-.118,3.178,3.178,0,0,1,1.21-1.148.9.9,0,0,1,.42-.131,1.125,1.125,0,0,1,.486.164,3.285,3.285,0,0,0,1.681.419.967.967,0,0,0,.548-.187.86.86,0,0,0-.13-1.257,2.494,2.494,0,0,0-1.363-.413A4.534,4.534,0,0,0,1009.131,211.831Z" fill="#a86060"/>
                    <path id="Trazado_101134" data-name="Trazado 101134" d="M1002.591,216.144a.112.112,0,0,1-.035-.006,5.322,5.322,0,0,1-2.879-2.606.122.122,0,0,1,.046-.166.121.121,0,0,1,.166.046,5.091,5.091,0,0,0,2.737,2.493.122.122,0,0,1-.035.239Z" fill="#894c4c"/>
                    <path id="Trazado_101135" data-name="Trazado 101135" d="M1007.192,214.881a.121.121,0,0,1-.119-.1c-.072-.4-.873-.693-1.176-.771a.123.123,0,0,1-.088-.148.124.124,0,0,1,.149-.088c.127.033,1.244.338,1.354.965a.121.121,0,0,1-.1.141Z" fill="#894c4c"/>
                    <path id="Trazado_101136" data-name="Trazado 101136" d="M1006.559,214.88a.121.121,0,0,1-.122-.121v-.629a.122.122,0,0,1,.244,0v.629A.122.122,0,0,1,1006.559,214.88Z" fill="#894c4c"/>
                  </g>
                  <g id="Grupo_69630" data-name="Grupo 69630">
                    <g id="Grupo_69629" data-name="Grupo 69629">
                      <path id="Trazado_101137" data-name="Trazado 101137" d="M1006.946,209.776a.313.313,0,0,0-.005.149,1.427,1.427,0,0,1-.13.842.348.348,0,1,0,.61.333,2.154,2.154,0,0,0,.2-1.3.348.348,0,0,0-.678-.025Z" fill="#a86060"/>
                    </g>
                  </g>
                </g>
              </g>
              <path id="Trazado_101138" data-name="Trazado 101138" d="M957.355,223.9l-24.466-.587s-30.122,1.577-35.916-.313c0,0-2.3-.325,3.049-8l30.358,0,34.433-.851Z" fill="#5b4f5a"/>
              <path id="Trazado_101139" data-name="Trazado 101139" d="M996.121,218.852c.059,0-1.807-3.789-1.981-4.029a13.609,13.609,0,0,0-3.2-3.178,13.9,13.9,0,0,0-2.363-1.334,9.2,9.2,0,0,0-3.643-.623l-4.622.088-9.344.177-3.629.072c-1.8.034-2.379,1-3.285,2.5-.593.988-1.189,1.971-1.78,2.958q-1.141,1.889-2.279,3.777Z" fill="#7a8ecb"/>
              <path id="Trazado_101140" data-name="Trazado 101140" d="M989.139,212.667a8.822,8.822,0,0,1,3.957,1.871c1.906,1.536,4.788,5.533,2.938,8.075-1.155,1.589-4.309,1.582-6.041,1.63-4.417.121-8.752-.687-13.144-.889a134.781,134.781,0,0,0-14.194.346,101.363,101.363,0,0,1-10.471.071c-1.029-6.106,6.174-9.748,11.06-11.007q2.477-.048,4.956-.1l9.636-.2c1.22-.026,2.446-.09,3.663-.069,1.3.023,2.6.032,3.9.021A18.442,18.442,0,0,1,989.139,212.667Z" fill="#4d3c4b"/>
              <path id="Trazado_101141" data-name="Trazado 101141" d="M997.814,220.815s-2.048-4.635-3.823-6.157l3.044-1.014,1.894,7.171Z" fill="#f7eadc"/>
              <path id="Trazado_101142" data-name="Trazado 101142" d="M991.343,213.063a12.872,12.872,0,0,1,2.446,1.426,10.335,10.335,0,0,1,3.474,4.6c.061.147.8,2.567.786,2.567l-1.053.015a4.05,4.05,0,0,0-1.391.041c-.36.149-.628.573-.986.775-1.053.591-1.505-1.04-1.82-1.684q-.786-1.616-1.575-3.231-.642-1.32-1.28-2.645c-.237-.49-.509-.962-.764-1.444a1.373,1.373,0,0,0-1-.66c-.224-.056-.609-.063-.754-.244A8.8,8.8,0,0,1,991.343,213.063Z" fill="#4d3c4b"/>
              <path id="Trazado_101143" data-name="Trazado 101143" d="M1006.238,210.865a.1.1,0,0,1-.071-.03,1,1,0,0,1-.094-1.092.1.1,0,0,1,.134-.045.1.1,0,0,1,.045.134c0,.005-.261.542.057.862a.1.1,0,0,1,0,.142A.1.1,0,0,1,1006.238,210.865Z" fill="#894c4c"/>
              <path id="Trazado_101144" data-name="Trazado 101144" d="M1002.339,210.714a.1.1,0,0,1-.093-.062,1.438,1.438,0,0,1-.062-1.224.1.1,0,0,1,.137-.037.1.1,0,0,1,.038.137h0a1.274,1.274,0,0,0,.073,1.048.1.1,0,0,1-.056.131A.1.1,0,0,1,1002.339,210.714Z" fill="#894c4c"/>
            </g>
            <path id="Trazado_101145" data-name="Trazado 101145" d="M898.533,206.341a4.129,4.129,0,0,1,1.918-.609l52,.18-.19,18.6H873.205Z" fill="#b57878"/>
          </g>
        </g>
        <rect id="Rectángulo_5422" data-name="Rectángulo 5422" width="74.328" height="2.836" transform="translate(951.492 221.438)" fill="#b57878"/>
      </g>
      <g id="Grupo_69660" data-name="Grupo 69660">
        <g id="Grupo_69639" data-name="Grupo 69639">
          <g id="Grupo_69636" data-name="Grupo 69636">
            <path id="Trazado_101146" data-name="Trazado 101146" d="M906.257,237.859a9.943,9.943,0,0,0,1.337-.025c.717-.137,1.931-1.26,2.551-1.149.981.225-1.419,1.126-1.829,1.194a4.082,4.082,0,0,1-2.111-.019Z" fill="#81c9b1"/>
            <path id="Trazado_101147" data-name="Trazado 101147" d="M906.612,238.023c.763.331,1.594,1.949,2.266,1.865.035-1.3-1.5-1.638-2.164-1.81Z" fill="#81c9b1"/>
            <path id="Trazado_101148" data-name="Trazado 101148" d="M908.364,238.381c1.286.027,2.454-.768,3.742-.69-.27,1.342-3.123.831-3.8.639Z" fill="#81c9b1"/>
            <path id="Trazado_101149" data-name="Trazado 101149" d="M908.729,238.467c1.026.1.322,1.711,1.659,2.166.337-.886-.845-2.048-1.718-2.122Z" fill="#81c9b1"/>
            <path id="Trazado_101150" data-name="Trazado 101150" d="M913.188,240.025c.822.042,2.85.661,2.906,1.593-.941.259-1.995-1.289-2.906-1.593Z" fill="#81c9b1"/>
            <path id="Trazado_101151" data-name="Trazado 101151" d="M912.506,239.647v0c.562.311,2.076.438,2.433-.25C914.454,238.94,913.245,239.686,912.506,239.647Z" fill="#81c9b1"/>
            <path id="Trazado_101152" data-name="Trazado 101152" d="M910.734,239.09l0,.005c.775.3,2.835.29,3.28-.519C913.34,238.1,911.739,239.061,910.734,239.09Z" fill="#81c9b1"/>
            <path id="Trazado_101153" data-name="Trazado 101153" d="M912.566,241.2c.713-.567-1.3-1.823-2.341-2.291a5.12,5.12,0,0,1,.714.625C911.2,239.734,912.312,241.358,912.566,241.2Z" fill="#81c9b1"/>
            <path id="Trazado_101154" data-name="Trazado 101154" d="M914.13,240.488a.071.071,0,0,1-.034-.008,28.634,28.634,0,0,0-9.027-2.586.076.076,0,0,1-.071-.083.082.082,0,0,1,.084-.071,28.715,28.715,0,0,1,9.082,2.6.078.078,0,0,1,.035.1A.08.08,0,0,1,914.13,240.488Z" fill="#81c9b1"/>
          </g>
          <path id="Trazado_101155" data-name="Trazado 101155" d="M905.229,238.7a3.821,3.821,0,0,0,.538,1.756c.649.786,1.958.122,1.208-.682,1.9-.149-.244-1.654-1.121-1.7.48-.077,1.4-.287,1.68-.708.474-.649-.083-1.054-.759-.752.093-.557.163-2.21-.775-1.276a4.547,4.547,0,0,0-.592,1.984c-.16-.6-.319-1.824-1.061-2.053-.7-.168-.77.55-.5,1.115-1.425-.5-.634.986.143,1.324-.55-.144-1.367-.228-1.622.354-.236.481.253,1.29.7.793-.331,1.039.556,1.344.987.322-.06.355-.523.953-.431,1.333.134.44.624.626.869.094.43,1.164,1.35.642,1.064-.447a7.454,7.454,0,0,1-.413-1.578Z" fill="#f96767"/>
          <g id="Grupo_69637" data-name="Grupo 69637">
            <path id="Trazado_101156" data-name="Trazado 101156" d="M903.646,238.329c-1.974-.471-3.911,2.14-5.2,3.249,1.659-1.378,4.082-1.135,5.243-3.229Z" fill="#81c9b1"/>
            <path id="Trazado_101157" data-name="Trazado 101157" d="M903.274,238.745c-2.014.691-3.447-1.163-5.084-2.211a5.222,5.222,0,0,1,4.074.206c.589.337,2.076,1.746.752,2.1Z" fill="#81c9b1"/>
          </g>
          <g id="Grupo_69638" data-name="Grupo 69638">
            <path id="Trazado_101158" data-name="Trazado 101158" d="M897.059,239.607l-.111-.138a5.589,5.589,0,0,1,3.927-1.078,13.633,13.633,0,0,0,1.827-.1,4.17,4.17,0,0,0,2.529-1.124l.13.12a4.424,4.424,0,0,1-2.632,1.179,13.9,13.9,0,0,1-1.853.1A5.447,5.447,0,0,0,897.059,239.607Z" fill="#81c9b1"/>
            <path id="Trazado_101159" data-name="Trazado 101159" d="M896.592,241.478l-.025-.174a4.386,4.386,0,0,0,3.118-1.938l.147-.162a4.082,4.082,0,0,1,.863-.8l.085.155a4.059,4.059,0,0,0-.816.762c-.052.057-.1.113-.146.164A4.53,4.53,0,0,1,896.592,241.478Z" fill="#81c9b1"/>
            <path id="Trazado_101160" data-name="Trazado 101160" d="M895.082,241.762c.587.535,2,.246,2.186-.519l-.062.036c.012-.15-.18-.3-.527-.334A1.878,1.878,0,0,0,895.082,241.762Z" fill="#81c9b1"/>
            <path id="Trazado_101161" data-name="Trazado 101161" d="M895.9,239.978c.5.3,1.478-.1,1.5-.679l-.039.035c-.012-.111-.171-.192-.427-.168A1.38,1.38,0,0,0,895.9,239.978Z" fill="#81c9b1"/>
          </g>
        </g>
        <g id="Grupo_69643" data-name="Grupo 69643">
          <g id="Grupo_69640" data-name="Grupo 69640">
            <path id="Trazado_101162" data-name="Trazado 101162" d="M893.221,244.833a9.929,9.929,0,0,0,.645-1.172c.241-.69-.123-2.3.282-2.781.685-.74.265,1.789.119,2.18-.244.57-.556,1.514-1.072,1.818Z" fill="#81c9b1"/>
            <path id="Trazado_101163" data-name="Trazado 101163" d="M893.541,244.606c.667-.5,2.485-.4,2.746-1.028-1.106-.68-2.166.479-2.648.968Z" fill="#81c9b1"/>
            <path id="Trazado_101164" data-name="Trazado 101164" d="M894.726,243.269c.666-1.1.562-2.51,1.274-3.587,1.027.9-.84,3.121-1.345,3.608Z" fill="#81c9b1"/>
            <path id="Trazado_101165" data-name="Trazado 101165" d="M894.984,243c.6-.839,1.642.576,2.7-.355-.6-.736-2.2-.291-2.7.428Z" fill="#81c9b1"/>
            <path id="Trazado_101166" data-name="Trazado 101166" d="M898.561,239.912c.448-.69,2-2.137,2.831-1.72-.244.946-2.112,1.084-2.831,1.72Z" fill="#81c9b1"/>
            <path id="Trazado_101167" data-name="Trazado 101167" d="M897.892,240.314l.006,0c.549-.332,1.417-1.579,1-2.231C898.254,238.273,898.295,239.694,897.892,240.314Z" fill="#81c9b1"/>
            <path id="Trazado_101168" data-name="Trazado 101168" d="M896.526,241.57l0,0c.644-.524,1.67-2.31,1.19-3.1C896.973,238.82,897,240.686,896.526,241.57Z" fill="#81c9b1"/>
            <path id="Trazado_101169" data-name="Trazado 101169" d="M899.267,241.039c-.133-.9-2.23.217-3.152.881a4.95,4.95,0,0,1,.9-.306C897.316,241.487,899.277,241.338,899.267,241.039Z" fill="#81c9b1"/>
            <path id="Trazado_101170" data-name="Trazado 101170" d="M892.593,245.912a.083.083,0,0,1-.043-.015.075.075,0,0,1-.018-.106,28.669,28.669,0,0,1,6.792-6.564.078.078,0,0,1,.109.021.079.079,0,0,1-.023.107,28.593,28.593,0,0,0-6.753,6.524A.075.075,0,0,1,892.593,245.912Z" fill="#81c9b1"/>
          </g>
          <path id="Trazado_101171" data-name="Trazado 101171" d="M893.434,246.143a3.83,3.83,0,0,0,1.789.411c1.006-.169,1.083-1.637.012-1.386.82-1.721-1.554-.618-2.03.121a2.874,2.874,0,0,0,.229-1.809c-.327-.734-.956-.454-1.031.282-.435-.36-1.834-1.247-1.493.033.121.5,1.025,1.178,1.421,1.5-.6-.16-1.738-.634-2.307-.106-.5.523.089.939.715.99-1.147.984.538,1.041,1.218.539-.4.4-.881,1.068-.5,1.579.3.445,1.244.428,1.037-.208.733.8,1.44.188.772-.693.278.227.564.929.939,1.039.446.1.853-.23.515-.706,1.224.21,1.232-.847.145-1.144a7.447,7.447,0,0,1-1.572-.434Z" fill="#f96767"/>
          <g id="Grupo_69641" data-name="Grupo 69641">
            <path id="Trazado_101172" data-name="Trazado 101172" d="M892.323,247.329c-1.4,1.473-.1,4.457.211,6.129-.363-2.125,1.057-4.1-.176-6.155Z" fill="#81c9b1"/>
            <path id="Trazado_101173" data-name="Trazado 101173" d="M892.5,247.858c-.41,2.09-2.73,2.4-4.456,3.3a5.217,5.217,0,0,1,2.215-3.425c.587-.341,2.549-.925,2.2.4Z" fill="#81c9b1"/>
          </g>
          <g id="Grupo_69642" data-name="Grupo 69642">
            <path id="Trazado_101174" data-name="Trazado 101174" d="M889.96,253.7a5.6,5.6,0,0,1,1.03-3.939,13.427,13.427,0,0,0,.829-1.631,4.165,4.165,0,0,0,.292-2.752l.168-.052a4.419,4.419,0,0,1-.294,2.868,13.463,13.463,0,0,1-.842,1.655,5.46,5.46,0,0,0-1.009,3.826Z" fill="#81c9b1"/>
            <path id="Trazado_101175" data-name="Trazado 101175" d="M891.522,255.012l-.163-.065a4.391,4.391,0,0,0-.12-3.67c-.022-.068-.043-.139-.068-.211a4.154,4.154,0,0,1-.261-1.145l.178,0a3.914,3.914,0,0,0,.252,1.087c.023.073.047.144.068.21A4.527,4.527,0,0,1,891.522,255.012Z" fill="#81c9b1"/>
            <path id="Trazado_101176" data-name="Trazado 101176" d="M891.014,256.46c.755-.24,1.215-1.61.643-2.15v.07c-.123-.085-.35.007-.553.29A1.878,1.878,0,0,0,891.014,256.46Z" fill="#81c9b1"/>
            <path id="Trazado_101177" data-name="Trazado 101177" d="M889.876,254.864c.511-.281.651-1.333.164-1.642l.009.051c-.1-.044-.251.054-.358.286A1.385,1.385,0,0,0,889.876,254.864Z" fill="#81c9b1"/>
          </g>
        </g>
        <g id="Grupo_69647" data-name="Grupo 69647">
          <g id="Grupo_69644" data-name="Grupo 69644">
            <path id="Trazado_101178" data-name="Trazado 101178" d="M892.742,259.61a9.847,9.847,0,0,0-.692-1.146c-.478-.554-2.056-1.042-2.268-1.635-.3-.963,1.683.666,1.948.988.37.5,1.032,1.237,1.037,1.836Z" fill="#81c9b1"/>
            <path id="Trazado_101179" data-name="Trazado 101179" d="M892.705,259.219c-.1-.827.891-2.355.483-2.894-1.142.617-.668,2.116-.486,2.777Z" fill="#81c9b1"/>
            <path id="Trazado_101180" data-name="Trazado 101180" d="M892.14,257.524c-.62-1.128-1.892-1.743-2.469-2.9,1.3-.437,2.283,2.288,2.452,2.966Z" fill="#81c9b1"/>
            <path id="Trazado_101181" data-name="Trazado 101181" d="M892.031,257.163c-.427-.936,1.322-1.134,1.046-2.52-.936.152-1.349,1.757-.978,2.55Z" fill="#81c9b1"/>
            <path id="Trazado_101182" data-name="Trazado 101182" d="M891.151,252.523c-.373-.734-.852-2.8-.074-3.312.7.685-.118,2.371.074,3.312Z" fill="#81c9b1"/>
            <path id="Trazado_101183" data-name="Trazado 101183" d="M891.164,253.3l.005,0c-.012-.642-.66-2.017-1.433-1.981C889.579,251.968,890.828,252.643,891.164,253.3Z" fill="#81c9b1"/>
            <path id="Trazado_101184" data-name="Trazado 101184" d="M891.568,255.116l.006-.006c-.133-.818-1.166-2.6-2.091-2.58C889.411,253.353,891.043,254.261,891.568,255.116Z" fill="#81c9b1"/>
            <path id="Trazado_101185" data-name="Trazado 101185" d="M892.479,252.475c-.847-.333-.927,2.041-.813,3.171a4.976,4.976,0,0,1,.185-.928C891.893,254.391,892.744,252.616,892.479,252.475Z" fill="#81c9b1"/>
            <path id="Trazado_101186" data-name="Trazado 101186" d="M893.3,260.729a.078.078,0,0,1-.071-.043,28.724,28.724,0,0,1-2.288-9.167.077.077,0,0,1,.154-.01,28.566,28.566,0,0,0,2.273,9.111.076.076,0,0,1-.068.109Z" fill="#81c9b1"/>
          </g>
          <path id="Trazado_101187" data-name="Trazado 101187" d="M893.982,260.078c.41-.371,1.076-.783,1.251-1.342.356-.955-.875-1.756-1.194-.7-1.08-1.571-1.311,1.037-.909,1.819-.306-.379-.949-1.071-1.453-1.1-.8-.084-.872.6-.271,1.035-.53.2-2,.963-.717,1.308a4.546,4.546,0,0,0,2.013-.479c-.44.438-1.421,1.188-1.246,1.945.2.691.859.392,1.213-.123.28,1.484,1.171.054,1.077-.787.15.547.485,1.3,1.115,1.228.535-.036.993-.863.338-1,1.064-.234.886-1.152-.215-1.015.337-.127,1.087-.023,1.37-.292.313-.337.23-.853-.354-.8.795-.955-.117-1.492-.918-.7-.408.371-.745.936-1.16,1.146Z" fill="#f96767"/>
          <g id="Grupo_69645" data-name="Grupo 69645">
            <path id="Trazado_101188" data-name="Trazado 101188" d="M894.454,261.635c.578,1.945,3.808,2.318,5.415,2.882-2.023-.749-3.024-2.968-5.419-2.927Z" fill="#81c9b1"/>
            <path id="Trazado_101189" data-name="Trazado 101189" d="M895,261.748c1.607,1.4.717,3.568.629,5.509a5.223,5.223,0,0,1-1.859-3.631c0-.679.473-2.671,1.448-1.7Z" fill="#81c9b1"/>
          </g>
          <g id="Grupo_69646" data-name="Grupo 69646">
            <path id="Trazado_101190" data-name="Trazado 101190" d="M898.791,266.865a5.582,5.582,0,0,1-2.9-2.862,13.089,13.089,0,0,0-1-1.532,4.155,4.155,0,0,0-2.238-1.629l.04-.172a4.413,4.413,0,0,1,2.336,1.69,13.385,13.385,0,0,1,1.013,1.555,5.444,5.444,0,0,0,2.809,2.786Z" fill="#81c9b1"/>
            <path id="Trazado_101191" data-name="Trazado 101191" d="M900.571,266.279a4.387,4.387,0,0,0-3.239-1.731l-.212-.047a4.11,4.11,0,0,1-1.126-.347l.091-.152a4.016,4.016,0,0,0,1.072.326l.209.046a4.539,4.539,0,0,1,3.343,1.794Z" fill="#81c9b1"/>
            <path id="Trazado_101192" data-name="Trazado 101192" d="M901.708,267.335c.17-.774-.786-1.858-1.54-1.633l.06.034c-.135.066-.17.309-.026.625A1.884,1.884,0,0,0,901.708,267.335Z" fill="#81c9b1"/>
            <path id="Trazado_101193" data-name="Trazado 101193" d="M899.755,267.52c.014-.582-.827-1.23-1.339-.962l.05.016c-.088.068-.08.247.068.455A1.384,1.384,0,0,0,899.755,267.52Z" fill="#81c9b1"/>
          </g>
        </g>
        <g id="Grupo_69651" data-name="Grupo 69651">
          <g id="Grupo_69648" data-name="Grupo 69648">
            <path id="Trazado_101194" data-name="Trazado 101194" d="M905.3,267.412a9.773,9.773,0,0,0-1.337.027c-.717.137-1.932,1.257-2.551,1.146-.981-.224,1.42-1.126,1.829-1.193a4.092,4.092,0,0,1,2.111.019Z" fill="#81c9b1"/>
            <path id="Trazado_101195" data-name="Trazado 101195" d="M904.942,267.247c-.763-.329-1.593-1.948-2.264-1.864-.036,1.3,1.5,1.637,2.162,1.811Z" fill="#81c9b1"/>
            <path id="Trazado_101196" data-name="Trazado 101196" d="M903.192,266.889c-1.286-.025-2.455.769-3.742.691.269-1.343,3.123-.831,3.794-.639Z" fill="#81c9b1"/>
            <path id="Trazado_101197" data-name="Trazado 101197" d="M902.827,266.8c-1.026-.1-.323-1.711-1.66-2.165-.337.886.845,2.046,1.719,2.12Z" fill="#81c9b1"/>
            <path id="Trazado_101198" data-name="Trazado 101198" d="M898.367,265.245c-.821-.041-2.85-.661-2.906-1.592.941-.259,1.995,1.288,2.906,1.592Z" fill="#81c9b1"/>
            <path id="Trazado_101199" data-name="Trazado 101199" d="M899.049,265.625v-.005c-.562-.311-2.076-.439-2.432.249C897.1,266.331,898.309,265.587,899.049,265.625Z" fill="#81c9b1"/>
            <path id="Trazado_101200" data-name="Trazado 101200" d="M900.821,266.182l0-.007c-.774-.295-2.834-.289-3.279.52C898.215,267.169,899.818,266.209,900.821,266.182Z" fill="#81c9b1"/>
            <path id="Trazado_101201" data-name="Trazado 101201" d="M898.99,264.073c-.714.567,1.3,1.823,2.34,2.289a5,5,0,0,1-.714-.624C900.355,265.538,899.243,263.914,898.99,264.073Z" fill="#81c9b1"/>
            <path id="Trazado_101202" data-name="Trazado 101202" d="M906.48,267.53h-.007a28.746,28.746,0,0,1-9.082-2.6.075.075,0,0,1-.034-.1.074.074,0,0,1,.1-.033,28.673,28.673,0,0,0,9.027,2.585.077.077,0,0,1-.007.153Z" fill="#81c9b1"/>
          </g>
          <path id="Trazado_101203" data-name="Trazado 101203" d="M906.327,266.573a3.826,3.826,0,0,0-.539-1.756c-.649-.786-1.957-.121-1.208.682-1.9.15.243,1.654,1.121,1.7-.48.076-1.4.286-1.679.707-.474.65.083,1.054.758.752-.093.556-.162,2.212.775,1.275a4.559,4.559,0,0,0,.594-1.982c.158.6.317,1.822,1.059,2.051.7.169.77-.547.5-1.114,1.424.5.632-.986-.142-1.323.548.142,1.366.227,1.619-.355.238-.481-.251-1.291-.7-.794.33-1.039-.556-1.341-.986-.32.059-.356.523-.954.43-1.333-.133-.44-.623-.626-.868-.1-.43-1.163-1.35-.641-1.064.447a7.378,7.378,0,0,1,.412,1.577Z" fill="#f96767"/>
          <g id="Grupo_69649" data-name="Grupo 69649">
            <path id="Trazado_101204" data-name="Trazado 101204" d="M907.91,266.942c1.974.472,3.91-2.139,5.2-3.249-1.658,1.376-4.081,1.137-5.242,3.231Z" fill="#81c9b1"/>
            <path id="Trazado_101205" data-name="Trazado 101205" d="M908.281,266.528c2.015-.691,3.448,1.161,5.084,2.209a5.222,5.222,0,0,1-4.074-.206c-.589-.338-2.076-1.747-.751-2.106Z" fill="#81c9b1"/>
          </g>
          <g id="Grupo_69650" data-name="Grupo 69650">
            <path id="Trazado_101206" data-name="Trazado 101206" d="M906.325,268.1l-.13-.12a4.408,4.408,0,0,1,2.632-1.178,13.566,13.566,0,0,1,1.853-.1,5.454,5.454,0,0,0,3.818-1.039l.111.138a5.593,5.593,0,0,1-3.928,1.078,13.44,13.44,0,0,0-1.827.1A4.153,4.153,0,0,0,906.325,268.1Z" fill="#81c9b1"/>
            <path id="Trazado_101207" data-name="Trazado 101207" d="M910.86,266.869l-.086-.155a3.944,3.944,0,0,0,.817-.764l.146-.161a4.536,4.536,0,0,1,3.227-2l.025.174a4.39,4.39,0,0,0-3.119,1.939c-.049.053-.1.107-.147.163A4.134,4.134,0,0,1,910.86,266.869Z" fill="#81c9b1"/>
            <path id="Trazado_101208" data-name="Trazado 101208" d="M916.473,263.508c-.587-.533-2-.246-2.185.52l.061-.037c-.011.151.181.3.528.335A1.879,1.879,0,0,0,916.473,263.508Z" fill="#81c9b1"/>
            <path id="Trazado_101209" data-name="Trazado 101209" d="M915.657,265.293c-.5-.3-1.479.1-1.5.678l.039-.033c.013.109.171.192.427.167A1.379,1.379,0,0,0,915.657,265.293Z" fill="#81c9b1"/>
          </g>
        </g>
        <g id="Grupo_69655" data-name="Grupo 69655">
          <g id="Grupo_69652" data-name="Grupo 69652">
            <path id="Trazado_101210" data-name="Trazado 101210" d="M918.334,260.439a10.3,10.3,0,0,0-.646,1.171c-.24.689.124,2.3-.281,2.782-.685.739-.265-1.791-.119-2.181.245-.57.558-1.514,1.072-1.817Z" fill="#81c9b1"/>
            <path id="Trazado_101211" data-name="Trazado 101211" d="M918.013,260.664c-.666.5-2.483.406-2.746,1.029,1.107.681,2.167-.478,2.649-.966Z" fill="#81c9b1"/>
            <path id="Trazado_101212" data-name="Trazado 101212" d="M916.83,262c-.666,1.1-.562,2.511-1.275,3.587-1.025-.906.84-3.12,1.345-3.605Z" fill="#81c9b1"/>
            <path id="Trazado_101213" data-name="Trazado 101213" d="M916.571,262.275c-.6.84-1.642-.575-2.7.354.6.736,2.194.293,2.7-.426Z" fill="#81c9b1"/>
            <path id="Trazado_101214" data-name="Trazado 101214" d="M912.994,265.358c-.449.692-2,2.138-2.832,1.72.246-.945,2.114-1.083,2.832-1.72Z" fill="#81c9b1"/>
            <path id="Trazado_101215" data-name="Trazado 101215" d="M913.663,264.957l-.006,0c-.548.332-1.417,1.581-1,2.231C913.3,267,913.26,265.578,913.663,264.957Z" fill="#81c9b1"/>
            <path id="Trazado_101216" data-name="Trazado 101216" d="M915.03,263.7h-.005c-.644.525-1.669,2.31-1.191,3.1C914.582,266.45,914.553,264.584,915.03,263.7Z" fill="#81c9b1"/>
            <path id="Trazado_101217" data-name="Trazado 101217" d="M912.288,264.234c.134.9,2.23-.219,3.153-.884a4.969,4.969,0,0,1-.895.307C914.24,263.783,912.277,263.932,912.288,264.234Z" fill="#81c9b1"/>
            <path id="Trazado_101218" data-name="Trazado 101218" d="M912.189,266.058a.078.078,0,0,1-.043-.143,28.489,28.489,0,0,0,6.752-6.523.078.078,0,0,1,.108-.019.077.077,0,0,1,.018.107,28.748,28.748,0,0,1-6.792,6.565A.08.08,0,0,1,912.189,266.058Z" fill="#81c9b1"/>
          </g>
          <path id="Trazado_101219" data-name="Trazado 101219" d="M918.122,259.128a3.845,3.845,0,0,0-1.789-.411c-1,.169-1.084,1.636-.013,1.388-.82,1.719,1.553.616,2.03-.124a2.869,2.869,0,0,0-.228,1.809c.326.735.956.457,1.03-.281.436.36,1.835,1.247,1.493-.033-.121-.5-1.025-1.178-1.42-1.505.6.162,1.738.635,2.306.107.5-.522-.09-.939-.714-.988,1.145-.986-.538-1.043-1.22-.54.4-.4.883-1.069.505-1.58-.3-.445-1.244-.428-1.037.208-.733-.805-1.44-.189-.772.694-.276-.227-.564-.93-.938-1.041-.447-.1-.853.23-.517.707-1.224-.21-1.23.847-.143,1.145a7.323,7.323,0,0,1,1.571.432Z" fill="#f96767"/>
          <g id="Grupo_69653" data-name="Grupo 69653">
            <path id="Trazado_101220" data-name="Trazado 101220" d="M919.233,257.942c1.4-1.472.1-4.456-.211-6.129.363,2.125-1.058,4.1.174,6.155Z" fill="#81c9b1"/>
            <path id="Trazado_101221" data-name="Trazado 101221" d="M919.06,257.413c.409-2.091,2.729-2.4,4.456-3.3a5.221,5.221,0,0,1-2.215,3.425c-.587.343-2.55.925-2.2-.4Z" fill="#81c9b1"/>
          </g>
          <g id="Grupo_69654" data-name="Grupo 69654">
            <path id="Trazado_101222" data-name="Trazado 101222" d="M919.275,259.946a4.41,4.41,0,0,1,.3-2.867,13.473,13.473,0,0,1,.84-1.656,5.456,5.456,0,0,0,1.01-3.825l.173-.026a5.581,5.581,0,0,1-1.03,3.939,13.515,13.515,0,0,0-.829,1.632,4.155,4.155,0,0,0-.292,2.75Z" fill="#81c9b1"/>
            <path id="Trazado_101223" data-name="Trazado 101223" d="M920.645,255.35l-.177,0a4.006,4.006,0,0,0-.252-1.087c-.024-.073-.047-.144-.069-.209a4.54,4.54,0,0,1-.116-3.792l.165.065a4.393,4.393,0,0,0,.119,3.671c.022.068.045.137.068.211A4.08,4.08,0,0,1,920.645,255.35Z" fill="#81c9b1"/>
            <path id="Trazado_101224" data-name="Trazado 101224" d="M920.541,248.81c-.754.241-1.215,1.612-.642,2.152v-.071c.123.084.349-.006.552-.291A1.87,1.87,0,0,0,920.541,248.81Z" fill="#81c9b1"/>
            <path id="Trazado_101225" data-name="Trazado 101225" d="M921.68,250.408c-.512.28-.652,1.332-.165,1.641l-.009-.051c.1.043.251-.053.359-.286A1.393,1.393,0,0,0,921.68,250.408Z" fill="#81c9b1"/>
          </g>
        </g>
        <g id="Grupo_69659" data-name="Grupo 69659">
          <g id="Grupo_69656" data-name="Grupo 69656">
            <path id="Trazado_101226" data-name="Trazado 101226" d="M918.814,245.662a9.921,9.921,0,0,0,.692,1.145c.476.554,2.054,1.045,2.269,1.635.295.963-1.685-.665-1.95-.986-.369-.5-1.032-1.241-1.037-1.839Z" fill="#81c9b1"/>
            <path id="Trazado_101227" data-name="Trazado 101227" d="M918.849,246.054c.1.825-.89,2.353-.482,2.892,1.143-.618.668-2.116.486-2.778Z" fill="#81c9b1"/>
            <path id="Trazado_101228" data-name="Trazado 101228" d="M919.416,247.747c.62,1.128,1.891,1.742,2.467,2.9-1.3.436-2.28-2.288-2.45-2.968Z" fill="#81c9b1"/>
            <path id="Trazado_101229" data-name="Trazado 101229" d="M919.524,248.1c.427.938-1.321,1.137-1.046,2.523.936-.153,1.35-1.755.978-2.55Z" fill="#81c9b1"/>
            <path id="Trazado_101230" data-name="Trazado 101230" d="M920.4,252.748c.374.732.851,2.8.075,3.312-.7-.685.116-2.371-.075-3.312Z" fill="#81c9b1"/>
            <path id="Trazado_101231" data-name="Trazado 101231" d="M920.392,251.967l-.006.005c.013.639.66,2.016,1.433,1.978C921.977,253.3,920.727,252.628,920.392,251.967Z" fill="#81c9b1"/>
            <path id="Trazado_101232" data-name="Trazado 101232" d="M919.988,250.155l-.006.005c.132.819,1.166,2.6,2.09,2.58C922.145,251.918,920.513,251.011,919.988,250.155Z" fill="#81c9b1"/>
            <path id="Trazado_101233" data-name="Trazado 101233" d="M919.076,252.8c.848.333.928-2.039.813-3.172a4.953,4.953,0,0,1-.185.929C919.661,250.88,918.81,252.656,919.076,252.8Z" fill="#81c9b1"/>
            <path id="Trazado_101234" data-name="Trazado 101234" d="M920.54,253.833a.077.077,0,0,1-.077-.072,28.58,28.58,0,0,0-2.273-9.11.075.075,0,0,1,.037-.1.078.078,0,0,1,.1.036,28.852,28.852,0,0,1,2.288,9.167.076.076,0,0,1-.073.081Z" fill="#81c9b1"/>
          </g>
          <path id="Trazado_101235" data-name="Trazado 101235" d="M917.573,245.192c-.408.371-1.076.785-1.251,1.343-.356.956.875,1.757,1.2.706,1.08,1.569,1.31-1.039.909-1.819.306.377.948,1.07,1.452,1.1.8.084.872-.6.272-1.033.529-.2,2-.965.717-1.309a4.521,4.521,0,0,0-2.012.478c.437-.438,1.418-1.188,1.244-1.945-.2-.691-.858-.391-1.212.124-.281-1.484-1.172-.056-1.078.786-.148-.548-.484-1.3-1.114-1.228-.537.036-.994.865-.34,1-1.063.233-.884,1.154.216,1.015-.335.128-1.087.025-1.37.293-.313.337-.229.854.353.8-.794.954.118,1.491.919.7.409-.371.746-.936,1.16-1.146Z" fill="#f96767"/>
          <g id="Grupo_69657" data-name="Grupo 69657">
            <path id="Trazado_101236" data-name="Trazado 101236" d="M917.1,243.635c-.577-1.944-3.809-2.317-5.414-2.881,2.023.749,3.023,2.967,5.419,2.926Z" fill="#81c9b1"/>
            <path id="Trazado_101237" data-name="Trazado 101237" d="M916.558,243.522c-1.608-1.4-.72-3.567-.631-5.508a5.219,5.219,0,0,1,1.859,3.631c0,.679-.473,2.671-1.448,1.7Z" fill="#81c9b1"/>
          </g>
          <g id="Grupo_69658" data-name="Grupo 69658">
            <path id="Trazado_101238" data-name="Trazado 101238" d="M918.858,244.6a4.418,4.418,0,0,1-2.336-1.69,13.748,13.748,0,0,1-1.013-1.555,5.455,5.455,0,0,0-2.808-2.787l.065-.164a5.589,5.589,0,0,1,2.9,2.862,13.286,13.286,0,0,0,1,1.534,4.263,4.263,0,0,0,2.237,1.629Z" fill="#81c9b1"/>
            <path id="Trazado_101239" data-name="Trazado 101239" d="M915.471,241.269a3.941,3.941,0,0,0-1.073-.325l-.208-.047a4.534,4.534,0,0,1-3.344-1.795l.14-.109a4.394,4.394,0,0,0,3.238,1.732l.212.044a4.228,4.228,0,0,1,1.126.347Z" fill="#81c9b1"/>
            <path id="Trazado_101240" data-name="Trazado 101240" d="M909.846,237.935c-.169.777.788,1.859,1.541,1.634l-.06-.034c.136-.065.17-.307.025-.625A1.884,1.884,0,0,0,909.846,237.935Z" fill="#81c9b1"/>
            <path id="Trazado_101241" data-name="Trazado 101241" d="M911.8,237.75c-.015.583.826,1.23,1.338.963l-.049-.016c.089-.066.079-.246-.069-.452A1.38,1.38,0,0,0,911.8,237.75Z" fill="#81c9b1"/>
          </g>
        </g>
      </g>
      <g id="Grupo_69685" data-name="Grupo 69685">
        <g id="Grupo_69664" data-name="Grupo 69664">
          <g id="Grupo_69661" data-name="Grupo 69661">
            <path id="Trazado_101242" data-name="Trazado 101242" d="M987.962,237.859a9.937,9.937,0,0,0,1.337-.025c.718-.137,1.931-1.26,2.55-1.149.982.225-1.418,1.126-1.828,1.194a4.086,4.086,0,0,1-2.112-.019Z" fill="#81c9b1"/>
            <path id="Trazado_101243" data-name="Trazado 101243" d="M988.318,238.023c.763.331,1.592,1.949,2.263,1.865.037-1.3-1.5-1.638-2.162-1.81Z" fill="#81c9b1"/>
            <path id="Trazado_101244" data-name="Trazado 101244" d="M990.069,238.381c1.286.027,2.453-.768,3.741-.69-.269,1.342-3.121.831-3.794.639Z" fill="#81c9b1"/>
            <path id="Trazado_101245" data-name="Trazado 101245" d="M990.434,238.467c1.024.1.322,1.711,1.659,2.166.337-.886-.845-2.048-1.717-2.122Z" fill="#81c9b1"/>
            <path id="Trazado_101246" data-name="Trazado 101246" d="M994.893,240.025c.822.042,2.85.661,2.906,1.593-.941.259-1.995-1.289-2.906-1.593Z" fill="#81c9b1"/>
            <path id="Trazado_101247" data-name="Trazado 101247" d="M994.211,239.647v0c.561.311,2.077.438,2.432-.25C996.16,238.94,994.95,239.686,994.211,239.647Z" fill="#81c9b1"/>
            <path id="Trazado_101248" data-name="Trazado 101248" d="M992.44,239.09v.005c.777.3,2.835.29,3.282-.519C995.045,238.1,993.443,239.061,992.44,239.09Z" fill="#81c9b1"/>
            <path id="Trazado_101249" data-name="Trazado 101249" d="M994.272,241.2c.712-.567-1.3-1.823-2.341-2.291a5.1,5.1,0,0,1,.712.625C992.906,239.734,994.017,241.358,994.272,241.2Z" fill="#81c9b1"/>
            <path id="Trazado_101250" data-name="Trazado 101250" d="M995.835,240.488a.063.063,0,0,1-.034-.008,28.614,28.614,0,0,0-9.026-2.586.075.075,0,0,1-.071-.083.08.08,0,0,1,.082-.071,28.726,28.726,0,0,1,9.083,2.6.077.077,0,0,1-.034.146Z" fill="#81c9b1"/>
          </g>
          <path id="Trazado_101251" data-name="Trazado 101251" d="M986.934,238.7a3.8,3.8,0,0,0,.539,1.756c.649.786,1.957.122,1.207-.682,1.9-.149-.243-1.654-1.121-1.7.481-.077,1.4-.287,1.68-.708.473-.649-.084-1.054-.759-.752.094-.557.163-2.21-.774-1.276a4.549,4.549,0,0,0-.593,1.984c-.16-.6-.32-1.824-1.062-2.053-.7-.168-.768.55-.5,1.115-1.427-.5-.635.986.141,1.324-.548-.144-1.366-.228-1.621.354-.235.481.252,1.29.7.793-.33,1.039.556,1.344.988.322-.06.355-.526.953-.432,1.333.135.44.623.626.869.094.429,1.164,1.35.642,1.063-.447a7.437,7.437,0,0,1-.411-1.578Z" fill="#f96767"/>
          <g id="Grupo_69662" data-name="Grupo 69662">
            <path id="Trazado_101252" data-name="Trazado 101252" d="M985.352,238.329c-1.976-.471-3.912,2.14-5.205,3.249,1.661-1.378,4.081-1.135,5.244-3.229Z" fill="#81c9b1"/>
            <path id="Trazado_101253" data-name="Trazado 101253" d="M984.98,238.745c-2.016.691-3.449-1.163-5.085-2.211a5.222,5.222,0,0,1,4.074.206c.59.337,2.076,1.746.753,2.1Z" fill="#81c9b1"/>
          </g>
          <g id="Grupo_69663" data-name="Grupo 69663">
            <path id="Trazado_101254" data-name="Trazado 101254" d="M978.764,239.607l-.111-.138a5.588,5.588,0,0,1,3.927-1.078,13.593,13.593,0,0,0,1.826-.1,4.17,4.17,0,0,0,2.53-1.124l.13.12a4.424,4.424,0,0,1-2.632,1.179,13.89,13.89,0,0,1-1.852.1A5.45,5.45,0,0,0,978.764,239.607Z" fill="#81c9b1"/>
            <path id="Trazado_101255" data-name="Trazado 101255" d="M978.3,241.478l-.027-.174a4.39,4.39,0,0,0,3.119-1.938l.147-.162a4.039,4.039,0,0,1,.864-.8l.085.155a4.066,4.066,0,0,0-.818.762c-.05.057-.1.113-.146.164A4.524,4.524,0,0,1,978.3,241.478Z" fill="#81c9b1"/>
            <path id="Trazado_101256" data-name="Trazado 101256" d="M976.788,241.762c.586.535,2,.246,2.183-.519l-.059.036c.01-.15-.18-.3-.528-.334A1.876,1.876,0,0,0,976.788,241.762Z" fill="#81c9b1"/>
            <path id="Trazado_101257" data-name="Trazado 101257" d="M977.6,239.978c.5.3,1.479-.1,1.5-.679l-.038.035c-.013-.111-.173-.192-.427-.168A1.383,1.383,0,0,0,977.6,239.978Z" fill="#81c9b1"/>
          </g>
        </g>
        <g id="Grupo_69668" data-name="Grupo 69668">
          <g id="Grupo_69665" data-name="Grupo 69665">
            <path id="Trazado_101258" data-name="Trazado 101258" d="M974.925,244.833a9.785,9.785,0,0,0,.646-1.172c.242-.69-.123-2.3.282-2.781.685-.74.266,1.789.12,2.18-.244.57-.557,1.514-1.073,1.818Z" fill="#81c9b1"/>
            <path id="Trazado_101259" data-name="Trazado 101259" d="M975.247,244.606c.667-.5,2.482-.4,2.745-1.028-1.106-.68-2.166.479-2.648.968Z" fill="#81c9b1"/>
            <path id="Trazado_101260" data-name="Trazado 101260" d="M976.43,243.269c.667-1.1.564-2.51,1.274-3.587,1.028.9-.84,3.121-1.343,3.608Z" fill="#81c9b1"/>
            <path id="Trazado_101261" data-name="Trazado 101261" d="M976.688,243c.6-.839,1.643.576,2.706-.355-.6-.736-2.2-.291-2.7.428Z" fill="#81c9b1"/>
            <path id="Trazado_101262" data-name="Trazado 101262" d="M980.266,239.912c.448-.69,2-2.137,2.832-1.72-.244.946-2.112,1.084-2.832,1.72Z" fill="#81c9b1"/>
            <path id="Trazado_101263" data-name="Trazado 101263" d="M979.6,240.314l.006,0c.549-.332,1.417-1.579,1-2.231C979.96,238.273,980,239.694,979.6,240.314Z" fill="#81c9b1"/>
            <path id="Trazado_101264" data-name="Trazado 101264" d="M978.229,241.57l.007,0c.644-.524,1.668-2.31,1.19-3.1C978.677,238.82,978.708,240.686,978.229,241.57Z" fill="#81c9b1"/>
            <path id="Trazado_101265" data-name="Trazado 101265" d="M980.972,241.039c-.135-.9-2.23.217-3.152.881a4.949,4.949,0,0,1,.9-.306C979.02,241.487,980.983,241.338,980.972,241.039Z" fill="#81c9b1"/>
            <path id="Trazado_101266" data-name="Trazado 101266" d="M974.3,245.912a.079.079,0,0,1-.064-.121,28.7,28.7,0,0,1,6.794-6.564.075.075,0,0,1,.107.021.078.078,0,0,1-.021.107,28.536,28.536,0,0,0-6.752,6.524A.077.077,0,0,1,974.3,245.912Z" fill="#81c9b1"/>
          </g>
          <path id="Trazado_101267" data-name="Trazado 101267" d="M975.138,246.143a3.836,3.836,0,0,0,1.79.411c1-.169,1.083-1.637.013-1.386.82-1.721-1.555-.618-2.031.121a2.86,2.86,0,0,0,.228-1.809c-.325-.734-.955-.454-1.031.282-.436-.36-1.833-1.247-1.491.033.121.5,1.024,1.178,1.419,1.5-.6-.16-1.738-.634-2.306-.106-.5.523.09.939.713.99-1.144.984.539,1.041,1.22.539-.4.4-.882,1.068-.505,1.579.3.445,1.245.428,1.037-.208.734.8,1.441.188.773-.693.278.227.564.929.94,1.039.445.1.852-.23.514-.706,1.224.21,1.232-.847.146-1.144a7.467,7.467,0,0,1-1.574-.434Z" fill="#f96767"/>
          <g id="Grupo_69666" data-name="Grupo 69666">
            <path id="Trazado_101268" data-name="Trazado 101268" d="M974.027,247.329c-1.4,1.473-.1,4.457.212,6.129-.362-2.125,1.058-4.1-.175-6.155Z" fill="#81c9b1"/>
            <path id="Trazado_101269" data-name="Trazado 101269" d="M974.2,247.858c-.409,2.09-2.73,2.4-4.455,3.3a5.217,5.217,0,0,1,2.215-3.425c.587-.341,2.548-.925,2.2.4Z" fill="#81c9b1"/>
          </g>
          <g id="Grupo_69667" data-name="Grupo 69667">
            <path id="Trazado_101270" data-name="Trazado 101270" d="M971.665,253.7a5.6,5.6,0,0,1,1.03-3.939,13.58,13.58,0,0,0,.83-1.631,4.158,4.158,0,0,0,.29-2.752l.169-.052a4.413,4.413,0,0,1-.295,2.868,13.606,13.606,0,0,1-.84,1.655,5.44,5.44,0,0,0-1.009,3.826Z" fill="#81c9b1"/>
            <path id="Trazado_101271" data-name="Trazado 101271" d="M973.228,255.012l-.164-.065a4.394,4.394,0,0,0-.119-3.67c-.023-.068-.046-.139-.069-.211a4.079,4.079,0,0,1-.26-1.145l.176,0a3.957,3.957,0,0,0,.253,1.087l.067.21A4.523,4.523,0,0,1,973.228,255.012Z" fill="#81c9b1"/>
            <path id="Trazado_101272" data-name="Trazado 101272" d="M972.719,256.46c.756-.24,1.215-1.61.643-2.15v.07c-.126-.085-.352.007-.554.29A1.878,1.878,0,0,0,972.719,256.46Z" fill="#81c9b1"/>
            <path id="Trazado_101273" data-name="Trazado 101273" d="M971.582,254.864c.511-.281.65-1.333.162-1.642l.011.051c-.1-.044-.252.054-.358.286A1.382,1.382,0,0,0,971.582,254.864Z" fill="#81c9b1"/>
          </g>
        </g>
        <g id="Grupo_69672" data-name="Grupo 69672">
          <g id="Grupo_69669" data-name="Grupo 69669">
            <path id="Trazado_101274" data-name="Trazado 101274" d="M974.446,259.61a9.843,9.843,0,0,0-.69-1.146c-.478-.554-2.056-1.042-2.27-1.635-.3-.963,1.685.666,1.949.988.371.5,1.033,1.237,1.038,1.836Z" fill="#81c9b1"/>
            <path id="Trazado_101275" data-name="Trazado 101275" d="M974.411,259.219c-.1-.827.891-2.355.482-2.894-1.142.617-.669,2.116-.487,2.777Z" fill="#81c9b1"/>
            <path id="Trazado_101276" data-name="Trazado 101276" d="M973.845,257.524c-.62-1.128-1.893-1.743-2.469-2.9,1.3-.437,2.281,2.288,2.452,2.966Z" fill="#81c9b1"/>
            <path id="Trazado_101277" data-name="Trazado 101277" d="M973.737,257.163c-.429-.936,1.32-1.134,1.046-2.52-.937.152-1.351,1.757-.979,2.55Z" fill="#81c9b1"/>
            <path id="Trazado_101278" data-name="Trazado 101278" d="M972.856,252.523c-.374-.734-.852-2.8-.073-3.312.7.685-.119,2.371.073,3.312Z" fill="#81c9b1"/>
            <path id="Trazado_101279" data-name="Trazado 101279" d="M972.87,253.3l0,0c-.012-.642-.66-2.017-1.432-1.981C971.282,251.968,972.534,252.643,972.87,253.3Z" fill="#81c9b1"/>
            <path id="Trazado_101280" data-name="Trazado 101280" d="M973.274,255.116l0-.006c-.132-.818-1.167-2.6-2.092-2.58C971.116,253.353,972.747,254.261,973.274,255.116Z" fill="#81c9b1"/>
            <path id="Trazado_101281" data-name="Trazado 101281" d="M974.185,252.475c-.848-.333-.927,2.041-.814,3.171a5.029,5.029,0,0,1,.184-.928C973.6,254.391,974.45,252.616,974.185,252.475Z" fill="#81c9b1"/>
            <path id="Trazado_101282" data-name="Trazado 101282" d="M975,260.729a.077.077,0,0,1-.068-.043,28.739,28.739,0,0,1-2.289-9.167.079.079,0,0,1,.072-.082.076.076,0,0,1,.081.072,28.626,28.626,0,0,0,2.275,9.111.078.078,0,0,1-.037.1A.08.08,0,0,1,975,260.729Z" fill="#81c9b1"/>
          </g>
          <path id="Trazado_101283" data-name="Trazado 101283" d="M975.688,260.078c.408-.371,1.075-.783,1.25-1.342.356-.955-.874-1.756-1.193-.7-1.082-1.571-1.312,1.037-.912,1.819-.3-.379-.947-1.071-1.452-1.1-.8-.084-.871.6-.271,1.035-.53.2-2,.963-.718,1.308a4.547,4.547,0,0,0,2.014-.479c-.438.438-1.42,1.188-1.245,1.945.2.691.858.392,1.213-.123.28,1.484,1.172.054,1.077-.787.15.547.485,1.3,1.116,1.228.534-.036.993-.863.338-1,1.064-.234.883-1.152-.216-1.015.337-.127,1.088-.023,1.37-.292.313-.337.23-.853-.353-.8.794-.955-.118-1.492-.918-.7-.409.371-.747.936-1.16,1.146Z" fill="#f96767"/>
          <g id="Grupo_69670" data-name="Grupo 69670">
            <path id="Trazado_101284" data-name="Trazado 101284" d="M976.159,261.635c.577,1.945,3.808,2.318,5.415,2.882-2.023-.749-3.024-2.968-5.418-2.927Z" fill="#81c9b1"/>
            <path id="Trazado_101285" data-name="Trazado 101285" d="M976.7,261.748c1.606,1.4.717,3.568.63,5.509a5.216,5.216,0,0,1-1.86-3.631c0-.679.474-2.671,1.448-1.7Z" fill="#81c9b1"/>
          </g>
          <g id="Grupo_69671" data-name="Grupo 69671">
            <path id="Trazado_101286" data-name="Trazado 101286" d="M980.5,266.865A5.58,5.58,0,0,1,977.6,264a13.765,13.765,0,0,0-1-1.532,4.163,4.163,0,0,0-2.238-1.629l.039-.172a4.413,4.413,0,0,1,2.336,1.69,13.365,13.365,0,0,1,1.012,1.555,5.455,5.455,0,0,0,2.809,2.786Z" fill="#81c9b1"/>
            <path id="Trazado_101287" data-name="Trazado 101287" d="M982.276,266.279a4.389,4.389,0,0,0-3.24-1.731l-.211-.047a4.146,4.146,0,0,1-1.128-.347l.091-.152a4.054,4.054,0,0,0,1.074.326l.21.046a4.538,4.538,0,0,1,3.342,1.794Z" fill="#81c9b1"/>
            <path id="Trazado_101288" data-name="Trazado 101288" d="M983.413,267.335c.17-.774-.787-1.858-1.541-1.633l.061.034c-.136.066-.169.309-.025.625A1.881,1.881,0,0,0,983.413,267.335Z" fill="#81c9b1"/>
            <path id="Trazado_101289" data-name="Trazado 101289" d="M981.461,267.52c.013-.582-.828-1.23-1.339-.962l.048.016c-.088.068-.08.247.069.455A1.382,1.382,0,0,0,981.461,267.52Z" fill="#81c9b1"/>
          </g>
        </g>
        <g id="Grupo_69676" data-name="Grupo 69676">
          <g id="Grupo_69673" data-name="Grupo 69673">
            <path id="Trazado_101290" data-name="Trazado 101290" d="M987,267.412a9.762,9.762,0,0,0-1.336.027c-.719.137-1.932,1.257-2.551,1.146-.982-.224,1.418-1.126,1.829-1.193a4.089,4.089,0,0,1,2.11.019Z" fill="#81c9b1"/>
            <path id="Trazado_101291" data-name="Trazado 101291" d="M986.647,267.247c-.763-.329-1.592-1.948-2.263-1.864-.037,1.3,1.5,1.637,2.162,1.811Z" fill="#81c9b1"/>
            <path id="Trazado_101292" data-name="Trazado 101292" d="M984.9,266.889c-1.288-.025-2.455.769-3.742.691.269-1.343,3.121-.831,3.794-.639Z" fill="#81c9b1"/>
            <path id="Trazado_101293" data-name="Trazado 101293" d="M984.532,266.8c-1.025-.1-.322-1.711-1.66-2.165-.337.886.845,2.046,1.718,2.12Z" fill="#81c9b1"/>
            <path id="Trazado_101294" data-name="Trazado 101294" d="M980.072,265.245c-.822-.041-2.85-.661-2.905-1.592.941-.259,1.994,1.288,2.905,1.592Z" fill="#81c9b1"/>
            <path id="Trazado_101295" data-name="Trazado 101295" d="M980.755,265.625v-.005c-.562-.311-2.078-.439-2.432.249C978.806,266.331,980.015,265.587,980.755,265.625Z" fill="#81c9b1"/>
            <path id="Trazado_101296" data-name="Trazado 101296" d="M982.526,266.182v-.007c-.776-.295-2.834-.289-3.282.52C979.921,267.169,981.522,266.209,982.526,266.182Z" fill="#81c9b1"/>
            <path id="Trazado_101297" data-name="Trazado 101297" d="M980.694,264.073c-.713.567,1.3,1.823,2.341,2.289a5.007,5.007,0,0,1-.714-.624C982.061,265.538,980.949,263.914,980.694,264.073Z" fill="#81c9b1"/>
            <path id="Trazado_101298" data-name="Trazado 101298" d="M988.186,267.53h-.007a28.706,28.706,0,0,1-9.082-2.6.076.076,0,0,1-.035-.1.074.074,0,0,1,.1-.033,28.673,28.673,0,0,0,9.025,2.585.077.077,0,0,1,0,.153Z" fill="#81c9b1"/>
          </g>
          <path id="Trazado_101299" data-name="Trazado 101299" d="M988.032,266.573a3.825,3.825,0,0,0-.539-1.756c-.649-.786-1.957-.121-1.207.682-1.9.15.242,1.654,1.121,1.7-.482.076-1.4.286-1.681.707-.472.65.084,1.054.759.752-.094.556-.163,2.212.775,1.275a4.505,4.505,0,0,0,.592-1.982c.16.6.32,1.822,1.062,2.051.7.169.769-.547.5-1.114,1.425.5.633-.986-.143-1.323.548.142,1.366.227,1.621-.355.236-.481-.251-1.291-.7-.794.33-1.039-.556-1.341-.987-.32.059-.356.525-.954.431-1.333-.135-.44-.624-.626-.868-.1-.429-1.163-1.349-.641-1.064.447a7.5,7.5,0,0,1,.412,1.577Z" fill="#f96767"/>
          <g id="Grupo_69674" data-name="Grupo 69674">
            <path id="Trazado_101300" data-name="Trazado 101300" d="M989.615,266.942c1.973.472,3.91-2.139,5.2-3.249-1.66,1.376-4.08,1.137-5.243,3.231Z" fill="#81c9b1"/>
            <path id="Trazado_101301" data-name="Trazado 101301" d="M989.985,266.528c2.017-.691,3.449,1.161,5.086,2.209a5.221,5.221,0,0,1-4.074-.206c-.591-.338-2.076-1.747-.754-2.106Z" fill="#81c9b1"/>
          </g>
          <g id="Grupo_69675" data-name="Grupo 69675">
            <path id="Trazado_101302" data-name="Trazado 101302" d="M988.029,268.1l-.129-.12a4.406,4.406,0,0,1,2.631-1.178,13.583,13.583,0,0,1,1.853-.1,5.445,5.445,0,0,0,3.817-1.039l.112.138a5.59,5.59,0,0,1-3.928,1.078,13.425,13.425,0,0,0-1.826.1A4.159,4.159,0,0,0,988.029,268.1Z" fill="#81c9b1"/>
            <path id="Trazado_101303" data-name="Trazado 101303" d="M992.566,266.869l-.087-.155a4.023,4.023,0,0,0,.818-.764c.05-.057.1-.111.146-.161a4.532,4.532,0,0,1,3.224-2l.028.174a4.394,4.394,0,0,0-3.12,1.939l-.147.163A4.129,4.129,0,0,1,992.566,266.869Z" fill="#81c9b1"/>
            <path id="Trazado_101304" data-name="Trazado 101304" d="M998.178,263.508c-.586-.533-2-.246-2.184.52l.06-.037c-.013.151.179.3.528.335A1.878,1.878,0,0,0,998.178,263.508Z" fill="#81c9b1"/>
            <path id="Trazado_101305" data-name="Trazado 101305" d="M997.361,265.293c-.5-.3-1.477.1-1.5.678l.037-.033c.013.109.173.192.427.167A1.376,1.376,0,0,0,997.361,265.293Z" fill="#81c9b1"/>
          </g>
        </g>
        <g id="Grupo_69680" data-name="Grupo 69680">
          <g id="Grupo_69677" data-name="Grupo 69677">
            <path id="Trazado_101306" data-name="Trazado 101306" d="M1000.04,260.439a9.847,9.847,0,0,0-.646,1.171c-.241.689.123,2.3-.281,2.782-.685.739-.266-1.791-.12-2.181.244-.57.556-1.514,1.072-1.817Z" fill="#81c9b1"/>
            <path id="Trazado_101307" data-name="Trazado 101307" d="M999.718,260.664c-.667.5-2.482.406-2.745,1.029,1.1.681,2.166-.478,2.649-.966Z" fill="#81c9b1"/>
            <path id="Trazado_101308" data-name="Trazado 101308" d="M998.535,262c-.667,1.1-.563,2.511-1.274,3.587-1.028-.906.84-3.12,1.343-3.605Z" fill="#81c9b1"/>
            <path id="Trazado_101309" data-name="Trazado 101309" d="M998.277,262.275c-.6.84-1.642-.575-2.7.354.6.736,2.2.293,2.7-.426Z" fill="#81c9b1"/>
            <path id="Trazado_101310" data-name="Trazado 101310" d="M994.7,265.358c-.448.692-2,2.138-2.832,1.72.246-.945,2.112-1.083,2.832-1.72Z" fill="#81c9b1"/>
            <path id="Trazado_101311" data-name="Trazado 101311" d="M995.368,264.957l-.005,0c-.55.332-1.418,1.581-1,2.231C995.005,267,994.965,265.578,995.368,264.957Z" fill="#81c9b1"/>
            <path id="Trazado_101312" data-name="Trazado 101312" d="M996.736,263.7h-.006c-.644.525-1.669,2.31-1.191,3.1C996.288,266.45,996.258,264.584,996.736,263.7Z" fill="#81c9b1"/>
            <path id="Trazado_101313" data-name="Trazado 101313" d="M993.993,264.234c.135.9,2.231-.219,3.154-.884a4.955,4.955,0,0,1-.9.307C995.946,263.783,993.982,263.932,993.993,264.234Z" fill="#81c9b1"/>
            <path id="Trazado_101314" data-name="Trazado 101314" d="M993.894,266.058a.078.078,0,0,1-.044-.143,28.464,28.464,0,0,0,6.753-6.523.077.077,0,0,1,.107-.019.076.076,0,0,1,.02.107,28.737,28.737,0,0,1-6.794,6.565A.074.074,0,0,1,993.894,266.058Z" fill="#81c9b1"/>
          </g>
          <path id="Trazado_101315" data-name="Trazado 101315" d="M999.828,259.128a3.856,3.856,0,0,0-1.791-.411c-1,.169-1.082,1.636-.012,1.388-.82,1.719,1.554.616,2.03-.124a2.862,2.862,0,0,0-.227,1.809c.325.735.954.457,1.03-.281.436.36,1.833,1.247,1.493-.033-.123-.5-1.026-1.178-1.421-1.505.6.162,1.737.635,2.307.107.5-.522-.091-.939-.715-.988,1.145-.986-.539-1.043-1.219-.54.4-.4.881-1.069.505-1.58-.3-.445-1.245-.428-1.037.208-.733-.805-1.441-.189-.772.694-.277-.227-.564-.93-.94-1.041-.446-.1-.853.23-.515.707-1.224-.21-1.232.847-.146,1.145a7.336,7.336,0,0,1,1.574.432Z" fill="#f96767"/>
          <g id="Grupo_69678" data-name="Grupo 69678">
            <path id="Trazado_101316" data-name="Trazado 101316" d="M1000.938,257.942c1.4-1.472.1-4.456-.211-6.129.362,2.125-1.057,4.1.174,6.155Z" fill="#81c9b1"/>
            <path id="Trazado_101317" data-name="Trazado 101317" d="M1000.764,257.413c.41-2.091,2.731-2.4,4.457-3.3a5.215,5.215,0,0,1-2.216,3.425c-.586.343-2.549.925-2.2-.4Z" fill="#81c9b1"/>
          </g>
          <g id="Grupo_69679" data-name="Grupo 69679">
            <path id="Trazado_101318" data-name="Trazado 101318" d="M1000.981,259.946a4.416,4.416,0,0,1,.3-2.867,13.751,13.751,0,0,1,.839-1.656,5.441,5.441,0,0,0,1.009-3.825l.176-.026a5.587,5.587,0,0,1-1.03,3.939,13.385,13.385,0,0,0-.83,1.632,4.154,4.154,0,0,0-.291,2.75Z" fill="#81c9b1"/>
            <path id="Trazado_101319" data-name="Trazado 101319" d="M1002.351,255.35l-.178,0a4.005,4.005,0,0,0-.252-1.087l-.068-.209a4.533,4.533,0,0,1-.116-3.792l.164.065a4.4,4.4,0,0,0,.119,3.671c.023.068.046.137.069.211A4.152,4.152,0,0,1,1002.351,255.35Z" fill="#81c9b1"/>
            <path id="Trazado_101320" data-name="Trazado 101320" d="M1002.246,248.81c-.756.241-1.215,1.612-.642,2.152l0-.071c.126.084.352-.006.554-.291A1.875,1.875,0,0,0,1002.246,248.81Z" fill="#81c9b1"/>
            <path id="Trazado_101321" data-name="Trazado 101321" d="M1003.383,250.408c-.51.28-.65,1.332-.162,1.641l-.01-.051c.1.043.252-.053.357-.286A1.377,1.377,0,0,0,1003.383,250.408Z" fill="#81c9b1"/>
          </g>
        </g>
        <g id="Grupo_69684" data-name="Grupo 69684">
          <g id="Grupo_69681" data-name="Grupo 69681">
            <path id="Trazado_101322" data-name="Trazado 101322" d="M1000.519,245.662a9.635,9.635,0,0,0,.691,1.145c.477.554,2.055,1.045,2.269,1.635.3.963-1.684-.665-1.949-.986-.371-.5-1.033-1.241-1.038-1.839Z" fill="#81c9b1"/>
            <path id="Trazado_101323" data-name="Trazado 101323" d="M1000.554,246.054c.1.825-.891,2.353-.482,2.892,1.143-.618.669-2.116.487-2.778Z" fill="#81c9b1"/>
            <path id="Trazado_101324" data-name="Trazado 101324" d="M1001.12,247.747c.621,1.128,1.893,1.742,2.469,2.9-1.3.436-2.281-2.288-2.452-2.968Z" fill="#81c9b1"/>
            <path id="Trazado_101325" data-name="Trazado 101325" d="M1001.228,248.1c.429.938-1.32,1.137-1.044,2.523.935-.153,1.348-1.755.977-2.55Z" fill="#81c9b1"/>
            <path id="Trazado_101326" data-name="Trazado 101326" d="M1002.109,252.748c.375.732.852,2.8.074,3.312-.7-.685.118-2.371-.074-3.312Z" fill="#81c9b1"/>
            <path id="Trazado_101327" data-name="Trazado 101327" d="M1002.095,251.967l0,.005c.012.639.66,2.016,1.432,1.978C1003.683,253.3,1002.432,252.628,1002.095,251.967Z" fill="#81c9b1"/>
            <path id="Trazado_101328" data-name="Trazado 101328" d="M1001.691,250.155l0,.005c.132.819,1.167,2.6,2.091,2.58C1003.849,251.918,1002.219,251.011,1001.691,250.155Z" fill="#81c9b1"/>
            <path id="Trazado_101329" data-name="Trazado 101329" d="M1000.781,252.8c.849.333.927-2.039.813-3.172a4.908,4.908,0,0,1-.184.929C1001.367,250.88,1000.515,252.656,1000.781,252.8Z" fill="#81c9b1"/>
            <path id="Trazado_101330" data-name="Trazado 101330" d="M1002.245,253.833a.077.077,0,0,1-.077-.072,28.564,28.564,0,0,0-2.274-9.11.077.077,0,0,1,.14-.066,28.807,28.807,0,0,1,2.289,9.167.077.077,0,0,1-.073.081Z" fill="#81c9b1"/>
          </g>
          <path id="Trazado_101331" data-name="Trazado 101331" d="M999.277,245.192c-.408.371-1.075.785-1.25,1.343-.356.956.875,1.757,1.194.706,1.081,1.569,1.312-1.039.911-1.819.3.377.947,1.07,1.452,1.1.8.084.871-.6.272-1.033.529-.2,1.995-.965.717-1.309a4.532,4.532,0,0,0-2.014.478c.438-.438,1.42-1.188,1.246-1.945-.2-.691-.858-.391-1.215.124-.279-1.484-1.171-.056-1.075.786-.15-.548-.487-1.3-1.117-1.228-.534.036-.991.865-.338,1-1.064.233-.884,1.154.216,1.015-.336.128-1.088.025-1.37.293-.313.337-.23.854.353.8-.794.954.118,1.491.919.7.409-.371.745-.936,1.159-1.146Z" fill="#f96767"/>
          <g id="Grupo_69682" data-name="Grupo 69682">
            <path id="Trazado_101332" data-name="Trazado 101332" d="M998.806,243.635c-.577-1.944-3.808-2.317-5.414-2.881,2.021.749,3.024,2.967,5.418,2.926Z" fill="#81c9b1"/>
            <path id="Trazado_101333" data-name="Trazado 101333" d="M998.261,243.522c-1.6-1.4-.717-3.567-.628-5.508a5.226,5.226,0,0,1,1.859,3.631c0,.679-.475,2.671-1.449,1.7Z" fill="#81c9b1"/>
          </g>
          <g id="Grupo_69683" data-name="Grupo 69683">
            <path id="Trazado_101334" data-name="Trazado 101334" d="M1000.563,244.6a4.414,4.414,0,0,1-2.336-1.69,13.718,13.718,0,0,1-1.012-1.555,5.461,5.461,0,0,0-2.809-2.787l.064-.164a5.593,5.593,0,0,1,2.9,2.862,13.393,13.393,0,0,0,1,1.534,4.277,4.277,0,0,0,2.238,1.629Z" fill="#81c9b1"/>
            <path id="Trazado_101335" data-name="Trazado 101335" d="M997.176,241.269a3.941,3.941,0,0,0-1.073-.325l-.21-.047a4.532,4.532,0,0,1-3.341-1.795l.139-.109a4.393,4.393,0,0,0,3.237,1.732l.212.044a4.224,4.224,0,0,1,1.127.347Z" fill="#81c9b1"/>
            <path id="Trazado_101336" data-name="Trazado 101336" d="M991.552,237.935c-.169.777.788,1.859,1.541,1.634l-.061-.034c.136-.065.17-.307.025-.625A1.882,1.882,0,0,0,991.552,237.935Z" fill="#81c9b1"/>
            <path id="Trazado_101337" data-name="Trazado 101337" d="M993.5,237.75c-.013.583.828,1.23,1.34.963l-.049-.016c.089-.066.08-.246-.069-.452A1.38,1.38,0,0,0,993.5,237.75Z" fill="#81c9b1"/>
          </g>
        </g>
      </g>
      <g id="Grupo_69710" data-name="Grupo 69710">
        <g id="Grupo_69689" data-name="Grupo 69689">
          <g id="Grupo_69686" data-name="Grupo 69686">
            <path id="Trazado_101338" data-name="Trazado 101338" d="M948.339,237.859a9.944,9.944,0,0,0,1.337-.025c.718-.137,1.931-1.26,2.55-1.149.981.225-1.419,1.126-1.829,1.194a4.082,4.082,0,0,1-2.111-.019Z" fill="#81c9b1"/>
            <path id="Trazado_101339" data-name="Trazado 101339" d="M948.7,238.023c.763.331,1.593,1.949,2.263,1.865.037-1.3-1.5-1.638-2.162-1.81Z" fill="#81c9b1"/>
            <path id="Trazado_101340" data-name="Trazado 101340" d="M950.445,238.381c1.287.027,2.455-.768,3.742-.69-.269,1.342-3.122.831-3.793.639Z" fill="#81c9b1"/>
            <path id="Trazado_101341" data-name="Trazado 101341" d="M950.811,238.467c1.025.1.323,1.711,1.659,2.166.338-.886-.845-2.048-1.717-2.122Z" fill="#81c9b1"/>
            <path id="Trazado_101342" data-name="Trazado 101342" d="M955.27,240.025c.822.042,2.85.661,2.906,1.593-.941.259-1.995-1.289-2.906-1.593Z" fill="#81c9b1"/>
            <path id="Trazado_101343" data-name="Trazado 101343" d="M954.587,239.647v0c.562.311,2.077.438,2.432-.25C956.537,238.94,955.327,239.686,954.587,239.647Z" fill="#81c9b1"/>
            <path id="Trazado_101344" data-name="Trazado 101344" d="M952.817,239.09v.005c.776.3,2.835.29,3.282-.519C955.42,238.1,953.82,239.061,952.817,239.09Z" fill="#81c9b1"/>
            <path id="Trazado_101345" data-name="Trazado 101345" d="M954.649,241.2c.712-.567-1.3-1.823-2.341-2.291a5.03,5.03,0,0,1,.712.625C953.283,239.734,954.394,241.358,954.649,241.2Z" fill="#81c9b1"/>
            <path id="Trazado_101346" data-name="Trazado 101346" d="M956.212,240.488a.069.069,0,0,1-.035-.008,28.592,28.592,0,0,0-9.026-2.586.075.075,0,0,1-.07-.083.08.08,0,0,1,.083-.071,28.735,28.735,0,0,1,9.082,2.6.077.077,0,0,1-.034.146Z" fill="#81c9b1"/>
          </g>
          <path id="Trazado_101347" data-name="Trazado 101347" d="M947.311,238.7a3.8,3.8,0,0,0,.539,1.756c.649.786,1.957.122,1.207-.682,1.9-.149-.243-1.654-1.121-1.7.48-.077,1.4-.287,1.679-.708.474-.649-.082-1.054-.758-.752.094-.557.162-2.21-.775-1.276a4.549,4.549,0,0,0-.593,1.984c-.16-.6-.318-1.824-1.06-2.053-.7-.168-.769.55-.5,1.115-1.426-.5-.633.986.143,1.324-.548-.144-1.367-.228-1.621.354-.235.481.252,1.29.7.793-.331,1.039.555,1.344.986.322-.059.355-.525.953-.431,1.333.135.44.623.626.868.094.43,1.164,1.35.642,1.065-.447a7.391,7.391,0,0,1-.413-1.578Z" fill="#e8ca4d"/>
          <g id="Grupo_69687" data-name="Grupo 69687">
            <path id="Trazado_101348" data-name="Trazado 101348" d="M945.729,238.329c-1.976-.471-3.912,2.14-5.205,3.249,1.66-1.378,4.081-1.135,5.243-3.229Z" fill="#81c9b1"/>
            <path id="Trazado_101349" data-name="Trazado 101349" d="M945.356,238.745c-2.015.691-3.448-1.163-5.084-2.211a5.222,5.222,0,0,1,4.074.206c.59.337,2.075,1.746.752,2.1Z" fill="#81c9b1"/>
          </g>
          <g id="Grupo_69688" data-name="Grupo 69688">
            <path id="Trazado_101350" data-name="Trazado 101350" d="M939.14,239.607l-.11-.138a5.587,5.587,0,0,1,3.926-1.078,13.6,13.6,0,0,0,1.827-.1,4.165,4.165,0,0,0,2.529-1.124l.131.12a4.427,4.427,0,0,1-2.632,1.179,13.889,13.889,0,0,1-1.852.1A5.454,5.454,0,0,0,939.14,239.607Z" fill="#81c9b1"/>
            <path id="Trazado_101351" data-name="Trazado 101351" d="M938.675,241.478l-.027-.174a4.39,4.39,0,0,0,3.119-1.938c.047-.052.1-.106.148-.162a4.056,4.056,0,0,1,.862-.8l.086.155a4.042,4.042,0,0,0-.818.762c-.05.057-.1.113-.146.164A4.522,4.522,0,0,1,938.675,241.478Z" fill="#81c9b1"/>
            <path id="Trazado_101352" data-name="Trazado 101352" d="M937.164,241.762c.587.535,2,.246,2.185-.519l-.06.036c.01-.15-.181-.3-.528-.334A1.879,1.879,0,0,0,937.164,241.762Z" fill="#81c9b1"/>
            <path id="Trazado_101353" data-name="Trazado 101353" d="M937.98,239.978c.5.3,1.48-.1,1.5-.679l-.038.035c-.014-.111-.173-.192-.427-.168A1.383,1.383,0,0,0,937.98,239.978Z" fill="#81c9b1"/>
          </g>
        </g>
        <g id="Grupo_69693" data-name="Grupo 69693">
          <g id="Grupo_69690" data-name="Grupo 69690">
            <path id="Trazado_101354" data-name="Trazado 101354" d="M935.3,244.833a10.237,10.237,0,0,0,.647-1.172c.241-.69-.124-2.3.281-2.781.685-.74.266,1.789.12,2.18-.245.57-.557,1.514-1.074,1.818Z" fill="#81c9b1"/>
            <path id="Trazado_101355" data-name="Trazado 101355" d="M935.624,244.606c.666-.5,2.482-.4,2.746-1.028-1.107-.68-2.168.479-2.648.968Z" fill="#81c9b1"/>
            <path id="Trazado_101356" data-name="Trazado 101356" d="M936.808,243.269c.665-1.1.563-2.51,1.274-3.587,1.026.9-.842,3.121-1.344,3.608Z" fill="#81c9b1"/>
            <path id="Trazado_101357" data-name="Trazado 101357" d="M937.065,243c.6-.839,1.641.576,2.706-.355-.6-.736-2.2-.291-2.7.428Z" fill="#81c9b1"/>
            <path id="Trazado_101358" data-name="Trazado 101358" d="M940.643,239.912c.448-.69,2-2.137,2.832-1.72-.245.946-2.113,1.084-2.832,1.72Z" fill="#81c9b1"/>
            <path id="Trazado_101359" data-name="Trazado 101359" d="M939.974,240.314l.006,0c.549-.332,1.417-1.579,1-2.231C940.337,238.273,940.378,239.694,939.974,240.314Z" fill="#81c9b1"/>
            <path id="Trazado_101360" data-name="Trazado 101360" d="M938.607,241.57l.006,0c.644-.524,1.668-2.31,1.19-3.1C939.054,238.82,939.084,240.686,938.607,241.57Z" fill="#81c9b1"/>
            <path id="Trazado_101361" data-name="Trazado 101361" d="M941.349,241.039c-.134-.9-2.23.217-3.152.881a4.954,4.954,0,0,1,.895-.306C939.4,241.487,941.36,241.338,941.349,241.039Z" fill="#81c9b1"/>
            <path id="Trazado_101362" data-name="Trazado 101362" d="M934.676,245.912a.083.083,0,0,1-.044-.015.076.076,0,0,1-.02-.106,28.694,28.694,0,0,1,6.795-6.564.074.074,0,0,1,.106.021.077.077,0,0,1-.022.107,28.6,28.6,0,0,0-6.751,6.524A.077.077,0,0,1,934.676,245.912Z" fill="#81c9b1"/>
          </g>
          <path id="Trazado_101363" data-name="Trazado 101363" d="M935.515,246.143a3.83,3.83,0,0,0,1.789.411c1.005-.169,1.083-1.637.014-1.386.82-1.721-1.555-.618-2.031.121a2.86,2.86,0,0,0,.228-1.809c-.325-.734-.956-.454-1.03.282-.436-.36-1.835-1.247-1.492.033.121.5,1.024,1.178,1.42,1.5-.6-.16-1.739-.634-2.309-.106-.495.523.092.939.716.99-1.145.984.538,1.041,1.219.539-.4.4-.882,1.068-.505,1.579.3.445,1.245.428,1.037-.208.734.8,1.441.188.773-.693.277.227.564.929.94,1.039.445.1.851-.23.513-.706,1.224.21,1.232-.847.147-1.144a7.485,7.485,0,0,1-1.574-.434Z" fill="#e8ca4d"/>
          <g id="Grupo_69691" data-name="Grupo 69691">
            <path id="Trazado_101364" data-name="Trazado 101364" d="M934.4,247.329c-1.4,1.473-.1,4.457.211,6.129-.362-2.125,1.059-4.1-.174-6.155Z" fill="#81c9b1"/>
            <path id="Trazado_101365" data-name="Trazado 101365" d="M934.578,247.858c-.409,2.09-2.73,2.4-4.456,3.3a5.224,5.224,0,0,1,2.215-3.425c.587-.341,2.549-.925,2.2.4Z" fill="#81c9b1"/>
          </g>
          <g id="Grupo_69692" data-name="Grupo 69692">
            <path id="Trazado_101366" data-name="Trazado 101366" d="M932.042,253.7a5.591,5.591,0,0,1,1.03-3.939,13.734,13.734,0,0,0,.83-1.631,4.158,4.158,0,0,0,.29-2.752l.169-.052a4.412,4.412,0,0,1-.3,2.868,13.6,13.6,0,0,1-.84,1.655,5.446,5.446,0,0,0-1.01,3.826Z" fill="#81c9b1"/>
            <path id="Trazado_101367" data-name="Trazado 101367" d="M933.6,255.012l-.165-.065a4.387,4.387,0,0,0-.118-3.67c-.023-.068-.045-.139-.069-.211a4.045,4.045,0,0,1-.26-1.145l.176,0a3.993,3.993,0,0,0,.253,1.087c.023.073.046.144.066.21A4.523,4.523,0,0,1,933.6,255.012Z" fill="#81c9b1"/>
            <path id="Trazado_101368" data-name="Trazado 101368" d="M933.1,256.46c.756-.24,1.214-1.61.642-2.15l0,.07c-.126-.085-.352.007-.553.29A1.878,1.878,0,0,0,933.1,256.46Z" fill="#81c9b1"/>
            <path id="Trazado_101369" data-name="Trazado 101369" d="M931.958,254.864c.512-.281.651-1.333.163-1.642l.011.051c-.1-.044-.252.054-.359.286A1.382,1.382,0,0,0,931.958,254.864Z" fill="#81c9b1"/>
          </g>
        </g>
        <g id="Grupo_69697" data-name="Grupo 69697">
          <g id="Grupo_69694" data-name="Grupo 69694">
            <path id="Trazado_101370" data-name="Trazado 101370" d="M934.823,259.61a9.582,9.582,0,0,0-.691-1.146c-.477-.554-2.055-1.042-2.27-1.635-.3-.963,1.686.666,1.95.988.371.5,1.033,1.237,1.037,1.836Z" fill="#81c9b1"/>
            <path id="Trazado_101371" data-name="Trazado 101371" d="M934.788,259.219c-.1-.827.89-2.355.482-2.894-1.142.617-.668,2.116-.486,2.777Z" fill="#81c9b1"/>
            <path id="Trazado_101372" data-name="Trazado 101372" d="M934.221,257.524c-.62-1.128-1.892-1.743-2.468-2.9,1.3-.437,2.281,2.288,2.452,2.966Z" fill="#81c9b1"/>
            <path id="Trazado_101373" data-name="Trazado 101373" d="M934.114,257.163c-.428-.936,1.32-1.134,1.046-2.52-.936.152-1.35,1.757-.98,2.55Z" fill="#81c9b1"/>
            <path id="Trazado_101374" data-name="Trazado 101374" d="M933.233,252.523c-.374-.734-.852-2.8-.073-3.312.7.685-.119,2.371.073,3.312Z" fill="#81c9b1"/>
            <path id="Trazado_101375" data-name="Trazado 101375" d="M933.246,253.3l.005,0c-.013-.642-.66-2.017-1.432-1.981C931.659,251.968,932.911,252.643,933.246,253.3Z" fill="#81c9b1"/>
            <path id="Trazado_101376" data-name="Trazado 101376" d="M933.651,255.116l0-.006c-.132-.818-1.167-2.6-2.092-2.58C931.493,253.353,933.124,254.261,933.651,255.116Z" fill="#81c9b1"/>
            <path id="Trazado_101377" data-name="Trazado 101377" d="M934.562,252.475c-.849-.333-.927,2.041-.813,3.171a5.027,5.027,0,0,1,.182-.928C933.975,254.391,934.827,252.616,934.562,252.475Z" fill="#81c9b1"/>
            <path id="Trazado_101378" data-name="Trazado 101378" d="M935.377,260.729a.078.078,0,0,1-.069-.043,28.754,28.754,0,0,1-2.288-9.167.078.078,0,0,1,.072-.082.077.077,0,0,1,.081.072,28.629,28.629,0,0,0,2.275,9.111.077.077,0,0,1-.037.1A.083.083,0,0,1,935.377,260.729Z" fill="#81c9b1"/>
          </g>
          <path id="Trazado_101379" data-name="Trazado 101379" d="M936.064,260.078c.409-.371,1.076-.783,1.252-1.342.356-.955-.875-1.756-1.2-.7-1.08-1.571-1.312,1.037-.911,1.819-.306-.379-.947-1.071-1.451-1.1-.8-.084-.871.6-.272,1.035-.531.2-2,.963-.718,1.308a4.547,4.547,0,0,0,2.014-.479c-.438.438-1.419,1.188-1.246,1.945.2.691.859.392,1.214-.123.28,1.484,1.172.054,1.077-.787.15.547.485,1.3,1.116,1.228.534-.036.992-.863.338-1,1.064-.234.884-1.152-.215-1.015.336-.127,1.087-.023,1.37-.292.312-.337.228-.853-.354-.8.795-.955-.119-1.492-.919-.7-.408.371-.746.936-1.159,1.146Z" fill="#e8ca4d"/>
          <g id="Grupo_69695" data-name="Grupo 69695">
            <path id="Trazado_101380" data-name="Trazado 101380" d="M936.536,261.635c.576,1.945,3.808,2.318,5.413,2.882-2.021-.749-3.022-2.968-5.417-2.927Z" fill="#81c9b1"/>
            <path id="Trazado_101381" data-name="Trazado 101381" d="M937.081,261.748c1.606,1.4.717,3.568.629,5.509a5.21,5.21,0,0,1-1.858-3.631c-.005-.679.473-2.671,1.447-1.7Z" fill="#81c9b1"/>
          </g>
          <g id="Grupo_69696" data-name="Grupo 69696">
            <path id="Trazado_101382" data-name="Trazado 101382" d="M940.872,266.865a5.586,5.586,0,0,1-2.9-2.862,13.765,13.765,0,0,0-1-1.532,4.163,4.163,0,0,0-2.238-1.629l.039-.172a4.413,4.413,0,0,1,2.336,1.69,13.226,13.226,0,0,1,1.011,1.555,5.463,5.463,0,0,0,2.809,2.786Z" fill="#81c9b1"/>
            <path id="Trazado_101383" data-name="Trazado 101383" d="M942.653,266.279a4.391,4.391,0,0,0-3.239-1.731l-.212-.047a4.128,4.128,0,0,1-1.127-.347l.091-.152a4.012,4.012,0,0,0,1.073.326l.21.046a4.538,4.538,0,0,1,3.342,1.794Z" fill="#81c9b1"/>
            <path id="Trazado_101384" data-name="Trazado 101384" d="M943.79,267.335c.169-.774-.787-1.858-1.542-1.633l.062.034c-.135.066-.169.309-.025.625A1.881,1.881,0,0,0,943.79,267.335Z" fill="#81c9b1"/>
            <path id="Trazado_101385" data-name="Trazado 101385" d="M941.837,267.52c.014-.582-.826-1.23-1.338-.962l.048.016c-.088.068-.08.247.069.455A1.38,1.38,0,0,0,941.837,267.52Z" fill="#81c9b1"/>
          </g>
        </g>
        <g id="Grupo_69701" data-name="Grupo 69701">
          <g id="Grupo_69698" data-name="Grupo 69698">
            <path id="Trazado_101386" data-name="Trazado 101386" d="M947.38,267.412a9.752,9.752,0,0,0-1.336.027c-.72.137-1.932,1.257-2.551,1.146-.982-.224,1.418-1.126,1.829-1.193a4.089,4.089,0,0,1,2.11.019Z" fill="#81c9b1"/>
            <path id="Trazado_101387" data-name="Trazado 101387" d="M947.023,267.247c-.762-.329-1.591-1.948-2.263-1.864-.036,1.3,1.5,1.637,2.163,1.811Z" fill="#81c9b1"/>
            <path id="Trazado_101388" data-name="Trazado 101388" d="M945.274,266.889c-1.288-.025-2.455.769-3.743.691.27-1.343,3.123-.831,3.8-.639Z" fill="#81c9b1"/>
            <path id="Trazado_101389" data-name="Trazado 101389" d="M944.909,266.8c-1.026-.1-.322-1.711-1.66-2.165-.337.886.845,2.046,1.719,2.12Z" fill="#81c9b1"/>
            <path id="Trazado_101390" data-name="Trazado 101390" d="M940.449,265.245c-.822-.041-2.85-.661-2.9-1.592.941-.259,1.994,1.288,2.9,1.592Z" fill="#81c9b1"/>
            <path id="Trazado_101391" data-name="Trazado 101391" d="M941.132,265.625v-.005c-.562-.311-2.078-.439-2.432.249C939.183,266.331,940.392,265.587,941.132,265.625Z" fill="#81c9b1"/>
            <path id="Trazado_101392" data-name="Trazado 101392" d="M942.9,266.182v-.007c-.777-.295-2.834-.289-3.282.52C940.3,267.169,941.9,266.209,942.9,266.182Z" fill="#81c9b1"/>
            <path id="Trazado_101393" data-name="Trazado 101393" d="M941.072,264.073c-.714.567,1.3,1.823,2.34,2.289a5,5,0,0,1-.714-.624C942.437,265.538,941.326,263.914,941.072,264.073Z" fill="#81c9b1"/>
            <path id="Trazado_101394" data-name="Trazado 101394" d="M948.563,267.53h-.007a28.705,28.705,0,0,1-9.082-2.6.077.077,0,0,1-.036-.1.076.076,0,0,1,.1-.033,28.673,28.673,0,0,0,9.026,2.585.077.077,0,0,1-.005.153Z" fill="#81c9b1"/>
          </g>
          <path id="Trazado_101395" data-name="Trazado 101395" d="M948.409,266.573a3.836,3.836,0,0,0-.538-1.756c-.65-.786-1.959-.121-1.208.682-1.9.15.242,1.654,1.12,1.7-.481.076-1.4.286-1.68.707-.473.65.084,1.054.758.752-.092.556-.162,2.212.776,1.275a4.519,4.519,0,0,0,.592-1.982c.16.6.32,1.822,1.062,2.051.7.169.769-.547.5-1.114,1.426.5.634-.986-.143-1.323.55.142,1.368.227,1.622-.355.236-.481-.251-1.291-.7-.794.329-1.039-.557-1.341-.989-.32.06-.356.525-.954.432-1.333-.134-.44-.624-.626-.868-.1-.429-1.163-1.35-.641-1.064.447a7.555,7.555,0,0,1,.412,1.577Z" fill="#e8ca4d"/>
          <g id="Grupo_69699" data-name="Grupo 69699">
            <path id="Trazado_101396" data-name="Trazado 101396" d="M949.992,266.942c1.973.472,3.91-2.139,5.2-3.249-1.66,1.376-4.081,1.137-5.243,3.231Z" fill="#81c9b1"/>
            <path id="Trazado_101397" data-name="Trazado 101397" d="M950.362,266.528c2.017-.691,3.448,1.161,5.086,2.209a5.221,5.221,0,0,1-4.074-.206c-.591-.338-2.076-1.747-.753-2.106Z" fill="#81c9b1"/>
          </g>
          <g id="Grupo_69700" data-name="Grupo 69700">
            <path id="Trazado_101398" data-name="Trazado 101398" d="M948.407,268.1l-.13-.12a4.4,4.4,0,0,1,2.631-1.178,13.583,13.583,0,0,1,1.853-.1,5.445,5.445,0,0,0,3.817-1.039l.112.138a5.592,5.592,0,0,1-3.928,1.078,13.44,13.44,0,0,0-1.827.1A4.154,4.154,0,0,0,948.407,268.1Z" fill="#81c9b1"/>
            <path id="Trazado_101399" data-name="Trazado 101399" d="M952.943,266.869l-.087-.155a3.967,3.967,0,0,0,.817-.764c.051-.057.1-.111.147-.161a4.534,4.534,0,0,1,3.224-2l.027.174a4.394,4.394,0,0,0-3.119,1.939l-.147.163A4.131,4.131,0,0,1,952.943,266.869Z" fill="#81c9b1"/>
            <path id="Trazado_101400" data-name="Trazado 101400" d="M958.555,263.508c-.587-.533-2-.246-2.185.52l.06-.037c-.012.151.181.3.528.335A1.878,1.878,0,0,0,958.555,263.508Z" fill="#81c9b1"/>
            <path id="Trazado_101401" data-name="Trazado 101401" d="M957.738,265.293c-.5-.3-1.477.1-1.5.678l.038-.033c.012.109.172.192.425.167A1.377,1.377,0,0,0,957.738,265.293Z" fill="#81c9b1"/>
          </g>
        </g>
        <g id="Grupo_69705" data-name="Grupo 69705">
          <g id="Grupo_69702" data-name="Grupo 69702">
            <path id="Trazado_101402" data-name="Trazado 101402" d="M960.417,260.439a9.847,9.847,0,0,0-.646,1.171c-.241.689.123,2.3-.281,2.782-.685.739-.266-1.791-.12-2.181.243-.57.556-1.514,1.072-1.817Z" fill="#81c9b1"/>
            <path id="Trazado_101403" data-name="Trazado 101403" d="M960.095,260.664c-.667.5-2.482.406-2.745,1.029,1.105.681,2.167-.478,2.648-.966Z" fill="#81c9b1"/>
            <path id="Trazado_101404" data-name="Trazado 101404" d="M958.912,262c-.667,1.1-.563,2.511-1.274,3.587-1.028-.906.84-3.12,1.342-3.605Z" fill="#81c9b1"/>
            <path id="Trazado_101405" data-name="Trazado 101405" d="M958.654,262.275c-.6.84-1.643-.575-2.705.354.6.736,2.2.293,2.7-.426Z" fill="#81c9b1"/>
            <path id="Trazado_101406" data-name="Trazado 101406" d="M955.076,265.358c-.448.692-2,2.138-2.832,1.72.245-.945,2.112-1.083,2.832-1.72Z" fill="#81c9b1"/>
            <path id="Trazado_101407" data-name="Trazado 101407" d="M955.745,264.957l-.005,0c-.549.332-1.418,1.581-1,2.231C955.383,267,955.342,265.578,955.745,264.957Z" fill="#81c9b1"/>
            <path id="Trazado_101408" data-name="Trazado 101408" d="M957.113,263.7h-.006c-.644.525-1.668,2.31-1.191,3.1C956.665,266.45,956.635,264.584,957.113,263.7Z" fill="#81c9b1"/>
            <path id="Trazado_101409" data-name="Trazado 101409" d="M954.37,264.234c.135.9,2.231-.219,3.154-.884a4.954,4.954,0,0,1-.9.307C956.321,263.783,954.358,263.932,954.37,264.234Z" fill="#81c9b1"/>
            <path id="Trazado_101410" data-name="Trazado 101410" d="M954.271,266.058a.078.078,0,0,1-.043-.143,28.49,28.49,0,0,0,6.752-6.523.077.077,0,0,1,.107-.019.076.076,0,0,1,.02.107,28.737,28.737,0,0,1-6.794,6.565A.077.077,0,0,1,954.271,266.058Z" fill="#81c9b1"/>
          </g>
          <path id="Trazado_101411" data-name="Trazado 101411" d="M960.2,259.128a3.842,3.842,0,0,0-1.789-.411c-1.005.169-1.082,1.636-.012,1.388-.819,1.719,1.554.616,2.031-.124a2.855,2.855,0,0,0-.228,1.809c.325.735.954.457,1.029-.281.437.36,1.834,1.247,1.493-.033-.121-.5-1.026-1.178-1.421-1.505.6.162,1.738.635,2.308.107.5-.522-.091-.939-.715-.988,1.144-.986-.539-1.043-1.219-.54.4-.4.881-1.069.5-1.58-.3-.445-1.244-.428-1.036.208-.733-.805-1.441-.189-.772.694-.279-.227-.564-.93-.94-1.041-.446-.1-.853.23-.515.707-1.224-.21-1.231.847-.145,1.145a7.317,7.317,0,0,1,1.572.432Z" fill="#e8ca4d"/>
          <g id="Grupo_69703" data-name="Grupo 69703">
            <path id="Trazado_101412" data-name="Trazado 101412" d="M961.314,257.942c1.4-1.472.1-4.456-.21-6.129.362,2.125-1.057,4.1.174,6.155Z" fill="#81c9b1"/>
            <path id="Trazado_101413" data-name="Trazado 101413" d="M961.141,257.413c.409-2.091,2.731-2.4,4.455-3.3a5.212,5.212,0,0,1-2.214,3.425c-.587.343-2.549.925-2.2-.4Z" fill="#81c9b1"/>
          </g>
          <g id="Grupo_69704" data-name="Grupo 69704">
            <path id="Trazado_101414" data-name="Trazado 101414" d="M961.358,259.946a4.429,4.429,0,0,1,.294-2.867,13.916,13.916,0,0,1,.841-1.656A5.446,5.446,0,0,0,963.5,251.6l.176-.026a5.6,5.6,0,0,1-1.03,3.939,13.519,13.519,0,0,0-.831,1.632,4.16,4.16,0,0,0-.29,2.75Z" fill="#81c9b1"/>
            <path id="Trazado_101415" data-name="Trazado 101415" d="M962.727,255.35l-.177,0a3.965,3.965,0,0,0-.252-1.087l-.068-.209a4.533,4.533,0,0,1-.116-3.792l.164.065a4.4,4.4,0,0,0,.12,3.671c.022.068.045.137.067.211A4.116,4.116,0,0,1,962.727,255.35Z" fill="#81c9b1"/>
            <path id="Trazado_101416" data-name="Trazado 101416" d="M962.624,248.81c-.757.241-1.216,1.612-.643,2.152l0-.071c.125.084.352-.006.554-.291A1.878,1.878,0,0,0,962.624,248.81Z" fill="#81c9b1"/>
            <path id="Trazado_101417" data-name="Trazado 101417" d="M963.76,250.408c-.51.28-.651,1.332-.162,1.641l-.01-.051c.1.043.252-.053.357-.286A1.377,1.377,0,0,0,963.76,250.408Z" fill="#81c9b1"/>
          </g>
        </g>
        <g id="Grupo_69709" data-name="Grupo 69709">
          <g id="Grupo_69706" data-name="Grupo 69706">
            <path id="Trazado_101418" data-name="Trazado 101418" d="M960.9,245.662a9.783,9.783,0,0,0,.691,1.145c.476.554,2.056,1.045,2.269,1.635.3.963-1.684-.665-1.948-.986-.372-.5-1.033-1.241-1.039-1.839Z" fill="#81c9b1"/>
            <path id="Trazado_101419" data-name="Trazado 101419" d="M960.931,246.054c.1.825-.891,2.353-.482,2.892,1.142-.618.669-2.116.486-2.778Z" fill="#81c9b1"/>
            <path id="Trazado_101420" data-name="Trazado 101420" d="M961.5,247.747c.621,1.128,1.893,1.742,2.469,2.9-1.3.436-2.282-2.288-2.452-2.968Z" fill="#81c9b1"/>
            <path id="Trazado_101421" data-name="Trazado 101421" d="M961.606,248.1c.428.938-1.322,1.137-1.045,2.523.936-.153,1.348-1.755.977-2.55Z" fill="#81c9b1"/>
            <path id="Trazado_101422" data-name="Trazado 101422" d="M962.486,252.748c.374.732.852,2.8.074,3.312-.7-.685.118-2.371-.074-3.312Z" fill="#81c9b1"/>
            <path id="Trazado_101423" data-name="Trazado 101423" d="M962.472,251.967l0,.005c.012.639.66,2.016,1.433,1.978C964.059,253.3,962.809,252.628,962.472,251.967Z" fill="#81c9b1"/>
            <path id="Trazado_101424" data-name="Trazado 101424" d="M962.069,250.155l-.006.005c.133.819,1.167,2.6,2.092,2.58C964.226,251.918,962.595,251.011,962.069,250.155Z" fill="#81c9b1"/>
            <path id="Trazado_101425" data-name="Trazado 101425" d="M961.158,252.8c.847.333.927-2.039.814-3.172a4.953,4.953,0,0,1-.185.929C961.744,250.88,960.893,252.656,961.158,252.8Z" fill="#81c9b1"/>
            <path id="Trazado_101426" data-name="Trazado 101426" d="M962.622,253.833a.077.077,0,0,1-.077-.072,28.561,28.561,0,0,0-2.274-9.11.076.076,0,0,1,.037-.1.078.078,0,0,1,.1.036,28.76,28.76,0,0,1,2.288,9.167.075.075,0,0,1-.072.081Z" fill="#81c9b1"/>
          </g>
          <path id="Trazado_101427" data-name="Trazado 101427" d="M959.654,245.192c-.409.371-1.075.785-1.25,1.343-.356.956.874,1.757,1.194.706,1.08,1.569,1.312-1.039.91-1.819.306.377.948,1.07,1.453,1.1.8.084.872-.6.271-1.033.53-.2,2-.965.717-1.309a4.538,4.538,0,0,0-2.014.478c.439-.438,1.421-1.188,1.247-1.945-.2-.691-.858-.391-1.215.124-.279-1.484-1.171-.056-1.075.786-.15-.548-.487-1.3-1.116-1.228-.535.036-.993.865-.339,1-1.063.233-.884,1.154.216,1.015-.337.128-1.087.025-1.369.293-.314.337-.231.854.352.8-.794.954.118,1.491.919.7.408-.371.745-.936,1.16-1.146Z" fill="#e8ca4d"/>
          <g id="Grupo_69707" data-name="Grupo 69707">
            <path id="Trazado_101428" data-name="Trazado 101428" d="M959.183,243.635c-.577-1.944-3.808-2.317-5.414-2.881,2.021.749,3.024,2.967,5.418,2.926Z" fill="#81c9b1"/>
            <path id="Trazado_101429" data-name="Trazado 101429" d="M958.638,243.522c-1.6-1.4-.717-3.567-.629-5.508a5.22,5.22,0,0,1,1.86,3.631c0,.679-.475,2.671-1.449,1.7Z" fill="#81c9b1"/>
          </g>
          <g id="Grupo_69708" data-name="Grupo 69708">
            <path id="Trazado_101430" data-name="Trazado 101430" d="M960.94,244.6a4.41,4.41,0,0,1-2.336-1.69,13.727,13.727,0,0,1-1.012-1.555,5.464,5.464,0,0,0-2.809-2.787l.064-.164a5.593,5.593,0,0,1,2.9,2.862,13.267,13.267,0,0,0,1,1.534,4.267,4.267,0,0,0,2.237,1.629Z" fill="#81c9b1"/>
            <path id="Trazado_101431" data-name="Trazado 101431" d="M957.553,241.269a3.952,3.952,0,0,0-1.073-.325l-.209-.047a4.532,4.532,0,0,1-3.342-1.795l.139-.109a4.393,4.393,0,0,0,3.237,1.732l.211.044a4.262,4.262,0,0,1,1.129.347Z" fill="#81c9b1"/>
            <path id="Trazado_101432" data-name="Trazado 101432" d="M951.929,237.935c-.169.777.787,1.859,1.541,1.634l-.062-.034c.136-.065.171-.307.026-.625A1.882,1.882,0,0,0,951.929,237.935Z" fill="#81c9b1"/>
            <path id="Trazado_101433" data-name="Trazado 101433" d="M953.881,237.75c-.014.583.829,1.23,1.339.963l-.049-.016c.089-.066.08-.246-.068-.452A1.381,1.381,0,0,0,953.881,237.75Z" fill="#81c9b1"/>
          </g>
        </g>
      </g>
    </g>
  </g>
</svg>
