<svg xmlns="http://www.w3.org/2000/svg" width="250.086" height="181.586" viewBox="0 0 250.086 181.586">
  <g id="Grupo_70262" data-name="Grupo 70262" transform="translate(-840.587 -2001.618)">
    <g id="Grupo_70314" data-name="Grupo 70314" transform="translate(840.587 2001.618)">
      <g id="Grupo_70262-2" data-name="Grupo 70262" transform="translate(0 24.273)">
        <path id="Trazado_102718" data-name="Trazado 102718" d="M1078.573,2029.142H852.688a12.115,12.115,0,0,0-12.1,12.1v133.11a12.115,12.115,0,0,0,12.1,12.1h225.885a12.115,12.115,0,0,0,12.1-12.1v-133.11A12.114,12.114,0,0,0,1078.573,2029.142Z" transform="translate(-840.587 -2029.142)" fill="#ceb8a7"/>
      </g>
      <g id="Grupo_70263" data-name="Grupo 70263" transform="translate(112.942 161.417)">
        <rect id="Rectángulo_5611" data-name="Rectángulo 5611" width="24.202" height="20.168" fill="#a59386"/>
      </g>
      <g id="Grupo_70264" data-name="Grupo 70264" transform="translate(16.245 137.215)">
        <path id="Trazado_102719" data-name="Trazado 102719" d="M1076.825,2169.313v12.1a4.034,4.034,0,0,1-4.034,4.034H863.042a4.034,4.034,0,0,1-4.034-4.034v-12.1l24.092-12.1,96.807,4.034,80.673-4.034Z" transform="translate(-859.008 -2157.212)" fill="#e4cbb7"/>
      </g>
      <g id="Grupo_70265" data-name="Grupo 70265" transform="translate(16.245)">
        <path id="Trazado_102720" data-name="Trazado 102720" d="M864.667,2156.5a127.9,127.9,0,0,1,103.249,2.5V2013.79a127.894,127.894,0,0,0-106.513-1.1,4.086,4.086,0,0,0-2.4,3.727v136.4A4.049,4.049,0,0,0,864.667,2156.5Z" transform="translate(-859.008 -2001.618)" fill="#fef6ef"/>
      </g>
      <g id="Grupo_70266" data-name="Grupo 70266" transform="translate(125.153)">
        <path id="Trazado_102721" data-name="Trazado 102721" d="M982.5,2159a127.9,127.9,0,0,1,103.25-2.5,4.048,4.048,0,0,0,5.659-3.687v-136.4a4.086,4.086,0,0,0-2.4-3.727,127.894,127.894,0,0,0-106.513,1.1Z" transform="translate(-982.504 -2001.618)" fill="#fae6d6"/>
      </g>
      <g id="Grupo_70268" data-name="Grupo 70268" transform="translate(137.254 119.812)">
        <g id="Grupo_70267" data-name="Grupo 70267">
          <path id="Trazado_102722" data-name="Trazado 102722" d="M1000.26,2148.707a4.035,4.035,0,0,1-1.209-7.884c4.081-1.282,8.28-2.378,12.483-3.258a4.033,4.033,0,0,1,1.654,7.9c-3.947.827-7.89,1.857-11.719,3.06A4.048,4.048,0,0,1,1000.26,2148.707Z" transform="translate(-996.226 -2137.479)" fill="#868491"/>
        </g>
      </g>
      <g id="Grupo_70270" data-name="Grupo 70270" transform="translate(165.49 117.091)">
        <g id="Grupo_70269" data-name="Grupo 70269">
          <path id="Trazado_102723" data-name="Trazado 102723" d="M1080.681,2148.342a4.04,4.04,0,0,1-1.209-.187,123.142,123.142,0,0,0-46.875-5.306,4.034,4.034,0,0,1-.638-8.043,131.42,131.42,0,0,1,49.933,5.653,4.035,4.035,0,0,1-1.21,7.884Z" transform="translate(-1028.244 -2134.393)" fill="#868491"/>
        </g>
      </g>
      <g id="Grupo_70272" data-name="Grupo 70272" transform="translate(137.255 100.883)">
        <g id="Grupo_70271" data-name="Grupo 70271">
          <path id="Trazado_102724" data-name="Trazado 102724" d="M1076.9,2129.989a4.017,4.017,0,0,1-1.209-.187,123.268,123.268,0,0,0-74.221,0,4.033,4.033,0,1,1-2.419-7.7,131.278,131.278,0,0,1,79.058,0,4.034,4.034,0,0,1-1.209,7.883Z" transform="translate(-996.227 -2116.013)" fill="#868491"/>
        </g>
      </g>
      <g id="Grupo_70274" data-name="Grupo 70274" transform="translate(137.254 84.826)">
        <g id="Grupo_70273" data-name="Grupo 70273">
          <path id="Trazado_102725" data-name="Trazado 102725" d="M1000.26,2111.751a4.034,4.034,0,0,1-1.209-7.883,131.741,131.741,0,0,1,45.772-5.916,4.035,4.035,0,0,1-.386,8.06,123.565,123.565,0,0,0-42.968,5.552A4.078,4.078,0,0,1,1000.26,2111.751Z" transform="translate(-996.226 -2097.806)" fill="#868491"/>
        </g>
      </g>
      <g id="Grupo_70276" data-name="Grupo 70276" transform="translate(197.756 86.762)">
        <g id="Grupo_70275" data-name="Grupo 70275">
          <path id="Trazado_102726" data-name="Trazado 102726" d="M1085,2112.01a4.081,4.081,0,0,1-1.209-.186,124.3,124.3,0,0,0-15.63-3.816,4.034,4.034,0,0,1,1.4-7.945,132.561,132.561,0,0,1,16.646,4.064,4.034,4.034,0,0,1-1.209,7.883Z" transform="translate(-1064.831 -2100.001)" fill="#868491"/>
        </g>
      </g>
      <g id="Grupo_70278" data-name="Grupo 70278" transform="translate(137.255 68.614)">
        <g id="Grupo_70277" data-name="Grupo 70277">
          <path id="Trazado_102727" data-name="Trazado 102727" d="M1076.9,2093.4a4.062,4.062,0,0,1-1.209-.187,123.238,123.238,0,0,0-74.221,0,4.034,4.034,0,0,1-2.419-7.7,131.316,131.316,0,0,1,79.058,0,4.035,4.035,0,0,1-1.209,7.884Z" transform="translate(-996.227 -2079.423)" fill="#868491"/>
        </g>
      </g>
      <g id="Grupo_70280" data-name="Grupo 70280" transform="translate(137.254 53.287)">
        <g id="Grupo_70279" data-name="Grupo 70279">
          <path id="Trazado_102728" data-name="Trazado 102728" d="M1000.26,2075.211a4.035,4.035,0,0,1-1.209-7.884,132.184,132.184,0,0,1,24.97-5.256,4.033,4.033,0,1,1,.891,8.017,123.986,123.986,0,0,0-23.442,4.936A4.063,4.063,0,0,1,1000.26,2075.211Z" transform="translate(-996.226 -2062.042)" fill="#868491"/>
        </g>
      </g>
      <g id="Grupo_70282" data-name="Grupo 70282" transform="translate(177.594 52.518)">
        <g id="Grupo_70281" data-name="Grupo 70281">
          <path id="Trazado_102729" data-name="Trazado 102729" d="M1082.3,2075.108a4.048,4.048,0,0,1-1.209-.187,123.606,123.606,0,0,0-35.153-5.676,4.034,4.034,0,1,1,.126-8.068,131.821,131.821,0,0,1,37.445,6.046,4.036,4.036,0,0,1-1.21,7.885Z" transform="translate(-1041.969 -2061.17)" fill="#868491"/>
        </g>
      </g>
      <g id="Grupo_70284" data-name="Grupo 70284" transform="translate(137.254 36.41)">
        <g id="Grupo_70283" data-name="Grupo 70283">
          <path id="Trazado_102730" data-name="Trazado 102730" d="M1000.26,2056.862a4.035,4.035,0,0,1-1.209-7.884,131.029,131.029,0,0,1,54.092-5.255,4.034,4.034,0,0,1,3.565,4.453,3.982,3.982,0,0,1-4.455,3.563,123.114,123.114,0,0,0-50.783,4.936A4.033,4.033,0,0,1,1000.26,2056.862Z" transform="translate(-996.226 -2042.905)" fill="#868491"/>
        </g>
      </g>
      <g id="Grupo_70286" data-name="Grupo 70286" transform="translate(205.825 40.05)">
        <g id="Grupo_70285" data-name="Grupo 70285">
          <path id="Trazado_102731" data-name="Trazado 102731" d="M1086.084,2057.351a4.05,4.05,0,0,1-1.209-.187c-2.56-.806-5.188-1.536-7.815-2.177a4.035,4.035,0,0,1,1.914-7.839c2.793.682,5.59,1.462,8.32,2.319a4.036,4.036,0,0,1-1.21,7.885Z" transform="translate(-1073.982 -2047.033)" fill="#868491"/>
        </g>
      </g>
      <g id="Grupo_70288" data-name="Grupo 70288" transform="translate(137.254 23.87)">
        <g id="Grupo_70287" data-name="Grupo 70287">
          <path id="Trazado_102732" data-name="Trazado 102732" d="M1000.26,2039a4.035,4.035,0,0,1-1.205-7.884c2.773-.87,5.57-1.648,8.315-2.315a4.034,4.034,0,1,1,1.906,7.839c-2.576.626-5.2,1.356-7.811,2.174A4.036,4.036,0,0,1,1000.26,2039Z" transform="translate(-996.226 -2028.685)" fill="#868491"/>
        </g>
      </g>
      <g id="Grupo_70290" data-name="Grupo 70290" transform="translate(161.456 20.228)">
        <g id="Grupo_70289" data-name="Grupo 70289">
          <path id="Trazado_102733" data-name="Trazado 102733" d="M1080.141,2038.514a4.04,4.04,0,0,1-1.209-.187,123.16,123.16,0,0,0-50.783-4.936,4.032,4.032,0,1,1-.891-8.015,131.052,131.052,0,0,1,54.092,5.254,4.035,4.035,0,0,1-1.209,7.884Z" transform="translate(-1023.669 -2024.556)" fill="#868491"/>
        </g>
      </g>
      <g id="Grupo_70292" data-name="Grupo 70292" transform="translate(28.346 119.812)">
        <g id="Grupo_70291" data-name="Grupo 70291">
          <path id="Trazado_102734" data-name="Trazado 102734" d="M876.764,2148.707a4.035,4.035,0,0,1-1.21-7.884c4.081-1.282,8.28-2.378,12.483-3.258a4.033,4.033,0,1,1,1.654,7.9c-3.946.827-7.889,1.857-11.718,3.06A4.052,4.052,0,0,1,876.764,2148.707Z" transform="translate(-872.729 -2137.479)" fill="#b4b6bc"/>
        </g>
      </g>
      <g id="Grupo_70294" data-name="Grupo 70294" transform="translate(56.581 117.091)">
        <g id="Grupo_70293" data-name="Grupo 70293">
          <path id="Trazado_102735" data-name="Trazado 102735" d="M957.185,2148.342a4.039,4.039,0,0,1-1.209-.187,123.14,123.14,0,0,0-46.876-5.306,4.034,4.034,0,1,1-.638-8.043,131.422,131.422,0,0,1,49.932,5.653,4.035,4.035,0,0,1-1.209,7.884Z" transform="translate(-904.747 -2134.393)" fill="#b4b6bc"/>
        </g>
      </g>
      <g id="Grupo_70296" data-name="Grupo 70296" transform="translate(28.346 100.883)">
        <g id="Grupo_70295" data-name="Grupo 70295">
          <path id="Trazado_102736" data-name="Trazado 102736" d="M953.4,2129.989a4.019,4.019,0,0,1-1.209-.187,123.271,123.271,0,0,0-74.221,0,4.033,4.033,0,1,1-2.418-7.7,131.276,131.276,0,0,1,79.057,0,4.034,4.034,0,0,1-1.209,7.883Z" transform="translate(-872.73 -2116.013)" fill="#b4b6bc"/>
        </g>
      </g>
      <g id="Grupo_70298" data-name="Grupo 70298" transform="translate(28.346 84.826)">
        <g id="Grupo_70297" data-name="Grupo 70297">
          <path id="Trazado_102737" data-name="Trazado 102737" d="M876.764,2111.751a4.034,4.034,0,0,1-1.21-7.883,131.779,131.779,0,0,1,45.773-5.916,4.035,4.035,0,0,1-.386,8.06,123.56,123.56,0,0,0-42.968,5.552A4.072,4.072,0,0,1,876.764,2111.751Z" transform="translate(-872.729 -2097.806)" fill="#b4b6bc"/>
        </g>
      </g>
      <g id="Grupo_70300" data-name="Grupo 70300" transform="translate(88.847 86.762)">
        <g id="Grupo_70299" data-name="Grupo 70299">
          <path id="Trazado_102738" data-name="Trazado 102738" d="M961.507,2112.01a4.078,4.078,0,0,1-1.209-.186,124.3,124.3,0,0,0-15.63-3.816,4.034,4.034,0,0,1,1.4-7.945,132.528,132.528,0,0,1,16.647,4.064,4.034,4.034,0,0,1-1.21,7.883Z" transform="translate(-941.335 -2100.001)" fill="#b4b6bc"/>
        </g>
      </g>
      <g id="Grupo_70302" data-name="Grupo 70302" transform="translate(28.346 68.645)">
        <g id="Grupo_70301" data-name="Grupo 70301">
          <path id="Trazado_102739" data-name="Trazado 102739" d="M876.764,2093.4a4.035,4.035,0,0,1-1.21-7.884,131.952,131.952,0,0,1,70.734-2.317,4.034,4.034,0,1,1-1.906,7.84,123.8,123.8,0,0,0-66.41,2.174A4.044,4.044,0,0,1,876.764,2093.4Z" transform="translate(-872.729 -2079.458)" fill="#b4b6bc"/>
        </g>
      </g>
      <g id="Grupo_70304" data-name="Grupo 70304" transform="translate(28.346 53.287)">
        <g id="Grupo_70303" data-name="Grupo 70303">
          <path id="Trazado_102740" data-name="Trazado 102740" d="M876.764,2075.211a4.035,4.035,0,0,1-1.21-7.884,132.2,132.2,0,0,1,24.97-5.256,4.033,4.033,0,1,1,.89,8.017,124,124,0,0,0-23.441,4.936A4.067,4.067,0,0,1,876.764,2075.211Z" transform="translate(-872.729 -2062.042)" fill="#b4b6bc"/>
        </g>
      </g>
      <g id="Grupo_70306" data-name="Grupo 70306" transform="translate(68.686 52.517)">
        <g id="Grupo_70305" data-name="Grupo 70305">
          <path id="Trazado_102741" data-name="Trazado 102741" d="M950.743,2072.86a4.118,4.118,0,0,1-.957-.115,123.855,123.855,0,0,0-27.342-3.5,4.033,4.033,0,0,1-3.97-4.1,3.921,3.921,0,0,1,4.1-3.97,132.169,132.169,0,0,1,29.122,3.73,4.034,4.034,0,0,1-.95,7.954Z" transform="translate(-918.473 -2061.17)" fill="#b4b6bc"/>
        </g>
      </g>
      <g id="Grupo_70308" data-name="Grupo 70308" transform="translate(28.346 36.41)">
        <g id="Grupo_70307" data-name="Grupo 70307">
          <path id="Trazado_102742" data-name="Trazado 102742" d="M876.764,2056.862a4.035,4.035,0,0,1-1.21-7.884,131.043,131.043,0,0,1,54.092-5.255,4.034,4.034,0,0,1,3.565,4.453,3.991,3.991,0,0,1-4.455,3.563,123.118,123.118,0,0,0-50.784,4.936A4.027,4.027,0,0,1,876.764,2056.862Z" transform="translate(-872.729 -2042.905)" fill="#b4b6bc"/>
        </g>
      </g>
      <g id="Grupo_70310" data-name="Grupo 70310" transform="translate(28.346 23.87)">
        <g id="Grupo_70309" data-name="Grupo 70309">
          <path id="Trazado_102743" data-name="Trazado 102743" d="M876.764,2039a4.035,4.035,0,0,1-1.206-7.884c2.773-.87,5.57-1.648,8.315-2.315a4.034,4.034,0,0,1,1.907,7.839c-2.576.626-5.2,1.356-7.812,2.174A4.026,4.026,0,0,1,876.764,2039Z" transform="translate(-872.729 -2028.685)" fill="#b4b6bc"/>
        </g>
      </g>
      <g id="Grupo_70312" data-name="Grupo 70312" transform="translate(52.547 20.234)">
        <g id="Grupo_70311" data-name="Grupo 70311">
          <path id="Trazado_102744" data-name="Trazado 102744" d="M948.581,2036.265a4.107,4.107,0,0,1-.957-.115,123.55,123.55,0,0,0-42.972-2.759,4.033,4.033,0,1,1-.89-8.016,131.458,131.458,0,0,1,45.768,2.937,4.034,4.034,0,0,1-.949,7.954Z" transform="translate(-900.172 -2024.563)" fill="#b4b6bc"/>
        </g>
      </g>
      <g id="Grupo_70313" data-name="Grupo 70313" transform="translate(100.94 1.963)">
        <path id="Trazado_102745" data-name="Trazado 102745" d="M955.059,2076.571a2.017,2.017,0,0,0,3.135,1.679l8.966-5.978,8.965,5.978a2.017,2.017,0,0,0,3.135-1.679v-62.183a4.062,4.062,0,0,0-2.385-3.712,127.782,127.782,0,0,0-19.292-6.765,2.035,2.035,0,0,0-2.536,1.975Z" transform="translate(-955.048 -2003.844)" fill="#5d647f"/>
      </g>
    </g>
  </g>
</svg>
