<svg xmlns="http://www.w3.org/2000/svg" width="240.684" height="236.217" viewBox="0 0 240.684 236.217">
  <g id="Grupo_70338" data-name="Grupo 70338" transform="translate(-745.554 -2244.577)">
    <g id="Grupo_70337" data-name="Grupo 70337" transform="translate(745.554 2244.577)">
      <g id="Grupo_70327" data-name="Grupo 70327" transform="translate(50.233 151.756)">
        <g id="Grupo_70318" data-name="Grupo 70318" transform="translate(0 13.629)">
          <path id="Trazado_102746" data-name="Trazado 102746" d="M824.993,2463.643c0,19.293,8.877,28.569,8.877,28.569H814.605a4.761,4.761,0,0,1-3.928-2.074c-2.562-3.713-7.264-12.45-7.264-26.5s4.7-22.787,7.264-26.5a4.763,4.763,0,0,1,3.928-2.074H833.87s-8.877,9.277-8.877,28.574Z" transform="translate(-803.413 -2435.068)" fill="#ceb8a7"/>
          <path id="Trazado_102747" data-name="Trazado 102747" d="M833.87,2435.069s-8.625,9.011-8.872,27.755l-18.073,20.2a51.574,51.574,0,0,1-3.511-19.384c0-14.049,4.7-22.786,7.264-26.5a4.762,4.762,0,0,1,3.928-2.074Z" transform="translate(-803.413 -2435.068)" fill="#a59386"/>
          <path id="Trazado_102748" data-name="Trazado 102748" d="M975.912,2463.641A44.219,44.219,0,0,0,986,2492.213H831.568s-8.877-9.277-8.877-28.573,8.877-28.573,8.877-28.573H986A44.219,44.219,0,0,0,975.912,2463.641Z" transform="translate(-805.954 -2435.068)" fill="#e0d3ce"/>
          <g id="Grupo_70317" data-name="Grupo 70317" transform="translate(16.737 0.001)">
            <path id="Trazado_102749" data-name="Trazado 102749" d="M852.362,2435.069l-29.511,32.993c-.1-1.409-.16-2.884-.16-4.418,0-19.3,8.877-28.574,8.877-28.574Z" transform="translate(-822.691 -2435.069)" fill="#cdbfbb"/>
            <path id="Trazado_102750" data-name="Trazado 102750" d="M996.4,2463.644a44.214,44.214,0,0,0,10.092,28.572h-18.3a45.491,45.491,0,0,1,0-57.143h18.3A44.2,44.2,0,0,0,996.4,2463.644Z" transform="translate(-843.173 -2435.07)" fill="#cdbfbb"/>
          </g>
        </g>
        <g id="Grupo_70322" data-name="Grupo 70322" transform="translate(20.837)">
          <g id="Grupo_70320" data-name="Grupo 70320" transform="translate(0.002)">
            <path id="Trazado_102751" data-name="Trazado 102751" d="M997.022,2427.667a8.4,8.4,0,0,1-2.354,5.863,7.888,7.888,0,0,1-5.681,2.429H835.449a8.168,8.168,0,0,1-8.034-8.292,8.413,8.413,0,0,1,2.354-5.867,7.887,7.887,0,0,1,5.681-2.429H988.988A8.168,8.168,0,0,1,997.022,2427.667Z" transform="translate(-827.415 -2419.37)" fill="#ceb8a7"/>
            <g id="Grupo_70319" data-name="Grupo 70319">
              <path id="Trazado_102752" data-name="Trazado 102752" d="M865.174,2419.37l-14.833,16.589H835.449a8.168,8.168,0,0,1-8.034-8.292,8.413,8.413,0,0,1,2.354-5.867,7.887,7.887,0,0,1,5.681-2.429Z" transform="translate(-827.415 -2419.37)" fill="#a59386"/>
              <path id="Trazado_102753" data-name="Trazado 102753" d="M1019.188,2427.664a8.412,8.412,0,0,1-2.353,5.864,7.9,7.9,0,0,1-5.688,2.434H995.562a7.876,7.876,0,0,0,5.681-2.434,8.412,8.412,0,0,0,2.353-5.864,8.164,8.164,0,0,0-8.034-8.292h15.586A8.169,8.169,0,0,1,1019.188,2427.664Z" transform="translate(-849.576 -2419.37)" fill="#a59386"/>
            </g>
          </g>
          <g id="Grupo_70321" data-name="Grupo 70321" transform="translate(0 67.814)">
            <path id="Trazado_102754" data-name="Trazado 102754" d="M988.988,2514.067H835.449a8.3,8.3,0,0,1,0-16.588H988.988a8.3,8.3,0,0,1,0,16.588Z" transform="translate(-827.413 -2497.479)" fill="#ceb8a7"/>
            <path id="Trazado_102755" data-name="Trazado 102755" d="M1019.188,2505.772a8.412,8.412,0,0,1-2.353,5.864,7.925,7.925,0,0,1-5.688,2.427H995.562a7.893,7.893,0,0,0,5.681-2.427,8.412,8.412,0,0,0,2.353-5.864,8.165,8.165,0,0,0-8.034-8.292h15.586A8.17,8.17,0,0,1,1019.188,2505.772Z" transform="translate(-849.574 -2497.479)" fill="#a59386"/>
          </g>
        </g>
        <g id="Grupo_70326" data-name="Grupo 70326" transform="translate(16.931 29.878)">
          <g id="Grupo_70323" data-name="Grupo 70323">
            <path id="Trazado_102756" data-name="Trazado 102756" d="M899.778,2457.533a3.69,3.69,0,0,1-3.632,3.748H822.914a53.25,53.25,0,0,1,1.128-7.5h72.1A3.691,3.691,0,0,1,899.778,2457.533Z" transform="translate(-822.914 -2453.784)" fill="#cdbfbb"/>
          </g>
          <g id="Grupo_70324" data-name="Grupo 70324" transform="translate(99.528)">
            <path id="Trazado_102757" data-name="Trazado 102757" d="M992.694,2453.784a45.567,45.567,0,0,0-1.4,7.5H941.183a3.75,3.75,0,0,1,0-7.5h51.511Z" transform="translate(-937.551 -2453.784)" fill="#cdbfbb"/>
          </g>
          <g id="Grupo_70325" data-name="Grupo 70325" transform="translate(27.186 17.029)">
            <path id="Trazado_102758" data-name="Trazado 102758" d="M942.474,2480.9H857.859a3.75,3.75,0,0,1,0-7.5h84.615a3.75,3.75,0,0,1,0,7.5Z" transform="translate(-854.227 -2473.398)" fill="#cdbfbb"/>
          </g>
        </g>
      </g>
      <g id="Grupo_70336" data-name="Grupo 70336">
        <g id="Grupo_70330" data-name="Grupo 70330" transform="translate(0 95.309)">
          <g id="Grupo_70328" data-name="Grupo 70328" transform="translate(0 31.726)">
            <path id="Trazado_102759" data-name="Trazado 102759" d="M851.34,2404.286,838.367,2390.9l-88.314,84.143a14.756,14.756,0,0,0-.4,20.812,13.686,13.686,0,0,0,20.164-.416Z" transform="translate(-745.554 -2390.896)" fill="#873f30"/>
            <path id="Trazado_102760" data-name="Trazado 102760" d="M769.529,2496.48a13.684,13.684,0,0,1-19.772,0,14.381,14.381,0,0,1-3.41-5.751,13.657,13.657,0,0,0,14.192-3.508c.134-.138.267-.285.4-.428l81.528-91.15,8.983,9.272-81.528,91.15c-.13.142-.26.286-.39.419Z" transform="translate(-745.659 -2391.521)" fill="#6c3328"/>
          </g>
          <path id="Trazado_102761" data-name="Trazado 102761" d="M877.579,2354.354l-29.874,36.778,12.2,12.6,35.635-30.832Z" transform="translate(-759.017 -2354.354)" fill="#873f30"/>
          <path id="Trazado_102762" data-name="Trazado 102762" d="M878.309,2354.354l-9.654,11.884,2.9,2.99a5.762,5.762,0,0,1,0,7.968l-18.31,18.9,7.4,7.634,35.635-30.833Z" transform="translate(-759.747 -2354.354)" fill="#6c3328"/>
          <g id="Grupo_70329" data-name="Grupo 70329" transform="translate(78.802 29.248)">
            <path id="Trazado_102763" data-name="Trazado 102763" d="M850.733,2415.719l-11.846-12.226a9.26,9.26,0,0,1,0-12.8,8.579,8.579,0,0,1,12.4,0l11.846,12.227a9.257,9.257,0,0,1,0,12.8A8.579,8.579,0,0,1,850.733,2415.719Z" transform="translate(-836.319 -2388.042)" fill="#ba5d4f"/>
            <path id="Trazado_102764" data-name="Trazado 102764" d="M863.957,2416.571a8.579,8.579,0,0,1-12.4,0l-8.98-9.267a8.589,8.589,0,0,0,12.4,0,9.257,9.257,0,0,0,0-12.8l8.98,9.267A9.255,9.255,0,0,1,863.957,2416.571Z" transform="translate(-837.144 -2388.893)" fill="#a34f41"/>
          </g>
        </g>
        <g id="Grupo_70333" data-name="Grupo 70333" transform="translate(92.744 11.25)">
          <g id="Grupo_70331" data-name="Grupo 70331">
            <path id="Trazado_102765" data-name="Trazado 102765" d="M893.672,2257.534l26.3,27.148-41.3,42.621-26.3-27.148Z" transform="translate(-852.377 -2257.534)" fill="#ba5d4f"/>
          </g>
          <g id="Grupo_70332" data-name="Grupo 70332" transform="translate(57.617 59.502)">
            <path id="Trazado_102766" data-name="Trazado 102766" d="M945.044,2395.837l-26.3-27.148,41.3-42.621,26.3,27.148Z" transform="translate(-918.74 -2326.068)" fill="#a34f41"/>
          </g>
        </g>
        <g id="Grupo_70335" data-name="Grupo 70335" transform="translate(81.833)">
          <path id="Trazado_102767" data-name="Trazado 102767" d="M843.322,2307.8l-.914-.943a9.368,9.368,0,0,1,0-12.95l45.2-46.651a8.68,8.68,0,0,1,12.547,0l.913.944a9.365,9.365,0,0,1,0,12.949l-45.2,46.651A8.678,8.678,0,0,1,843.322,2307.8Z" transform="translate(-839.81 -2244.577)" fill="#873f30"/>
          <path id="Trazado_102768" data-name="Trazado 102768" d="M938.216,2405.741l.913.944a8.68,8.68,0,0,0,12.547,0l45.2-46.651a9.368,9.368,0,0,0,0-12.95l-.914-.943a8.678,8.678,0,0,0-12.547,0l-45.2,46.651A9.365,9.365,0,0,0,938.216,2405.741Z" transform="translate(-852.437 -2257.609)" fill="#6c3328"/>
          <g id="Grupo_70334" data-name="Grupo 70334" transform="translate(22.844 23.577)">
            <path id="Trazado_102769" data-name="Trazado 102769" d="M933.918,2277.316l29.538,30.487-62.367,64.37-29.538-30.486Z" transform="translate(-866.837 -2272.468)" fill="#fcc16d"/>
            <path id="Trazado_102770" data-name="Trazado 102770" d="M888.333,2359.07,950.7,2294.7l14.95,15.431-62.367,64.37Z" transform="translate(-869.049 -2274.759)" fill="#fca62f"/>
            <path id="Trazado_102771" data-name="Trazado 102771" d="M933.347,2275.3l-7.237-3.053a6.5,6.5,0,0,0-7.223,1.5l-50.817,52.447a7.028,7.028,0,0,0-1.453,7.455l2.958,7.469a4.373,4.373,0,0,0,7.243,1.506l57.987-59.85a4.649,4.649,0,0,0-1.459-7.475Z" transform="translate(-866.121 -2271.732)" fill="#873f30"/>
            <path id="Trazado_102772" data-name="Trazado 102772" d="M968.779,2311.867l2.958,7.469a7.03,7.03,0,0,1-1.453,7.455l-50.817,52.447a6.5,6.5,0,0,1-7.223,1.5l-7.237-3.054a4.649,4.649,0,0,1-1.458-7.475l57.986-59.848a4.373,4.373,0,0,1,7.244,1.5Z" transform="translate(-870.883 -2276.647)" fill="#6c3328"/>
          </g>
        </g>
      </g>
    </g>
  </g>
</svg>
