<svg xmlns="http://www.w3.org/2000/svg" width="190.983" height="190.983" viewBox="0 0 190.983 190.983">
  <g id="Grupo_69713" data-name="Grupo 69713" transform="translate(-1085.945 -132.452)">
    <rect id="Rectángulo_5423" data-name="Rectángulo 5423" width="190.983" height="190.983" transform="translate(1085.945 132.452)" fill="none"/>
    <g id="coronavirus">
      <g id="Grupo_69722" data-name="Grupo 69722">
        <g id="Grupo_69718" data-name="Grupo 69718">
          <g id="haed">
            <g id="Grupo_69716" data-name="Grupo 69716">
              <g id="Grupo_69713-2" data-name="Grupo 69713">
                <path id="Trazado_101434" data-name="Trazado 101434" d="M1211.854,185.261a6.076,6.076,0,0,1,.579-4.979c1.614-2.207,5.766-2.648,7.7-.715a5.779,5.779,0,0,1,1.593,4.59,3.418,3.418,0,0,0,.9,2.758c.1.09.211.213.156.334s-.2.118-.32.148c-.376.1-.549.528-.607.91a15.769,15.769,0,0,1-.5,2.739.86.86,0,0,1-.351.494,1.036,1.036,0,0,1-.623.063c-.71-.08-1.414-.2-2.115-.346a.4.4,0,0,0-.123.076,1.029,1.029,0,0,0-.215.512q-.483,2.141-.965,4.28a25.094,25.094,0,0,0-5.025-3.083,6.614,6.614,0,0,0,1-4.947A12.433,12.433,0,0,1,1211.854,185.261Z" fill="#ff8f67"/>
                <path id="Trazado_101435" data-name="Trazado 101435" d="M1219.122,191.524a.083.083,0,0,1-.034-.007c-.1-.035-2.474-.893-3.058-2.834a.1.1,0,0,1,.2-.06c.554,1.841,2.906,2.692,2.93,2.7a.1.1,0,0,1-.035.2Z" fill="#894c4c"/>
              </g>
              <g id="Grupo_69715" data-name="Grupo 69715">
                <g id="Grupo_69714" data-name="Grupo 69714">
                  <path id="Trazado_101436" data-name="Trazado 101436" d="M1221.4,184.982a.277.277,0,0,1-.128.006,1.212,1.212,0,0,0-.709.109.293.293,0,0,1-.282-.514,1.814,1.814,0,0,1,1.1-.172.293.293,0,0,1,.023.571Z" fill="#a86060"/>
                  <path id="Trazado_101437" data-name="Trazado 101437" d="M1221.259,185.614c.008.24-.078.442-.192.445s-.212-.189-.221-.431.079-.442.192-.447S1221.251,185.373,1221.259,185.614Z" fill="#a86060"/>
                </g>
              </g>
            </g>
            <path id="Trazado_101438" data-name="Trazado 101438" d="M1220.8,188.777a.083.083,0,0,1-.053-.02.082.082,0,0,1-.01-.116.9.9,0,0,1,.91-.232.083.083,0,0,1-.041.16.74.74,0,0,0-.743.178A.083.083,0,0,1,1220.8,188.777Z" fill="#894c4c"/>
            <g id="Grupo_69717" data-name="Grupo 69717">
              <path id="Trazado_101439" data-name="Trazado 101439" d="M1216.369,186.141a.093.093,0,0,1-.029,0l-.508-.147a.1.1,0,0,1-.07-.127.1.1,0,0,1,.127-.07l.508.146a.1.1,0,0,1-.028.2Z" fill="#894c4c"/>
              <path id="Trazado_101440" data-name="Trazado 101440" d="M1216.416,186.709h0a.1.1,0,0,1-.1-.1c.006-.264-.046-.982-.352-1.132a.1.1,0,0,1,.091-.185c.478.236.469,1.211.466,1.322A.1.1,0,0,1,1216.416,186.709Z" fill="#894c4c"/>
            </g>
          </g>
          <path id="Trazado_101441" data-name="Trazado 101441" d="M1221.583,179.329a5.959,5.959,0,0,0-2.767-2.16,7.034,7.034,0,0,0-7.074,1.621,6.451,6.451,0,0,0-1.8,6.478c.474,1.5,1.52,2.65,1.566,4.257a7.131,7.131,0,0,0,.025.728,2.97,2.97,0,0,0,.574-1.67,10.044,10.044,0,0,1,.11,2.383,3.507,3.507,0,0,0,1.591-.782,6.986,6.986,0,0,0,.989-1.414,5.578,5.578,0,0,0,.694-2.588c.035-.421.667-1.72,1.087-.909.217.416-.2,1.616.7,1.472a1.788,1.788,0,0,1,.21-1.689c.213-.338,1.029-1.148.979-1.556.021.181.035,1.361-.218,1.408,1.689-.313,4.068-2.4,3.816-4.309A3.077,3.077,0,0,0,1221.583,179.329Z" fill="#a86060"/>
        </g>
        <path id="Trazado_101442" data-name="Trazado 101442" d="M1192.619,270.174c-1.6-.863-3.229-2.616-5.219-2.205-1.476.3-3.381,1.791-3.257,3.418.1,1.314,1.885,2.229,2.862,2.977,2.373,1.817,4.264,3.467,7.115,4.3,2.771.806,7.324.8,4.328-2.894-.943-1.16-2.056-2.128-2.911-3.382-.5-.73-.244-.791-.981-1.353A14.806,14.806,0,0,0,1192.619,270.174Z" fill="#b57878"/>
        <g id="Grupo_69719" data-name="Grupo 69719">
          <path id="Trazado_101443" data-name="Trazado 101443" d="M1219.62,222.544h-11.995c-1.276-.054-2.385-.133-2.385-.133-4.972-.32-4.065-6.193-2.99-9.643.685-2.194-.141-3.675.131-5.75.271-2.049,1.044-3.037.845-5.2-.3-3.266,2.947-7.623,6.569-7.623h3.492a7.869,7.869,0,0,1,5.941,2.363c1.533,1.811.992,4.193,2.116,6.108,1.284,2.187.4,5,.852,7.388.494,2.59.644,5.05.923,7.689,0,0,.007.07.015.186C1223.187,218.782,1223.212,222.335,1219.62,222.544Z" fill="#b1e5d2"/>
        </g>
        <g id="Grupo_69720" data-name="Grupo 69720">
          <path id="Trazado_101444" data-name="Trazado 101444" d="M1231.243,271.724c-1.783.357-4.157.046-5.427,1.632-.942,1.176-1.459,3.535-.325,4.708.916.949,2.872.515,4.1.468,2.986-.116,5.495-.052,8.22-1.232,2.647-1.148,6.149-4.058,1.486-4.99-1.466-.293-2.942-.327-4.4-.748-.847-.244-.692-.453-1.62-.415A14.858,14.858,0,0,0,1231.243,271.724Z" fill="#b57878"/>
          <path id="Trazado_101445" data-name="Trazado 101445" d="M1231.739,246.505c1,2.889.891,6,1.742,8.9.749,2.557,1.884,5.258,2.16,7.9.235,2.262,1.855,4.14,2.345,6.328.551,2.466-1.369,2.224-3.039,2.733-.789.239-1.227.912-1.985,1.134-1.511.44-2.924-.9-4.458-.394-1.165.389-1.812,1.561-3.22,1.5-2.267-.1-2.839-5.244-3.119-7.353-.392-2.965-1.984-5.978-1.962-8.949.023-3.223-1.508-5.394-2.429-8.463s-2.07-5.636-2.653-8.873c-.571-3.169-3.231-4.737-3.877-8a9.1,9.1,0,0,0-1.325-4.013c-2.437-3.671-2.074-7.876,2.473-9.774a7.209,7.209,0,0,1,9.418,3.82q1.8,4.268,3.6,8.534,2.557,6.049,5.113,12.1c.392.928.852,1.854,1.186,2.806C1231.722,246.459,1231.731,246.481,1231.739,246.505Z" fill="#b1e5d2"/>
        </g>
        <path id="Trazado_101446" data-name="Trazado 101446" d="M1207.977,251.948c-.1.3-.2.6-.294.9-1.721,5.24-4.592,10.308-6.891,15.328-.628,1.371-2.168,6.524-3.293,6.741-2.079.4-4.541-2.952-6.475-3.589-1.677-.553-5.82-1.75-5.732-4.2.108-2.962,2.6-5.966,4-8.418.805-1.412.87-2.818,1.425-4.236.968-2.472,2.718-4.416,3.622-6.958.357-1,.734-1.937,1.019-2.975q1.105-4.023,2.21-8.046,1.77-6.449,3.542-12.9a7.185,7.185,0,1,1,13.856,3.8q-1.419,5.168-2.842,10.337C1210.806,242.532,1209.488,247.256,1207.977,251.948Z" fill="#b1e5d2"/>
        <path id="Trazado_101447" data-name="Trazado 101447" d="M1215.11,185.887a5.219,5.219,0,0,1,2.364-3.156c.463-.3,4.514-1.9,4.639-1.092-.164-1.062.731-1.371.578-2.377-.125-.828-1.464-2-2.073-2.464-5.437-4.1-12.173-.78-14.823,4.894a15.906,15.906,0,0,0-1.065,7.414c.174,3.941,1.371,9.549,6.33,8.36a10.788,10.788,0,0,1,3.849-.363c2.79.186,1.561-.993,1.079-2.7-.713-2.532-1.582-5.589-.939-8.278C1215.068,186.042,1215.089,185.964,1215.11,185.887Z" fill="#b1e5d2"/>
        <path id="Trazado_101448" data-name="Trazado 101448" d="M1222.208,186.149a.8.8,0,0,0-.193-.037,13.181,13.181,0,0,0-1.5.069l-2.772.132-.719,2.7a2.555,2.555,0,0,0,.563,1.57,2.493,2.493,0,0,0,1.225.906,3.3,3.3,0,0,0,1,.168,3.011,3.011,0,0,0,1.016-.009c.308-.1.424-.4.595-.656a8.219,8.219,0,0,0,.813-1.542,11.862,11.862,0,0,0,.543-1.861C1222.9,187.063,1222.745,186.326,1222.208,186.149Z" fill="#b1e5d2"/>
        <path id="Trazado_101449" data-name="Trazado 101449" d="M1217.968,186.6s-1.24-2.789-2.788-1.268l-.169.4s1.38-1.831,2.7,1.042S1217.968,186.6,1217.968,186.6Z" fill="#b1e5d2"/>
        <path id="Trazado_101450" data-name="Trazado 101450" d="M1217.744,187.355a2.984,2.984,0,0,1-2.817-1.972l-.14.451s.309,1.55,2.986,1.72S1217.744,187.355,1217.744,187.355Z" fill="#b1e5d2"/>
        <g id="Grupo_69721" data-name="Grupo 69721">
          <path id="Trazado_101451" data-name="Trazado 101451" d="M1207.776,193.847c-2.693,1.133-4.365,2.705-6.523,4.766a32.462,32.462,0,0,0-2.9,2.991c-1.149,1.407-2.757,2.061-3.919,3.416-1.174,1.371-1.639,3.18-2.648,4.677a10.97,10.97,0,0,0-1.729,3.411,22.4,22.4,0,0,0-1.142,4.668c-.148,2.582,1.02,3,3.427,3.451,2.1.391,2.092.224,2.867-1.779.631-1.629,1.086-3.256,1.825-4.863.894-1.953,2.123-2.61,3.67-4.225,1.71-1.785,2.56-2.793,4.88-3.568,1.91-.639,2.13-1.526,2.854-3.319.775-1.928,2.951-7.6.987-9.367-.548-.494-1.317-.652-1.727.073Z" fill="#b1e5d2"/>
          <path id="Trazado_101452" data-name="Trazado 101452" d="M1188.175,222.52c.239-1.386.572-4.679,2.674-4.614a4.863,4.863,0,0,1,2.6,1.186c1.451,1.2,1.171,3.37.857,5.01a2.425,2.425,0,0,0-.083.846c.054.242.378.442.409.635a.665.665,0,0,1-.8.731c-.475-.057-.671-.612-1.169-.436-.47.167-.3.715-.451,1.1a.889.889,0,0,1-1.07.565c-.219-.032-.487-.311-.622-.323-.313-.029-.211.212-.491.282s-.286.065-.528-.125c-.06-.045.01-.3-.087-.365s-.244,0-.264-.011c-.217-.116-.379.1-.6-.3a5.7,5.7,0,0,1-.281-1.91A8.014,8.014,0,0,1,1188.175,222.52Z" fill="#b1e5d2"/>
        </g>
        <path id="Trazado_101453" data-name="Trazado 101453" d="M1202.62,208.871l-.147-.072-.12-.112a7.536,7.536,0,0,1,1.7-1.957c.259-.181.58-.45.92-.736,1.187-1,2.663-2.24,3.883-1.917a.161.161,0,0,1,.115.2.159.159,0,0,1-.2.116c-1.06-.277-2.523.953-3.593,1.852-.346.29-.672.564-.942.753A7.3,7.3,0,0,0,1202.62,208.871Z" fill="#fff"/>
        <path id="Trazado_101454" data-name="Trazado 101454" d="M1225.955,214.081c.762.957,1.555,1.891,2.305,2.861,1.362,1.768,2.269,3.687,3.837,5.3.713.733,4.145,3.567,1.312,3.879.722,1.143,1.2,2.619-.617,3-.689.144-.678.676-1.64.506a5.653,5.653,0,0,1-2.1-1.365c-1.441-1.149-1.828-2.543-2.88-4.03a17.846,17.846,0,0,0-4.892-4.242c-2.187-1.407-4.451-3.655-4.173-6.428.156-1.578.41-6.365,1.934-7.269,1.9-1.128,4.117,3.582,4.757,4.7A24.772,24.772,0,0,0,1225.955,214.081Z" fill="#b1e5d2"/>
        <path id="Trazado_101455" data-name="Trazado 101455" d="M1221.421,222.019a1.389,1.389,0,0,1-.343-.045.161.161,0,0,1,.079-.313.876.876,0,0,0,.892-.248c.939-.949.995-4.037.728-5.055a7.976,7.976,0,0,0-.624-1.51,6.735,6.735,0,0,1-.709-1.9,17.416,17.416,0,0,1-.15-2.552c0-.3-.007-.588-.015-.866a.161.161,0,0,1,.157-.166.166.166,0,0,1,.166.156c.009.28.012.573.015.873a17.055,17.055,0,0,0,.147,2.5,6.352,6.352,0,0,0,.679,1.809,8.269,8.269,0,0,1,.646,1.572c.281,1.066.264,4.279-.81,5.365A1.18,1.18,0,0,1,1221.421,222.019Z" fill="#fff"/>
        <path id="Trazado_101456" data-name="Trazado 101456" d="M1198.18,274.581a.187.187,0,0,1-.093-.024.194.194,0,0,1-.078-.263,18.47,18.47,0,0,0,1.252-3.192,24.465,24.465,0,0,1,.917-2.528c.4-.9.876-1.791,1.333-2.649.469-.88.954-1.79,1.361-2.715.467-1.057.926-2.043,1.37-3a59.887,59.887,0,0,0,4.147-10.967c.455-1.71.985-3.429,1.5-5.091.258-.835.516-1.67.765-2.508l3.033-10.181a.193.193,0,0,1,.242-.131.2.2,0,0,1,.131.242l-3.034,10.182c-.249.838-.507,1.674-.765,2.511-.512,1.658-1.041,3.372-1.493,5.076a60.218,60.218,0,0,1-4.171,11.03c-.443.953-.9,1.938-1.366,2.992-.414.937-.9,1.854-1.374,2.74-.454.851-.923,1.732-1.322,2.624a24.213,24.213,0,0,0-.9,2.489,18.647,18.647,0,0,1-1.28,3.258A.194.194,0,0,1,1198.18,274.581Z" fill="#fff"/>
      </g>
      <g id="Grupo_69734" data-name="Grupo 69734">
        <g id="Grupo_69732" data-name="Grupo 69732">
          <g id="Grupo_69730" data-name="Grupo 69730">
            <g id="Grupo_69728" data-name="Grupo 69728">
              <g id="haed-2" data-name="haed">
                <g id="Grupo_69726" data-name="Grupo 69726">
                  <g id="Grupo_69723" data-name="Grupo 69723">
                    <path id="Trazado_101457" data-name="Trazado 101457" d="M1141.2,186.768a6.08,6.08,0,0,1,.578-4.979c1.615-2.206,5.767-2.648,7.707-.714a5.775,5.775,0,0,1,1.592,4.59,3.422,3.422,0,0,0,.9,2.758c.1.09.211.214.154.333s-.2.12-.318.149c-.377.1-.55.527-.607.91a15.713,15.713,0,0,1-.5,2.739.859.859,0,0,1-.35.494,1.029,1.029,0,0,1-.623.062c-.71-.08-1.416-.2-2.115-.345a.381.381,0,0,0-.123.076,1.025,1.025,0,0,0-.215.511q-.484,2.141-.966,4.28a25.066,25.066,0,0,0-5.025-3.082,6.61,6.61,0,0,0,1-4.948A12.4,12.4,0,0,1,1141.2,186.768Z" fill="#ff8f67"/>
                    <path id="Trazado_101458" data-name="Trazado 101458" d="M1148.466,193.031a.083.083,0,0,1-.034-.007c-.1-.035-2.476-.892-3.06-2.833a.1.1,0,0,1,.069-.129.1.1,0,0,1,.129.069c.552,1.841,2.906,2.691,2.93,2.7a.1.1,0,0,1,.063.131A.1.1,0,0,1,1148.466,193.031Z" fill="#894c4c"/>
                  </g>
                  <g id="Grupo_69725" data-name="Grupo 69725">
                    <g id="Grupo_69724" data-name="Grupo 69724">
                      <path id="Trazado_101459" data-name="Trazado 101459" d="M1150.738,186.491a.264.264,0,0,1-.128,0,1.21,1.21,0,0,0-.708.109.293.293,0,1,1-.283-.513,1.816,1.816,0,0,1,1.1-.172.293.293,0,0,1,.023.572Z" fill="#a86060"/>
                      <path id="Trazado_101460" data-name="Trazado 101460" d="M1150.6,187.122c.008.24-.078.441-.193.445s-.212-.189-.221-.432.08-.442.193-.446S1150.595,186.88,1150.6,187.122Z" fill="#a86060"/>
                    </g>
                  </g>
                </g>
                <path id="Trazado_101461" data-name="Trazado 101461" d="M1150.144,190.285a.082.082,0,0,1-.053-.02.083.083,0,0,1-.01-.116.9.9,0,0,1,.91-.233.083.083,0,0,1-.041.16.729.729,0,0,0-.743.179A.086.086,0,0,1,1150.144,190.285Z" fill="#894c4c"/>
                <g id="Grupo_69727" data-name="Grupo 69727">
                  <path id="Trazado_101462" data-name="Trazado 101462" d="M1145.712,187.649a.092.092,0,0,1-.028-.005l-.509-.145a.1.1,0,1,1,.057-.2l.509.145a.1.1,0,0,1,.07.127A.1.1,0,0,1,1145.712,187.649Z" fill="#894c4c"/>
                  <path id="Trazado_101463" data-name="Trazado 101463" d="M1145.759,188.217h0a.1.1,0,0,1-.1-.1c.006-.264-.045-.982-.352-1.132a.1.1,0,0,1-.047-.138.1.1,0,0,1,.137-.047c.48.235.47,1.211.467,1.322A.1.1,0,0,1,1145.759,188.217Z" fill="#894c4c"/>
                </g>
              </g>
              <path id="Trazado_101464" data-name="Trazado 101464" d="M1150.926,180.836a5.964,5.964,0,0,0-2.767-2.159,7.034,7.034,0,0,0-7.074,1.621,6.451,6.451,0,0,0-1.8,6.478c.476,1.5,1.521,2.649,1.568,4.256-.009.24.008.486.023.729a2.949,2.949,0,0,0,.575-1.67,10.036,10.036,0,0,1,.111,2.382,3.511,3.511,0,0,0,1.59-.781,6.98,6.98,0,0,0,.99-1.414,5.565,5.565,0,0,0,.692-2.588c.036-.421.667-1.72,1.089-.91.217.418-.2,1.616.7,1.473a1.793,1.793,0,0,1,.21-1.691c.214-.336,1.029-1.147.98-1.554.021.18.035,1.36-.218,1.407,1.688-.313,4.067-2.4,3.815-4.307A3.085,3.085,0,0,0,1150.926,180.836Z" fill="#a86060"/>
            </g>
            <path id="Trazado_101465" data-name="Trazado 101465" d="M1130.655,273.81c-1.738-.535-3.675-1.94-5.548-1.152-1.389.585-2.969,2.412-2.531,3.985.353,1.269,2.28,1.821,3.383,2.365,2.681,1.323,4.855,2.575,7.813,2.836,2.876.254,7.34-.635,3.684-3.676-1.148-.957-2.429-1.691-3.509-2.755-.629-.618-.392-.73-1.227-1.138A15.233,15.233,0,0,0,1130.655,273.81Z" fill="#b57878"/>
            <path id="Trazado_101466" data-name="Trazado 101466" d="M1153.265,273.14c-1.816.039-4.1-.685-5.628.653-1.134.993-2.058,3.225-1.147,4.579.735,1.093,2.738,1.011,3.957,1.18,2.961.411,5.418.915,8.307.23,2.81-.664,6.767-2.914,2.339-4.649-1.391-.547-2.838-.839-4.2-1.51-.791-.389-.6-.568-1.522-.692A14.814,14.814,0,0,0,1153.265,273.14Z" fill="#b57878"/>
            <g id="Grupo_69729" data-name="Grupo 69729">
              <path id="Trazado_101467" data-name="Trazado 101467" d="M1148.964,224.052h-12c-1.275-.055-2.387-.133-2.387-.133-4.97-.321-4.063-6.193-2.987-9.643.685-2.2-.141-3.676.131-5.751.27-2.05,1.044-3.036.845-5.2-.3-3.266,2.947-7.621,6.568-7.621h3.492a7.868,7.868,0,0,1,5.942,2.361c1.533,1.813.992,4.194,2.115,6.11,1.284,2.186.4,5,.851,7.386.5,2.59.646,5.051.924,7.69,0,0,.007.069.016.185C1152.531,220.29,1152.556,223.843,1148.964,224.052Z" fill="#b1e5d2"/>
            </g>
            <path id="Trazado_101468" data-name="Trazado 101468" d="M1143.114,251.879c-.5,3.016-2.076,5.7-2.712,8.653-.56,2.606-.849,5.52-1.865,7.974-.874,2.1-.344,4.522-.957,6.679-.69,2.43-2.264,1.3-3.975.955-.807-.166-1.513.217-2.283.05-1.539-.334-2.141-2.188-3.732-2.471-1.21-.212-2.337.508-3.546-.219-1.942-1.172.005-5.964.765-7.95,1.068-2.794,1.106-6.2,2.542-8.8,1.557-2.822,1.246-5.461,1.9-8.6s.868-5.941,1.9-9.064c1.009-3.058-.582-5.7.4-8.881a9.085,9.085,0,0,0,.748-4.16c-.391-4.389,1.933-7.912,6.835-7.413a7.207,7.207,0,0,1,6.457,7.847q-.45,4.612-.9,9.222-.636,6.537-1.274,13.073c-.1,1-.134,2.037-.3,3.033C1143.121,251.83,1143.118,251.854,1143.114,251.879Z" fill="#b1e5d2"/>
            <path id="Trazado_101469" data-name="Trazado 101469" d="M1157.644,249.711c.064.311.128.621.19.932,1.088,5.408,1.087,11.233,1.56,16.734.131,1.5,1.33,6.744.458,7.488-1.61,1.374-5.405-.331-7.4.067-1.733.347-5.926,1.348-7.057-.827-1.367-2.629-.68-6.47-.672-9.3.005-1.624-.633-2.879-.848-4.385-.377-2.629.189-5.184-.279-7.84-.183-1.048-.316-2.048-.58-3.091q-1.023-4.046-2.043-8.091-1.638-6.483-3.273-12.965a7.184,7.184,0,1,1,13.931-3.52l2.622,10.4C1155.464,240.123,1156.646,244.883,1157.644,249.711Z" fill="#b1e5d2"/>
            <path id="Trazado_101470" data-name="Trazado 101470" d="M1137.876,271.055a.225.225,0,0,1-.051-.007.2.2,0,0,1-.136-.24l5.242-18.98,1.816-20.142a.194.194,0,0,1,.387.036l-1.822,20.175-5.248,19.015A.2.2,0,0,1,1137.876,271.055Z" fill="#fff"/>
            <path id="Trazado_101471" data-name="Trazado 101471" d="M1144.453,187.393a5.22,5.22,0,0,1,2.365-3.154c.462-.3,4.513-1.9,4.638-1.093-.164-1.061.731-1.37.579-2.377-.126-.826-1.465-2-2.075-2.463-5.435-4.1-12.172-.78-14.822,4.893a15.911,15.911,0,0,0-1.065,7.415c.173,3.942,1.372,9.549,6.331,8.359a10.824,10.824,0,0,1,3.847-.363c2.791.186,1.562-.992,1.08-2.7-.712-2.532-1.584-5.589-.939-8.279Z" fill="#b1e5d2"/>
            <path id="Trazado_101472" data-name="Trazado 101472" d="M1151.551,187.656a.778.778,0,0,0-.192-.036,12.951,12.951,0,0,0-1.5.07q-1.387.064-2.773.131s-.717,2.7-.718,2.705a2.543,2.543,0,0,0,.562,1.568,2.5,2.5,0,0,0,1.225.908,3.333,3.333,0,0,0,1,.167,3.058,3.058,0,0,0,1.015-.008c.309-.1.424-.4.6-.658a8.176,8.176,0,0,0,.811-1.541,11.542,11.542,0,0,0,.543-1.862C1152.238,188.57,1152.088,187.835,1151.551,187.656Z" fill="#b1e5d2"/>
            <path id="Trazado_101473" data-name="Trazado 101473" d="M1147.312,188.1s-1.24-2.789-2.789-1.267l-.168.394s1.379-1.831,2.7,1.041S1147.312,188.1,1147.312,188.1Z" fill="#b1e5d2"/>
            <path id="Trazado_101474" data-name="Trazado 101474" d="M1147.087,188.863a2.984,2.984,0,0,1-2.817-1.972l-.141.452s.31,1.548,2.986,1.718S1147.087,188.863,1147.087,188.863Z" fill="#b1e5d2"/>
          </g>
          <g id="Grupo_69731" data-name="Grupo 69731">
            <path id="Trazado_101475" data-name="Trazado 101475" d="M1135.185,197.624c-2.357,1.723-3.623,3.639-5.247,6.142a32.126,32.126,0,0,0-2.132,3.58c-.8,1.633-2.208,2.64-3.025,4.228-.827,1.6-.863,3.472-1.5,5.161a10.924,10.924,0,0,0-.9,3.716,22.256,22.256,0,0,0-.034,4.806c.451,2.549,1.684,2.689,4.129,2.57,2.135-.1,2.088-.266,2.381-2.395.237-1.729.3-3.417.652-5.151.421-2.106,1.465-3.028,2.6-4.958,1.252-2.133,1.846-3.308,3.925-4.6,1.709-1.06,1.721-1.976,2.01-3.886.311-2.057,1.12-8.074-1.2-9.343-.646-.355-1.432-.331-1.664.468Z" fill="#b1e5d2"/>
            <path id="Trazado_101476" data-name="Trazado 101476" d="M1122.728,230.046c-.088-1.406-.524-4.688,1.537-5.108a4.871,4.871,0,0,1,2.8.555c1.691.838,1.917,3.01,1.992,4.679a2.378,2.378,0,0,0,.112.841c.109.223.47.343.545.524a.665.665,0,0,1-.614.9c-.475.053-.8-.44-1.238-.155-.42.271-.126.764-.184,1.179a.889.889,0,0,1-.91.8c-.222.018-.547-.191-.681-.172-.311.045-.155.256-.413.389s-.263.128-.543,0c-.067-.032-.058-.295-.169-.334s-.237.054-.258.048c-.238-.062-.347.182-.655-.155a5.7,5.7,0,0,1-.715-1.793A8.085,8.085,0,0,1,1122.728,230.046Z" fill="#b1e5d2"/>
          </g>
          <path id="Trazado_101477" data-name="Trazado 101477" d="M1131.212,217.34a.161.161,0,0,1-.1-.29,5.046,5.046,0,0,0,1.377-2.611,7.532,7.532,0,0,1,1.05-2.37c.194-.249.422-.6.664-.975.842-1.3,1.889-2.921,3.146-2.974a.153.153,0,0,1,.168.155.161.161,0,0,1-.154.169c-1.09.046-2.129,1.652-2.889,2.825-.245.38-.477.739-.68,1a7.326,7.326,0,0,0-1,2.268,5.33,5.33,0,0,1-1.49,2.771A.163.163,0,0,1,1131.212,217.34Z" fill="#fff"/>
        </g>
        <path id="Trazado_101478" data-name="Trazado 101478" d="M1155.3,215.59c.762.956,1.556,1.889,2.305,2.86,1.362,1.767,2.269,3.686,3.838,5.3.713.733,4.143,3.569,1.31,3.881.723,1.14,1.2,2.618-.615,3-.689.144-.68.674-1.641.506a5.651,5.651,0,0,1-2.1-1.365c-1.443-1.149-1.828-2.543-2.881-4.03a17.871,17.871,0,0,0-4.893-4.243c-2.186-1.407-4.449-3.655-4.172-6.427.157-1.579.409-6.365,1.934-7.269,1.9-1.127,4.117,3.582,4.758,4.7A25.077,25.077,0,0,0,1155.3,215.59Z" fill="#b1e5d2"/>
        <path id="Trazado_101479" data-name="Trazado 101479" d="M1150.765,223.527a1.389,1.389,0,0,1-.343-.045.161.161,0,0,1-.117-.2.164.164,0,0,1,.2-.118.872.872,0,0,0,.891-.246c.938-.948,1-4.037.728-5.056a7.986,7.986,0,0,0-.624-1.511,6.724,6.724,0,0,1-.709-1.9,17.545,17.545,0,0,1-.15-2.562c0-.294-.006-.581-.014-.855a.162.162,0,0,1,.157-.167h.005a.162.162,0,0,1,.161.157c.008.277.011.566.014.862a17.362,17.362,0,0,0,.146,2.514,6.413,6.413,0,0,0,.681,1.809,8.26,8.26,0,0,1,.646,1.572c.28,1.067.263,4.281-.811,5.365A1.178,1.178,0,0,1,1150.765,223.527Z" fill="#fff"/>
        <g id="Grupo_69733" data-name="Grupo 69733">
          <path id="Trazado_101480" data-name="Trazado 101480" d="M1145.528,273.335a.133.133,0,0,1-.035,0,.16.16,0,0,1-.123-.192,16.946,16.946,0,0,0-.566-3.73l-.565-2.1a.141.141,0,0,1-.006-.042c0-1.466-2.207-8.507-2.23-8.578l-2.052-9.937a.162.162,0,0,1,.125-.191.16.16,0,0,1,.191.126l2.049,9.921c.087.274,2.22,7.078,2.241,8.637l.561,2.083a17.1,17.1,0,0,1,.567,3.879A.16.16,0,0,1,1145.528,273.335Z" fill="#fff"/>
          <path id="Trazado_101481" data-name="Trazado 101481" d="M1131.912,275.736a.161.161,0,0,1-.122-.056c-.662-.772-1.17-6.068-1.225-6.669l-3.123-12.593a.162.162,0,1,1,.314-.078l3.127,12.617c.219,2.344.7,5.987,1.152,6.512a.161.161,0,0,1-.017.228A.163.163,0,0,1,1131.912,275.736Z" fill="#fff"/>
        </g>
      </g>
      <g id="Grupo_69749" data-name="Grupo 69749">
        <g id="Grupo_69735" data-name="Grupo 69735">
          <path id="Trazado_101482" data-name="Trazado 101482" d="M1242.341,216.585c0,2.312-2.912,4.2-6.471,4.2H1125.227c-3.559,0-6.47-1.893-6.47-4.2s2.911-4.205,6.47-4.205H1235.87C1239.429,212.38,1242.341,214.272,1242.341,216.585Z" fill="#b57878"/>
          <g id="cascet">
            <rect id="Rectángulo_5424" data-name="Rectángulo 5424" width="131.982" height="26.036" transform="translate(1115.969 223.013)" fill="#b57878"/>
            <rect id="Rectángulo_5425" data-name="Rectángulo 5425" width="131.818" height="8.352" transform="translate(1115.969 215.479)" fill="#b57878"/>
            <rect id="Rectángulo_5426" data-name="Rectángulo 5426" width="131.982" height="1.421" transform="translate(1115.969 223.013)" fill="#aa6868"/>
            <rect id="Rectángulo_5427" data-name="Rectángulo 5427" width="131.982" height="1.42" transform="translate(1115.969 215.153)" fill="#aa6868"/>
            <path id="Rectángulo_5428" data-name="Rectángulo 5428" d="M1.965,0H19.159a1.965,1.965,0,0,1,1.965,1.965V3.111a1.965,1.965,0,0,1-1.965,1.965H1.966A1.966,1.966,0,0,1,0,3.11V1.965A1.965,1.965,0,0,1,1.965,0Z" transform="translate(1113.349 218.755)" fill="#b57878"/>
            <rect id="Rectángulo_5429" data-name="Rectángulo 5429" width="21.123" height="5.076" rx="1.965" transform="translate(1229.285 218.755)" fill="#b57878"/>
            <rect id="Rectángulo_5430" data-name="Rectángulo 5430" width="129.527" height="2.293" transform="translate(1117.933 246.756)" fill="#aa6868"/>
            <path id="Rectángulo_5431" data-name="Rectángulo 5431" d="M1.965,0H19.159a1.965,1.965,0,0,1,1.965,1.965V3.111A1.964,1.964,0,0,1,19.16,5.075H1.964A1.964,1.964,0,0,1,0,3.111V1.965A1.965,1.965,0,0,1,1.965,0Z" transform="translate(1114.167 245.774)" fill="#b57878"/>
            <path id="Rectángulo_5432" data-name="Rectángulo 5432" d="M1.965,0h17.2a1.963,1.963,0,0,1,1.963,1.963V3.111a1.964,1.964,0,0,1-1.964,1.964H1.965A1.965,1.965,0,0,1,0,3.11V1.965A1.965,1.965,0,0,1,1.965,0Z" transform="translate(1227.921 245.774)" fill="#b57878"/>
          </g>
        </g>
        <g id="Grupo_69736" data-name="Grupo 69736">
          <path id="Trazado_101483" data-name="Trazado 101483" d="M1236.375,229.812a1.839,1.839,0,0,1-1.964,1.665h-3.985a1.688,1.688,0,1,1,0-3.329h3.985A1.838,1.838,0,0,1,1236.375,229.812Z" fill="#8e5757"/>
          <path id="Trazado_101484" data-name="Trazado 101484" d="M1227.588,233.06h-1.31v-1.691a1.967,1.967,0,0,1,1.965-1.965h8.46a1.966,1.966,0,0,1,1.964,1.965v1.582h-1.31v-1.582a.656.656,0,0,0-.654-.656h-8.46a.657.657,0,0,0-.655.656Z" fill="#8e5757"/>
          <path id="Trazado_101485" data-name="Trazado 101485" d="M1225.841,233.5a1.146,1.146,0,1,1,1.147,1.146A1.148,1.148,0,0,1,1225.841,233.5Z" fill="#8e5757"/>
          <path id="Trazado_101486" data-name="Trazado 101486" d="M1236.868,233.5a1.146,1.146,0,1,1,1.146,1.146A1.146,1.146,0,0,1,1236.868,233.5Z" fill="#8e5757"/>
        </g>
        <g id="Grupo_69737" data-name="Grupo 69737">
          <path id="Trazado_101487" data-name="Trazado 101487" d="M1144.31,229.812a1.84,1.84,0,0,1-1.965,1.665h-3.984a1.687,1.687,0,1,1,0-3.329h3.984A1.839,1.839,0,0,1,1144.31,229.812Z" fill="#8e5757"/>
          <path id="Trazado_101488" data-name="Trazado 101488" d="M1135.523,233.06h-1.309v-1.691a1.966,1.966,0,0,1,1.963-1.965h8.461a1.966,1.966,0,0,1,1.963,1.965v1.582h-1.309v-1.582a.657.657,0,0,0-.654-.656h-8.461a.657.657,0,0,0-.654.656Z" fill="#8e5757"/>
          <circle id="Elipse_4631" data-name="Elipse 4631" cx="1.146" cy="1.146" r="1.146" transform="translate(1133.776 232.351)" fill="#8e5757"/>
          <path id="Trazado_101489" data-name="Trazado 101489" d="M1144.8,233.5a1.146,1.146,0,1,1,1.147,1.146A1.148,1.148,0,0,1,1144.8,233.5Z" fill="#8e5757"/>
        </g>
        <g id="Grupo_69748" data-name="Grupo 69748">
          <g id="Grupo_69747" data-name="Grupo 69747">
            <g id="Grupo_69745" data-name="Grupo 69745">
              <g id="Grupo_69743" data-name="Grupo 69743">
                <g id="haed-3" data-name="haed">
                  <g id="Grupo_69741" data-name="Grupo 69741">
                    <g id="Grupo_69738" data-name="Grupo 69738">
                      <path id="Trazado_101490" data-name="Trazado 101490" d="M1247.635,184.288a6.077,6.077,0,0,1,.578-4.979c1.615-2.207,5.767-2.648,7.706-.714a5.773,5.773,0,0,1,1.593,4.589,3.414,3.414,0,0,0,.9,2.758c.095.089.21.213.154.333s-.2.12-.318.152c-.377.093-.55.525-.607.909a15.875,15.875,0,0,1-.5,2.737.852.852,0,0,1-.35.494,1.03,1.03,0,0,1-.623.065q-1.066-.123-2.116-.348a.365.365,0,0,0-.122.076,1.028,1.028,0,0,0-.216.513q-.483,2.139-.966,4.278a24.993,24.993,0,0,0-5.025-3.082,6.6,6.6,0,0,0,1-4.947A12.37,12.37,0,0,1,1247.635,184.288Z" fill="#ff8f67"/>
                      <path id="Trazado_101491" data-name="Trazado 101491" d="M1254.9,190.55a.1.1,0,0,1-.034-.006c-.1-.035-2.475-.891-3.06-2.834a.1.1,0,0,1,.069-.128.1.1,0,0,1,.128.069c.555,1.843,2.907,2.691,2.931,2.7a.1.1,0,0,1-.034.2Z" fill="#894c4c"/>
                    </g>
                    <g id="Grupo_69740" data-name="Grupo 69740">
                      <g id="Grupo_69739" data-name="Grupo 69739">
                        <path id="Trazado_101492" data-name="Trazado 101492" d="M1257.176,184.011a.281.281,0,0,1-.129,0,1.188,1.188,0,0,0-.708.11.294.294,0,0,1-.282-.515,1.826,1.826,0,0,1,1.1-.172.294.294,0,0,1,.023.573Z" fill="#a86060"/>
                        <path id="Trazado_101493" data-name="Trazado 101493" d="M1257.04,184.641c.008.242-.078.442-.193.445s-.211-.19-.22-.432.079-.441.193-.445S1257.033,184.4,1257.04,184.641Z" fill="#a86060"/>
                      </g>
                    </g>
                  </g>
                  <path id="Trazado_101494" data-name="Trazado 101494" d="M1256.58,187.8a.083.083,0,0,1-.063-.136.9.9,0,0,1,.911-.234.084.084,0,0,1,.06.1.087.087,0,0,1-.1.06.73.73,0,0,0-.744.18A.082.082,0,0,1,1256.58,187.8Z" fill="#894c4c"/>
                  <g id="Grupo_69742" data-name="Grupo 69742">
                    <path id="Trazado_101495" data-name="Trazado 101495" d="M1252.15,185.168a.1.1,0,0,1-.029,0l-.508-.147a.1.1,0,0,1-.071-.127.1.1,0,0,1,.127-.07l.509.147a.1.1,0,0,1-.028.2Z" fill="#894c4c"/>
                    <path id="Trazado_101496" data-name="Trazado 101496" d="M1252.2,185.736h0a.1.1,0,0,1-.1-.1c.006-.263-.045-.98-.353-1.132a.1.1,0,0,1-.047-.137.1.1,0,0,1,.138-.047c.48.236.47,1.211.467,1.321A.1.1,0,0,1,1252.2,185.736Z" fill="#894c4c"/>
                  </g>
                </g>
                <path id="Trazado_101497" data-name="Trazado 101497" d="M1257.364,178.355a5.972,5.972,0,0,0-2.768-2.159,7.035,7.035,0,0,0-7.074,1.621,6.457,6.457,0,0,0-1.8,6.479c.476,1.5,1.521,2.649,1.567,4.256-.008.241.008.486.024.728a2.953,2.953,0,0,0,.575-1.67,10.1,10.1,0,0,1,.11,2.383,3.515,3.515,0,0,0,1.591-.781,6.958,6.958,0,0,0,.988-1.413,5.559,5.559,0,0,0,.694-2.589c.036-.42.668-1.721,1.09-.909.216.417-.2,1.616.7,1.471a1.794,1.794,0,0,1,.21-1.691c.214-.334,1.028-1.146.98-1.553.021.18.035,1.361-.219,1.408,1.69-.314,4.069-2.4,3.816-4.308A3.1,3.1,0,0,0,1257.364,178.355Z" fill="#a86060"/>
              </g>
              <path id="Trazado_101498" data-name="Trazado 101498" d="M1237.092,271.33c-1.736-.535-3.675-1.94-5.548-1.151-1.389.584-2.968,2.412-2.531,3.984.354,1.269,2.281,1.821,3.384,2.365,2.681,1.322,4.854,2.575,7.812,2.836,2.875.253,7.341-.636,3.685-3.677-1.149-.956-2.43-1.69-3.51-2.755-.628-.618-.391-.728-1.226-1.137A15.214,15.214,0,0,0,1237.092,271.33Z" fill="#b57878"/>
              <path id="Trazado_101499" data-name="Trazado 101499" d="M1259.7,270.659c-1.817.039-4.1-.684-5.627.654-1.135.993-2.059,3.224-1.149,4.578.736,1.094,2.738,1.011,3.956,1.18,2.961.411,5.419.915,8.31.231,2.807-.664,6.765-2.914,2.339-4.65-1.393-.546-2.839-.84-4.2-1.51-.79-.388-.6-.566-1.52-.692A14.947,14.947,0,0,0,1259.7,270.659Z" fill="#b57878"/>
              <g id="Grupo_69744" data-name="Grupo 69744">
                <path id="Trazado_101500" data-name="Trazado 101500" d="M1255.4,221.572h-11.994c-1.277-.055-2.387-.133-2.387-.133-4.971-.32-4.064-6.193-2.988-9.643.684-2.2-.143-3.676.13-5.75.271-2.049,1.044-3.037.846-5.2-.3-3.268,2.946-7.625,6.569-7.625h3.492a7.876,7.876,0,0,1,5.94,2.363c1.533,1.812.992,4.193,2.116,6.108,1.284,2.189.4,5,.852,7.389.494,2.59.644,5.05.923,7.689,0,0,.007.068.014.186C1258.968,217.809,1258.994,221.362,1255.4,221.572Z" fill="#b1e5d2"/>
              </g>
              <path id="Trazado_101501" data-name="Trazado 101501" d="M1249.551,249.4c-.495,3.018-2.075,5.7-2.711,8.654-.56,2.6-.849,5.52-1.867,7.973-.871,2.1-.343,4.524-.955,6.68-.69,2.43-2.264,1.3-3.976.954-.806-.165-1.511.218-2.283.051-1.539-.334-2.14-2.189-3.731-2.472-1.209-.212-2.337.509-3.545-.22-1.944-1.17,0-5.962.763-7.95,1.069-2.792,1.107-6.2,2.542-8.8,1.557-2.822,1.246-5.461,1.9-8.6s.867-5.941,1.9-9.064c1.009-3.057-.582-5.7.406-8.881a9.079,9.079,0,0,0,.749-4.16c-.393-4.388,1.931-7.912,6.834-7.412a7.21,7.21,0,0,1,6.457,7.848l-.9,9.222q-.636,6.536-1.273,13.073c-.1,1-.135,2.036-.3,3.031C1249.559,249.349,1249.555,249.374,1249.551,249.4Z" fill="#b1e5d2"/>
              <path id="Trazado_101502" data-name="Trazado 101502" d="M1264.082,247.231c.065.31.127.621.19.932,1.088,5.408,1.087,11.232,1.56,16.734.129,1.5,1.33,6.743.457,7.488-1.61,1.375-5.4-.33-7.4.068-1.732.347-5.925,1.347-7.056-.828-1.367-2.629-.68-6.47-.672-9.294,0-1.625-.633-2.879-.848-4.387-.378-2.63.188-5.182-.278-7.841-.184-1.046-.318-2.047-.581-3.089q-1.022-4.046-2.042-8.09l-3.276-12.966a7.185,7.185,0,1,1,13.933-3.52l2.622,10.395C1261.9,237.643,1263.084,242.4,1264.082,247.231Z" fill="#b1e5d2"/>
              <path id="Trazado_101503" data-name="Trazado 101503" d="M1244.314,268.573a.187.187,0,0,1-.052-.007.2.2,0,0,1-.136-.239l5.243-18.979,1.816-20.143a.194.194,0,1,1,.387.035l-1.823,20.177-5.248,19.014A.2.2,0,0,1,1244.314,268.573Z" fill="#fff"/>
              <path id="Trazado_101504" data-name="Trazado 101504" d="M1250.891,184.913a5.226,5.226,0,0,1,2.363-3.153c.463-.3,4.515-1.9,4.64-1.093-.164-1.062.731-1.369.579-2.377-.126-.828-1.465-2.006-2.074-2.465-5.437-4.1-12.173-.779-14.823,4.9a15.928,15.928,0,0,0-1.067,7.413c.176,3.942,1.373,9.549,6.331,8.36a10.84,10.84,0,0,1,3.849-.362c2.791.185,1.561-.991,1.08-2.7-.713-2.533-1.583-5.589-.939-8.278C1250.849,185.069,1250.87,184.991,1250.891,184.913Z" fill="#b1e5d2"/>
              <path id="Trazado_101505" data-name="Trazado 101505" d="M1257.989,185.177a.689.689,0,0,0-.193-.037,12.536,12.536,0,0,0-1.5.07l-2.772.131s-.717,2.7-.719,2.7a2.548,2.548,0,0,0,.563,1.568,2.5,2.5,0,0,0,1.224.909,3.3,3.3,0,0,0,1,.166,3.07,3.07,0,0,0,1.017-.007c.308-.106.425-.4.595-.659a8.15,8.15,0,0,0,.812-1.541,11.6,11.6,0,0,0,.543-1.862C1258.675,186.09,1258.526,185.354,1257.989,185.177Z" fill="#b1e5d2"/>
              <path id="Trazado_101506" data-name="Trazado 101506" d="M1253.749,185.622s-1.239-2.789-2.788-1.268l-.169.395s1.38-1.832,2.7,1.043S1253.749,185.622,1253.749,185.622Z" fill="#b1e5d2"/>
              <path id="Trazado_101507" data-name="Trazado 101507" d="M1253.525,186.383a2.984,2.984,0,0,1-2.817-1.972l-.141.45s.31,1.55,2.986,1.718S1253.525,186.383,1253.525,186.383Z" fill="#b1e5d2"/>
            </g>
            <g id="Grupo_69746" data-name="Grupo 69746">
              <path id="Trazado_101508" data-name="Trazado 101508" d="M1241.623,195.143c-2.358,1.724-3.624,3.639-5.248,6.143a32.061,32.061,0,0,0-2.131,3.58c-.8,1.633-2.207,2.641-3.025,4.227-.827,1.6-.863,3.472-1.5,5.162a10.911,10.911,0,0,0-.9,3.717,22.326,22.326,0,0,0-.036,4.806c.453,2.546,1.687,2.688,4.131,2.569,2.134-.1,2.088-.266,2.38-2.394.237-1.73.306-3.418.653-5.151.42-2.109,1.464-3.03,2.6-4.958,1.252-2.133,1.847-3.31,3.925-4.6,1.71-1.061,1.721-1.975,2.01-3.887.31-2.056,1.12-8.072-1.2-9.343-.647-.354-1.432-.331-1.664.47Z" fill="#b1e5d2"/>
              <path id="Trazado_101509" data-name="Trazado 101509" d="M1229.166,227.565c-.088-1.4-.523-4.685,1.537-5.107a4.872,4.872,0,0,1,2.8.555c1.691.837,1.916,3.008,1.991,4.679a2.37,2.37,0,0,0,.113.84c.108.224.47.344.546.524a.667.667,0,0,1-.615.9c-.475.053-.794-.44-1.239-.154-.419.269-.126.763-.183,1.178a.888.888,0,0,1-.911.795c-.221.02-.545-.189-.68-.171-.312.045-.155.256-.412.389s-.265.128-.543,0c-.069-.032-.059-.295-.169-.334s-.238.053-.259.048c-.238-.063-.348.184-.655-.155a5.654,5.654,0,0,1-.714-1.793A7.956,7.956,0,0,1,1229.166,227.565Z" fill="#b1e5d2"/>
            </g>
            <path id="Trazado_101510" data-name="Trazado 101510" d="M1237.649,214.86a.162.162,0,0,1-.1-.291,5.042,5.042,0,0,0,1.379-2.61,7.529,7.529,0,0,1,1.05-2.37c.194-.249.422-.6.664-.974.842-1.3,1.889-2.922,3.145-2.976a.162.162,0,1,1,.014.323c-1.089.047-2.129,1.655-2.888,2.828-.245.379-.477.738-.68,1a7.283,7.283,0,0,0-1,2.268,5.321,5.321,0,0,1-1.492,2.771A.16.16,0,0,1,1237.649,214.86Z" fill="#fff"/>
          </g>
          <path id="Trazado_101511" data-name="Trazado 101511" d="M1261.737,213.109c.761.956,1.554,1.89,2.3,2.862,1.364,1.765,2.27,3.686,3.838,5.3.713.734,4.144,3.568,1.311,3.88.723,1.142,1.2,2.619-.615,3-.69.146-.679.676-1.641.506a5.643,5.643,0,0,1-2.1-1.364c-1.441-1.149-1.828-2.543-2.88-4.029a17.838,17.838,0,0,0-4.892-4.244c-2.187-1.408-4.45-3.656-4.174-6.426.157-1.579.41-6.368,1.935-7.271,1.9-1.127,4.118,3.582,4.757,4.7A24.664,24.664,0,0,0,1261.737,213.109Z" fill="#b1e5d2"/>
          <path id="Trazado_101512" data-name="Trazado 101512" d="M1257.2,221.046a1.4,1.4,0,0,1-.343-.045.161.161,0,1,1,.079-.313.868.868,0,0,0,.891-.247c.94-.948,1-4.037.729-5.055a8.023,8.023,0,0,0-.624-1.511,6.726,6.726,0,0,1-.71-1.9,17.526,17.526,0,0,1-.149-2.571c0-.291-.006-.576-.014-.848a.162.162,0,0,1,.158-.166h0a.162.162,0,0,1,.162.157c.007.274.01.56.013.854a17.319,17.319,0,0,0,.146,2.522,6.376,6.376,0,0,0,.68,1.81,8.179,8.179,0,0,1,.646,1.572c.281,1.066.264,4.28-.811,5.365A1.177,1.177,0,0,1,1257.2,221.046Z" fill="#fff"/>
          <path id="Trazado_101513" data-name="Trazado 101513" d="M1229.724,270.747h-.018a.244.244,0,0,1-.225-.259c.323-4.508,3.628-14.726,3.769-15.159a.247.247,0,0,1,.306-.156.244.244,0,0,1,.156.306c-.035.1-3.428,10.6-3.747,15.043A.242.242,0,0,1,1229.724,270.747Z" fill="#fff"/>
        </g>
      </g>
      <g id="Grupo_69759" data-name="Grupo 69759">
        <g id="Grupo_69755" data-name="Grupo 69755">
          <g id="haed-4" data-name="haed">
            <g id="Grupo_69753" data-name="Grupo 69753">
              <g id="Grupo_69750" data-name="Grupo 69750">
                <path id="Trazado_101514" data-name="Trazado 101514" d="M1120.3,187.848a6.074,6.074,0,0,1,.578-4.978c1.616-2.207,5.766-2.648,7.706-.715a5.772,5.772,0,0,1,1.593,4.59,3.414,3.414,0,0,0,.9,2.758c.095.09.21.213.155.334s-.2.118-.318.149c-.378.094-.551.527-.608.909a15.834,15.834,0,0,1-.5,2.739.852.852,0,0,1-.35.494,1.022,1.022,0,0,1-.623.063c-.711-.08-1.416-.2-2.116-.346a.384.384,0,0,0-.122.076,1.029,1.029,0,0,0-.216.512q-.483,2.141-.965,4.279a25.16,25.16,0,0,0-5.026-3.082,6.6,6.6,0,0,0,1-4.947A12.378,12.378,0,0,1,1120.3,187.848Z" fill="#ff8f67"/>
                <path id="Trazado_101515" data-name="Trazado 101515" d="M1127.568,194.112a.083.083,0,0,1-.034-.007c-.1-.035-2.476-.893-3.061-2.834a.1.1,0,0,1,.069-.129.1.1,0,0,1,.128.069c.554,1.841,2.908,2.692,2.932,2.7a.1.1,0,0,1-.034.2Z" fill="#894c4c"/>
              </g>
              <g id="Grupo_69752" data-name="Grupo 69752">
                <g id="Grupo_69751" data-name="Grupo 69751">
                  <path id="Trazado_101516" data-name="Trazado 101516" d="M1129.839,187.57a.269.269,0,0,1-.129.006,1.213,1.213,0,0,0-.707.108.293.293,0,1,1-.283-.513,1.8,1.8,0,0,1,1.1-.171.291.291,0,0,1,.235.339A.286.286,0,0,1,1129.839,187.57Z" fill="#a86060"/>
                  <path id="Trazado_101517" data-name="Trazado 101517" d="M1129.7,188.2c.009.24-.078.441-.192.445s-.213-.189-.221-.431.08-.443.193-.446S1129.7,187.962,1129.7,188.2Z" fill="#a86060"/>
                </g>
              </g>
            </g>
            <path id="Trazado_101518" data-name="Trazado 101518" d="M1129.244,191.365a.084.084,0,0,1-.054-.02.082.082,0,0,1-.009-.116.9.9,0,0,1,.91-.232.083.083,0,0,1,.06.1.085.085,0,0,1-.1.059.736.736,0,0,0-.743.178A.082.082,0,0,1,1129.244,191.365Z" fill="#894c4c"/>
            <g id="Grupo_69754" data-name="Grupo 69754">
              <path id="Trazado_101519" data-name="Trazado 101519" d="M1124.813,188.73a.091.091,0,0,1-.028,0l-.509-.146a.1.1,0,0,1-.071-.127.1.1,0,0,1,.127-.07l.509.146a.1.1,0,0,1-.028.2Z" fill="#894c4c"/>
              <path id="Trazado_101520" data-name="Trazado 101520" d="M1124.861,189.3a.109.109,0,0,1-.1-.1c.006-.264-.045-.981-.352-1.131a.1.1,0,0,1,.089-.185c.48.234.471,1.21.468,1.321A.1.1,0,0,1,1124.861,189.3Z" fill="#894c4c"/>
            </g>
          </g>
          <path id="Trazado_101521" data-name="Trazado 101521" d="M1130.027,181.917a5.968,5.968,0,0,0-2.768-2.16,7.038,7.038,0,0,0-7.074,1.621,6.455,6.455,0,0,0-1.8,6.478c.476,1.5,1.522,2.651,1.568,4.257a7.094,7.094,0,0,0,.024.728,2.968,2.968,0,0,0,.574-1.67,9.882,9.882,0,0,1,.109,2.383,3.486,3.486,0,0,0,1.592-.782,6.9,6.9,0,0,0,.989-1.414,5.529,5.529,0,0,0,.693-2.587c.036-.422.667-1.721,1.09-.909.217.416-.2,1.615.7,1.471a1.794,1.794,0,0,1,.21-1.691c.214-.336,1.029-1.145.98-1.553.021.179.035,1.361-.218,1.407,1.689-.314,4.067-2.4,3.816-4.308A3.108,3.108,0,0,0,1130.027,181.917Z" fill="#a86060"/>
        </g>
        <path id="Trazado_101522" data-name="Trazado 101522" d="M1101.062,272.762c-1.6-.862-3.229-2.616-5.218-2.206-1.475.3-3.382,1.792-3.257,3.418.1,1.315,1.885,2.23,2.862,2.978,2.375,1.816,4.263,3.467,7.115,4.3,2.771.807,7.324.8,4.328-2.893-.942-1.161-2.057-2.13-2.912-3.382-.494-.73-.242-.792-.981-1.354A14.632,14.632,0,0,0,1101.062,272.762Z" fill="#b57878"/>
        <g id="Grupo_69756" data-name="Grupo 69756">
          <path id="Trazado_101523" data-name="Trazado 101523" d="M1128.065,225.132H1116.07c-1.277-.053-2.387-.132-2.387-.132-4.971-.321-4.064-6.194-2.988-9.643.684-2.194-.142-3.676.131-5.751.27-2.05,1.044-3.037.845-5.2-.3-3.266,2.947-7.624,6.569-7.624h3.492a7.872,7.872,0,0,1,5.941,2.362c1.532,1.813.991,4.194,2.115,6.11,1.284,2.187.4,5,.852,7.387.494,2.591.645,5.05.923,7.689,0,0,.007.069.015.186C1131.631,221.37,1131.657,224.923,1128.065,225.132Z" fill="#b1e5d2"/>
        </g>
        <g id="Grupo_69757" data-name="Grupo 69757">
          <path id="Trazado_101524" data-name="Trazado 101524" d="M1139.687,274.312c-1.782.357-4.156.046-5.427,1.632-.942,1.177-1.46,3.535-.325,4.709.916.947,2.873.514,4.1.468,2.987-.117,5.5-.053,8.219-1.233,2.649-1.148,6.15-4.057,1.487-4.99-1.466-.292-2.942-.327-4.4-.748-.846-.243-.69-.453-1.619-.414A14.713,14.713,0,0,0,1139.687,274.312Z" fill="#b57878"/>
          <path id="Trazado_101525" data-name="Trazado 101525" d="M1140.183,249.094c1,2.888.892,6,1.742,8.9.749,2.556,1.885,5.256,2.16,7.9.235,2.261,1.856,4.14,2.344,6.328.553,2.464-1.367,2.225-3.039,2.733-.788.24-1.225.913-1.984,1.135-1.511.439-2.924-.9-4.457-.4-1.164.39-1.813,1.561-3.221,1.5-2.266-.1-2.84-5.244-3.119-7.353-.393-2.966-1.985-5.978-1.962-8.949.024-3.223-1.509-5.4-2.429-8.464s-2.07-5.636-2.652-8.873c-.571-3.169-3.231-4.737-3.877-8a9.089,9.089,0,0,0-1.326-4.014c-2.437-3.671-2.074-7.876,2.473-9.775a7.21,7.21,0,0,1,9.417,3.821q1.8,4.269,3.606,8.534,2.559,6.051,5.113,12.1c.393.928.853,1.853,1.186,2.8C1140.165,249.047,1140.174,249.069,1140.183,249.094Z" fill="#b1e5d2"/>
        </g>
        <path id="Trazado_101526" data-name="Trazado 101526" d="M1116.421,254.536q-.144.453-.3.9c-1.718,5.24-4.591,10.308-6.889,15.329-.628,1.37-2.167,6.523-3.293,6.74-2.079.4-4.541-2.953-6.476-3.589-1.678-.554-5.82-1.749-5.731-4.2.106-2.962,2.6-5.967,4-8.419.8-1.413.867-2.818,1.424-4.235.966-2.474,2.718-4.417,3.621-6.959.357-1,.734-1.937,1.019-2.974q1.106-4.024,2.21-8.046,1.77-6.45,3.542-12.9a7.185,7.185,0,1,1,13.857,3.8l-2.841,10.337C1119.25,245.12,1117.933,249.844,1116.421,254.536Z" fill="#b1e5d2"/>
        <path id="Trazado_101527" data-name="Trazado 101527" d="M1123.554,188.474a5.234,5.234,0,0,1,2.363-3.155c.463-.3,4.515-1.9,4.639-1.092-.163-1.062.732-1.371.579-2.378-.126-.826-1.464-2-2.073-2.463-5.437-4.1-12.172-.78-14.822,4.894a15.919,15.919,0,0,0-1.067,7.414c.174,3.942,1.371,9.549,6.33,8.361a10.753,10.753,0,0,1,3.85-.363c2.79.186,1.56-.993,1.078-2.705-.712-2.533-1.582-5.59-.937-8.277C1123.512,188.63,1123.533,188.552,1123.554,188.474Z" fill="#b1e5d2"/>
        <path id="Trazado_101528" data-name="Trazado 101528" d="M1130.652,188.737a.725.725,0,0,0-.194-.037,12.969,12.969,0,0,0-1.5.07l-2.773.131s-.716,2.7-.717,2.705a2.537,2.537,0,0,0,.563,1.569,2.5,2.5,0,0,0,1.224.907,3.289,3.289,0,0,0,1,.167,3.043,3.043,0,0,0,1.017-.008c.308-.1.425-.4.6-.657a8.244,8.244,0,0,0,.81-1.542,11.715,11.715,0,0,0,.543-1.861C1131.339,189.651,1131.189,188.915,1130.652,188.737Z" fill="#b1e5d2"/>
        <path id="Trazado_101529" data-name="Trazado 101529" d="M1126.413,189.182s-1.24-2.789-2.789-1.267l-.17.4s1.381-1.831,2.706,1.04S1126.413,189.182,1126.413,189.182Z" fill="#b1e5d2"/>
        <path id="Trazado_101530" data-name="Trazado 101530" d="M1126.187,189.944a2.985,2.985,0,0,1-2.817-1.972l-.14.451s.31,1.549,2.986,1.718S1126.187,189.944,1126.187,189.944Z" fill="#b1e5d2"/>
        <g id="Grupo_69758" data-name="Grupo 69758">
          <path id="Trazado_101531" data-name="Trazado 101531" d="M1116.22,196.434c-2.692,1.135-4.365,2.706-6.523,4.768a32.6,32.6,0,0,0-2.9,2.99c-1.15,1.406-2.757,2.062-3.918,3.416-1.174,1.371-1.64,3.18-2.649,4.677a10.965,10.965,0,0,0-1.728,3.41,22.3,22.3,0,0,0-1.142,4.669c-.149,2.582,1.019,3,3.426,3.451,2.1.392,2.092.225,2.868-1.779.631-1.629,1.086-3.255,1.823-4.863.9-1.953,2.123-2.609,3.672-4.224,1.71-1.786,2.559-2.794,4.879-3.569,1.909-.639,2.131-1.526,2.853-3.319.778-1.927,2.952-7.6.989-9.367-.548-.493-1.319-.652-1.728.072Z" fill="#b1e5d2"/>
          <path id="Trazado_101532" data-name="Trazado 101532" d="M1096.62,225.108c.239-1.386.572-4.679,2.672-4.613a4.849,4.849,0,0,1,2.6,1.186c1.451,1.2,1.171,3.37.858,5.01a2.418,2.418,0,0,0-.084.845c.053.241.377.442.41.636a.666.666,0,0,1-.806.73c-.473-.056-.67-.612-1.168-.436-.471.167-.3.715-.451,1.1a.889.889,0,0,1-1.069.566c-.22-.034-.488-.311-.623-.324-.313-.029-.21.212-.492.282s-.285.065-.527-.125c-.059-.045.01-.3-.088-.365s-.243,0-.262-.011c-.217-.116-.381.1-.6-.3a5.669,5.669,0,0,1-.281-1.909A8.022,8.022,0,0,1,1096.62,225.108Z" fill="#b1e5d2"/>
        </g>
        <path id="Trazado_101533" data-name="Trazado 101533" d="M1111.06,211.465l-.143-.078-.123-.106a7.537,7.537,0,0,1,1.7-1.962c.259-.181.58-.451.921-.737,1.187-1,2.662-2.239,3.882-1.917a.16.16,0,0,1,.115.2.157.157,0,0,1-.2.115c-1.057-.277-2.521.954-3.592,1.853-.346.29-.673.564-.943.754A7.323,7.323,0,0,0,1111.06,211.465Z" fill="#fff"/>
        <path id="Trazado_101534" data-name="Trazado 101534" d="M1134.4,216.669c.762.958,1.554,1.89,2.3,2.861,1.362,1.768,2.269,3.687,3.837,5.3.713.734,4.144,3.568,1.312,3.88.723,1.141,1.2,2.619-.616,3-.69.144-.679.675-1.641.506a5.669,5.669,0,0,1-2.1-1.366c-1.442-1.148-1.828-2.544-2.879-4.029a17.868,17.868,0,0,0-4.893-4.243c-2.187-1.407-4.45-3.655-4.174-6.428.158-1.578.41-6.365,1.935-7.269,1.9-1.127,4.118,3.582,4.758,4.7A24.628,24.628,0,0,0,1134.4,216.669Z" fill="#b1e5d2"/>
        <path id="Trazado_101535" data-name="Trazado 101535" d="M1129.865,224.607a1.4,1.4,0,0,1-.343-.045.162.162,0,0,1,.079-.314.869.869,0,0,0,.892-.247c.939-.949,1-4.036.728-5.054a8.131,8.131,0,0,0-.623-1.511,6.662,6.662,0,0,1-.709-1.9,17.348,17.348,0,0,1-.151-2.56c0-.3-.006-.583-.014-.858a.162.162,0,0,1,.157-.166h.005a.161.161,0,0,1,.162.156c.008.277.011.568.014.865a17.007,17.007,0,0,0,.146,2.511,6.358,6.358,0,0,0,.68,1.809,8.342,8.342,0,0,1,.646,1.573c.28,1.066.263,4.278-.811,5.364A1.18,1.18,0,0,1,1129.865,224.607Z" fill="#fff"/>
        <path id="Trazado_101536" data-name="Trazado 101536" d="M1106.624,277.169a.195.195,0,0,1-.17-.287,18.434,18.434,0,0,0,1.253-3.2,24.452,24.452,0,0,1,.914-2.522c.4-.906.877-1.794,1.335-2.651.469-.88.954-1.789,1.361-2.713.467-1.058.926-2.047,1.37-3a59.892,59.892,0,0,0,4.146-10.962c.454-1.709.983-3.425,1.5-5.085.259-.838.517-1.675.768-2.515l3.033-10.182a.19.19,0,0,1,.241-.131.194.194,0,0,1,.131.242l-3.033,10.182c-.251.841-.51,1.68-.769,2.519-.511,1.656-1.039,3.368-1.491,5.069a60.239,60.239,0,0,1-4.169,11.027c-.444.953-.9,1.94-1.368,2.995-.413.937-.9,1.853-1.373,2.738-.454.852-.924,1.734-1.324,2.627a24.554,24.554,0,0,0-.9,2.483,18.722,18.722,0,0,1-1.282,3.263A.194.194,0,0,1,1106.624,277.169Z" fill="#fff"/>
      </g>
    </g>
  </g>
</svg>
