<svg xmlns="http://www.w3.org/2000/svg" width="190.76" height="150.799" viewBox="0 0 190.76 150.799">
  <g id="Grupo_69797" data-name="Grupo 69797" transform="translate(-73.593 -965.166)">
    <rect id="Rectángulo_5434" data-name="Rectángulo 5434" width="190.76" height="150.799" transform="translate(73.593 965.166)" fill="none"/>
    <g id="Grupo_69796" data-name="Grupo 69796" transform="translate(92.944 992.849)">
      <path id="Trazado_101537" data-name="Trazado 101537" d="M112.377,1101.841c-.1-.03-.19-.062-.282-.1-1.259-.483-2.421-1.855-3.411-2.731-2.669-2.36-5.209-5.519-4.773-9.31.451-3.917,3.919-6.766,5.373-10.432,3.415-8.613-5.045-18.238-2.61-27.177,1.806-6.627,9.106-10.345,15.95-10.937s13.671,1.1,20.537,1.283a47.379,47.379,0,0,0,31.18-10.765c6.112-5.063,10.927-11.221,17.574-15.68,6.222-4.173,13.393-7.213,20.957-7.506a31.253,31.253,0,0,1,20,6.282,17.416,17.416,0,0,1,6.05,7.538c1.431,3.893.781,8.193.331,12.316s-.6,8.587,1.619,12.088c1.529,2.409,3.872,3.838,6.076,5.527a24.635,24.635,0,0,1,6.059,6.352c3.389,5.433,3.554,12.4,1.855,18.574-2.135,7.759-6.813,14.434-11.087,21.1a5.773,5.773,0,0,0-.443.777,5.914,5.914,0,0,0-.24,3.046H118.253C116.46,1101.929,114.129,1102.374,112.377,1101.841Z" transform="translate(-103.861 -1008.467)" fill="#f9e4cf"/>
      <g id="Grupo_69763" data-name="Grupo 69763" transform="translate(5.693 93.07)">
        <path id="Trazado_101538" data-name="Trazado 101538" d="M251.158,1154.147c-17.944-.135-35.892-.1-53.836-.1H128.379c-2.472,0-4.944-.012-7.416.006a66.527,66.527,0,0,0-7.628.278.614.614,0,0,0,0,1.224,59.289,59.289,0,0,0,6.8.272c2.2.017,4.395.013,6.593.013h40.377c17.945,0,35.891.04,53.836,0,10.071-.024,20.143-.019,30.214-.094C252.446,1155.736,252.448,1154.158,251.158,1154.147Z" transform="translate(-112.766 -1154.045)" fill="#e4cbb7"/>
      </g>
      <g id="Grupo_69788" data-name="Grupo 69788" transform="translate(17.413 10.979)">
        <path id="Trazado_101539" data-name="Trazado 101539" d="M219.417,1143.615v.777H190.468v-.777s6.047-1,6.182-6.182c.054-2.039.059-4.311.049-6.195-.011-2.3-.049-4.015-.049-4.015h16.589s-.1,4.666-.027,8.913c.005.438.016.871.027,1.3C213.373,1142.614,219.417,1143.615,219.417,1143.615Z" transform="translate(-152.512 -1062.28)" fill="#ccc3bd"/>
        <path id="Trazado_101540" data-name="Trazado 101540" d="M216.7,1136.136c-4.15-3.636-13.152-4.643-16.513-4.9-.011-2.3-.049-4.015-.049-4.015h16.589S216.629,1131.889,216.7,1136.136Z" transform="translate(-156 -1062.28)" fill="#bcb0a8"/>
        <path id="Trazado_101541" data-name="Trazado 101541" d="M234.289,1025.64H132.773a1.672,1.672,0,0,0-1.675,1.672v62.453a1.674,1.674,0,0,0,1.675,1.675H234.289a1.671,1.671,0,0,0,1.672-1.675v-62.453A1.669,1.669,0,0,0,234.289,1025.64Z" transform="translate(-131.098 -1025.64)" fill="#4d3c4b"/>
        <path id="Trazado_101542" data-name="Trazado 101542" d="M136.443,1030.985v58.964H234.47v-58.964Z" transform="translate(-133.026 -1027.568)" fill="#fff1e9"/>
        <rect id="Rectángulo_5435" data-name="Rectángulo 5435" width="31.796" height="1.551" transform="translate(36.533 81.336)" fill="#4d3c4b"/>
        <rect id="Rectángulo_5436" data-name="Rectángulo 5436" width="60.454" height="33.605" transform="translate(7.877 9.493)" fill="#ffaa79"/>
        <rect id="Rectángulo_5437" data-name="Rectángulo 5437" width="18.523" height="1.299" transform="translate(7.876 46.481)" fill="#ffdecb"/>
        <rect id="Rectángulo_5438" data-name="Rectángulo 5438" width="60.453" height="1.299" transform="translate(7.876 49.225)" fill="#ffdecb"/>
        <rect id="Rectángulo_5439" data-name="Rectángulo 5439" width="60.453" height="1.299" transform="translate(7.876 51.969)" fill="#ffdecb"/>
        <rect id="Rectángulo_5440" data-name="Rectángulo 5440" width="60.453" height="1.299" transform="translate(7.876 54.713)" fill="#ffdecb"/>
        <rect id="Rectángulo_5441" data-name="Rectángulo 5441" width="60.453" height="1.299" transform="translate(7.876 57.457)" fill="#ffdecb"/>
        <rect id="Rectángulo_5442" data-name="Rectángulo 5442" width="26.72" height="5.379" rx="2.69" transform="translate(71.259 9.495)" fill="#ffdecb"/>
        <g id="Grupo_69765" data-name="Grupo 69765" transform="translate(72.228 10.518)">
          <g id="Grupo_69764" data-name="Grupo 69764">
            <path id="Trazado_101543" data-name="Trazado 101543" d="M245.742,1045.425a1.666,1.666,0,1,1,1.667-1.666A1.668,1.668,0,0,1,245.742,1045.425Zm0-3.23a1.564,1.564,0,1,0,1.564,1.564A1.566,1.566,0,0,0,245.742,1042.194Z" transform="translate(-244.076 -1042.092)" fill="#ffaa79"/>
          </g>
        </g>
        <rect id="Rectángulo_5443" data-name="Rectángulo 5443" width="10.768" height="0.884" transform="translate(77.251 10.96)" fill="#fff1e9"/>
        <rect id="Rectángulo_5444" data-name="Rectángulo 5444" width="17.457" height="0.884" transform="translate(77.251 12.525)" fill="#fff1e9"/>
        <g id="Grupo_69768" data-name="Grupo 69768" transform="translate(72.228 17.574)">
          <g id="Grupo_69766" data-name="Grupo 69766">
            <path id="Trazado_101544" data-name="Trazado 101544" d="M245.742,1056.462a1.666,1.666,0,1,1,1.667-1.666A1.668,1.668,0,0,1,245.742,1056.462Zm0-3.231a1.564,1.564,0,1,0,1.564,1.564A1.567,1.567,0,0,0,245.742,1053.231Z" transform="translate(-244.076 -1053.129)" fill="#ffaa79"/>
          </g>
          <g id="Grupo_69767" data-name="Grupo 69767" transform="translate(1.102 0.81)">
            <path id="Trazado_101545" data-name="Trazado 101545" d="M245.8,1056.109V1054.4l1.372.856Z" transform="translate(-245.799 -1054.396)" fill="#ffaa79"/>
          </g>
        </g>
        <rect id="Rectángulo_5445" data-name="Rectángulo 5445" width="10.768" height="0.884" transform="translate(77.251 18.017)" fill="#ffdecb"/>
        <rect id="Rectángulo_5446" data-name="Rectángulo 5446" width="17.457" height="0.884" transform="translate(77.251 19.581)" fill="#ffdecb"/>
        <g id="Grupo_69771" data-name="Grupo 69771" transform="translate(72.228 24.631)">
          <g id="Grupo_69769" data-name="Grupo 69769">
            <path id="Trazado_101546" data-name="Trazado 101546" d="M245.742,1067.5a1.666,1.666,0,1,1,1.667-1.667A1.668,1.668,0,0,1,245.742,1067.5Zm0-3.23a1.564,1.564,0,1,0,1.564,1.564A1.566,1.566,0,0,0,245.742,1064.269Z" transform="translate(-244.076 -1064.167)" fill="#ffaa79"/>
          </g>
          <g id="Grupo_69770" data-name="Grupo 69770" transform="translate(1.102 0.81)">
            <path id="Trazado_101547" data-name="Trazado 101547" d="M245.8,1067.147v-1.713l1.372.856Z" transform="translate(-245.799 -1065.434)" fill="#ffaa79"/>
          </g>
        </g>
        <rect id="Rectángulo_5447" data-name="Rectángulo 5447" width="10.768" height="0.884" transform="translate(77.251 25.073)" fill="#ffdecb"/>
        <rect id="Rectángulo_5448" data-name="Rectángulo 5448" width="17.457" height="0.884" transform="translate(77.251 26.637)" fill="#ffdecb"/>
        <g id="Grupo_69774" data-name="Grupo 69774" transform="translate(72.228 31.687)">
          <g id="Grupo_69772" data-name="Grupo 69772">
            <path id="Trazado_101548" data-name="Trazado 101548" d="M245.742,1078.537a1.666,1.666,0,1,1,1.667-1.666A1.668,1.668,0,0,1,245.742,1078.537Zm0-3.23a1.564,1.564,0,1,0,1.564,1.564A1.566,1.566,0,0,0,245.742,1075.306Z" transform="translate(-244.076 -1075.204)" fill="#ffaa79"/>
          </g>
          <g id="Grupo_69773" data-name="Grupo 69773" transform="translate(1.102 0.81)">
            <path id="Trazado_101549" data-name="Trazado 101549" d="M245.8,1078.184v-1.713l1.372.856Z" transform="translate(-245.799 -1076.471)" fill="#ffaa79"/>
          </g>
        </g>
        <rect id="Rectángulo_5449" data-name="Rectángulo 5449" width="10.768" height="0.884" transform="translate(77.251 32.129)" fill="#ffdecb"/>
        <rect id="Rectángulo_5450" data-name="Rectángulo 5450" width="17.457" height="0.884" transform="translate(77.251 33.694)" fill="#ffdecb"/>
        <g id="Grupo_69777" data-name="Grupo 69777" transform="translate(72.228 38.744)">
          <g id="Grupo_69775" data-name="Grupo 69775">
            <path id="Trazado_101550" data-name="Trazado 101550" d="M245.742,1089.575a1.666,1.666,0,1,1,1.667-1.667A1.668,1.668,0,0,1,245.742,1089.575Zm0-3.231a1.564,1.564,0,1,0,1.564,1.564A1.566,1.566,0,0,0,245.742,1086.344Z" transform="translate(-244.076 -1086.242)" fill="#ffaa79"/>
          </g>
          <g id="Grupo_69776" data-name="Grupo 69776" transform="translate(1.102 0.81)">
            <path id="Trazado_101551" data-name="Trazado 101551" d="M245.8,1089.221v-1.713l1.372.856Z" transform="translate(-245.799 -1087.509)" fill="#ffaa79"/>
          </g>
        </g>
        <rect id="Rectángulo_5451" data-name="Rectángulo 5451" width="10.768" height="0.884" transform="translate(77.251 39.186)" fill="#ffdecb"/>
        <rect id="Rectángulo_5452" data-name="Rectángulo 5452" width="17.457" height="0.884" transform="translate(77.251 40.75)" fill="#ffdecb"/>
        <g id="Grupo_69780" data-name="Grupo 69780" transform="translate(72.228 45.8)">
          <g id="Grupo_69778" data-name="Grupo 69778">
            <path id="Trazado_101552" data-name="Trazado 101552" d="M245.742,1100.612a1.666,1.666,0,1,1,1.667-1.666A1.668,1.668,0,0,1,245.742,1100.612Zm0-3.23a1.564,1.564,0,1,0,1.564,1.564A1.566,1.566,0,0,0,245.742,1097.381Z" transform="translate(-244.076 -1097.279)" fill="#ffaa79"/>
          </g>
          <g id="Grupo_69779" data-name="Grupo 69779" transform="translate(1.102 0.81)">
            <path id="Trazado_101553" data-name="Trazado 101553" d="M245.8,1100.259v-1.713l1.372.856Z" transform="translate(-245.799 -1098.546)" fill="#ffaa79"/>
          </g>
        </g>
        <rect id="Rectángulo_5453" data-name="Rectángulo 5453" width="10.768" height="0.884" transform="translate(77.251 46.242)" fill="#ffdecb"/>
        <rect id="Rectángulo_5454" data-name="Rectángulo 5454" width="17.457" height="0.884" transform="translate(77.251 47.806)" fill="#ffdecb"/>
        <g id="Grupo_69783" data-name="Grupo 69783" transform="translate(72.228 52.856)">
          <g id="Grupo_69781" data-name="Grupo 69781">
            <path id="Trazado_101554" data-name="Trazado 101554" d="M245.742,1111.649a1.666,1.666,0,1,1,1.667-1.666A1.668,1.668,0,0,1,245.742,1111.649Zm0-3.23a1.564,1.564,0,1,0,1.564,1.564A1.566,1.566,0,0,0,245.742,1108.419Z" transform="translate(-244.076 -1108.317)" fill="#ffaa79"/>
          </g>
          <g id="Grupo_69782" data-name="Grupo 69782" transform="translate(1.102 0.81)">
            <path id="Trazado_101555" data-name="Trazado 101555" d="M245.8,1111.3v-1.713l1.372.856Z" transform="translate(-245.799 -1109.584)" fill="#ffaa79"/>
          </g>
        </g>
        <rect id="Rectángulo_5455" data-name="Rectángulo 5455" width="10.768" height="0.884" transform="translate(77.251 53.298)" fill="#ffdecb"/>
        <rect id="Rectángulo_5456" data-name="Rectángulo 5456" width="17.457" height="0.884" transform="translate(77.251 54.863)" fill="#ffdecb"/>
        <g id="Grupo_69784" data-name="Grupo 69784" transform="translate(73.453 11.614)">
          <rect id="Rectángulo_5457" data-name="Rectángulo 5457" width="0.245" height="1.164" fill="#ffaa79"/>
          <rect id="Rectángulo_5458" data-name="Rectángulo 5458" width="0.245" height="1.164" transform="translate(0.637)" fill="#ffaa79"/>
        </g>
        <g id="Grupo_69787" data-name="Grupo 69787" transform="translate(11.606 3.116)">
          <path id="Trazado_101556" data-name="Trazado 101556" d="M165.52,1037.354c.013-.131.026-.263.035-.394a6.057,6.057,0,0,0-1.684-4.816,7.114,7.114,0,0,0-4.824-1.629,6.119,6.119,0,0,0-2.294.33,5.33,5.33,0,0,0-2.528,2.274,24.005,24.005,0,0,0-1.318,3.37,8.367,8.367,0,0,1-2.263,2.42,3.474,3.474,0,0,0-1.353,2.979c.132.678.6,1.255.729,1.934.288,1.527-1.2,3.126-.538,4.533a2.564,2.564,0,0,0,2.58,1.158c1.041-.079,2.183-.453,3.066.105.831.526,1.034,1.648,1.67,2.4a4.283,4.283,0,0,0,3.47,1.135c1.282-.039,2.8.472,3.766-.657a18.132,18.132,0,0,0,1.419-2.6,10.648,10.648,0,0,0,1.435-2.337c.195-.667.111-1.387.26-2.067a11.8,11.8,0,0,0,.532-1.943c.071-1.658-1.8-2.775-2.164-4.393A5.66,5.66,0,0,1,165.52,1037.354Z" transform="translate(-149.252 -1030.514)" fill="#5d361d"/>
          <path id="Trazado_101557" data-name="Trazado 101557" d="M169.554,1091.477h-16.21c.028-.144.057-.285.083-.417.115-.59.216-1.088.293-1.471.029-.144.052-.271.075-.383v0c.018-.084.032-.159.047-.224.006-.032.011-.061.017-.09l.043-.207c.705.069,1.4.123,2.073.169,3.046.208,5.8.216,7.981.156.242-.009.478-.015.705-.023q.678-.027,1.264-.058h.032c.192-.011.377-.023.552-.031l.265-.017c.345-.023.656-.046.93-.066.132-.012.253-.02.366-.031.129-.009.247-.02.354-.029.086-.009.167-.017.236-.026h.023c.069-.006.13-.014.182-.02l.221-.023h0c.029.158.058.317.09.475v0q.078.436.155.881C169.411,1090.513,169.485,1090.99,169.554,1091.477Z" transform="translate(-150.728 -1051.495)" fill="#c85f64"/>
          <path id="Trazado_101558" data-name="Trazado 101558" d="M190.979,1051.726c-.512,2.683-1.442,10.763-2.387,12.005-.241.317-.467.327-.833.476-2.029.829-2.483-1.483-2.25-2.972.159-1.016,2.973-9.842,3.213-10.223C189.053,1050.489,191.071,1051.242,190.979,1051.726Z" transform="translate(-162.31 -1037.844)" fill="#ff9981"/>
          <path id="Trazado_101559" data-name="Trazado 101559" d="M171.389,1058.422c.995,3.347,3.077,5.463,5.96,7.553,3.028,2.2,5.386.859,6.29-1a11.5,11.5,0,0,0,.543-1.261,4.359,4.359,0,0,1-3.5-2.243c-.172-.288-5.265-7.306-6.044-7.425C173.785,1053.919,171.117,1057.5,171.389,1058.422Z" transform="translate(-157.23 -1039.002)" fill="#c85f64"/>
          <path id="Trazado_101560" data-name="Trazado 101560" d="M168.055,1060.2a10.539,10.539,0,0,1-.364,2.95,7.3,7.3,0,0,1-2.362,3.738,3.517,3.517,0,0,1-2.041.866,3.337,3.337,0,0,1-1.245-.232,4.736,4.736,0,0,1-2.559-2.193,7.2,7.2,0,0,1-.568-3.817,7.857,7.857,0,0,0-.126-3,11.579,11.579,0,0,0-1.414-2.349,7.838,7.838,0,0,1-1.171-3.487c-.095-1.1.532-1.476,1.414-1.87l2.442-1.089a.8.8,0,0,0,.382-.606l.079-.957.1-1.195,3.113-.343.171,2.109.018.233a.788.788,0,0,0,.421.628c1.281.652,2.469,1.019,3.14,2.423a2.987,2.987,0,0,1,.228,1.266c.009.874-.1,1.747-.078,2.62.027.941.214,1.869.321,2.8A14.475,14.475,0,0,1,168.055,1060.2Z" transform="translate(-151.757 -1036.319)" fill="#ff9981"/>
          <path id="Trazado_101561" data-name="Trazado 101561" d="M162.966,1048.143a3.15,3.15,0,0,0,2.548.76,3.668,3.668,0,0,0,.837-.187l-.172-2.11-3.112.345Z" transform="translate(-154.199 -1036.318)" fill="#b98074"/>
          <path id="Trazado_101562" data-name="Trazado 101562" d="M160.239,1039.237c0,.09.006.186.015.286a5.648,5.648,0,0,0,.237,1.186,5.984,5.984,0,0,0,1.236,2.327,3.169,3.169,0,0,0,2.8,1.01c2.467-.272,3.1-2.488,3.221-4.131,0-.055,0-.105.01-.161a9.256,9.256,0,0,0-.452-3.111c-.709-1.5-3.312-1.483-3.312-1.483s-1.036.761-3.649,3.036A2.974,2.974,0,0,0,160.239,1039.237Z" transform="translate(-153.214 -1032.19)" fill="#ff9981"/>
          <path id="Trazado_101563" data-name="Trazado 101563" d="M165.844,1043.257s0,.006,0,.006S165.848,1043.256,165.844,1043.257Z" transform="translate(-155.236 -1035.11)" fill="#a49574"/>
          <path id="Trazado_101564" data-name="Trazado 101564" d="M167.061,1041.283c-.09-.212-.085-.493-.222-.672a.017.017,0,0,0-.026,0c-.179.175-.067.5.008.7.052.144.118.283.183.421.022.046.128.191.116.244-.031.145-.3.141-.4.13-.167-.018-.168.247,0,.263.238.022.724-.1.667-.408A3.879,3.879,0,0,0,167.061,1041.283Z" transform="translate(-155.508 -1034.153)" fill="#b98074"/>
          <path id="Trazado_101565" data-name="Trazado 101565" d="M159.922,1041.923s-.763-.921-1.122-.472.2,2.53,1.582,2.328Z" transform="translate(-152.658 -1034.414)" fill="#ff9981"/>
          <path id="Trazado_101566" data-name="Trazado 101566" d="M159.814,1042.352c-.061-.022-.117.071-.065.112a2.913,2.913,0,0,1,.383.337.985.985,0,0,0-.348.062c-.081.03-.075.162.021.159a2.677,2.677,0,0,0,.475-.012c.053.092.1.188.154.285a.091.091,0,0,0,.166-.07A1.345,1.345,0,0,0,159.814,1042.352Z" transform="translate(-153.03 -1034.783)" fill="#b98074"/>
          <path id="Trazado_101567" data-name="Trazado 101567" d="M168.174,1070.549c-.111-.6-.2-1.212-.251-1.818a19.152,19.152,0,0,1,.2-5.925c.265-1.153.827-2.012.633-3.519-.175-1.358-.582-2.679-.63-3.632-.037-.794-.179-2.459-.175-2.483-.055-.089-2.271-.641-3.642-1.257-.258-.119-.487-.222-.66-.3.515.231-.329,7.067-1.32,8.826-1.028-1.516-3.406-8.913-3.705-8.826-.2.062-.405.126-.6.191-3.962,1.3-5.2,2.729-5.2,2.729.779,1.529,1.284,3.714,1.412,8.216a50.375,50.375,0,0,1-.359,7.724q-.155,1.239-.385,2.467c-.143.758-.343,1.514-.526,2.265a.427.427,0,0,0,0,.293.42.42,0,0,0,.219.162c3.532,1.527,7.538,1.478,11.361,1.045a24.791,24.791,0,0,0,3-.49,12.829,12.829,0,0,0,1.529-.462c.655-.246.4-.48.2-1.069A29.9,29.9,0,0,1,168.174,1070.549Z" transform="translate(-150.541 -1038.125)" fill="#e38386"/>
          <path id="Trazado_101568" data-name="Trazado 101568" d="M164.463,1039.576c-.049-.125-.291-.116-.4-.12a2.2,2.2,0,0,0-.467.028,2.623,2.623,0,0,0-.447.123,1.308,1.308,0,0,0-.389.2.02.02,0,0,0,.011.036.912.912,0,0,0,.407-.05,3.221,3.221,0,0,1,.424-.106,2.216,2.216,0,0,1,.441-.025c.069,0,.137.013.2.02s.147.024.2-.028A.072.072,0,0,0,164.463,1039.576Z" transform="translate(-154.121 -1033.739)" fill="#684731"/>
          <path id="Trazado_101569" data-name="Trazado 101569" d="M162.523,1068.341a7.121,7.121,0,0,0-1.034.171,5.538,5.538,0,0,1-1.094.049,5.748,5.748,0,0,1-1.054-.156c-.361-.087-.7-.227-1.056-.334-.135-.04-.2.145-.092.219a4.477,4.477,0,0,0,2.17.612,5.78,5.78,0,0,0,1.133-.04,2.314,2.314,0,0,0,1.079-.329A.1.1,0,0,0,162.523,1068.341Z" transform="translate(-152.458 -1044.058)" fill="#c85f64"/>
          <path id="Trazado_101570" data-name="Trazado 101570" d="M167.855,1039.46c.069-.1.25-.12.364-.14a2.68,2.68,0,0,1,.386-.04,2.641,2.641,0,0,1,.389.013,1.024,1.024,0,0,1,.389.089.066.066,0,0,1-.025.118,2.726,2.726,0,0,1-.378-.039,2.5,2.5,0,0,0-.366,0,2.638,2.638,0,0,0-.36.05c-.059.012-.119.026-.177.042a.3.3,0,0,1-.191.013A.068.068,0,0,1,167.855,1039.46Z" transform="translate(-155.958 -1033.675)" fill="#684731"/>
          <path id="Trazado_101571" data-name="Trazado 101571" d="M167.346,1044.633l-1.929-.123a.931.931,0,0,0,.965.736C167.346,1045.246,167.346,1044.633,167.346,1044.633Z" transform="translate(-155.083 -1035.562)" fill="#fff"/>
          <path id="Trazado_101572" data-name="Trazado 101572" d="M164.433,1041.08c0-.015,0-.029,0-.043a.289.289,0,0,0-.107-.21.218.218,0,0,0-.232-.01.27.27,0,0,0-.12.212.534.534,0,0,0,.048.245.262.262,0,0,0,.067.1.217.217,0,0,0,.283-.036A.419.419,0,0,0,164.433,1041.08Z" transform="translate(-154.561 -1034.22)" fill="#544537"/>
          <path id="Trazado_101573" data-name="Trazado 101573" d="M169.17,1040.9c0-.015,0-.03,0-.044a.286.286,0,0,0-.107-.21.216.216,0,0,0-.232-.01.27.27,0,0,0-.12.212.538.538,0,0,0,.049.246.243.243,0,0,0,.067.1.217.217,0,0,0,.283-.036A.422.422,0,0,0,169.17,1040.9Z" transform="translate(-156.269 -1034.153)" fill="#544537"/>
          <path id="Trazado_101574" data-name="Trazado 101574" d="M213.6,1076.221H188.943l-1.58-12.5-.124-.985-.066-.51-.058-.472-.207-1.624-.5-3.993-1.232-9.751h24.646Z" transform="translate(-162.208 -1036.238)" fill="#fff"/>
          <path id="Trazado_101575" data-name="Trazado 101575" d="M198.268,1046.886h7.786a1.165,1.165,0,0,0,0-2.329h-7.786a1.165,1.165,0,0,0,0,2.329Z" transform="translate(-166.516 -1035.579)" fill="#eceae8"/>
          <path id="Trazado_101576" data-name="Trazado 101576" d="M186.609,1076.221H178.7l.363-2.623.1-.711.806-5.824.014-.109.026-.17.4-2.911.046-.348,1.019-7.344,1.359-9.8,1.232,9.751.5,3.993.207,1.624.058.472.066.51.124.985Z" transform="translate(-159.874 -1036.238)" fill="#eceae8"/>
          <path id="Trazado_101577" data-name="Trazado 101577" d="M193.612,1045.2c.645.469.454,1.278-.449,1.543a4.261,4.261,0,0,1-1.345.107,4.612,4.612,0,0,1-.648-.061c-1.3-.242-1.818-1.469-.558-1.953A3.709,3.709,0,0,1,193.612,1045.2Z" transform="translate(-163.91 -1035.618)" fill="#ff9981"/>
          <g id="Grupo_69785" data-name="Grupo 69785" transform="translate(21.261 19.902)">
            <path id="Trazado_101578" data-name="Trazado 101578" d="M182.7,1070.872a.194.194,0,0,0,.131-.051l9.662-8.839a.194.194,0,0,0-.261-.286l-9.663,8.839a.194.194,0,0,0,.131.338Z" transform="translate(-182.508 -1061.644)" fill="#7e5b45"/>
          </g>
          <g id="Grupo_69786" data-name="Grupo 69786" transform="translate(18.273 25.973)">
            <path id="Trazado_101579" data-name="Trazado 101579" d="M178.162,1075.292a2.685,2.685,0,0,0,1.813.615,5.44,5.44,0,0,0,1.895-.239,2.429,2.429,0,0,0,1.311-1.084,2.526,2.526,0,0,0,.371-.714c.051-.184.063-.378.119-.561a4.313,4.313,0,0,1,.44-.818,1.174,1.174,0,0,0,.153-.643c0-.175,0-.619-.263-.311a2.022,2.022,0,0,1-1.008.79c-.242.053-.481.136-.717.212-.138.044-.565.113-.651.226.219-.287.44-.568.661-.85a.923.923,0,0,0,.22-.409.321.321,0,0,0-.21-.367,14.207,14.207,0,0,0-1.433,1.109,19.044,19.044,0,0,1-2.227,1.456c-.231.134-.6.24-.732.471A1.144,1.144,0,0,0,178.162,1075.292Z" transform="translate(-177.835 -1071.14)" fill="#ff9981"/>
          </g>
          <path id="Trazado_101580" data-name="Trazado 101580" d="M174.766,1077.175a2.543,2.543,0,0,1-.726-2.5s-8.408.911-9.827,2.225a1.876,1.876,0,0,0,1.23,3.234C167.425,1080.23,174.766,1077.175,174.766,1077.175Z" transform="translate(-154.444 -1046.442)" fill="#ff9981"/>
          <path id="Trazado_101581" data-name="Trazado 101581" d="M160.608,1069.666s-1.338,2.4-.2,3.548-5.5-1.07-7.672-7.589c-2.456-7.38-.378-9.562-.378-9.562s2.577-2.13,4.978,7.082A28.583,28.583,0,0,0,160.608,1069.666Z" transform="translate(-150.077 -1039.652)" fill="#c85f64"/>
        </g>
      </g>
      <g id="Grupo_69789" data-name="Grupo 69789" transform="translate(0.881 54.605)">
        <path id="Trazado_101582" data-name="Trazado 101582" d="M128.884,1114.16c.062-.339-.8-2.006.741-6.944a95.255,95.255,0,0,1,4.031-10.246s2.574,7.839.043,14.876l-2.531,7.036Z" transform="translate(-113.7 -1094.995)" fill="#a21f1c"/>
        <path id="Trazado_101583" data-name="Trazado 101583" d="M131.029,1117.5a29.039,29.039,0,0,1,3.642-6.574c2.346-3.086,3.333-4.691,3.889-4.691s-.44,4.691-1.208,6.234-3.484,8.827-3.484,8.827l-3.457,5.247-2.1-1.16,1.481-6.555Z" transform="translate(-113.562 -1098.338)" fill="#c85f64"/>
        <path id="Trazado_101584" data-name="Trazado 101584" d="M127.417,1109.374l-.616,5.893h-3.21l-1.54-4.414a25.588,25.588,0,0,1,.613-9.074c.892-3.785,1.3-6.221,1.46-7.283.046-.314.069-.51.081-.582v0a.22.22,0,0,0,0-.031S126.493,1095.483,127.417,1109.374Z" transform="translate(-111.246 -1093.88)" fill="#e38386"/>
        <path id="Trazado_101585" data-name="Trazado 101585" d="M117.275,1128.68l-3.7-.247-1.791-2.594c0-.006,0-1.269-3.179-5.061-2.579-3.08-3.207-8.358-3.333-9.8-.02-.239-.029-.371-.029-.371l.106.067a28.2,28.2,0,0,1,8.781,8.867C117.275,1125.038,117.275,1128.68,117.275,1128.68Z" transform="translate(-105.239 -1099.914)" fill="#e38386"/>
        <path id="Trazado_101586" data-name="Trazado 101586" d="M115.964,1113.641s-1.961-3.117-1.375-8.549,1.375-6.481,1.375-6.481,1.989,7.839,4.149,11.234.494,9.136.494,9.136l-4.012-2.346Z" transform="translate(-108.572 -1095.586)" fill="#e38386"/>
        <path id="Trazado_101587" data-name="Trazado 101587" d="M141.829,1121.784s-.38.184-.947.515a13.674,13.674,0,0,0-4.419,3.806,19.822,19.822,0,0,1-3.708,4.2l-1.474.127-1.313.113-.99.083-.665.061.72-.567,1.255-.99s3.089-4.627,5.246-5.925a12.284,12.284,0,0,1,4.647-1.548A3.168,3.168,0,0,1,141.829,1121.784Z" transform="translate(-113.562 -1103.883)" fill="#e38386"/>
        <path id="Trazado_101588" data-name="Trazado 101588" d="M141.816,1122.686a13.673,13.673,0,0,0-4.419,3.806,19.823,19.823,0,0,1-3.708,4.2l-1.474.127-1.313.113.967-.763s3.092-4.626,5.248-5.924a12.289,12.289,0,0,1,4.647-1.549C141.781,1122.689,141.8,1122.689,141.816,1122.686Z" transform="translate(-114.495 -1104.27)" fill="#c85f64"/>
        <path id="Trazado_101589" data-name="Trazado 101589" d="M115.41,1128.1a41.266,41.266,0,0,0-2.078-4.445,20.616,20.616,0,0,0-2.473-3.587c-.507-.573-1.04-1.125-1.532-1.71q-.661-.785-1.243-1.629a21.056,21.056,0,0,1-2.816-5.749c-.02-.239-.029-.371-.029-.371l.106.067a23.841,23.841,0,0,0,1.166,2.864,22.788,22.788,0,0,0,2.165,3.582,21.547,21.547,0,0,0,1.376,1.681c.506.564,1.028,1.114,1.5,1.71a28.367,28.367,0,0,1,4.016,7.545C115.606,1128.156,115.45,1128.2,115.41,1128.1Z" transform="translate(-105.239 -1099.914)" fill="#c85f64"/>
        <path id="Trazado_101590" data-name="Trazado 101590" d="M126.147,1107.551c-.078,1.6-.233,3.2-.38,4.79-.09.976-.176,1.961-.2,2.945-.017.625-.015,1.249.023,1.871.006.077-.115.077-.124,0a18.534,18.534,0,0,1-.069-1.871c.009-1.187.113-2.367.228-3.547a77.557,77.557,0,0,0,.38-9.532c-.043-1.592-.141-3.187-.294-4.773-.075-.792-.164-1.584-.259-2.375-.02-.182-.043-.363-.066-.544.046-.314.069-.51.081-.582.006.031.009.063.015.1.072.437.138.878.2,1.318.118.881.21,1.765.288,2.649A70.931,70.931,0,0,1,126.147,1107.551Z" transform="translate(-112.504 -1093.899)" fill="#c85f64"/>
        <path id="Trazado_101591" data-name="Trazado 101591" d="M117.186,1109.714s5.467,6.6,6.437,11.914l-2.734,6.173a25.984,25.984,0,0,1-3.7-9.321A24.04,24.04,0,0,1,117.186,1109.714Z" transform="translate(-109.41 -1099.591)" fill="#c85f64"/>
        <path id="Trazado_101592" data-name="Trazado 101592" d="M129.111,1123.1a28.347,28.347,0,0,1-1.663,7.1l-2.744-.651-.161-.038-3.083-.731a33.7,33.7,0,0,1,2.467-6.052c1.16-1.854,3.95-5.231,4.29-5.637l.031-.04s.061.138.147.395A14.644,14.644,0,0,1,129.111,1123.1Z" transform="translate(-111.089 -1102.238)" fill="#e38386"/>
        <path id="Trazado_101593" data-name="Trazado 101593" d="M130,1117.448c-.046.3-.1.6-.164.887-.8,3.849-2.683,7.387-3.526,11.216-.113.5-.207,1.013-.276,1.532-.012.072-.136.054-.127-.017.058-.521.138-1.04.242-1.552.136-.679.3-1.35.5-2.015.619-2.124,1.48-4.166,2.165-6.267a26.638,26.638,0,0,0,.858-3.222c.058-.3.106-.611.15-.916l.031-.04S129.911,1117.191,130,1117.448Z" transform="translate(-112.692 -1102.238)" fill="#c85f64"/>
        <path id="Trazado_101594" data-name="Trazado 101594" d="M128.93,1134.429v7.785a5.426,5.426,0,0,1-5.426,5.427H120.9a5.426,5.426,0,0,1-5.426-5.427v-7.785Z" transform="translate(-108.93 -1108.505)" fill="#d5cdc8"/>
        <rect id="Rectángulo_5459" data-name="Rectángulo 5459" width="13.458" height="2.161" transform="translate(6.542 28.763)" fill="#f4f2f1"/>
      </g>
      <g id="Grupo_69790" data-name="Grupo 69790" transform="translate(22.406 80.38)">
        <path id="Trazado_101595" data-name="Trazado 101595" d="M142.366,1151.636a.856.856,0,0,0,.856.857h14.356a.422.422,0,1,1,0,.843h-15.2a.856.856,0,0,1-.856-.856v-1.688a.856.856,0,0,1,.856-.856h15.2a.422.422,0,1,1,0,.844H143.222A.856.856,0,0,0,142.366,1151.636Z" transform="translate(-139.851 -1139.873)" fill="#ff7d2d"/>
        <path id="Trazado_101596" data-name="Trazado 101596" d="M139.753,1146.3a.861.861,0,0,0,.861.861h16.781a.422.422,0,0,1,0,.843H139.77a.86.86,0,0,1-.861-.86v-1.687a.86.86,0,0,1,.861-.861h17.625a.422.422,0,0,1,0,.843H140.613A.86.86,0,0,0,139.753,1146.3Z" transform="translate(-138.909 -1137.948)" fill="#e38386"/>
        <path id="Trazado_101597" data-name="Trazado 101597" d="M157.668,1146.78a2.432,2.432,0,0,0,.135.861H140.229v-1.722H157.8A2.431,2.431,0,0,0,157.668,1146.78Z" transform="translate(-139.385 -1138.424)" fill="#fff"/>
        <path id="Trazado_101598" data-name="Trazado 101598" d="M158.08,1152.109a2.74,2.74,0,0,0,.118.861H142.754v-1.721H158.2A2.745,2.745,0,0,0,158.08,1152.109Z" transform="translate(-140.296 -1140.347)" fill="#fff"/>
        <path id="Trazado_101599" data-name="Trazado 101599" d="M155.082,1146.557c-2.165-.14-4.355-.052-6.524-.052q-1.611,0-3.222,0c-.524,0-1.048,0-1.571,0a9.03,9.03,0,0,0-1.578.049.024.024,0,0,0,0,.047,8.563,8.563,0,0,0,1.5.047c.55,0,1.1,0,1.65,0q1.611,0,3.222,0c2.169,0,4.359.088,6.524-.052A.027.027,0,0,0,155.082,1146.557Z" transform="translate(-140.085 -1138.626)" fill="#e4e4e4"/>
        <path id="Trazado_101600" data-name="Trazado 101600" d="M158.353,1147.468c-1.092-.075-2.2-.02-3.3-.02H151.68c-2.22,0-4.455-.059-6.673.034a.036.036,0,0,0,0,.072c2.218.094,4.453.034,6.673.034h3.3c1.12,0,2.258.057,3.376-.021A.051.051,0,0,0,158.353,1147.468Z" transform="translate(-141.096 -1138.968)" fill="#e4e4e4"/>
        <path id="Trazado_101601" data-name="Trazado 101601" d="M157.782,1151.879a32.329,32.329,0,0,0-3.31-.019l-3.39,0-3.311,0c-1.121,0-2.271-.063-3.389.038a.024.024,0,0,0,0,.048c1.092.1,2.215.038,3.31.038l3.39,0,3.31,0a33.143,33.143,0,0,0,3.39-.019A.05.05,0,0,0,157.782,1151.879Z" transform="translate(-140.874 -1140.554)" fill="#e4e4e4"/>
        <path id="Trazado_101602" data-name="Trazado 101602" d="M149.7,1153.017c-.953-.032-1.91-.005-2.863,0a17.589,17.589,0,0,0-2.711.046.015.015,0,0,0,0,.029,17.591,17.591,0,0,0,2.711.046c.953,0,1.91.027,2.863,0A.056.056,0,0,0,149.7,1153.017Z" transform="translate(-140.788 -1140.972)" fill="#e4e4e4"/>
        <path id="Trazado_101603" data-name="Trazado 101603" d="M160.447,1152.989c-.979-.086-1.974-.049-2.957-.046a21.231,21.231,0,0,0-2.81.051c-.031,0-.031.058,0,.062a21.125,21.125,0,0,0,2.81.051c.983,0,1.977.04,2.957-.046A.036.036,0,0,0,160.447,1152.989Z" transform="translate(-144.589 -1140.95)" fill="#e4e4e4"/>
        <path id="Trazado_101604" data-name="Trazado 101604" d="M158.222,1140.977a.856.856,0,0,0-.856-.857H143.01a.422.422,0,1,1,0-.843h15.2a.856.856,0,0,1,.856.856v1.688a.857.857,0,0,1-.856.856h-15.2a.422.422,0,1,1,0-.844h14.356A.856.856,0,0,0,158.222,1140.977Z" transform="translate(-140.236 -1136.029)" fill="#d5cdc8"/>
        <path id="Trazado_101605" data-name="Trazado 101605" d="M143.091,1141.451a2.739,2.739,0,0,0-.119-.861h15.445v1.721H142.972A2.744,2.744,0,0,0,143.091,1141.451Z" transform="translate(-140.374 -1136.502)" fill="#fff"/>
        <path id="Trazado_101606" data-name="Trazado 101606" d="M144.5,1142.532a32.306,32.306,0,0,0,3.311.019l3.389,0,3.311,0c1.122,0,2.271.063,3.389-.038a.024.024,0,0,0,0-.048c-1.092-.1-2.215-.038-3.31-.038l-3.39,0-3.31,0a33.109,33.109,0,0,0-3.39.019A.05.05,0,0,0,144.5,1142.532Z" transform="translate(-140.909 -1137.146)" fill="#e4e4e4"/>
        <path id="Trazado_101607" data-name="Trazado 101607" d="M157,1141.411c.952.032,1.909.005,2.862,0a17.59,17.59,0,0,0,2.711-.046.015.015,0,0,0,0-.029,17.59,17.59,0,0,0-2.711-.046c-.953,0-1.91-.027-2.862,0A.056.056,0,0,0,157,1141.411Z" transform="translate(-145.414 -1136.745)" fill="#e4e4e4"/>
        <path id="Trazado_101608" data-name="Trazado 101608" d="M146.152,1141.426c.98.085,1.974.048,2.957.046a21.229,21.229,0,0,0,2.81-.051c.031,0,.031-.058,0-.062a21.146,21.146,0,0,0-2.81-.051c-.983,0-1.977-.04-2.957.046A.036.036,0,0,0,146.152,1141.426Z" transform="translate(-141.509 -1136.753)" fill="#e4e4e4"/>
        <path id="Rectángulo_5460" data-name="Rectángulo 5460" d="M.673,0H14.926A.672.672,0,0,1,15.6.672v1.94a.672.672,0,0,1-.672.672H.673A.673.673,0,0,1,0,2.613V.673A.673.673,0,0,1,.673,0Z" transform="translate(2.105)" fill="#ffaa79"/>
        <rect id="Rectángulo_5461" data-name="Rectángulo 5461" width="0.518" height="3.285" transform="translate(14.505)" fill="#ff7d2d"/>
        <rect id="Rectángulo_5462" data-name="Rectángulo 5462" width="0.553" height="3.285" transform="translate(15.435)" fill="#ff7d2d"/>
      </g>
      <g id="Grupo_69793" data-name="Grupo 69793" transform="translate(113.854 31.731)">
        <path id="Trazado_101609" data-name="Trazado 101609" d="M292.631,1088.8s-1.247,3.065-2.458,3.177l.636-5.314,1.822.517Z" transform="translate(-284.916 -1068.402)" fill="#7e6656"/>
        <path id="Trazado_101610" data-name="Trazado 101610" d="M313.568,1087.014s1.135-.457.831-3.4-2.411-9.234-4.705-9.709l1.027,10.515Z" transform="translate(-291.957 -1063.802)" fill="#947f72"/>
        <path id="Trazado_101611" data-name="Trazado 101611" d="M299.035,1064.208a3.1,3.1,0,0,1,.768.522,6.836,6.836,0,0,0,1.3,1.185,1.083,1.083,0,0,0,.991.08c1.12-.42,1.387-1.564,1.479-2.626a3.079,3.079,0,0,0-2.541-3.6,3.615,3.615,0,0,0-2.516.3,2.127,2.127,0,0,0-1.04,1.426,4.224,4.224,0,0,0,.16,2.177.855.855,0,0,0,.16.288.361.361,0,0,0,.4.1A1.441,1.441,0,0,1,299.035,1064.208Z" transform="translate(-287.522 -1058.668)" fill="#684731"/>
        <path id="Trazado_101612" data-name="Trazado 101612" d="M304.376,1087.558l-.442-15.414s-2.772-.167-3.243-.839a5.385,5.385,0,0,1-.278-2.4v-.04c.006-.3.019-.56.031-.74l.015-.266-2.933.712a1.328,1.328,0,0,1,.056.56v.006a5.119,5.119,0,0,1-.117,1.046c-.01.046-.019.09-.031.133s-.028.1-.044.145c-.164.542-.458,1-.959,1.036-.829.059-1.77.18-2.36.26a.711.711,0,0,0-.613.674c-.111,2.716-.579,13.938-.621,14.1C292.273,1088.814,299.38,1092.2,304.376,1087.558Z" transform="translate(-285.865 -1061.621)" fill="#ff9981"/>
        <path id="Trazado_101613" data-name="Trazado 101613" d="M300.094,1070.183a1.633,1.633,0,0,0,.609.139,2.33,2.33,0,0,0,2.339-1.457c.006-.3.019-.56.031-.74l.015-.266-2.933.712a1.328,1.328,0,0,1,.056.56v.006A5.117,5.117,0,0,1,300.094,1070.183Z" transform="translate(-288.494 -1061.621)" fill="#b98074"/>
        <g id="Grupo_69791" data-name="Grupo 69791" transform="translate(0 25.467)">
          <path id="Trazado_101614" data-name="Trazado 101614" d="M291.17,1119.6s-.962,4.967-.973,5.761c-.006.391-.45,4.107-.9,7.781-.464,3.791-.933,7.535-.933,7.535l2.678.045s1.149-3.394,2.172-7.215a42.345,42.345,0,0,0,1.559-8.14c.012-.328.037-.591.048-.8.19-.911.987-4.45.987-4.45Zm3.612,5.176a.645.645,0,0,1,.014-.076C294.79,1124.75,294.787,1124.781,294.781,1124.781Z" transform="translate(-284.264 -1105.752)" fill="#ff9981"/>
          <path id="Trazado_101615" data-name="Trazado 101615" d="M306.942,1120.12s.8,3.539.987,4.45c.012.212.036.475.048.8a42.4,42.4,0,0,0,1.559,8.14c1.024,3.821,2.172,7.215,2.172,7.215l2.678-.045s-.469-3.745-.933-7.535c-.449-3.674-.894-7.39-.9-7.781-.011-.795-.973-5.761-.973-5.761Zm1.013,4.585a.642.642,0,0,1,.014.076C307.963,1124.781,307.96,1124.75,307.955,1124.7Z" transform="translate(-290.964 -1105.752)" fill="#ff9981"/>
          <path id="Trazado_101616" data-name="Trazado 101616" d="M281.956,1152.734c.074.578.8.678,1.463.679.678,0,3.661,0,4.475,0,.768,0,1.564.065,1.616-.95l.047-.9c.015-.3.16-.883-.088-1.1-.2-.183-.556-.062-.775.008s-.837.525-1.048.378a.173.173,0,0,1-.056-.137,1.5,1.5,0,0,0-.042-.592.625.625,0,0,0-.545-.265c-.2-.02-.4-.041-.605-.059-.288-.031-.646-.019-.777.267a2.654,2.654,0,0,0-.085.456.4.4,0,0,1-.044.124.637.637,0,0,1-.2.2l-.026.018c-.059.041-.118.083-.18.123a3.623,3.623,0,0,1-.338.208c-.061.031-.121.062-.185.088a1.432,1.432,0,0,1-.342.1.015.015,0,0,1-.01,0,1.774,1.774,0,0,1-.373.011,3.315,3.315,0,0,0-.889-.021,1.269,1.269,0,0,0-.9.8A1.184,1.184,0,0,0,281.956,1152.734Z" transform="translate(-281.95 -1116.635)" fill="#ff9253"/>
          <path id="Trazado_101617" data-name="Trazado 101617" d="M287.182,1151.253a2.77,2.77,0,0,0,2.1.54c.059-.018.085-.118.018-.146-.363-.167-.78-.2-1.159-.338a4.14,4.14,0,0,1-.718-.381.4.4,0,0,1-.044.124A.638.638,0,0,1,287.182,1151.253Z" transform="translate(-283.837 -1117.05)" fill="#fff"/>
          <path id="Trazado_101618" data-name="Trazado 101618" d="M286.332,1151.865a3.706,3.706,0,0,0,.363.3,2.222,2.222,0,0,0,1.135.538.12.12,0,0,0,.082-.2,8.3,8.3,0,0,0-.93-.592c-.111-.08-.211-.165-.314-.253A3.633,3.633,0,0,1,286.332,1151.865Z" transform="translate(-283.531 -1117.313)" fill="#fff"/>
          <path id="Trazado_101619" data-name="Trazado 101619" d="M321.187,1152.734c-.048.526-.612.678-1.247.678-.845,0-5.508.079-5.846-.026-.518-.162-.453-.469-.471-.924l-.047-.9c-.015-.3-.16-.883.088-1.1.2-.183.556-.062.775.008s.837.525,1.048.378a.173.173,0,0,0,.056-.137,1.5,1.5,0,0,1,.042-.592.625.625,0,0,1,.545-.265c.2-.02.4-.041.605-.059.288-.031.646-.019.777.267a2.651,2.651,0,0,1,.085.456.4.4,0,0,0,.044.124.637.637,0,0,0,.2.2l.026.018c.059.041.118.083.18.123a3.708,3.708,0,0,0,.337.208c.062.031.121.062.185.088a1.446,1.446,0,0,0,.343.1.015.015,0,0,0,.01,0,1.774,1.774,0,0,0,.373.011,3.315,3.315,0,0,1,.889-.021,1.374,1.374,0,0,1,1.006,1.366Z" transform="translate(-293.337 -1116.635)" fill="#ff9253"/>
          <path id="Trazado_101620" data-name="Trazado 101620" d="M319.056,1151.253a2.77,2.77,0,0,1-2.1.54c-.059-.018-.085-.118-.018-.146.363-.167.78-.2,1.158-.338a4.124,4.124,0,0,0,.719-.381.4.4,0,0,0,.044.124A.638.638,0,0,0,319.056,1151.253Z" transform="translate(-294.556 -1117.05)" fill="#fff"/>
          <path id="Trazado_101621" data-name="Trazado 101621" d="M320.211,1151.865a3.625,3.625,0,0,1-.362.3,2.221,2.221,0,0,1-1.136.538.12.12,0,0,1-.082-.2,8.3,8.3,0,0,1,.93-.592c.111-.08.211-.165.314-.253A3.714,3.714,0,0,0,320.211,1151.865Z" transform="translate(-295.168 -1117.313)" fill="#fff"/>
          <path id="Trazado_101622" data-name="Trazado 101622" d="M307.284,1114.768a11.857,11.857,0,0,1-7.644.724l-1.8-10.81-1.178,10.754,0,0a.5.5,0,0,0-.054.011c-.015,0-.029.006-.05.011-.038.008-.086.017-.142.031l-.2.037c-.024.006-.05.008-.077.014-.091.017-.2.034-.313.054-.192.028-.414.059-.662.091l-.419.042a15.212,15.212,0,0,1-5.988-.605l2.256-13.837.481-2.95,12.3-.4,2.218,10.711Z" transform="translate(-284.406 -1097.936)" fill="#b57878"/>
          <path id="Trazado_101623" data-name="Trazado 101623" d="M298.743,1125.651c.238-.031.449-.063.634-.091C299.192,1125.591,298.981,1125.623,298.743,1125.651Z" transform="translate(-288.007 -1107.9)" fill="#6a5745"/>
          <path id="Trazado_101624" data-name="Trazado 101624" d="M300.2,1125.447l.26-.051C300.392,1125.413,300.3,1125.431,300.2,1125.447Z" transform="translate(-288.534 -1107.841)" fill="#6a5745"/>
          <path id="Trazado_101625" data-name="Trazado 101625" d="M301.217,1108.487l-1.178,10.754,0,0a.536.536,0,0,0-.054.011l-.05.012c-.038.008-.086.017-.142.031l-.272.051c-.091.017-.2.034-.313.054-.192.028-.414.059-.662.091l-.419.042A61.514,61.514,0,0,1,301.217,1108.487Z" transform="translate(-287.784 -1101.742)" fill="#aa6868"/>
          <path id="Trazado_101626" data-name="Trazado 101626" d="M307.29,1108.647c-1.786-3.886-5.15-6.3-8.914-6.3a21.975,21.975,0,0,1-6.088-1.055l.481-2.95,12.3-.4Z" transform="translate(-285.679 -1097.936)" fill="#aa6868"/>
        </g>
        <path id="Trazado_101627" data-name="Trazado 101627" d="M302.17,1067.609a0,0,0,1,1,0,0S302.167,1067.609,302.17,1067.609Z" transform="translate(-289.243 -1061.53)" fill="#a49574"/>
        <path id="Trazado_101628" data-name="Trazado 101628" d="M292.437,1091.018c-.029.916,13.6,1.016,13.506.237-.532-4.595-1.668-15.494-1.717-16.373a1.567,1.567,0,0,0-.439-1.221,1.548,1.548,0,0,0-.62-.229,18.8,18.8,0,0,1-2.612-.633c-.043-.016-.566,1.648-1.878,1.648a2.045,2.045,0,0,1-2.045-1.437c-.451.392-1.907.288-2.8.421a.674.674,0,0,0-.572.636C293.177,1075.795,292.512,1088.707,292.437,1091.018Z" transform="translate(-285.733 -1063.402)" fill="#947f72"/>
        <path id="Trazado_101629" data-name="Trazado 101629" d="M298.38,1071.909c.084-.011.181-.017.231-.084a.975.975,0,0,0,.054-.116c.09-.164.356-.105.471.042s.145.344.244.5a1.017,1.017,0,0,0,.962.38,1.977,1.977,0,0,0,1.623-1.172,1.227,1.227,0,0,1,.2-.389.3.3,0,0,1,.4-.052c.118.11.074.311.155.451.1.168.328.186.5.273a.82.82,0,0,1,.4.612,2.393,2.393,0,0,1-.036.754,6,6,0,0,1-.375,1.529,3.381,3.381,0,0,1-1.892,1.746,3.043,3.043,0,0,1-1.644.174,2.208,2.208,0,0,1-1.39-.859,3.863,3.863,0,0,1-.533-1.628C297.625,1073.325,297.221,1072.065,298.38,1071.909Z" transform="translate(-287.588 -1062.741)" fill="#947f72"/>
        <path id="Trazado_101630" data-name="Trazado 101630" d="M302.468,1074.279a1.973,1.973,0,0,0-.377.035c-.135.017-.27.036-.407.048a2.744,2.744,0,0,1-.79-.034,1.82,1.82,0,0,1-.658-.286,2.676,2.676,0,0,1-.549-.481s-.01,0-.008.006a2,2,0,0,0,.456.577,1.841,1.841,0,0,0,.694.348,2.7,2.7,0,0,0,.835.067c.141-.008.281-.024.421-.043a1.627,1.627,0,0,0,.421-.1C302.582,1074.388,302.534,1074.284,302.468,1074.279Z" transform="translate(-288.345 -1063.677)" fill="#7e6656"/>
        <path id="Trazado_101631" data-name="Trazado 101631" d="M303.668,1074.377a2.2,2.2,0,0,1-1.328,1.314,3.44,3.44,0,0,1-.947.267,2.227,2.227,0,0,1-.484.006,4.136,4.136,0,0,0-.461-.081.024.024,0,0,0-.017.04.8.8,0,0,0,.457.194,2.047,2.047,0,0,0,.5.026,3.352,3.352,0,0,0,1.063-.277,2.734,2.734,0,0,0,.9-.582,1.641,1.641,0,0,0,.3-.409,1.348,1.348,0,0,0,.13-.482C303.792,1074.324,303.686,1074.315,303.668,1074.377Z" transform="translate(-288.614 -1063.957)" fill="#7e6656"/>
        <path id="Trazado_101632" data-name="Trazado 101632" d="M297.606,1065.311c.01.116.205,2.523,2.01,2.6a2.619,2.619,0,0,0,2.693-2.276c.042-.225.1-.447.149-.671.017-.077.093-.274.066-.348s-.151-.091-.2-.164a.417.417,0,0,1-.061-.181c-.037-.249-.02-.5-.038-.754a1.075,1.075,0,0,0-.7-1.027c-.625-.233-1.245-.013-1.871-.168a4.54,4.54,0,0,0-.7-.184c-.309-.022-.774-.016-.971.223a2.344,2.344,0,0,0-.293,1.08A9.99,9.99,0,0,0,297.606,1065.311Z" transform="translate(-287.59 -1059.555)" fill="#ff9981"/>
        <path id="Trazado_101633" data-name="Trazado 101633" d="M300.657,1065.564a.053.053,0,0,1,.1.028c-.029.215-.205.879-.187.962-.024.184.237.034.291.026.07-.012.129.089.053.125-.133.064-.63.146-.511-.053C300.447,1066.582,300.574,1065.763,300.657,1065.564Z" transform="translate(-288.6 -1060.779)" fill="#b98074"/>
        <path id="Trazado_101634" data-name="Trazado 101634" d="M304.925,1065.748s.5-.666.823-.36-.142,1.915-1.237,1.876Z" transform="translate(-290.088 -1060.7)" fill="#ff9981"/>
        <path id="Trazado_101635" data-name="Trazado 101635" d="M305.364,1066.574a.836.836,0,0,1,.269-.323.024.024,0,0,1,.035.027,1.444,1.444,0,0,1-.2.313.164.164,0,0,1,.158.142.042.042,0,0,1-.052.04c-.059-.014-.113-.036-.17-.054a1.392,1.392,0,0,1-.143.263c-.019.026-.072.022-.068-.018A.973.973,0,0,1,305.364,1066.574Z" transform="translate(-290.334 -1061.04)" fill="#b98074"/>
        <path id="Trazado_101636" data-name="Trazado 101636" d="M299.352,1064.526a1.239,1.239,0,0,0-.314-.043,1.266,1.266,0,0,0-.306.037.444.444,0,0,0-.137.054c-.026.017-.07.06-.039.092a.111.111,0,0,0,.1.015c.043-.007.086-.018.129-.027a1.209,1.209,0,0,1,.268-.019,1.087,1.087,0,0,1,.257.038,1.232,1.232,0,0,1,.125.042c.044.018.085.036.129.007a.049.049,0,0,0,.026-.044C299.58,1064.575,299.437,1064.549,299.352,1064.526Z" transform="translate(-287.936 -1060.403)" fill="#684731"/>
        <path id="Trazado_101637" data-name="Trazado 101637" d="M302.667,1064.7a1.168,1.168,0,0,0-.31-.065,1.226,1.226,0,0,0-.306.015.519.519,0,0,0-.286.123.044.044,0,0,0,.031.074,2.248,2.248,0,0,0,.27-.049,1.08,1.08,0,0,1,.276-.008,1.16,1.16,0,0,1,.26.058.96.96,0,0,1,.128.055.172.172,0,0,0,.136.026.054.054,0,0,0,.038-.051C302.891,1064.772,302.755,1064.732,302.667,1064.7Z" transform="translate(-289.093 -1060.456)" fill="#684731"/>
        <path id="Trazado_101638" data-name="Trazado 101638" d="M300.66,1061.76q-.278-.335-.528-.691a4.536,4.536,0,0,1,2.339.611,2.653,2.653,0,0,0-.632-1.794,2.019,2.019,0,0,1,1.633-.036,2.168,2.168,0,0,0-2-1.107,1.991,1.991,0,0,1,.877-.616,4.229,4.229,0,0,0-2.988.813l.289-.631c-.035.075-.539.241-.639.311a2.247,2.247,0,0,0-.506.5,1.2,1.2,0,0,0-.264,1.176A3.021,3.021,0,0,0,300.66,1061.76Z" transform="translate(-287.802 -1058.101)" fill="#684731"/>
        <path id="Trazado_101639" data-name="Trazado 101639" d="M301.9,1065.7a.952.952,0,0,1,.253-.013.866.866,0,0,1,.237.062c.065.026.166.061.2.127a.031.031,0,0,1-.027.047.265.265,0,0,1-.1-.032.782.782,0,0,0-.1-.036.863.863,0,0,0-.214-.031.812.812,0,0,0-.208.014c-.034.007-.067.017-.1.027s-.086.027-.119,0a.051.051,0,0,1-.026-.045C301.713,1065.729,301.828,1065.71,301.9,1065.7Z" transform="translate(-289.074 -1060.835)" fill="#544537"/>
        <path id="Trazado_101640" data-name="Trazado 101640" d="M298.929,1065.565a.942.942,0,0,1,.24-.018.886.886,0,0,1,.23.044.9.9,0,0,1,.109.045.191.191,0,0,1,.093.074.046.046,0,0,1-.039.068.237.237,0,0,1-.1-.028.793.793,0,0,0-.1-.034.869.869,0,0,0-.2-.031.779.779,0,0,0-.2.016.32.32,0,0,1-.205.017.035.035,0,0,1-.016-.04C298.771,1065.6,298.857,1065.58,298.929,1065.565Z" transform="translate(-288.007 -1060.786)" fill="#544537"/>
        <path id="Trazado_101641" data-name="Trazado 101641" d="M301.2,1068.208a3.529,3.529,0,0,1-1.472,0,.875.875,0,0,0,.882.516A.624.624,0,0,0,301.2,1068.208Z" transform="translate(-288.364 -1061.746)" fill="#fff"/>
        <path id="Trazado_101642" data-name="Trazado 101642" d="M288.793,1081.952a4.857,4.857,0,0,0,1.355-.287s.33,7.156-.485,8.147c-.564.687-2.368.641-2.51-.669S288.793,1081.952,288.793,1081.952Z" transform="translate(-283.824 -1066.6)" fill="#ff897a"/>
        <path id="Trazado_101643" data-name="Trazado 101643" d="M302.354,1082.158a2.618,2.618,0,0,0-1.779-.935.8.8,0,0,0-.489.11.375.375,0,0,0-.149.445.734.734,0,0,0,.327.263,2,2,0,0,1,.779,1.008c.242.6.29,1.244.561,1.853a1.262,1.262,0,0,0,.229.377,1.215,1.215,0,0,0,.351.229.984.984,0,0,0,.458.125c.317-.014.769-.483.885-.757a1.21,1.21,0,0,0-.218-1.263A9.026,9.026,0,0,0,302.354,1082.158Z" transform="translate(-288.428 -1066.44)" fill="#ff897a"/>
        <path id="Trazado_101644" data-name="Trazado 101644" d="M309.1,1076.913a2.125,2.125,0,0,1,.458-1.508.05.05,0,0,1,.078.06,2.749,2.749,0,0,0-.327,1.389c-.006.567.02,1.135.052,1.7a29.737,29.737,0,0,0,.405,3.49c.056.315.118.629.179.942.065.331.116.664.182.994a.079.079,0,0,1-.152.042c-.086-.293-.179-.578-.248-.876s-.13-.593-.184-.893q-.161-.89-.267-1.788A24.814,24.814,0,0,1,309.1,1076.913Z" transform="translate(-291.741 -1064.337)" fill="#7e6656"/>
        <path id="Trazado_101645" data-name="Trazado 101645" d="M304.468,1085.169s3.528,2.03,5.832,3.731a2.376,2.376,0,0,1,.947,1.245c.092.565.161,1.279-1.083,1.62-1.853.508-7.068-5.054-7.068-5.054Z" transform="translate(-289.578 -1067.864)" fill="#ff897a"/>
        <g id="Grupo_69792" data-name="Grupo 69792" transform="translate(3.547 9.619)">
          <path id="Trazado_101646" data-name="Trazado 101646" d="M296.815,1082.74l-6.237.145a.528.528,0,0,1-.519-.378l-2.538-8.536a.528.528,0,0,1,.494-.679l6.237-.145a.528.528,0,0,1,.519.378l2.538,8.535A.529.529,0,0,1,296.815,1082.74Z" transform="translate(-287.498 -1073.147)" fill="#d5cdc8"/>
          <path id="Trazado_101647" data-name="Trazado 101647" d="M293.28,1077.794a.691.691,0,0,1,.673-.086c.3.154.353.563.585.808.111.116.26.192.362.316a.8.8,0,0,1,.158.378.959.959,0,0,1-.182.779.642.642,0,0,1-.745.185c-.258-.127-.393-.45-.668-.534-.427-.13-.831-.072-.808-.649A1.636,1.636,0,0,1,293.28,1077.794Z" transform="translate(-289.358 -1074.772)" fill="#fff"/>
        </g>
        <path id="Trazado_101648" data-name="Trazado 101648" d="M289.9,1080.313a1.078,1.078,0,0,0-.044-.513,2.109,2.109,0,0,0-.729-1.178.519.519,0,0,0-.28-.115.441.441,0,0,0-.321.153,1.223,1.223,0,0,0-.272.675,1.683,1.683,0,0,0,.044.841,1.981,1.981,0,0,0,.423.611C289.14,1081.251,289.777,1080.878,289.9,1080.313Z" transform="translate(-284.212 -1065.461)" fill="#ff897a"/>
      </g>
      <g id="Grupo_69795" data-name="Grupo 69795" transform="translate(87.915 47.307)">
        <path id="Trazado_101649" data-name="Trazado 101649" d="M265.547,1087.591c-.024-.044-.049-.089-.071-.134a3.488,3.488,0,0,1,1.1-4.514c2.282-1.311,4.98.185,5.376,3.149.313,2.34-1.311,4.7-2.465,4.542-.863-.118-1.268-1.039-1.988-1.341A4.008,4.008,0,0,1,265.547,1087.591Z" transform="translate(-249.928 -1082.465)" fill="#2b4123"/>
        <path id="Trazado_101650" data-name="Trazado 101650" d="M268.526,1099.1c-7-1.338-9.358,4.3-10.353,8.773s-5.9,1.986-5.964,4.254c0,0-.242,5.094,3.606,5.853a37.3,37.3,0,0,0,6.957.575v14.551c-3.633.2-4.23,2.164-4.23,2.164h9.818s-.371-1.988-4.4-2.169v-14.579c3.7-.173,5.857-.571,7.07-2.8C272.853,1112.387,276.027,1100.533,268.526,1099.1Z" transform="translate(-245.283 -1088.393)" fill="#c4b9b2"/>
        <path id="Trazado_101651" data-name="Trazado 101651" d="M271.14,1095.842s-1.217,2.48-2.555,2.2-2.429-2.409-2.429-2.409l1.112-.584a.486.486,0,0,0,.261-.391l.012-.144.107-1.312,1.936.214.063.742.051.6a.485.485,0,0,0,.238.377Z" transform="translate(-250.314 -1086.337)" fill="#dc7e61"/>
        <path id="Trazado_101652" data-name="Trazado 101652" d="M262.332,1100.653c.043-.063.082-.125.12-.191a4.174,4.174,0,0,0,.3-3.33l2.213-1.011.221-.1,0,.016c.818-.344.754-.785.754-.785l.546.32s-.159.8.272.9.546-.88.546-.88l1.19-.483a.761.761,0,0,0,.1.583,3.545,3.545,0,0,0,1.048.662l.6.272.436.2,1.343.613-1.459,9.521-7.192.043-.562-4.06S261.773,1101.475,262.332,1100.653Z" transform="translate(-248.875 -1087.025)" fill="#c85f64"/>
        <path id="Trazado_101653" data-name="Trazado 101653" d="M252.572,1152.62c.248-.35.5-.7.772-1.034q.607-.774,1.283-1.5a2.862,2.862,0,0,0,.61-.818c.476-1.14-.16-2.6-.026-3.643.152-1.188,2.175-.074,2.982-.051a.218.218,0,0,1,.271.237q.11,1.475.228,2.95.043.555.086,1.111c.006.07.009.14.01.21a3.443,3.443,0,0,1-.014,1.264c-.145.277-.733.407-1.187.494a.4.4,0,0,1-.467-.319v0q-.922.489-1.844.969c-.283.145-.573.291-.873.411a3.09,3.09,0,0,1-1.493.262c-.2-.023-.448-.137-.43-.336A.436.436,0,0,1,252.572,1152.62Z" transform="translate(-245.38 -1105.05)" fill="#c85f64"/>
        <path id="Trazado_101654" data-name="Trazado 101654" d="M241.382,1150.048a.411.411,0,0,1,.12-.191c.263-.288.533-.57.81-.838q.743-.743,1.553-1.408a2.884,2.884,0,0,0,.71-.733c.618-1.069.233-2.363.5-3.378.3-1.157,2.107-.031,2.9.094a.215.215,0,0,1,.237.271c-.045.916-.094,1.827-.139,2.739-.023.442-.045.887-.068,1.328,0,.084-.012.169-.024.253a2.653,2.653,0,0,1-.118,1.034c-.166.265-.763.348-1.222.4a.394.394,0,0,1-.422-.295c-.674.254-1.348.507-2.025.749-.3.108-.6.214-.909.293a3.079,3.079,0,0,1-1.525.068C241.567,1150.388,241.339,1150.245,241.382,1150.048Z" transform="translate(-241.377 -1104.293)" fill="#c85f64"/>
        <path id="Trazado_101655" data-name="Trazado 101655" d="M260.39,1098.275s-1.311.742-2.832,4.147-2.182,5.086-1.869,5.724c0,0,.732.792,1.469.43,1.094-.537,2.4-2.949,3.782-5.921C260.939,1102.655,261.7,1100.063,260.39,1098.275Z" transform="translate(-246.511 -1088.167)" fill="#a21f1c"/>
        <path id="Trazado_101656" data-name="Trazado 101656" d="M260.1,1101.84a2.952,2.952,0,0,1,.592-.889,1.327,1.327,0,0,1,.966-.4.642.642,0,0,1,.393.145.712.712,0,0,1,.12.747c-.084.254-.238.48-.316.736-.091.3-.073.629-.174.927a2.406,2.406,0,0,1-.328.582l-1.025,1.478a.98.98,0,0,1-.515.453c-.388.092-.735-.347-.71-.745a11.2,11.2,0,0,1,.425-1.281A7.165,7.165,0,0,1,260.1,1101.84Z" transform="translate(-247.772 -1088.988)" fill="#dc7e61"/>
        <path id="Trazado_101657" data-name="Trazado 101657" d="M265.162,1123.164a40.36,40.36,0,0,0-7.451,1.416s2.463,11.369,2.463,14.441H253.26s-1.124-14.086-.525-16.034,3.971-2.173,4.2-1.948S265.7,1123.1,265.162,1123.164Z" transform="translate(-245.41 -1096.353)" fill="#6a5745"/>
        <path id="Trazado_101658" data-name="Trazado 101658" d="M264.77,1113.209s1.926,6.6-3.264,7.355a31.025,31.025,0,0,1-9.966-.525l-.394,14.2s-2.364.9-6.26-.3c0,0,0-15.263,2.384-17.483,1.981-1.844,6.743-2.706,10.04-2.931S264.77,1113.209,264.77,1113.209Z" transform="translate(-242.643 -1093.554)" fill="#79644f"/>
        <path id="Trazado_101659" data-name="Trazado 101659" d="M258.677,1104.264a1.523,1.523,0,0,0,1.414.791s-1.6,5.046-2.643,5.741a1.215,1.215,0,0,1-1.851-1.261C255.834,1108.272,258.677,1104.264,258.677,1104.264Z" transform="translate(-246.496 -1090.328)" fill="#dc7e61"/>
        <path id="Trazado_101660" data-name="Trazado 101660" d="M270.427,1094.157a1.959,1.959,0,0,1-1.585.472,2.315,2.315,0,0,1-.521-.116l.107-1.312,1.936.214Z" transform="translate(-251.095 -1086.337)" fill="#b56b61"/>
        <path id="Trazado_101661" data-name="Trazado 101661" d="M269.279,1091.046v0Z" transform="translate(-251.441 -1085.56)" fill="#a59675"/>
        <path id="Trazado_101662" data-name="Trazado 101662" d="M273.693,1108.824c-.086.075-.171.15-.253.225a1.365,1.365,0,0,1-.67.41.822.822,0,0,1-.67-.23,2.246,2.246,0,0,1-.449-1.975,8.909,8.909,0,0,1,.433-1.5,39.37,39.37,0,0,0,1.355-4.707c.036-.169.07-.338.109-.505.162-.694.431-1.682,1.233-1.8a.97.97,0,0,1,1.125.507,5.394,5.394,0,0,1,.4,2.915,12.88,12.88,0,0,1-.634,3.2,11.262,11.262,0,0,1-.9,2c-.171.3-.35.61-.541.893A3.1,3.1,0,0,1,273.693,1108.824Z" transform="translate(-252.279 -1088.326)" fill="#a21f1c"/>
        <path id="Trazado_101663" data-name="Trazado 101663" d="M253.595,1122.059a9.6,9.6,0,0,1-.365-1.082,4.645,4.645,0,0,0-.221-.976.076.076,0,0,0-.131,0,2.431,2.431,0,0,0,.251,1.833c-.614-.21-1.2-.484-1.822-.674-.1-.031-.147.107-.068.164a7.773,7.773,0,0,0,2.172.919A.152.152,0,0,0,253.595,1122.059Z" transform="translate(-244.919 -1095.991)" fill="#6a5745"/>
        <rect id="Rectángulo_5463" data-name="Rectángulo 5463" width="2.295" height="4.249" rx="1.148" transform="translate(15.316 14.788) rotate(174.83)" fill="#6a5745"/>
        <path id="Trazado_101664" data-name="Trazado 101664" d="M265.765,1107.254a1.525,1.525,0,0,0,1.268-1.01s4.064,3.392,4.314,4.618a1.215,1.215,0,0,1-1.868,1.237C268.4,1111.4,265.765,1107.254,265.765,1107.254Z" transform="translate(-250.173 -1091.042)" fill="#dc7e61"/>
        <g id="Grupo_69794" data-name="Grupo 69794" transform="translate(13.418 12.236)">
          <path id="Trazado_101665" data-name="Trazado 101665" d="M265.712,1105.927c-.3.075-2.008-.1-3.318-3.277a.464.464,0,0,1-.017-.27.53.53,0,0,1,.1-.193c.013-.02.032-.04.047-.06s.043-.048.066-.071a2.415,2.415,0,0,1,.189-.173c.03-.026.059-.049.088-.073.049-.038.1-.074.151-.108a.687.687,0,0,1,.075-.044.47.47,0,0,1,.079-.039.512.512,0,0,1,.059-.013.585.585,0,0,1,.46.24,10.289,10.289,0,0,1,1.134,1.4c-.006-.237-.017-.472-.027-.708a.606.606,0,0,1,.04-.3.21.21,0,0,1,.253-.116,9.306,9.306,0,0,1,.34,1.142,12.659,12.659,0,0,0,.632,1.633c.072.16.228.357.211.532C266.251,1105.677,265.925,1105.876,265.712,1105.927Z" transform="translate(-262.365 -1101.604)" fill="#dc7e61"/>
          <path id="Trazado_101666" data-name="Trazado 101666" d="M263.589,1104.223a3.337,3.337,0,0,1-.639-.928,4.769,4.769,0,0,1-.4-.853c.013-.02.032-.04.047-.059s.043-.048.066-.071c.141.259.242.549.378.809.187.352.46.676.619,1.041C263.675,1104.2,263.627,1104.257,263.589,1104.223Z" transform="translate(-262.431 -1101.859)" fill="#b56b61"/>
          <path id="Trazado_101667" data-name="Trazado 101667" d="M264.15,1103.732a3.522,3.522,0,0,1-.683-.852,4.06,4.06,0,0,1-.448-.88c.03-.026.059-.049.088-.073.166.246.293.527.449.779.205.335.451.641.641.985C264.213,1103.717,264.173,1103.755,264.15,1103.732Z" transform="translate(-262.601 -1101.72)" fill="#b56b61"/>
          <path id="Trazado_101668" data-name="Trazado 101668" d="M264.762,1103.3a7.946,7.946,0,0,1-.756-.931,6.568,6.568,0,0,1-.495-.7.48.48,0,0,1,.079-.039c.217.239.406.515.6.77a10.293,10.293,0,0,1,.637.861C264.853,1103.3,264.792,1103.331,264.762,1103.3Z" transform="translate(-262.779 -1101.613)" fill="#b56b61"/>
        </g>
        <path id="Trazado_101669" data-name="Trazado 101669" d="M269.923,1129.594v1.138l-1.189.769v-1.873Z" transform="translate(-251.244 -1099.464)" fill="#aa998e"/>
        <path id="Trazado_101670" data-name="Trazado 101670" d="M270.742,1087.922a1.682,1.682,0,0,1,.011.184,3.616,3.616,0,0,1-.066.775,3.451,3.451,0,0,1-.657,1.452,2.874,2.874,0,0,1-1.97.954c-1.477-.051-1.872-1.353-2.069-2.394-.008-.035-.011-.067-.019-.1a5.965,5.965,0,0,1,.066-2.02c.346-1.011,1.757-1.144,1.757-1.144a6.6,6.6,0,0,0,2.8,1.639A1.9,1.9,0,0,1,270.742,1087.922Z" transform="translate(-250.226 -1083.605)" fill="#dc7e61"/>
        <path id="Trazado_101671" data-name="Trazado 101671" d="M270.008,1090.718a0,0,0,1,1,0,0A0,0,0,1,1,270.008,1090.718Z" transform="translate(-251.703 -1085.442)" fill="#a59675"/>
        <path id="Trazado_101672" data-name="Trazado 101672" d="M270.424,1089.3a.16.16,0,0,1,.043,0c.157.027.165.237.117.354a.153.153,0,0,1-.136.106.167.167,0,0,1-.144-.123C270.26,1089.528,270.265,1089.3,270.424,1089.3Z" transform="translate(-251.802 -1084.931)" fill="#2b4123"/>
        <path id="Trazado_101673" data-name="Trazado 101673" d="M267.329,1089.289a.136.136,0,0,0-.043,0c-.156.028-.164.237-.115.354a.151.151,0,0,0,.137.1.168.168,0,0,0,.143-.124C267.494,1089.514,267.488,1089.29,267.329,1089.289Z" transform="translate(-250.671 -1084.926)" fill="#2b4123"/>
        <path id="Trazado_101674" data-name="Trazado 101674" d="M268.676,1089.83c.04-.134.017-.3.088-.417a.01.01,0,0,1,.015,0c.12.092.074.293.042.422-.022.09-.052.178-.082.265-.01.029-.063.123-.053.153.028.085.189.065.248.051.1-.022.118.137.018.158-.142.029-.441-.01-.428-.2A2.287,2.287,0,0,1,268.676,1089.83Z" transform="translate(-251.169 -1084.969)" fill="#b56b61"/>
        <path id="Trazado_101675" data-name="Trazado 101675" d="M273.171,1089.438s.414-.639.7-.393c.457.391.054,1.676-.868,1.644Z" transform="translate(-252.785 -1084.818)" fill="#dc7e61"/>
        <path id="Trazado_101676" data-name="Trazado 101676" d="M273.631,1089.733c.038-.02.082.038.051.068a1.9,1.9,0,0,0-.226.249.651.651,0,0,1,.233.015c.055.013.061.1,0,.106a1.783,1.783,0,0,1-.312.027c-.029.064-.052.13-.081.2a.06.06,0,0,1-.114-.033A.889.889,0,0,1,273.631,1089.733Z" transform="translate(-252.847 -1085.085)" fill="#b56b61"/>
        <path id="Trazado_101677" data-name="Trazado 101677" d="M268.606,1092.056a.229.229,0,0,1,.115,0c.034,0,.068.012.1.018a1.079,1.079,0,0,0,.222.01.973.973,0,0,0,.214-.035c.073-.02.141-.052.215-.065.036-.006.067.031.04.061a.46.46,0,0,1-.21.122,1.2,1.2,0,0,1-.246.054,1.1,1.1,0,0,1-.246,0,.57.57,0,0,1-.122-.025.19.19,0,0,1-.11-.067A.051.051,0,0,1,268.606,1092.056Z" transform="translate(-251.185 -1085.899)" fill="#b56b61"/>
        <path id="Trazado_101678" data-name="Trazado 101678" d="M269.773,1088.355c.187,0,.372.008.557.026.089.008.178.015.266.031.058.011.136.032.161.091.008.019-.012.036-.029.033s-.061-.021-.093-.027a.908.908,0,0,0-.109-.01l-.243-.011c-.168-.005-.336-.01-.505-.01C269.7,1088.477,269.695,1088.354,269.773,1088.355Z" transform="translate(-251.599 -1084.589)" fill="#2b4123"/>
        <path id="Trazado_101679" data-name="Trazado 101679" d="M266.789,1088.323c.031-.063.132-.059.191-.063a1.647,1.647,0,0,1,.217,0,1.286,1.286,0,0,1,.215.034c.058.014.156.026.189.082a.03.03,0,0,1-.016.044.163.163,0,0,1-.1-.005c-.032-.007-.065-.013-.1-.018a1.917,1.917,0,0,0-.2-.023,1.569,1.569,0,0,0-.2,0c-.057,0-.144.029-.19-.017A.031.031,0,0,1,266.789,1088.323Z" transform="translate(-250.541 -1084.554)" fill="#2b4123"/>
        <path id="Trazado_101680" data-name="Trazado 101680" d="M268.833,1088.16a.092.092,0,0,1,.007.184A.092.092,0,0,1,268.833,1088.16Z" transform="translate(-251.249 -1084.519)" fill="#e76948"/>
        <path id="Trazado_101681" data-name="Trazado 101681" d="M273.3,1091.562l.018-.043h0l0,0,0-.006a.176.176,0,0,1,.063-.062.174.174,0,0,1,.175,0,.181.181,0,0,1,.063.062.131.131,0,0,1,.024.053l.006.048v.013a.14.14,0,0,1-.016.07.137.137,0,0,1-.038.059.134.134,0,0,1-.059.038.14.14,0,0,1-.07.016l-.049-.006a.183.183,0,0,1-.081-.047l-.029-.037a.178.178,0,0,1-.025-.092A.3.3,0,0,1,273.3,1091.562Z" transform="translate(-252.888 -1085.696)" fill="#fff"/>
        <path id="Trazado_101682" data-name="Trazado 101682" d="M273.026,1095.03a2.63,2.63,0,0,1,.116,1.513,5.245,5.245,0,0,1-.9,1.571,4.956,4.956,0,0,0-.88,1.58,5.041,5.041,0,0,0-.034,1.835,4.471,4.471,0,0,1-1.277-2.686,7.523,7.523,0,0,1,.673-2.375,6.754,6.754,0,0,0,.3-1.252,5.673,5.673,0,0,1,.137-1.244.61.61,0,0,1,.284-.341.866.866,0,0,1,.99.252,1.428,1.428,0,0,1,.136.191A4.685,4.685,0,0,1,273.026,1095.03Z" transform="translate(-251.72 -1086.468)" fill="#2b4123"/>
      </g>
    </g>
  </g>
</svg>
