<svg xmlns="http://www.w3.org/2000/svg" width="156.674" height="156.174" viewBox="0 0 156.674 156.174">
  <g id="Grupo_70376" data-name="Grupo 70376" transform="translate(-1115.396 -2689.642)">
    <path id="Trazado_102837" data-name="Trazado 102837" d="M1265.122,2767.727a71.374,71.374,0,0,0-69.243-71.333.549.549,0,0,0-.229-.052h-1.83l-.087,0h0l-.087,0h-1.829a.55.55,0,0,0-.23.052,71.363,71.363,0,0,0-53.232,116.374l0,0c.029.036.059.07.089.106.212.26.43.514.646.771q.685.816,1.395,1.61c.2.221.391.445.591.663q.929,1.016,1.9,1.989c.218.221.439.438.659.655q.918.906,1.864,1.778.252.231.506.459.95.854,1.929,1.671c.238.2.477.4.718.6q1.062.865,2.154,1.692c.24.181.484.356.726.533q.873.641,1.764,1.254c.259.179.516.361.778.536.436.293.879.576,1.322.859v.013c.127.081.257.155.384.234.176.111.353.219.529.328q.432.266.869.526c.185.111.369.225.555.334l.118.069c.3.174.6.339.9.508l.13.073v.011h0c.13.073.262.139.393.211.324.179.65.354.977.528l.025.013c.324.172.648.344.974.512.06.03.118.062.178.093.123.063.247.124.371.186.077.039.155.075.232.113l.25.123c.3.145.592.291.89.433.12.057.239.117.359.174.176.082.355.159.531.24.22.1.441.2.662.3.249.111.5.228.746.336l.025,0c.119.051.235.109.354.16v.005l.081.031c.115.049.234.091.35.14.091.038.18.081.272.119v-.012l.067.026c.412.17.827.334,1.243.5.317.123.632.251.95.369.289.108.58.212.871.316.119.043.235.092.354.134v-.014c.089.031.178.06.267.09.508.177,1.017.353,1.529.518s1.052.329,1.582.486c.107.032.213.066.32.1.385.112.772.217,1.159.323.571.156,1.143.308,1.72.45.132.033.263.072.4.1v-.012l.146.033c.446.107.892.212,1.34.31.118.025.236.056.354.081.385.082.772.158,1.159.233.283.056.567.107.851.159.32.058.639.114.959.168.241.041.48.087.72.125.3.047.6.088.893.131.254.037.508.071.762.106.489.066.978.124,1.468.18.2.023.405.053.608.074l.327.034c.056.006.112.009.169.014.453.045.908.079,1.363.115.274.022.548.047.822.065s.557.033.836.049c.115.006.229.017.344.023.136.006.272.006.408.012l.181.009c.2.008.409.022.614.029q2.408.081,4.815,0c.2-.007.409-.021.614-.029l.191-.009c.128-.006.256-.006.384-.012s.239-.017.359-.023c.278-.016.557-.03.835-.049.178-.012.356-.026.533-.04.1-.007.194-.017.291-.025.46-.036.921-.071,1.38-.117l.126-.01.349-.035c.206-.022.411-.052.618-.076.485-.055.969-.113,1.454-.178.257-.035.515-.07.772-.108.3-.043.593-.083.888-.129.236-.038.471-.084.708-.124q.491-.082.983-.172c.28-.051.561-.1.841-.157q.575-.111,1.147-.23c.126-.027.251-.059.377-.087.445-.1.889-.2,1.333-.308q1.3-.309,2.576-.665c.253-.07.506-.137.759-.21.134-.039.267-.08.4-.12q.851-.252,1.693-.523c.069-.023.139-.043.208-.066.252-.082.5-.174.751-.259q1.447-.492,2.865-1.042c.3-.114.592-.226.886-.345l.374-.151c.255-.1.515-.2.768-.308l.01,0h0c.124-.052.245-.113.368-.166l.029,0c.325-.141.644-.29.966-.435l.081-.037c.427-.193.854-.387,1.277-.589.279-.132.555-.269.831-.405.087-.042.175-.084.261-.127q.469-.234.936-.473c.2-.1.392-.206.588-.309.119-.063.238-.124.356-.187.272-.145.543-.29.813-.439l.11-.062c.12-.066.241-.127.361-.194v-.009c.385-.216.771-.43,1.151-.653.2-.113.386-.233.58-.348q.406-.243.809-.49c.188-.116.377-.231.565-.349.123-.077.247-.149.37-.226h0l.014-.008v-.012c.454-.29.908-.581,1.356-.881.228-.153.452-.312.679-.468q.955-.657,1.89-1.344c.214-.157.429-.311.641-.47q1.124-.847,2.212-1.739c.217-.177.431-.356.645-.535.7-.583,1.384-1.175,2.058-1.783.106-.1.211-.19.315-.286.682-.622,1.348-1.262,2.005-1.911.2-.2.395-.389.59-.587q.994-1,1.951-2.047c.172-.188.339-.38.509-.571q.764-.852,1.5-1.731c.192-.229.387-.455.576-.687.038-.046.077-.09.115-.136l-.005,0a71.081,71.081,0,0,0,16.008-45.035Z" fill="#d4dae9"/>
    <rect id="Rectángulo_5630" data-name="Rectángulo 5630" width="156.674" height="156.174" transform="translate(1115.396 2689.642)" fill="none"/>
    <g id="Grupo_70394" data-name="Grupo 70394">
      <g id="Grupo_70377" data-name="Grupo 70377">
        <path id="Trazado_102838" data-name="Trazado 102838" d="M1222.687,2762.924a1.437,1.437,0,0,0-.291.767c.006.22.158.385.213.6.066.258-.012.5.109.757.088.187.523.539.085.533-.255,0-.322-.283-.491-.414a2,2,0,0,0-.769-.292,7.547,7.547,0,0,1-1.554-.381,1.771,1.771,0,0,0-.214-.068,1.853,1.853,0,0,1,.446-1.293,8.992,8.992,0,0,0,.882-1.646c.324.077.618.561.856.788a9.705,9.705,0,0,1,.8.648c-.021.026-.044.015-.076.036Z" fill="#ff8f67"/>
        <path id="Trazado_102839" data-name="Trazado 102839" d="M1221.6,2760.635l-.953,1,2.068,1.671,1.217-1.384Z" fill="#7a8ecb"/>
        <path id="Trazado_102840" data-name="Trazado 102840" d="M1233.335,2749.184s-6.657,5.012-8.009,6.509l-4.308,5.183,2.362,2.061,5.813-5.971,5.227-4.3Z" fill="#4d3c4b"/>
      </g>
      <g id="cascet">
        <path id="Trazado_102841" data-name="Trazado 102841" d="M1165.853,2753.05a1.386,1.386,0,0,1,1.565-1.308l27.131,1.7c.865.055,1.565.567,1.565,1.145v1.046l-30.261-1.177Z" fill="#aa6868"/>
        <path id="Trazado_102842" data-name="Trazado 102842" d="M1156.474,2755.141a1.869,1.869,0,0,1,1.959-1.883l65,2.589a2.057,2.057,0,0,1,1.959,2.039v2.255l-68.921-1.078Z" fill="#b57878"/>
        <rect id="Rectángulo_5631" data-name="Rectángulo 5631" width="79.02" height="15.589" transform="translate(1151.076 2761.73)" fill="#b57878"/>
        <rect id="Rectángulo_5632" data-name="Rectángulo 5632" width="78.922" height="5" transform="translate(1151.076 2757.22)" fill="#b57878"/>
        <rect id="Rectángulo_5633" data-name="Rectángulo 5633" width="79.02" height="0.851" transform="translate(1151.076 2761.73)" fill="#aa6868"/>
        <rect id="Rectángulo_5634" data-name="Rectángulo 5634" width="79.02" height="0.85" transform="translate(1151.076 2757.024)" fill="#aa6868"/>
        <rect id="Rectángulo_5635" data-name="Rectángulo 5635" width="12.647" height="3.039" rx="1.176" transform="translate(1149.508 2759.181)" fill="#b57878"/>
        <rect id="Rectángulo_5636" data-name="Rectángulo 5636" width="12.647" height="3.039" rx="1.176" transform="translate(1218.92 2759.181)" fill="#b57878"/>
        <rect id="Rectángulo_5637" data-name="Rectángulo 5637" width="77.55" height="1.373" transform="translate(1152.253 2775.946)" fill="#aa6868"/>
        <rect id="Rectángulo_5638" data-name="Rectángulo 5638" width="12.647" height="3.039" rx="1.176" transform="translate(1149.998 2775.358)" fill="#b57878"/>
        <path id="Rectángulo_5639" data-name="Rectángulo 5639" d="M1.176,0H11.471a1.176,1.176,0,0,1,1.176,1.176v.686a1.176,1.176,0,0,1-1.176,1.176H1.177A1.177,1.177,0,0,1,0,1.862V1.176A1.176,1.176,0,0,1,1.176,0Z" transform="translate(1218.104 2775.358)" fill="#b57878"/>
      </g>
      <g id="Grupo_70385" data-name="Grupo 70385">
        <path id="Trazado_102843" data-name="Trazado 102843" d="M1170.718,2765.619a1.437,1.437,0,0,1,.123,1.111c-.051.261,0,1-.253,1.079-.423.135-.609-.548-.679-.818-.105-.4-.114-.832-.594-.953.256-.35,1.31-.946,1.435-.223Z" fill="#ff8f67"/>
        <g id="Grupo_70378" data-name="Grupo 70378">
          <path id="Trazado_102844" data-name="Trazado 102844" d="M1171.7,2767.2a1.1,1.1,0,0,1-1.177,1h-2.385a1.011,1.011,0,1,1,0-1.994h2.385A1.1,1.1,0,0,1,1171.7,2767.2Z" fill="#8e5757"/>
          <path id="Trazado_102845" data-name="Trazado 102845" d="M1166.436,2769.148h-.784v-1.012a1.178,1.178,0,0,1,1.177-1.177h5.065a1.177,1.177,0,0,1,1.176,1.177v.947h-.784v-.947a.393.393,0,0,0-.392-.393h-5.065a.394.394,0,0,0-.393.393Z" fill="#8e5757"/>
          <circle id="Elipse_4652" data-name="Elipse 4652" cx="0.686" cy="0.686" r="0.686" transform="translate(1165.391 2768.723)" fill="#8e5757"/>
          <path id="Trazado_102846" data-name="Trazado 102846" d="M1171.992,2769.41a.686.686,0,1,1,.686.686A.687.687,0,0,1,1171.992,2769.41Z" fill="#8e5757"/>
        </g>
        <path id="Trazado_102847" data-name="Trazado 102847" d="M1167.008,2764.72c.38.671.157,1.453.7,2.048.118.13.65.874.721.9.626.188.265-.71.259-.9-.032-1.021,1.248-.351,1.852-.625.7-.316-.4-1.436-.82-1.779-.457-.376-.961-.9-1.495-.588-.374.22-.9,1.077-1.215,1.091Z" fill="#ff8f67"/>
        <path id="Trazado_102848" data-name="Trazado 102848" d="M1166.028,2763.886l.882,1.177,2.059-1.569-.931-1.324Z" fill="#7a8ecb"/>
        <path id="Trazado_102849" data-name="Trazado 102849" d="M1160.685,2750.651l4.314,7.255,3.627,4.854-2.582,1.944-6.013-9.085Z" fill="#4d3c4b"/>
        <path id="Trazado_102850" data-name="Trazado 102850" d="M1161.618,2794.669l5.942-1.681c.417-.118.656-.444.534-.728a1.135,1.135,0,0,0-1-.49,6.1,6.1,0,0,1-3.237-.809l-3.382,1.422a6.413,6.413,0,0,0,.111,1.77A.831.831,0,0,0,1161.618,2794.669Z" fill="#4d3c4b"/>
        <path id="Trazado_102851" data-name="Trazado 102851" d="M1141.841,2793.54l5.983,1.524c.42.107.791-.055.828-.362a1.135,1.135,0,0,0-.624-.927,6.1,6.1,0,0,1-2.394-2.323l-3.639-.466a6.425,6.425,0,0,0-.792,1.588A.832.832,0,0,0,1141.841,2793.54Z" fill="#4d3c4b"/>
        <path id="Trazado_102852" data-name="Trazado 102852" d="M1150.52,2766.369l-2.352,9.02s-6.994,13.137-7.125,16.078c0,0,.915,1.307,5.294.2l5.163-13.725,4.053-9.608Z" fill="#5b4f5a"/>
        <path id="Trazado_102853" data-name="Trazado 102853" d="M1149.54,2765.52l5.981,14.117,4.607,13.431s3.137-.1,4.51-1.862l-5-14.8-3.627-11.569.294-4.411Z" fill="#5b4f5a"/>
        <g id="Grupo_70383" data-name="Grupo 70383">
          <path id="Trazado_102854" data-name="Trazado 102854" d="M1159.861,2747.523s3.071,2-.143,9.257l-3.615,10.168-1.519.087,4.37-18.1Z" fill="#4d3c4b"/>
          <g id="haed">
            <g id="Grupo_70382" data-name="Grupo 70382">
              <g id="Grupo_70379" data-name="Grupo 70379">
                <path id="Trazado_102855" data-name="Trazado 102855" d="M1158.387,2741.537a3.483,3.483,0,0,1,1.173-2.622,3.2,3.2,0,0,1,4.336.938,3.315,3.315,0,0,1,.079,2.783,1.954,1.954,0,0,0,.015,1.661c.037.065.078.153.028.209s-.131.03-.2.027c-.223-.014-.392.192-.489.392a9.087,9.087,0,0,1-.743,1.411.5.5,0,0,1-.277.209.582.582,0,0,1-.351-.072c-.375-.166-.739-.352-1.1-.554a.234.234,0,0,0-.08.02.6.6,0,0,0-.206.244q-.633,1.084-1.264,2.172a14.362,14.362,0,0,0-2.216-2.551,3.776,3.776,0,0,0,1.4-2.53A7.175,7.175,0,0,1,1158.387,2741.537Z" fill="#ff8f67"/>
                <path id="Trazado_102856" data-name="Trazado 102856" d="M1164.293,2741.093a1.271,1.271,0,0,0,1.163-.555,1.943,1.943,0,0,0,.3-1.292,1.64,1.64,0,0,1-1.553.11.353.353,0,0,0,.478-.128,1.437,1.437,0,0,1-.523.011c.067-.026.133-.053.2-.078-.95-.087-1.738-.792-2.673-.977a2.5,2.5,0,0,0-1.619.249,2.694,2.694,0,0,0-.672.49c-.164.166-.271.462-.438.6s-.422.163-.6.344a1.521,1.521,0,0,0-.327.566,3.077,3.077,0,0,0-.116,1.345,5.767,5.767,0,0,1,.078,2.357c.2-.145.576.077.855.036.076-.01.83-.236.8-.3.012.028.023.059.033.089.072-.022.613-.3.567-.406a.269.269,0,0,1-.013.23,1.54,1.54,0,0,0,.7-.391.434.434,0,0,0,.122-.175.546.546,0,0,0,0-.248,1.576,1.576,0,0,1,.05-.835.464.464,0,0,1,.166-.225.415.415,0,0,1,.56.243,1.208,1.208,0,0,1-.007.687,2.177,2.177,0,0,1,1.191-1.118c.491-.17.825-.405.82-.983a.507.507,0,0,0,.537.448,1.043,1.043,0,0,0,.676-.349Z" fill="#a86060"/>
                <path id="Trazado_102857" data-name="Trazado 102857" d="M1161.281,2746.212a.077.077,0,0,1-.018-.01,2.971,2.971,0,0,1-1.183-2.075.058.058,0,0,1,.059-.058.058.058,0,0,1,.058.059,2.905,2.905,0,0,0,1.137,1.98.06.06,0,0,1,.012.083A.061.061,0,0,1,1161.281,2746.212Z" fill="#894c4c"/>
                <path id="Trazado_102858" data-name="Trazado 102858" d="M1161.587,2742.956a.057.057,0,0,1-.041-.059c.007-.151-.011-.562-.185-.653a.059.059,0,0,1,.054-.1c.273.141.252.7.248.763a.058.058,0,0,1-.061.056A.034.034,0,0,1,1161.587,2742.956Z" fill="#894c4c"/>
                <path id="Trazado_102859" data-name="Trazado 102859" d="M1161.568,2742.631l-.289-.092a.059.059,0,1,1,.035-.112l.289.091a.059.059,0,0,1,.039.074A.06.06,0,0,1,1161.568,2742.631Z" fill="#894c4c"/>
              </g>
              <g id="Grupo_70381" data-name="Grupo 70381">
                <g id="Grupo_70380" data-name="Grupo 70380">
                  <path id="Trazado_102860" data-name="Trazado 102860" d="M1163.648,2743.028a.148.148,0,0,1-.07-.019.682.682,0,0,0-.406-.062.168.168,0,0,1-.066-.33,1.05,1.05,0,0,1,.628.095.168.168,0,0,1-.086.316Z" fill="#a86060"/>
                  <path id="Trazado_102861" data-name="Trazado 102861" d="M1163.467,2743.35c-.038.133-.12.228-.183.21s-.084-.14-.046-.274.119-.228.182-.21S1163.5,2743.217,1163.467,2743.35Z" fill="#a86060"/>
                </g>
              </g>
            </g>
            <path id="Trazado_102862" data-name="Trazado 102862" d="M1162.67,2745a.062.062,0,0,1-.026-.02.048.048,0,0,1,.015-.065.508.508,0,0,1,.537.029.047.047,0,0,1,.015.065.045.045,0,0,1-.065.015.422.422,0,0,0-.436-.03A.048.048,0,0,1,1162.67,2745Z" fill="#894c4c"/>
          </g>
          <path id="Trazado_102863" data-name="Trazado 102863" d="M1157.894,2746.7c.009-.027,1.484,1.383,1.569,1.5a6.531,6.531,0,0,1,1.27,3.218,4.438,4.438,0,0,1-.241,1.769l-.712,2.116q-.719,2.141-1.439,4.28-.279.831-.559,1.661c-.278.827-.8.951-1.63,1.151l-1.62.391q-1.035.25-2.071.5Z" fill="#7a8ecb"/>
          <path id="Trazado_102864" data-name="Trazado 102864" d="M1159.73,2750.813a4.261,4.261,0,0,0-.287-2.095,3.825,3.825,0,0,0-2.757-2.539s-4.058-.388-5.458,6.23c0,0-1.564,8.962-3.976,13.086.612.331,5.308,2.633,8.672-2.766q.383-1.134.767-2.267l1.493-4.412c.188-.558.4-1.113.563-1.678.178-.6.363-1.2.557-1.8A8.867,8.867,0,0,0,1159.73,2750.813Z" fill="#4d3c4b"/>
          <path id="Trazado_102865" data-name="Trazado 102865" d="M1151.233,2754.569a.1.1,0,0,1-.058-.049.1.1,0,0,1,.043-.132l4.736-2.414a.1.1,0,0,1,.088.175l-4.735,2.414A.1.1,0,0,1,1151.233,2754.569Z" fill="#fff"/>
          <path id="Trazado_102866" data-name="Trazado 102866" d="M1157.236,2745.633a11.431,11.431,0,0,1,2.281,2.655l.909-1.255-3.028-1.914Z" fill="#7a8ecb"/>
          <path id="Trazado_102867" data-name="Trazado 102867" d="M1159.867,2749.74a6.174,6.174,0,0,0-.3-1.334,4.983,4.983,0,0,0-1.616-2.269c-.059-.05-1.066-.743-1.069-.736-.052.162-.106.323-.159.484a1.968,1.968,0,0,1-.221.634c-.121.145-.355.207-.5.343-.425.4.261.844.512,1.082l1.26,1.195q.515.488,1.032.974c.192.18.37.374.555.562a.663.663,0,0,1,.158.558c-.007.112-.059.289,0,.383A4.245,4.245,0,0,0,1159.867,2749.74Z" fill="#4d3c4b"/>
        </g>
        <path id="Trazado_102868" data-name="Trazado 102868" d="M1156.992,2777.563a.1.1,0,0,1-.09-.06l-3.628-8.579a.1.1,0,0,1,.052-.128.1.1,0,0,1,.129.052l3.628,8.579a.1.1,0,0,1-.052.128A.107.107,0,0,1,1156.992,2777.563Z" fill="#fff"/>
        <path id="Trazado_102869" data-name="Trazado 102869" d="M1159.213,2789.932a.1.1,0,0,1-.092-.065l-2.68-7.254a.1.1,0,0,1,.184-.068l2.681,7.254a.1.1,0,0,1-.093.133Z" fill="#fff"/>
        <path id="Trazado_102870" data-name="Trazado 102870" d="M1161.521,2785.863a.1.1,0,0,1-.093-.067l-2.189-6.568a.1.1,0,0,1,.186-.062l2.189,6.568a.1.1,0,0,1-.062.124A.081.081,0,0,1,1161.521,2785.863Z" fill="#fff"/>
        <g id="Grupo_70384" data-name="Grupo 70384">
          <path id="Trazado_102871" data-name="Trazado 102871" d="M1166.617,2764.645c.3-.178.717.1,1.034.164a2.066,2.066,0,0,0,1.046-.049c.108.36-.362.709-.647.859a5.458,5.458,0,0,1,1.385,1.409c.485.99-.5.464-.93.152a2.041,2.041,0,0,1,.89,1.049c-.352.147-.96-.389-1.185-.63.189.12.836.786.639,1.014-.242.282-.984-.355-1.125-.542a1.046,1.046,0,0,1,.544.529c-.294.088-1.075-.484-1.352-.666a6.588,6.588,0,0,1-1.387-1.216c-.43-.523-.026-.712.307-1.181.241-.337.443-.853.868-.949Z" fill="#ff8f67"/>
          <path id="Trazado_102872" data-name="Trazado 102872" d="M1163.945,2765.933l1.359.782,1.417-2.07-1.5-1.032Z" fill="#7a8ecb"/>
          <path id="Trazado_102873" data-name="Trazado 102873" d="M1153.524,2752.2q.861,2.082,1.723,4.165a31.015,31.015,0,0,0,1.893,4.556,8.266,8.266,0,0,0,2.678,2.407c.31.214,4.507,3.128,4.515,3.115l1.721-2.4-5.765-4.332-1.827-7.836S1155.72,2749.16,1153.524,2752.2Z" fill="#4d3c4b"/>
        </g>
      </g>
      <g id="Grupo_70386" data-name="Grupo 70386">
        <path id="Trazado_102874" data-name="Trazado 102874" d="M1223.224,2766.879a1.1,1.1,0,0,1-1.176,1h-2.386a1.011,1.011,0,1,1,0-1.994h2.386A1.1,1.1,0,0,1,1223.224,2766.879Z" fill="#8e5757"/>
        <path id="Trazado_102875" data-name="Trazado 102875" d="M1217.963,2768.823h-.784v-1.012a1.178,1.178,0,0,1,1.176-1.177h5.066a1.178,1.178,0,0,1,1.176,1.177v.947h-.784v-.947a.393.393,0,0,0-.392-.393h-5.066a.393.393,0,0,0-.392.393Z" fill="#8e5757"/>
        <path id="Trazado_102876" data-name="Trazado 102876" d="M1216.918,2769.085a.686.686,0,1,1,.686.686A.686.686,0,0,1,1216.918,2769.085Z" fill="#8e5757"/>
        <circle id="Elipse_4653" data-name="Elipse 4653" cx="0.686" cy="0.686" r="0.686" transform="translate(1223.519 2768.398)" fill="#8e5757"/>
      </g>
      <path id="Trazado_102877" data-name="Trazado 102877" d="M1239.915,2796.887l5.941-1.68c.417-.118.656-.445.535-.729a1.139,1.139,0,0,0-1.005-.49,6.083,6.083,0,0,1-3.236-.809l-3.382,1.422a6.413,6.413,0,0,0,.111,1.77A.83.83,0,0,0,1239.915,2796.887Z" fill="#4d3c4b"/>
      <path id="Trazado_102878" data-name="Trazado 102878" d="M1220.137,2795.758l5.984,1.525c.42.107.79-.056.827-.363a1.132,1.132,0,0,0-.623-.926,6.107,6.107,0,0,1-2.394-2.324l-3.639-.466a6.427,6.427,0,0,0-.793,1.589A.832.832,0,0,0,1220.137,2795.758Z" fill="#4d3c4b"/>
      <path id="Trazado_102879" data-name="Trazado 102879" d="M1228.817,2768.587l-2.352,9.021s-6.994,13.136-7.125,16.078c0,0,.914,1.307,5.293.2l5.164-13.725,4.052-9.609Z" fill="#5b4f5a"/>
      <path id="Trazado_102880" data-name="Trazado 102880" d="M1227.836,2767.738l5.98,14.118,4.609,13.431s3.137-.1,4.509-1.862l-5-14.8-3.626-11.57.293-4.411Z" fill="#5b4f5a"/>
      <path id="Trazado_102881" data-name="Trazado 102881" d="M1234.891,2780.222a.1.1,0,0,1-.09-.06l-3.628-8.578a.1.1,0,0,1,.052-.128.1.1,0,0,1,.129.052l3.627,8.578a.1.1,0,0,1-.052.128A.1.1,0,0,1,1234.891,2780.222Z" fill="#fff"/>
      <path id="Trazado_102882" data-name="Trazado 102882" d="M1226.9,2757.365a.1.1,0,0,1-.022-.137,21.621,21.621,0,0,0,1.468-2.533c1.116-2.132,2.269-4.337,4.534-5.156a.1.1,0,0,1,.066.185c-2.192.793-3.328,2.963-4.426,5.062a21.636,21.636,0,0,1-1.483,2.556A.1.1,0,0,1,1226.9,2757.365Z" fill="#fff"/>
      <g id="Grupo_70392" data-name="Grupo 70392">
        <path id="Trazado_102883" data-name="Trazado 102883" d="M1237.486,2750.066s3.153,1.864.251,9.256l-3.18,10.312-1.512.152,3.594-18.272Z" fill="#4d3c4b"/>
        <g id="haed-2" data-name="haed">
          <g id="Grupo_70390" data-name="Grupo 70390">
            <g id="Grupo_70387" data-name="Grupo 70387">
              <path id="Trazado_102884" data-name="Trazado 102884" d="M1235.758,2744.148a3.483,3.483,0,0,1,1.062-2.668,3.2,3.2,0,0,1,4.37.751,3.312,3.312,0,0,1,.2,2.777,1.961,1.961,0,0,0,.086,1.66c.039.063.085.149.036.207s-.128.036-.2.035c-.223,0-.383.21-.472.414a9.04,9.04,0,0,1-.683,1.44.488.488,0,0,1-.267.222.589.589,0,0,1-.354-.058c-.382-.15-.754-.32-1.119-.507a.215.215,0,0,0-.079.024.6.6,0,0,0-.2.252q-.586,1.111-1.171,2.224a14.312,14.312,0,0,0-2.322-2.454,3.785,3.785,0,0,0,1.291-2.588A7.165,7.165,0,0,1,1235.758,2744.148Z" fill="#ff8f67"/>
              <path id="Trazado_102885" data-name="Trazado 102885" d="M1238.848,2748.7a.081.081,0,0,1-.018-.009,2.969,2.969,0,0,1-1.27-2.023.058.058,0,0,1,.057-.06.059.059,0,0,1,.061.057,2.9,2.9,0,0,0,1.219,1.929.059.059,0,0,1-.049.106Z" fill="#894c4c"/>
            </g>
            <g id="Grupo_70389" data-name="Grupo 70389">
              <g id="Grupo_70388" data-name="Grupo 70388">
                <path id="Trazado_102886" data-name="Trazado 102886" d="M1241.078,2745.415a.149.149,0,0,1-.071-.017.7.7,0,0,0-.408-.045.168.168,0,1,1-.079-.326,1.036,1.036,0,0,1,.632.068.168.168,0,0,1,.078.224A.165.165,0,0,1,1241.078,2745.415Z" fill="#a86060"/>
                <path id="Trazado_102887" data-name="Trazado 102887" d="M1240.91,2745.743c-.031.136-.109.234-.173.218s-.089-.136-.058-.271.11-.233.173-.218S1240.942,2745.609,1240.91,2745.743Z" fill="#a86060"/>
              </g>
            </g>
          </g>
          <path id="Trazado_102888" data-name="Trazado 102888" d="M1240.185,2747.426a.049.049,0,0,1-.026-.019.048.048,0,0,1,.011-.066.509.509,0,0,1,.539.007.049.049,0,0,1,.018.064.046.046,0,0,1-.065.018.42.42,0,0,0-.438-.011A.05.05,0,0,1,1240.185,2747.426Z" fill="#894c4c"/>
          <g id="Grupo_70391" data-name="Grupo 70391">
            <path id="Trazado_102889" data-name="Trazado 102889" d="M1238.126,2745.308l-.015-.007-.26-.156a.059.059,0,0,1,.06-.1l.261.156a.059.059,0,0,1-.046.108Z" fill="#894c4c"/>
            <path id="Trazado_102890" data-name="Trazado 102890" d="M1238.067,2745.629h0a.058.058,0,0,1-.039-.073c.042-.145.121-.55-.026-.679a.058.058,0,0,1-.006-.083.06.06,0,0,1,.083,0c.23.2.079.739.061.8A.057.057,0,0,1,1238.067,2745.629Z" fill="#894c4c"/>
          </g>
        </g>
        <path id="Trazado_102891" data-name="Trazado 102891" d="M1235.486,2749.325c.008-.026,1.541,1.32,1.631,1.43a6.524,6.524,0,0,1,1.405,3.16,4.447,4.447,0,0,1-.165,1.779q-.309,1.071-.621,2.144-.627,2.169-1.255,4.337-.244.842-.488,1.684c-.243.837-.765.984-1.58,1.218l-1.6.461-2.048.588S1235.482,2749.341,1235.486,2749.325Z" fill="#7a8ecb"/>
        <path id="Trazado_102892" data-name="Trazado 102892" d="M1237.495,2753.359a4.255,4.255,0,0,0-.377-2.081,3.821,3.821,0,0,0-2.861-2.419s-4.071-.215-5.188,6.457c0,0-1.182,9.02-3.416,13.243.626.3,5.415,2.405,8.547-3.133q.335-1.148.67-2.3.653-2.235,1.3-4.471c.166-.565.349-1.129.492-1.7.153-.606.312-1.216.48-1.821A8.98,8.98,0,0,0,1237.495,2753.359Z" fill="#4d3c4b"/>
        <path id="Trazado_102893" data-name="Trazado 102893" d="M1234.782,2748.29a11.408,11.408,0,0,1,2.393,2.555l.855-1.292-3.108-1.784Z" fill="#7a8ecb"/>
        <path id="Trazado_102894" data-name="Trazado 102894" d="M1237.587,2752.281a6.253,6.253,0,0,0-.359-1.32,5,5,0,0,0-1.712-2.2c-.06-.047-1.1-.7-1.1-.69l-.139.491a1.983,1.983,0,0,1-.194.643c-.114.149-.347.221-.486.363-.407.417.3.833.557,1.06l1.311,1.14q.535.465,1.072.929c.2.172.386.358.579.538a.66.66,0,0,1,.181.551c0,.112-.047.291.02.383A4.273,4.273,0,0,0,1237.587,2752.281Z" fill="#4d3c4b"/>
        <path id="Trazado_102895" data-name="Trazado 102895" d="M1242.025,2742.314a3.423,3.423,0,0,0-1.211-1.607,4.032,4.032,0,0,0-4.155-.156,3.7,3.7,0,0,0-1.958,3.318,8.92,8.92,0,0,1,.233,2.588c-.04.132-.068.27-.095.406a1.685,1.685,0,0,0,.567-.838,5.8,5.8,0,0,1-.294,1.335,2.011,2.011,0,0,0,1-.2,3.934,3.934,0,0,0,.758-.635,3.186,3.186,0,0,0,.769-1.328c.082-.228.625-.853.738-.342.058.263-.353.864.17.919a1.023,1.023,0,0,1,.367-.9c.168-.154.74-.481.773-.714-.014.1-.182.758-.33.747.982.077,2.608-.723,2.752-1.816A1.765,1.765,0,0,0,1242.025,2742.314Z" fill="#a86060"/>
      </g>
      <path id="Trazado_102896" data-name="Trazado 102896" d="M1225,2764.829c-.24.288-.1.9-.2,1.283a2.268,2.268,0,0,0-.188,1.452c-.579.186-.668-.671-.788-1.041-.344.08-.777.81-.975,1.106a6.965,6.965,0,0,1-.728,1.166c-.356-.356.02-1.163.169-1.556-.219.362-.413.9-.8,1.115-.177-.343.139-1.125.265-1.467-.151.35-.321.909-.737,1.036-.188-.36.144-1.031.332-1.322-.078.262-.189.6-.45.693-.23-.695.589-1.783,1.014-2.283a20.791,20.791,0,0,1,1.756-1.545,6.742,6.742,0,0,1,1.324,1.4Z" fill="#ff8f67"/>
      <path id="Trazado_102897" data-name="Trazado 102897" d="M1223.2,2762.875l-.343.8,2.144,1.556.837-1.8Z" fill="#7a8ecb"/>
      <g id="Grupo_70393" data-name="Grupo 70393">
        <path id="Trazado_102898" data-name="Trazado 102898" d="M1226.823,2755.426a14.962,14.962,0,0,0-1.614,2.913l-2.391,5.2,3.2,1.578,3.858-7.806q1.83-1.479,3.659-2.96c1.012-.819,2.305-1.469,2.994-2.62a1.833,1.833,0,0,0-1.585-2.791,4.371,4.371,0,0,0-2.453.94,41.817,41.817,0,0,0-5.456,5.283Q1226.925,2755.292,1226.823,2755.426Z" fill="#4d3c4b"/>
        <path id="Trazado_102899" data-name="Trazado 102899" d="M1224.673,2759.485a.105.105,0,0,1,0-.061,21.184,21.184,0,0,1,6.095-8.2.1.1,0,1,1,.119.156,20.972,20.972,0,0,0-6.031,8.118.1.1,0,0,1-.127.057A.1.1,0,0,1,1224.673,2759.485Z" fill="#fff"/>
      </g>
      <path id="Trazado_102900" data-name="Trazado 102900" d="M1219.557,2792.576a.1.1,0,0,1-.034-.007.1.1,0,0,1-.059-.126l2.7-7.3a.1.1,0,0,1,.184.067l-2.7,7.3A.1.1,0,0,1,1219.557,2792.576Z" fill="#fff"/>
      <path id="Trazado_102901" data-name="Trazado 102901" d="M1223.771,2785.054a.1.1,0,0,1-.044-.01.1.1,0,0,1-.044-.131l2.45-4.951a.1.1,0,1,1,.176.086l-2.45,4.952A.1.1,0,0,1,1223.771,2785.054Z" fill="#fff"/>
    </g>
  </g>
</svg>
