<svg xmlns="http://www.w3.org/2000/svg" xmlns:xlink="http://www.w3.org/1999/xlink" width="48.931" height="48.931" viewBox="0 0 48.931 48.931">
  <defs>
    <clipPath id="clip-path">
      <rect id="Rectángulo_5529" data-name="Rectángulo 5529" width="48.931" height="48.931" transform="translate(391.765 1429.007)" fill="none"/>
    </clipPath>
  </defs>
  <g id="Grupo_69994" data-name="Grupo 69994" transform="translate(-391.765 -1429.007)" opacity="0.5">
    <g id="Grupo_70019" data-name="Grupo 70019" clip-path="url(#clip-path)">
      <g id="Grupo_70018" data-name="Grupo 70018">
        <g id="Grupo_69995" data-name="Grupo 69995">
          <g id="Grupo_69994-2" data-name="Grupo 69994">
            <path id="Trazado_102063" data-name="Trazado 102063" d="M409.479,1462.646h-1.445a.722.722,0,0,0,0,1.445h1.445a.722.722,0,0,0,0-1.445Z" fill="#e4cbb7"/>
          </g>
        </g>
        <g id="Grupo_69997" data-name="Grupo 69997">
          <g id="Grupo_69996" data-name="Grupo 69996">
            <path id="Trazado_102064" data-name="Trazado 102064" d="M429.7,1462.646H412.368a.722.722,0,0,0,0,1.445H429.7a.722.722,0,1,0,0-1.445Z" fill="#e4cbb7"/>
          </g>
        </g>
        <g id="Grupo_69999" data-name="Grupo 69999">
          <g id="Grupo_69998" data-name="Grupo 69998">
            <path id="Trazado_102065" data-name="Trazado 102065" d="M409.479,1458.312h-1.445a.722.722,0,0,0,0,1.445h1.445a.722.722,0,0,0,0-1.445Z" fill="#e4cbb7"/>
          </g>
        </g>
        <g id="Grupo_70001" data-name="Grupo 70001">
          <g id="Grupo_70000" data-name="Grupo 70000">
            <path id="Trazado_102066" data-name="Trazado 102066" d="M429.7,1458.312H412.368a.722.722,0,0,0,0,1.445H429.7a.722.722,0,1,0,0-1.445Z" fill="#e4cbb7"/>
          </g>
        </g>
        <g id="Grupo_70003" data-name="Grupo 70003">
          <g id="Grupo_70002" data-name="Grupo 70002">
            <path id="Trazado_102067" data-name="Trazado 102067" d="M409.479,1453.978h-1.445a.722.722,0,0,0,0,1.445h1.445a.722.722,0,0,0,0-1.445Z" fill="#e4cbb7"/>
          </g>
        </g>
        <g id="Grupo_70005" data-name="Grupo 70005">
          <g id="Grupo_70004" data-name="Grupo 70004">
            <path id="Trazado_102068" data-name="Trazado 102068" d="M429.7,1453.978H412.368a.722.722,0,0,0,0,1.445H429.7a.722.722,0,1,0,0-1.445Z" fill="#e4cbb7"/>
          </g>
        </g>
        <g id="Grupo_70007" data-name="Grupo 70007">
          <g id="Grupo_70006" data-name="Grupo 70006">
            <path id="Trazado_102069" data-name="Trazado 102069" d="M409.479,1449.644h-1.445a.722.722,0,0,0,0,1.445h1.445a.722.722,0,0,0,0-1.445Z" fill="#e4cbb7"/>
          </g>
        </g>
        <g id="Grupo_70009" data-name="Grupo 70009">
          <g id="Grupo_70008" data-name="Grupo 70008">
            <path id="Trazado_102070" data-name="Trazado 102070" d="M429.7,1449.644H412.368a.722.722,0,0,0,0,1.445H429.7a.722.722,0,1,0,0-1.445Z" fill="#e4cbb7"/>
          </g>
        </g>
        <g id="Grupo_70011" data-name="Grupo 70011">
          <g id="Grupo_70010" data-name="Grupo 70010">
            <path id="Trazado_102071" data-name="Trazado 102071" d="M409.479,1445.31h-1.445a.722.722,0,0,0,0,1.445h1.445a.722.722,0,0,0,0-1.445Z" fill="#e4cbb7"/>
          </g>
        </g>
        <g id="Grupo_70013" data-name="Grupo 70013">
          <g id="Grupo_70012" data-name="Grupo 70012">
            <path id="Trazado_102072" data-name="Trazado 102072" d="M429.7,1445.31H412.368a.722.722,0,0,0,0,1.445H429.7a.722.722,0,1,0,0-1.445Z" fill="#e4cbb7"/>
          </g>
        </g>
        <g id="Grupo_70015" data-name="Grupo 70015">
          <g id="Grupo_70014" data-name="Grupo 70014">
            <path id="Trazado_102073" data-name="Trazado 102073" d="M434.751,1442.375a.691.691,0,0,0-.036-.185c-.008-.023-.014-.046-.024-.068a.714.714,0,0,0-.145-.212L424.433,1431.8a.727.727,0,0,0-.211-.144c-.023-.01-.045-.016-.067-.024a.758.758,0,0,0-.187-.038c-.013,0-.026,0-.042,0H403.7a.722.722,0,0,0-.722.722v2.167h-3.612a.722.722,0,0,0-.722.722V1474.2a.722.722,0,0,0,.722.722H429.7a.723.723,0,0,0,.723-.722v-3.612h3.611a.723.723,0,0,0,.723-.722v-27.449A.382.382,0,0,0,434.751,1442.375Zm-10.1-8.323,7.647,7.646h-7.647Zm4.334,39.429H400.088V1435.92h2.89v33.95a.722.722,0,0,0,.722.722h25.282Zm4.334-4.334H404.422V1433.03H423.2v9.391a.723.723,0,0,0,.723.722h9.39Z" fill="#e4cbb7"/>
          </g>
        </g>
        <g id="Grupo_70017" data-name="Grupo 70017">
          <g id="Grupo_70016" data-name="Grupo 70016">
            <path id="Trazado_102074" data-name="Trazado 102074" d="M412.368,1438.087h-4.334a.722.722,0,0,0-.722.722v4.334a.722.722,0,0,0,.722.722h4.334a.723.723,0,0,0,.723-.722v-4.334A.723.723,0,0,0,412.368,1438.087Zm-.722,4.334h-2.89v-2.89h2.89Z" fill="#e4cbb7"/>
          </g>
        </g>
      </g>
    </g>
  </g>
</svg>
