<svg xmlns="http://www.w3.org/2000/svg" width="190.76" height="150.799" viewBox="0 0 190.76 150.799">
  <g id="Grupo_69797" data-name="Grupo 69797" transform="translate(-527.91 -1099.689)">
    <rect id="Rectángulo_5434" data-name="Rectángulo 5434" width="190.76" height="150.799" transform="translate(527.91 1099.689)" fill="none"/>
    <g id="Grupo_69796" data-name="Grupo 69796">
      <path id="Trazado_101537" data-name="Trazado 101537" d="M555.777,1220.746a2.941,2.941,0,0,1-.282-.1c-1.259-.483-2.421-1.855-3.411-2.731-2.669-2.36-5.209-5.519-4.773-9.31.451-3.917,3.919-6.766,5.373-10.432,3.415-8.613-5.045-18.238-2.61-27.177,1.806-6.627,9.106-10.345,15.95-10.937s13.671,1.1,20.537,1.283a47.382,47.382,0,0,0,31.18-10.765c6.112-5.063,10.927-11.221,17.574-15.68,6.222-4.173,13.393-7.213,20.957-7.506a31.253,31.253,0,0,1,20,6.282,17.409,17.409,0,0,1,6.05,7.538c1.431,3.893.781,8.193.331,12.316s-.6,8.587,1.619,12.088c1.529,2.409,3.872,3.838,6.076,5.527a24.621,24.621,0,0,1,6.059,6.352c3.389,5.433,3.554,12.4,1.855,18.574-2.135,7.759-6.813,14.434-11.087,21.1a4.563,4.563,0,0,0-.683,3.823H561.653C559.86,1220.834,557.529,1221.279,555.777,1220.746Z" fill="#f9e4cf"/>
      <g id="Grupo_69927" data-name="Grupo 69927">
        <rect id="Rectángulo_5478" data-name="Rectángulo 5478" width="120.746" height="76.802" rx="2.138" transform="translate(562.918 1144.003)" fill="#fffaf6"/>
        <path id="Trazado_101855" data-name="Trazado 101855" d="M683.663,1146.145v2.634H562.916v-2.634a2.138,2.138,0,0,1,2.14-2.139H681.524A2.138,2.138,0,0,1,683.663,1146.145Z" fill="#e8dace"/>
        <circle id="Elipse_4638" data-name="Elipse 4638" cx="0.962" cy="0.962" r="0.962" transform="translate(565.03 1145.481)" fill="#a59386"/>
        <circle id="Elipse_4639" data-name="Elipse 4639" cx="0.962" cy="0.962" r="0.962" transform="translate(568.18 1145.481)" fill="#ceb8a7"/>
        <circle id="Elipse_4640" data-name="Elipse 4640" cx="0.962" cy="0.962" r="0.962" transform="translate(571.33 1145.481)" fill="#fff"/>
        <rect id="Rectángulo_5479" data-name="Rectángulo 5479" width="86.281" height="55.461" transform="translate(567.583 1158.866)" fill="#e8dace"/>
        <rect id="Rectángulo_5480" data-name="Rectángulo 5480" width="20.429" height="12.704" transform="translate(658.526 1158.863)" fill="#e8dace"/>
        <rect id="Rectángulo_5481" data-name="Rectángulo 5481" width="20.429" height="12.704" transform="translate(658.526 1176.231)" fill="#e8dace"/>
        <rect id="Rectángulo_5482" data-name="Rectángulo 5482" width="20.429" height="12.704" transform="translate(658.526 1193.599)" fill="#e8dace"/>
        <rect id="Rectángulo_5483" data-name="Rectángulo 5483" width="28.544" height="2.516" transform="translate(567.582 1152.952)" fill="#e8dace"/>
        <path id="Trazado_101856" data-name="Trazado 101856" d="M585.247,1163.613c-.006,0-.005.011,0,.01A.005.005,0,1,0,585.247,1163.613Z" fill="#594e89"/>
        <path id="Trazado_101857" data-name="Trazado 101857" d="M592.907,1181.693c1.593,5.362,4.928,8.752,9.547,12.1,4.851,3.523,8.629,1.377,10.077-1.6a18.485,18.485,0,0,0,.869-2.02,6.986,6.986,0,0,1-5.609-3.594c-.274-.462-8.434-11.7-9.682-11.9C596.744,1174.48,592.471,1180.219,592.907,1181.693Z" fill="#bab7c4"/>
        <rect id="Rectángulo_5484" data-name="Rectángulo 5484" width="41.924" height="47.515" transform="translate(605.729 1166.83)" fill="#fff"/>
        <path id="Trazado_101858" data-name="Trazado 101858" d="M600.339,1214.345H574.47c.03-.128.055-.256.079-.379.182-.946.345-1.744.468-2.355.045-.232.084-.434.118-.616v-.005c.03-.133.055-.251.074-.359.01-.05.02-.1.03-.143.044-.217.069-.33.069-.33q1.692.162,3.32.271c4.882.33,9.286.344,12.784.246.389-.01.769-.02,1.133-.035.724-.029,1.394-.059,2.025-.093h.049c.311-.02.6-.035.887-.049l.424-.03c.551-.034,1.049-.074,1.487-.1.212-.02.4-.035.587-.055.207-.009.4-.029.566-.044.138-.015.266-.025.38-.039h.034c.113-.01.212-.025.291-.035.236-.025.354-.034.354-.034h0c.05.251.094.507.143.758v.005c.084.468.168.936.251,1.414C600.137,1212.995,600.245,1213.66,600.339,1214.345Z" fill="#344563"/>
        <path id="Trazado_101859" data-name="Trazado 101859" d="M594.617,1161.192a14.4,14.4,0,0,0,.28-2.662,6.338,6.338,0,0,0-1.646-4.282c-.1-.117-.2-.231-.3-.341a8.363,8.363,0,0,0-5.624-2.6c-1.147-.075-2.56-.111-2.566.217a10.144,10.144,0,0,0-.387-3.549,5.094,5.094,0,0,0-9.881,1.447,3.835,3.835,0,0,0,.135,1.3,4.934,4.934,0,0,0,.752,1.425c1.083,1.53,2.817,2.908,4.659,2.563-1.511,2.9-2.406,4.827-1.2,8.944.312,1.067,2.257,4.58,8.137,5.066a6.361,6.361,0,0,0,4.645-1.534A10.986,10.986,0,0,0,594.617,1161.192Z" fill="#172b4d"/>
        <path id="Trazado_101860" data-name="Trazado 101860" d="M596.333,1188.836a16.87,16.87,0,0,1-.583,4.725,11.71,11.71,0,0,1-3.783,5.988,5.644,5.644,0,0,1-3.271,1.387,5.346,5.346,0,0,1-1.995-.372,7.591,7.591,0,0,1-4.1-3.514,11.526,11.526,0,0,1-.909-6.114,12.6,12.6,0,0,0-.2-4.814,18.609,18.609,0,0,0-2.264-3.763,12.543,12.543,0,0,1-1.875-5.585c-.152-1.762.851-2.366,2.265-3l3.912-1.744a1.275,1.275,0,0,0,.612-.971l.126-1.534.162-1.914,4.988-.548.275,3.377.028.372a1.264,1.264,0,0,0,.675,1.006c2.052,1.045,3.955,1.632,5.031,3.882a4.8,4.8,0,0,1,.366,2.028c.014,1.4-.166,2.8-.126,4.2.044,1.508.343,2.995.515,4.493A23.2,23.2,0,0,1,596.333,1188.836Z" fill="#ffb59d"/>
        <path id="Trazado_101861" data-name="Trazado 101861" d="M584.269,1169.525a5.041,5.041,0,0,0,4.081,1.217,5.873,5.873,0,0,0,1.342-.3l-.276-3.38-4.985.552Z" fill="#f58973"/>
        <path id="Trazado_101862" data-name="Trazado 101862" d="M581.478,1161.871c0,.144.009.3.025.458a9.052,9.052,0,0,0,.378,1.9,9.581,9.581,0,0,0,1.98,3.728,5.075,5.075,0,0,0,4.493,1.618c3.953-.434,4.959-3.985,5.161-6.618.007-.088.007-.169.016-.257a14.824,14.824,0,0,0-.725-4.984c-1.135-2.407-5.305-2.375-5.305-2.375s-1.661,1.22-5.845,4.863A4.774,4.774,0,0,0,581.478,1161.871Z" fill="#ffb59d"/>
        <path id="Trazado_101863" data-name="Trazado 101863" d="M587.218,1163.633a0,0,0,0,0,0,.01C587.225,1163.642,587.224,1163.632,587.218,1163.633Z" fill="#594e89"/>
        <path id="Trazado_101864" data-name="Trazado 101864" d="M588.731,1162.005c-.144-.341-.136-.79-.355-1.076a.028.028,0,0,0-.043-.006c-.286.28-.107.8.014,1.125.084.231.189.454.294.676.035.074.2.305.186.39-.05.233-.478.226-.639.208-.268-.029-.27.4,0,.422.382.036,1.16-.157,1.068-.655A6.209,6.209,0,0,0,588.731,1162.005Z" fill="#f58973"/>
        <path id="Trazado_101865" data-name="Trazado 101865" d="M581.861,1162.611s-1.223-1.474-1.8-.757.322,4.053,2.535,3.729Z" fill="#ffb59d"/>
        <path id="Trazado_101866" data-name="Trazado 101866" d="M581.09,1162.709c-.1-.037-.187.113-.1.179a4.638,4.638,0,0,1,.614.539,1.568,1.568,0,0,0-.558.1c-.129.047-.12.259.035.253a4.182,4.182,0,0,0,.76-.019c.086.148.161.3.247.456a.146.146,0,0,0,.266-.113A2.156,2.156,0,0,0,581.09,1162.709Z" fill="#f58973"/>
        <path id="Trazado_101867" data-name="Trazado 101867" d="M598.471,1202.525c-.177-.969-.315-1.942-.4-2.911a30.694,30.694,0,0,1,.315-9.492c.424-1.846,1.324-3.222,1.014-5.637-.28-2.176-.932-4.291-1.009-5.819-.06-1.272-.286-3.94-.281-3.978-.087-.142-3.639-1.026-5.833-2.014-.415-.191-.78-.354-1.058-.48.824.372-.528,11.321-2.116,14.139-1.646-2.429-5.456-14.279-5.936-14.139-.327.1-.649.2-.954.306-6.348,2.09-8.329,4.371-8.329,4.371,1.247,2.451,2.057,5.95,2.262,13.163a80.687,80.687,0,0,1-.574,12.373c-.167,1.323-.37,2.642-.617,3.952-.228,1.214-.55,2.426-.842,3.63a.678.678,0,0,0,0,.468.665.665,0,0,0,.351.26c5.658,2.446,19.408,1.534,25.457.15,1.093-.249.634-.769.316-1.712A48.23,48.23,0,0,1,598.471,1202.525Z" fill="#d1cfda"/>
        <path id="Trazado_101868" data-name="Trazado 101868" d="M586.791,1159.934c-.079-.2-.466-.185-.643-.192a3.547,3.547,0,0,0-.749.044,4.218,4.218,0,0,0-.716.2,2.068,2.068,0,0,0-.622.327.032.032,0,0,0,.017.057,1.445,1.445,0,0,0,.651-.081,5.137,5.137,0,0,1,.681-.17,3.544,3.544,0,0,1,.706-.04c.111.006.219.021.328.032s.235.038.317-.045A.113.113,0,0,0,586.791,1159.934Z" fill="#172b4d"/>
        <path id="Trazado_101869" data-name="Trazado 101869" d="M586.349,1189.483a11.218,11.218,0,0,0-1.656.274,8.781,8.781,0,0,1-1.753.077,9.148,9.148,0,0,1-1.688-.249c-.578-.14-1.125-.364-1.692-.535-.216-.065-.321.233-.148.35a7.171,7.171,0,0,0,3.477.982,9.408,9.408,0,0,0,1.815-.064,3.714,3.714,0,0,0,1.729-.527A.167.167,0,0,0,586.349,1189.483Z" fill="#97949e"/>
        <path id="Trazado_101870" data-name="Trazado 101870" d="M589.282,1159.85c.111-.168.4-.192.584-.225a4.561,4.561,0,0,1,.618-.064,4.051,4.051,0,0,1,.624.021,1.62,1.62,0,0,1,.624.142.106.106,0,0,1-.041.189,4.421,4.421,0,0,1-.6-.063,4.114,4.114,0,0,0-.587-.005,4.323,4.323,0,0,0-.577.079c-.095.02-.19.043-.284.068a.477.477,0,0,1-.3.021A.11.11,0,0,1,589.282,1159.85Z" fill="#172b4d"/>
        <path id="Trazado_101871" data-name="Trazado 101871" d="M586.038,1161.573c0-.025,0-.048,0-.07a.463.463,0,0,0-.171-.336.35.35,0,0,0-.372-.015.433.433,0,0,0-.193.339.879.879,0,0,0,.078.393.408.408,0,0,0,.107.167.348.348,0,0,0,.453-.057A.673.673,0,0,0,586.038,1161.573Z" fill="#1c2139"/>
        <path id="Trazado_101872" data-name="Trazado 101872" d="M590.89,1161.383c0-.024,0-.048,0-.07a.459.459,0,0,0-.171-.335.348.348,0,0,0-.372-.016.434.434,0,0,0-.193.339.867.867,0,0,0,.078.394.414.414,0,0,0,.107.167.349.349,0,0,0,.453-.058A.679.679,0,0,0,590.89,1161.383Z" fill="#1c2139"/>
        <path id="Trazado_101873" data-name="Trazado 101873" d="M620.6,1168.695H633.07a1.865,1.865,0,0,0,0-3.73H620.6a1.865,1.865,0,0,0,0,3.73Z" fill="#ceb8a7"/>
        <path id="Trazado_101874" data-name="Trazado 101874" d="M616.328,1165.929c1.034.751.727,2.046-.719,2.471a6.812,6.812,0,0,1-2.154.171,7.263,7.263,0,0,1-1.038-.1c-2.081-.387-2.912-2.352-.894-3.127A5.939,5.939,0,0,1,616.328,1165.929Z" fill="#ffb59d"/>
        <path id="Trazado_101875" data-name="Trazado 101875" d="M602.778,1199.817a4.076,4.076,0,0,1-1.163-4.008s-13.47,1.46-15.743,3.565a3.005,3.005,0,0,0,1.97,5.182C591.019,1204.71,602.778,1199.817,602.778,1199.817Z" fill="#ffb59d"/>
        <path id="Trazado_101876" data-name="Trazado 101876" d="M587.093,1198.665s-2.143,3.837-.314,5.683-8.815-1.714-12.291-12.158c-3.935-11.822-.6-15.319-.6-15.319s4.127-3.412,7.974,11.347C582.973,1192.5,587.093,1198.665,587.093,1198.665Z" fill="#bab7c4"/>
        <g id="Grupo_69907" data-name="Grupo 69907">
          <rect id="Rectángulo_5485" data-name="Rectángulo 5485" width="17.794" height="0.479" transform="translate(608.918 1176.956)" fill="#dfe1e5"/>
        </g>
        <g id="Grupo_69908" data-name="Grupo 69908">
          <rect id="Rectángulo_5486" data-name="Rectángulo 5486" width="35.545" height="0.479" transform="translate(608.918 1183.05)" fill="#dfe1e5"/>
        </g>
        <g id="Grupo_69909" data-name="Grupo 69909">
          <rect id="Rectángulo_5487" data-name="Rectángulo 5487" width="35.545" height="0.479" transform="translate(608.918 1188.083)" fill="#dfe1e5"/>
        </g>
        <g id="Grupo_69910" data-name="Grupo 69910">
          <rect id="Rectángulo_5488" data-name="Rectángulo 5488" width="35.545" height="0.479" transform="translate(608.918 1193.116)" fill="#dfe1e5"/>
        </g>
        <g id="Grupo_69911" data-name="Grupo 69911">
          <rect id="Rectángulo_5489" data-name="Rectángulo 5489" width="35.545" height="0.479" transform="translate(608.918 1198.149)" fill="#dfe1e5"/>
        </g>
        <g id="Grupo_69912" data-name="Grupo 69912">
          <rect id="Rectángulo_5490" data-name="Rectángulo 5490" width="24.795" height="0.479" transform="translate(608.918 1203.182)" fill="#dfe1e5"/>
        </g>
        <g id="Grupo_69913" data-name="Grupo 69913">
          <path id="Trazado_101877" data-name="Trazado 101877" d="M604.594,1197.247a.309.309,0,0,0,.209-.081l15.479-14.161a.311.311,0,0,0-.42-.459l-15.478,14.161a.31.31,0,0,0,.21.54Z" fill="#253d63"/>
        </g>
        <g id="Grupo_69914" data-name="Grupo 69914">
          <path id="Trazado_101878" data-name="Trazado 101878" d="M600.022,1198.841a4.3,4.3,0,0,0,2.9.985,8.705,8.705,0,0,0,3.036-.383,3.887,3.887,0,0,0,2.1-1.735,4.055,4.055,0,0,0,.594-1.145c.083-.294.1-.6.19-.9a7.028,7.028,0,0,1,.705-1.312,1.876,1.876,0,0,0,.246-1.029c0-.28,0-.992-.421-.5a3.237,3.237,0,0,1-1.615,1.265c-.387.085-.771.218-1.148.34-.221.071-.905.181-1.043.362.35-.46.705-.911,1.06-1.362a1.469,1.469,0,0,0,.351-.655.514.514,0,0,0-.336-.588,22.933,22.933,0,0,0-2.3,1.776,30.806,30.806,0,0,1-3.568,2.334c-.37.214-.959.383-1.173.753A1.829,1.829,0,0,0,600.022,1198.841Z" fill="#ffb59d"/>
        </g>
        <path id="Trazado_101879" data-name="Trazado 101879" d="M589.8,1165.218c-.106-.063-.2-.012-.314.014s-.215.057-.324.08a2.9,2.9,0,0,1-.669.07,2.806,2.806,0,0,1-.646-.088,2.731,2.731,0,0,1-.318-.1,1.649,1.649,0,0,0-.329-.12.17.17,0,0,0-.164.282,1.434,1.434,0,0,0,.679.342,2.935,2.935,0,0,0,.757.118,2.9,2.9,0,0,0,.743-.073,1.732,1.732,0,0,0,.366-.125c.106-.051.261-.112.283-.241A.143.143,0,0,0,589.8,1165.218Z" fill="#f58973"/>
        <g id="Grupo_69918" data-name="Grupo 69918">
          <g id="Grupo_69917" data-name="Grupo 69917">
            <g id="Grupo_69915" data-name="Grupo 69915">
              <path id="Trazado_101880" data-name="Trazado 101880" d="M668.741,1168.52a3.346,3.346,0,1,1,3.345-3.346A3.35,3.35,0,0,1,668.741,1168.52Zm0-6.486a3.14,3.14,0,1,0,3.14,3.14A3.144,3.144,0,0,0,668.741,1162.034Z" fill="#fff"/>
            </g>
            <g id="Grupo_69916" data-name="Grupo 69916">
              <path id="Trazado_101881" data-name="Trazado 101881" d="M667.607,1166.894v-3.438l2.755,1.719Z" fill="#fff"/>
            </g>
          </g>
        </g>
        <g id="Grupo_69922" data-name="Grupo 69922">
          <g id="Grupo_69921" data-name="Grupo 69921">
            <g id="Grupo_69919" data-name="Grupo 69919">
              <path id="Trazado_101882" data-name="Trazado 101882" d="M668.741,1185.929a3.346,3.346,0,1,1,3.345-3.346A3.35,3.35,0,0,1,668.741,1185.929Zm0-6.487a3.141,3.141,0,1,0,3.14,3.141A3.144,3.144,0,0,0,668.741,1179.442Z" fill="#fff"/>
            </g>
            <g id="Grupo_69920" data-name="Grupo 69920">
              <path id="Trazado_101883" data-name="Trazado 101883" d="M667.607,1184.3v-3.439l2.755,1.719Z" fill="#fff"/>
            </g>
          </g>
        </g>
        <g id="Grupo_69926" data-name="Grupo 69926">
          <g id="Grupo_69925" data-name="Grupo 69925">
            <g id="Grupo_69923" data-name="Grupo 69923">
              <path id="Trazado_101884" data-name="Trazado 101884" d="M668.741,1203.268a3.345,3.345,0,1,1,3.345-3.346A3.35,3.35,0,0,1,668.741,1203.268Zm0-6.487a3.141,3.141,0,1,0,3.14,3.141A3.144,3.144,0,0,0,668.741,1196.781Z" fill="#fff"/>
            </g>
            <g id="Grupo_69924" data-name="Grupo 69924">
              <path id="Trazado_101885" data-name="Trazado 101885" d="M667.607,1201.641V1198.2l2.755,1.719Z" fill="#fff"/>
            </g>
          </g>
        </g>
      </g>
    </g>
  </g>
</svg>
