<svg xmlns="http://www.w3.org/2000/svg" width="156.674" height="156.174" viewBox="0 0 156.674 156.174">
  <g id="Grupo_70405" data-name="Grupo 70405" transform="translate(-946.032 -2876.792)">
    <path id="Trazado_102918" data-name="Trazado 102918" d="M1095.758,2954.877a71.373,71.373,0,0,0-69.242-71.333.554.554,0,0,0-.23-.052h-1.83l-.087,0h0l-.087,0h-1.83a.549.549,0,0,0-.229.052,71.363,71.363,0,0,0-53.232,116.374l0,0c.029.036.06.07.089.106.213.26.431.514.647.771q.685.816,1.395,1.611c.2.221.391.444.591.663q.929,1.014,1.9,1.988c.218.221.438.438.659.656q.918.9,1.864,1.777.252.231.506.459c.633.57,1.277,1.125,1.929,1.671.238.2.477.4.718.6q1.062.865,2.154,1.693c.24.18.484.355.726.533q.871.641,1.763,1.254c.26.178.516.36.778.536.437.292.88.575,1.323.858v.013c.127.081.257.155.384.235.175.11.352.218.529.327q.432.266.868.526c.186.111.37.225.556.334l.118.069c.3.174.6.339.9.508l.13.074v.01h0c.13.073.262.139.393.211.324.179.65.354.977.528l.025.013c.323.173.647.345.974.512.06.03.118.063.177.093l.372.186c.077.039.155.075.232.113l.249.123c.3.146.592.291.891.433.12.057.239.118.359.174.176.082.354.159.531.24.22.1.441.2.661.3.249.111.5.228.746.336l.026,0c.119.051.235.11.354.16v0c.027.011.054.02.081.032.115.049.234.091.349.139.092.038.181.081.272.119v-.012c.022.009.045.017.067.027.413.169.828.333,1.243.5.317.123.632.251.951.369.289.108.58.212.871.317.119.042.235.091.354.133v-.014c.089.032.178.06.267.091.508.176,1.016.352,1.529.517s1.052.329,1.582.486c.107.032.213.066.32.1.385.113.772.218,1.159.323.571.156,1.143.309,1.72.451.132.032.263.071.4.1v-.012l.146.034c.446.106.892.211,1.34.309.118.026.236.056.354.081.385.082.772.158,1.159.234.283.055.567.106.851.158q.479.087.959.168c.24.041.48.087.72.126.3.046.6.087.893.13q.381.055.762.106.733.1,1.468.18c.2.023.405.053.608.075l.327.033c.056.006.112.009.168.015.454.044.909.079,1.363.114.275.022.548.047.823.065s.557.033.836.049c.115.006.228.017.344.023.136.007.272.006.408.012.06,0,.12.007.18.009.205.009.41.022.615.029q2.406.081,4.815,0c.205-.007.409-.02.614-.029l.19-.009c.128-.006.257,0,.385-.012s.239-.017.358-.023c.279-.016.558-.03.836-.049.178-.012.355-.026.533-.039l.291-.026c.46-.036.92-.071,1.38-.117l.126-.01.349-.035c.206-.022.411-.052.617-.076.485-.055.97-.113,1.454-.178.258-.035.516-.07.773-.108.3-.042.593-.083.888-.129.236-.038.471-.084.707-.124q.492-.082.983-.172c.281-.051.562-.1.842-.156.383-.075.766-.15,1.147-.231.126-.027.251-.059.377-.087.445-.1.889-.2,1.333-.308q1.3-.309,2.576-.665c.253-.07.506-.136.758-.21l.4-.119c.567-.169,1.131-.342,1.692-.524.07-.022.14-.043.209-.066.251-.082.5-.173.751-.258q1.446-.492,2.865-1.043c.3-.114.592-.226.886-.345l.374-.151c.255-.1.514-.2.767-.308l.011,0h0c.124-.052.244-.113.368-.166l.029,0c.324-.14.644-.29.966-.435l.08-.037c.428-.193.855-.387,1.278-.589.278-.132.555-.269.831-.405l.261-.127q.469-.234.936-.473c.2-.1.392-.206.588-.309l.355-.187c.272-.145.544-.29.814-.439l.11-.062c.12-.066.241-.127.36-.194v-.009c.385-.216.772-.43,1.152-.652.194-.114.386-.233.58-.349q.405-.243.808-.49c.189-.116.378-.231.566-.349.122-.077.247-.148.369-.226h0l.013-.008v-.012c.455-.29.909-.581,1.357-.881.228-.153.452-.312.679-.468q.955-.657,1.89-1.344c.213-.157.429-.311.64-.47.75-.564,1.486-1.146,2.213-1.739.216-.177.43-.356.644-.535q1.046-.873,2.059-1.783c.105-.095.211-.19.315-.286.681-.622,1.347-1.262,2.005-1.911.2-.2.394-.389.59-.586q.993-1.005,1.951-2.047c.172-.188.339-.381.509-.571q.764-.853,1.5-1.732c.192-.229.386-.455.576-.686.037-.046.077-.091.114-.137l0,0a71.081,71.081,0,0,0,16.007-45.035Z" fill="#d4dae9"/>
    <rect id="Rectángulo_5654" data-name="Rectángulo 5654" width="156.674" height="156.174" transform="translate(946.032 2876.792)" fill="none"/>
    <g id="Grupo_70416" data-name="Grupo 70416">
      <g id="Flat">
        <g id="Stroke_copy_2" data-name="Stroke copy 2">
          <g id="Grupo_70415" data-name="Grupo 70415">
            <g id="Grupo_70407" data-name="Grupo 70407">
              <circle id="Elipse_4660" data-name="Elipse 4660" cx="31.437" cy="31.437" r="31.437" transform="translate(991.36 2931.301)" fill="#57b7eb"/>
              <path id="Trazado_102919" data-name="Trazado 102919" d="M1035.372,2980.028a31.4,31.4,0,0,1-28.691-44.246,31.418,31.418,0,1,0,44.807,39.768A31.239,31.239,0,0,1,1035.372,2980.028Z" fill="#4891d3"/>
              <path id="Trazado_102920" data-name="Trazado 102920" d="M1044,2939.577l-16.489,24.733,15.718,4.715-6.287,4.716v7.859l-6.287,6.288.778,5.056a31.38,31.38,0,0,0,12.575-53.367Z" fill="#c4f236"/>
              <path id="Trazado_102921" data-name="Trazado 102921" d="M991.36,2962.738a31.439,31.439,0,0,0,24.74,30.705l-2.734-11.843,12.575-7.859-11-7.859,6.288-7.86-7.86-7.859-2.2-16.61A31.429,31.429,0,0,0,991.36,2962.738Z" fill="#c4f236"/>
              <g id="Grupo_70406" data-name="Grupo 70406">
                <path id="Trazado_102922" data-name="Trazado 102922" d="M1051.5,2975.564a31.5,31.5,0,0,1-20.072,17.385l-.77-5.061,6.287-6.288v-1.619a30.906,30.906,0,0,0,14.555-4.417Z" fill="#a1d51c"/>
                <path id="Trazado_102923" data-name="Trazado 102923" d="M1013.366,2981.6l2.735,11.836a31.4,31.4,0,0,1-9.431-57.655,31.418,31.418,0,0,0,14.587,40.9Z" fill="#a1d51c"/>
              </g>
            </g>
            <g id="Grupo_70408" data-name="Grupo 70408">
              <path id="Trazado_102924" data-name="Trazado 102924" d="M1054.234,2909.295l3.575,5.525,6.139-2.369-.353,6.571,6.358,1.693-4.15,5.108,4.15,5.107-6.358,1.693.353,6.57-6.139-2.367-3.575,5.524-3.574-5.524-6.14,2.367.354-6.57-6.358-1.693,4.15-5.107-4.15-5.108,6.358-1.693-.354-6.571,6.14,2.369Z" fill="#f9e109"/>
              <path id="Trazado_102925" data-name="Trazado 102925" d="M1051.91,2932.973l-3.99,1.539.233-4.27-4.134-1.1,2.7-3.318-2.7-3.32,4.134-1.1-.233-4.271,3.99,1.539,2.324-3.59,2.325,3.59,3.99-1.539-.233,4.271,4.134,1.1-2.7,3.32,2.7,3.318-4.134,1.1.233,4.27-3.99-1.539-2.325,3.591Z" fill="#fcbc04"/>
              <circle id="Elipse_4661" data-name="Elipse 4661" cx="6.287" cy="6.287" r="6.287" transform="translate(1047.947 2920.298)" fill="#f8664f"/>
              <path id="Trazado_102926" data-name="Trazado 102926" d="M1025.941,2928.157a9.413,9.413,0,0,1,1.607.147,12.566,12.566,0,0,1,21.936,0,9.349,9.349,0,0,1,9.794,4.614c.158-.009.3-.045.458-.045a7.073,7.073,0,1,1-3.989,12.911,9.39,9.39,0,0,1-10.447-.762,12.52,12.52,0,0,1-13.568,0,9.431,9.431,0,1,1-5.791-16.865Z" fill="#d0d8da"/>
              <path id="Trazado_102927" data-name="Trazado 102927" d="M1064.451,2940.732a7.049,7.049,0,0,1-3.989-1.235,9.39,9.39,0,0,1-10.446-.763,12.518,12.518,0,0,1-13.569,0,9.42,9.42,0,0,1-15-9.431,9.431,9.431,0,1,0,10.288,15.719,12.52,12.52,0,0,0,13.568,0,9.39,9.39,0,0,0,10.447.762,7.048,7.048,0,0,0,11.026-5.473,7.013,7.013,0,0,1-2.322.421Z" fill="#93999a"/>
              <path id="Trazado_102928" data-name="Trazado 102928" d="M1040.088,2951.735l3.143-12.575-14.146,17.291,7.859,1.571L1033.8,2970.6l14.147-17.29Z" fill="#f9e109"/>
              <path id="Trazado_102929" data-name="Trazado 102929" d="M1041.66,2954.879h-6.288l7.859-15.719-14.146,17.291,7.859,1.571L1033.8,2970.6Z" fill="#fcbc04"/>
            </g>
            <g id="Grupo_70411" data-name="Grupo 70411">
              <g id="Grupo_70409" data-name="Grupo 70409">
                <path id="Trazado_102930" data-name="Trazado 102930" d="M985.073,2975.313h18.862a3.144,3.144,0,0,1,3.144,3.144h0a3.144,3.144,0,0,1-3.144,3.143H985.073a3.144,3.144,0,0,1-3.144-3.143h0A3.144,3.144,0,0,1,985.073,2975.313Z" fill="#d0d8da"/>
                <path id="Trazado_102931" data-name="Trazado 102931" d="M981.929,2969.025h25.15a3.145,3.145,0,0,1,3.144,3.144h0a3.144,3.144,0,0,1-3.144,3.144h-25.15a3.144,3.144,0,0,1-3.143-3.144h0A3.144,3.144,0,0,1,981.929,2969.025Z" fill="#d0d8da"/>
                <path id="Trazado_102932" data-name="Trazado 102932" d="M988.217,2981.6h12.575a3.144,3.144,0,0,1,3.143,3.144h0a3.144,3.144,0,0,1-3.143,3.144H988.217a3.144,3.144,0,0,1-3.144-3.144h0A3.144,3.144,0,0,1,988.217,2981.6Z" fill="#d0d8da"/>
                <path id="Trazado_102933" data-name="Trazado 102933" d="M989.789,2987.888h6.287a3.144,3.144,0,0,1,3.144,3.143h0a3.144,3.144,0,0,1-3.144,3.144h-6.287a3.143,3.143,0,0,1-3.144-3.144h0A3.143,3.143,0,0,1,989.789,2987.888Z" fill="#d0d8da"/>
                <path id="Trazado_102934" data-name="Trazado 102934" d="M988.217,2994.175h3.143a3.144,3.144,0,0,1,3.144,3.144h0a3.143,3.143,0,0,1-3.144,3.143h-3.143a3.143,3.143,0,0,1-3.144-3.143h0A3.144,3.144,0,0,1,988.217,2994.175Z" fill="#d0d8da"/>
              </g>
              <g id="Grupo_70410" data-name="Grupo 70410">
                <path id="Trazado_102935" data-name="Trazado 102935" d="M985.073,2975.313a3.144,3.144,0,1,0,0,6.287h18.862a3.144,3.144,0,0,0,3.144-3.143H988.217A3.144,3.144,0,0,1,985.073,2975.313Z" fill="#93999a"/>
                <path id="Trazado_102936" data-name="Trazado 102936" d="M981.929,2969.025a3.144,3.144,0,0,0,0,6.288h25.15a3.144,3.144,0,0,0,3.144-3.144h-25.15A3.144,3.144,0,0,1,981.929,2969.025Z" fill="#93999a"/>
                <path id="Trazado_102937" data-name="Trazado 102937" d="M988.217,2981.6a3.144,3.144,0,1,0,0,6.288h12.575a3.144,3.144,0,0,0,3.143-3.144H991.36A3.144,3.144,0,0,1,988.217,2981.6Z" fill="#93999a"/>
                <path id="Trazado_102938" data-name="Trazado 102938" d="M989.789,2987.888a3.144,3.144,0,1,0,0,6.287h6.287a3.144,3.144,0,0,0,3.144-3.144h-6.288A3.143,3.143,0,0,1,989.789,2987.888Z" fill="#93999a"/>
                <path id="Trazado_102939" data-name="Trazado 102939" d="M988.217,2994.175a3.143,3.143,0,1,0,0,6.287h3.143a3.143,3.143,0,0,0,3.144-3.143H991.36A3.144,3.144,0,0,1,988.217,2994.175Z" fill="#93999a"/>
              </g>
            </g>
            <g id="Grupo_70414" data-name="Grupo 70414">
              <path id="Trazado_102940" data-name="Trazado 102940" d="M1005.507,2926.585a4.806,4.806,0,0,0-.827.084,6.156,6.156,0,0,0-6.916-3.042,7.846,7.846,0,0,0-14.106,2.974c-.053,0-.1-.016-.157-.016a4.716,4.716,0,1,0,3.369,8.017,7.764,7.764,0,0,0,8.657.2,6.209,6.209,0,0,0,7.094.207,4.66,4.66,0,0,0,2.886,1.005,4.716,4.716,0,0,0,0-9.432Z" fill="#d0d8da"/>
              <path id="Trazado_102941" data-name="Trazado 102941" d="M1008.651,2931.3a4.662,4.662,0,0,1-2.886-1.012,6.21,6.21,0,0,1-7.094-.208,7.764,7.764,0,0,1-8.658-.2,4.7,4.7,0,0,1-8.055-3.014,4.706,4.706,0,1,0,4.912,7.737,7.764,7.764,0,0,0,8.657.2,6.209,6.209,0,0,0,7.094.207,4.66,4.66,0,0,0,2.886,1.005,4.717,4.717,0,0,0,4.716-4.716c0-.1-.022-.185-.029-.28a4.651,4.651,0,0,1-1.543.28Z" fill="#93999a"/>
              <g id="Grupo_70413" data-name="Grupo 70413">
                <g id="Grupo_70412" data-name="Grupo 70412">
                  <path id="Trazado_102942" data-name="Trazado 102942" d="M1063.666,2984.744h-23.578a1.572,1.572,0,1,1,0-3.144h23.578a3.144,3.144,0,0,0,0-6.287,1.572,1.572,0,0,1,0-3.144,6.287,6.287,0,0,1,0,12.575Z" fill="#84d2f4"/>
                  <path id="Trazado_102943" data-name="Trazado 102943" d="M1046.375,2997.319h-11a1.572,1.572,0,0,1,0-3.144h11a1.572,1.572,0,0,1,0,3.144Z" fill="#84d2f4"/>
                  <path id="Trazado_102944" data-name="Trazado 102944" d="M1052.663,2978.457h-11a1.572,1.572,0,0,1,0-3.144h11a1.572,1.572,0,0,1,0,3.144Z" fill="#84d2f4"/>
                  <path id="Trazado_102945" data-name="Trazado 102945" d="M1055.806,3000.462a1.571,1.571,0,1,1,0-3.143,3.144,3.144,0,0,0,0-6.288h-9.431a1.572,1.572,0,1,1,0-3.143h9.431a6.287,6.287,0,1,1,0,12.574Z" fill="#84d2f4"/>
                  <path id="Trazado_102946" data-name="Trazado 102946" d="M1024.369,2984.744h-3.143a1.572,1.572,0,1,1,0-3.144h3.143a1.572,1.572,0,1,1,0,3.144Z" fill="#84d2f4"/>
                  <path id="Trazado_102947" data-name="Trazado 102947" d="M1030.657,2978.457h-3.144a1.572,1.572,0,0,1,0-3.144h3.144a1.572,1.572,0,0,1,0,3.144Z" fill="#84d2f4"/>
                </g>
                <path id="Trazado_102948" data-name="Trazado 102948" d="M986.645,2945.448a1.573,1.573,0,0,1-1.415-.87l-1.572-3.143a1.573,1.573,0,1,1,2.814-1.405l1.572,3.143a1.573,1.573,0,0,1-1.4,2.275Z" fill="#84d2f4"/>
                <path id="Trazado_102949" data-name="Trazado 102949" d="M992.932,2945.448a1.571,1.571,0,0,1-1.414-.87l-1.572-3.143a1.572,1.572,0,1,1,2.813-1.405l1.572,3.143a1.572,1.572,0,0,1-1.4,2.275Z" fill="#84d2f4"/>
                <path id="Trazado_102950" data-name="Trazado 102950" d="M999.22,2945.448a1.573,1.573,0,0,1-1.415-.87l-1.572-3.143a1.573,1.573,0,1,1,2.814-1.405l1.572,3.143a1.573,1.573,0,0,1-1.4,2.275Z" fill="#84d2f4"/>
                <path id="Trazado_102951" data-name="Trazado 102951" d="M1005.507,2945.448a1.573,1.573,0,0,1-1.415-.87l-1.571-3.143a1.572,1.572,0,1,1,2.813-1.405l1.572,3.143a1.572,1.572,0,0,1-1.4,2.275Z" fill="#84d2f4"/>
                <path id="Trazado_102952" data-name="Trazado 102952" d="M989.789,2953.307a1.572,1.572,0,0,1-1.415-.869l-1.572-3.144a1.573,1.573,0,0,1,2.814-1.405l1.572,3.143a1.572,1.572,0,0,1-1.4,2.275Z" fill="#84d2f4"/>
                <path id="Trazado_102953" data-name="Trazado 102953" d="M996.076,2953.307a1.573,1.573,0,0,1-1.415-.869l-1.572-3.144a1.573,1.573,0,0,1,2.814-1.405l1.572,3.143a1.572,1.572,0,0,1-1.4,2.275Z" fill="#84d2f4"/>
                <path id="Trazado_102954" data-name="Trazado 102954" d="M1002.363,2953.307a1.572,1.572,0,0,1-1.414-.869l-1.572-3.144a1.572,1.572,0,0,1,2.813-1.405l1.572,3.143a1.572,1.572,0,0,1-1.4,2.275Z" fill="#84d2f4"/>
                <path id="Trazado_102955" data-name="Trazado 102955" d="M1008.651,2953.307a1.573,1.573,0,0,1-1.415-.869l-1.572-3.144a1.573,1.573,0,0,1,2.814-1.405l1.572,3.143a1.572,1.572,0,0,1-1.4,2.275Z" fill="#84d2f4"/>
                <path id="Trazado_102956" data-name="Trazado 102956" d="M992.932,2962.738a1.572,1.572,0,0,1-1.414-.869l-1.572-3.144a1.572,1.572,0,1,1,2.813-1.405l1.572,3.144a1.572,1.572,0,0,1-1.4,2.274Z" fill="#84d2f4"/>
                <path id="Trazado_102957" data-name="Trazado 102957" d="M999.22,2962.738a1.573,1.573,0,0,1-1.415-.869l-1.572-3.144a1.573,1.573,0,0,1,2.814-1.405h0l1.572,3.144a1.572,1.572,0,0,1-1.4,2.274Z" fill="#84d2f4"/>
                <path id="Trazado_102958" data-name="Trazado 102958" d="M1005.507,2962.738a1.574,1.574,0,0,1-1.415-.869l-1.571-3.144a1.572,1.572,0,1,1,2.813-1.405l1.572,3.144a1.572,1.572,0,0,1-1.4,2.274Z" fill="#84d2f4"/>
                <path id="Trazado_102959" data-name="Trazado 102959" d="M1010.223,2961.166a1.574,1.574,0,0,1-1.415-.869l-1.572-3.144a1.573,1.573,0,0,1,2.814-1.405l1.572,3.144a1.572,1.572,0,0,1-1.4,2.274Z" fill="#84d2f4"/>
              </g>
            </g>
          </g>
        </g>
      </g>
    </g>
  </g>
</svg>
