<svg xmlns="http://www.w3.org/2000/svg" xmlns:xlink="http://www.w3.org/1999/xlink" width="343.601" height="256.69" viewBox="0 0 343.601 256.69">
  <defs>
    <clipPath id="clip-path">
      <path id="Trazado_101947" data-name="Trazado 101947" d="M927.074,1557.738c-33.489-11.189-66.944-30.355-103.2-17.94-11.944,4.089-22.921,11.177-35.361,13.33a46.807,46.807,0,0,1-31.582-5.824c-6.671-3.964-12.47-9.884-14.83-17.276-3.433-10.753.894-22.485,6.87-32.062s13.681-18.17,18.054-28.576c7.9-18.8,3.753-40.266-.962-60.109s-9.86-40.83-3.7-60.271a54.678,54.678,0,0,1,16.227-24.663c27.8-24.079,73.354-16.5,100.39,4.8,9.381,7.394,17.484,16.593,28.034,22.194,13.952,7.406,30.566,7.659,46.291,6.175s31.468-4.53,47.2-3.087c35.957,3.3,67.231,31.3,78.568,65.586s4.165,73.168-14.932,103.812c-6.786,10.889-15.164,21.033-25.9,28.06-11.469,7.507-25.092,11.11-38.686,12.874A163.32,163.32,0,0,1,927.074,1557.738Z" transform="translate(-740.881 -1309.418)" fill="#f6e8db"/>
    </clipPath>
  </defs>
  <g id="Grupo_69955" data-name="Grupo 69955" transform="translate(-740.881 -1309.418)">
    <g id="Grupo_69951" data-name="Grupo 69951" transform="translate(740.881 1309.418)">
      <path id="Trazado_101894" data-name="Trazado 101894" d="M927.074,1557.738c-33.489-11.189-66.944-30.355-103.2-17.94-11.944,4.089-22.921,11.177-35.361,13.33a46.807,46.807,0,0,1-31.582-5.824c-6.671-3.964-12.47-9.884-14.83-17.276-3.433-10.753.894-22.485,6.87-32.062s13.681-18.17,18.054-28.576c7.9-18.8,3.753-40.266-.962-60.109s-9.86-40.83-3.7-60.271a54.678,54.678,0,0,1,16.227-24.663c27.8-24.079,73.354-16.5,100.39,4.8,9.381,7.394,17.484,16.593,28.034,22.194,13.952,7.406,30.566,7.659,46.291,6.175s31.468-4.53,47.2-3.087c35.957,3.3,67.231,31.3,78.568,65.586s4.165,73.168-14.932,103.812c-6.786,10.889-15.164,21.033-25.9,28.06-11.469,7.507-25.092,11.11-38.686,12.874A163.32,163.32,0,0,1,927.074,1557.738Z" transform="translate(-740.881 -1309.418)" fill="#f6e8db"/>
      <g id="Grupo_69950" data-name="Grupo 69950" clip-path="url(#clip-path)">
        <path id="Trazado_101895" data-name="Trazado 101895" d="M1060.912,1640.284v-72.258h-4.538v72.258h-17.954v2.7h41.42v-2.7Z" transform="translate(-802.469 -1362.947)" fill="#88acd1"/>
        <rect id="Rectángulo_5518" data-name="Rectángulo 5518" width="4.538" height="10.687" transform="translate(253.906 218.004)" fill="#7197bf"/>
        <path id="Trazado_101896" data-name="Trazado 101896" d="M949.526,1650.67s2.694-4.151,4.818-17.668l13.034,2.8-8.4,20.261S949.535,1655.884,949.526,1650.67Z" transform="translate(-784.068 -1376.397)" fill="#ffb69e"/>
        <path id="Trazado_101897" data-name="Trazado 101897" d="M995.536,1637.4s3.645,9.656,1.363,18.173c0,0,8.936.013,11.381-3.475v-15.567Z" transform="translate(-793.592 -1377.127)" fill="#ffb69e"/>
        <path id="Trazado_101898" data-name="Trazado 101898" d="M980.845,1535.749s-10.729,3.435-14.577,12.628-21.634,62.8-21.165,63.144c14.1,10.427,24.905,6.179,24.905,6.179s9.123-29.272,14.011-52.274c3.038-14.294,27.4-11.292,27.4-11.292l17.744-16.035-3.365-3.745Z" transform="translate(-783.151 -1355.978)" fill="#97949e"/>
        <path id="Trazado_101899" data-name="Trazado 101899" d="M1010.227,1543.084s-.919,19.436,13.76,22.333,49.75,5.687,58.746-8.526c7.247-11.45,12.2-67.012-10.249-63.511-26.883,4.193-35.7,16.395-39.5,33.475S1010.483,1534.435,1010.227,1543.084Z" transform="translate(-796.63 -1347.464)" fill="#88acd1"/>
        <path id="Trazado_101900" data-name="Trazado 101900" d="M1060.373,1563.512c-10.23,4.772-17.874,3.163-44.769,3.163-1.878,0-1.661,22.039-1.777,49.84,0,0-9.755,5.407-27.431,3.476,0,0,1.382-54.074,5.231-69.472s36.44-16.3,36.44-16.3l44.343,4.614S1077.957,1555.309,1060.373,1563.512Z" transform="translate(-791.7 -1355.95)" fill="#bab7c4"/>
        <g id="Grupo_69942" data-name="Grupo 69942" transform="translate(195.731 74.454)">
          <path id="Trazado_101901" data-name="Trazado 101901" d="M1027.015,1457.788c-5.6,2.792-11.284,41.6-11.284,41.6s-20.005,1.833-28.031,7.271l.374,5.657s35.542-1.147,36.743-2.661,5.48-16.751,6.368-22.351S1032.613,1455,1027.015,1457.788Z" transform="translate(-987.701 -1414.541)" fill="#ffb69e"/>
          <path id="Trazado_101902" data-name="Trazado 101902" d="M1039.261,1484.92l.392,2.945a52.548,52.548,0,0,1-7.658-.038c-7.171-.586-11.009-2.568-11.009-2.568,6.024-22.911,12.919-28.212,12.919-28.212,6.515,6.693,5.737,22.981,5.433,26.973C1039.293,1484.6,1039.261,1484.92,1039.261,1484.92Z" transform="translate(-994.591 -1414.43)" fill="#ceb8a7"/>
          <path id="Trazado_101903" data-name="Trazado 101903" d="M1042.527,1493.515a52.532,52.532,0,0,1-7.658-.038,37.377,37.377,0,0,0,2.419-9.135l4.924,5.328c-.045.579-.077.9-.077.9Z" transform="translate(-997.464 -1420.079)" fill="#a59386"/>
          <path id="Trazado_101904" data-name="Trazado 101904" d="M1090.987,1451.276c.168.761.459,1.513.645,2.274a8.894,8.894,0,0,1-1.75,7.59c-.769.931-1.772,1.089-2.582,1.849-.951.892-1.066,2.458-1.756,3.534a7.18,7.18,0,0,1-4.722,2.7,19.907,19.907,0,0,1-14.154-2.313,16.2,16.2,0,0,0-3.542-1.87c-2.947-.865-6.29.694-9.12-.5a7.531,7.531,0,0,1-2.617-2.026,15.021,15.021,0,0,1-3.691-8.453c-.294-3.021.3-6.258-1.067-8.967-1.615-3.2-5.59-4.817-6.825-8.18a9.53,9.53,0,0,1,.333-6.231,45.38,45.38,0,0,0,2-6.033c.614-3.343-.961-6.632-.366-9.84a14.889,14.889,0,0,1,3.785-7.733c3.5-3.533,10.3-4.348,14.914-3.428a19.009,19.009,0,0,1,13,9.83c.86,1.679,1.5,3.538,2.86,4.845,1.385,1.331,3.331,1.9,4.864,3.062a7.826,7.826,0,0,1,3.043,5.518c.228,2.73-.948,5.724.439,8.086,1.18,2.011,3.743,2.685,5.488,4.231,1.645,1.458,2.969,4.128,2.358,6.336-.412,1.488-1.529,2.76-1.661,4.3A4.634,4.634,0,0,0,1090.987,1451.276Z" transform="translate(-998.405 -1403.306)" fill="#1c2139"/>
          <path id="Trazado_101905" data-name="Trazado 101905" d="M1043.114,1477.66a29.421,29.421,0,0,0,1.555,8.124,20.315,20.315,0,0,0,7.247,9.944,9.8,9.8,0,0,0,5.828,2.031,9.177,9.177,0,0,0,3.413-.877,13.219,13.219,0,0,0,6.708-6.558c1.466-3.318,1.343-7.11.873-10.708-.367-2.783-.922-5.65-.207-8.365.653-2.467,2.281-4.542,3.5-6.783a21.842,21.842,0,0,0,2.608-9.9c.058-3.073-1.745-4.006-4.273-4.935l-6.978-2.576a2.2,2.2,0,0,1-1.172-1.609l-.395-2.647-.5-3.3-8.709-.379-.032,2.371-.053,3.517-.012.646a2.2,2.2,0,0,1-1.054,1.823c-3.433,2.042-6.67,3.28-8.272,7.308a8.347,8.347,0,0,0-.4,3.558c.137,2.427.613,4.831.7,7.261.1,2.618-.25,5.228-.376,7.843A40.307,40.307,0,0,0,1043.114,1477.66Z" transform="translate(-999.096 -1410.72)" fill="#ffb69e"/>
          <path id="Trazado_101906" data-name="Trazado 101906" d="M1055.07,1445.633a9.391,9.391,0,0,0,7.923-3.2l-7.87-.312Z" transform="translate(-1001.646 -1411.339)" fill="#f68a73"/>
          <path id="Trazado_101907" data-name="Trazado 101907" d="M1066.315,1423.846a7.981,7.981,0,0,1,.01.8,15.761,15.761,0,0,1-.438,3.337,16.657,16.657,0,0,1-3,6.689,8.818,8.818,0,0,1-7.6,3.321c-6.9-.3-9.055-6.339-9.706-10.879-.024-.152-.033-.292-.058-.445a25.744,25.744,0,0,1,.684-8.722c1.692-4.3,8.924-4.726,8.924-4.726s3.018,1.924,10.691,7.758A8.321,8.321,0,0,1,1066.315,1423.846Z" transform="translate(-999.642 -1405.358)" fill="#ffb69e"/>
          <path id="Trazado_101908" data-name="Trazado 101908" d="M1059.483,1431.3c.011,0,.01.018,0,.017A.008.008,0,0,1,1059.483,1431.3Z" transform="translate(-1002.558 -1409.101)" fill="#594e8a"/>
          <path id="Trazado_101909" data-name="Trazado 101909" d="M1055.736,1427.494a8.767,8.767,0,0,0,.227-1.174c.062-.306.256-1,.569-.427a2.391,2.391,0,0,1-.125,1.632c-.12.409-.276.808-.433,1.2-.052.132-.319.553-.278.7.114.4.855.338,1.132.288.461-.082.512.657.048.731-.659.106-2.029-.139-1.928-1.012A10.7,10.7,0,0,1,1055.736,1427.494Z" transform="translate(-1001.62 -1407.935)" fill="#f68a73"/>
          <path id="Trazado_101910" data-name="Trazado 101910" d="M1070.8,1427.82s1.949-2.7,3.029-1.519-.093,7.063-3.966,6.755Z" transform="translate(-1004.708 -1408.004)" fill="#ffb69e"/>
          <path id="Trazado_101911" data-name="Trazado 101911" d="M1072.217,1428.392c.164-.075.338.175.2.3a8.006,8.006,0,0,0-1,1.006,2.717,2.717,0,0,1,.978.108c.229.067.238.436-.031.444a7.382,7.382,0,0,1-1.32.053c-.132.266-.244.542-.375.818a.254.254,0,0,1-.474-.164A3.747,3.747,0,0,1,1072.217,1428.392Z" transform="translate(-1004.776 -1408.495)" fill="#f68a73"/>
          <path id="Trazado_101912" data-name="Trazado 101912" d="M1076.965,1480.844c-.043-.395-.039-.788-.053-1.185-.02-.565-.04-1.118-.055-1.658-.329-11.419-3.009-19.92-1.212-24.11,0,0-1.786-1.036-11.266-3.928,0,0-10.162,17.968-17.425,1.455-.131-.3-9.745,3.906-9.879,4.163a56.72,56.72,0,0,1-.544,18.908c-1.4,7.2,3.495,8.584,4.08,10.525,2.073,6.906-2.833,27.747-3.278,29.321l45.08-1.278C1082.029,1511.539,1079.172,1501.143,1076.965,1480.844Z" transform="translate(-997.756 -1412.963)" fill="#e4cbb7"/>
          <path id="Trazado_101913" data-name="Trazado 101913" d="M1065.16,1488.764a19.549,19.549,0,0,1,2.9.286,15.455,15.455,0,0,0,3.048-.067,15.964,15.964,0,0,0,2.9-.627c.985-.308,1.907-.759,2.871-1.121.367-.138.584.366.3.589a12.455,12.455,0,0,1-5.913,2.1,16.206,16.206,0,0,1-3.154.1,6.448,6.448,0,0,1-3.057-.715A.29.29,0,0,1,1065.16,1488.764Z" transform="translate(-1003.681 -1420.673)" fill="#ceb8a7"/>
          <path id="Trazado_101914" data-name="Trazado 101914" d="M1052.749,1422.768c-.2-.266-.574-.251-.818-.273a4.423,4.423,0,0,0-.807.006,4.052,4.052,0,0,0-.784.153,1.584,1.584,0,0,0-.744.36c-.079.086,0,.319.116.313a4.053,4.053,0,0,0,.748-.22,3.846,3.846,0,0,1,.743-.119,4.233,4.233,0,0,1,.76.027c.128.016.255.036.383.062a.474.474,0,0,0,.395-.023A.214.214,0,0,0,1052.749,1422.768Z" transform="translate(-1000.506 -1407.274)" fill="#1c2139"/>
          <path id="Trazado_101915" data-name="Trazado 101915" d="M1060.209,1422.62c.161-.289.536-.325.774-.378a4.449,4.449,0,0,1,.8-.1,4.01,4.01,0,0,1,.8.048,1.59,1.59,0,0,1,.785.258c.09.075.041.316-.074.325a4.042,4.042,0,0,1-.77-.12,3.854,3.854,0,0,0-.753-.02,4.226,4.226,0,0,0-.749.127c-.125.033-.248.069-.372.112a.469.469,0,0,1-.393.03A.213.213,0,0,1,1060.209,1422.62Z" transform="translate(-1002.703 -1407.204)" fill="#1c2139"/>
          <path id="Trazado_101916" data-name="Trazado 101916" d="M1051.908,1426.378c-.01-.042-.021-.084-.033-.125a1.074,1.074,0,0,0-.192-.394.5.5,0,0,0-.383-.188.525.525,0,0,0-.281.109.891.891,0,0,0-.341.728c.009.479.492,1.239,1.028.779a.739.739,0,0,0,.236-.488A1.262,1.262,0,0,0,1051.908,1426.378Z" transform="translate(-1000.737 -1407.935)" fill="#1c2139"/>
          <path id="Trazado_101917" data-name="Trazado 101917" d="M1062.621,1425.871c-.01-.042-.021-.083-.033-.125a1.069,1.069,0,0,0-.193-.393.493.493,0,0,0-.383-.188.514.514,0,0,0-.28.109.89.89,0,0,0-.342.727c.009.48.492,1.239,1.028.78a.742.742,0,0,0,.237-.488A1.306,1.306,0,0,0,1062.621,1425.871Z" transform="translate(-1002.954 -1407.83)" fill="#1c2139"/>
          <path id="Trazado_101918" data-name="Trazado 101918" d="M1059.61,1433.467a9.328,9.328,0,0,0-1.252.675,5.179,5.179,0,0,1-1.356.471,4.957,4.957,0,0,1-1.4.088c-.233-.019-.463-.047-.694-.089a1.044,1.044,0,0,0-.682.017.186.186,0,0,0-.071.215c.172.446.963.562,1.376.611a5.441,5.441,0,0,0,3.188-.559,2.335,2.335,0,0,0,1.193-1.084A.251.251,0,0,0,1059.61,1433.467Z" transform="translate(-1001.455 -1409.546)" fill="#f68a73"/>
        </g>
        <g id="Grupo_69943" data-name="Grupo 69943" transform="translate(306.322 174.331)">
          <path id="Trazado_101919" data-name="Trazado 101919" d="M1145.586,1643.807h-6.852l-11.556-110.8a3.4,3.4,0,1,1,6.769-.7Z" transform="translate(-1127.158 -1529.252)" fill="#253858"/>
        </g>
        <path id="Trazado_101920" data-name="Trazado 101920" d="M927.937,1660.425c-.021,2.223,2.68,2.98,5.181,3.328q3.847.535,7.7,1.056l9.231,1.267c2.9.4,5.883,1.057,6.607-2.755l.645-3.395c.212-1.112,1.062-3.258.241-4.214-.655-.795-2.072-.523-2.936-.374s-3.439,1.553-4.161.888a.656.656,0,0,1-.143-.546,5.733,5.733,0,0,0,.151-2.261c-.275-.812-1.149-1.1-1.927-1.287-.749-.182-1.5-.364-2.258-.538-1.075-.266-2.436-.4-3.081.609a10.254,10.254,0,0,0-.558,1.68,1.58,1.58,0,0,1-.229.445,2.428,2.428,0,0,1-.845.658c-.032.016-.075.04-.107.055-.246.125-.491.251-.746.374a14.681,14.681,0,0,1-1.384.614c-.25.085-.49.17-.747.235a5.534,5.534,0,0,1-1.347.2.06.06,0,0,1-.04,0,6.878,6.878,0,0,1-1.418-.155,12.674,12.674,0,0,0-3.35-.539,4.844,4.844,0,0,0-3.834,2.56A4.567,4.567,0,0,0,927.937,1660.425Z" transform="translate(-779.6 -1380.205)" fill="#97a0af"/>
        <path id="Trazado_101921" data-name="Trazado 101921" d="M945.106,1655.634c2.053,1.959,5.346,3.492,7.657,3.135.233-.037.383-.4.144-.546-1.287-.821-2.85-1.145-4.208-1.878a15.862,15.862,0,0,1-2.52-1.814,1.579,1.579,0,0,1-.229.445A2.426,2.426,0,0,1,945.106,1655.634Z" transform="translate(-783.154 -1380.853)" fill="#fff"/>
        <path id="Trazado_101922" data-name="Trazado 101922" d="M942.285,1657.077a14.135,14.135,0,0,0,1.216,1.328c1.087,1.052,2.463,2.372,4.017,2.625a.459.459,0,0,0,.417-.726c-.864-1.082-2.2-1.761-3.209-2.723-.377-.359-.713-.733-1.057-1.117A14.7,14.7,0,0,1,942.285,1657.077Z" transform="translate(-782.57 -1381.253)" fill="#fff"/>
        <path id="Trazado_101923" data-name="Trazado 101923" d="M982.812,1667.4c1.023,1.974,3.764,1.375,6.136.509q3.649-1.331,7.293-2.677l8.747-3.209c2.753-1.01,5.692-1.826,4.543-5.532q-.512-1.65-1.022-3.3c-.335-1.082-.59-3.376-1.764-3.835-.951-.394-2.075.51-2.768,1.047s-2.309,2.983-3.258,2.735a.656.656,0,0,1-.383-.415c-.31-.7-.373-1.56-.926-2.069a2.389,2.389,0,0,0-2.306-.233c-.747.19-1.494.381-2.247.584-1.075.269-2.34.786-2.435,1.983a10.363,10.363,0,0,0,.3,1.745,1.585,1.585,0,0,1,.006.5,2.422,2.422,0,0,1-.438.977c-.021.029-.048.07-.068.1-.159.226-.316.451-.484.68a14.672,14.672,0,0,1-.935,1.191c-.181.192-.352.38-.549.557a5.547,5.547,0,0,1-1.1.811.056.056,0,0,1-.033.023,6.968,6.968,0,0,1-1.325.528,12.677,12.677,0,0,0-3.211,1.094,4.845,4.845,0,0,0-2.186,4.059A4.557,4.557,0,0,0,982.812,1667.4Z" transform="translate(-790.873 -1379.762)" fill="#97a0af"/>
        <path id="Trazado_101924" data-name="Trazado 101924" d="M994.867,1657.641c2.732.767,6.359.577,8.233-.822.189-.143.149-.536-.128-.55-1.521-.122-3.054.325-4.6.315a15.9,15.9,0,0,1-3.077-.421,1.584,1.584,0,0,1,.006.5A2.424,2.424,0,0,1,994.867,1657.641Z" transform="translate(-793.453 -1381.191)" fill="#fff"/>
        <path id="Trazado_101925" data-name="Trazado 101925" d="M992.992,1660.2a14.007,14.007,0,0,0,1.7.6c1.453.42,3.288.94,4.778.435a.459.459,0,0,0,.028-.837c-1.27-.55-2.768-.523-4.111-.9-.5-.141-.973-.312-1.458-.491A14.664,14.664,0,0,1,992.992,1660.2Z" transform="translate(-793.065 -1381.78)" fill="#fff"/>
        <path id="Trazado_101926" data-name="Trazado 101926" d="M1080.392,1496.23l-2.325-17.968-2.992-24.652s10.008,3.034,12.518,13.752c3.385,14.453,5.986,33.972,3.09,37.585-2.419,3.017-45.821-1.383-45.821-1.383a5.832,5.832,0,0,1,5.117-5.692c6.2-1.159,8.688.28,8.688.28Z" transform="translate(-803.802 -1339.264)" fill="#ffb69e"/>
        <g id="Grupo_69944" data-name="Grupo 69944" transform="translate(172.456 125.258)">
          <path id="Trazado_101927" data-name="Trazado 101927" d="M1064.394,1517.989v.824h-27.129v-2.526h25.42A1.706,1.706,0,0,1,1064.394,1517.989Z" transform="translate(-974.686 -1477.495)" fill="#6e859c"/>
          <path id="Trazado_101928" data-name="Trazado 101928" d="M1064.394,1517.989v.824h-27.129v-2.526h25.42A1.706,1.706,0,0,1,1064.394,1517.989Z" transform="translate(-974.686 -1477.495)" fill="#7197bf"/>
          <path id="Trazado_101929" data-name="Trazado 101929" d="M1030.725,1508.68H965.334l-6.935-37.869a2.918,2.918,0,0,1,2.867-3.442h59.468a2.913,2.913,0,0,1,2.867,2.39Z" transform="translate(-958.351 -1467.37)" fill="#7197bf"/>
          <path id="Trazado_101930" data-name="Trazado 101930" d="M1028.411,1508.68H965.334l-6.935-37.869a2.918,2.918,0,0,1,2.867-3.442h57.154a2.913,2.913,0,0,1,2.867,2.39Z" transform="translate(-958.351 -1467.37)" fill="#88acd1"/>
          <path id="Trazado_101931" data-name="Trazado 101931" d="M974.83,1498.409l12.239-2.223a.343.343,0,0,0,.243-.119c.045-.073-2.285-8.628-2.461-8.585-2.469.6-11.45,2.12-11.9,3.27C972.661,1491.48,974.451,1498.473,974.83,1498.409Z" transform="translate(-961.366 -1471.533)" fill="#7197bf"/>
          <path id="Trazado_101932" data-name="Trazado 101932" d="M972.26,1493.338a3.968,3.968,0,0,1-2.892-1.446,4.476,4.476,0,0,1-.767-2.64,4.75,4.75,0,0,1,.59-2.535,4.437,4.437,0,0,1,2.989-1.908,6.241,6.241,0,0,1,3.75.442,3.457,3.457,0,0,1,1.666,1.413,3.7,3.7,0,0,1,.371,1.583,5.577,5.577,0,0,1-.515,2.8C976.532,1492.859,974.156,1493.48,972.26,1493.338Z" transform="translate(-960.473 -1470.956)" fill="#e1e8ff"/>
        </g>
        <path id="Trazado_101933" data-name="Trazado 101933" d="M1086.082,1482.592s8.12.957,14.295-1.489c0,0-2.385-24.092-17.415-27.494Z" transform="translate(-811.688 -1339.264)" fill="#ceb8a7"/>
        <circle id="Elipse_4641" data-name="Elipse 4641" cx="4.248" cy="4.248" r="4.248" transform="translate(273.124 280.523)" fill="#253858"/>
        <path id="Trazado_101934" data-name="Trazado 101934" d="M1095.252,1666.894H1082.8a6.224,6.224,0,0,1,12.449,0Z" transform="translate(-811.655 -1382.124)" fill="#6c798f"/>
        <circle id="Elipse_4642" data-name="Elipse 4642" cx="4.248" cy="4.248" r="4.248" transform="translate(231.704 280.523)" fill="#253858"/>
        <path id="Trazado_101935" data-name="Trazado 101935" d="M1043.021,1666.894h-12.449a6.224,6.224,0,0,1,12.449,0Z" transform="translate(-800.844 -1382.124)" fill="#6c798f"/>
        <g id="Grupo_69945" data-name="Grupo 69945" transform="translate(132.876 129.02)">
          <path id="Trazado_101936" data-name="Trazado 101936" d="M912.954,1472.115l.2,2.25a4.228,4.228,0,0,0-3.373.249,3.414,3.414,0,0,0-1.345,3.157,5.479,5.479,0,0,0,1.99,4.593,4.706,4.706,0,0,0,2.832.914,5.027,5.027,0,0,0,.7-.05l.3,3.32H925.53l1.3-14.434Zm-1.5,8.883a3.913,3.913,0,0,1-1.308-3.256c-.014-.871.177-1.443.568-1.7.694-.454,2.031-.06,2.613.177l.48,5.308A3.119,3.119,0,0,1,911.453,1481Z" transform="translate(-908.44 -1472.115)" fill="#5b4f5a"/>
        </g>
        <g id="Grupo_69947" data-name="Grupo 69947" transform="translate(119.262 143.454)">
          <g id="Grupo_69946" data-name="Grupo 69946">
            <rect id="Rectángulo_5519" data-name="Rectángulo 5519" width="38.65" height="7.73" rx="2.64" transform="translate(0 7.698)" fill="#172b4d"/>
            <path id="Trazado_101937" data-name="Trazado 101937" d="M930.31,1513.62a1.939,1.939,0,0,1-1.939,1.939h-32.5a.955.955,0,1,0,0,1.91h34.412a1.938,1.938,0,0,0,1.938-1.938v-3.821a1.939,1.939,0,0,0-1.938-1.939H895.87a.955.955,0,0,0,0,1.91h32.5A1.939,1.939,0,0,1,930.31,1513.62Z" transform="translate(-892.026 -1494.343)" fill="#88acd1"/>
            <path id="Trazado_101938" data-name="Trazado 101938" d="M895.884,1514.116a6.183,6.183,0,0,1-.269,1.948h34.967v-3.9H895.615A6.179,6.179,0,0,1,895.884,1514.116Z" transform="translate(-892.171 -1494.839)" fill="#fff"/>
            <path id="Trazado_101939" data-name="Trazado 101939" d="M898.429,1513.342a72.705,72.705,0,0,1,7.5-.044l7.674.008,7.495.007c2.54,0,5.143-.142,7.674.087a.054.054,0,0,1,0,.109c-2.472.224-5.014.085-7.5.087l-7.673.008-7.5.007a74.341,74.341,0,0,1-7.674-.044A.113.113,0,0,1,898.429,1513.342Z" transform="translate(-892.731 -1495.056)" fill="#d9d9d9"/>
            <path id="Trazado_101940" data-name="Trazado 101940" d="M901.433,1515.373c2.219-.194,4.469-.11,6.695-.1a47.922,47.922,0,0,1,6.362.116.073.073,0,0,1,0,.14,47.922,47.922,0,0,1-6.362.116c-2.225.006-4.476.09-6.695-.1A.081.081,0,0,1,901.433,1515.373Z" transform="translate(-893.359 -1495.471)" fill="#d9d9d9"/>
            <path id="Trazado_101941" data-name="Trazado 101941" d="M894.879,1494.165a1.939,1.939,0,0,1,1.939-1.939h32.5a.955.955,0,0,0,0-1.91H894.907a1.939,1.939,0,0,0-1.938,1.939v3.82a1.938,1.938,0,0,0,1.938,1.939h34.412a.955.955,0,0,0,0-1.91h-32.5A1.939,1.939,0,0,1,894.879,1494.165Z" transform="translate(-891.624 -1490.316)" fill="#88acd1"/>
            <path id="Trazado_101942" data-name="Trazado 101942" d="M929.915,1494.661a6.18,6.18,0,0,1,.269-1.948H895.217v3.9h34.967A6.177,6.177,0,0,1,929.915,1494.661Z" transform="translate(-892.089 -1490.812)" fill="#fff"/>
            <path id="Trazado_101943" data-name="Trazado 101943" d="M928.537,1496.327a72.809,72.809,0,0,1-7.5.043l-7.674-.007-7.495-.008c-2.54,0-5.143.143-7.674-.086a.055.055,0,0,1,0-.109c2.472-.224,5.014-.085,7.5-.087l7.673-.007,7.5-.007a74.411,74.411,0,0,1,7.674.043A.113.113,0,0,1,928.537,1496.327Z" transform="translate(-892.695 -1491.487)" fill="#d9d9d9"/>
            <path id="Trazado_101944" data-name="Trazado 101944" d="M910.352,1494.276c-2.156.072-4.323.011-6.481.01a39.938,39.938,0,0,1-6.139-.1.035.035,0,0,1,0-.067,40,40,0,0,1,6.139-.1c2.157,0,4.324-.061,6.481.01A.127.127,0,0,1,910.352,1494.276Z" transform="translate(-892.604 -1491.066)" fill="#d9d9d9"/>
            <path id="Trazado_101945" data-name="Trazado 101945" d="M930.052,1494.3c-2.219.194-4.469.109-6.695.1a48.067,48.067,0,0,1-6.362-.115.073.073,0,0,1,0-.14,48.088,48.088,0,0,1,6.362-.115c2.225-.005,4.476-.09,6.695.1A.081.081,0,0,1,930.052,1494.3Z" transform="translate(-896.586 -1491.075)" fill="#d9d9d9"/>
          </g>
        </g>
        <g id="Grupo_69949" data-name="Grupo 69949" transform="translate(98.33 166.568)">
          <g id="Grupo_69948" data-name="Grupo 69948" transform="translate(2.356 7.763)">
            <path id="Trazado_101946" data-name="Trazado 101946" d="M886.255,1533.008l-11.564,110.8h-6.845l11.632-111.5a3.406,3.406,0,0,1,6.776.7Z" transform="translate(-867.847 -1529.252)" fill="#253858"/>
          </g>
          <rect id="Rectángulo_5520" data-name="Rectángulo 5520" width="216.106" height="12.246" transform="translate(6.675 9.253)" fill="#42526e"/>
          <rect id="Rectángulo_5521" data-name="Rectángulo 5521" width="229.455" height="10.54" rx="3.599" fill="#253858"/>
        </g>
      </g>
    </g>
    <g id="Grupo_69954" data-name="Grupo 69954" transform="translate(773.679 1346.65)">
      <g id="Grupo_69952" data-name="Grupo 69952" transform="translate(0 1.102)">
        <path id="Trazado_101948" data-name="Trazado 101948" d="M984.039,1390.189H788.87c-3.661,0-6.63-3.824-6.63-8.543V1366.3c0-4.719,2.968-8.543,6.63-8.543H984.039c3.661,0,6.63,3.825,6.63,8.543v15.344C990.669,1386.365,987.7,1390.189,984.039,1390.189Z" transform="translate(-782.24 -1357.758)" fill="#a59386"/>
      </g>
      <g id="Grupo_69953" data-name="Grupo 69953" transform="translate(44.042 2.818)">
        <text id="_Bienvenido_" data-name="¡Bienvenido!" transform="translate(0 23)" fill="#fff" font-size="22" font-family="Roboto-Bold, Roboto" font-weight="700"><tspan x="0" y="0">¡Bienvenido!</tspan></text>
      </g>
    </g>
  </g>
</svg>
