<svg xmlns="http://www.w3.org/2000/svg" width="280.12" height="287.138" viewBox="0 0 280.12 287.138">
  <g id="Grupo_70186" data-name="Grupo 70186" transform="translate(-880.202 -1702.955)">
    <g id="Grupo_70185" data-name="Grupo 70185" transform="translate(880.202 1702.955)">
      <path id="Trazado_102522" data-name="Trazado 102522" d="M1020.262,1702.955l69.884,35.965,70.176,35.673-70.176,35.965-69.884,35.965-69.884-35.965L880.2,1774.593l70.176-35.673Z" transform="translate(-880.202 -1702.955)" fill="#d9ac80"/>
      <path id="Trazado_102523" data-name="Trazado 102523" d="M1088.734,1824.506v-32.456l-35.088,17.836v32.456l19.3-23.684Z" transform="translate(-861.246 -1693.218)" fill="#d7baa4"/>
      <path id="Trazado_102524" data-name="Trazado 102524" d="M1006.463,1839.466v143.569l140.06-71.638V1767.535l-52.632,27.193-1.17.584v31.58l-14.62-5.555-19.3,23.684v-32.456Z" transform="translate(-866.403 -1695.897)" fill="#a67e4f"/>
      <path id="Trazado_102525" data-name="Trazado 102525" d="M1020.262,1983.034V1839.466L950.378,1803.5,880.2,1767.535V1911.4Z" transform="translate(-880.202 -1695.897)" fill="#926e43"/>
      <path id="Trazado_102526" data-name="Trazado 102526" d="M927.649,1745.042l139.768,71.93,33.918-17.252,1.17-.584-139.768-71.93-17.544,9.064Z" transform="translate(-875.017 -1700.305)" fill="#f2d3ba"/>
    </g>
  </g>
</svg>
